<?xml version="1.0" encoding="utf-8"?>
<!-- Generator: Adobe Illustrator 22.1.0, SVG Export Plug-In . SVG Version: 6.00 Build 0)  -->
<svg version="1.1" id="Layer_1" xmlns="http://www.w3.org/2000/svg" xmlns:xlink="http://www.w3.org/1999/xlink" x="0px" y="0px"
	 viewBox="0 0 434.9 316.3" style="enable-background:new 0 0 434.9 316.3;" xml:space="preserve">
<style type="text/css">
	.st0{opacity:0.399;fill:none;stroke:#6D8CAD;enable-background:new    ;}
	.st1{fill:#6D8CAD;}
	.st2{fill:none;stroke:#6D8CAD;stroke-linecap:round;stroke-linejoin:round;stroke-miterlimit:10;}
	.st3{fill:none;stroke:#6D8CAD;stroke-miterlimit:10;}
</style>
<g transform="translate(345.336 -800.893)">
	<path id="Path_733-5" class="st0" d="M-311.1,821.5v228.8"/>
</g>
<g transform="translate(487.336 -800.893)">
	<path id="Path_733-6" class="st0" d="M-311.1,821.5v228.8"/>
</g>
<g transform="translate(629.336 -800.893)">
	<path id="Path_733-7" class="st0" d="M-311.1,821.5v228.8"/>
</g>
<g id="Symbol_21_2" transform="translate(426 0.147)">
	<g id="Group_61" transform="translate(201.423 1075.853)">
		<g id="Group_55" transform="translate(283.541 6.404)">
			<circle id="Ellipse_16" class="st1" cx="-592.4" cy="-817.6" r="1.4"/>
			<circle id="Ellipse_17" class="st1" cx="-612.1" cy="-783.8" r="1.4"/>
			<circle id="Ellipse_18" class="st1" cx="-573" cy="-783.8" r="1.4"/>
			<path id="Path_18" class="st2" d="M-592.5-817.6l-19.6,33.9h39.1L-592.5-817.6z"/>
			<path id="Path_19" class="st2" d="M-592.3-794.7l-9.3,4.9h18.6L-592.3-794.7z"/>
			<path id="Path_20" class="st2" d="M-592.3-805.9l-9.3,16.1l9.3-4.9V-805.9z"/>
			<path id="Path_21" class="st2" d="M-592.3-805.9l0.1,11.1l9.2,5L-592.3-805.9z"/>
		</g>
		<g id="Group_56" transform="translate(141.221 5.354)">
			<circle id="Ellipse_19" class="st1" cx="-592.4" cy="-817.6" r="1.4"/>
			<circle id="Ellipse_20" class="st1" cx="-612.1" cy="-783.8" r="1.4"/>
			<circle id="Ellipse_21" class="st1" cx="-573" cy="-783.8" r="1.4"/>
			<path id="Path_22" class="st2" d="M-592.5-817.6l-19.6,33.9h39.1L-592.5-817.6z"/>
			<path id="Path_23" class="st2" d="M-592.3-794.7l-9.3,4.9h18.6L-592.3-794.7z"/>
			<path id="Path_24" class="st2" d="M-592.3-805.9l-9.3,16.1l9.3-4.9V-805.9z"/>
			<path id="Path_25" class="st2" d="M-592.3-805.9l0.1,11.1l9.2,5L-592.3-805.9z"/>
		</g>
		<g id="Group_57" transform="translate(0 5.354)">
			<circle id="Ellipse_22" class="st1" cx="-592.4" cy="-817.6" r="1.4"/>
			<circle id="Ellipse_23" class="st1" cx="-612.1" cy="-783.8" r="1.4"/>
			<circle id="Ellipse_24" class="st1" cx="-573" cy="-783.8" r="1.4"/>
			<path id="Path_26" class="st2" d="M-592.5-817.6l-19.6,33.9h39.1L-592.5-817.6z"/>
			<path id="Path_27" class="st2" d="M-592.3-794.7l-9.3,4.9h18.6L-592.3-794.7z"/>
			<path id="Path_28" class="st2" d="M-592.3-805.9l-9.3,16.1l9.3-4.9V-805.9z"/>
			<path id="Path_29" class="st2" d="M-592.3-805.9l0.1,11.1l9.2,5L-592.3-805.9z"/>
		</g>
		<g id="Group_58" transform="translate(355.452 1.05)">
			<rect id="Rectangle_52" x="-610.4" y="-809.5" class="st3" width="23.7" height="32.5"/>
			<rect id="Rectangle_53" x="-586.8" y="-797.4" class="st3" width="23.7" height="20.5"/>
			<path id="Path_30" class="st3" d="M-584-809.5h-29.4l10.5-9.5h8.4L-584-809.5z"/>
			<rect id="Rectangle_54" x="-601.6" y="-785.7" class="st3" width="7.1" height="8.8"/>
			<rect id="Rectangle_55" x="-578.5" y="-785.7" class="st3" width="7.1" height="8.8"/>
			<rect id="Rectangle_56" x="-606.3" y="-795.4" class="st3" width="5.5" height="4.9"/>
			<rect id="Rectangle_57" x="-595.4" y="-795.4" class="st3" width="5.5" height="4.9"/>
			<rect id="Rectangle_58" x="-583.2" y="-795.4" class="st3" width="5.5" height="4.9"/>
			<rect id="Rectangle_59" x="-572.3" y="-795.4" class="st3" width="5.5" height="4.9"/>
			<rect id="Rectangle_60" x="-606.3" y="-803.8" class="st3" width="5.5" height="4.9"/>
			<rect id="Rectangle_61" x="-595.4" y="-803.8" class="st3" width="5.5" height="4.9"/>
			<rect id="Rectangle_62" x="-586.7" y="-800.9" class="st3" width="24.7" height="3.4"/>
		</g>
		<g id="Group_59" transform="translate(71.911 0)">
			<rect id="Rectangle_63" x="-610.4" y="-809.5" class="st3" width="23.7" height="32.5"/>
			<rect id="Rectangle_64" x="-585.8" y="-797.4" class="st3" width="22.7" height="20.5"/>
			<path id="Path_31" class="st3" d="M-584-809.5h-29.4l10.5-9.5h8.4L-584-809.5z"/>
			<rect id="Rectangle_65" x="-601.6" y="-785.7" class="st3" width="7.1" height="8.8"/>
			<rect id="Rectangle_66" x="-578.5" y="-785.7" class="st3" width="7.1" height="8.8"/>
			<rect id="Rectangle_67" x="-606.3" y="-795.4" class="st3" width="5.5" height="4.9"/>
			<rect id="Rectangle_68" x="-595.4" y="-795.4" class="st3" width="5.5" height="4.9"/>
			<rect id="Rectangle_69" x="-583.2" y="-795.4" class="st3" width="5.5" height="4.9"/>
			<rect id="Rectangle_70" x="-572.3" y="-795.4" class="st3" width="5.5" height="4.9"/>
			<rect id="Rectangle_71" x="-606.3" y="-803.8" class="st3" width="5.5" height="4.9"/>
			<rect id="Rectangle_72" x="-595.4" y="-803.8" class="st3" width="5.5" height="4.9"/>
			<rect id="Rectangle_73" x="-586.7" y="-800.9" class="st3" width="24.7" height="3.4"/>
		</g>
		<g id="Group_60" transform="translate(209.132 4.774)">
			<rect id="Rectangle_74" x="-610.4" y="-801.1" class="st3" width="46.2" height="19.4"/>
			<rect id="Rectangle_75" x="-613.4" y="-809.6" class="st3" width="52.2" height="4.3"/>
			<path id="Path_32" class="st3" d="M-564.1-801.1h-46.4l-1.6-4.3h49.5L-564.1-801.1z"/>
			<rect id="Rectangle_76" x="-591.8" y="-790.5" class="st3" width="9.9" height="8.8"/>
			<rect id="Rectangle_77" x="-577.6" y="-790.5" class="st3" width="9.9" height="8.8"/>
			<rect id="Rectangle_78" x="-606" y="-790.5" class="st3" width="9.9" height="8.8"/>
			<rect id="Rectangle_79" x="-606.1" y="-797.5" class="st3" width="10" height="4.9"/>
			<rect id="Rectangle_80" x="-591.9" y="-797.5" class="st3" width="10" height="4.9"/>
			<rect id="Rectangle_81" x="-577.7" y="-797.5" class="st3" width="10" height="4.9"/>
			<rect id="Rectangle_82" x="-600.9" y="-819" class="st3" width="27.6" height="9.4"/>
		</g>
	</g>
</g>
</svg>
