<?xml version="1.0" encoding="utf-8"?>
<!-- Generator: Adobe Illustrator 22.0.1, SVG Export Plug-In . SVG Version: 6.00 Build 0)  -->
<svg version="1.1" id="Layer_1" xmlns="http://www.w3.org/2000/svg" xmlns:xlink="http://www.w3.org/1999/xlink" x="0px" y="0px"
	 width="44px" height="44px" viewBox="0 0 44 44" style="enable-background:new 0 0 44 44;" xml:space="preserve">
<style type="text/css">
	.st0{fill:#FFFFFF;}
</style>
<g id="chrome" transform="translate(1732.998 408.988)">
	<path id="XMLID_17_" class="st0" d="M-1719.2-387c0,4.5,3.7,8.2,8.2,8.2s8.2-3.7,8.2-8.2c0-4.5-3.7-8.2-8.2-8.2
		C-1715.5-395.2-1719.2-391.5-1719.2-387C-1719.2-387-1719.2-387-1719.2-387z"/>
	<path id="XMLID_18_" class="st0" d="M-1692.1-397.8c0.1-0.1,0.1-0.3,0-0.4c-6.2-10.5-19.7-13.9-30.2-7.7c-2.3,1.4-4.3,3.1-6,5.2
		c-0.1,0.1-0.1,0.3,0,0.4l6.2,10.7c0.1,0.1,0.2,0.2,0.3,0.2c0,0,0,0,0,0c0.1,0,0.3-0.1,0.3-0.3c1.2-4.7,5.5-8,10.4-8
		c0.3,0,0.6,0,0.9,0h17.7C-1692.2-397.7-1692.1-397.7-1692.1-397.8z"/>
	<path id="XMLID_19_" class="st0" d="M-1707.7-376.5c-0.1-0.1-0.2-0.2-0.4-0.1c-5,1.4-10.4-1-12.6-5.8l0,0l-8.8-15.3
		c-0.1-0.1-0.2-0.2-0.3-0.2l0,0c-0.1,0-0.2,0.1-0.3,0.2c-6,10.6-2.2,24,8.4,30c2.3,1.3,4.9,2.2,7.5,2.6c0,0,0,0,0.1,0
		c0.1,0,0.2-0.1,0.3-0.2l6.2-10.7C-1707.6-376.3-1707.7-376.4-1707.7-376.5L-1707.7-376.5z"/>
	<path id="XMLID_20_" class="st0" d="M-1690.8-395.3h-12.4c-0.2,0-0.4,0.2-0.4,0.4c0,0.1,0,0.2,0.1,0.3c3.7,3.7,4.3,9.5,1.3,13.7
		l0,0l-8.9,15.3c-0.1,0.2,0,0.4,0.1,0.5c0.1,0,0.1,0,0.2,0l0,0c12.2-0.1,21.9-10.1,21.8-22.3c0-2.7-0.5-5.3-1.5-7.8
		C-1690.6-395.2-1690.7-395.2-1690.8-395.3L-1690.8-395.3z"/>
</g>
</svg>
