<?xml version="1.0" encoding="utf-8"?><svg width="240" height="30" viewBox="0 0 240 30" xmlns="http://www.w3.org/2000/svg" xmlns:xlink="http://www.w3.org/1999/xlink"><svg id="flag-de" viewBox="0 0 30 19.7" width="30" height="19.7" xmlns="http://www.w3.org/2000/svg"><style>.ast0{fill:#464655}.ast1{fill:#ffe15a}.ast2{fill:#ff4b55}</style><path class="ast0" d="M30 6.6H0v-6C0 .2.2 0 .5 0h29c.3 0 .5.2.5.5v6.1z"/><path class="ast1" d="M29.5 19.7H.5c-.3 0-.5-.2-.5-.5v-6h30v6c0 .2-.2.5-.5.5z"/><path class="ast2" d="M0 6.6h30v6.6H0z"/></svg><svg id="flag-en" viewBox="0 0 30 19.7" width="30" height="19.7" x="30" xmlns="http://www.w3.org/2000/svg"><style>.bst0{fill:#41479b}.bst1{fill:#f5f5f5}.bst2{fill:#ff4b55}</style><path class="bst0" d="M29.5 19.7H.5c-.3 0-.5-.2-.5-.5V.5C0 .2.2 0 .5 0h29c.3 0 .5.2.5.5v18.6c0 .3-.2.6-.5.6z"/><path class="bst1" d="M30 .5c0-.3-.2-.5-.5-.5h-2.3l-9.6 6.3V0h-5.2v6.3L2.8 0H.5C.2 0 0 .2 0 .5v1.3l8.2 5.4H0v5.2h8.2L0 17.8v1.3c0 .3.2.5.5.5h2.3l9.6-6.3v6.3h5.2v-6.3l9.6 6.3h2.3c.3 0 .5-.2.5-.5v-1.3l-8.2-5.4H30V7.2h-8.2L30 1.9V.5z"/><path class="bst2" d="M30 8.3H16.6V0h-3.2v8.3H0v3.1h13.4v8.3h3.2v-8.3H30z"/><path class="bst2" d="M10.5 12.4L0 19.2c0 .2.2.4.5.4h.7l11.2-7.2h-1.9zm9.8 0h-1.9l11.1 7.2c.3 0 .5-.2.5-.5v-.4l-9.7-6.3zM0 1.1l9.5 6.2h1.9L.3.1C.1.1 0 .3 0 .5v.6zm19.5 6.1L30 .4c0-.2-.2-.4-.5-.4h-.7L17.6 7.2h1.9z"/></svg><svg id="flag-ru" viewBox="0 0 30 19.7" width="30" height="19.7" x="60" xmlns="http://www.w3.org/2000/svg"><style>.cst0{fill:#f5f5f5}.cst1{fill:#ff4b55}.cst2{fill:#41479b}</style><path class="cst0" d="M30 6.6H0v-6C0 .2.2 0 .5 0h29c.3 0 .5.2.5.5v6.1z"/><path class="cst1" d="M29.5 19.7H.5c-.3 0-.5-.2-.5-.5v-6h30v6c0 .2-.2.5-.5.5z"/><path class="cst2" d="M0 6.6h30v6.6H0z"/></svg><svg id="flag-zh" viewBox="0 0 30 19.7" width="30" height="19.7" x="90" xmlns="http://www.w3.org/2000/svg"><style>.dst0{fill:#ff4b55}.dst1{fill:#ffe15a}</style><path class="dst0" d="M29.5 19.7H.5c-.3 0-.5-.2-.5-.5V.5C0 .2.2 0 .5 0h29c.3 0 .5.2.5.5v18.6c0 .3-.2.6-.5.6z"/><path class="dst1" d="M5 3.1l.5 1.5h1.6c.2 0 .3.3.1.4l-1.3.9.5 1.5c0 .1-.2.3-.4.2l-1.2-.9-1.3.9c-.2.1-.4 0-.3-.2l.5-1.5-1.3-1c-.2-.1-.1-.3.1-.3h1.6l.5-1.5c0-.2.3-.2.4 0zm5.6.3l.4.5.6-.2c.1 0 .1.1.1.1l-.3.5.3.5c0 .1 0 .1-.1.1l-.6-.1-.4.5c0 .1-.1 0-.1 0v-.6l-.6-.3c-.1 0-.1-.1 0-.2l.6-.2v-.6h.1zM8.5 2l.6.1.3-.5c0-.1.1-.1.2 0l.1.6.6.1c.1 0 .1.1 0 .1l-.6.2.1.6c0 .1-.1.1-.1.1l-.4-.4-.6.3c-.1 0-.1 0-.1-.1l.2-.5-.4-.5s0-.1.1-.1zm.9 5.8l-.3.5-.6-.2c-.1 0-.1.1-.1.1l.3.5-.3.5c0 .1 0 .1.1.1l.6-.2.4.5c0 .1.1 0 .1 0V9l.6-.2c.1 0 .1-.1 0-.2l-.6-.2v-.6s-.1-.1-.2 0zm2.2-1.4l-.6.1-.3-.5c0-.1-.1-.1-.2 0l-.1.6h-.5c-.1 0-.1.1 0 .1l.5.3-.1.6c0 .1.1.1.1.1l.4-.4.5.3c.1 0 .1 0 .1-.1l-.2-.5.4-.4c.1-.1.1-.2 0-.2z"/></svg><svg id="i-menu-dark" viewBox="0 0 30 30" width="30" height="30" x="120" xmlns="http://www.w3.org/2000/svg"><style>.est0{fill:#fff}</style><path class="est0" d="M15 0C6.7 0 0 6.7 0 15s6.7 15 15 15 15-6.7 15-15S23.3 0 15 0zm6.4 22H8.6c-.6 0-1.1-.5-1.1-1.1s.5-1.1 1.1-1.1h12.9c.6 0 1.1.5 1.1 1.1S22 22 21.4 22zm0-5.9H8.6c-.6 0-1.1-.5-1.1-1.1s.5-1.1 1.1-1.1h12.9c.6 0 1.1.5 1.1 1.1s-.6 1.1-1.2 1.1zm0-5.9H8.6c-.6 0-1.1-.5-1.1-1.1C7.5 8.5 8 8 8.6 8h12.9c.6 0 1.1.5 1.1 1.1-.1.6-.6 1.1-1.2 1.1z"/></svg><svg id="i-menu-light" viewBox="0 0 30 19.2" width="30" height="19.2" x="150" xmlns="http://www.w3.org/2000/svg"><style>.fst0{fill:#fff}</style><path class="fst0" d="M1.1 2.3h27.7c.6 0 1.1-.5 1.1-1.1s-.4-1.2-1-1.2H1.1C.5 0 0 .5 0 1.1s.5 1.2 1.1 1.2zm0 8.5h27.7c.6 0 1.1-.5 1.1-1.1s-.5-1.1-1.1-1.1H1.1C.5 8.5 0 9 0 9.6s.5 1.2 1.1 1.2zm0 8.4h27.7c.6 0 1.1-.5 1.1-1.1 0-.6-.5-1.1-1.1-1.1H1.1c-.6 0-1.1.5-1.1 1.1 0 .6.5 1.1 1.1 1.1z"/></svg><svg width="25.257" height="25.257" viewBox="0 0 25.257 25.257" id="logo-aira" x="180" xmlns="http://www.w3.org/2000/svg"><g data-name="Group 1349"><path data-name="Rectangle 764" fill="#fff" d="M12.268 12.749h.401v10.183h-.401z"/></g><g data-name="Group 1350"><path data-name="Rectangle 765" fill="#fff" d="M22.771 2.325h.401v20.687h-.401z"/></g><g data-name="Group 1351"><path data-name="Rectangle 766" fill="#fff" d="M2.14 22.833L22.778 2.195l.283.284L2.424 23.117z"/></g><g data-name="Group 1352"><path data-name="Rectangle 767" fill="#fff" d="M2.325 22.771h20.687v.401H2.325z"/></g><g data-name="Group 1353"><path data-name="Rectangle 768" fill="#fff" d="M12.332 22.792l10.46-10.176.28.288-10.46 10.175z"/></g><g data-name="Group 1358"><circle data-name="Ellipse 249" cx="2.325" cy="2.325" r="2.325" fill="#fff" transform="translate(20.606 20.606)"/></g><g data-name="Group 1359"><circle data-name="Ellipse 250" cx="2.325" cy="2.325" r="2.325" fill="#fff" transform="translate(20.606)"/></g><g data-name="Group 1360"><circle data-name="Ellipse 251" cx="2.325" cy="2.325" r="2.325" fill="#fff" transform="translate(20.606 10.263)"/></g><g data-name="Group 1361"><circle data-name="Ellipse 252" cx="2.325" cy="2.325" r="2.325" fill="#fff" transform="translate(0 20.606)"/></g><g data-name="Group 1362"><circle data-name="Ellipse 253" cx="2.325" cy="2.325" r="2.325" fill="#fff" transform="translate(10.263 20.606)"/></g><g data-name="Group 1363"><circle data-name="Ellipse 254" cx="2.325" cy="2.325" r="2.325" fill="#fff" transform="translate(10.263 10.423)"/></g></svg><svg width="33.481" height="29.491" viewBox="0 0 33.481 29.491" id="logo-robonomics" x="206" xmlns="http://www.w3.org/2000/svg"><g data-name="3_Robonomics_logo_white"><g data-name="Group 2881"><path data-name="Path 1161" d="M16.778 1.003l-15.7 27.2h31.411z" fill="none" stroke="#fff" stroke-miterlimit="10" stroke-width=".4"/><circle data-name="Ellipse 281" cx="1.107" cy="1.107" r="1.107" transform="rotate(-25.517 75.973 -53.666)" fill="#fff"/><circle data-name="Ellipse 282" cx="1.107" cy="1.107" r="1.107" transform="translate(15.694)" fill="#fff"/><circle data-name="Ellipse 283" cx="1.107" cy="1.107" r="1.107" transform="translate(0 26.922)" fill="#fff"/></g><g data-name="Group 2882" fill="#fff"><path data-name="Path 1162" d="M10.084 23.37h13.679l-6.839-3.609z"/><path data-name="Path 1163" d="M16.654 10.907L9.696 22.963l6.972-3.67z"/><path data-name="Path 1164" d="M24.145 22.949l-6.943-12.028.057 8.325z"/></g></g></svg></svg>