<?xml version="1.0" encoding="utf-8"?>
<!-- Generator: Adobe Illustrator 23.0.1, SVG Export Plug-In . SVG Version: 6.00 Build 0)  -->
<svg version="1.1" id="Layer_1" xmlns="http://www.w3.org/2000/svg" xmlns:xlink="http://www.w3.org/1999/xlink" x="0px" y="0px"
	 viewBox="0 0 81.1 81.1" style="enable-background:new 0 0 81.1 81.1;" xml:space="preserve">
<style type="text/css">
	.st0{fill:#FFFFFF;}
</style>
<g id="QRcode">
	<g id="Pattern">
		<rect x="3" y="3" class="st0" width="3" height="3"/>
		<rect x="6" y="3" class="st0" width="3" height="3"/>
		<rect x="9" y="3" class="st0" width="3" height="3"/>
		<rect x="12" y="3" class="st0" width="3" height="3"/>
		<rect x="15" y="3" class="st0" width="3" height="3"/>
		<rect x="18" y="3" class="st0" width="3" height="3"/>
		<rect x="21" y="3" class="st0" width="3" height="3"/>
		<rect x="36" y="3" class="st0" width="3" height="3"/>
		<rect x="39" y="3" class="st0" width="3" height="3"/>
		<rect x="45" y="3" class="st0" width="3" height="3"/>
		<rect x="51" y="3" class="st0" width="3" height="3"/>
		<rect x="57" y="3" class="st0" width="3" height="3"/>
		<rect x="60.1" y="3" class="st0" width="3" height="3"/>
		<rect x="63.1" y="3" class="st0" width="3" height="3"/>
		<rect x="66.1" y="3" class="st0" width="3" height="3"/>
		<rect x="69.1" y="3" class="st0" width="3" height="3"/>
		<rect x="72.1" y="3" class="st0" width="3" height="3"/>
		<rect x="75.1" y="3" class="st0" width="3" height="3"/>
		<rect x="3" y="6" class="st0" width="3" height="3"/>
		<rect x="21" y="6" class="st0" width="3" height="3"/>
		<rect x="27" y="6" class="st0" width="3" height="3"/>
		<rect x="33" y="6" class="st0" width="3" height="3"/>
		<rect x="42" y="6" class="st0" width="3" height="3"/>
		<rect x="48" y="6" class="st0" width="3" height="3"/>
		<rect x="51" y="6" class="st0" width="3" height="3"/>
		<rect x="57" y="6" class="st0" width="3" height="3"/>
		<rect x="75.1" y="6" class="st0" width="3" height="3"/>
		<rect x="3" y="9" class="st0" width="3" height="3"/>
		<rect x="9" y="9" class="st0" width="3" height="3"/>
		<rect x="12" y="9" class="st0" width="3" height="3"/>
		<rect x="15" y="9" class="st0" width="3" height="3"/>
		<rect x="21" y="9" class="st0" width="3" height="3"/>
		<rect x="30" y="9" class="st0" width="3" height="3"/>
		<rect x="33" y="9" class="st0" width="3" height="3"/>
		<rect x="51" y="9" class="st0" width="3" height="3"/>
		<rect x="57" y="9" class="st0" width="3" height="3"/>
		<rect x="63.1" y="9" class="st0" width="3" height="3"/>
		<rect x="66.1" y="9" class="st0" width="3" height="3"/>
		<rect x="69.1" y="9" class="st0" width="3" height="3"/>
		<rect x="75.1" y="9" class="st0" width="3" height="3"/>
		<rect x="3" y="12" class="st0" width="3" height="3"/>
		<rect x="9" y="12" class="st0" width="3" height="3"/>
		<rect x="12" y="12" class="st0" width="3" height="3"/>
		<rect x="15" y="12" class="st0" width="3" height="3"/>
		<rect x="21" y="12" class="st0" width="3" height="3"/>
		<rect x="27" y="12" class="st0" width="3" height="3"/>
		<rect x="30" y="12" class="st0" width="3" height="3"/>
		<rect x="39" y="12" class="st0" width="3" height="3"/>
		<rect x="42" y="12" class="st0" width="3" height="3"/>
		<rect x="45" y="12" class="st0" width="3" height="3"/>
		<rect x="57" y="12" class="st0" width="3" height="3"/>
		<rect x="63.1" y="12" class="st0" width="3" height="3"/>
		<rect x="66.1" y="12" class="st0" width="3" height="3"/>
		<rect x="69.1" y="12" class="st0" width="3" height="3"/>
		<rect x="75.1" y="12" class="st0" width="3" height="3"/>
		<rect x="3" y="15" class="st0" width="3" height="3"/>
		<rect x="9" y="15" class="st0" width="3" height="3"/>
		<rect x="12" y="15" class="st0" width="3" height="3"/>
		<rect x="15" y="15" class="st0" width="3" height="3"/>
		<rect x="21" y="15" class="st0" width="3" height="3"/>
		<rect x="36" y="15" class="st0" width="3" height="3"/>
		<rect x="45" y="15" class="st0" width="3" height="3"/>
		<rect x="51" y="15" class="st0" width="3" height="3"/>
		<rect x="57" y="15" class="st0" width="3" height="3"/>
		<rect x="63.1" y="15" class="st0" width="3" height="3"/>
		<rect x="66.1" y="15" class="st0" width="3" height="3"/>
		<rect x="69.1" y="15" class="st0" width="3" height="3"/>
		<rect x="75.1" y="15" class="st0" width="3" height="3"/>
		<rect x="3" y="18" class="st0" width="3" height="3"/>
		<rect x="21" y="18" class="st0" width="3" height="3"/>
		<rect x="27" y="18" class="st0" width="3" height="3"/>
		<rect x="33" y="18" class="st0" width="3" height="3"/>
		<rect x="39" y="18" class="st0" width="3" height="3"/>
		<rect x="42" y="18" class="st0" width="3" height="3"/>
		<rect x="48" y="18" class="st0" width="3" height="3"/>
		<rect x="51" y="18" class="st0" width="3" height="3"/>
		<rect x="57" y="18" class="st0" width="3" height="3"/>
		<rect x="75.1" y="18" class="st0" width="3" height="3"/>
		<rect x="3" y="21" class="st0" width="3" height="3"/>
		<rect x="6" y="21" class="st0" width="3" height="3"/>
		<rect x="9" y="21" class="st0" width="3" height="3"/>
		<rect x="12" y="21" class="st0" width="3" height="3"/>
		<rect x="15" y="21" class="st0" width="3" height="3"/>
		<rect x="18" y="21" class="st0" width="3" height="3"/>
		<rect x="21" y="21" class="st0" width="3" height="3"/>
		<rect x="27" y="21" class="st0" width="3" height="3"/>
		<rect x="33" y="21" class="st0" width="3" height="3"/>
		<rect x="39" y="21" class="st0" width="3" height="3"/>
		<rect x="45" y="21" class="st0" width="3" height="3"/>
		<rect x="51" y="21" class="st0" width="3" height="3"/>
		<rect x="57" y="21" class="st0" width="3" height="3"/>
		<rect x="60.1" y="21" class="st0" width="3" height="3"/>
		<rect x="63.1" y="21" class="st0" width="3" height="3"/>
		<rect x="66.1" y="21" class="st0" width="3" height="3"/>
		<rect x="69.1" y="21" class="st0" width="3" height="3"/>
		<rect x="72.1" y="21" class="st0" width="3" height="3"/>
		<rect x="75.1" y="21" class="st0" width="3" height="3"/>
		<rect x="36" y="24" class="st0" width="3" height="3"/>
		<rect x="45" y="24" class="st0" width="3" height="3"/>
		<rect x="3" y="27" class="st0" width="3" height="3"/>
		<rect x="6" y="27" class="st0" width="3" height="3"/>
		<rect x="9" y="27" class="st0" width="3" height="3"/>
		<rect x="12" y="27" class="st0" width="3" height="3"/>
		<rect x="15" y="27" class="st0" width="3" height="3"/>
		<rect x="21" y="27" class="st0" width="3" height="3"/>
		<rect x="24" y="27" class="st0" width="3" height="3"/>
		<rect x="27" y="27" class="st0" width="3" height="3"/>
		<rect x="30" y="27" class="st0" width="3" height="3"/>
		<rect x="33" y="27" class="st0" width="3" height="3"/>
		<rect x="39" y="27" class="st0" width="3" height="3"/>
		<rect x="42" y="27" class="st0" width="3" height="3"/>
		<rect x="48" y="27" class="st0" width="3" height="3"/>
		<rect x="51" y="27" class="st0" width="3" height="3"/>
		<rect x="54" y="27" class="st0" width="3" height="3"/>
		<rect x="60.1" y="27" class="st0" width="3" height="3"/>
		<rect x="66.1" y="27" class="st0" width="3" height="3"/>
		<rect x="72.1" y="27" class="st0" width="3" height="3"/>
		<rect x="3" y="30" class="st0" width="3" height="3"/>
		<rect x="6" y="30" class="st0" width="3" height="3"/>
		<rect x="9" y="30" class="st0" width="3" height="3"/>
		<rect x="12" y="30" class="st0" width="3" height="3"/>
		<rect x="18" y="30" class="st0" width="3" height="3"/>
		<rect x="27" y="30" class="st0" width="3" height="3"/>
		<rect x="30" y="30" class="st0" width="3" height="3"/>
		<rect x="36" y="30" class="st0" width="3" height="3"/>
		<rect x="42" y="30" class="st0" width="3" height="3"/>
		<rect x="51" y="30" class="st0" width="3" height="3"/>
		<rect x="54" y="30" class="st0" width="3" height="3"/>
		<rect x="60.1" y="30" class="st0" width="3" height="3"/>
		<rect x="72.1" y="30" class="st0" width="3" height="3"/>
		<rect x="3" y="33" class="st0" width="3" height="3"/>
		<rect x="6" y="33" class="st0" width="3" height="3"/>
		<rect x="15" y="33" class="st0" width="3" height="3"/>
		<rect x="18" y="33" class="st0" width="3" height="3"/>
		<rect x="21" y="33" class="st0" width="3" height="3"/>
		<rect x="30" y="33" class="st0" width="3" height="3"/>
		<rect x="42" y="33" class="st0" width="3" height="3"/>
		<rect x="45" y="33" class="st0" width="3" height="3"/>
		<rect x="48" y="33" class="st0" width="3" height="3"/>
		<rect x="54" y="33" class="st0" width="3" height="3"/>
		<rect x="57" y="33" class="st0" width="3" height="3"/>
		<rect x="60.1" y="33" class="st0" width="3" height="3"/>
		<rect x="66.1" y="33" class="st0" width="3" height="3"/>
		<rect x="72.1" y="33" class="st0" width="3" height="3"/>
		<rect x="75.1" y="33" class="st0" width="3" height="3"/>
		<rect x="9" y="36" class="st0" width="3" height="3"/>
		<rect x="18" y="36" class="st0" width="3" height="3"/>
		<rect x="24" y="36" class="st0" width="3" height="3"/>
		<rect x="30" y="36" class="st0" width="3" height="3"/>
		<rect x="33" y="36" class="st0" width="3" height="3"/>
		<rect x="39" y="36" class="st0" width="3" height="3"/>
		<rect x="51" y="36" class="st0" width="3" height="3"/>
		<rect x="57" y="36" class="st0" width="3" height="3"/>
		<rect x="75.1" y="36" class="st0" width="3" height="3"/>
		<rect x="3" y="39" class="st0" width="3" height="3"/>
		<rect x="9" y="39" class="st0" width="3" height="3"/>
		<rect x="15" y="39" class="st0" width="3" height="3"/>
		<rect x="21" y="39" class="st0" width="3" height="3"/>
		<rect x="30" y="39" class="st0" width="3" height="3"/>
		<rect x="36" y="39" class="st0" width="3" height="3"/>
		<rect x="39" y="39" class="st0" width="3" height="3"/>
		<rect x="42" y="39" class="st0" width="3" height="3"/>
		<rect x="45" y="39" class="st0" width="3" height="3"/>
		<rect x="54" y="39" class="st0" width="3" height="3"/>
		<rect x="57" y="39" class="st0" width="3" height="3"/>
		<rect x="63.1" y="39" class="st0" width="3" height="3"/>
		<rect x="69.1" y="39" class="st0" width="3" height="3"/>
		<rect x="72.1" y="39" class="st0" width="3" height="3"/>
		<rect x="75.1" y="39" class="st0" width="3" height="3"/>
		<rect x="3" y="42" class="st0" width="3" height="3"/>
		<rect x="6" y="42" class="st0" width="3" height="3"/>
		<rect x="9" y="42" class="st0" width="3" height="3"/>
		<rect x="15" y="42" class="st0" width="3" height="3"/>
		<rect x="18" y="42" class="st0" width="3" height="3"/>
		<rect x="33" y="42" class="st0" width="3" height="3"/>
		<rect x="36" y="42" class="st0" width="3" height="3"/>
		<rect x="51" y="42" class="st0" width="3" height="3"/>
		<rect x="60.1" y="42" class="st0" width="3" height="3"/>
		<rect x="66.1" y="42" class="st0" width="3" height="3"/>
		<rect x="72.1" y="42" class="st0" width="3" height="3"/>
		<rect x="3" y="45" class="st0" width="3" height="3"/>
		<rect x="9" y="45" class="st0" width="3" height="3"/>
		<rect x="12" y="45" class="st0" width="3" height="3"/>
		<rect x="21" y="45" class="st0" width="3" height="3"/>
		<rect x="27" y="45" class="st0" width="3" height="3"/>
		<rect x="39" y="45" class="st0" width="3" height="3"/>
		<rect x="48" y="45" class="st0" width="3" height="3"/>
		<rect x="51" y="45" class="st0" width="3" height="3"/>
		<rect x="54" y="45" class="st0" width="3" height="3"/>
		<rect x="60.1" y="45" class="st0" width="3" height="3"/>
		<rect x="63.1" y="45" class="st0" width="3" height="3"/>
		<rect x="66.1" y="45" class="st0" width="3" height="3"/>
		<rect x="72.1" y="45" class="st0" width="3" height="3"/>
		<rect x="75.1" y="45" class="st0" width="3" height="3"/>
		<rect x="3" y="48" class="st0" width="3" height="3"/>
		<rect x="9" y="48" class="st0" width="3" height="3"/>
		<rect x="12" y="48" class="st0" width="3" height="3"/>
		<rect x="18" y="48" class="st0" width="3" height="3"/>
		<rect x="24" y="48" class="st0" width="3" height="3"/>
		<rect x="30" y="48" class="st0" width="3" height="3"/>
		<rect x="45" y="48" class="st0" width="3" height="3"/>
		<rect x="48" y="48" class="st0" width="3" height="3"/>
		<rect x="51" y="48" class="st0" width="3" height="3"/>
		<rect x="54" y="48" class="st0" width="3" height="3"/>
		<rect x="57" y="48" class="st0" width="3" height="3"/>
		<rect x="60.1" y="48" class="st0" width="3" height="3"/>
		<rect x="63.1" y="48" class="st0" width="3" height="3"/>
		<rect x="75.1" y="48" class="st0" width="3" height="3"/>
		<rect x="3" y="51" class="st0" width="3" height="3"/>
		<rect x="9" y="51" class="st0" width="3" height="3"/>
		<rect x="21" y="51" class="st0" width="3" height="3"/>
		<rect x="33" y="51" class="st0" width="3" height="3"/>
		<rect x="36" y="51" class="st0" width="3" height="3"/>
		<rect x="39" y="51" class="st0" width="3" height="3"/>
		<rect x="42" y="51" class="st0" width="3" height="3"/>
		<rect x="45" y="51" class="st0" width="3" height="3"/>
		<rect x="48" y="51" class="st0" width="3" height="3"/>
		<rect x="51" y="51" class="st0" width="3" height="3"/>
		<rect x="54" y="51" class="st0" width="3" height="3"/>
		<rect x="57" y="51" class="st0" width="3" height="3"/>
		<rect x="60.1" y="51" class="st0" width="3" height="3"/>
		<rect x="63.1" y="51" class="st0" width="3" height="3"/>
		<rect x="69.1" y="51" class="st0" width="3" height="3"/>
		<rect x="27" y="54" class="st0" width="3" height="3"/>
		<rect x="30" y="54" class="st0" width="3" height="3"/>
		<rect x="36" y="54" class="st0" width="3" height="3"/>
		<rect x="42" y="54" class="st0" width="3" height="3"/>
		<rect x="48" y="54" class="st0" width="3" height="3"/>
		<rect x="51" y="54" class="st0" width="3" height="3"/>
		<rect x="63.1" y="54" class="st0" width="3" height="3"/>
		<rect x="66.1" y="54" class="st0" width="3" height="3"/>
		<rect x="3" y="57" class="st0" width="3" height="3"/>
		<rect x="6" y="57" class="st0" width="3" height="3"/>
		<rect x="9" y="57" class="st0" width="3" height="3"/>
		<rect x="12" y="57" class="st0" width="3" height="3"/>
		<rect x="15" y="57" class="st0" width="3" height="3"/>
		<rect x="18" y="57" class="st0" width="3" height="3"/>
		<rect x="21" y="57" class="st0" width="3" height="3"/>
		<rect x="27" y="57" class="st0" width="3" height="3"/>
		<rect x="30" y="57" class="st0" width="3" height="3"/>
		<rect x="39" y="57" class="st0" width="3" height="3"/>
		<rect x="51" y="57" class="st0" width="3" height="3"/>
		<rect x="57" y="57" class="st0" width="3" height="3"/>
		<rect x="63.1" y="57" class="st0" width="3" height="3"/>
		<rect x="69.1" y="57" class="st0" width="3" height="3"/>
		<rect x="72.1" y="57" class="st0" width="3" height="3"/>
		<rect x="75.1" y="57" class="st0" width="3" height="3"/>
		<rect x="3" y="60.1" class="st0" width="3" height="3"/>
		<rect x="21" y="60.1" class="st0" width="3" height="3"/>
		<rect x="36" y="60.1" class="st0" width="3" height="3"/>
		<rect x="45" y="60.1" class="st0" width="3" height="3"/>
		<rect x="51" y="60.1" class="st0" width="3" height="3"/>
		<rect x="63.1" y="60.1" class="st0" width="3" height="3"/>
		<rect x="66.1" y="60.1" class="st0" width="3" height="3"/>
		<rect x="3" y="63.1" class="st0" width="3" height="3"/>
		<rect x="9" y="63.1" class="st0" width="3" height="3"/>
		<rect x="12" y="63.1" class="st0" width="3" height="3"/>
		<rect x="15" y="63.1" class="st0" width="3" height="3"/>
		<rect x="21" y="63.1" class="st0" width="3" height="3"/>
		<rect x="27" y="63.1" class="st0" width="3" height="3"/>
		<rect x="30" y="63.1" class="st0" width="3" height="3"/>
		<rect x="36" y="63.1" class="st0" width="3" height="3"/>
		<rect x="39" y="63.1" class="st0" width="3" height="3"/>
		<rect x="42" y="63.1" class="st0" width="3" height="3"/>
		<rect x="45" y="63.1" class="st0" width="3" height="3"/>
		<rect x="48" y="63.1" class="st0" width="3" height="3"/>
		<rect x="51" y="63.1" class="st0" width="3" height="3"/>
		<rect x="54" y="63.1" class="st0" width="3" height="3"/>
		<rect x="57" y="63.1" class="st0" width="3" height="3"/>
		<rect x="60.1" y="63.1" class="st0" width="3" height="3"/>
		<rect x="63.1" y="63.1" class="st0" width="3" height="3"/>
		<rect x="69.1" y="63.1" class="st0" width="3" height="3"/>
		<rect x="72.1" y="63.1" class="st0" width="3" height="3"/>
		<rect x="3" y="66.1" class="st0" width="3" height="3"/>
		<rect x="9" y="66.1" class="st0" width="3" height="3"/>
		<rect x="12" y="66.1" class="st0" width="3" height="3"/>
		<rect x="15" y="66.1" class="st0" width="3" height="3"/>
		<rect x="21" y="66.1" class="st0" width="3" height="3"/>
		<rect x="27" y="66.1" class="st0" width="3" height="3"/>
		<rect x="30" y="66.1" class="st0" width="3" height="3"/>
		<rect x="33" y="66.1" class="st0" width="3" height="3"/>
		<rect x="36" y="66.1" class="st0" width="3" height="3"/>
		<rect x="39" y="66.1" class="st0" width="3" height="3"/>
		<rect x="45" y="66.1" class="st0" width="3" height="3"/>
		<rect x="51" y="66.1" class="st0" width="3" height="3"/>
		<rect x="54" y="66.1" class="st0" width="3" height="3"/>
		<rect x="57" y="66.1" class="st0" width="3" height="3"/>
		<rect x="63.1" y="66.1" class="st0" width="3" height="3"/>
		<rect x="66.1" y="66.1" class="st0" width="3" height="3"/>
		<rect x="69.1" y="66.1" class="st0" width="3" height="3"/>
		<rect x="72.1" y="66.1" class="st0" width="3" height="3"/>
		<rect x="75.1" y="66.1" class="st0" width="3" height="3"/>
		<rect x="3" y="69.1" class="st0" width="3" height="3"/>
		<rect x="9" y="69.1" class="st0" width="3" height="3"/>
		<rect x="12" y="69.1" class="st0" width="3" height="3"/>
		<rect x="15" y="69.1" class="st0" width="3" height="3"/>
		<rect x="21" y="69.1" class="st0" width="3" height="3"/>
		<rect x="27" y="69.1" class="st0" width="3" height="3"/>
		<rect x="30" y="69.1" class="st0" width="3" height="3"/>
		<rect x="42" y="69.1" class="st0" width="3" height="3"/>
		<rect x="48" y="69.1" class="st0" width="3" height="3"/>
		<rect x="66.1" y="69.1" class="st0" width="3" height="3"/>
		<rect x="69.1" y="69.1" class="st0" width="3" height="3"/>
		<rect x="75.1" y="69.1" class="st0" width="3" height="3"/>
		<rect x="3" y="72.1" class="st0" width="3" height="3"/>
		<rect x="21" y="72.1" class="st0" width="3" height="3"/>
		<rect x="27" y="72.1" class="st0" width="3" height="3"/>
		<rect x="30" y="72.1" class="st0" width="3" height="3"/>
		<rect x="39" y="72.1" class="st0" width="3" height="3"/>
		<rect x="51" y="72.1" class="st0" width="3" height="3"/>
		<rect x="54" y="72.1" class="st0" width="3" height="3"/>
		<rect x="60.1" y="72.1" class="st0" width="3" height="3"/>
		<rect x="63.1" y="72.1" class="st0" width="3" height="3"/>
		<rect x="66.1" y="72.1" class="st0" width="3" height="3"/>
		<rect x="75.1" y="72.1" class="st0" width="3" height="3"/>
		<rect x="3" y="75.1" class="st0" width="3" height="3"/>
		<rect x="6" y="75.1" class="st0" width="3" height="3"/>
		<rect x="9" y="75.1" class="st0" width="3" height="3"/>
		<rect x="12" y="75.1" class="st0" width="3" height="3"/>
		<rect x="15" y="75.1" class="st0" width="3" height="3"/>
		<rect x="18" y="75.1" class="st0" width="3" height="3"/>
		<rect x="21" y="75.1" class="st0" width="3" height="3"/>
		<rect x="27" y="75.1" class="st0" width="3" height="3"/>
		<rect x="30" y="75.1" class="st0" width="3" height="3"/>
		<rect x="39" y="75.1" class="st0" width="3" height="3"/>
		<rect x="42" y="75.1" class="st0" width="3" height="3"/>
		<rect x="45" y="75.1" class="st0" width="3" height="3"/>
		<rect x="54" y="75.1" class="st0" width="3" height="3"/>
		<rect x="60.1" y="75.1" class="st0" width="3" height="3"/>
		<rect x="63.1" y="75.1" class="st0" width="3" height="3"/>
		<rect x="66.1" y="75.1" class="st0" width="3" height="3"/>
		<rect x="69.1" y="75.1" class="st0" width="3" height="3"/>
		<rect x="72.1" y="75.1" class="st0" width="3" height="3"/>
		<rect x="75.1" y="75.1" class="st0" width="3" height="3"/>
	</g>
</g>
</svg>
