<?xml version="1.0" encoding="utf-8"?><svg width="634" height="130" viewBox="0 0 634 130" xmlns="http://www.w3.org/2000/svg" xmlns:xlink="http://www.w3.org/1999/xlink"><svg id="flag-de" viewBox="0 0 30 19.7" width="30" height="19.7" xmlns="http://www.w3.org/2000/svg"><style>.ast0{fill:#464655}.ast1{fill:#ffe15a}.ast2{fill:#ff4b55}</style><path class="ast0" d="M30 6.6H0v-6C0 .2.2 0 .5 0h29c.3 0 .5.2.5.5v6.1z"/><path class="ast1" d="M29.5 19.7H.5c-.3 0-.5-.2-.5-.5v-6h30v6c0 .2-.2.5-.5.5z"/><path class="ast2" d="M0 6.6h30v6.6H0z"/></svg><svg id="flag-en" viewBox="0 0 30 19.7" width="30" height="19.7" x="30" xmlns="http://www.w3.org/2000/svg"><style>.bst0{fill:#41479b}.bst1{fill:#f5f5f5}.bst2{fill:#ff4b55}</style><path class="bst0" d="M29.5 19.7H.5c-.3 0-.5-.2-.5-.5V.5C0 .2.2 0 .5 0h29c.3 0 .5.2.5.5v18.6c0 .3-.2.6-.5.6z"/><path class="bst1" d="M30 .5c0-.3-.2-.5-.5-.5h-2.3l-9.6 6.3V0h-5.2v6.3L2.8 0H.5C.2 0 0 .2 0 .5v1.3l8.2 5.4H0v5.2h8.2L0 17.8v1.3c0 .3.2.5.5.5h2.3l9.6-6.3v6.3h5.2v-6.3l9.6 6.3h2.3c.3 0 .5-.2.5-.5v-1.3l-8.2-5.4H30V7.2h-8.2L30 1.9V.5z"/><path class="bst2" d="M30 8.3H16.6V0h-3.2v8.3H0v3.1h13.4v8.3h3.2v-8.3H30z"/><path class="bst2" d="M10.5 12.4L0 19.2c0 .2.2.4.5.4h.7l11.2-7.2h-1.9zm9.8 0h-1.9l11.1 7.2c.3 0 .5-.2.5-.5v-.4l-9.7-6.3zM0 1.1l9.5 6.2h1.9L.3.1C.1.1 0 .3 0 .5v.6zm19.5 6.1L30 .4c0-.2-.2-.4-.5-.4h-.7L17.6 7.2h1.9z"/></svg><svg id="flag-jp" viewBox="0 0 30 20" width="30" height="20" x="60" xmlns="http://www.w3.org/2000/svg"><style>.cst0{fill:#f0f0f0}.cst1{fill:#d80027}</style><path class="cst0" d="M0 0h30v20H0z"/><circle class="cst1" cx="15" cy="10" r="5.6"/></svg><svg id="flag-ru" viewBox="0 0 30 19.7" width="30" height="19.7" x="90" xmlns="http://www.w3.org/2000/svg"><style>.dst0{fill:#f5f5f5}.dst1{fill:#ff4b55}.dst2{fill:#41479b}</style><path class="dst0" d="M30 6.6H0v-6C0 .2.2 0 .5 0h29c.3 0 .5.2.5.5v6.1z"/><path class="dst1" d="M29.5 19.7H.5c-.3 0-.5-.2-.5-.5v-6h30v6c0 .2-.2.5-.5.5z"/><path class="dst2" d="M0 6.6h30v6.6H0z"/></svg><svg id="flag-zh" viewBox="0 0 30 19.7" width="30" height="19.7" x="120" xmlns="http://www.w3.org/2000/svg"><style>.est0{fill:#ff4b55}.est1{fill:#ffe15a}</style><path class="est0" d="M29.5 19.7H.5c-.3 0-.5-.2-.5-.5V.5C0 .2.2 0 .5 0h29c.3 0 .5.2.5.5v18.6c0 .3-.2.6-.5.6z"/><path class="est1" d="M5 3.1l.5 1.5h1.6c.2 0 .3.3.1.4l-1.3.9.5 1.5c0 .1-.2.3-.4.2l-1.2-.9-1.3.9c-.2.1-.4 0-.3-.2l.5-1.5-1.3-1c-.2-.1-.1-.3.1-.3h1.6l.5-1.5c0-.2.3-.2.4 0zm5.6.3l.4.5.6-.2c.1 0 .1.1.1.1l-.3.5.3.5c0 .1 0 .1-.1.1l-.6-.1-.4.5c0 .1-.1 0-.1 0v-.6l-.6-.3c-.1 0-.1-.1 0-.2l.6-.2v-.6h.1zM8.5 2l.6.1.3-.5c0-.1.1-.1.2 0l.1.6.6.1c.1 0 .1.1 0 .1l-.6.2.1.6c0 .1-.1.1-.1.1l-.4-.4-.6.3c-.1 0-.1 0-.1-.1l.2-.5-.4-.5s0-.1.1-.1zm.9 5.8l-.3.5-.6-.2c-.1 0-.1.1-.1.1l.3.5-.3.5c0 .1 0 .1.1.1l.6-.2.4.5c0 .1.1 0 .1 0V9l.6-.2c.1 0 .1-.1 0-.2l-.6-.2v-.6s-.1-.1-.2 0zm2.2-1.4l-.6.1-.3-.5c0-.1-.1-.1-.2 0l-.1.6h-.5c-.1 0-.1.1 0 .1l.5.3-.1.6c0 .1.1.1.1.1l.4-.4.5.3c.1 0 .1 0 .1-.1l-.2-.5.4-.4c.1-.1.1-.2 0-.2z"/></svg><svg width="13.758" height="9.899" viewBox="0 0 13.758 9.899" id="i-check" x="150" xmlns="http://www.w3.org/2000/svg"><path d="M4.95 9.9a1.087 1.087 0 0 1-.772-.32L.32 5.721a1.091 1.091 0 1 1 1.543-1.543L4.95 7.269 11.9.32a1.091 1.091 0 1 1 1.543 1.543L5.722 9.58a1.088 1.088 0 0 1-.772.32z" fill="#54ce63"/></svg><svg id="i-checked" viewBox="0 0 22.5 22.5" width="22.5" height="22.5" x="164" xmlns="http://www.w3.org/2000/svg"><style>.gst0{fill:#fff}.gst1{fill:#54ce63}</style><circle class="gst0" cx="11.3" cy="11.2" r="9.5"/><g id="gchecked" transform="translate(-.004)"><path id="gPath_1166" class="gst1" d="M11.2 0C5 0 0 5 0 11.2s5 11.2 11.2 11.2 11.2-5 11.2-11.2S17.4 0 11.2 0zm0 20.3c-5 0-9.1-4.1-9.1-9.1s4.1-9.1 9.1-9.1 9.1 4.1 9.1 9.1c0 5.1-4 9.1-9.1 9.1zm4.4-13.9c-.5-.3-1.1-.1-1.3.3l-3.8 6.8L8.4 11c-.3-.5-.9-.6-1.4-.4-.5.3-.7.9-.4 1.4l2.9 3.6c.2.3.4.4.7.5.5.1 1-.1 1.3-.5L16 7.9c.3-.5.1-1.2-.4-1.5z"/></g></svg><svg id="i-error" viewBox="0 0 22.4 22.4" width="22.4" height="22.4" x="187" xmlns="http://www.w3.org/2000/svg"><style>.hst0{fill:#fff}.hst1{fill:#f15a24}</style><circle class="hst0" cx="11.2" cy="11.2" r="9.7"/><path id="hPath_1165" class="hst1" d="M11.2 0C5 0 0 5 0 11.2s5 11.2 11.2 11.2 11.2-5 11.2-11.2S17.4 0 11.2 0zm0 20.3c-5 0-9.1-4.1-9.1-9.1s4.1-9.1 9.1-9.1 9.1 4.1 9.1 9.1c0 5.1-4 9.1-9.1 9.1zm0-15.4c-.8 0-1.4.4-1.4 1.1v6.2c0 .7.6 1.1 1.4 1.1.8 0 1.4-.4 1.4-1.1V6c0-.6-.6-1.1-1.4-1.1zm0 9.8c-.8 0-1.4.6-1.4 1.4 0 .8.6 1.4 1.4 1.4.8 0 1.4-.6 1.4-1.4 0-.7-.6-1.4-1.4-1.4z"/></svg><svg id="i-humidity" width="35.92" height="35.92" viewBox="0 0 35.92 35.92" x="210" xmlns="http://www.w3.org/2000/svg"><style>.ist0{fill:#fff}</style><path class="ist0" d="M13.61 35.92c-3.64 0-7.05-1.4-9.62-3.95A13.406 13.406 0 0 1 0 22.38V22c0-4.71 3.99-9.28 7.5-13.32 2.56-2.94 4.98-5.72 4.98-7.56 0-.62.51-1.13 1.13-1.13s1.13.51 1.13 1.13c0 1.96 2.45 4.74 5.05 7.69l1.36 1.55c.2.23.29.52.27.82-.02.3-.16.57-.39.77-.21.18-.47.28-.74.28-.33 0-.64-.14-.86-.39l-1.22-1.4C16.4 8.39 14.88 6.67 13.84 5l-.25-.4-.25.4c-1.03 1.61-2.54 3.34-4.13 5.16C5.95 13.9 2.26 18.14 2.26 22v.38c0 6.22 5.09 11.28 11.35 11.28 3.04 0 5.86-1.13 7.95-3.17.21-.21.49-.32.79-.32.3 0 .59.12.8.34.21.22.33.5.32.8 0 .3-.12.59-.34.79-2.51 2.47-5.89 3.82-9.52 3.82zm21.19-8.34c-1.37 0-2.72-.78-4.01-2.33-.13-.15-.33-.23-.56-.23a.73.73 0 0 0-.56.24c-1.29 1.55-2.64 2.33-4.01 2.33s-2.72-.78-4.01-2.33c-.13-.15-.33-.23-.56-.23a.73.73 0 0 0-.56.24c-1.29 1.55-2.64 2.33-4.01 2.33s-2.72-.78-4.01-2.33c-.13-.15-.33-.23-.56-.23a.73.73 0 0 0-.56.24c-1.29 1.55-2.64 2.33-4.01 2.33-.62 0-1.13-.51-1.13-1.13s.51-1.13 1.13-1.13c.65 0 1.46-.54 2.28-1.52.55-.66 1.39-1.04 2.29-1.04.9 0 1.74.38 2.29 1.05.82.98 1.63 1.52 2.28 1.52.65 0 1.46-.54 2.28-1.52.55-.66 1.39-1.04 2.29-1.04s1.74.38 2.29 1.05c.82.98 1.63 1.52 2.28 1.52s1.46-.54 2.28-1.52c.55-.66 1.39-1.04 2.29-1.04s1.74.38 2.29 1.05c.82.98 1.63 1.52 2.28 1.52.62 0 1.13.51 1.13 1.13s-.51 1.07-1.13 1.07zm0-7.13c-1.37 0-2.72-.78-4.01-2.33-.13-.15-.33-.23-.56-.23a.73.73 0 0 0-.56.24c-1.29 1.55-2.64 2.33-4.01 2.33s-2.72-.78-4.01-2.33c-.13-.15-.33-.23-.56-.23a.73.73 0 0 0-.56.24c-1.29 1.55-2.64 2.33-4.01 2.33-.62 0-1.13-.51-1.13-1.13s.51-1.13 1.13-1.13c.65 0 1.46-.54 2.28-1.52.55-.66 1.39-1.04 2.29-1.04s1.74.38 2.29 1.05c.82.98 1.63 1.52 2.28 1.52s1.46-.54 2.28-1.52c.55-.66 1.39-1.04 2.29-1.04s1.74.38 2.29 1.05c.82.98 1.63 1.52 2.28 1.52.62 0 1.13.51 1.13 1.13s-.51 1.09-1.13 1.09z"/></svg><svg id="i-menu-dark" viewBox="0 0 30 30" width="30" height="30" x="246" xmlns="http://www.w3.org/2000/svg"><style>.jst0{fill:#fff}</style><path class="jst0" d="M15 0C6.7 0 0 6.7 0 15s6.7 15 15 15 15-6.7 15-15S23.3 0 15 0zm6.4 22H8.6c-.6 0-1.1-.5-1.1-1.1s.5-1.1 1.1-1.1h12.9c.6 0 1.1.5 1.1 1.1S22 22 21.4 22zm0-5.9H8.6c-.6 0-1.1-.5-1.1-1.1s.5-1.1 1.1-1.1h12.9c.6 0 1.1.5 1.1 1.1s-.6 1.1-1.2 1.1zm0-5.9H8.6c-.6 0-1.1-.5-1.1-1.1C7.5 8.5 8 8 8.6 8h12.9c.6 0 1.1.5 1.1 1.1-.1.6-.6 1.1-1.2 1.1z"/></svg><svg id="i-menu-light" viewBox="0 0 30 19.2" width="30" height="19.2" x="276" xmlns="http://www.w3.org/2000/svg"><style>.kst0{fill:#fff}</style><path class="kst0" d="M1.1 2.3h27.7c.6 0 1.1-.5 1.1-1.1s-.4-1.2-1-1.2H1.1C.5 0 0 .5 0 1.1s.5 1.2 1.1 1.2zm0 8.5h27.7c.6 0 1.1-.5 1.1-1.1s-.5-1.1-1.1-1.1H1.1C.5 8.5 0 9 0 9.6s.5 1.2 1.1 1.2zm0 8.4h27.7c.6 0 1.1-.5 1.1-1.1 0-.6-.5-1.1-1.1-1.1H1.1c-.6 0-1.1.5-1.1 1.1 0 .6.5 1.1 1.1 1.1z"/></svg><svg id="i-pressure" width="38.16" height="50.7" viewBox="0 0 38.16 50.7" x="306" xmlns="http://www.w3.org/2000/svg"><style>.lst0{fill:#fff}</style><path class="lst0" d="M19.08 4.18c-8.21 0-14.9 6.68-14.9 14.9s6.68 14.9 14.9 14.9 14.9-6.68 14.9-14.9-6.69-14.9-14.9-14.9zm2.32 19.33l-.81 2.63h-3.02l-.81-2.63 2.32-8.7 2.32 8.7zm-2.32 8.9c-7.09 0-12.9-5.56-13.3-12.54h3.37V18.3H5.77c.16-2.82 1.21-5.41 2.87-7.5l2.04 2.04 1.11-1.11-2.1-2.1c2.24-2.22 5.26-3.66 8.6-3.85v3.37h.67l-3.84 14.39 1.28 4.17h5.34l1.28-4.17-3.83-14.39h.67V5.77c3.35.2 6.37 1.63 8.6 3.85l-2.1 2.1 1.11 1.11 2.04-2.04a13.26 13.26 0 0 1 2.87 7.5h-3.37v1.57h3.37c-.4 6.99-6.22 12.55-13.3 12.55z"/><path class="lst0" d="M38.16 19.08C38.16 8.56 29.6 0 19.08 0S0 8.56 0 19.08c0 9.46 6.92 17.45 16.2 18.86v7.54h-3.92c-1.01 0-1.83.82-1.83 1.83v1.83H6.01v1.57h26.13v-1.57H27.7V47.3c0-1.01-.82-1.83-1.83-1.83h-3.92v-7.54c9.29-1.4 16.21-9.39 16.21-18.85zM25.87 47.04c.14 0 .26.12.26.26v1.83H12.02V47.3c0-.14.12-.26.26-.26h13.59zm-4.79-10.57l-.69.08v8.93h-2.61v-8.93l-.69-.08C8.24 35.45 1.57 27.98 1.57 19.08c0-9.66 7.86-17.51 17.51-17.51s17.51 7.86 17.51 17.51c0 8.9-6.67 16.37-15.51 17.39z"/></svg><svg id="i-temp" width="26.82" height="73.14" viewBox="0 0 26.82 73.14" x="345" xmlns="http://www.w3.org/2000/svg"><style>.mst0{fill:#fff}</style><path class="mst0" d="M13.41 0c-4.7.01-8.52 3.82-8.53 8.53v40.86C1.26 52.35-.54 56.99.14 61.61c1.03 7.33 7.82 12.43 15.15 11.4 6.62-.94 11.54-6.61 11.53-13.3.01-4-1.78-7.79-4.87-10.32V8.53C21.94 3.82 18.12.01 13.41 0zm10.97 59.71c.01 6.06-4.9 10.97-10.95 10.98-6.06.01-10.98-4.9-10.98-10.95 0-3.46 1.62-6.71 4.39-8.79.31-.23.49-.59.49-.97V46.3h2.44v-2.44H7.32V40.2h2.44v-2.44H7.32V34.1h2.44v-2.44H7.32V28h2.44v-2.44H7.32V21.9h2.44v-2.4H7.32v-3.66h2.44V13.4H7.32V8.53c0-3.37 2.73-6.09 6.09-6.09s6.09 2.73 6.09 6.09v41.45c0 .38.18.74.49.97a10.88 10.88 0 0 1 4.39 8.76z"/><path class="mst0" d="M14.63 53.74V10.97H12.2v42.77c-3.3.67-5.42 3.89-4.75 7.19s3.89 5.42 7.19 4.75c3.3-.67 5.42-3.89 4.75-7.19a6.114 6.114 0 0 0-4.76-4.75zm-1.22 9.62c-2.02 0-3.66-1.64-3.66-3.66 0-2.02 1.64-3.66 3.66-3.66s3.66 1.64 3.66 3.66c0 2.03-1.64 3.66-3.66 3.66z"/></svg><svg width="25.257" height="25.257" viewBox="0 0 25.257 25.257" id="logo-aira" x="372" xmlns="http://www.w3.org/2000/svg"><g data-name="Group 1349"><path data-name="Rectangle 764" fill="#fff" d="M12.268 12.749h.401v10.183h-.401z"/></g><g data-name="Group 1350"><path data-name="Rectangle 765" fill="#fff" d="M22.771 2.325h.401v20.687h-.401z"/></g><g data-name="Group 1351"><path data-name="Rectangle 766" fill="#fff" d="M2.14 22.833L22.778 2.195l.283.284L2.424 23.117z"/></g><g data-name="Group 1352"><path data-name="Rectangle 767" fill="#fff" d="M2.325 22.771h20.687v.401H2.325z"/></g><g data-name="Group 1353"><path data-name="Rectangle 768" fill="#fff" d="M12.332 22.792l10.46-10.176.28.288-10.46 10.175z"/></g><g data-name="Group 1358"><circle data-name="Ellipse 249" cx="2.325" cy="2.325" r="2.325" fill="#fff" transform="translate(20.606 20.606)"/></g><g data-name="Group 1359"><circle data-name="Ellipse 250" cx="2.325" cy="2.325" r="2.325" fill="#fff" transform="translate(20.606)"/></g><g data-name="Group 1360"><circle data-name="Ellipse 251" cx="2.325" cy="2.325" r="2.325" fill="#fff" transform="translate(20.606 10.263)"/></g><g data-name="Group 1361"><circle data-name="Ellipse 252" cx="2.325" cy="2.325" r="2.325" fill="#fff" transform="translate(0 20.606)"/></g><g data-name="Group 1362"><circle data-name="Ellipse 253" cx="2.325" cy="2.325" r="2.325" fill="#fff" transform="translate(10.263 20.606)"/></g><g data-name="Group 1363"><circle data-name="Ellipse 254" cx="2.325" cy="2.325" r="2.325" fill="#fff" transform="translate(10.263 10.423)"/></g></svg><svg width="33.481" height="29.491" viewBox="0 0 33.481 29.491" id="logo-robonomics" x="398" xmlns="http://www.w3.org/2000/svg"><g data-name="3_Robonomics_logo_white"><g data-name="Group 2881"><path data-name="Path 1161" d="M16.778 1.003l-15.7 27.2h31.411z" fill="none" stroke="#fff" stroke-miterlimit="10" stroke-width=".4"/><circle data-name="Ellipse 281" cx="1.107" cy="1.107" r="1.107" transform="rotate(-25.517 75.973 -53.666)" fill="#fff"/><circle data-name="Ellipse 282" cx="1.107" cy="1.107" r="1.107" transform="translate(15.694)" fill="#fff"/><circle data-name="Ellipse 283" cx="1.107" cy="1.107" r="1.107" transform="translate(0 26.922)" fill="#fff"/></g><g data-name="Group 2882" fill="#fff"><path data-name="Path 1162" d="M10.084 23.37h13.679l-6.839-3.609z"/><path data-name="Path 1163" d="M16.654 10.907L9.696 22.963l6.972-3.67z"/><path data-name="Path 1164" d="M24.145 22.949l-6.943-12.028.057 8.325z"/></g></g></svg><svg id="man-status-ok" width="101" height="130" viewBox="0 0 101 130" x="432" xmlns="http://www.w3.org/2000/svg"><style>.pst0{enable-background:new}.pst1{fill:#fff}.pst2{clip-path:url(#pSVGID_2_)}.pst3{fill:#b5c4c6}.pst4{fill:#f7ab72}.pst5{fill:#663d29}.pst6{fill:#fcba8d}.pst7{fill:#e18b4a}.pst8{fill:#7a5433}.pst9{fill:#7bea68}.pst10{fill:#51ad49}.pst11{fill:#231f20}</style><path d="M90.9 2.2C88.1.8 85.1 0 82 0 71.5 0 63 8.5 63 19c0 5 1.9 9.7 5.4 13.3l-.8 5.7c-.1.4.2.8.6.9.2 0 .4 0 .5-.1l4.3-2.9c9.3 4.9 20.8 1.4 25.7-7.9s1.4-20.9-7.8-25.8z"/><g class="pst0"><path class="pst1" d="M80.6 21.7c0 1.5-.3 2.7-1 3.8-.8 1.3-1.8 2-3.2 2-1.4 0-2.4-.5-3.1-1.6-.6-.9-.8-2.1-.8-3.5s.3-2.9 1-4.3c.8-1.7 1.9-2.6 3.1-2.6.3 0 .8.2 1.4.6 1.7 1.1 2.6 2.9 2.6 5.6zm-1.3 0c0-1.1-.1-2.1-.4-2.9-.4-1.2-1.1-1.8-2-1.8-1 0-1.8.7-2.4 2-.4 1-.7 2.2-.7 3.3 0 1.1.2 2 .5 2.7.4 1 1.1 1.5 2.1 1.5s1.8-.6 2.3-1.7c.4-.9.6-2 .6-3.1zm11.5 6c-.4.3-.8.5-1 .5-.4 0-1-.5-1.9-1.6-1.2-1.4-1.8-2.1-1.8-2.2-.2-.2-.6-.6-1.1-1.2-.4-.5-.8-.9-1.2-1.1l-.5.6v2.5c0 .2.1.4.2.7.1.3.2.5.2.7 0 .1-.1.2-.2.3s-.4.1-.5.1c-.7 0-1-.4-1-1.1v-3.6c0-.2 0-.5.1-1 .1-.4.1-.8.1-1v-7c0-1 0-1.8-.1-2.4 0-.1 0-.3-.1-.6 0-.2-.1-.4-.1-.6 0-.2.1-.3.4-.5.3-.2.5-.3.7-.3.2 0 .3 0 .5.1s.3.2.3.3c0 0 0 .2-.1.6-.1.5-.2 1.4-.2 2.7l-.1 7.4.1.1c.5-.3 1.3-1 2.3-1.9l1.8-1.8c1-1 1.5-1.5 1.7-1.5.3 0 .5.1.6.3.2.2.2.5.2.7v.1c-.7.4-1.6 1.2-2.9 2.3-1.5 1.3-2.2 2.1-2.2 2.5 0 .2.3.5.8 1.1.8.9 1.6 1.9 2.4 2.8 1.1 1.2 2 1.9 2.7 2.3v.7z"/></g><path class="pst1" d="M90.9 2.2C88.1.8 85.1 0 82 0 71.5 0 63 8.5 63 19c0 5 1.9 9.7 5.4 13.3l-.8 5.7c-.1.4.2.8.6.9.2 0 .4 0 .5-.1l4.3-2.9c9.3 4.9 20.8 1.4 25.7-7.9s1.4-20.9-7.8-25.8zm3.6 29.1c-3.3 3.3-7.8 5.2-12.5 5.2-3 0-6-.8-8.6-2.2-.2-.1-.5-.1-.8 0l-3.4 2.2.7-4.3c0-.2-.1-.5-.2-.6-6.9-6.8-7-17.9-.2-24.8s17.9-7 24.8-.2c6.9 6.7 7 17.8.2 24.7z"/><defs><path id="pSVGID_1_" d="M0 8.1h95.6V130H0z"/></defs><clipPath id="pSVGID_2_"><use xlink:href="#pSVGID_1_" overflow="visible"/></clipPath><g class="pst2"><path class="pst1" d="M44.7 114.5l1-.5c.3-.2.7-.3 1-.4.2-.1.3.2.1.3-.1.1-.2.1-.3.2.4 0 .7.1 1.1.1-.4-1.1-.9-2.3-1.5-3.3-.7-1.2-1.5-2.3-2.3-3.4-1.1.3-2.3.6-3.4.9.8.7 1.4 2.1 1.8 2.9.6 1.3 1 3 .9 4.4.4-.5 1-.9 1.6-1.2z"/><path class="pst3" d="M47 112.7c-.8-1.6-2.7-1.4-4.2-1.9-.5-.2-.9-.5-1.3-.8.2.4.4.9.5 1.2.6 1.3 1 3 .9 4.4.5-.4 1.1-.8 1.7-1.2l1-.5c.3-.2.7-.3 1-.4.2-.1.3.2.1.3-.1.1-.2.1-.3.2.4 0 .7.1 1.1.1-.2-.4-.3-.8-.5-1.3v-.1z"/><path class="pst4" d="M50 114.3c0-1.7-.1-3.5-1.4-4.7-.8-.7-1.6-.8-2.6-.9-.2 0-.5-.1-.7-.2 1.2 1.7 2.2 3.6 2.8 5.5.7.2 1.3.3 1.9.3z"/><path class="pst1" d="M24.3 122.1c3.6 1.2 8.2-.6 11.4-2 1.1-.5 2.1-1 3.1-1.6l.6-.4c.7-.4 1.5-.9 2.2-1.5.4-.3.7-.5 1.1-.8-.2-1.3-.3-2.7-.7-3.9-.4-1.2-1.1-2.6-2-3.6-1.5.4-3 .8-4.4 1.3-.4.1-.8.3-1.2.4l-.6.2c-3.7 1.3-7.4 2.8-11.1 4.2-.2.1-.3-.2-.1-.3 1.3-.7 2.6-1.3 4-1.8-1.1 0-2.2-.2-2.5-.9-.3.1-.6 0-.8-.2-.2-.2-.1-.5-.1-.8.1-.7.3-1.5.8-2.1 0-.1-.1-.2-.1-.4 0-.7.6-1.4 1.1-1.8.2-.1.3-.2.5-.3.2-.5.6-1 .9-1.4.2-.3.5-.6.9-.8-.8-.4-1.5-1-1.8-1.9-.5-2.3 2.3-1.1 3.4-.6.5-2.7 1.2-5.3 2.3-7.8 0-.1.2 0 .2.1-.8 2.6-1.5 5.3-2 7.9 2 .8 4.3 1.8 5.3 3.7.5.8.6 1.8.4 2.7-.1.5-.3 1.1-.4 1.6.2-.1.4-.1.7-.2 1.5-.5 3-.9 4.4-1.4h.1c1.2-.4 2.5-.7 3.8-1l.5-.1.4.5c.2.3.5.6.7.9 1.7.2 3.3.1 4.5 1.6 1.1 1.3 1.2 3.1 1.1 4.7.3 0 .6.1.9.1.8.1 1.6.1 2.3.2.1-2 .2-4 .2-6 0-4.5-.1-9-.1-13.5 0-.2.3-.2.3 0 .4 4.6.4 9.2.4 13.7 0 1.9 0 3.9-.1 5.8v.6l-.7-.1-2.7-.3c-.9-.1-1.8-.2-2.7-.2h-.6c-.7-.1-1.5-.1-2.2-.2-2 1.2-3.7 2.7-5.7 3.9l-.1.1c.8.4 1.5.8 2.3 1.2 2.3 1 4.6 2 7 2.9 1.9.8 4.1 1.6 6.2 1.2.5-.1 1-.3 1.4-.5l.5-.3c1.1-.9 1.6-2.2 2-3.7 1.1-4.2.8-8.6.2-12.9-.5-4.3-1.4-8.7-2.8-12.8-1.1-3.2-3.3-6.3-6.5-7.3.6 1.1 1.1 2.2 1.4 3.4l.2.6-.3.5c-.3.4-.6.8-1 1.1-.8.7-1.7 1.4-2.6 1.9.5.4 1 .9 1.5 1.3.3.3.6.6.9.8l.3.3-.3.5c-1.7 2.3-4.8 3.6-7.5 4.1.2.9.2 1.9.2 2.9s0 2.2-.4 3.2c0 .1-.2.1-.2 0-.2-1-.1-2.1 0-3.2 0-.9-.1-1.9 0-2.8v-.1c-2.9 1-6-1.3-7.6-4l-.5-.7.2-.6c.6-1.1 1.4-2.2 2.2-3.1-.3-.2-.7-.4-1-.6-.5-.3-1.1-.6-1.7-.9l-.5-.3.2-.5c.6-1.5 1.4-2.9 2.2-4.1.4-.6.8-1.1 1.2-1.6-5.2.9-8.4 5.9-10.9 10.1-2.4 4.1-4.2 8.5-5.6 13-1.2 4.3-2.5 10 1.4 13.4.5.4 1 .7 1.5.9l.6.4z"/><path class="pst3" d="M41.8 112c-.1-.3-.3-.7-.4-1-.4 5.5-7.4 7.5-12.4 8-2.3.3-5.5.6-7.2-1.4-1.7-2.1.6-4.1 2.6-4.6h.2c.6-.3 1.2-.5 1.8-.8-1.1 0-2.2-.2-2.5-.9-.3.1-.6 0-.8-.2-.2-.2-.1-.5-.1-.8v-.1c-.4.7-.9 1.5-1.5 2.1-.1.1-.4.2-.5.1-.5-.3-.8-.8-1-1.4-.7 3.5-.6 7.3 2.3 9.8.5.4 1 .7 1.5.9l.5.2c3.6 1.2 8.2-.6 11.4-2 1.1-.5 2.1-1 3.1-1.6l.6-.4c.7-.4 1.5-.9 2.2-1.5.4-.3.7-.5 1.1-.8-.3-1-.4-2.3-.9-3.6zm14.6 8.4c-1.8 1.5-4.5 1.4-6.5.4-1.3-.6-2.8-1.5-3.7-2.8-.8-1.3-.8-2.2-.3-3.4h-.2c-2 1.2-3.7 2.7-5.7 3.9l-.1.1c.8.4 1.5.8 2.3 1.2 2.3 1 4.6 2 7 2.9 1.9.8 4.1 1.6 6.2 1.2.5-.1 1-.3 1.4-.5l.5-.3c1.1-.9 1.6-2.2 2-3.7.6-2.2.8-4.5.7-6.7-.3 2.9-1.3 5.7-3.6 7.7zm-27.3-18.9c.8.3 1.6.6 2.4 1-.2-.9-.4-1.8-.5-2.7-.2-1.8-.1-3.6-.1-5.4-.7 2.3-1.4 4.7-1.8 7.1z"/><path class="pst3" d="M50.7 113.2v1.2c.3 0 .6.1.9.1.8.1 1.6.1 2.3.2.1-2 .2-4 .2-6v-6.5c-.2 1.7-.4 3.4-.8 5.1-.5 2.1-1.2 4.4-2.6 5.9z"/><path class="pst5" d="M24 190c-.9-.3-2.1-.8-2.8-1.5v-.1c-.6.2-1.2.3-1.8.5-1.1.4-2.2.8-3.2 1.3s-2 1-3 1.6c-.4.3-1.5 1-2 1.8 2.2-.1 4.4-.1 6.7-.2 2.2-.2 4.6-.8 6.9-.6.1 0 .1.2 0 .2-2.1.7-4.7.7-6.9.9-2.2.2-4.6.4-6.8 0-.1.4 0 .7.6.9 1.4-.1 2.8.1 4.2.1 1.5 0 3.1 0 4.6-.2 1.9-.1 3.8-.4 5.6-.8.2-.6.5-1.2.6-1.9.1-.6.2-1.2.2-1.9-1 .3-2 .1-2.9-.1z"/><path class="pst1" d="M35.9 87.5c-.5.9-1 1.9-1.4 2.8.7.3 1.3.7 1.9 1l.9.6.3.2-.3.5c-.4.6-.9 1.1-1.2 1.7-.4.6-.7 1.2-1 1.9 1.5 2.5 4 4.8 7 4.1-1.2-2.2-1.9-4.6-2.2-7.3-.4-3.3-.4-6.8-.1-10.2-.6.1-1.1.7-1.6 1.3 0 .1 0 .1-.1.1-.3.4-.6.8-.8 1.2-.5.7-1 1.4-1.4 2.1z"/><path class="pst4" d="M25.8 111.6c.7 0 1.4 0 2.1.1 2-.8 4-1.4 5.9-2.1.4-1.1.8-2.2.5-3.3-.5-1.9-2.5-3-4.2-3.8l-3-1.2c-.2-.1-.9-.4-1.1-.3-1 .5.3 1.8.7 2 1.2.8 2.6 1.1 3.7 1.9.6-.1 1.1-.1 1.7 0 .2 0 .2.2 0 .3-1.5.5-3.2.5-4.8.8-.7.1-1.3.2-2 .5-.1 0-.1.1-.2.1-.3.2-1 .7-1 1.1 0 .5.7.9 1.1 1.2.4-.2.8-.4 1.1-.6 1.2-.5 2.8-.9 4.1-.9.1 0 .2.2.1.2-1.5.8-3.4.8-4.8 1.7-.4.3-1.1.8-1.2 1.3-.2 1 .6 1 1.3 1z"/><path class="pst4" d="M24.9 109.3c-.3-.1-.7-.3-.9-.5-.1.3-.3.7-.4 1-.1.2-.2.7-.2.9 0 .2.2.3.4.4 0-.2.1-.4.2-.6.2-.5.5-.9.9-1.2zm4.6-4.2c-.6-.3-1.2-.6-1.9-.9h-.1c-.5.1-1 .8-1.3 1.2-.1.1-.1.2-.2.3.6-.2 1.3-.3 1.9-.3.5-.2 1.1-.3 1.6-.3z"/><path class="pst1" d="M34.9 58.2c.1-.2.1-.3.2-.5.1-.3.5-1.8-.2-1.5-.1.2-.2.4-.3.7 0 .3 0 .6.1.9-.1.1 0 .2.2.4zm16.1 0c.1-.2.1-.3.2-.5.1-.3.5-1.8-.2-1.5-.1.2-.2.4-.3.7 0 .3 0 .6.1.9 0 .1.1.2.2.4z"/><path class="pst4" d="M53.1 64.7c.1.5.1 1.1.2 1.6.5-1.6 2.1-3 3.2-4 .8-.8 1.9-1.9 3.1-2.6-.2-.5-.3-1.1-.4-1.7h-.9c-.9.1-1.8.2-2.7.2-.1 2-1.1 4-2.9 4.5-2.2.7-5.5-.4-6.4-2.7-.9-2.2 0-5.9 2.5-6.5.1 0 .2.2.1.2-2.1 1-3 3.8-2.2 5.9.7 2.1 3.6 3.2 5.6 2.7 1.8-.4 2.7-2.4 2.8-4.2v-.2c0-.7-.1-1.3-.3-1.9-.9-2.4-3.4-3.1-5.7-2.4-.1 0-.2-.2-.1-.2 2.4-1 5.3-.3 6.2 2.3.2.6.3 1.3.3 2 .8-.2 1.7-.2 2.5-.2.3 0 .7 0 1-.1-.2-1.6-.2-3.3-.1-4.8.1-2 .4-4.1.9-6.1-1.7.2-3.6 0-5.2-.7.1.2.1.5 0 .8-.3 2-2.7 2.3-4.3 2.2-3-.3-5.9-1.4-8.4-3.2.2 1.8-1.3 2.2-2.8 2.2-3.4-.1-6.3-2.5-7.4-5.6-1.5 1.8-2.4 4.1-3.3 6.2-1 2.4-1.6 4.9-1.9 7.4.1 0 .3.1.4.1.6.1 1.2.2 1.7.4.7-2.2 2.6-4.3 5-4 .1 0 .2.2 0 .2-2.6.4-4.5 2.4-4.8 5-.3 2.9 2.1 5.8 5.1 5.5 2.7-.3 4.5-2.3 4.7-5 .2-2.6-1.2-5.5-4.2-5.6-.1 0-.1-.1 0-.1 3.1-.3 4.7 2.7 4.6 5.5 1.6-1.6 5.3-2.3 6.1.2 0 .1-.1.2-.2.1-1.5-2.1-4.3-.8-6 .3.1 2.6-1.9 4.6-4.8 4.9-3.1.4-5.7-2.6-5.6-5.6 0-.4.1-.7.2-1.1-.5-.1-1.1-.2-1.6-.3-.2 0-.3-.1-.5-.1-.1.5-.1.9-.2 1.4v.1c.7 1.4 1.3 2.8 1.9 4.2.5 1.3 1.2 2.7 1.6 4.1.1-.2.1-.4.2-.5l.1-.4.4.1c2.3.9 4.8 1.1 7.4 1.1-.3-1.4.2-3.1.8-4.3.7-1.4 1.7-2.8 2.9-3.8.1-.1.2.1.2.2-.9 1.2-1.8 2.2-2.5 3.5-.4.8-.7 1.6-.8 2.5-.1.6-.1 1.2-.2 1.8 1.1 0 2.3 0 3.4-.1 3.8-.1 7.4-.8 11-1.9l.3-.1v.6zm-3.2-7.3c.1-.3.8-2 1.4-1.8h.3c.4.2.4.8.3 1.2-.1.8-.4 2.7-1.4 3-1.3.3-.8-1.8-.6-2.4zm2.8-8.2c1.2-.1 2 1.3 1.8 2.4 0 .2-.3.2-.4.1-.2-.3-.2-.8-.4-1.1-.3-.6-.9-.6-1.4-.4-.7.3-1.2.8-1.8 1.3-.1.1-.4.1-.4-.1.1-1.1 1.6-2.2 2.6-2.2zm-17.6 6.4h.3c.4.2.4.8.3 1.2-.1.8-.4 2.7-1.4 3-1.3.3-.8-1.8-.6-2.4.1-.3.8-2.1 1.4-1.8zm2.5-4.9c0 .2-.3.2-.3 0-.5-1-1-1.8-2.2-1.8-.9.1-1.6.7-2.2 1.2-.1.1-.3 0-.3-.1.2-2.7 5.6-2.2 5 .7z"/><path class="pst6" d="M29 57.4c-.3 2.9 2.1 5.8 5.1 5.5 2.7-.3 4.5-2.3 4.7-5 .2-2.5-1.2-5.4-4-5.6-.7.1-1.4.4-2.1.4-2 .6-3.5 2.4-3.7 4.7zm4.7 0c.1-.3.8-2 1.4-1.8h.3c.4.2.4.8.3 1.2-.1.8-.4 2.7-1.4 3-1.2.3-.8-1.8-.6-2.4zm21.2-1.3c-.9-2.4-3.4-3.1-5.7-2.4H49v.1c-2.1 1-3 3.8-2.2 5.9.7 2.1 3.6 3.2 5.6 2.7 1.8-.4 2.7-2.4 2.8-4.2V58c-.1-.7-.2-1.4-.3-1.9zm-3 .7c-.1.8-.4 2.7-1.4 3-1.3.3-.8-1.8-.6-2.4.1-.3.8-2 1.4-1.8h.3c.3.2.3.8.3 1.2z"/><path class="pst7" d="M59.2 58h-.9c-.4 0-.8.1-1.2.1 0 .2 0 .3.1.5 0 .4.3 1.5.7 2.3.5-.5 1.1-.9 1.7-1.3-.2-.4-.3-1-.4-1.6zM31.1 47.3c.1-.1.3-.1.4 0 .8.4 1.6.8 2.3 1.1 1.3-.5 3.3 0 3.7 1.3 1.7.3 3.5.2 5.2-1 .2-.1.4-.1.5.1 1.7 1.8 4.2 2.6 6.7 2.5.1-1.1 1.7-2.1 2.7-2.2.7 0 1.3.5 1.6 1.2.3-.2.6-.3.9-.5.2-.1.5 0 .5.1 1.2 2.4 1 5 1.3 7.6.4 0 .7 0 1.1-.1.3 0 .7 0 1-.1-.2-1.6-.2-3.3-.1-4.8.1-2 .4-4.1.9-6.1-1.7.2-3.6 0-5.2-.7.1.2.1.5 0 .8-.3 2-2.7 2.3-4.3 2.2-3-.3-5.9-1.4-8.4-3.2.2 1.8-1.3 2.2-2.8 2.2-3.4-.1-6.3-2.5-7.4-5.6-1.5 1.8-2.4 4.1-3.3 6.2-.3.7-.5 1.3-.7 2 1.1-1.1 2.3-2.1 3.4-3z"/><path class="pst4" d="M52.2 50.1c-.6.3-1.1.7-1.6 1.2 1.1-.1 2.1-.3 3.1-.7 0 0 0-.1-.1-.1-.3-.6-.9-.7-1.4-.4zM35 49c.5.2 1 .4 1.4.5-.3-.4-.7-.6-1.4-.5zm-6.2 23.5c0-.7.1-1.5.2-2.2.1-1.2.4-2.4.7-3.6-.8-1.3-1.2-2.8-1.8-4.2-.4-1-.8-2-1.1-3-.2-.5-.5-.9-.7-1.4-.1 0-.1-.1-.1-.2-.3-.5-.6-.9-1-1.3-.3-.4-.4-.5-.9-.5-.5.1-.5.3-.8.7-.3.5-.6 1.1-.8 1.8-.4 1.2-.5 2.4-.4 3.7.1 1.2.7 4.1 2.4 3.6 0-.4.1-.9.1-1.3 0-.1.2-.1.2 0 0 .4.1.8.1 1.2V67c.4 1.2 1 2.1 1.7 3.1.8.7 1.6 1.5 2.2 2.4zm-3.9-9c0 .1-.2.1-.2 0-.1-1.1 0-2.2-.1-3.3 0-.2 0-1-.4-.7-.2.1-.3.7-.3.8-.1.4-.2.7-.4 1-.1.1-.3.1-.3 0-.2-.7.4-3.3 1.6-2.5.5.3.4 1.1.4 1.6 0 .9 0 2-.3 3.1z"/><path class="pst4" d="M40.5 80.8c.4 0 .8.1 1.2.1.1 0 .2.2 0 .3-.4.1-.8.2-1.2.2 0 2.1-.2 4.3-.2 6.4.9.8 1.7 1.5 3 1.4 1.3-.1 2.1-.9 2.8-1.8 0-2-.1-4.1 0-6.2-.7.1-1.3.1-2 0-.2 0-.1-.2 0-.3.7-.1 1.3-.2 2-.3l.4-.1c3-.7 6.1-2 8.5-3.9 1.5-1.2 2.6-2.8 3.4-4.5.3-.7.6-1.4.8-2.1-.6.7-1.4 1.2-2.2 1.6-1 .5-2.2 1.1-3.3.9 0 .9-.1 1.7-.3 2.6l-.4.7-.7.4c-3.2 1.5-6.8 2.3-10.3 2.5-2.8.1-5.6-.3-8.3-.8-1.4-.3-2.9-.6-4.1-1.4l-.7-.5-.1-.6c-.1-.7-.1-1.5-.1-2.2-1.1-.9-2-2.1-2.7-3.2-.3-.4-.6-.9-.8-1.4.2 3.2.7 6.3 2.6 9 1.4 2.1 4.2 2.5 6.5 2.9 1.9.3 3.8.3 5.7.4l.5-.1z"/><path class="pst4" d="M40.4 82.8c-.1 1.7-.2 3.3-.2 5 .6.6 1.2 1.1 2 1.3.5-2.6 0-6.2-1.8-6.3z"/><path class="pst7" d="M46 81.2c-.7.1-1.3.1-2 0-.2 0-.1-.2 0-.3.3 0 .7-.1 1-.1-1.1.1-2.2.2-3.3.2.1.1.1.2 0 .2-.4.1-.8.2-1.2.2v.5c2.4 0 3.1 4.2 2.6 7.2h.2c1.3-.1 2.1-.9 2.8-1.8-.1-2-.2-4.1-.1-6.1z"/><path class="pst4" d="M36.6 80.6c-2.2-.3-5.2-.8-7.8-2 1.5 1.1 3.6 1.4 5.4 1.8 1 .2 2.1.3 3.1.3-.1-.1-.4-.1-.7-.1z"/><path class="pst8" d="M26 57c0-.3 0-.6.1-.9-.2-.1-.5-.1-.7-.3-.1 0 0-.2 0-.2h.7c.3-2.7 1.1-5.4 2.1-7.9.9-2.1 1.9-4.5 3.5-6.2l.3-.3.2.5c.9 2.5 2.8 4.6 5.6 5.2.8.2 1.9.3 2.7.1 1-.2 1.1-1.2.9-2l-.4-1 .9.7c1.9 1.4 3.9 2.5 6.2 3.1 1.6.4 4.3 1.1 5.6-.3.6-.6.5-1.3.2-1.9l-1.1-1.3 1.4.8c.8.4 1.6.7 2.5.9 1.1.2 2.2.2 3.3 0l.6-.1-.1.6c-.4 2-.8 4-.9 6-.1 1.7 0 3.3.2 5 .4 0 .8 0 1.2.1.1 0 .1.2 0 .3-.3 0-.7.1-1 .1.1.5.2 1 .2 1.5.2-.1.5-.2.8-.2.6-.8 1.3-1.5 2.2-1.8 0-1 .2-2.1.3-3.1.2-.9.2-1.8.3-2.6l.1-.6.5.3c.6.3 1.1.4 1.3 0 .1-.3-.2-1.2-.3-1.5-.1-.4-.2-.8-.4-1.2-.5-1.3-1.2-2.6-2.2-3.7l-1.2-.8c.2.1.5.1.7.2l.7.1h.2c.5.1 1.3.3 1.8.2.4-.1.8-.8.9-1.2.1-.3-.1-.7-.1-1l-.3-1.2c-.3-1-.8-2-1.5-2.9-2-2.9-5.2-4.9-8.4-6.4s-6.7-2.4-10.2-2.7c-3.5-.3-7.5-.1-10.8 1.3-1.6.7-3.1 1.8-3.9 3.4-.8 1.5-.8 3.1-.5 4.7l.1.5-.4.3c-2.2 1.6-3.2 4.2-3.9 6.8-.4 1.6-.6 3.2-.8 4.8-.1 1.5-.1 3-.4 4.5.4.1.8.7 1.2 1.3z"/><path class="pst5" d="M63 44.5h.2c.5.1 1.3.3 1.8.2.4-.1.8-.8.9-1.2.1-.3-.1-.7-.1-1l-.3-1.2c-.1-.4-.3-.7-.4-1.1-.1 1.1-.6 2-2.1 2.4-4.7 1.2-9.7-1.4-13.9-3.3.2 4.3-6.6 1.2-9.3-.8-.2 2.6-3.8 2-5.5.1-1.7-2-2.2-4.5-1.6-6.9-.8.6-1.5 1.3-2 2.2-.8 1.5-.8 3.1-.5 4.7l.1.5-.4.3c-2.2 1.6-3.2 4.2-3.9 6.8-.4 1.6-.6 3.2-.8 4.8-.1 1.5-.1 3-.4 4.5.5.3 1 1 1.3 1.5 0-.3 0-.6.1-.9-.2-.1-.5-.1-.7-.3-.1 0 0-.2 0-.2h.7c.3-2.7 1.1-5.4 2.1-7.9.9-2.1 1.9-4.5 3.5-6.2l.3-.3.2.5c.9 2.5 2.8 4.6 5.6 5.2.8.2 1.9.3 2.7.1 1-.2 1.1-1.2.9-2l-.5-1 .9.7c1.9 1.4 3.9 2.5 6.2 3.1 1.6.4 4.3 1.1 5.6-.3.6-.6.5-1.3.2-1.9l-1.1-1.3 1.4.8c.8.4 1.6.7 2.5.9 1.1.2 2.2.2 3.3 0l.6-.1-.1.6c-.4 2-.8 4-.9 6-.1 1.7 0 3.3.2 5 .4 0 .8 0 1.2.1.1 0 .1.2 0 .3-.3 0-.7.1-1 .1.1.5.2 1 .2 1.5.2-.1.5-.2.8-.2.6-.8 1.3-1.5 2.2-1.8 0-1 .2-2.1.3-3.1.2-.9.2-1.8.3-2.6l.1-.6.5.3c.6.3 1.1.4 1.3 0 .1-.3-.2-1.2-.3-1.5-.1-.4-.2-.8-.4-1.2-.5-1.3-1.2-2.6-2.2-3.7l-1.2-.8c.2.1.5.1.7.2h.7z"/><path class="pst4" d="M24.1 188.7c-.7-.1-1.3-.3-2-.6-.2.1-.3.1-.5.2.7.1 1.4.5 2 .8 1.1.5 2.1.4 3.2.5v-1.3c-.9.3-1.8.5-2.7.4zm32.4-1.4c-.2 0-.3-.1-.5-.1-1.6.7-3.4 1-5.2.8.1.6.2 1.1.3 1.7.7-.2 2.7-1 2.9-1.1.9-.4 1.6-1 2.5-1.3z"/><path class="pst5" d="M65.6 190c-.9-.5-2-.7-3-1-1.9-.6-3.8-1.1-5.8-1.6v.1c-1.1 1.4-3.7 2.5-5.5 2.6l.3 2.4c0 .1 0 .2.1.4 2.1.2 4.2.2 6.4.3 1.3.1 2.7.1 4.1.1 1.1 0 2.2-.1 3.3.1.5-.2.9-.4 1.1-.8-2.3.1-4.6 0-6.9-.1-2.3-.1-4.6-.2-6.9-.6-.1 0-.1-.2 0-.2 2.4.1 4.7.2 7.1.3 2.3.1 4.6 0 6.9.1.1-.7-.3-1.6-1.2-2.1z"/><path class="pst9" d="M54.3 187.2c.9-.3 1.7-.7 2.4-1.2-.2-1.9-.3-3.9-.5-5.8-.2-2.4-.4-4.8-.5-7.2-2.3.8-4.7 1.5-7.1 2.1.5 2.1.8 4.3 1.1 6.5.3 1.9.6 3.9.8 5.8 1.2.2 2.6.2 3.8-.2z"/><path class="pst1" d="M43.5 99.2c-.1.3-.3.6-.4.9 1.3-.4 2.7-.8 3.9-1.5 1.1-.6 2-1.4 2.9-2.3l-.9-.9c-.5-.5-1-1-1.6-1.4l-.4-.3.3-.2c.8-.5 1.6-.9 2.3-1.5.6-.5 1.1-1 1.6-1.6-.6-1.4-1.1-2.8-1.8-4.1l-.3-.6c-.4-.7-.8-1.3-1.2-1.8-.4-.5-1-.9-1.5-1.3.1 1.6 0 3.2.1 4.8 0 2.2-.1 4.2-.8 6.3-.5 1.8-1.2 3.7-2.2 5.5zm12.6 72.9l1.8-.6c1.1-.4 2.3-.9 3.4-1.3-.4-8-.9-16-1.5-24-.4-4.4-.8-8.7-1.3-13-.3-3.1-.7-6.2-1.4-9.2-2.7 1.3-6.5-.2-9.1-1.2-2.2-.9-4.4-1.8-6.6-2.8-.7-.3-1.3-.7-2-1.1-2.2 1.3-4.6 2.3-7 3.1-2.6.8-5.5 1.4-8 .7-.3 3.7-.8 7.4-1.1 11.1-.8 8.5-1.4 17-1.9 25.5-.2 3.8-.4 7.6-.5 11.4.3.1.6.3 1 .4l.4.2c2.4 1.1 4.8 2.1 7.3 2.9l.6.2c2.5.7 5 1.2 7.5 1.3l.6-4.2c.4-3.1.8-6.2 1.2-9.4 0-.4.6-.4.6 0 .4 4.3 1 8.5 1.7 12.7 0 .3.1.5.1.8l2.7-.3c1.2-.2 2.4-.4 3.5-.7l.4-.1c2.5-.6 4.9-1.3 7.2-2.1l.4-.3zm-24.7-17.5c-.5 1.8-1.6 3.8-3.6 4.1-1.2.1-2.3-.4-3.2-1-.8-.4-1.5-.9-1.8-1.8-.3-1.1-.2-2.5-.1-3.7 0-1.4.1-2.8.4-4.1 0-.2.3-.1.3 0-.1 2.1-.4 4.2-.3 6.4 0 .5 0 1.2.3 1.6.3.5.9.8 1.5 1.1 1.1.6 2.2 1.1 3.4.6 2.1-.8 2.6-3.5 3-5.4.5-2.1.7-4.3 1-6.5 0-.2.4-.3.4 0 .1 2.9-.5 5.9-1.3 8.7zm1.3-9.4c-1.4.6-3.1.6-4.6.8-.4.1-4.5.9-4.6.7 0 .1 0 .1-.1.2h-.1c-.1 0-.1-.1-.2-.1v-.1c0-.1 0-.2.1-.2.6-.4 1.6-.5 2.3-.6.8-.2 1.6-.3 2.5-.5 1.5-.2 3.2-.8 4.7-.5.1 0 .1.3 0 .3zm3.4-7.3c.3-.7 1-1.3 1.7-1.4.1 0 .2.2.1.2-.6.4-1.6 1.2-1.4 2.1.2.8 1.1 0 1.3-.4.3-.4.4-1 .2-1.5-.1-.2.2-.5.4-.3.5.7.4 1.5 0 2.2-.4.6-1.1 1.1-1.8.8-.7-.2-.7-1.1-.5-1.7zm2.6 14.8c-.3.6-.9 1.3-1.7 1.2-.8-.1-.6-1.1-.5-1.7.2-.6.7-1.5 1.4-1.6.1 0 .2.1.1.2-.2.3-.5.6-.7.9-.2.3-.4.9-.3 1.2.1.4.5.2.7 0 .2-.2.4-.5.5-.8.2-.4.2-.8 0-1.2-.1-.2.2-.3.3-.2.7.4.4 1.5.2 2zm.1-27.2c-.4.6-1.1.9-1.7.4s-.5-1.4-.2-2c.2-.4.9-.8 1.3-.3.1.1 0 .2-.1.2-.5 0-.7.2-.8.7-.1.4-.1 1 .4 1.1.4.1.7-.4.8-.7.1-.4 0-.8 0-1.2 0-.2.2-.3.3-.2.4.5.4 1.4 0 2zm2.7 5.1c.1 3.2.3 6.4.2 9.7 0 3.2-.3 6.4-.7 9.6-.3 3.1-.5 6.3-1.2 9.4 0 .2-.3.1-.3 0 .1-3.3.7-6.5 1-9.8.2-3.2.4-6.4.5-9.6 0-3.2-.2-6.4-.2-9.7 0-3.1 0-6.4.8-9.4 0-.1.3-.1.2 0-.2 3.3-.4 6.5-.3 9.8zm4.7 15.2c1.7-.4 3.5-.2 5.3-.2s3.6.2 5.3.6c.3.1.2.5-.1.5-1.7-.1-3.5-.4-5.2-.5-1.7-.1-3.5 0-5.2-.2-.2 0-.3-.2-.1-.2zm.5 1.3c0-.3.4-.2.4 0 .3 3.8.1 11.1 5.6 10.8 2.4-.1 3.6-1.7 3.7-4 0-2.3-.2-4.6 0-6.8 0-.2.3-.2.3 0 .2 1.6.2 3.2.2 4.8 0 1.3.2 2.6-.2 3.8-.5 1.8-2.3 2.8-4.1 2.9-5.8.3-5.9-7.3-5.9-11.5z"/><path class="pst3" d="M37.7 125.6c.4.1.7-.4.8-.7.1-.3 0-.6 0-.9-.1 0-.2-.1-.3-.1h-.1c-.5 0-.7.2-.8.7-.1.3-.1.9.4 1z"/><path class="pst3" d="M59.7 146.2c-.4-4.4-.8-8.7-1.3-13-.3-3.1-.7-6.2-1.4-9.2-2.7 1.3-6.5-.2-9.1-1.2-2.2-.9-4.4-1.8-6.6-2.8-.7-.3-1.3-.7-2-1.1-2.2 1.3-4.6 2.3-7 3.1-2.6.8-5.5 1.4-8 .7 1.2.6 2.2 1.2 3.6 1.3 1.5.1 2.8 0 4.2-.4 1.9-.6 3.9-1.3 5.8-.6h.1c1 .2 1.9.6 2.8 1 .1-.2.2-.3.3-.5.1-.9.3-1.8.5-2.7 0-.1.3-.1.2 0-.1.7-.1 1.4-.2 2.2 1-.5 2.2 0 3.4.7 3.6 2 6.8 3.6 11 2.9.2 0 .4.1.5.3 1.2 3.3.9 7.4 1 10.8 0 2.9.7 6.5-.6 9.1 0 .1-.1.2-.2.2.2 1.1.2 2.4.1 3.7v1.2c0 1.3.2 2.6-.2 3.8-.2.8-.6 1.4-1.2 1.8.7-.2 1.3-.4 2 .2.9.7.8 2.9.7 3.8-.2 3.6-1.6 6.1-4.8 8-2.7 1.6-7 3.2-9.9 1.2-1.3-.9-2.3-2.2-3-3.8.3 2.6.7 5.1 1.1 7.7 0 .3.1.5.1.8l2.7-.3c1.2-.2 2.4-.4 3.5-.7l.4-.1c2.5-.6 4.9-1.3 7.2-2.1l.4-.1 1.8-.6c1.1-.4 2.3-.9 3.4-1.3-.2-8-.6-16-1.3-24z"/><path class="pst3" d="M35.5 169.2c-2.2 1.2-4.9.8-7.2-.2-3.7-1.6-6-5.6-7.2-9.6-.2 3.7-.4 7.4-.5 11.2.3.1.6.3 1 .4l.4.2c2.4 1.1 4.8 2.1 7.3 2.9l.6.2c2.5.7 5 1.2 7.6 1.3l.6-4.2c.3-2 .5-3.9.8-5.9-.8 1.5-1.9 2.9-3.4 3.7zm-8.7-14.8c-2 .1-3-1.6-3.5-3.3-.1 1.2-.1 2.3-.1 3.5 0 .5 0 1.2.3 1.6.3.5.9.8 1.5 1.1 1.1.6 2.2 1.1 3.4.6 2.1-.8 2.6-3.5 3-5.4.2-.8.3-1.6.5-2.5-1.3 2.2-3 4.2-5.1 4.4zm11.4-3.5c-.1 0-.1-.1-.2-.1-.2.3-.5.6-.7.9-.2.3-.4.9-.3 1.2.1.4.5.2.7 0 .2-.2.4-.5.5-.8.2-.4.2-.8 0-1.2 0 .1 0 0 0 0zm-.2-14.1c-.7.3-1.7 1.2-1.4 2 .2.8 1.1 0 1.3-.4.3-.4.4-1 .2-1.5-.1 0-.1 0-.1-.1zm16.4 19c-1.9 1-4.5.9-6-.5.8 1.6 2.1 2.8 4.3 2.6 2.4-.1 3.6-1.7 3.7-4v-.6c-.4 1.1-1.1 2-2 2.5z"/><path class="pst9" d="M22 171.9c-.3 2.6-.5 5.2-.8 7.8-.2 2.3-.3 4.6-.5 7 1 .7 2.1 1.3 3.4 1.4 1.4.1 2.5-.3 3.6-.9.2-1.9.4-3.7.6-5.6l.9-6.9c-.5-.1-.9-.3-1.3-.4-2-.7-4-1.5-5.9-2.4z"/><path class="pst10" d="M51.3 182.7c-.3-1.9-.5-4.4.7-6.1 1-1.4 2.3-2.3 3.8-3.1v-.5c-2.3.8-4.7 1.5-7.1 2.1.5 2.1.8 4.3 1.1 6.5.3 1.9.6 3.9.8 5.8 1.3.2 2.6.1 3.9-.3.2-.1.5-.2.7-.2-2-.3-3.5-1.6-3.9-4.2zm-23.4-8.4c-2-.7-4-1.5-6-2.4v.4c1.6 1.4 3.1 2.7 4 4.6 1 2 .9 4.5.7 6.6-.2 2-1.6 3.7-3.3 4.4.3.1.5.1.8.2 1.4.1 2.5-.3 3.6-.9.2-1.9.4-3.7.6-5.6l.9-6.9c-.4-.1-.8-.3-1.3-.4z"/><path class="pst4" d="M60.1 61.8c-.1.2-.3.1-.3-.1 0-.3.1-.5.2-.8v-.1c-.1-.2-.1-.4-.2-.5-1 .7-2 1.5-2.9 2.4-1.4 1.4-2.7 2.8-3.5 4.6 0 0 0 .1-.1.1.1 1.2.2 2.4.2 3.6v1.2c2.1-.4 4.2-1.4 5.7-2.8.1-.3.2-.6.2-.8l.2-.7c.1-.4.3-.8.4-1.3 0-.1.2-.1.2 0 0 .6-.1 1.1-.2 1.7.6.3 1.5 0 2.1-.4.6-.5 1.1-1.1 1.5-1.7.9-1.2 1.6-2.4 1.9-3.8.3-1.5-.1-5.2-2.7-4-1.1.4-2.1 2-2.7 3.4zm3.9.9c-.1.1-.2 0-.2-.1-.2-.4 0-1.2-.5-1.4-.5-.3-.8.4-1 .8-.4.9-.7 1.8-.9 2.7 0 .1-.2.1-.2 0 0-.9.3-1.9.6-2.7.2-.5.4-1.2 1-1.4 1.1-.7 1.9 1.2 1.2 2.1z"/><path class="pst10" d="M46 88.3c-1.3 1.7-4.4 1.9-5.7.2 0 1.3 0 2.6.2 3.8.2 2 .6 4 1.3 5.9.2.6.5 1.1.8 1.7l.6-1.2c.9-1.8 1.6-3.7 2.2-5.6.3-1.5.5-3.1.6-4.8z"/><path class="pst11" d="M24.8 58.7c-1.2-.8-1.8 1.8-1.6 2.5 0 .2.2.2.3 0 .2-.3.3-.7.4-1 0-.2.1-.7.3-.8.4-.3.4.5.4.7.1 1.1 0 2.2.1 3.3 0 .1.1.1.2 0 .3-1 .3-2.1.2-3.2 0-.4.2-1.2-.3-1.5m37.9 1.8c-.5.2-.8.9-1 1.4-.3.9-.6 1.8-.6 2.7 0 .1.2.2.2 0 .3-.9.5-1.8.9-2.7.2-.4.5-1 1-.8.5.2.4 1 .5 1.4 0 .1.1.1.2.1.8-.8 0-2.7-1.2-2.1M32.6 50.1c0 .2.2.2.3.1.6-.6 1.3-1.2 2.2-1.2 1.3-.1 1.8.8 2.2 1.8.1.1.3.1.3 0 .6-3-4.8-3.5-5-.7m20.1-.9c-1 .1-2.6 1.1-2.7 2.2 0 .2.2.2.4.1.5-.5 1.1-1 1.8-1.3.6-.3 1.1-.2 1.4.4.2.3.2.8.4 1.1.1.2.4.2.4-.1.4-1.1-.5-2.5-1.7-2.4m-17.3 6.4h-.3c-.6-.2-1.3 1.5-1.4 1.8-.2.6-.6 2.7.6 2.4 1-.2 1.3-2.2 1.4-3 0-.4 0-1-.3-1.2m-.4 2.1c0 .2-.1.3-.2.5-.2-.1-.3-.2-.3-.5-.1-.3-.1-.6-.1-.9.1-.2.2-.5.3-.7.8-.3.4 1.2.3 1.6m16.5-2.1h-.3c-.6-.2-1.3 1.5-1.4 1.8-.2.6-.6 2.7.6 2.4 1-.2 1.3-2.2 1.4-3 .1-.4.1-1-.3-1.2m-.3 2.1c0 .2-.1.3-.2.5-.2-.1-.3-.2-.3-.5-.1-.3-.1-.6-.1-.9.1-.2.2-.5.3-.7.8-.3.4 1.2.3 1.6"/><path class="pst11" d="M65.7 189.4c-1.5-.7-3.3-1.1-4.9-1.5-1.3-.4-2.8-1-4.2-1 .1 0 .1-.1.2-.1l.7-.5-.1-.8c-.2-1.8-.5-3.6-.6-5.5-.2-2.4-.5-4.8-.7-7.2 1.7-.6 3.4-1.2 5.1-1.9 0 .5 0 .9.1 1.4l.6-1.7v-.8c-.2-3.1-.3-6.2-.5-9.3-.5-8.8-1.2-17.6-2.2-26.3-.4-3.5-.8-7.1-1.7-10.6.5-.3 1-.8 1.4-1.5 1.2-1.9 1.5-4.3 1.7-6.5.2-2.4.1-4.9-.1-7.3-.5-5-1.4-10.1-3-14.8-1.2-3.5-3.8-7.4-7.6-8-.1-.1-.1-.2-.2-.3-.7-1.3-1.8-2.9-3.2-3.4V81c1.2-.2 2.4-.7 3.5-1.1 1.8-.7 3.6-1.6 5.1-2.8 2.5-2 4.4-5.2 5.1-8.4.9.3 2.2-.2 2.9-.8 1.7-1.6 3.2-3.9 3.4-6.2.2-1.5-.3-4.9-2.5-4.7h-.3c.2-1.2.3-2.5.5-3.8.1-.5.1-1 .2-1.5.2.1.5.2.7.2 1 .1 1.2-.5 1-1.3-.3-2.1-1.3-4.1-2.6-5.8.4 0 .7.1 1.1.1 1.6.1 1.8-1.1 1.7-2.5-.5-4.2-3.8-7.2-7.1-9.4-3.5-2.3-7.6-3.8-11.8-4.4-4-.6-8.6-.5-12.5.9-1.9.7-3.7 1.9-4.7 3.7-1 1.7-1 3.5-.6 5.3-2.2 1-3.4 3.8-4.1 6.1-.5 1.6-.8 3.3-1 5-.2 1.8-.4 3.7-.3 5.5-1.3-.2-2.1 2.6-2.4 3.5-.5 1.9-.5 4 .2 5.8.4 1 1.4 2.1 2.5 1.8-.2 4.1.5 8.7 3 11.8 1.4 1.8 4 2.2 6.2 2.6 2 .4 4.2.7 6.2.5 0 .3-.1.7-.1 1-.7-.2-1.2.4-1.6.9-.1.2-.3.3-.4.5-4.7.6-7.9 4.3-10.4 8.1-2.8 4.4-5.1 9.2-6.7 14.2-1.4 4.3-2.9 9.6-.2 13.8.9 1.3 1.9 2.1 3.1 2.6-.4 3.1-.7 6.2-1 9.3-.4 4.3-.8 8.6-1.1 12.8-.7 8.5-1.2 17-1.5 25.5v.8l.7.3c.3.1.6.3.9.4l-.9 7.5c-.2 2.3-.5 4.6-.7 6.9v.6l.7.5c.2.2.5.3.8.5-1.3.1-2.6.7-3.7 1.1-1.6.6-3.2 1.4-4.7 2.4-.9.6-2.4 1.4-2.5 2.6-.1.7.5 1.5 1.2 1.3 1.4.3 2.8.3 4.1.3 1.6 0 3.2 0 4.8-.2 1.7-.1 3.4-.3 5.1-.6l.7-.1.3-.7c.7-1.8 1-3.9.5-5.6.1-.1.3-.1.4-.2l.6-.3.1-.8c.2-1.6.4-3.2.5-4.9.3-2.4.7-4.7 1-7.1 2.5.7 5 1.2 7.6 1.4h.5l.1-.7c.1-.6.2-1.2.2-1.8.4-3.1.9-6.2 1.3-9.3.3 3.3.8 6.5 1.3 9.8.1.4.1.9.2 1.3l.1.8.7-.1c2.1-.2 4.2-.5 6.2-1 .4 2.2.7 4.5 1 6.7.2 1.8.4 3.6.7 5.4l.1.5.7.1c-.1 1.5.2 3.1.4 4.7v.2l.1.4.7.1c2 .4 4.1.3 6.1.3 1.3.1 2.7.1 4.1.1 1.3.1 2.7.3 3.9 0 0 0 .1 0 .1-.1.8-.2 1.5-.9 1.6-1.8 0-.6-.8-1.6-1.9-2.1M46.6 87.2c0-1.6 0-3.2-.1-4.8.5.4 1 .8 1.5 1.3.5.6.9 1.2 1.2 1.8l.3.6c.7 1.3 1.2 2.8 1.8 4.1-.4.6-1 1.1-1.6 1.6-.7.6-1.5 1-2.3 1.5l-.3.2.4.3c.5.5 1 1 1.6 1.4l.9.9c-.9.9-1.8 1.7-2.9 2.3-1.2.7-2.6 1.1-3.9 1.5.2-.3.3-.6.4-.9.9-1.8 1.7-3.8 2.2-5.7.6-1.9.8-3.9.8-6.1m-4.1 12.7c-.3-.6-.6-1.1-.8-1.7-.8-1.9-1.1-3.9-1.3-5.9-.1-1.3-.2-2.6-.2-3.8 1.3 1.7 4.4 1.5 5.7-.2-.1 1.6-.2 3.2-.7 4.8-.6 1.9-1.3 3.8-2.2 5.6-.1.5-.3.9-.5 1.2m23.2-37.7c-.3 1.4-1 2.7-1.9 3.9-.5.6-.9 1.3-1.5 1.7-.6.5-1.5.8-2.1.4.1-.6.2-1.2.2-1.7 0-.1-.2-.2-.2 0-.2.4-.3.8-.4 1.3l-.2.7c-.1.3-.2.6-.2.8-1.6 1.5-3.6 2.5-5.7 2.8v-1.2c0-1.2-.1-2.4-.2-3.6l.1-.1c.8-1.8 2-3.2 3.5-4.6.9-.9 1.9-1.7 2.9-2.4.1.2.1.4.2.5v.1c-.1.3-.2.5-.2.8 0 .2.2.3.3.1.5-1.4 1.5-3 3-3.6 2.4-1.1 2.7 2.6 2.4 4.1m-24 4.1c-1.1 0-2.2.1-3.4.1.1-.6 0-1.2.2-1.8.2-.9.5-1.7.8-2.5.6-1.3 1.6-2.4 2.5-3.5.1-.1-.1-.2-.2-.2-1.3 1-2.3 2.3-2.9 3.8-.6 1.2-1.1 2.9-.8 4.3-2.5 0-5.1-.2-7.4-1.1l-.4-.1-.1.4c-.1.2-.1.4-.2.5-.4-1.4-1.1-2.8-1.6-4.1-.6-1.4-1.1-2.9-1.9-4.2v-.1c.1-.5.1-.9.2-1.4.2 0 .4.1.5.1.5.1 1 .3 1.6.3-.1.4-.1.8-.2 1.1-.1 3 2.5 5.9 5.6 5.6 3-.5 5-2.5 5.3-5.4 1.7-1.1 4.5-2.4 6-.3.1.1.3 0 .2-.1-.8-2.6-4.5-1.8-6.1-.2.1-2.7-1.5-5.8-4.6-5.5-.1 0-.1.1 0 .1 2.9.1 4.4 3 4.2 5.6-.2 2.8-2 4.7-4.7 5-3 .4-5.4-2.6-5.1-5.5.3-2.7 2.2-4.6 4.8-5 .1 0 .1-.2 0-.2-2.4-.3-4.3 1.8-5 4-.5-.2-1.1-.3-1.7-.4-.1 0-.3 0-.4-.1.4-2.5 1-5 1.9-7.4.9-2.1 1.8-4.4 3.3-6.2 1 3.2 3.9 5.5 7.4 5.6 1.5 0 3-.4 2.8-2.2 2.4 1.8 5.4 2.9 8.4 3.2 1.6.2 4-.1 4.3-2.2v-.8c1.7.6 3.5.9 5.2.7-.5 2-.8 4.1-.9 6.1-.1 1.5-.1 3.2.1 4.8-.3 0-.7 0-1 .1-.8 0-1.7.1-2.5.2 0-.7-.1-1.4-.3-2-1-2.6-3.9-3.3-6.2-2.3-.1 0 0 .2.1.2 2.3-.7 4.8 0 5.7 2.4.2.6.3 1.2.3 1.9v.2c-.1 1.8-1 3.8-2.8 4.2-2 .5-4.9-.6-5.6-2.7-.8-2.1.2-4.9 2.2-5.9.1-.1 0-.2-.1-.2-2.5.7-3.3 4.4-2.5 6.5.9 2.3 4.1 3.4 6.4 2.7 1.8-.6 2.8-2.6 2.9-4.5.9 0 1.8-.1 2.7-.2h.9c.1.6.2 1.1.4 1.7-1.2.7-2.3 1.8-3.1 2.6-1.1 1-2.7 2.5-3.2 4 0-.5-.1-1.1-.2-1.6M25 51c.2-1.6.4-3.2.8-4.8.7-2.7 1.7-5.2 3.9-6.8l.4-.3-.1-.5c-.2-1.6-.3-3.2.5-4.7.9-1.6 2.3-2.7 3.9-3.4 3.3-1.4 7.2-1.6 10.8-1.3 3.5.3 7 1.2 10.2 2.7 3.2 1.5 6.3 3.5 8.4 6.4.6.9 1.1 1.9 1.5 2.9l.3 1.2c.1.3.2.7.1 1-.1.4-.5 1-.9 1.2-.5.2-1.3-.1-1.8-.2h-.2l-.7-.1c-.2 0-.5-.1-.7-.2l1.2.8c.9 1.1 1.6 2.3 2.2 3.7.1.4.3.8.4 1.2.1.3.4 1.2.3 1.5-.2.5-.7.4-1.3 0l-.3-.3-.1.6c-.1.9-.2 1.8-.3 2.6-.2 1-.4 2.1-.3 3.1-.9.3-1.6 1-2.2 1.8-.3 0-.5.1-.8.2-.1-.5-.2-1-.2-1.5.4 0 .8-.1 1.2-.2.1 0 .1-.2 0-.3-.4-.1-.8-.1-1.2-.1-.2-1.6-.3-3.3-.2-5 .1-2 .5-4 .9-6l.1-.6-.6.1c-1.1.2-2.2.2-3.3 0-.9-.2-1.7-.5-2.5-.9L53 44l1.1 1.3c.3.6.3 1.3-.2 1.9-1.3 1.4-4 .7-5.6.3-2.3-.6-4.4-1.7-6.2-3.1L41 44l.4 1.1c.2.9.1 1.8-.9 2-.9.2-1.9.1-2.7-.1-2.8-.6-4.7-2.7-5.6-5.2l-.2-.5-.3.3c-1.7 1.7-2.6 4.1-3.5 6.2-1 2.5-1.8 5.2-2.1 7.9h-.7c-.1 0-.1.1 0 .2.2.1.4.2.7.3 0 .3 0 .6-.1.9-.3-.5-.8-1.2-1.3-1.5.2-1.6.2-3.1.3-4.6m0 15.3v-.6c0-.4 0-.8-.1-1.2 0-.1-.2-.1-.2 0 0 .4-.1.9-.1 1.3-1.7.5-2.3-2.3-2.4-3.6-.1-1.2 0-2.5.4-3.7.2-.6.4-1.2.8-1.8.2-.4.3-.6.8-.7.5-.1.6.1.9.5.4.4.7.9 1 1.3 0 .1.1.2.1.2.3.4.5.9.7 1.4.4 1 .7 2 1.1 3 .5 1.4 1 3 1.8 4.2-.3 1.2-.6 2.4-.7 3.6-.1.7-.2 1.4-.2 2.2-.6-.9-1.3-1.7-2-2.5-.7-1-1.3-1.9-1.7-3.1-.1-.1-.2-.3-.2-.5m9.3 14c-2.3-.4-5.1-.8-6.5-2.9-1.8-2.7-2.3-5.8-2.6-9 .2.5.5 1 .8 1.4.8 1.1 1.7 2.3 2.7 3.2 0 .8 0 1.5.1 2.2l.1.6.6.5c1.2.8 2.7 1.1 4.1 1.4 2.7.5 5.5.9 8.3.8 3.5-.1 7.1-.9 10.3-2.5l.7-.4.2-.7c.2-.8.3-1.7.3-2.6 1.1.2 2.3-.4 3.3-.9.8-.4 1.6-.9 2.2-1.6-.2.7-.5 1.4-.8 2.1-.8 1.7-2 3.3-3.4 4.5-2.4 2-5.4 3.2-8.5 3.9l-.2.3c-.7.1-1.3.2-2 .3-.1 0-.2.2 0 .3.7.1 1.3.1 2 0-.1 2 0 4.1 0 6.2-.7.9-1.5 1.7-2.8 1.8-1.3.1-2.1-.6-3-1.4 0-2.1.2-4.3.2-6.4.4-.1.8-.1 1.2-.2.2 0 .1-.2 0-.3-.4 0-.8-.1-1.2-.1H40c-1.9-.1-3.8-.1-5.7-.5m3.8 3.9l.1-.1c.5-.6 1-1.2 1.6-1.3-.3 3.4-.3 6.9.1 10.2.3 2.7 1.1 5 2.2 7.3-3 .7-5.5-1.6-7-4.1.3-.6.6-1.3 1-1.9.4-.6.8-1.1 1.2-1.7l.3-.5-.3-.2-.9-.6c-.6-.3-1.2-.7-1.9-1 .4-1 .9-1.9 1.4-2.8.4-.7.9-1.5 1.4-2.2.2-.2.5-.6.8-1.1M22.3 121c-3.9-3.4-2.6-9.1-1.4-13.4 1.3-4.6 3.2-8.9 5.6-13 2.5-4.2 5.7-9.2 10.9-10.1-.4.5-.8 1.1-1.2 1.6-.8 1.3-1.6 2.7-2.2 4.1l-.2.5.5.3c.6.3 1.1.6 1.7.9.3.2.7.4 1 .6-.8 1-1.6 2-2.2 3.1l-.2.6.4.8c1.5 2.7 4.7 5 7.6 4v.1c-.1.9 0 1.9 0 2.8 0 1.1-.1 2.2 0 3.2 0 .1.2.1.2 0 .4-1 .4-2.2.4-3.2s0-2-.2-2.9c2.7-.5 5.8-1.8 7.5-4.1l.3-.5-.3-.3c-.3-.3-.6-.6-.9-.8-.5-.4-1-.9-1.5-1.3 1-.5 1.8-1.2 2.6-1.9.4-.3.7-.7 1-1.1l.3-.5-.2-.6c-.4-1.2-.9-2.3-1.4-3.4 3.2 1 5.4 4.1 6.5 7.3 1.5 4.1 2.3 8.5 2.8 12.8.5 4.3.8 8.7-.2 12.9-.4 1.5-1 2.8-2 3.7l-.5.3c-.4.2-.9.4-1.4.5-2.1.4-4.2-.4-6.2-1.2-2.3-.9-4.7-1.9-7-2.9-.8-.4-1.6-.8-2.3-1.2l.1-.1c2-1.3 3.7-2.7 5.7-3.9.7.1 1.5.1 2.2.2h.6c.9.1 1.8.1 2.7.2l2.7.3.7.1v-.6c.1-2 .1-3.9.1-5.8 0-4.6 0-9.2-.4-13.7 0-.2-.3-.2-.3 0 0 4.5.1 9 .1 13.5 0 2-.1 4-.2 6-.8-.1-1.6-.1-2.3-.2-.3 0-.6-.1-.9-.1 0-1.6 0-3.4-1.1-4.7-1.2-1.5-2.8-1.3-4.5-1.6-.2-.3-.5-.6-.7-.9l-.4-.5-.5.1c-1.3.3-2.5.6-3.8 1h-.1c-1.5.4-3 .9-4.4 1.4-.2.1-.4.1-.7.2.2-.5.3-1.1.4-1.6.2-.9 0-1.8-.4-2.7-1-1.9-3.4-3-5.3-3.7.5-2.7 1.2-5.3 2-7.9 0-.1-.1-.2-.2-.1-1.1 2.5-1.8 5.1-2.3 7.8-1.1-.4-3.9-1.7-3.4.6.2.9 1 1.5 1.8 1.9-.3.2-.6.5-.9.8-.3.4-.7.9-.9 1.4-.2.1-.3.2-.5.3-.5.4-1.1 1.1-1.1 1.8 0 .1 0 .3.1.4-.5.6-.7 1.4-.8 2.1 0 .3-.1.6.1.8.2.2.5.3.8.2.3.7 1.4.9 2.5.9-1.4.6-2.7 1.2-4 1.8-.1.1 0 .3.1.3 3.7-1.3 7.3-2.9 11.1-4.2l.6-.2c.4-.1.8-.3 1.2-.4 1.5-.5 3-.9 4.4-1.3.9 1 1.6 2.4 2 3.6.5 1.3.5 2.6.7 3.9-.4.3-.7.6-1.1.8-.7.5-1.4 1-2.2 1.5l-.6.4c-1 .6-2 1.1-3.1 1.6-3.2 1.3-7.8 3.2-11.4 2l-.5-.2c-.6-.5-1.1-.8-1.5-1.2m19.8-9.8c-.3-.8-.9-2.2-1.8-2.9 1.1-.3 2.3-.6 3.4-.9.8 1.1 1.6 2.2 2.3 3.4.6 1.1 1.1 2.2 1.5 3.3-.4 0-.7-.1-1.1-.1.1-.1.2-.1.3-.2.2-.1 0-.3-.1-.3-.3.1-.7.2-1 .4l-1 .5c-.6.3-1.1.7-1.7 1.2.2-1.5-.2-3.1-.8-4.4m3.3-2.6c.2.1.4.1.7.2 1 .1 1.8.2 2.6.9 1.3 1.2 1.4 3 1.4 4.7-.6-.1-1.2-.1-1.8-.2-.7-2-1.7-3.9-2.9-5.6m-20.9 2.1c.1-.5.8-1 1.2-1.3 1.5-.9 3.3-.9 4.8-1.7.1-.1 0-.2-.1-.2-1.3 0-2.8.4-4 .9-.4.2-.8.3-1.1.6-.4-.2-1.1-.6-1.1-1.2 0-.4.7-1 1-1.1.1 0 .1-.1.2-.1.6-.3 1.3-.4 2-.5 1.6-.3 3.2-.3 4.8-.8.2-.1.1-.2 0-.3-.6-.1-1.1 0-1.7 0-1.1-.8-2.5-1.1-3.7-1.9-.4-.3-1.7-1.6-.7-2 .2-.1.9.3 1.1.3 1 .3 2 .7 3 1.2 1.7.8 3.7 1.8 4.2 3.8.3 1.1-.1 2.2-.5 3.3-2 .6-4 1.3-5.9 2.1-.7-.1-1.4-.1-2.1-.1-.8-.1-1.6-.1-1.4-1m-.5-.3c-.1.2-.2.4-.2.6-.2-.1-.3-.1-.4-.4 0-.2.1-.7.2-.9.1-.3.2-.7.4-1 .2.2.6.4.9.5-.4.4-.7.8-.9 1.2m2-4.7c.1-.1.1-.2.2-.3.3-.4.8-1.1 1.3-1.2h.1c.6.3 1.3.6 1.9.9-.5.1-1.1.2-1.6.2-.6.1-1.3.2-1.9.4m.6 86.3c-.1.7-.4 1.3-.6 1.9-1.9.3-3.7.6-5.6.8-1.5.1-3.1.2-4.6.2-1.4 0-2.8-.2-4.2-.1-.6-.2-.7-.5-.6-.9 2.2.4 4.6.2 6.8 0s4.8-.2 6.9-.9c.1 0 .1-.2 0-.2-2.2-.1-4.6.4-6.9.6-2.2.2-4.4.1-6.7.2.4-.7 1.6-1.5 2-1.8 1-.6 2-1.1 3-1.6s2.1-.9 3.2-1.3c.6-.2 1.2-.3 1.8-.5v.1c.7.6 1.9 1.2 2.8 1.5.8.3 1.9.4 2.7.2.1.6.1 1.2 0 1.8m.2-2.3c-1.1-.1-2.1-.1-3.2-.5-.7-.3-1.3-.7-2-.8.2-.1.4-.1.5-.2.6.3 1.3.5 2 .6.9.1 1.8 0 2.7-.3v1.2m1.6-8.1c-.2 1.9-.5 3.7-.6 5.6-1.1.6-2.2 1-3.6.9-1.3-.1-2.4-.7-3.4-1.4.2-2.3.3-4.7.5-7 .2-2.6.5-5.2.8-7.8 2 .9 3.9 1.7 6 2.4.4.1.9.3 1.3.4-.5 2.3-.8 4.6-1 6.9m19.6-7.1c-1.2.3-2.3.5-3.5.7l-2.7.3c0-.3-.1-.5-.1-.8-.7-4.2-1.2-8.5-1.7-12.7 0-.4-.6-.4-.6 0-.4 3.1-.8 6.2-1.2 9.4l-.6 4.2c-2.5-.1-5.1-.6-7.5-1.3l-.6-.2c-2.5-.8-4.9-1.8-7.3-2.9l-.4-.2c-.3-.1-.6-.3-1-.4.1-3.8.3-7.6.5-11.4.5-8.5 1.1-17 1.9-25.5.3-3.7.8-7.4 1.1-11.1 2.5.7 5.4.2 8-.7 2.4-.8 4.8-1.8 7-3.1.6.4 1.3.7 2 1.1 2.2 1 4.4 1.9 6.6 2.8 2.6 1 6.4 2.6 9.1 1.2.7 3 1.1 6.1 1.4 9.2.5 4.3.9 8.7 1.3 13 .7 8 1.1 16 1.5 24-1.1.4-2.3.9-3.4 1.3l-1.8.6-.4.1c-2.4.8-4.8 1.6-7.2 2.1l-.4.3zm2.5 13c-.2-1.9-.6-3.9-.8-5.8-.3-2.2-.6-4.4-1.1-6.5 2.4-.6 4.8-1.3 7.1-2.1.2 2.4.3 4.8.5 7.2.2 1.9.3 3.8.5 5.8-.7.5-1.5.9-2.4 1.2-1.2.3-2.6.3-3.8.2m.3.5c1.8.2 3.6-.1 5.2-.8.2 0 .3.1.5.1-.8.3-1.6.9-2.4 1.3-.2.1-2.2.9-2.9 1.1-.1-.6-.2-1.2-.4-1.7m14.5 5.5c-1.1-.2-2.2-.1-3.3-.1-1.3-.1-2.7-.1-4.1-.1-2.1-.1-4.2-.2-6.4-.3 0-.1 0-.2-.1-.4l-.3-2.4c1.9-.1 4.5-1.1 5.5-2.6v-.1c1.9.5 3.8 1 5.8 1.6 1 .3 2.1.5 3 1 1 .5 1.3 1.5 1.1 2.2-2.3-.1-4.6 0-6.9-.1-2.4-.1-4.7-.3-7.1-.3-.1 0-.1.2 0 .2 2.3.4 4.6.5 6.9.6s4.6.2 6.9.1c-.1.2-.5.5-1 .7"/><path class="pst11" d="M41.9 120.8c0-.1-.2-.2-.2 0-.8 3-.8 6.3-.8 9.4 0 3.2.2 6.4.2 9.7 0 3.2-.2 6.4-.5 9.6-.3 3.3-.8 6.5-1 9.8 0 .1.2.2.3 0 .7-3.1.8-6.3 1.2-9.4.3-3.2.6-6.4.7-9.6 0-3.2-.1-6.4-.2-9.7-.2-3.3 0-6.5.3-9.8m14.8 25.4c-1.7-.4-3.5-.5-5.3-.6-1.7-.1-3.5-.2-5.3.2-.2 0-.1.2 0 .2 1.7.2 3.5.1 5.2.2 1.7.1 3.5.4 5.2.5.4.1.5-.4.2-.5m.2 5.7c0-1.6 0-3.2-.2-4.8 0-.2-.3-.2-.3 0-.2 2.3 0 4.6 0 6.8 0 2.3-1.3 3.9-3.7 4-5.5.3-5.3-7-5.6-10.8 0-.2-.4-.3-.4 0 0 4.2.1 11.7 6 11.5 1.8-.1 3.5-1.1 4.1-2.9.3-1.2.2-2.6.1-3.8m-24.3-7c-1.5-.2-3.2.3-4.7.5-.8.1-1.6.3-2.5.5-.7.1-1.7.2-2.3.6-.1.1-.1.1-.1.2v.1c0 .1.1.1.2.1h.1c.1 0 .1-.1.1-.2.1.2 4.2-.7 4.6-.7 1.5-.2 3.2-.2 4.6-.8.2 0 .2-.3 0-.3m.1 1c0-.3-.4-.2-.4 0-.3 2.2-.5 4.4-1 6.5-.4 1.9-1 4.6-3 5.4-1.2.5-2.4-.1-3.4-.6-.5-.3-1.2-.6-1.5-1.1-.3-.5-.2-1.1-.3-1.6-.1-2.1.2-4.2.3-6.4 0-.2-.3-.2-.3 0-.4 1.3-.4 2.8-.4 4.1 0 1.2-.1 2.5.1 3.7.2.9 1 1.4 1.8 1.8 1 .6 2.1 1.1 3.2 1 2.1-.3 3.1-2.3 3.6-4.1.8-2.8 1.4-5.8 1.3-8.7m6-22.5c-.1-.2-.3 0-.3.2.1.4.2.8 0 1.2-.1.4-.4.8-.8.7-.5-.1-.5-.7-.4-1.1.1-.4.3-.7.8-.7.1 0 .2-.1.1-.2-.4-.5-1.1-.1-1.3.3-.3.6-.4 1.6.2 2 .6.4 1.4.1 1.7-.4.5-.5.5-1.4 0-2m-.3 13.3c-.2-.2-.5.1-.4.3.2.5.1 1.1-.2 1.5-.2.4-1 1.2-1.3.4-.2-.9.8-1.7 1.4-2.1.1-.1 0-.3-.1-.2-.8.1-1.4.7-1.7 1.4-.3.6-.2 1.5.5 1.8.7.3 1.4-.3 1.8-.8.4-.8.5-1.6 0-2.3m.1 14.1c-.1-.1-.4.1-.3.2.2.4.1.8 0 1.2-.1.3-.2.6-.5.8-.2.2-.6.4-.7 0-.1-.4.2-.9.3-1.2.2-.4.5-.6.7-.9.1-.1 0-.2-.1-.2-.7.1-1.2 1-1.4 1.6-.2.5-.3 1.6.5 1.7.8.1 1.4-.6 1.7-1.2.2-.6.5-1.7-.2-2"/><g><path class="pst4" d="M26.4 57.6l-.5 1-.9 7.1.2 2.2v1.3l3.8 8.4 9.3 1.6 11.3-.6 6.7-4.6 2.7-4 .7-2.3-.9-5.3 1.2-1.6-.4-1.1s-.6.3-.9.5c-.5.4-1 .9-1 .9l-.9-.4-1.7 1.6-1.7 1.1-2 .6-2.3-.4-4.2-1.4-2.4-2.6V58h-1.6l-.7 1-.7.8-1.2 2.1-1 1.7-2.2.8h-3.6l-2.6-1.8-1.4-3.6-1.1-1.4z"/><path class="pst7" d="M57.9 61l.2 1.2c.3 1.7-.3 3.2-.9 4.8-.4 1.1-.9 2.2-1.4 3.2-1.1 2.4-2.2 5.1-4.5 6.6-1.2.8-2.5 1.3-3.8 1.9-2.1 1-5 .8-6.9 2.1.3.1.7.1 1.1.1l1.8.4h.5l-.2-.2v-.2l.9-.1h.3l.4-.1.8-.2.9-.2.7-.2.7-.2.8-.3 1.3-.5 1.5-.7 1.4-.8 1.2-.8.9-.8.7-.7.5-.6.8-1.2.8-1.4.8-2.1.7-2.3.4-1.3-.3-3c0-.5-.1-1 0-1.6 0-.2.2-.8.2-1l-.4-1.1h-1.2l-.7 1.3z"/><path class="pst11" d="M50.4 70.9c0-.1-.2 0-.2.1 0 .3 0 .6-.1 1-2.8 1.6-5.8 3.6-9 3-.1 0-.2.2-.1.2 1.5 1 3.2.4 4.6-.2 1.5-.6 3.1-1.4 4.4-2.5-.1.3-.3.7-.5 1-.1.2.1.3.3.2.7-.7 1-2 .6-2.8m-6.8-.3c-1.3.3-3.2.9-4.1-.5-.7-1.1-.1-2.8.2-4 .6-2.4 1.5-4.7 2.3-7 0-.1-.1-.2-.2-.1-.9 1.6-1.5 3.3-2 5-.5 1.5-1 3.1-1.2 4.7-.1 1.1.3 2.1 1.3 2.7 1.2.6 2.6.1 3.8-.4.2-.2.1-.5-.1-.4"/></g></g></svg><svg id="man-status-warning" width="101" height="130" viewBox="0 0 101 130" x="533" xmlns="http://www.w3.org/2000/svg"><style>.qst0{clip-path:url(#qSVGID_2_)}.qst1{fill:#fff}.qst2{fill:#b5c4c6}.qst3{fill:#f7ab72}.qst4{fill:#663d29}.qst5{fill:#fcba8d}.qst6{fill:#e18b4a}.qst7{fill:#7bea68}.qst8{fill:#51ad49}.qst9{fill:#7a5433}.qst10{fill:#231f20}.qst11{enable-background:new}</style><defs><path id="qSVGID_1_" d="M-.1-24.7h106.3V130H-.1z"/></defs><clipPath id="qSVGID_2_"><use xlink:href="#qSVGID_1_" overflow="visible"/></clipPath><g class="qst0"><path class="qst1" d="M44.6 114.4l1-.5c.3-.2.7-.3 1-.4.2-.1.3.2.1.3-.1.1-.2.1-.3.2.4 0 .7.1 1.1.1-.4-1.1-.9-2.3-1.5-3.3-.7-1.2-1.5-2.3-2.3-3.4-1.1.3-2.3.6-3.4.9.8.7 1.4 2.1 1.8 2.9.6 1.3 1 3 .9 4.4.4-.4 1-.8 1.6-1.2z"/><path class="qst2" d="M46.9 112.7c-.8-1.6-2.7-1.4-4.2-1.9-.5-.2-.9-.5-1.3-.8.2.4.4.9.5 1.2.6 1.3 1 3 .9 4.4.5-.4 1.1-.8 1.7-1.2l1-.5c.3-.2.7-.3 1-.4.2-.1.3.2.1.3-.1.1-.2.1-.3.2.4 0 .7.1 1.1.1-.2-.4-.3-.8-.5-1.3.1 0 0-.1 0-.1z"/><path class="qst3" d="M49.9 114.3c0-1.7-.1-3.5-1.4-4.7-.8-.7-1.6-.8-2.6-.9-.2 0-.5-.1-.7-.2 1.2 1.7 2.2 3.6 2.9 5.5.6.2 1.2.3 1.8.3z"/><path class="qst1" d="M24.2 122.1c3.6 1.2 8.2-.6 11.4-2 1.1-.5 2.1-1 3.1-1.6l.6-.4c.7-.4 1.5-.9 2.2-1.5.4-.3.7-.5 1.1-.8-.2-1.3-.3-2.7-.7-3.9-.4-1.2-1.1-2.6-2-3.6-1.5.4-3 .8-4.4 1.3-.4.1-.8.3-1.2.4l-.6.2c-3.7 1.3-7.4 2.8-11.1 4.2-.2.1-.3-.2-.1-.3 1.3-.7 2.6-1.3 4-1.8-1.1 0-2.2-.2-2.5-.9-.3.1-.6 0-.8-.2-.2-.2-.1-.5-.1-.8.1-.7.3-1.5.8-2.1 0-.1-.1-.2-.1-.4 0-.7.6-1.4 1.1-1.8.2-.1.3-.2.5-.3.2-.5.6-1 .9-1.4.2-.3.5-.6.9-.8-.8-.4-1.5-1-1.8-1.9-.5-2.3 2.3-1.1 3.4-.6.5-2.7 1.2-5.3 2.3-7.8 0-.1.2 0 .2.1-.8 2.6-1.5 5.3-2 8 2 .8 4.3 1.8 5.3 3.7.5.8.6 1.8.4 2.7-.1.5-.3 1.1-.4 1.6.2-.1.4-.1.7-.2 1.5-.5 3-.9 4.5-1.4h.1c1.2-.4 2.5-.7 3.8-1l.5-.1.4.5c.2.3.5.6.7.9 1.7.2 3.3.1 4.5 1.6 1.1 1.3 1.2 3.1 1.1 4.7.3 0 .6.1.9.1.8.1 1.6.1 2.3.2.1-2 .2-4 .2-6 0-4.5-.1-9-.1-13.5 0-.2.3-.2.3 0 .4 4.6.4 9.2.4 13.7 0 1.9 0 3.9-.1 5.8v.6l-.7-.1c-.9-.1-1.8-.2-2.8-.3-.9-.1-1.8-.2-2.7-.2H48c-.7-.1-1.5-.1-2.2-.2-2 1.2-3.7 2.7-5.7 4l-.1.1c.8.4 1.5.8 2.3 1.2 2.3 1 4.6 2 7 2.9 1.9.8 4.1 1.6 6.2 1.2.5-.1 1-.3 1.4-.5l.5-.3c1.1-.9 1.6-2.2 2-3.7 1.1-4.2.8-8.6.2-12.9-.5-4.3-1.4-8.7-2.8-12.8-1.1-3.2-3.3-6.3-6.5-7.3.6 1.1 1.1 2.2 1.4 3.4l.2.6-.3.5c-.3.4-.6.8-1 1.1-.8.7-1.7 1.4-2.6 1.9.5.4 1 .9 1.5 1.3.3.3.6.6.9.8l.3.3-.3.5c-1.7 2.3-4.8 3.6-7.5 4.1.2.9.2 1.9.2 2.9s0 2.2-.4 3.2c0 .1-.2.1-.2 0-.2-1-.1-2.1 0-3.2 0-.9-.1-1.9 0-2.8v-.1c-2.9 1-6-1.3-7.6-4l-.5-.9.2-.6c.6-1.1 1.4-2.2 2.2-3.1-.3-.2-.7-.4-1-.6-.5-.3-1.1-.6-1.7-.9l-.5-.3.2-.5c.6-1.5 1.4-2.9 2.2-4.1.4-.6.8-1.1 1.2-1.6-5.2.9-8.4 5.9-10.9 10.1-2.4 4.1-4.2 8.5-5.6 13-1.2 4.3-2.5 10.1 1.4 13.4.5.4 1 .7 1.5.9l.6.4z"/><path class="qst2" d="M41.7 112c-.1-.3-.3-.7-.4-1-.5 5.6-7.4 7.5-12.5 8.1-2.3.3-5.5.6-7.2-1.4-1.7-2.1.6-4.1 2.6-4.6h.2c.6-.3 1.2-.5 1.8-.8-1.1 0-2.2-.2-2.5-.9-.3.1-.6 0-.8-.2-.2-.2-.1-.5-.1-.8v-.1c-.4.7-.9 1.5-1.5 2.1-.1.1-.4.2-.5.1-.5-.3-.8-.8-1-1.4-.7 3.5-.6 7.3 2.3 9.8.5.4 1 .7 1.5.9l.5.2c3.6 1.2 8.2-.6 11.4-2 1.1-.5 2.1-1 3.1-1.6l.6-.4c.7-.4 1.5-.9 2.2-1.5.4-.3.7-.5 1.1-.8-.2-1.1-.3-2.4-.8-3.7zm14.6 8.4c-1.8 1.5-4.5 1.4-6.5.4-1.3-.6-2.8-1.5-3.7-2.8-.8-1.3-.8-2.2-.3-3.4h-.2c-2 1.2-3.7 2.7-5.7 4l-.1.1c.8.4 1.5.8 2.3 1.2 2.3 1 4.6 2 7 2.9 1.9.8 4.1 1.6 6.2 1.2.5-.1 1-.3 1.4-.5l.5-.3c1.1-.9 1.6-2.2 2-3.7.6-2.2.8-4.5.7-6.8-.3 2.8-1.3 5.7-3.6 7.7zm-27.3-19c.8.3 1.6.6 2.4 1-.2-.9-.4-1.8-.5-2.7-.2-1.8-.1-3.6-.1-5.4-.7 2.4-1.4 4.8-1.8 7.1z"/><path class="qst2" d="M50.6 113.2v1.2c.3 0 .6.1.9.1.8.1 1.6.1 2.3.2.1-2 .2-4 .2-6v-6.5c-.2 1.7-.4 3.4-.8 5.1-.5 2.1-1.2 4.3-2.6 5.9z"/><path class="qst4" d="M23.9 190c-.9-.3-2.1-.8-2.8-1.5v-.1c-.6.2-1.2.3-1.8.5-1.1.4-2.2.8-3.2 1.3s-2 1-3 1.6c-.4.3-1.5 1-2 1.8 2.2-.1 4.4-.1 6.7-.2 2.2-.2 4.6-.8 6.9-.6.1 0 .1.2 0 .2-2.1.7-4.7.7-6.9.9-2.2.2-4.6.4-6.8 0-.1.4 0 .7.6.9 1.4-.1 2.8.1 4.2.1 1.5 0 3.1 0 4.6-.2 1.9-.1 3.8-.4 5.6-.8.2-.6.5-1.2.6-1.9.1-.6.2-1.2.2-1.9-1 .4-2 .2-2.9-.1z"/><path class="qst1" d="M35.8 87.5c-.5.9-1 1.9-1.4 2.8.7.3 1.3.7 1.9 1l.9.6.3.2-.3.5c-.4.6-.9 1.1-1.3 1.7-.4.6-.7 1.2-1 1.9 1.5 2.5 4 4.8 7 4.1-1.2-2.2-1.9-4.6-2.3-7.3-.4-3.3-.4-6.8-.1-10.2-.6.1-1.1.7-1.6 1.3 0 .1 0 .1-.1.1-.3.4-.6.8-.8 1.2-.3.6-.8 1.4-1.2 2.1z"/><path class="qst3" d="M25.7 111.6c.7 0 1.4 0 2.1.1 2-.8 4-1.4 5.9-2.1.4-1.1.8-2.2.5-3.3-.5-1.9-2.6-3-4.2-3.8l-3-1.2c-.2-.1-.9-.4-1.1-.3-1 .5.3 1.8.7 2 1.2.8 2.6 1.1 3.7 1.9.6-.1 1.1-.1 1.7 0 .2 0 .2.2 0 .3-1.5.5-3.2.5-4.8.8-.7.1-1.3.2-2 .5-.1 0-.1.1-.2.1-.3.2-1 .7-1 1.1 0 .5.7.9 1.1 1.2.4-.2.8-.4 1.1-.6 1.2-.5 2.8-.9 4.1-.9.1 0 .2.2.1.2-1.5.8-3.4.8-4.9 1.7-.4.3-1.1.8-1.2 1.3-.1 1 .7 1 1.4 1z"/><path class="qst3" d="M24.8 109.2c-.3-.1-.7-.3-.9-.5-.1.3-.3.7-.4 1-.1.2-.2.7-.2.9 0 .2.2.3.4.4 0-.2.1-.4.2-.6.2-.5.5-.8.9-1.2zm4.6-4.2c-.6-.3-1.2-.6-1.9-.9h-.1c-.5.1-1 .8-1.3 1.2-.1.1-.1.2-.2.3.6-.2 1.3-.3 1.9-.3.5-.1 1.1-.2 1.6-.3z"/><path class="qst1" d="M34.8 58.1c.1-.2.1-.3.2-.5.1-.3.5-1.8-.2-1.5-.1.2-.2.4-.3.7 0 .3 0 .6.1.9-.1.1 0 .3.2.4zm16.2 0c.1-.2.1-.3.2-.5.1-.3.5-1.8-.2-1.5-.1.2-.2.4-.3.7 0 .3 0 .6.1.9-.1.1 0 .3.2.4z"/><path class="qst3" d="M53 64.6c.1.5.1 1.1.2 1.6.5-1.6 2.1-3 3.2-4 .8-.8 1.9-1.9 3.1-2.6-.2-.5-.3-1.1-.4-1.7h-.9c-.9.1-1.8.2-2.7.2-.1 2-1.1 4-2.9 4.5-2.2.7-5.5-.4-6.4-2.7-.9-2.2 0-5.9 2.5-6.6.1 0 .2.2.1.2-2.1 1-3 3.8-2.2 5.9.7 2.1 3.6 3.2 5.6 2.7 1.8-.4 2.7-2.4 2.8-4.2v-.1c0-.7-.1-1.3-.3-1.9-.9-2.4-3.4-3.1-5.7-2.4-.1 0-.2-.2-.1-.2 2.4-1 5.3-.3 6.2 2.3.2.6.3 1.3.3 2 .8-.2 1.7-.2 2.5-.3.3 0 .7 0 1-.1-.2-1.6-.2-3.3-.1-4.8.1-2 .4-4.1.9-6.1-1.7.2-3.6 0-5.2-.7.1.2.1.5 0 .8-.3 2-2.7 2.3-4.3 2.2-3-.3-6-1.4-8.4-3.2.2 1.8-1.3 2.2-2.8 2.2-3.4-.1-6.3-2.5-7.4-5.6-1.5 1.8-2.4 4.1-3.3 6.2-1 2.4-1.6 4.9-1.9 7.4.1 0 .3.1.4.1.6.1 1.2.2 1.7.4.7-2.2 2.6-4.3 5-4 .1 0 .2.2 0 .2-2.6.4-4.5 2.4-4.8 5.1-.3 2.9 2.1 5.8 5.1 5.5 2.8-.3 4.6-2.3 4.8-5 .2-2.6-1.2-5.6-4.2-5.6-.1 0-.1-.1 0-.1 3.1-.3 4.7 2.8 4.6 5.5 1.6-1.6 5.3-2.3 6.1.2 0 .1-.1.2-.2.1-1.5-2.1-4.3-.8-6 .3-.3 2.8-2.2 4.8-5.1 5.2-3.1.4-5.7-2.6-5.6-5.6 0-.4.1-.7.2-1.1-.5-.1-1.1-.2-1.6-.3-.2 0-.3-.1-.5-.1-.1.5-.1.9-.2 1.4v.1c.7 1.4 1.3 2.8 1.9 4.2.5 1.3 1.2 2.7 1.6 4.1.1-.2.1-.4.2-.5l.1-.4.4.1c2.3.9 4.8 1.1 7.4 1.1-.3-1.4.2-3.1.8-4.3.7-1.4 1.7-2.8 2.9-3.8.1-.1.2.1.2.2-.9 1.2-1.8 2.2-2.5 3.5-.4.8-.7 1.6-.8 2.5-.1.6-.1 1.2-.2 1.8 1.1 0 2.3 0 3.4-.1 3.8-.1 7.4-.8 11-1.9l.3-.1.2.3zm-3.2-7.3c.1-.3.8-2.1 1.4-1.8h.3c.4.2.4.8.3 1.2-.1.8-.4 2.7-1.4 3-1.2.3-.8-1.8-.6-2.4zm2.9-8.2c1.2-.1 2 1.3 1.8 2.4 0 .2-.3.2-.4.1-.2-.3-.2-.8-.4-1.1-.3-.6-.9-.6-1.4-.4-.7.3-1.2.8-1.8 1.3-.1.1-.4.1-.4-.1 0-1.1 1.6-2.2 2.6-2.2zM35 55.5h.3c.4.2.4.8.3 1.2-.1.8-.4 2.7-1.4 3-1.3.3-.8-1.8-.6-2.4.1-.3.8-2.1 1.4-1.8zm2.5-4.9c0 .2-.3.2-.3 0-.5-1-1-1.8-2.2-1.8-.9.1-1.6.7-2.2 1.2-.1.1-.3 0-.3-.1.3-2.7 5.6-2.2 5 .7z"/><path class="qst5" d="M28.9 57.3c-.3 2.9 2.1 5.8 5.1 5.5 2.8-.3 4.6-2.3 4.8-5 .2-2.5-1.2-5.4-4-5.6-.7.1-1.4.4-2.1.4-2.1.7-3.6 2.4-3.8 4.7zm4.7 0c.1-.3.8-2.1 1.4-1.8h.3c.4.2.4.8.3 1.2-.1.8-.4 2.7-1.4 3-1.2.3-.8-1.8-.6-2.4zM54.8 56c-.9-2.4-3.4-3.1-5.7-2.4h-.2v.1c-2.1 1-3 3.8-2.2 5.9.7 2.1 3.6 3.2 5.6 2.7 1.8-.4 2.7-2.4 2.8-4.2v-.2c0-.7-.1-1.4-.3-1.9zm-3 .7c-.1.8-.4 2.7-1.4 3-1.3.3-.8-1.8-.6-2.4.1-.3.8-2.1 1.4-1.8h.3c.3.2.3.9.3 1.2z"/><path class="qst6" d="M59.2 58h-.9c-.4 0-.8.1-1.2.1 0 .2 0 .3.1.5 0 .4.3 1.5.7 2.3.5-.5 1.1-.9 1.7-1.3-.2-.5-.4-1.1-.4-1.6zM31.1 47.2c.1-.1.3-.1.4 0 .8.4 1.6.8 2.3 1.1 1.3-.5 3.3 0 3.7 1.3 1.7.3 3.5.2 5.2-1 .2-.1.4-.1.5.1 1.7 1.8 4.2 2.6 6.7 2.5.1-1.1 1.7-2.1 2.7-2.2.7 0 1.3.5 1.6 1.2.3-.2.6-.3.9-.5.2-.1.5 0 .5.1 1.2 2.4 1 5 1.3 7.6.4 0 .7 0 1.1-.1.3 0 .7 0 1-.1-.2-1.6-.2-3.3-.1-4.8.1-2 .4-4.1.9-6.1-1.7.2-3.6 0-5.2-.7.1.2.1.5 0 .8-.3 2-2.7 2.3-4.3 2.2-3-.3-6-1.4-8.4-3.2.2 1.8-1.3 2.2-2.8 2.2-3.4-.1-6.3-2.5-7.4-5.6-1.5 1.8-2.4 4.1-3.3 6.2-.3.7-.5 1.3-.7 2 1-1 2.2-2.1 3.4-3z"/><path class="qst3" d="M52.1 50c-.6.3-1.1.7-1.6 1.2 1.1-.1 2.1-.3 3.1-.7 0 0 0-.1-.1-.1-.3-.6-.8-.6-1.4-.4zM35 48.9c.5.2 1 .4 1.4.5-.4-.4-.8-.6-1.4-.5z"/><path class="qst7" d="M38.2 66.8c0 .1-.1.1-.2 0-1.2 0-2.5-.1-3.7-.2-1.4-.1-2.8-.4-4-1-1 3.2-1.6 6.8-1 10.1 1.6 1.1 3.5 1.4 5.4 1.7 2.5.4 5.1.7 7.7.6 3.5-.2 6.8-1.2 10-2.6.4-1.6.6-3.2.6-5 0-1.9-.1-3.8-.2-5.7-3.5 1.4-7.5 1.9-11.2 2-1.3.1-2.3.1-3.4.1zm13.9 6.5c-3.4 1.3-7.3 1.9-11 2.1-1.9.1-3.8.1-5.8 0-1.5-.1-3-.3-4.4-1.1-.1-.1 0-.3.1-.2 3.1 1.4 7.1 1.1 10.5.9 3.6-.2 7-1.1 10.5-1.9.2-.1.3.1.1.2zm.2-2.9c-3 1.3-6.6 1.5-9.8 1.7-3.5.2-7 .6-10.4-.5-.1 0-.1-.2.1-.2 3.3.7 6.8.4 10.2.2 3.4-.2 6.6-.8 9.9-1.4 0 0 .1.1 0 .2zM49.2 68c-2.8.9-5.9 1.3-8.8 1.4-2.7.1-5.7.3-8.1-.8-.1-.1 0-.3.1-.2 5.5 1.5 11.3.3 16.8-.5 0-.1.1.1 0 .1z"/><path class="qst8" d="M52.2 73.2s0 .1 0 0c-.8 1.2-1.9 2.1-3.3 2.6-3.3 1.2-8.8 2.7-12 .5-.3-.2-.3-.7.1-.7.2 0 .4-.1.6-.1-.7 0-1.4-.1-2.2-.1-1.5-.1-3-.3-4.4-1.1-.1-.1 0-.3.1-.2 2.7 1.2 6.1 1.2 9.1 1 .1 0 .3-.1.4-.1-1.8 0-3.5-.3-5.2-.8-1.3-.3-2.8-.6-3.8-1.5-1.7-1.5-2-3.3-1.8-5.2-.7 2.7-1 5.7-.5 8.3 1.6 1.1 3.5 1.4 5.4 1.7 2.5.4 5.1.7 7.7.6 3.5-.2 6.8-1.2 10-2.6.3-1.2.5-2.4.5-3.6-.2.4-.4.9-.7 1.3z"/><path class="qst3" d="M28.7 72.5c0-.7.1-1.5.2-2.2.1-1.2.4-2.4.7-3.6-.8-1.3-1.2-2.8-1.8-4.2-.4-1-.8-2-1.1-3-.2-.5-.5-.9-.7-1.4-.1 0-.1-.1-.1-.2-.3-.5-.6-.9-1-1.3-.3-.4-.4-.5-.9-.5-.5.1-.5.3-.8.7-.3.6-.6 1.1-.8 1.8-.4 1.2-.5 2.4-.4 3.7.1 1.3.7 4.1 2.4 3.6 0-.4.1-.9.1-1.3 0-.1.2-.1.2 0 0 .4.1.8.1 1.2V67c.4 1.2 1 2.1 1.7 3.1.8.7 1.6 1.5 2.2 2.4zm-3.9-9.1c0 .1-.2.1-.2 0-.1-1.1 0-2.2-.1-3.3 0-.2 0-1-.4-.7-.2.1-.3.7-.3.8-.1.4-.2.7-.4 1-.1.1-.3.1-.3 0-.2-.7.4-3.3 1.6-2.5.5.3.4 1.1.4 1.6 0 1 0 2.1-.3 3.1z"/><path class="qst3" d="M40.4 80.8c.4 0 .8.1 1.2.1.1 0 .2.2 0 .3-.4.1-.8.2-1.2.2 0 2.1-.2 4.3-.2 6.4.9.8 1.7 1.5 3 1.4s2.1-.9 2.8-1.8c0-2.1-.1-4.1 0-6.2-.7.1-1.3.1-2 0-.2 0-.1-.2 0-.3.7-.1 1.3-.2 2-.3l.4-.1c3.1-.7 6.1-2 8.5-3.9 1.5-1.2 2.6-2.8 3.4-4.5.3-.7.6-1.4.8-2.1-.6.7-1.4 1.2-2.2 1.6-1 .5-2.2 1.1-3.3.9 0 .9-.1 1.7-.3 2.6l-.2.7-.7.4c-3.2 1.5-6.8 2.3-10.3 2.5-2.8.1-5.6-.3-8.3-.8-1.4-.3-2.9-.6-4.1-1.4l-.6-.5-.1-.6c-.1-.7-.1-1.5-.1-2.3-1.1-.9-2-2.1-2.7-3.2-.3-.4-.6-.9-.8-1.4.2 3.2.7 6.3 2.6 9 1.4 2.1 4.2 2.5 6.5 2.9 1.9.3 3.8.3 5.8.4h.1z"/><path class="qst3" d="M40.3 82.7c-.1 1.7-.2 3.3-.2 5 .6.6 1.2 1.1 2 1.3.5-2.6 0-6.2-1.8-6.3z"/><path class="qst6" d="M45.9 81.1c-.7.1-1.3.1-2 0-.2 0-.1-.2 0-.3.3 0 .7-.1 1-.1-1.1.1-2.2.2-3.3.2.1.1.1.2 0 .2-.4.1-.8.2-1.2.2v.5c2.4 0 3.1 4.2 2.6 7.2h.2c1.3-.1 2.1-.9 2.8-1.8-.1-2-.2-4-.1-6.1z"/><path class="qst3" d="M36.5 80.5c-2.2-.3-5.2-.8-7.8-2 1.5 1.1 3.6 1.4 5.4 1.8 1 .2 2.1.3 3.1.3-.1 0-.4-.1-.7-.1z"/><path class="qst9" d="M25.9 56.9c0-.3 0-.6.1-.9-.2-.1-.5-.1-.7-.3-.1 0 0-.2 0-.2h.7c.3-2.7 1.1-5.4 2.1-7.9.9-2.1 1.9-4.5 3.5-6.2l.3-.3.2.5c.9 2.5 2.8 4.6 5.6 5.2.8.2 1.9.3 2.7.1 1-.2 1.1-1.2.9-2l-.4-1.1.9.7c1.9 1.4 3.9 2.5 6.2 3.1 1.6.4 4.3 1.1 5.6-.3.6-.6.5-1.3.2-1.9l-1.1-1.3 1.4.8c.8.4 1.6.7 2.5.9 1.1.2 2.2.2 3.3 0l.6-.1-.1.6c-.4 2-.8 4-.9 6-.1 1.7 0 3.3.2 5 .4 0 .8 0 1.2.1.1 0 .1.2 0 .3-.4.1-.8.2-1.2.2.1.5.2 1 .2 1.5.2-.1.5-.2.8-.2.6-.8 1.3-1.5 2.2-1.8 0-1 .2-2.1.3-3.1.2-.9.2-1.8.3-2.6l.1-.6.5.3c.6.3 1.1.4 1.3 0 .1-.3-.2-1.2-.3-1.5-.1-.4-.2-.8-.4-1.2-.5-1.3-1.2-2.6-2.2-3.7l-1.2-.8c.2.1.5.1.7.2l.7.1h.2c.5.1 1.3.3 1.8.2.4-.1.8-.8.9-1.2.1-.3-.1-.7-.1-1l-.3-1.2c-.3-1-.8-2-1.5-2.9-2-2.9-5.2-4.9-8.4-6.4s-6.7-2.4-10.2-2.7c-3.5-.3-7.5-.1-10.8 1.3-1.6.7-3.1 1.8-3.9 3.4-.8 1.5-.8 3.1-.5 4.7l.1.3-.4.3c-2.2 1.6-3.2 4.2-3.9 6.8-.4 1.6-.6 3.2-.8 4.8-.1 1.5-.1 3-.4 4.5.6.3 1 .9 1.4 1.5z"/><path class="qst4" d="M62.9 44.4h.2c.5.1 1.3.3 1.7.2.4-.1.8-.8.9-1.2.1-.3-.1-.7-.1-1l-.3-1.2c-.1-.4-.3-.7-.4-1.1-.1 1.1-.6 2-2.1 2.4-4.7 1.2-9.7-1.4-13.9-3.3.2 4.3-6.6 1.2-9.3-.8-.2 2.6-3.8 2-5.5.1-1.7-2-2.2-4.5-1.6-6.9-.8.6-1.5 1.3-2 2.2-.8 1.5-.8 3.1-.5 4.7v.5l-.4.3c-2.2 1.6-3.2 4.2-3.9 6.8-.4 1.6-.6 3.2-.8 4.8-.1 1.5-.1 3-.4 4.5.5.3 1 1 1.3 1.5 0-.3 0-.6.1-.9-.2-.1-.5-.1-.7-.3-.1 0 0-.2 0-.2h.7c.3-2.7 1.1-5.4 2.1-7.9.9-2.1 1.9-4.5 3.5-6.2l.3-.3.2.5c.9 2.5 2.8 4.6 5.6 5.2.8.2 1.9.3 2.7.1 1-.2 1.1-1.2.9-2l-.4-1.1.9.7c1.9 1.4 3.9 2.5 6.2 3.1 1.6.4 4.3 1.1 5.6-.3.6-.6.5-1.3.2-1.9l-1.1-1.3 1.4.8c.8.4 1.6.7 2.5.9 1.1.2 2.2.2 3.3 0l.6-.1-.1.6c-.4 2-.8 4-.9 6-.1 1.7 0 3.3.2 5 .4 0 .8 0 1.2.1.1 0 .1.2 0 .3-.4.1-.8.2-1.2.2.1.5.2 1 .2 1.5.2-.1.5-.2.8-.2.6-.8 1.3-1.5 2.2-1.8 0-1 .2-2.1.3-3.1.2-.9.2-1.8.3-2.6l.1-.6.5.3c.6.3 1.1.4 1.3 0 .1-.3-.2-1.2-.3-1.5-.1-.4-.2-.8-.4-1.2-.5-1.3-1.2-2.6-2.2-3.7l-1.2-.8c.2.1.5.1.7.2h1z"/><path class="qst3" d="M24 188.7c-.7-.1-1.3-.3-2-.6-.2.1-.3.1-.5.2.7.1 1.4.5 2 .8 1.1.5 2.1.4 3.2.5v-1.3c-.9.4-1.8.5-2.7.4zm32.4-1.4c-.2 0-.3-.1-.5-.1-1.6.7-3.4 1-5.2.8.1.6.2 1.1.3 1.7.7-.2 2.7-1 2.9-1.1.9-.4 1.7-.9 2.5-1.3z"/><path class="qst4" d="M65.5 190c-.9-.5-2-.7-3-1-1.9-.6-3.8-1.1-5.8-1.6v.1c-1.1 1.4-3.7 2.5-5.5 2.6l.3 2.4c0 .1 0 .2.1.4 2.1.2 4.2.2 6.4.3 1.3.1 2.7.1 4.1.1 1.1 0 2.2-.1 3.3.1.5-.2.9-.4 1.1-.8-2.3.1-4.6 0-6.9-.1-2.3-.1-4.6-.2-6.9-.6-.1 0-.1-.2 0-.2 2.4.1 4.7.2 7.1.3 2.3.1 4.6 0 6.9.1.1-.7-.2-1.6-1.2-2.1z"/><path class="qst7" d="M54.2 187.2c.9-.3 1.7-.7 2.4-1.2-.2-1.9-.3-3.9-.5-5.8-.2-2.4-.4-4.8-.5-7.2-2.3.8-4.7 1.5-7.2 2.1.5 2.1.8 4.3 1.1 6.5.3 1.9.6 3.9.8 5.8 1.4.3 2.7.2 3.9-.2z"/><path class="qst1" d="M43.5 99.2c-.1.3-.3.6-.4.9 1.3-.4 2.7-.8 3.9-1.5 1.1-.6 2-1.4 2.9-2.3l-.9-.9c-.5-.5-1-1-1.6-1.4l-.4-.5.3-.2c.8-.5 1.6-.9 2.3-1.5.6-.5 1.1-1 1.6-1.6-.6-1.4-1.1-2.8-1.8-4.1l-.3-.6c-.4-.7-.8-1.3-1.2-1.8-.4-.5-1-.9-1.5-1.3.1 1.6 0 3.2.1 4.8 0 2.2-.1 4.2-.8 6.3-.6 1.9-1.3 3.8-2.2 5.7zM56 172.1l1.8-.6c1.1-.4 2.3-.9 3.4-1.3-.4-8-.9-16-1.5-24-.4-4.4-.8-8.7-1.3-13.1-.3-3.1-.7-6.2-1.4-9.2-2.7 1.3-6.5-.2-9.1-1.2-2.2-.9-4.4-1.8-6.6-2.8-.7-.3-1.3-.7-2-1.1-2.2 1.3-4.6 2.3-7 3.1-2.6.8-5.5 1.4-8 .7-.3 3.7-.8 7.4-1.1 11.1-.8 8.5-1.4 17-1.9 25.5-.2 3.8-.4 7.6-.5 11.4.3.1.6.3 1 .4l.4.2c2.4 1.1 4.8 2.1 7.3 2.9l.6.2c2.5.7 5 1.2 7.6 1.3l.6-4.2c.4-3.1.8-6.3 1.3-9.4 0-.4.6-.4.6 0 .4 4.3 1 8.5 1.7 12.7 0 .3.1.5.1.8l2.7-.3c1.2-.2 2.4-.4 3.5-.7l.4-.1c2.5-.6 4.9-1.3 7.3-2.1l.1-.2zm-24.7-17.5c-.5 1.8-1.6 3.8-3.6 4.1-1.2.1-2.3-.4-3.2-1-.8-.4-1.5-.9-1.8-1.8-.3-1.1-.2-2.5-.1-3.7 0-1.4.1-2.8.4-4.1 0-.2.3-.1.3 0-.1 2.1-.4 4.2-.3 6.4 0 .5 0 1.2.3 1.6.3.5.9.8 1.5 1.1 1.1.6 2.2 1.1 3.4.6 2.1-.8 2.6-3.5 3-5.4.5-2.2.7-4.3 1-6.5 0-.2.4-.3.4 0 .1 2.9-.4 5.9-1.3 8.7zm1.3-9.4c-1.4.6-3.1.6-4.6.8-.4.1-4.5.9-4.6.7 0 .1 0 .1-.1.2h-.1c-.1 0-.1-.1-.2-.1v-.1c0-.1 0-.2.1-.2.6-.4 1.6-.5 2.3-.6.8-.2 1.6-.3 2.5-.5 1.5-.2 3.2-.8 4.7-.5.1 0 .1.3 0 .3zm3.4-7.3c.3-.7 1-1.3 1.7-1.4.1 0 .2.2.1.2-.6.4-1.6 1.2-1.4 2.1.2.8 1.1 0 1.3-.4.3-.4.4-1 .2-1.5-.1-.2.2-.5.4-.3.5.7.4 1.5 0 2.2-.4.6-1.1 1.1-1.8.8-.7-.2-.7-1.1-.5-1.7zm2.6 14.8c-.3.6-.9 1.3-1.7 1.2-.8-.1-.6-1.1-.5-1.7.2-.6.7-1.5 1.4-1.6.1 0 .2.1.1.2-.2.3-.5.6-.7.9-.2.3-.4.9-.3 1.2.1.4.5.2.7 0 .2-.2.4-.5.5-.8.2-.4.2-.8 0-1.2-.1-.2.2-.3.3-.2.8.4.4 1.5.2 2zm.1-27.2c-.4.6-1.1.9-1.7.4s-.5-1.4-.2-2c.2-.4.9-.8 1.3-.3.1.1 0 .2-.1.2-.5 0-.7.2-.8.7-.1.4-.1 1 .4 1.1.4.1.7-.4.8-.7.1-.4 0-.8 0-1.2 0-.2.2-.3.3-.2.5.5.4 1.4 0 2zm2.7 5.1c.1 3.2.3 6.4.2 9.7 0 3.2-.3 6.4-.7 9.6-.3 3.1-.5 6.4-1.2 9.4 0 .2-.3.1-.3 0 .1-3.3.7-6.5 1-9.8.2-3.2.4-6.4.5-9.6 0-3.2-.2-6.5-.2-9.7 0-3.1 0-6.4.8-9.4 0-.1.3-.1.2 0-.2 3.3-.4 6.5-.3 9.8zm4.7 15.2c1.7-.4 3.5-.2 5.3-.2 1.7.1 3.6.2 5.3.6.3.1.2.5-.1.5-1.7-.1-3.5-.4-5.2-.5-1.7-.1-3.5 0-5.2-.2-.2 0-.2-.2-.1-.2zm.5 1.3c0-.3.4-.2.4 0 .3 3.8.1 11.1 5.6 10.8 2.4-.1 3.6-1.7 3.7-4 0-2.3-.2-4.6 0-6.8 0-.2.3-.2.3 0 .2 1.6.2 3.2.2 4.8 0 1.3.2 2.6-.2 3.8-.5 1.8-2.3 2.8-4.1 2.9-5.8.3-5.9-7.3-5.9-11.5z"/><path class="qst2" d="M37.6 125.6c.4.1.7-.4.8-.7.1-.3 0-.6 0-.9-.1 0-.2-.1-.3-.1H38c-.5 0-.7.2-.8.7-.1.3-.1.9.4 1z"/><path class="qst2" d="M59.6 146.2c-.4-4.4-.8-8.7-1.3-13.1-.3-3.1-.7-6.2-1.4-9.2-2.7 1.3-6.5-.2-9.1-1.2-2.2-.9-4.4-1.8-6.6-2.8-.7-.3-1.3-.7-2-1.1-2.2 1.3-4.6 2.3-7 3.1-2.6.8-5.5 1.4-8 .7 1.2.6 2.2 1.2 3.6 1.3 1.5.1 2.8 0 4.2-.4 1.9-.6 3.9-1.3 5.8-.6h.1c1 .2 1.9.6 2.8 1 .1-.2.2-.3.3-.5.1-.9.3-1.8.5-2.7 0-.1.3-.1.2 0-.1.7-.1 1.5-.2 2.2 1-.5 2.2 0 3.4.7 3.6 2 6.8 3.6 11 2.9.2 0 .4.1.5.3 1.2 3.3.9 7.4 1 10.8 0 2.9.7 6.5-.6 9.2 0 .1-.1.2-.2.2.2 1.1.2 2.4.1 3.7v1.2c0 1.3.2 2.6-.2 3.8-.2.8-.6 1.4-1.2 1.8.7-.2 1.3-.4 2 .2.9.7.8 2.9.7 3.9-.2 3.6-1.6 6.1-4.8 8-2.7 1.6-7 3.2-9.9 1.2-1.3-.9-2.3-2.2-3-3.8.3 2.6.7 5.1 1.1 7.7 0 .3.1.5.1.8l2.7-.3c1.2-.2 2.4-.4 3.5-.7l.4-.1c2.5-.6 4.9-1.3 7.3-2.1l.4-.1 1.8-.6c1.1-.4 2.3-.9 3.4-1.3-.2-8.1-.7-16.1-1.4-24.1z"/><path class="qst2" d="M35.4 169.2c-2.2 1.2-4.9.8-7.2-.2-3.7-1.6-6-5.6-7.2-9.6-.2 3.7-.4 7.5-.5 11.2.3.1.6.3 1 .4l.4.2c2.4 1.1 4.8 2.1 7.3 2.9l.6.2c2.5.7 5 1.2 7.6 1.3l.6-4.2c.3-2 .5-3.9.8-5.9-.8 1.5-1.9 2.9-3.4 3.7zm-8.8-14.8c-2 .1-3-1.6-3.5-3.4-.1 1.2-.1 2.3-.1 3.5 0 .5 0 1.2.3 1.6.3.5.9.8 1.5 1.1 1.1.6 2.2 1.1 3.4.6 2.1-.8 2.6-3.5 3-5.4.2-.8.3-1.6.5-2.5-1.2 2.3-2.9 4.3-5.1 4.5zm11.5-3.5c-.1 0-.1-.1-.2-.1-.2.3-.5.6-.7.9-.2.3-.4.9-.3 1.2.1.4.5.2.7 0 .2-.2.4-.5.5-.8.2-.4.2-.8 0-1.2 0 .1 0 0 0 0zm-.2-14.1c-.7.3-1.7 1.2-1.4 2 .2.8 1.1 0 1.3-.4.3-.4.4-1 .2-1.5-.1 0-.1 0-.1-.1zm16.4 19.1c-1.9 1-4.5.9-6-.5.8 1.6 2.1 2.8 4.3 2.6 2.4-.1 3.6-1.7 3.7-4v-.6c-.4 1-1 1.9-2 2.5z"/><path class="qst7" d="M21.9 171.9c-.3 2.6-.5 5.2-.8 7.8-.2 2.3-.3 4.6-.5 7 1 .7 2.1 1.3 3.4 1.4 1.4.1 2.5-.3 3.6-.9.2-1.9.4-3.7.6-5.6l.9-6.9c-.5-.1-.9-.3-1.3-.4-2-.7-4-1.5-5.9-2.4z"/><path class="qst8" d="M51.2 182.7c-.3-1.9-.5-4.4.7-6.1 1-1.4 2.3-2.3 3.8-3.1v-.5c-2.3.8-4.7 1.5-7.2 2.1.5 2.1.8 4.3 1.1 6.5.3 1.9.6 3.9.8 5.8 1.3.2 2.6.1 3.9-.3.2-.1.5-.2.7-.2-1.9-.3-3.4-1.6-3.8-4.2zm-23.4-8.4c-2-.7-4-1.5-6-2.4v.4c1.6 1.4 3.1 2.7 4 4.6 1 2 .9 4.5.7 6.6-.2 2-1.6 3.8-3.3 4.4.3.1.5.1.8.2 1.4.1 2.5-.3 3.6-.9.2-1.9.4-3.7.6-5.6l.9-6.9c-.4-.1-.8-.2-1.3-.4z"/><path class="qst3" d="M60 61.7c-.1.2-.3.1-.3-.1 0-.3.1-.5.2-.8v-.1c-.1-.2-.1-.4-.2-.5-1 .7-2 1.5-2.9 2.4-1.4 1.4-2.7 2.8-3.5 4.6 0 0 0 .1-.1.1.1 1.2.2 2.4.2 3.6v1.2c2.1-.4 4.2-1.4 5.8-2.8.1-.3.2-.6.2-.8l.2-.7c.1-.4.3-.8.4-1.3 0-.1.2-.1.2 0 0 .6-.1 1.1-.2 1.7.6.3 1.5 0 2.1-.4.6-.5 1.1-1.1 1.5-1.7.9-1.2 1.6-2.4 1.9-3.8.3-1.5-.1-5.2-2.7-4-1.2.5-2.2 2-2.8 3.4zm3.9.9c-.1.1-.2 0-.2-.1-.2-.4 0-1.2-.5-1.4-.5-.3-.8.4-1 .8-.4.9-.7 1.8-.9 2.7 0 .1-.2.1-.2 0 0-.9.3-1.9.6-2.7.2-.5.4-1.2 1-1.4 1.2-.6 1.9 1.2 1.2 2.1z"/><path class="qst8" d="M45.9 88.3c-1.3 1.7-4.4 1.9-5.7.2 0 1.3 0 2.6.2 3.8.2 2 .6 4 1.3 5.9.2.6.5 1.1.8 1.7l.6-1.2c.9-1.8 1.6-3.7 2.2-5.6.3-1.6.5-3.2.6-4.8z"/><path class="qst10" d="M24.7 58.6c-1.2-.8-1.8 1.8-1.6 2.5 0 .2.2.2.3 0 .2-.3.3-.7.4-1 0-.2.1-.7.3-.8.4-.3.4.5.4.7.1 1.1 0 2.2.1 3.3 0 .1.1.1.2 0 .3-1 .3-2.1.2-3.2 0-.4.1-1.1-.3-1.5m37.9 1.8c-.5.2-.8.9-1 1.4-.3.9-.6 1.8-.6 2.7 0 .1.2.2.2 0 .3-.9.5-1.8.9-2.7.2-.4.5-1 1-.8.5.2.4 1 .5 1.4 0 .1.1.1.2.1.8-.8.1-2.6-1.2-2.1m-13.5 7.4c-5.5.8-11.3 2-16.8.5-.1 0-.2.2-.1.2 2.5 1.1 5.5 1 8.1.8 3-.1 6-.5 8.9-1.4.1.1 0-.1-.1-.1m3.1 2.4c-3.3.7-6.5 1.2-9.9 1.4-3.4.2-6.8.5-10.2-.2-.1 0-.2.2-.1.2 3.4 1 7 .7 10.4.5 3.2-.2 6.8-.4 9.8-1.7.2-.1.1-.2 0-.2M52 73c-3.5.8-6.9 1.7-10.5 1.9-3.3.2-7.4.5-10.5-.9 0 0-.2.2 0 .3 1.4.8 2.9 1 4.4 1.1 1.9.2 3.8.2 5.8 0 3.7-.2 7.5-.8 11-2.1.1-.1 0-.3-.2-.3M32.5 50c0 .2.2.2.3.1.6-.6 1.3-1.2 2.2-1.2 1.3-.1 1.8.8 2.2 1.8.1.1.3.1.3 0 .6-3-4.7-3.5-5-.7m20.2-.9c-1 .1-2.6 1.1-2.7 2.2 0 .2.2.2.4.1.6-.5 1.1-1 1.8-1.3.6-.3 1.1-.2 1.4.4.2.4.2.8.4 1.1.1.2.4.2.4-.1.3-1.1-.6-2.5-1.7-2.4m-17.4 6.4H35c-.6-.2-1.3 1.5-1.4 1.8-.2.6-.6 2.7.6 2.4 1-.2 1.3-2.2 1.4-3 0-.3.1-1-.3-1.2m-.4 2.1c0 .2-.1.3-.2.5-.2-.1-.3-.2-.3-.5-.1-.3-.1-.6-.1-.9.1-.2.2-.5.3-.7.8-.2.4 1.3.3 1.6m16.6-2.1h-.3c-.6-.2-1.3 1.5-1.4 1.8-.2.6-.6 2.7.6 2.4 1-.2 1.3-2.2 1.4-3 0-.3 0-1-.3-1.2m-.4 2.1c0 .2-.1.3-.2.5-.2-.1-.3-.2-.3-.5-.1-.3-.1-.6-.1-.9.1-.2.2-.5.3-.7.8-.2.4 1.3.3 1.6"/><path class="qst10" d="M65.7 189.4c-1.5-.7-3.3-1.1-4.9-1.5-1.3-.4-2.8-1-4.2-1 .1 0 .1-.1.2-.1l.7-.5-.1-.8c-.2-1.8-.5-3.6-.6-5.5-.2-2.4-.5-4.8-.7-7.2 1.7-.6 3.4-1.2 5.2-1.9 0 .5 0 .9.1 1.4l.6-1.7v-.8c-.2-3.1-.3-6.2-.5-9.3-.5-8.8-1.2-17.6-2.2-26.4-.4-3.5-.8-7.1-1.7-10.6.5-.3 1-.8 1.4-1.5 1.2-1.9 1.5-4.3 1.7-6.5.2-2.4.1-4.9-.1-7.3-.5-5-1.4-10.1-3-14.8-1.2-3.5-3.8-7.4-7.6-8-.1-.1-.1-.2-.2-.3-.7-1.3-1.8-2.9-3.2-3.4v-.8c1.2-.2 2.4-.7 3.5-1.1 1.8-.7 3.6-1.6 5.1-2.8 2.5-2 4.4-5.2 5.1-8.4.9.3 2.2-.2 2.9-.8 1.7-1.6 3.2-3.9 3.4-6.2.2-1.5-.3-4.9-2.5-4.7h-.3c.2-1.2.3-2.5.5-3.8.1-.5.1-1 .2-1.5.2.1.5.2.7.2 1 .1 1.2-.5 1-1.3-.3-2.1-1.3-4.1-2.6-5.8.4 0 .7.1 1.1.1 1.6.1 1.8-1.1 1.7-2.5-.5-4.2-3.8-7.3-7.1-9.4-3.5-2.3-7.6-3.8-11.8-4.4-4-.6-8.6-.5-12.5.9-1.9.7-3.7 1.9-4.7 3.7-1 1.7-1 3.5-.6 5.3-2.2 1-3.4 3.8-4.1 6.1-.5 1.6-.8 3.3-1 5-.2 1.8-.4 3.7-.3 5.5-1.3-.2-2.1 2.6-2.4 3.5-.5 1.9-.5 4 .2 5.8.4 1 1.4 2.1 2.5 1.8-.2 4.1.5 8.7 3 11.9 1.4 1.8 4 2.2 6.2 2.6 2 .4 4.2.7 6.2.5 0 .3-.1.7-.1 1-.7-.2-1.2.4-1.6.9-.1.2-.3.3-.4.5-4.7.6-7.9 4.3-10.4 8.1-2.8 4.4-5.1 9.2-6.7 14.2-1.4 4.3-2.9 9.6-.2 13.8.9 1.3 1.9 2.1 3.1 2.6-.4 3.1-.7 6.2-1 9.3-.4 4.3-.8 8.6-1.1 12.8-.7 8.5-1.2 17-1.5 25.5v.8l.7.3c.3.1.6.3.9.4l-.9 7.5c-.2 2.3-.5 4.6-.7 6.9v.6l.7.5c.2.2.5.3.8.5-1.3.1-2.6.7-3.7 1.1-1.6.6-3.2 1.4-4.7 2.4-.9.6-2.4 1.4-2.5 2.6-.1.7.5 1.5 1.2 1.3 1.4.3 2.8.3 4.1.3 1.6 0 3.2 0 4.8-.2 1.7-.1 3.4-.3 5.1-.6l.7-.1.3-.7c.7-1.8 1-4 .5-5.6.1-.1.3-.1.4-.2l.6-.3.1-.8c.2-1.6.4-3.2.5-4.9.3-2.4.7-4.8 1-7.1 2.5.7 5 1.2 7.6 1.4h.5l.1-.7c.1-.6.2-1.2.2-1.8.4-3.1.9-6.2 1.3-9.3.3 3.3.8 6.5 1.3 9.8.1.4.1.9.2 1.3l.1.8.7-.1c2.1-.2 4.2-.5 6.2-1 .4 2.2.7 4.5 1 6.7.2 1.8.4 3.6.7 5.4l.1.5.7.1c-.1 1.5.2 3.1.4 4.7v.2l.1.4.7.1c2 .4 4.1.3 6.1.3 1.3.1 2.7.1 4.1.1 1.3.1 2.7.3 3.9 0 0 0 .1 0 .1-.1.8-.2 1.5-.9 1.6-1.8-.2-.6-1-1.6-2-2.1M46.5 87.2c0-1.6 0-3.2-.1-4.8.5.4 1 .8 1.5 1.3.5.6.9 1.2 1.2 1.8l.3.6c.7 1.3 1.2 2.8 1.8 4.1-.4.6-1 1.1-1.6 1.6-.7.6-1.5 1-2.3 1.5l-.3.2.4.3c.5.5 1 1 1.6 1.4l.9.9c-.9.9-1.8 1.7-2.9 2.3-1.2.7-2.6 1.1-3.9 1.5.2-.3.3-.6.4-.9.9-1.8 1.7-3.8 2.2-5.7.6-2 .8-3.9.8-6.1m-4.1 12.7c-.3-.6-.6-1.1-.8-1.7-.8-1.9-1.1-3.9-1.3-5.9-.1-1.3-.2-2.6-.2-3.8 1.3 1.7 4.4 1.5 5.7-.2-.1 1.6-.2 3.2-.7 4.8-.6 1.9-1.3 3.8-2.2 5.6-.1.4-.3.8-.5 1.2m23.3-37.8c-.3 1.4-1 2.7-1.9 3.9-.5.6-.9 1.3-1.5 1.7-.6.5-1.5.8-2.1.4.1-.6.2-1.2.2-1.7 0-.1-.2-.2-.2 0-.2.4-.3.8-.4 1.3l-.2.7c-.1.3-.2.6-.2.8-1.6 1.5-3.6 2.5-5.8 2.8v-1.2c0-1.2-.1-2.4-.2-3.6l.1-.1c.8-1.8 2-3.2 3.5-4.6.9-.9 1.9-1.7 2.9-2.4.1.2.1.4.2.5v.1c-.1.3-.2.5-.2.8 0 .2.2.3.3.1.5-1.4 1.5-3 3-3.6 2.4-1.1 2.8 2.6 2.5 4.1m-13.1 2.2c-3.6 1.2-7.2 1.8-11 1.9-1.1 0-2.2.1-3.4.1.1-.6 0-1.2.2-1.8.2-.9.5-1.7.8-2.5.6-1.3 1.6-2.4 2.5-3.5.1-.1-.1-.2-.2-.2-1.3 1-2.3 2.3-2.9 3.8-.6 1.2-1.1 2.9-.8 4.3-2.5 0-5.1-.2-7.4-1.1l-.4-.1v.3c-.1.2-.1.4-.2.5-.4-1.4-1.1-2.8-1.6-4.1-.6-1.4-1.1-2.9-1.9-4.2v-.1c.1-.5.1-.9.2-1.4.2 0 .4.1.5.1.5.1 1 .3 1.6.3-.1.4-.1.8-.2 1.1-.1 3 2.5 5.9 5.6 5.6 2.9-.3 4.8-2.3 5.1-5.2 1.7-1.1 4.5-2.4 6-.3.1.1.3 0 .2-.1-.8-2.6-4.5-1.8-6.1-.2.1-2.7-1.5-5.8-4.6-5.5-.1 0-.1.1 0 .1 2.9.1 4.4 3 4.2 5.6-.2 2.8-2 4.7-4.8 5-3 .4-5.4-2.6-5.1-5.5.3-2.7 2.2-4.6 4.8-5.1.1 0 .1-.2 0-.2-2.4-.3-4.3 1.8-5 4-.5-.2-1.1-.3-1.7-.4-.1 0-.3 0-.4-.1.4-2.5 1-5 1.9-7.4.9-2.1 1.8-4.4 3.3-6.2 1 3.2 3.9 5.5 7.4 5.6 1.5 0 3-.4 2.8-2.2 2.4 1.8 5.4 2.9 8.4 3.2 1.6.2 4-.1 4.3-2.2v-.8c1.7.6 3.5.9 5.2.7-.5 2-.8 4.1-.9 6.1-.1 1.5-.1 3.2.1 4.8-.3 0-.7 0-1 .1-.8 0-1.7.1-2.5.3 0-.7-.1-1.4-.3-2-1-2.6-3.9-3.3-6.2-2.3-.1 0 0 .2.1.2 2.3-.7 4.8 0 5.7 2.4.2.6.3 1.2.3 1.9v.2c-.1 1.8-1 3.8-2.8 4.2-2 .5-4.9-.6-5.6-2.7-.8-2.1.2-4.9 2.2-5.9.1-.1 0-.2-.1-.2-2.5.7-3.3 4.4-2.5 6.6.9 2.3 4.1 3.4 6.4 2.7 1.8-.6 2.8-2.6 2.9-4.5.9 0 1.8-.1 2.7-.2h.9c.1.6.2 1.1.4 1.7-1.2.7-2.3 1.8-3.1 2.6-1.1 1-2.7 2.5-3.2 4.1 0-.5-.1-1.1-.2-1.6l-.2-.4-.4.1zm.3 6.1c0 1.8-.2 3.3-.6 5-3.1 1.4-6.4 2.4-10 2.6-2.6.2-5.1-.1-7.7-.6-1.9-.3-3.8-.6-5.4-1.7-.6-3.3 0-6.9 1-10.1 1.2.6 2.6.8 4 1 1.2.1 2.4.2 3.7.2 0 .1.2.1.2 0h3.2c3.8-.1 7.7-.6 11.2-2 .3 1.9.4 3.8.4 5.6m-28-19.5c.2-1.6.4-3.3.8-4.8.7-2.7 1.7-5.2 3.9-6.8l.4-.3-.1-.5c-.2-1.6-.3-3.2.5-4.7.9-1.6 2.3-2.7 3.9-3.4 3.3-1.4 7.2-1.6 10.8-1.3 3.5.3 7 1.2 10.2 2.7 3.2 1.5 6.3 3.5 8.4 6.4.6.9 1.1 1.9 1.5 2.9l.3 1.2c.1.3.2.7.1 1-.1.4-.5 1-.9 1.2-.5.2-1.3-.1-1.8-.2h-.2l-.7-.1c-.2 0-.5-.1-.7-.2l1.2.8c.9 1.1 1.6 2.3 2.2 3.7.1.4.3.8.4 1.2.1.3.4 1.2.3 1.5-.2.5-.7.4-1.3 0l-.3-.2-.1.6c-.1.9-.2 1.8-.3 2.6-.2 1-.4 2.1-.3 3.1-.9.3-1.6 1-2.2 1.8-.3 0-.5.1-.8.2-.1-.5-.2-1-.2-1.5.4 0 .8-.1 1.2-.2.1 0 .1-.2 0-.3-.4-.1-.8-.1-1.2-.1-.2-1.6-.3-3.3-.2-5 .1-2 .5-4 .9-6l.1-.6-.7.2c-1.1.2-2.2.2-3.3 0-.9-.2-1.7-.5-2.5-.9l-1.4-.8 1.1 1.3c.3.6.3 1.3-.2 1.9-1.3 1.4-4 .7-5.6.3-2.3-.6-4.4-1.7-6.2-3.1l-.9-.7.4 1.1c.2.9.1 1.8-.9 2-.9.2-1.9.1-2.7-.1-2.8-.6-4.7-2.7-5.6-5.2l-.2-.5-.3.3c-1.7 1.7-2.6 4.1-3.5 6.2-1 2.5-1.8 5.2-2.1 7.9h-.7c-.1 0-.1.1 0 .2.2.1.4.2.7.3 0 .3 0 .6-.1.9-.4-.5-.8-1.2-1.3-1.5.1-1.5.1-3 .2-4.5m0 15.3v-.6c0-.4 0-.8-.1-1.2 0-.1-.2-.1-.2 0 0 .4-.1.9-.1 1.3-1.7.5-2.3-2.3-2.4-3.6-.1-1.2 0-2.5.4-3.7.2-.6.4-1.2.8-1.8.2-.4.3-.6.8-.7.5-.1.6.1.9.5.4.4.7.9 1 1.3 0 .1.1.2.1.2.3.4.5.9.7 1.4.4 1 .7 2 1.1 3 .5 1.4 1 3 1.8 4.2-.3 1.2-.6 2.4-.7 3.6-.1.7-.2 1.4-.2 2.2-.6-.9-1.3-1.7-2-2.5-.7-1-1.3-1.9-1.7-3.1-.1-.1-.1-.3-.2-.5m9.3 14.1c-2.3-.4-5.1-.8-6.5-2.9-1.8-2.7-2.3-5.8-2.6-9 .2.5.5 1 .8 1.4.8 1.1 1.7 2.3 2.7 3.2 0 .8 0 1.5.1 2.3l.1.6.6.5c1.2.8 2.7 1.1 4.1 1.4 2.7.5 5.5.9 8.3.8 3.5-.1 7.1-.9 10.3-2.5l.7-.4.2-.7c.2-.8.3-1.7.3-2.6 1.1.2 2.3-.4 3.3-.9.8-.4 1.6-.9 2.2-1.6-.2.7-.5 1.4-.8 2.1-.8 1.7-2 3.3-3.4 4.5-2.4 2-5.4 3.3-8.5 3.9l-.4.1c-.7.1-1.3.2-2 .3-.1 0-.2.2 0 .3.7.1 1.3.1 2 0-.1 2.1 0 4.1 0 6.2-.7.9-1.5 1.7-2.8 1.8-1.3.1-2.1-.6-3-1.4 0-2.1.2-4.3.2-6.4.4-.1.8-.1 1.2-.2.2 0 .1-.2 0-.3-.4 0-.8-.1-1.2-.1h-.4c-1.7-.1-3.6-.1-5.5-.4m3.8 3.9l.1-.1c.5-.6 1-1.2 1.6-1.3-.3 3.4-.3 6.9.1 10.2.3 2.7 1.1 5 2.3 7.3-3 .7-5.5-1.6-7-4.1.3-.6.6-1.3 1-1.9.4-.6.8-1.1 1.3-1.7l.3-.5-.3-.2-.9-.6c-.6-.3-1.2-.7-1.9-1 .4-1 .9-1.9 1.4-2.8.4-.7.9-1.5 1.4-2.2 0-.3.3-.7.6-1.1m-15.8 36.7c-3.9-3.4-2.6-9.1-1.4-13.4 1.3-4.6 3.2-8.9 5.6-13 2.5-4.2 5.7-9.2 10.9-10.1-.4.5-.8 1.1-1.2 1.6-.8 1.3-1.6 2.7-2.2 4.1l-.2.5.5.3c.6.3 1.1.6 1.7.9.3.2.7.4 1 .6-.8 1-1.6 2-2.2 3.1l-.3.5.4.8c1.5 2.7 4.7 5 7.6 4v.1c-.1.9 0 1.9 0 2.8 0 1.1-.1 2.2 0 3.2 0 .1.2.1.2 0 .4-1 .4-2.2.4-3.2s0-2-.2-2.9c2.7-.5 5.8-1.8 7.5-4.1l.3-.5-.3-.3c-.3-.3-.6-.6-.9-.8-.5-.4-1-.9-1.5-1.3 1-.5 1.9-1.2 2.6-1.9.4-.3.7-.7 1-1.1l.3-.5-.2-.6c-.4-1.2-.9-2.3-1.4-3.4 3.2 1 5.4 4.1 6.5 7.3 1.5 4.1 2.3 8.5 2.8 12.8.5 4.3.8 8.7-.2 12.9-.4 1.5-1 2.8-2 3.7l-.5.3c-.4.2-.9.4-1.4.5-2.1.4-4.2-.4-6.2-1.2-2.3-.9-4.7-1.9-7-2.9-.8-.4-1.6-.8-2.3-1.2l.1-.1c2-1.3 3.7-2.7 5.7-4 .7.1 1.5.1 2.2.2h.6c.9.1 1.8.1 2.7.2.9.1 1.8.2 2.8.3l.7.1v-.6c.1-2 .1-3.9.1-5.8 0-4.6 0-9.2-.4-13.7 0-.2-.3-.2-.3 0 0 4.5.1 9 .1 13.5 0 2-.1 4-.2 6-.8-.1-1.6-.1-2.3-.2-.3 0-.6-.1-.9-.1 0-1.6 0-3.4-1.1-4.7-1.2-1.5-2.8-1.3-4.5-1.6-.2-.3-.5-.6-.7-.9l-.4-.5-.5.1c-1.3.3-2.5.6-3.8 1h-.1c-1.5.4-3 .9-4.5 1.4-.2.1-.4.1-.7.2.2-.5.3-1.1.4-1.6.2-.9 0-1.8-.4-2.7-1-1.9-3.4-3-5.3-3.7.5-2.7 1.2-5.3 2-8 0-.1-.1-.2-.2-.1-1.1 2.5-1.8 5.1-2.3 7.8-1.1-.4-3.9-1.7-3.4.6.2.9 1 1.5 1.8 1.9-.3.2-.6.5-.9.8-.3.4-.7.9-.9 1.4-.2.1-.3.2-.5.3-.5.4-1.1 1.1-1.1 1.8 0 .1 0 .3.1.4-.5.6-.7 1.4-.8 2.1 0 .3-.1.6.1.8.2.2.5.3.8.2.3.7 1.4.9 2.5.9-1.4.6-2.7 1.2-4 1.8-.1.1 0 .3.1.3 3.7-1.3 7.3-2.9 11.1-4.2l.6-.2c.4-.1.8-.3 1.2-.4 1.5-.5 3-.9 4.4-1.3.9 1 1.6 2.4 2 3.6.5 1.3.5 2.6.7 3.9-.4.3-.7.6-1.1.8-.7.5-1.4 1-2.2 1.5l-.6.4c-1 .6-2 1.1-3.1 1.6-3.2 1.4-7.8 3.2-11.4 2l-.5-.2c-.5-.1-1-.5-1.4-.9m19.8-9.8c-.3-.8-.9-2.2-1.8-2.9 1.1-.3 2.3-.6 3.4-.9.8 1.1 1.6 2.2 2.3 3.4.6 1.1 1.1 2.2 1.5 3.3-.4 0-.7-.1-1.1-.1.1-.1.2-.1.3-.2.2-.1 0-.3-.1-.3-.3.1-.7.2-1 .4l-1 .5c-.6.3-1.1.7-1.7 1.2.2-1.4-.2-3-.8-4.4m3.3-2.5c.2.1.4.1.7.2 1 .1 1.8.2 2.6.9 1.3 1.2 1.4 3 1.4 4.7-.6-.1-1.2-.1-1.8-.2-.7-2-1.7-3.9-2.9-5.6m-20.9 2.1c.1-.5.8-1 1.2-1.3 1.5-.9 3.3-.9 4.9-1.7.1-.1 0-.2-.1-.2-1.3 0-2.8.4-4.1.9-.4.2-.8.3-1.1.6-.4-.2-1.1-.6-1.1-1.2 0-.4.7-1 1-1.1.1 0 .1-.1.2-.1.6-.3 1.3-.4 2-.5 1.6-.3 3.2-.3 4.8-.8.1-.1.1-.2 0-.3-.6-.1-1.1 0-1.7 0-1.1-.8-2.5-1.1-3.7-1.9-.4-.3-1.7-1.6-.7-2 .2-.1.9.3 1.1.3 1 .3 2 .7 3 1.2 1.7.8 3.7 1.8 4.2 3.8.3 1.1-.1 2.2-.5 3.3-2 .6-4 1.3-5.9 2.1-.7-.1-1.4-.1-2.1-.1-.8-.1-1.6-.1-1.4-1m-.5-.3c-.1.2-.2.4-.2.6-.2-.1-.3-.1-.4-.4 0-.2.1-.7.2-.9.1-.3.2-.7.4-1 .2.2.6.4.9.5-.4.4-.7.7-.9 1.2m2-4.8c.1-.1.1-.2.2-.3.3-.4.8-1.1 1.3-1.2h.1c.6.3 1.3.6 1.9.9-.5.1-1.1.2-1.6.2-.6.2-1.3.2-1.9.4m.6 86.5c-.1.7-.4 1.3-.6 1.9-1.9.3-3.7.6-5.6.8-1.5.1-3.1.2-4.6.2-1.4 0-2.8-.2-4.2-.1-.6-.2-.7-.5-.6-.9 2.2.4 4.6.2 6.8 0s4.8-.2 6.9-.9c.1 0 .1-.2 0-.2-2.2-.1-4.6.4-6.9.6-2.2.2-4.4.1-6.7.2.4-.7 1.6-1.5 2-1.8 1-.6 2-1.1 3-1.6s2.1-.9 3.2-1.3c.6-.2 1.2-.3 1.8-.5v.1c.7.6 1.9 1.2 2.8 1.5.8.3 1.9.4 2.7.2.1.5.1 1.1 0 1.8m.1-2.4c-1.1-.1-2.1-.1-3.2-.5-.7-.3-1.3-.7-2-.8.2-.1.4-.1.5-.2.6.3 1.3.5 2 .6.9.1 1.8 0 2.7-.3v1.2m1.6-8.1c-.2 1.9-.5 3.7-.6 5.6-1.1.6-2.2 1-3.6.9-1.3-.1-2.4-.7-3.4-1.4.2-2.3.3-4.7.5-7 .2-2.6.5-5.2.8-7.8 2 .9 3.9 1.7 6 2.4.4.1.9.3 1.3.4-.4 2.3-.7 4.6-1 6.9m19.7-7.1c-1.2.3-2.3.5-3.5.7l-2.7.3c0-.3-.1-.5-.1-.8-.7-4.2-1.2-8.5-1.7-12.7 0-.4-.6-.4-.6 0-.4 3.1-.8 6.2-1.3 9.4l-.6 4.2c-2.5-.1-5.1-.6-7.6-1.3l-.6-.2c-2.5-.8-5-1.8-7.3-2.9l-.4-.2c-.3-.1-.6-.3-1-.4.1-3.8.3-7.6.5-11.4.5-8.5 1.1-17 1.9-25.5.3-3.7.8-7.4 1.1-11.1 2.5.7 5.4.2 8-.7 2.4-.8 4.8-1.8 7-3.1.6.4 1.3.7 2 1.1 2.2 1 4.4 1.9 6.6 2.8 2.6 1 6.4 2.6 9.1 1.2.7 3 1.1 6.1 1.4 9.2.5 4.3.9 8.7 1.3 13.1.7 8 1.1 16 1.5 24-1.1.4-2.3.9-3.4 1.3l-1.8.6-.4.1c-2.4.8-4.8 1.6-7.3 2.1l-.1.2zm2.5 13c-.2-1.9-.6-3.9-.8-5.8-.3-2.2-.6-4.4-1.1-6.5 2.4-.6 4.8-1.3 7.2-2.1.2 2.4.3 4.8.5 7.2.2 1.9.3 3.8.5 5.8-.7.5-1.5.9-2.4 1.2-1.3.3-2.6.4-3.9.2m.3.5c1.8.2 3.6-.1 5.2-.8.2 0 .3.1.5.1-.8.3-1.6.9-2.4 1.3-.2.1-2.2.9-2.9 1.1-.1-.6-.2-1.2-.4-1.7m14.5 5.5c-1.1-.2-2.2-.1-3.3-.1-1.3-.1-2.7-.1-4.1-.1-2.1-.1-4.3-.2-6.4-.3 0-.1 0-.2-.1-.4l-.3-2.4c1.9-.1 4.5-1.1 5.5-2.6v-.1c1.9.5 3.8 1 5.8 1.6 1 .3 2.1.5 3.1 1s1.3 1.5 1.1 2.2c-2.3-.1-4.6 0-6.9-.1-2.4-.1-4.7-.3-7.1-.3-.1 0-.1.2 0 .2 2.3.4 4.6.5 6.9.6 2.3.1 4.6.2 6.9.1-.2.3-.6.6-1.1.7"/><path class="qst10" d="M41.8 120.8c0-.1-.2-.2-.2 0-.8 3-.8 6.3-.8 9.4 0 3.2.2 6.5.2 9.7 0 3.2-.2 6.4-.5 9.6-.3 3.3-.9 6.5-1 9.8 0 .1.2.2.3 0 .7-3.1.8-6.3 1.2-9.4.3-3.2.6-6.4.7-9.6 0-3.2-.1-6.5-.2-9.7-.2-3.3 0-6.5.3-9.8m14.8 25.4c-1.7-.4-3.5-.5-5.3-.6s-3.6-.2-5.3.2c-.2 0-.1.2 0 .2 1.7.2 3.5.1 5.2.2 1.7.1 3.5.4 5.2.5.5 0 .5-.4.2-.5m.2 5.7c0-1.6 0-3.2-.2-4.8 0-.2-.3-.2-.3 0-.2 2.3 0 4.6 0 6.8 0 2.3-1.3 3.9-3.7 4-5.5.3-5.3-7-5.6-10.8 0-.2-.4-.3-.4 0 0 4.2.1 11.8 6 11.5 1.8-.1 3.6-1.1 4.1-2.9.3-1.2.2-2.6.1-3.8m-24.3-7c-1.5-.2-3.2.3-4.7.5-.8.1-1.6.3-2.5.5-.7.1-1.7.2-2.3.6-.1.1-.1.1-.1.2v.1c0 .1.1.1.2.1h.1c.1 0 .1-.1.1-.2.1.2 4.2-.7 4.6-.7 1.5-.2 3.2-.2 4.6-.8.2 0 .2-.3 0-.3m.1 1c0-.3-.4-.2-.4 0-.3 2.2-.5 4.4-1 6.5-.4 1.9-1 4.6-3 5.4-1.2.5-2.4-.1-3.4-.6-.5-.3-1.2-.6-1.5-1.1-.3-.5-.2-1.1-.3-1.6-.1-2.1.2-4.2.3-6.4 0-.2-.3-.2-.3 0-.4 1.3-.4 2.8-.4 4.1 0 1.2-.1 2.5.1 3.7.2.9 1 1.4 1.8 1.8 1 .6 2.1 1.1 3.2 1 2.1-.3 3.1-2.3 3.6-4.1.9-2.8 1.4-5.8 1.3-8.7m6-22.5c-.1-.2-.3 0-.3.2.1.4.2.8 0 1.2-.1.4-.4.8-.8.7-.5-.1-.5-.7-.4-1.1.1-.4.3-.7.8-.7.1 0 .2-.1.1-.2-.4-.5-1.1-.1-1.3.3-.3.6-.4 1.6.2 2 .6.4 1.4.1 1.7-.4.5-.5.6-1.4 0-2m-.3 13.3c-.2-.2-.5.1-.4.3.2.5.1 1.1-.2 1.5-.2.4-1 1.2-1.3.4-.2-.9.8-1.7 1.4-2.1.1-.1 0-.3-.1-.2-.8.1-1.4.7-1.7 1.4-.3.6-.2 1.5.5 1.8.7.3 1.4-.3 1.8-.8.4-.8.5-1.6 0-2.3m.1 14.1c-.1-.1-.4.1-.3.2.2.4.1.8 0 1.2-.1.3-.2.6-.5.8-.2.2-.6.4-.7 0-.1-.4.2-.9.3-1.2.2-.4.5-.6.7-.9.1-.1 0-.2-.1-.2-.7.1-1.2 1-1.4 1.6-.2.5-.3 1.6.5 1.7.8.1 1.4-.6 1.7-1.2.2-.6.6-1.7-.2-2"/></g><path d="M90.8 2.2C88.1.8 85 0 82 0 71.5 0 63 8.5 63 19c0 5 1.9 9.7 5.4 13.3l-.8 5.7c-.1.4.2.8.6.9.2 0 .4 0 .5-.1l4.3-2.9c9.3 4.9 20.8 1.4 25.7-7.9s1.4-20.9-7.9-25.8z"/><g class="qst11"><path class="qst1" d="M76.8 26.3c0 1.2-.7 1.8-2 1.8-.2 0-.7-.2-1.4-.5-.1-.3-.2-.5-.2-.8 0-.5.1-.9.4-1 .2-.1.6-.2 1.1-.2 1.4-.1 2.1.1 2.1.7zm.8-15.2c-.1.1-.2.4-.4.7-.7 2.5-1.1 5.1-1.3 8.1 0 .1 0 .3-.1.5 0 .3-.1.5-.1.6 0 .2.1.9.4 1.9-.1.1-.2.2-.4.3h-.4c-.2 0-.4 0-.6-.1-.2-.3-.3-1-.3-1.8V21l.7-8.9c0-.1-.1-.3-.2-.6s-.2-.5-.2-.6c.4-.3.8-.5 1.3-.5.8.1 1.2.3 1.6.7zm4.5 15.2c0 1.2-.7 1.8-2 1.8-.2 0-.7-.2-1.4-.5-.1-.3-.2-.5-.2-.8 0-.5.1-.9.4-1 .2-.1.6-.2 1.1-.2 1.5-.1 2.1.1 2.1.7zm.8-15.2c-.1.1-.2.4-.4.7-.7 2.5-1.1 5.1-1.3 8.1 0 .1 0 .3-.1.5 0 .3-.1.5-.1.6 0 .2.1.9.4 1.9-.1.1-.2.2-.4.3h-.4c-.2 0-.4 0-.6-.1-.2-.3-.3-1-.3-1.8V21l.7-8.9c0-.1-.1-.3-.2-.6s-.2-.5-.2-.6c.4-.3.8-.5 1.3-.5.8.1 1.2.3 1.6.7zm4.6 15.2c0 1.2-.7 1.8-2 1.8-.2 0-.7-.2-1.4-.5-.1-.3-.1-.6-.1-.9 0-.5.1-.9.4-1 .2-.1.6-.2 1.1-.2 1.3 0 2 .2 2 .8zm.8-15.2c-.1.1-.2.4-.4.7-.7 2.5-1.1 5.1-1.3 8.1 0 .1 0 .3-.1.5 0 .3-.1.5-.1.6 0 .2.1.9.4 1.9-.1.1-.2.2-.4.3H86c-.2 0-.4 0-.6-.1-.2-.3-.3-1-.3-1.8V21l.7-8.9c0-.1-.1-.3-.2-.6s-.2-.5-.2-.6c.4-.3.8-.5 1.3-.5.8.1 1.2.3 1.6.7z"/></g><path class="qst1" d="M90.8 2.2C88.1.8 85 0 82 0 71.5 0 63 8.5 63 19c0 5 1.9 9.7 5.4 13.3l-.8 5.7c-.1.4.2.8.6.9.2 0 .4 0 .5-.1l4.3-2.9c9.3 4.9 20.8 1.4 25.7-7.9s1.4-20.9-7.9-25.8zm3.6 29.1c-3.3 3.3-7.8 5.2-12.5 5.2-3 0-6-.8-8.6-2.2-.2-.1-.5-.1-.8 0l-3.4 2.2.7-4.3c0-.2-.1-.5-.2-.6-6.9-6.8-7-17.9-.2-24.8s17.9-7 24.8-.2c6.9 6.8 7 17.8.2 24.7z"/></svg></svg>