<?xml version="1.0" encoding="utf-8"?>
<!-- Generator: Adobe Illustrator 22.0.1, SVG Export Plug-In . SVG Version: 6.00 Build 0)  -->
<svg version="1.1" id="Layer_1" xmlns="http://www.w3.org/2000/svg" xmlns:xlink="http://www.w3.org/1999/xlink" x="0px" y="0px"
	 width="49.7px" height="44.4px" viewBox="0 0 49.7 44.4" style="enable-background:new 0 0 49.7 44.4;" xml:space="preserve">
<style type="text/css">
	.st0{fill:#FFFFFF;}
</style>
<g id="firefox" transform="translate(9796.9 962.339)">
	<path id="Path_2218" class="st0" d="M-9747.3-948.8l-0.6,3.7c0,0-0.8-6.8-1.8-9.4c-1.5-3.9-2.2-3.9-2.2-3.9c0.6,1.2,0.9,2.6,0.8,4
		c0,0-1.8-5-6.7-6.6c-5.4-1.8-8.3-1.3-8.6-1.2l0,0c0,0,5.9,1,7,2.5c-1.7,0-3.4,0.3-5,0.7c-0.1,0,9.2,1.2,11.1,10.4
		c0,0-1-2.1-2.3-2.5c0.8,3.2,0.7,6.5-0.2,9.7c-0.1,0.3-0.2-1.3-1.8-2c0.5,3.6,0,9.2-2.5,10.8c-0.2,0.1,1.5-5.6,0.4-3.4
		c-6.9,10.6-15.1,4.9-18.7,2.4c2.4,0.4,4.9-0.1,7-1.2l0,0c1.7-1.2,2.7-2,3.6-1.8c0.9,0.2,1.5-0.7,0.8-1.5c-1.2-1.3-3.1-1.8-4.8-1.3
		c-1.6,0.4-3.7,2.3-6.8,0.4c-2.4-1.4-2.6-2.6-2.6-3.4c0.1-0.3,0.1-0.5,0.2-0.8c0.3-0.8,1.1-1,1.6-1.2c0.8,0.1,1.5,0.4,2.2,0.7v-0.9
		c0.1-0.3,0-0.7-0.1-1c-0.1-0.5-0.2-1-0.3-1.5l0,0c0-0.2,0.6-0.7,1.2-1.1c0.6-0.4,1.3-0.9,1.8-1.2s0.9-0.5,0.9-0.6l0.1-0.1l0,0
		c0.4-0.3,0.7-0.9,0.7-1.4l0,0v-0.2l0,0v-0.1l0,0v-0.4l0,0c-0.1-0.2-0.4-0.3-1.7-0.3h-2.2c-1.6,0-2.5-1.6-2.8-2.2
		c0.3-2,1.6-3.8,3.4-4.7l0,0c0.4-0.2-4.4,0-6.5,2.8c-1.7-0.4-3.4-0.5-5.1-0.1c-0.3,0-0.7-0.1-1-0.1c-1.3-1.1-2.2-2.7-2.4-4.4l0,0
		v-0.1c0,0-2.9,2.3-2.5,8.4v0.3c-0.5,0.7-0.9,1.4-1.2,2.2c-1,2.2-1.7,4.5-2,6.9c0.3-0.9,0.7-1.9,1.2-2.7c-0.8,2.9-1.1,6-0.8,9
		c0,0,0.1-1,0.3-2.3c0.4,3.5,1.5,6.8,3.3,9.8c3.6,6.8,10.5,11.2,18.2,11.7c1.3,0.1,2.6,0.1,3.9,0h0.4c1.5-0.1,3-0.3,4.5-0.7
		C-9745.1-924-9747.3-948.8-9747.3-948.8z"/>
</g>
</svg>
