<svg xmlns="http://www.w3.org/2000/svg" viewBox="7866.496 2796.09 87.511 23.145">
  <defs>
    <style>
      .cls-1 {
        fill: #fff;
      }
    </style>
  </defs>
  <g id="ros_logo" transform="translate(7866.496 2796.09)">
    <path id="Path_826" data-name="Path 826" class="cls-1" d="M4.951,3.868A2.518,2.518,0,0,1,2.475,6.426,2.518,2.518,0,0,1,0,3.868,2.518,2.518,0,0,1,2.475,1.31,2.518,2.518,0,0,1,4.951,3.868Z" transform="translate(0 -1.013)"/>
    <path id="Path_827" data-name="Path 827" class="cls-1" d="M4.951,42.326a2.518,2.518,0,0,1-2.476,2.558,2.56,2.56,0,0,1,0-5.116A2.518,2.518,0,0,1,4.951,42.326Z" transform="translate(0 -30.753)"/>
    <path id="Path_828" data-name="Path 828" class="cls-1" d="M4.951,80.784a2.518,2.518,0,0,1-2.476,2.558,2.56,2.56,0,0,1,0-5.116A2.518,2.518,0,0,1,4.951,80.784Z" transform="translate(0 -60.493)"/>
    <path id="Path_829" data-name="Path 829" class="cls-1" d="M43.057,42.326a2.477,2.477,0,1,1-2.476-2.558A2.518,2.518,0,0,1,43.057,42.326Z" transform="translate(-29.468 -30.753)"/>
    <path id="Path_830" data-name="Path 830" class="cls-1" d="M43.057,3.868a2.477,2.477,0,1,1-4.951,0,2.477,2.477,0,1,1,4.951,0Z" transform="translate(-29.468 -1.013)"/>
    <path id="Path_831" data-name="Path 831" class="cls-1" d="M81.164,42.326a2.477,2.477,0,1,1-2.476-2.558A2.518,2.518,0,0,1,81.164,42.326Z" transform="translate(-58.937 -30.753)"/>
    <path id="Path_832" data-name="Path 832" class="cls-1" d="M81.164,3.868a2.477,2.477,0,1,1-4.951,0,2.477,2.477,0,1,1,4.951,0Z" transform="translate(-58.937 -1.013)"/>
    <path id="Path_833" data-name="Path 833" class="cls-1" d="M81.164,80.784a2.477,2.477,0,1,1-2.476-2.558A2.518,2.518,0,0,1,81.164,80.784Z" transform="translate(-58.937 -60.493)"/>
    <path id="Path_834" data-name="Path 834" class="cls-1" d="M43.057,80.784a2.477,2.477,0,1,1-2.476-2.558A2.518,2.518,0,0,1,43.057,80.784Z" transform="translate(-29.468 -60.493)"/>
    <path id="Path_835" data-name="Path 835" class="cls-1" d="M141.327,14.827,145.762,24h-3.753l-4.312-8.88h-4.9V24h-3.2V1.555h9.523c3.784,0,6.979,2.084,6.979,6.7C146.1,11.846,144.274,14.057,141.327,14.827Zm-2.2-10.1H132.8v7.213h6.328c2.171,0,3.691-1.154,3.691-3.59A3.377,3.377,0,0,0,139.124,4.729Z" transform="translate(-100.223 -1.203)"/>
    <path id="Path_836" data-name="Path 836" class="cls-1" d="M141.327,14.827,145.762,24h-3.753l-4.312-8.88h-4.9V24h-3.2V1.555h9.523c3.784,0,6.979,2.084,6.979,6.7C146.1,11.846,144.274,14.057,141.327,14.827Zm-2.2-10.1H132.8v7.213h6.328c2.171,0,3.691-1.154,3.691-3.59A3.377,3.377,0,0,0,139.124,4.729Z" transform="translate(-100.223 -1.203)"/>
    <path id="Path_837" data-name="Path 837" class="cls-1" d="M141.327,14.827,145.762,24h-3.753l-4.312-8.88h-4.9V24h-3.2V1.555h9.523c3.784,0,6.979,2.084,6.979,6.7C146.1,11.846,144.274,14.057,141.327,14.827Zm-2.2-10.1H132.8v7.213h6.328c2.171,0,3.691-1.154,3.691-3.59A3.377,3.377,0,0,0,139.124,4.729Z" transform="translate(-100.223 -1.203)"/>
    <path id="Path_838" data-name="Path 838" class="cls-1" d="M229.239,23.145c-5.615,0-9.182-4.777-9.182-11.573S223.625,0,229.239,0c5.646,0,9.213,4.776,9.213,11.573S234.885,23.145,229.239,23.145Zm0-19.779c-3.784,0-5.862,3.174-5.862,8.207s2.078,8.207,5.862,8.207c3.816,0,5.894-3.174,5.894-8.207S233.055,3.366,229.239,3.366Z" transform="translate(-170.174 0)"/>
    <path id="Path_839" data-name="Path 839" class="cls-1" d="M229.239,23.145c-5.615,0-9.182-4.777-9.182-11.573S223.625,0,229.239,0c5.646,0,9.213,4.776,9.213,11.573S234.885,23.145,229.239,23.145Zm0-19.779c-3.784,0-5.862,3.174-5.862,8.207s2.078,8.207,5.862,8.207c3.816,0,5.894-3.174,5.894-8.207S233.055,3.366,229.239,3.366Z" transform="translate(-170.174 0)"/>
    <path id="Path_840" data-name="Path 840" class="cls-1" d="M229.239,23.145c-5.615,0-9.182-4.777-9.182-11.573S223.625,0,229.239,0c5.646,0,9.213,4.776,9.213,11.573S234.885,23.145,229.239,23.145Zm0-19.779c-3.784,0-5.862,3.174-5.862,8.207s2.078,8.207,5.862,8.207c3.816,0,5.894-3.174,5.894-8.207S233.055,3.366,229.239,3.366Z" transform="translate(-170.174 0)"/>
    <path id="Path_841" data-name="Path 841" class="cls-1" d="M324.258,23.145a9.921,9.921,0,0,1-7.724-3.622l2.327-2.34a7.826,7.826,0,0,0,5.645,2.661c3.04,0,4.5-1.09,4.5-3.27,0-1.731-1.272-2.6-4.9-3.719-4.591-1.41-6.793-2.6-6.793-6.6,0-3.879,3.164-6.251,7.165-6.251a9.575,9.575,0,0,1,7.1,3.046l-2.3,2.4A6.472,6.472,0,0,0,324.227,3.3c-2.544,0-3.63,1.282-3.63,2.789,0,1.571.993,2.34,4.746,3.494,4.28,1.347,6.948,2.757,6.948,6.764C332.292,20.388,329.81,23.145,324.258,23.145Z" transform="translate(-244.781)"/>
    <path id="Path_842" data-name="Path 842" class="cls-1" d="M324.258,23.145a9.921,9.921,0,0,1-7.724-3.622l2.327-2.34a7.826,7.826,0,0,0,5.645,2.661c3.04,0,4.5-1.09,4.5-3.27,0-1.731-1.272-2.6-4.9-3.719-4.591-1.41-6.793-2.6-6.793-6.6,0-3.879,3.164-6.251,7.165-6.251a9.575,9.575,0,0,1,7.1,3.046l-2.3,2.4A6.472,6.472,0,0,0,324.227,3.3c-2.544,0-3.63,1.282-3.63,2.789,0,1.571.993,2.34,4.746,3.494,4.28,1.347,6.948,2.757,6.948,6.764C332.292,20.388,329.81,23.145,324.258,23.145Z" transform="translate(-244.781)"/>
    <path id="Path_843" data-name="Path 843" class="cls-1" d="M324.258,23.145a9.921,9.921,0,0,1-7.724-3.622l2.327-2.34a7.826,7.826,0,0,0,5.645,2.661c3.04,0,4.5-1.09,4.5-3.27,0-1.731-1.272-2.6-4.9-3.719-4.591-1.41-6.793-2.6-6.793-6.6,0-3.879,3.164-6.251,7.165-6.251a9.575,9.575,0,0,1,7.1,3.046l-2.3,2.4A6.472,6.472,0,0,0,324.227,3.3c-2.544,0-3.63,1.282-3.63,2.789,0,1.571.993,2.34,4.746,3.494,4.28,1.347,6.948,2.757,6.948,6.764C332.292,20.388,329.81,23.145,324.258,23.145Z" transform="translate(-244.781)"/>
  </g>
</svg>
