<?xml version="1.0" encoding="utf-8"?>
<!-- Generator: Adobe Illustrator 22.0.1, SVG Export Plug-In . SVG Version: 6.00 Build 0)  -->
<svg version="1.1" id="Layer_1" xmlns="http://www.w3.org/2000/svg" xmlns:xlink="http://www.w3.org/1999/xlink" x="0px" y="0px"
	 width="524.7px" height="74.3px" viewBox="0 0 524.7 74.3" style="enable-background:new 0 0 524.7 74.3;" xml:space="preserve">
<style type="text/css">
	.st0{fill:none;}
	.st1{fill:#6D8CAD;}
	.st2{enable-background:new    ;}
</style>
<g>
	<rect class="st0" width="524.7" height="74.3"/>
	<g id="Group_62" transform="translate(1809 1624)">
		<g id="Group_61" transform="translate(-15 1443)">
			<g id="Group_55" transform="translate(-22 11)">
				<g id="Ellipse_16">
					<circle class="st1" cx="-1421.5" cy="-3064.9" r="2.3"/>
				</g>
				<g id="Ellipse_17">
					<circle class="st1" cx="-1455.2" cy="-3006.7" r="2.3"/>
				</g>
				<g id="Ellipse_18">
					<circle class="st1" cx="-1388.1" cy="-3006.7" r="2.3"/>
				</g>
				<g id="Path_18">
					<path class="st1" d="M-1388.1-3006.4h-67c-0.2,0-0.4,0-0.4-0.2s0-0.4,0-0.4l33.7-58.1c0-0.2,0.2-0.2,0.4-0.2l0,0
						c0.2,0,0.4,0,0.4,0.2l33.5,58c0,0.2,0,0.4,0,0.4C-1387.9-3006.4-1387.9-3006.4-1388.1-3006.4z M-1454.3-3007.3h65.5l-32.8-56.7
						L-1454.3-3007.3z"/>
				</g>
				<g id="Path_19">
					<path class="st1" d="M-1405.3-3016.4h-31.9c-0.2,0-0.4-0.2-0.4-0.4s0-0.4,0.2-0.5l16-8.5c0.2,0,0.4,0,0.4,0l16,8.5
						c0.2,0.2,0.4,0.4,0.2,0.5C-1405-3016.6-1405.2-3016.4-1405.3-3016.4z M-1435.4-3017.3h28.3l-14-7.4L-1435.4-3017.3z"/>
				</g>
				<g id="Path_20">
					<path class="st1" d="M-1437.2-3016.4c-0.2,0-0.2,0-0.4-0.2c-0.2-0.2-0.2-0.4,0-0.5l16-27.5c0.2-0.2,0.4-0.2,0.5-0.2
						s0.4,0.2,0.4,0.4v19.3c0,0.2-0.2,0.4-0.2,0.4l-16,8.5C-1437-3016.6-1437-3016.4-1437.2-3016.4z M-1421.7-3042.9l-14.4,24.8
						l14.4-7.6V-3042.9z"/>
				</g>
				<g id="Path_21">
					<path class="st1" d="M-1405.3-3016.4h-0.2l-15.8-8.6c-0.2,0-0.2-0.2-0.2-0.4l-0.2-19.1c0-0.2,0.2-0.4,0.4-0.4
						c0.2,0,0.4,0,0.5,0.2l16,27.5c0.2,0.2,0,0.4,0,0.5C-1405-3016.6-1405.2-3016.4-1405.3-3016.4z M-1420.6-3025.8l14.2,7.7
						l-14.2-24.8V-3025.8z"/>
				</g>
			</g>
			<g id="Group_56" transform="translate(14 11)">
				<g id="Ellipse_19">
					<circle class="st1" cx="-1722.1" cy="-3066.7" r="2.3"/>
				</g>
				<g id="Ellipse_20">
					<circle class="st1" cx="-1755.8" cy="-3008.5" r="2.3"/>
				</g>
				<g id="Ellipse_21">
					<circle class="st1" cx="-1688.7" cy="-3008.5" r="2.3"/>
				</g>
				<g id="Path_22">
					<path class="st1" d="M-1688.7-3008.2h-67c-0.2,0-0.4,0-0.4-0.2s0-0.4,0-0.4l33.5-58.1c0-0.2,0.2-0.2,0.4-0.2l0,0
						c0.2,0,0.4,0,0.4,0.2l33.5,58c0,0.2,0,0.4,0,0.4S-1688.5-3008.2-1688.7-3008.2z M-1754.9-3009.1h65.5l-32.8-56.7
						L-1754.9-3009.1z"/>
				</g>
				<g id="Path_23">
					<path class="st1" d="M-1705.9-3018.2h-31.9c-0.2,0-0.4-0.2-0.4-0.4s0-0.4,0.2-0.5l15.8-8.5c0.2,0,0.4,0,0.4,0l16,8.5
						c0.2,0.2,0.4,0.4,0.2,0.5C-1705.6-3018.4-1705.8-3018.2-1705.9-3018.2z M-1736-3019.1h28.3l-14-7.4L-1736-3019.1z"/>
				</g>
				<g id="Path_24">
					<path class="st1" d="M-1737.8-3018.2c-0.2,0-0.2,0-0.4-0.2c-0.2-0.2-0.2-0.4,0-0.5l15.8-27.5c0.2-0.2,0.4-0.2,0.5-0.2
						s0.4,0.2,0.4,0.4v19.3c0,0.2-0.2,0.4-0.2,0.4l-15.8,8.5C-1737.6-3018.4-1737.6-3018.2-1737.8-3018.2z M-1722.3-3044.7
						l-14.4,24.8l14.4-7.6V-3044.7z"/>
				</g>
				<g id="Path_25">
					<path class="st1" d="M-1705.9-3018.2h-0.2l-15.8-8.6c-0.2,0-0.2-0.2-0.2-0.4l-0.2-19.1c0-0.2,0.2-0.4,0.4-0.4
						c0.2,0,0.4,0,0.5,0.2l16,27.5c0.2,0.2,0,0.4,0,0.5C-1705.6-3018.4-1705.8-3018.2-1705.9-3018.2z M-1721.2-3027.6l14.2,7.7
						l-14.2-24.8V-3027.6z"/>
				</g>
			</g>
			<g id="Group_58" transform="translate(-0.4)">
				<g id="Rectangle_52">
					<path class="st1" d="M-1309.4-2992.7h-41.6v-56.7h41.6V-2992.7z M-1350.1-2993.6h39.8v-54.9h-39.8V-2993.6z"/>
				</g>
				<g id="Rectangle_53">
					<path class="st1" d="M-1268.9-2992.7h-41.6v-36h41.6V-2992.7z M-1309.6-2993.6h39.8v-34.2h-39.8V-2993.6z"/>
				</g>
				<g id="Path_30">
					<path class="st1" d="M-1304.2-3048.5h-52.7l19.1-17.3h14.8l0.2,0.2L-1304.2-3048.5z M-1354.6-3049.4h48.1l-16.9-15.5h-14
						L-1354.6-3049.4z"/>
				</g>
				<g id="Rectangle_54">
					<path class="st1" d="M-1322.9-2992.7h-13v-16h13V-2992.7z M-1335.1-2993.6h11.2v-14.2h-11.2V-2993.6z"/>
				</g>
				<g id="Rectangle_55">
					<path class="st1" d="M-1283.3-2992.7h-13v-16h13V-2992.7z M-1295.5-2993.6h11.2v-14.2h-11.2V-2993.6z"/>
				</g>
				<g id="Rectangle_56">
					<path class="st1" d="M-1333.9-3016.1h-10.3v-9.2h10.3V-3016.1z M-1343.2-3017h8.5v-7.4h-8.5V-3017z"/>
				</g>
				<g id="Rectangle_57">
					<path class="st1" d="M-1315.2-3016.1h-10.3v-9.2h10.3V-3016.1z M-1324.5-3017h8.5v-7.4h-8.5V-3017z"/>
				</g>
				<g id="Rectangle_58">
					<path class="st1" d="M-1294.3-3016.1h-10.3v-9.2h10.3V-3016.1z M-1303.6-3017h8.5v-7.4h-8.5V-3017z"/>
				</g>
				<g id="Rectangle_59">
					<path class="st1" d="M-1275.6-3016.1h-10.3v-9.2h10.3V-3016.1z M-1284.9-3017h8.5v-7.4h-8.5V-3017z"/>
				</g>
				<g id="Rectangle_60">
					<path class="st1" d="M-1333.9-3030.5h-10.3v-9.4h10.3V-3030.5z M-1343.2-3031.4h8.5v-7.6h-8.5V-3031.4z"/>
				</g>
				<g id="Rectangle_61">
					<path class="st1" d="M-1315.2-3030.5h-10.3v-9.4h10.3V-3030.5z M-1324.5-3031.4h8.5v-7.6h-8.5V-3031.4z"/>
				</g>
				<g class="st2">
					<path class="st1" d="M-1298.1-3033.9h-0.9v-2.9h-3.2v2.9h-0.9v-6.3h0.9v2.7h3.2v-2.7h0.9V-3033.9z"/>
					<path class="st1" d="M-1291.8-3036.8c0,0.5-0.2,1.1-0.4,1.6c-0.2,0.5-0.5,0.9-0.9,1.1c-0.4,0.2-0.9,0.4-1.3,0.4
						c-0.5,0-0.9-0.2-1.3-0.4c-0.4-0.2-0.7-0.5-0.9-1.1c-0.2-0.5-0.4-0.9-0.4-1.6v-0.5c0-0.5,0.2-1.1,0.4-1.6
						c0.2-0.5,0.5-0.9,0.9-1.1c0.4-0.2,0.9-0.4,1.3-0.4c0.5,0,0.9,0.2,1.3,0.4c0.4,0.2,0.7,0.5,0.9,1.1c0.2,0.5,0.4,1.1,0.4,1.6
						V-3036.8z M-1292.5-3037.3c0-0.7-0.2-1.3-0.5-1.8c-0.4-0.4-0.7-0.5-1.3-0.5c-0.5,0-0.9,0.2-1.3,0.5c-0.4,0.4-0.5,0.9-0.5,1.6
						v0.5c0,0.7,0.2,1.3,0.5,1.8c0.4,0.5,0.7,0.5,1.3,0.5c0.5,0,0.9-0.2,1.3-0.5c0.4-0.4,0.5-0.9,0.5-1.6V-3037.3z"/>
					<path class="st1" d="M-1286-3040.2v4.3c0,0.5-0.2,1.1-0.5,1.4c-0.4,0.4-0.9,0.5-1.4,0.7h-0.2c-0.7,0-1.3-0.2-1.6-0.5
						c-0.4-0.4-0.5-0.9-0.7-1.6v-4.3h0.9v4.3c0,0.5,0.2,0.9,0.4,1.1c0.2,0.2,0.5,0.4,1.1,0.4s0.9-0.2,1.1-0.4s0.4-0.5,0.4-1.1v-4.3
						H-1286z"/>
					<path class="st1" d="M-1282.8-3036.8c-0.7-0.2-1.3-0.5-1.6-0.7c-0.4-0.4-0.5-0.7-0.5-1.1c0-0.5,0.2-0.9,0.5-1.3
						c0.4-0.4,0.9-0.5,1.6-0.5c0.4,0,0.9,0,1.1,0.2c0.4,0.2,0.5,0.4,0.7,0.7c0.2,0.4,0.4,0.5,0.4,0.9h-0.9c0-0.4-0.2-0.7-0.4-0.9
						c-0.2-0.2-0.5-0.4-1.1-0.4c-0.4,0-0.7,0.2-0.9,0.4s-0.4,0.4-0.4,0.7c0,0.2,0.2,0.5,0.4,0.7c0.2,0.2,0.5,0.4,1.1,0.5
						c0.5,0.2,0.9,0.4,1.3,0.5c0.4,0.2,0.5,0.4,0.7,0.5c0.2,0.2,0.2,0.5,0.2,0.9c0,0.5-0.2,0.9-0.5,1.3c-0.4,0.4-0.9,0.5-1.6,0.5
						c-0.4,0-0.9,0-1.3-0.2c-0.4-0.2-0.7-0.4-0.9-0.7c-0.2-0.4-0.4-0.5-0.4-1.1h0.9c0,0.4,0.2,0.7,0.4,0.9c0.2,0.2,0.7,0.4,1.1,0.4
						s0.7-0.2,1.1-0.4c0.2-0.2,0.4-0.4,0.4-0.7c0-0.4-0.2-0.5-0.4-0.7C-1281.7-3036.4-1282.2-3036.6-1282.8-3036.8z"/>
					<path class="st1" d="M-1275.7-3036.8h-2.7v2.3h3.2v0.7h-4v-6.3h4v0.7h-3.2v2h2.7V-3036.8z"/>
				</g>
				<g id="Rectangle_62">
					<path class="st1" d="M-1272.1-3027.9h-34.7v-17.1h34.7V-3027.9z M-1306-3028.8h32.9v-15.3h-32.9V-3028.8z"/>
				</g>
			</g>
			<g id="Group_60" transform="translate(-2.4)">
				<g id="Rectangle_74">
					<g>
						<path class="st1" d="M-1533.5-2992.7h-80.1v-34.2h80.1V-2992.7z M-1612.7-2993.6h78.3v-32.4h-78.3V-2993.6z"/>
					</g>
				</g>
				<g id="Rectangle_75">
					<g>
						<path class="st1" d="M-1528.4-3033.2h-90.4v-8.3h90.4V-3033.2z M-1617.9-3034.1h88.6v-6.5h-88.6V-3034.1z"/>
					</g>
				</g>
				<g id="Path_32">
					<g>
						<path class="st1" d="M-1533.5-3026.1h-80.1l-3.1-8.1h86.2L-1533.5-3026.1z M-1613-3027h79l2.3-6.3h-83.7L-1613-3027z"/>
					</g>
				</g>
				<g id="Rectangle_76">
					<g>
						<path class="st1" d="M-1563.9-2992.7h-17.8v-16h17.8V-2992.7z M-1580.8-2993.6h16v-14.2h-16V-2993.6z"/>
					</g>
				</g>
				<g id="Rectangle_77">
					<g>
						<path class="st1" d="M-1539.6-2992.7h-17.8v-16h17.8V-2992.7z M-1556.5-2993.6h16v-14.2h-16V-2993.6z"/>
					</g>
				</g>
				<g id="Rectangle_78">
					<g>
						<path class="st1" d="M-1588.2-2992.7h-17.8v-16h17.8V-2992.7z M-1605.1-2993.6h16v-14.2h-16V-2993.6z"/>
					</g>
				</g>
				<g id="Rectangle_79">
					<g>
						<path class="st1" d="M-1588.2-3011.6h-18v-9.2h18V-3011.6z M-1605.3-3012.5h16.2v-7.4h-16.2V-3012.5z"/>
					</g>
				</g>
				<g id="Rectangle_80">
					<g>
						<path class="st1" d="M-1563.9-3011.6h-18v-9.2h18V-3011.6z M-1581-3012.5h16.2v-7.4h-16.2V-3012.5z"/>
					</g>
				</g>
				<g id="Rectangle_81">
					<g>
						<path class="st1" d="M-1539.6-3011.6h-18v-9.2h18V-3011.6z M-1556.7-3012.5h16.2v-7.4h-16.2V-3012.5z"/>
					</g>
				</g>
				<g id="Stock">
					<g class="st2">
						<g>
							<path class="st1" d="M-1583.9-3048.1c-0.7-0.2-1.3-0.5-1.6-0.7c-0.4-0.2-0.5-0.7-0.5-1.1c0-0.5,0.2-0.9,0.5-1.3
								c0.4-0.4,0.9-0.5,1.6-0.5c0.4,0,0.9,0,1.1,0.2c0.4,0.2,0.5,0.4,0.7,0.7c0.2,0.4,0.4,0.5,0.4,0.9h-0.9c0-0.4-0.2-0.7-0.4-0.9
								c-0.2-0.2-0.5-0.4-1.1-0.4c-0.4,0-0.7,0.2-0.9,0.4s-0.4,0.4-0.4,0.7c0,0.2,0.2,0.5,0.4,0.7c0.2,0.2,0.5,0.4,1.1,0.5
								c0.5,0.2,0.9,0.4,1.3,0.5c0.4,0.2,0.5,0.4,0.7,0.5c0.2,0.2,0.2,0.5,0.2,0.9c0,0.5-0.2,0.9-0.5,1.3c-0.4,0.4-0.9,0.5-1.6,0.5
								c-0.4,0-0.9,0-1.3-0.2s-0.7-0.4-0.9-0.7c-0.2-0.4-0.4-0.5-0.4-1.1h0.9c0,0.4,0.2,0.7,0.4,0.9c0.4,0.2,0.7,0.4,1.1,0.4
								s0.7-0.2,1.1-0.4c0.2-0.2,0.4-0.4,0.4-0.7c0-0.4-0.2-0.5-0.4-0.7C-1583-3047.7-1583.3-3047.9-1583.9-3048.1z"/>
						</g>
						<g>
							<path class="st1" d="M-1576.1-3051h-2v5.8h-0.9v-5.8h-2v-0.7h4.9L-1576.1-3051L-1576.1-3051z"/>
						</g>
						<g>
							<path class="st1" d="M-1570.4-3048.3c0,0.5-0.2,1.1-0.4,1.6c-0.2,0.5-0.5,0.9-0.9,1.1s-0.9,0.4-1.3,0.4
								c-0.5,0-0.9-0.2-1.3-0.4c-0.4-0.2-0.7-0.5-0.9-1.1c-0.2-0.5-0.4-0.9-0.4-1.6v-0.5c0-0.5,0.2-1.1,0.4-1.6
								c0.2-0.5,0.5-0.9,0.9-1.1c0.4-0.2,0.9-0.4,1.3-0.4c0.5,0,0.9,0.2,1.3,0.4s0.7,0.5,0.9,1.1c0.2,0.5,0.4,1.1,0.4,1.6V-3048.3z
								 M-1571.3-3048.6c0-0.7-0.2-1.3-0.5-1.8s-0.7-0.5-1.3-0.5c-0.5,0-0.9,0.2-1.3,0.5c-0.4,0.4-0.5,0.9-0.5,1.6v0.5
								c0,0.7,0.2,1.3,0.5,1.8c0.4,0.4,0.7,0.5,1.3,0.5c0.5,0,0.9-0.2,1.3-0.5c0.4-0.4,0.4-0.9,0.5-1.6V-3048.6z"/>
						</g>
						<g>
							<path class="st1" d="M-1564.4-3047.2c0,0.7-0.4,1.3-0.7,1.6c-0.4,0.4-0.9,0.5-1.6,0.5c-0.7,0-1.4-0.2-1.8-0.7
								c-0.5-0.5-0.7-1.3-0.7-2.2v-0.5c0-0.5,0.2-1.1,0.4-1.6c0.2-0.4,0.5-0.7,0.9-1.1c0.4-0.2,0.9-0.4,1.3-0.4
								c0.7,0,1.3,0.2,1.6,0.5c0.4,0.4,0.7,0.9,0.7,1.6h-0.9c0-0.5-0.2-0.9-0.5-1.1c-0.2-0.2-0.5-0.4-1.1-0.4
								c-0.5,0-0.9,0.2-1.3,0.5c-0.4,0.4-0.5,0.9-0.5,1.6v0.5c0,0.7,0.2,1.3,0.4,1.6c0.4,0.4,0.7,0.5,1.3,0.5c0.5,0,0.9-0.2,1.1-0.4
								s0.4-0.5,0.5-1.1L-1564.4-3047.2L-1564.4-3047.2z"/>
						</g>
						<g>
							<path class="st1" d="M-1561.7-3048.1l-0.7,0.7v2.2h-0.9v-6.3h0.9v3.1l2.9-3.1h1.1l-2.5,2.9l2.7,3.6h-1.1L-1561.7-3048.1z"/>
						</g>
					</g>
				</g>
				<g id="Rectangle_82">
					<g>
						<path class="st1" d="M-1549.1-3040.7h-48.2v-16.9h48.2V-3040.7z M-1596.5-3041.6h46.4v-15.1h-46.4V-3041.6z"/>
					</g>
				</g>
			</g>
		</g>
	</g>
</g>
</svg>
