<?xml version="1.0" encoding="utf-8"?><svg width="49.7" height="133" viewBox="0 0 49.7 133" xmlns="http://www.w3.org/2000/svg" xmlns:xlink="http://www.w3.org/1999/xlink"><svg id="chrome" width="44" height="44" viewBox="0 0 44 44" xmlns="http://www.w3.org/2000/svg"><style>.aast0{fill:#fff}</style><g id="aachrome" transform="translate(1732.998 408.988)"><path id="aaXMLID_17_" class="aast0" d="M-1719.2-387c0 4.5 3.7 8.2 8.2 8.2s8.2-3.7 8.2-8.2c0-4.5-3.7-8.2-8.2-8.2-4.5 0-8.2 3.7-8.2 8.2z"/><path id="aaXMLID_18_" class="aast0" d="M-1692.1-397.8c.1-.1.1-.3 0-.4-6.2-10.5-19.7-13.9-30.2-7.7-2.3 1.4-4.3 3.1-6 5.2-.1.1-.1.3 0 .4l6.2 10.7c.1.1.2.2.3.2.1 0 .3-.1.3-.3 1.2-4.7 5.5-8 10.4-8h18.6c.3 0 .4 0 .4-.1z"/><path id="aaXMLID_19_" class="aast0" d="M-1707.7-376.5c-.1-.1-.2-.2-.4-.1-5 1.4-10.4-1-12.6-5.8l-8.8-15.3c-.1-.1-.2-.2-.3-.2-.1 0-.2.1-.3.2-6 10.6-2.2 24 8.4 30 2.3 1.3 4.9 2.2 7.5 2.6h.1c.1 0 .2-.1.3-.2l6.2-10.7c0-.3-.1-.4-.1-.5z"/><path id="aaXMLID_20_" class="aast0" d="M-1690.8-395.3h-12.4c-.2 0-.4.2-.4.4 0 .1 0 .2.1.3 3.7 3.7 4.3 9.5 1.3 13.7l-8.9 15.3c-.1.2 0 .4.1.5h.2c12.2-.1 21.9-10.1 21.8-22.3 0-2.7-.5-5.3-1.5-7.8-.1 0-.2 0-.3-.1z"/></g></svg><svg id="firefox" width="49.7" height="44.4" viewBox="0 0 49.7 44.4" y="44" xmlns="http://www.w3.org/2000/svg"><style>.abst0{fill:#fff}</style><g id="abfirefox" transform="translate(9796.9 962.339)"><path id="abPath_2218" class="abst0" d="M-9747.3-948.8l-.6 3.7s-.8-6.8-1.8-9.4c-1.5-3.9-2.2-3.9-2.2-3.9.6 1.2.9 2.6.8 4 0 0-1.8-5-6.7-6.6-5.4-1.8-8.3-1.3-8.6-1.2 0 0 5.9 1 7 2.5-1.7 0-3.4.3-5 .7-.1 0 9.2 1.2 11.1 10.4 0 0-1-2.1-2.3-2.5.8 3.2.7 6.5-.2 9.7-.1.3-.2-1.3-1.8-2 .5 3.6 0 9.2-2.5 10.8-.2.1 1.5-5.6.4-3.4-6.9 10.6-15.1 4.9-18.7 2.4 2.4.4 4.9-.1 7-1.2 1.7-1.2 2.7-2 3.6-1.8.9.2 1.5-.7.8-1.5-1.2-1.3-3.1-1.8-4.8-1.3-1.6.4-3.7 2.3-6.8.4-2.4-1.4-2.6-2.6-2.6-3.4.1-.3.1-.5.2-.8.3-.8 1.1-1 1.6-1.2.8.1 1.5.4 2.2.7v-.9c.1-.3 0-.7-.1-1l-.3-1.5c0-.2.6-.7 1.2-1.1.6-.4 1.3-.9 1.8-1.2s.9-.5.9-.6l.1-.1c.4-.3.7-.9.7-1.4v-.7c-.1-.2-.4-.3-1.7-.3h-2.2c-1.6 0-2.5-1.6-2.8-2.2.3-2 1.6-3.8 3.4-4.7.4-.2-4.4 0-6.5 2.8-1.7-.4-3.4-.5-5.1-.1-.3 0-.7-.1-1-.1-1.3-1.1-2.2-2.7-2.4-4.4v-.1s-2.9 2.3-2.5 8.4v.3c-.5.7-.9 1.4-1.2 2.2-1 2.2-1.7 4.5-2 6.9.3-.9.7-1.9 1.2-2.7-.8 2.9-1.1 6-.8 9 0 0 .1-1 .3-2.3.4 3.5 1.5 6.8 3.3 9.8 3.6 6.8 10.5 11.2 18.2 11.7 1.3.1 2.6.1 3.9 0h.4c1.5-.1 3-.3 4.5-.7 20.8-5.3 18.6-30.1 18.6-30.1z"/></g></svg><svg id="opera" width="43.9" height="44" viewBox="0 0 43.9 44" y="89" xmlns="http://www.w3.org/2000/svg"><style>.acst0{fill:#fff}</style><path id="acopera" class="acst0" d="M21.9 44h-1C8.8 43.4-.6 33 0 20.9.6 9.2 10.2 0 21.9 0h.1c5.4 0 10.6 2 14.6 5.6-2.6-1.8-5.7-2.7-8.8-2.7-5.2.1-10 2.5-13.1 6.7-2.7 3.4-4.1 7.6-4.1 11.9v1c0 4.3 1.4 8.5 4.1 11.9 3.1 4.2 7.9 6.6 13.1 6.7 3.1 0 6.2-.9 8.8-2.7-4 3.6-9.2 5.6-14.7 5.6zm15.7-6.5a14.2 14.2 0 0 1-13.7.5c5.6-1.2 9.9-7.9 9.9-16S29.5 7.1 23.9 6c2-1 4.1-1.5 6.3-1.5 2.6 0 5.1.7 7.3 2.1 8.6 8.5 8.6 22.3.1 30.9z"/></svg></svg>