<?xml version="1.0" encoding="utf-8"?><svg width="2724" height="153.86" viewBox="0 0 2724 153.86" xmlns="http://www.w3.org/2000/svg" xmlns:xlink="http://www.w3.org/1999/xlink"><svg viewBox="7739.251 2796.09 100.234 23.44" width="100.23" height="23.44" id="aira" xmlns="http://www.w3.org/2000/svg"><defs><style>.aacls-1{fill:#fff}</style></defs><g id="aaGroup_770" data-name="Group 770" transform="translate(7739.251 2796.09)"><path id="aaRectangle_378" data-name="Rectangle 378" class="aacls-1" transform="translate(11.385 11.832)" d="M0 0h.372v9.45H0z"/><path id="aaRectangle_379" data-name="Rectangle 379" class="aacls-1" transform="translate(21.133 2.158)" d="M0 0h.372v19.198H0z"/><path id="aaRectangle_380" data-name="Rectangle 380" class="aacls-1" transform="rotate(-45 26.572 8.198)" d="M0 0h27.086v.372H0z"/><path id="aaRectangle_381" data-name="Rectangle 381" class="aacls-1" transform="translate(2.158 21.133)" d="M0 0h19.198v.372H0z"/><path id="aaRectangle_382" data-name="Rectangle 382" class="aacls-1" transform="rotate(-44.21 31.762 -3.513)" d="M0 0h13.543v.372H0z"/><path id="aaPath_821" data-name="Path 821" class="aacls-1" d="M62.459 23.026c-.819-2.307-1.637-4.39-2.381-6.4-.744-1.935-1.488-3.8-2.158-5.581s-1.414-3.5-2.084-5.06-1.414-3.2-2.158-4.837L53.6 1h-3.2l-.074.223a136.02 136.02 0 0 0-2.158 4.762c-.67 1.637-1.414 3.349-2.084 5.06-.67 1.786-1.414 3.646-2.158 5.581s-1.488 4.093-2.381 6.4l-.145.374h3.8l2-5.434h9.45c.3.6.6 1.711.893 2.53.3.967.67 1.86 1.042 2.753l.074.149h3.944zm-6.92-8.111h-7.293a132.53 132.53 0 0 1 1.786-4.986c.6-1.488 1.191-2.976 1.786-4.316.6 1.414 1.191 2.9 1.786 4.39.669 1.564 1.339 3.126 1.934 4.912z" transform="translate(-10.593 -.256)"/><path id="aaRectangle_383" data-name="Rectangle 383" class="aacls-1" transform="translate(54.172 .744)" d="M0 0h3.646v22.398H0z"/><path id="aaPath_822" data-name="Path 822" class="aacls-1" d="M98.343 22.975a18.213 18.213 0 0 0-1.414-2.6c-.521-.893-1.116-1.786-1.637-2.6s-1.116-1.563-1.637-2.307c-.372-.521-.744-.967-1.042-1.339a7.052 7.052 0 0 0 3.125-2.232 6.144 6.144 0 0 0 1.191-3.869A6.29 6.29 0 0 0 94.4 2.586C92.762 1.4 90.306.8 87.181.8c-.893 0-1.86.074-2.9.074a14.371 14.371 0 0 0-2.679.446v22.027h3.646v-8.483h3.5c.372.446.819.967 1.265 1.563.521.67.967 1.339 1.488 2.084s.967 1.563 1.488 2.307a19.2 19.2 0 0 1 1.336 2.382l.074.149h4.018zM92.762 9.953a2.873 2.873 0 0 1-1.191 1.116 4.928 4.928 0 0 1-2.009.6c-.819.074-1.786.223-2.828.223H85.4V4.149a21.774 21.774 0 0 1 2.456-.074 19.658 19.658 0 0 1 2.158.149 5.8 5.8 0 0 1 1.711.6 2.873 2.873 0 0 1 1.116 1.191 3.625 3.625 0 0 1 .446 1.86 5.013 5.013 0 0 1-.525 2.078z" transform="translate(-20.879 -.205)"/><path id="aaPath_823" data-name="Path 823" class="aacls-1" d="M127.333 23.026c-.819-2.307-1.637-4.39-2.381-6.4-.744-1.935-1.488-3.869-2.158-5.581-.67-1.786-1.414-3.5-2.084-5.06s-1.414-3.2-2.158-4.837L118.4 1h-3.2l-.074.223a136.02 136.02 0 0 0-2.158 4.762c-.67 1.637-1.414 3.349-2.084 5.06s-1.414 3.646-2.158 5.581-1.488 4.093-2.381 6.4l-.149.372H110l2-5.432h9.45c.3.6.6 1.711.893 2.53.3.967.67 1.786 1.042 2.753l.074.149h3.944zm-6.92-8.111h-7.293a132.53 132.53 0 0 1 1.786-4.986c.6-1.488 1.191-2.976 1.786-4.316.6 1.414 1.191 2.9 1.786 4.39.67 1.564 1.265 3.126 1.935 4.912z" transform="translate(-27.174 -.256)"/><circle id="aaEllipse_212" data-name="Ellipse 212" class="aacls-1" cx="2.158" cy="2.158" r="2.158" transform="translate(19.124 19.124)"/><circle id="aaEllipse_213" data-name="Ellipse 213" class="aacls-1" cx="2.158" cy="2.158" r="2.158" transform="translate(19.124)"/><circle id="aaEllipse_214" data-name="Ellipse 214" class="aacls-1" cx="2.158" cy="2.158" r="2.158" transform="translate(19.124 9.525)"/><circle id="aaEllipse_215" data-name="Ellipse 215" class="aacls-1" cx="2.158" cy="2.158" r="2.158" transform="translate(0 19.124)"/><circle id="aaEllipse_216" data-name="Ellipse 216" class="aacls-1" cx="2.158" cy="2.158" r="2.158" transform="translate(9.525 19.124)"/><circle id="aaEllipse_217" data-name="Ellipse 217" class="aacls-1" cx="2.158" cy="2.158" r="2.158" transform="translate(9.525 9.674)"/></g></svg><svg viewBox="10353.747 491.006 15.083 17.085" width="15.08" height="17.09" id="anchor" x="101" xmlns="http://www.w3.org/2000/svg"><defs><style>.abcls-1{fill:#03a5ed}</style></defs><g id="abanchor" transform="translate(10323.749 491.006)"><g id="abGroup_2004" data-name="Group 2004" transform="translate(29.998)"><path id="abPath_1712" data-name="Path 1712" class="abcls-1" d="M44.778 9.319l-1.535-1a.667.667 0 0 0-1.032.559v2.2a4.679 4.679 0 0 1-4 4.624V4.574a2.336 2.336 0 1 0-1.335 0V15.7a4.679 4.679 0 0 1-4-4.624v-2.2a.667.667 0 0 0-1.032-.559l-1.535 1a.667.667 0 1 0 .729 1.118l.5-.328v.97a6.007 6.007 0 1 0 12.013 0v-.97l.5.328a.667.667 0 1 0 .729-1.118zm-8.24-6.983a1 1 0 1 1 1 1 1 1 0 0 1-1-1z" transform="translate(-29.998)"/></g></g></svg><svg viewBox="0 0 20.333 20.333" width="20.33" height="20.33" id="blog" x="117" xmlns="http://www.w3.org/2000/svg"><defs><style>.accls-1{fill:#03a5ed}</style></defs><g id="acblog-symbol"><path id="acPath_1777" data-name="Path 1777" class="accls-1" d="M7.625 3.812a8.9 8.9 0 0 1 8.9 8.9h-1.911a6.989 6.989 0 0 0-6.989-6.993zm0-3.812a12.708 12.708 0 0 1 12.708 12.708h-1.906a10.791 10.791 0 0 0-10.8-10.8zm3.78 8.928a4.432 4.432 0 0 1 1.3 3.146 9.106 9.106 0 0 0-1.27 4.447c-5.083 0-8.9 3.812-8.9 3.812l-.278-.278L1.8 19.6l5.631-5.631a1.29 1.29 0 0 0 .19.014A1.27 1.27 0 1 0 6.368 12.9L.737 18.529 0 17.791s3.812-3.812 3.812-8.9A9.1 9.1 0 0 0 8.26 7.625a4.434 4.434 0 0 1 3.145 1.303z"/></g></svg><svg viewBox="7676 2778.975 35.837 58.018" width="35.84" height="58.02" id="ethereum" x="138" xmlns="http://www.w3.org/2000/svg"><defs><style>.adcls-1{fill:#fff}.adcls-2{opacity:.6}.adcls-3{clip-path:url(#adclip-path)}.adcls-4{opacity:.8}.adcls-5{clip-path:url(#adclip-path-2)}.adcls-6{opacity:.45}.adcls-7{clip-path:url(#adclip-path-3)}.adcls-8{clip-path:url(#adclip-path-4)}</style><clipPath id="adclip-path"><path id="adRectangle_2" data-name="Rectangle 2" d="M0 0h35.644v18.597H0z"/></clipPath><clipPath id="adclip-path-2"><path id="adRectangle_4" data-name="Rectangle 4" d="M0 0h17.822v40.099H0z"/></clipPath><clipPath id="adclip-path-3"><path id="adRectangle_5" data-name="Rectangle 5" class="adcls-1" d="M0 0h17.822v25.086H0z"/></clipPath><clipPath id="adclip-path-4"><path id="adRectangle_6" data-name="Rectangle 6" d="M0 0h17.822v25.086H0z"/></clipPath></defs><g id="adGroup_769" data-name="Group 769" transform="translate(7676 2778.975)"><g id="adGroup_12" data-name="Group 12" class="adcls-2" transform="translate(0 21.503)"><g id="adGroup_11" data-name="Group 11"><g id="adGroup_10" data-name="Group 10" class="adcls-3"><path id="adPath_5" data-name="Path 5" class="adcls-1" d="M17.822 22.2L0 30.239 17.822 40.8l17.822-10.561z" transform="translate(0 -22.2)"/></g></g></g><g id="adGroup_18" data-name="Group 18" class="adcls-4" transform="translate(18.016)"><g id="adGroup_17" data-name="Group 17"><g id="adGroup_16" data-name="Group 16" class="adcls-5"><path id="adPath_7" data-name="Path 7" class="adcls-1" d="M18.6 0v40.1l17.822-10.558z" transform="translate(-18.6)"/></g></g></g><g id="adGroup_21" data-name="Group 21" class="adcls-6" transform="translate(0 32.932)"><g id="adGroup_20" data-name="Group 20"><g id="adGroup_19" data-name="Group 19" class="adcls-7"><path id="adPath_8" data-name="Path 8" class="adcls-1" d="M0 34l17.822 25.086V44.558z" transform="translate(0 -34)"/></g></g></g><g id="adGroup_24" data-name="Group 24" class="adcls-4" transform="translate(17.822 32.932)"><g id="adGroup_23" data-name="Group 23"><g id="adGroup_22" data-name="Group 22" class="adcls-8"><path id="adPath_9" data-name="Path 9" class="adcls-1" d="M18.4 44.558v14.528L36.222 34z" transform="translate(-18.4 -34)"/></g></g></g><g id="adGroup_15" data-name="Group 15" class="adcls-6" transform="translate(.194)"><g id="adGroup_14" data-name="Group 14"><g id="adGroup_13" data-name="Group 13" class="adcls-5"><path id="adPath_6" data-name="Path 6" class="adcls-1" d="M.2 29.542L18.022 40.1V0z" transform="translate(-.2)"/></g></g></g></g></svg><svg viewBox="10153.18 931.326 13.131 18.674" width="13.13" height="18.67" id="expand-arrow" x="174" xmlns="http://www.w3.org/2000/svg"><defs><style>.aecls-1{fill:#f15a24}</style></defs><path id="aeright-arrow" class="aecls-1" d="M12.575 4.871a.662.662 0 0 0-.941.932l4.772 4.772H.659a.656.656 0 0 0-.659.66.663.663 0 0 0 .659.668h15.747l-4.772 4.763a.676.676 0 0 0 0 .941.659.659 0 0 0 .941 0l5.9-5.9a.648.648 0 0 0 0-.932z" transform="rotate(90 4619.829 5551.155)"/></svg><svg viewBox="0 0 21.395 21.395" width="21.4" height="21.4" id="facebook" x="188" xmlns="http://www.w3.org/2000/svg"><defs><style>.afcls-1{fill:#03a5ed}</style></defs><g id="affacebook-app-logo" transform="translate(-.903 -.001)"><path id="afPath_1778" data-name="Path 1778" class="afcls-1" d="M20.213 0H1.181A1.181 1.181 0 0 0 0 1.182v19.032A1.181 1.181 0 0 0 1.181 21.4h10.246v-8.289H8.639v-3.23h2.788V7.5a3.89 3.89 0 0 1 4.153-4.269 23.124 23.124 0 0 1 2.491.127v2.888h-1.71c-1.34 0-1.6.637-1.6 1.572V9.88h3.2l-.418 3.229h-2.78v8.286h5.452a1.182 1.182 0 0 0 1.182-1.181V1.181A1.181 1.181 0 0 0 20.213 0z" transform="translate(.903)"/></g></svg><svg id="flag-de" viewBox="0 0 30 19.7" width="30" height="19.7" x="210" xmlns="http://www.w3.org/2000/svg"><style>.agst0{fill:#464655}.agst1{fill:#ffe15a}.agst2{fill:#ff4b55}</style><path class="agst0" d="M30 6.6H0v-6C0 .2.2 0 .5 0h29c.3 0 .5.2.5.5v6.1z"/><path class="agst1" d="M29.5 19.7H.5c-.3 0-.5-.2-.5-.5v-6h30v6c0 .2-.2.5-.5.5z"/><path class="agst2" d="M0 6.6h30v6.6H0z"/></svg><svg id="flag-en" viewBox="0 0 30 19.7" width="30" height="19.7" x="240" xmlns="http://www.w3.org/2000/svg"><style>.ahst0{fill:#41479b}.ahst1{fill:#f5f5f5}.ahst2{fill:#ff4b55}</style><path class="ahst0" d="M29.5 19.7H.5c-.3 0-.5-.2-.5-.5V.5C0 .2.2 0 .5 0h29c.3 0 .5.2.5.5v18.6c0 .3-.2.6-.5.6z"/><path class="ahst1" d="M30 .5c0-.3-.2-.5-.5-.5h-2.3l-9.6 6.3V0h-5.2v6.3L2.8 0H.5C.2 0 0 .2 0 .5v1.3l8.2 5.4H0v5.2h8.2L0 17.8v1.3c0 .3.2.5.5.5h2.3l9.6-6.3v6.3h5.2v-6.3l9.6 6.3h2.3c.3 0 .5-.2.5-.5v-1.3l-8.2-5.4H30V7.2h-8.2L30 1.9V.5z"/><path class="ahst2" d="M30 8.3H16.6V0h-3.2v8.3H0v3.1h13.4v8.3h3.2v-8.3H30z"/><path class="ahst2" d="M10.5 12.4L0 19.2c0 .2.2.4.5.4h.7l11.2-7.2h-1.9zm9.8 0h-1.9l11.1 7.2c.3 0 .5-.2.5-.5v-.4l-9.7-6.3zM0 1.1l9.5 6.2h1.9L.3.1C.1.1 0 .3 0 .5v.6zm19.5 6.1L30 .4c0-.2-.2-.4-.5-.4h-.7L17.6 7.2h1.9z"/></svg><svg id="flag-ru" viewBox="0 0 30 19.7" width="30" height="19.7" x="270" xmlns="http://www.w3.org/2000/svg"><style>.aist0{fill:#f5f5f5}.aist1{fill:#ff4b55}.aist2{fill:#41479b}</style><path class="aist0" d="M30 6.6H0v-6C0 .2.2 0 .5 0h29c.3 0 .5.2.5.5v6.1z"/><path class="aist1" d="M29.5 19.7H.5c-.3 0-.5-.2-.5-.5v-6h30v6c0 .2-.2.5-.5.5z"/><path class="aist2" d="M0 6.6h30v6.6H0z"/></svg><svg id="flag-zh" viewBox="0 0 30 19.7" width="30" height="19.7" x="300" xmlns="http://www.w3.org/2000/svg"><style>.ajst0{fill:#ff4b55}.ajst1{fill:#ffe15a}</style><path class="ajst0" d="M29.5 19.7H.5c-.3 0-.5-.2-.5-.5V.5C0 .2.2 0 .5 0h29c.3 0 .5.2.5.5v18.6c0 .3-.2.6-.5.6z"/><path class="ajst1" d="M5 3.1l.5 1.5h1.6c.2 0 .3.3.1.4l-1.3.9.5 1.5c0 .1-.2.3-.4.2l-1.2-.9-1.3.9c-.2.1-.4 0-.3-.2l.5-1.5-1.3-1c-.2-.1-.1-.3.1-.3h1.6l.5-1.5c0-.2.3-.2.4 0zm5.6.3l.4.5.6-.2c.1 0 .1.1.1.1l-.3.5.3.5c0 .1 0 .1-.1.1l-.6-.1-.4.5c0 .1-.1 0-.1 0v-.6l-.6-.3c-.1 0-.1-.1 0-.2l.6-.2v-.6h.1zM8.5 2l.6.1.3-.5c0-.1.1-.1.2 0l.1.6.6.1c.1 0 .1.1 0 .1l-.6.2.1.6c0 .1-.1.1-.1.1l-.4-.4-.6.3c-.1 0-.1 0-.1-.1l.2-.5-.4-.5s0-.1.1-.1zm.9 5.8l-.3.5-.6-.2c-.1 0-.1.1-.1.1l.3.5-.3.5c0 .1 0 .1.1.1l.6-.2.4.5c0 .1.1 0 .1 0V9l.6-.2c.1 0 .1-.1 0-.2l-.6-.2v-.6s-.1-.1-.2 0zm2.2-1.4l-.6.1-.3-.5c0-.1-.1-.1-.2 0l-.1.6h-.5c-.1 0-.1.1 0 .1l.5.3-.1.6c0 .1.1.1.1.1l.4-.4.5.3c.1 0 .1 0 .1-.1l-.2-.5.4-.4c.1-.1.1-.2 0-.2z"/></svg><svg viewBox="0 0 24.298 19.718" width="24.3" height="19.72" id="forum" x="330" xmlns="http://www.w3.org/2000/svg"><defs><style>.akcls-1{fill:#03a5ed}</style></defs><g id="aksupport" transform="translate(0 -41.206)"><g id="akGroup_2164" data-name="Group 2164" transform="translate(0 41.206)"><g id="akGroup_2163" data-name="Group 2163"><path id="akPath_1779" data-name="Path 1779" class="akcls-1" d="M90.885 41.206H74.213a1.807 1.807 0 0 0-1.8 1.8v10.36a1.807 1.807 0 0 0 1.8 1.8h11.492l2.6 2.623a.557.557 0 0 0 .4.178.574.574 0 0 0 .578-.578v-2.223h1.6a1.807 1.807 0 0 0 1.8-1.8V43.007a1.807 1.807 0 0 0-1.798-1.801zM76.769 50.12a1.667 1.667 0 1 1 1.667-1.667 1.679 1.679 0 0 1-1.667 1.667zm5.846 0a1.667 1.667 0 1 1 1.667-1.667 1.679 1.679 0 0 1-1.666 1.667zm5.824 0a1.667 1.667 0 1 1 1.667-1.667 1.679 1.679 0 0 1-1.666 1.667z" transform="translate(-68.388 -41.206)"/><path id="akPath_1780" data-name="Path 1780" class="akcls-1" d="M3 200.741v-3.535H1.179A1.186 1.186 0 0 0 0 198.384v6.8a1.169 1.169 0 0 0 1.178 1.223h1.046v1.467a.39.39 0 0 0 .378.378.368.368 0 0 0 .267-.111l1.712-1.712h7.558a1.186 1.186 0 0 0 1.178-1.178v-1.689H5.825A2.827 2.827 0 0 1 3 200.741z" transform="translate(0 -188.536)"/></g></g></g></svg><svg id="github" viewBox="0 0 20.327 23.339" width="20.33" height="23.34" x="355" xmlns="http://www.w3.org/2000/svg"><defs><style>.alcls-1{fill:#03a5ed}</style></defs><g id="alGroup_431" data-name="Group 431"><path id="alPath_582" data-name="Path 582" class="alcls-1" d="M78.448 134.661c-1.962.052-3.569-.833-3.569-1.227 0-.353-.013-1.287-.02-2.527-4.115.9-4.985-1.992-4.985-1.992a3.923 3.923 0 0 0-1.642-2.173c-1.345-.921.1-.9.1-.9a3.108 3.108 0 0 1 2.266 1.531 3.145 3.145 0 0 0 4.308 1.234 3.171 3.171 0 0 1 .94-1.987c-3.285-.375-6.74-1.65-6.74-7.341a5.758 5.758 0 0 1 1.524-3.988 5.353 5.353 0 0 1 .144-3.93s1.243-.4 4.069 1.522a13.967 13.967 0 0 1 7.41 0c2.824-1.922 4.065-1.522 4.065-1.522a5.361 5.361 0 0 1 .148 3.93 5.747 5.747 0 0 1 1.52 3.988c0 5.706-3.459 6.962-6.755 7.33a3.554 3.554 0 0 1 1 2.75c0 1.987-.018 3.588-.018 4.075-.03.342-1.544 1.183-3.765 1.227z" transform="translate(-67.658 -111.325)"/></g></svg><svg viewBox="0 0 21.318 25.581" width="21.32" height="25.58" id="hourglass" x="376" xmlns="http://www.w3.org/2000/svg"><path data-name="Path 1727" d="M20.891 24.729h-1.279v-1.706h-2.131v-4.358a3.43 3.43 0 0 0-1.53-2.859l-4.523-3.015 4.522-3.016a3.43 3.43 0 0 0 1.53-2.859V2.558h2.132V.853h1.279a.426.426 0 0 0 0-.853H.426a.426.426 0 1 0 0 .853h1.279v1.705h2.132v4.358a3.43 3.43 0 0 0 1.53 2.859L9.89 12.79l-4.523 3.015a3.43 3.43 0 0 0-1.53 2.859v4.358H1.705v1.705H.426a.426.426 0 1 0 0 .853h20.465a.426.426 0 0 0 0-.853zM2.558 1.705V.853h16.2v.853h-16.2zM5.84 9.066a2.58 2.58 0 0 1-1.15-2.15V2.558h11.938v4.358a2.58 2.58 0 0 1-1.15 2.15l-4.819 3.212zm-1.15 9.6a2.58 2.58 0 0 1 1.15-2.15l4.819-3.216 4.819 3.212a2.58 2.58 0 0 1 1.15 2.15v4.358H4.69zm-2.132 5.21h16.2v.853h-16.2z"/><path data-name="Path 1728" d="M6.787 7.643a.877.877 0 0 1-.391-.731v-.947a.426.426 0 1 0-.853 0v.947a1.727 1.727 0 0 0 .771 1.44L8.291 9.67a.426.426 0 1 0 .473-.709z"/><path data-name="Path 1729" d="M15.004 17.592l-1.977-1.318a.426.426 0 1 0-.473.709l1.977 1.319a.876.876 0 0 1 .391.731v.947a.426.426 0 0 0 .853 0v-.948a1.726 1.726 0 0 0-.771-1.44z"/></svg><svg viewBox="7981.091 2785.672 103.476 45.02" width="103.48" height="45.02" id="ipfs" x="398" xmlns="http://www.w3.org/2000/svg"><defs><style>.ancls-1{fill:#fff}</style></defs><g id="anipfs-logo-white" transform="translate(7981.091 2785.672)"><path id="anPath_844" data-name="Path 844" class="ancls-1" d="M69.511 515.51l-19.494 11.255v22.509l19.494 11.256 19.494-11.255v-22.51zm-1.351 41.925a3.388 3.388 0 0 0-.654.378l-14.134-8.161a3.377 3.377 0 0 0-2-3.472v-16.321a3.387 3.387 0 0 0 .654-.378l14.134 8.161a3.377 3.377 0 0 0 2 3.472zM67.5 535.3l-14.135-8.16a3.377 3.377 0 0 0 0-.755l14.135-8.164a3.377 3.377 0 0 0 4.01 0l14.134 8.161a3.365 3.365 0 0 0 0 .755L71.509 535.3a3.377 3.377 0 0 0-4.009 0zm20.156 10.792a3.376 3.376 0 0 0-2 3.472l-14.135 8.16a3.37 3.37 0 0 0-.654-.378l-.016-16.23a3.376 3.376 0 0 0 2-3.472L87 529.391a3.371 3.371 0 0 0 .654.378v16.321z" transform="translate(-50.017 -515.51)"/><g id="anGroup_775" data-name="Group 775" transform="translate(47.674 10.902)"><g id="anGroup_774" data-name="Group 774"><path id="anPath_845" data-name="Path 845" class="ancls-1" d="M1280.759 1172.145h-2.641v22.417h2.641z" transform="translate(-1278.118 -1171.685)"/><path id="anPath_846" data-name="Path 846" class="ancls-1" d="M1333.177 1182.893c-1.013 0-3.9-.031-3.9-.031v-8.353h4.637c2.764 0 4.76 1.075 4.76 3.716 0 2.242-.4 4.668-5.497 4.668zm-3.9 11.669v-9.581c1.136.092 2.733.215 3.654.215 6.633 0 8.445-2.856 8.445-7.032 0-4.33-3.255-6.019-7.524-6.019h-7.252v22.417z" transform="translate(-1318.998 -1171.685)"/><path id="anPath_847" data-name="Path 847" class="ancls-1" d="M1450.816 1182h-9.243v-7.554h9.55l.215-2.3h-12.406v22.417h2.641v-10.41h9.243V1182z" transform="translate(-1413.703 -1171.685)"/><path id="anPath_848" data-name="Path 848" class="ancls-1" d="M1534.159 1188.434a17 17 0 0 0 7.431 1.72c3.194 0 4.883-1.413 4.883-4.453 0-1.812-.737-3.04-3.593-3.746l-4.422-1.106c-3.1-.768-5.036-2.426-5.036-5.4 0-4.361 3.255-6.234 8.168-6.234a13.316 13.316 0 0 1 6.725 1.628l-.768 2.088a13.821 13.821 0 0 0-5.988-1.413c-3.562 0-5.435 1.2-5.435 3.777 0 1.75 1.167 2.7 3.316 3.224l4.207 1.013c3.347.8 5.5 2.426 5.5 6.08 0 4.668-3.133 6.817-7.708 6.817a16.049 16.049 0 0 1-8.046-1.843l.768-2.15z" transform="translate(-1493.343 -1169.21)"/></g></g></g></svg><svg viewBox="0 0 18.917 15.003" width="18.92" height="15" id="medium" x="502" xmlns="http://www.w3.org/2000/svg"><defs><style>.aocls-1{fill:#03a5ed}</style></defs><g id="aoPage-1_1_"><g id="aoMonogram_1_"><path id="aoShape_1_" class="aocls-1" d="M2.238 3.061a.733.733 0 0 0-.245-.621L.245.318V0h5.488l4.231 9.3L13.689 0h5.227v.318L17.4 1.762a.469.469 0 0 0-.173.419v10.642a.437.437 0 0 0 .173.419l1.473 1.444V15h-7.408v-.318L13 13.213c.144-.144.144-.188.144-.419V4.188L8.9 14.974h-.583L3.379 4.188v7.234a.967.967 0 0 0 .274.823l1.978 2.426v.318H0v-.318l1.993-2.411a.972.972 0 0 0 .26-.823l-.014-7.8z"/></g></g></svg><svg viewBox="7676.477 2857.481 121.403 36.648" width="121.4" height="36.65" id="nixos" x="521" xmlns="http://www.w3.org/2000/svg"><defs><style>.apcls-1{fill:#5277c3}.apcls-1,.apcls-2,.apcls-3{fill-rule:evenodd}.apcls-2{fill:#7ebae4}.apcls-3{fill:url(#aplinear-gradient)}.apcls-4{fill:#fff}</style><linearGradient id="aplinear-gradient" x1="-.411" y1="5.004" x2=".135" y2="5.733" gradientUnits="objectBoundingBox"><stop offset="0" stop-color="#fff"/><stop offset=".243" stop-color="#7eb1dd"/><stop offset="1" stop-color="#7ebae4"/></linearGradient></defs><g id="apNixOS-logo" transform="translate(7659.991 2845.217)"><g id="aplayer1" transform="translate(17.065 13.268)"><path id="appath4861" class="apcls-1" d="M271.09-710.252l9.745 16.88-4.478.042-2.6-4.535-2.62 4.511h-2.227l-1.14-1.969 3.733-6.419-2.65-4.611z" transform="translate(-258.884 728.031)"/><path id="apuse4863" class="apcls-2" d="M172.062-797.443l-9.746 16.879-2.276-3.857 2.627-4.521-5.217-.014-1.112-1.927 1.135-1.971 7.425.023 2.669-4.6z" transform="translate(-156.339 808.269)"/><path id="apuse4865" class="apcls-2" d="M362.885-628.243h19.491l-2.2 3.9-5.228-.014 2.6 4.525-1.113 1.927h-2.275l-3.692-6.442-5.319-.011z" transform="translate(-346.414 652.562)"/><path id="apuse4867" class="apcls-2" d="M392.691-916.268l-9.745-16.88 4.478-.042 2.6 4.535 2.62-4.511h2.225l1.14 1.969-3.733 6.419 2.65 4.611z" transform="translate(-364.875 933.191)"/><path id="appath4873" class="apcls-1" d="M271.09-710.252l9.745 16.88-4.478.042-2.6-4.535-2.62 4.511h-2.227l-1.14-1.969 3.733-6.419-2.65-4.611z" transform="translate(-258.884 728.031)"/><path id="apuse4875" class="apcls-1" d="M226.413-922.847h-19.491l2.2-3.9 5.228.014-2.6-4.525 1.113-1.927h2.275l3.692 6.442 5.319.011z" transform="translate(-202.888 933.187)"/><path id="apuse4877" class="apcls-1" d="M460.872-828.626l9.746-16.88 2.276 3.857-2.627 4.521 5.217.014 1.112 1.927-1.135 1.971-7.425-.023-2.669 4.6z" transform="translate(-436.586 852.498)"/></g><g id="aplayer3" transform="translate(16.486 12.265)"><path id="appath3336-6" class="apcls-3" d="M271.236-710.388l9.745 16.88-4.478.042L273.9-698l-2.62 4.511h-2.225l-1.14-1.969 3.733-6.419L269-706.49z" transform="translate(-258.438 729.16)"/><path id="apuse3439-6" class="apcls-3" d="M3.32 0l9.745 16.88-4.478.042-2.6-4.535L3.365 16.9H1.14L0 14.928 3.733 8.51 1.083 3.9z" transform="rotate(60 -.417 17.163)"/><path id="apuse3445-0" class="apcls-3" d="M3.32 0l9.745 16.88-4.478.042-2.6-4.535L3.365 16.9H1.14L0 14.928 3.733 8.51 1.083 3.9z" transform="rotate(-60 32.112 .754)"/><path id="apuse3449-5" class="apcls-3" d="M3.32 0l9.745 16.88-4.478.042-2.6-4.535L3.365 16.9H1.14L0 14.928 3.733 8.51 1.083 3.9z" transform="rotate(180 15.864 8.958)"/><path id="appath4260-0" class="apcls-3" d="M271.236-710.388l9.745 16.88-4.478.042L273.9-698l-2.62 4.511h-2.225l-1.14-1.969 3.733-6.419L269-706.49z" transform="translate(-258.438 729.16)"/><path id="apuse4354-5" class="apcls-3" d="M3.32 0l9.745 16.88-4.478.042-2.6-4.535L3.365 16.9H1.14L0 14.928 3.733 8.51 1.083 3.9z" transform="rotate(120 10.439 11.668)"/><path id="apuse4362-2" class="apcls-3" d="M3.32 0l9.745 16.88-4.478.042-2.6-4.535L3.365 16.9H1.14L0 14.928 3.733 8.51 1.083 3.9z" transform="rotate(-120 21.272 6.213)"/></g><path id="appath4683" class="apcls-4" d="M772.088-847.118h-2.458v11.154c0 1.575.063 4.065.158 6.837h-.094c-1.229-2.3-2.615-4.506-3.592-6.018l-7.719-11.973h-3.371v21.362h2.458v-11.154c0-1.575-.063-4.537-.158-7.278h.095c1.828 3.182 2.9 4.947 3.907 6.459l7.719 11.973h3.056z" transform="translate(-690.203 867.251)"/><path id="appath4685" class="apcls-4" d="M1024.189-818.848h2.646V-834.1h-2.646zm1.323-17.487a1.627 1.627 0 0 0 1.638-1.638 1.627 1.627 0 0 0-1.638-1.638 1.627 1.627 0 0 0-1.638 1.638 1.627 1.627 0 0 0 1.638 1.638z" transform="translate(-937.625 860.342)"/><path id="appath4687" class="apcls-4" d="M1107.436-770.47h-3.025l-3.718 5.608h-.095l-3.592-5.608h-3.277l5.451 7.436v.095l-5.64 7.719h3.025l3.97-6.049h.095l3.97 6.049h3.277l-5.766-7.845v-.095z" transform="translate(-1001.736 796.714)"/><path id="appath4680" class="apcls-4" d="M1290.694-842.351c-5.015 0-9.138 4.038-9.138 10.759s4.123 10.758 9.138 10.758 9.138-4.038 9.138-10.758-4.123-10.759-9.138-10.759zm0 2.1c3.733 0 6.575 3.083 6.575 8.662s-2.842 8.662-6.575 8.662-6.575-3.083-6.575-8.662 2.842-8.665 6.575-8.665z" transform="translate(-1174.758 862.863)"/><path id="appath4677" class="apcls-4" d="M1516.291-838.273c0 2.959 1.541 4.562 5.117 6.011 2.744 1.11 3.854 2.1 3.854 4.131 0 2.466-2 3.7-4.655 3.7a14.513 14.513 0 0 1-4.686-.8l-.277 2.127a14.1 14.1 0 0 0 4.84.771c4.131 0 7.583-2.1 7.583-6.319 0-2.929-1.788-4.347-5.395-5.8-2.4-.956-3.576-1.973-3.576-4.1 0-2.065 1.788-3.206 4.038-3.206a11.061 11.061 0 0 1 3.792.74l.277-2.1a11 11 0 0 0-4.223-.74c-3.792.005-6.689 2.194-6.689 5.585z" transform="translate(-1390.178 864.246)"/></g></svg><svg viewBox="0 0 27.964 19.657" width="27.96" height="19.66" id="ok" x="643" xmlns="http://www.w3.org/2000/svg"><defs><style>.aqcls-1{fill:none;stroke:#fff;stroke-width:2px}</style></defs><path id="aqPath_1730" data-name="Path 1730" class="aqcls-1" d="M1020.475 1258.759l9.014 9.014 17.536-17.536" transform="translate(-1019.768 -1249.53)"/></svg><svg id="reddit" viewBox="0 0 22.59 18.824" width="22.59" height="18.82" x="671" xmlns="http://www.w3.org/2000/svg"><defs><style>.arcls-1{fill:#03a5ed}</style></defs><path id="arPath_580" data-name="Path 580" class="arcls-1" d="M19.875 47.864a2.716 2.716 0 0 0-1.71.6 12.86 12.86 0 0 0-6.008-1.784L13.331 43l3.228.753a2.255 2.255 0 1 0 .248-1.2l-3.751-.875a.617.617 0 0 0-.729.411l-1.459 4.567a13.12 13.12 0 0 0-6.484 1.773A2.717 2.717 0 0 0 0 50.554a2.678 2.678 0 0 0 1.176 2.213 4.644 4.644 0 0 0-.045.646 5.9 5.9 0 0 0 3.063 4.856 13.125 13.125 0 0 0 7.056 1.9 13.125 13.125 0 0 0 7.056-1.9 5.9 5.9 0 0 0 3.063-4.856 4.842 4.842 0 0 0-.038-.591 2.684 2.684 0 0 0-1.456-4.959zm-1.052-5.3a1.027 1.027 0 1 1-1.037 1.027 1.034 1.034 0 0 1 1.037-1.025zM6.406 52.219a1.562 1.562 0 0 1 1.552-1.538 1.542 1.542 0 0 1 1.529 1.538 1.523 1.523 0 0 1-1.529 1.515 1.543 1.543 0 0 1-1.552-1.515zm8.608 4.455a5.062 5.062 0 0 1-3.707 1.156h-.024a5.057 5.057 0 0 1-3.706-1.156.606.606 0 0 1 0-.865.622.622 0 0 1 .873 0 3.944 3.944 0 0 0 2.834.8h.024a3.951 3.951 0 0 0 2.835-.8.621.621 0 0 1 .872 0 .608.608 0 0 1-.001.865zm-.358-2.94a1.544 1.544 0 0 1-1.556-1.515 1.563 1.563 0 0 1 1.554-1.538 1.541 1.541 0 0 1 1.529 1.538 1.523 1.523 0 0 1-1.527 1.515z" transform="translate(0 -41.344)"/></svg><svg viewBox="0 0 208.108 153.86" width="208.11" height="153.86" id="robotHand1-1" x="694" xmlns="http://www.w3.org/2000/svg"><defs><style>.ascls-1{fill:#fff;stroke:#1d1d1b;stroke-miterlimit:10}</style></defs><g id="asGroup_2224" data-name="Group 2224" transform="translate(.555 .555)"><path id="asPath_1812" data-name="Path 1812" class="ascls-1" d="M4.18 166.242a24.5 24.5 0 0 0 34.539 8.381l156.7-100.444c11.809-7.619 15.619-23.873 8.508-36.063a24.524 24.524 0 0 0-34.539-8.381L12.561 130.179a27 27 0 0 0-8.381 36.063z" transform="translate(-.508 -25.805)"/><ellipse id="asEllipse_455" data-name="Ellipse 455" class="ascls-1" cx="15.238" cy="14.73" rx="15.238" ry="14.73" transform="rotate(-82.108 104.767 -74.454)"/><ellipse id="asEllipse_456" data-name="Ellipse 456" class="ascls-1" cx="7.873" cy="7.619" rx="7.873" ry="7.619" transform="rotate(-82.108 105.167 -82.238)"/></g></svg><svg viewBox="0 0 53.19 68.428" width="53.19" height="68.43" id="robotHand1-10" x="903" xmlns="http://www.w3.org/2000/svg"><defs><style>.atcls-1{fill:#fff;stroke:#1d1d1b;stroke-miterlimit:10}</style></defs><g id="atGroup_2247" data-name="Group 2247" transform="translate(-228.566 -29.62)"><path id="atRectangle_658" data-name="Rectangle 658" class="atcls-1" transform="rotate(-32.75 193.092 -370.607)" d="M0 0h21.46v55.619H0z"/><g id="atGroup_2228" data-name="Group 2228" transform="translate(253.828 70.119)"><circle id="atEllipse_461" data-name="Ellipse 461" class="atcls-1" cx="13.714" cy="13.714" r="13.714"/><circle id="atEllipse_462" data-name="Ellipse 462" class="atcls-1" cx="5.46" cy="5.46" r="5.46" transform="translate(8.254 8.254)"/></g><g id="atGroup_2229" data-name="Group 2229" transform="translate(229.067 30.12)"><circle id="atEllipse_463" data-name="Ellipse 463" class="atcls-1" cx="13.714" cy="13.714" r="13.714"/><circle id="atEllipse_464" data-name="Ellipse 464" class="atcls-1" cx="5.46" cy="5.46" r="5.46" transform="translate(8.254 8.254)"/></g></g></svg><svg viewBox="0 0 56.015 40.448" width="56.02" height="40.45" id="robotHand1-11" x="957" xmlns="http://www.w3.org/2000/svg"><defs><style>.aucls-1{fill:#fff;stroke:#1d1d1b;stroke-miterlimit:10}</style></defs><path id="auPath_1814" data-name="Path 1814" class="aucls-1" d="M259.641 93.274c-1.651 3.175-5.206 4.825-8 3.683L205.8 77.274 215.959 58.1l42.158 26.539c2.54 1.651 3.302 5.461 1.524 8.635z" transform="translate(-205.104 -57.39)"/></svg><svg viewBox="0 0 50.929 35.611" width="50.93" height="35.61" id="robotHand1-2" x="1014" xmlns="http://www.w3.org/2000/svg"><defs><style>.avcls-1{fill:#fff;stroke:#1d1d1b;stroke-miterlimit:10}</style></defs><path id="avPath_1810" data-name="Path 1810" class="avcls-1" d="M144.517 59.912l45.46-9.9L185.66 25.5l-45.46 9.9z" transform="translate(-139.624 -24.901)"/></svg><svg viewBox="0 0 108.831 67.607" width="108.83" height="67.61" id="robotHand1-3" x="1065" xmlns="http://www.w3.org/2000/svg"><defs><style>.awcls-1{fill:#fff;stroke:#1d1d1b;stroke-miterlimit:10}</style></defs><g id="awGroup_2223" data-name="Group 2223" transform="translate(.501 .503)"><path id="awPath_1811" data-name="Path 1811" class="awcls-1" d="M278.357 41.14l.254-9.651c.381-14.857-10.667-27.682-24.381-28.317L196.834.505c-13.841-.635-25.4 11.048-25.778 25.9l-.256 9.655c-.381 14.857 10.667 27.682 24.381 28.317l57.4 2.667c13.712.762 25.395-10.92 25.776-25.904z" transform="translate(-170.792 -.481)"/></g></svg><svg viewBox="0 0 64.436 34.662" width="64.44" height="34.66" id="robotHand1-4" x="1174" xmlns="http://www.w3.org/2000/svg"><defs><style>.axcls-1{fill:#fff;stroke:#1d1d1b;stroke-miterlimit:10}</style></defs><path id="axPath_1813" data-name="Path 1813" class="axcls-1" d="M353.684 39.352a6.465 6.465 0 0 1-7.873 4.317L290.7 29.955l6.222-19.555 52.952 20.825a6.64 6.64 0 0 1 3.81 8.127z" transform="translate(-290.062 -9.739)"/></svg><svg viewBox="0 0 92.047 32.746" width="92.05" height="32.75" id="robotHand1-5" x="1239" xmlns="http://www.w3.org/2000/svg"><defs><style>.aycls-1{fill:#fff;stroke:#1d1d1b;stroke-miterlimit:10}</style></defs><g id="ayGroup_2248" data-name="Group 2248" transform="translate(-289.772 -7.017)"><path id="ayRectangle_657" data-name="Rectangle 657" class="aycls-1" transform="rotate(-94.372 170.201 -124.804)" d="M0 0h20.317v62.222H0z"/><g id="ayGroup_2225" data-name="Group 2225" transform="translate(353.891 7.517)"><circle id="ayEllipse_457" data-name="Ellipse 457" class="aycls-1" cx="13.714" cy="13.714" r="13.714"/><circle id="ayEllipse_458" data-name="Ellipse 458" class="aycls-1" cx="5.46" cy="5.46" r="5.46" transform="translate(8.254 8.254)"/></g><g id="ayGroup_2226" data-name="Group 2226" transform="translate(290.272 11.834)"><circle id="ayEllipse_459" data-name="Ellipse 459" class="aycls-1" cx="13.714" cy="13.714" r="13.714"/><circle id="ayEllipse_460" data-name="Ellipse 460" class="aycls-1" cx="5.46" cy="5.46" r="5.46" transform="translate(8.254 8.254)"/></g></g></svg><svg viewBox="0 0 87.602 57.126" width="87.6" height="57.13" id="robotHand1-6" x="1332" xmlns="http://www.w3.org/2000/svg"><defs><style>.azcls-1{fill:#fff;stroke:#1d1d1b;stroke-miterlimit:10}</style></defs><g id="azGroup_2249" data-name="Group 2249" transform="translate(-297.772 -3.588)"><path id="azRectangle_656" data-name="Rectangle 656" class="azcls-1" transform="rotate(-65.444 177.115 -227.481)" d="M0 0h20.317v62.222H0z"/><g id="azGroup_2220" data-name="Group 2220" transform="translate(357.446 32.786)"><circle id="azEllipse_451" data-name="Ellipse 451" class="azcls-1" cx="13.714" cy="13.714" r="13.714"/><circle id="azEllipse_452" data-name="Ellipse 452" class="azcls-1" cx="5.46" cy="5.46" r="5.46" transform="translate(8.254 8.254)"/></g><g id="azGroup_2221" data-name="Group 2221" transform="translate(298.272 4.088)"><circle id="azEllipse_453" data-name="Ellipse 453" class="azcls-1" cx="13.714" cy="13.714" r="13.714"/><circle id="azEllipse_454" data-name="Ellipse 454" class="azcls-1" cx="5.46" cy="5.46" r="5.46" transform="translate(8.254 8.254)"/></g></g></svg><svg viewBox="0 0 34.227 64.423" width="34.23" height="64.42" id="robotHand1-7" x="1420" xmlns="http://www.w3.org/2000/svg"><defs><style>.bacls-1{fill:#fff;stroke:#1d1d1b;stroke-miterlimit:10}</style></defs><path id="baPath_1809" data-name="Path 1809" class="bacls-1" d="M281.08 96.184a6.576 6.576 0 0 1-4.444-7.746L289.969 33.2l19.555 6.1-20.444 53.074a6.554 6.554 0 0 1-8 3.81z" transform="translate(-275.956 -32.564)"/></svg><svg viewBox="0 0 74.519 54.09" width="74.52" height="54.09" id="robotHand1-8" x="1455" xmlns="http://www.w3.org/2000/svg"><defs><style>.bbcls-1{fill:#fff;stroke:#1d1d1b;stroke-miterlimit:10}</style></defs><g id="bbGroup_2250" data-name="Group 2250" transform="translate(-289.649 -17.672)"><path id="bbRectangle_655" data-name="Rectangle 655" class="bbcls-1" transform="rotate(-61.844 175.431 -224.207)" d="M0 0h20.317v62.222H0z"/><g id="bbGroup_2217" data-name="Group 2217" transform="translate(336.24 43.834)"><circle id="bbEllipse_447" data-name="Ellipse 447" class="bbcls-1" cx="13.714" cy="13.714" r="13.714"/><circle id="bbEllipse_448" data-name="Ellipse 448" class="bbcls-1" cx="5.46" cy="5.46" r="5.46" transform="translate(8.254 8.254)"/></g></g></svg><svg viewBox="0 0 21.51 64.396" width="21.51" height="64.4" id="robotHand1-9" x="1530" xmlns="http://www.w3.org/2000/svg"><defs><style>.bccls-1{fill:#fff;stroke:#1d1d1b;stroke-miterlimit:10}</style></defs><path id="bcPath_1808" data-name="Path 1808" class="bccls-1" d="M282.606 106.465a6.654 6.654 0 0 1-6.857-5.841L269.4 44.116l20.444-1.016-1.016 57.015a6.427 6.427 0 0 1-6.222 6.35z" transform="translate(-268.844 -42.574)"/></svg><svg viewBox="0 0 76.412 34.503" width="76.41" height="34.5" id="robotHand2-1" x="1552" xmlns="http://www.w3.org/2000/svg"><defs><style>.bdcls-1{fill:#fff;stroke:#1d1d1b;stroke-linecap:round;stroke-linejoin:round;stroke-miterlimit:10}</style></defs><path id="bdPath_1826" data-name="Path 1826" class="bdcls-1" d="M928.5 29.972l-1.778-9.4a6.284 6.284 0 0 0-7.238-4.952L858.275 27.3a6.284 6.284 0 0 0-4.952 7.238l1.778 9.4a6.284 6.284 0 0 0 7.238 4.952l61.205-11.68a6.187 6.187 0 0 0 4.956-7.238z" transform="translate(-852.706 -15.006)"/></svg><svg viewBox="0 0 39.307 76.006" width="39.31" height="76.01" id="robotHand2-10" x="1629" xmlns="http://www.w3.org/2000/svg"><defs><style>.becls-1{fill:#fff;stroke:#1d1d1b;stroke-linecap:round;stroke-linejoin:round;stroke-miterlimit:10}</style></defs><path id="bePath_1820" data-name="Path 1820" class="becls-1" d="M934.67 74.786l-9.27-2.54a6.193 6.193 0 0 0-7.619 4.317l-16.635 60.063a6.193 6.193 0 0 0 4.317 7.619l9.27 2.54a6.193 6.193 0 0 0 7.619-4.317L938.987 82.4a6.193 6.193 0 0 0-4.317-7.614z" transform="translate(-900.413 -71.513)"/></svg><svg viewBox="0 0 58.875 37.542" width="58.88" height="37.54" id="robotHand2-11" x="1669" xmlns="http://www.w3.org/2000/svg"><defs><style>.bfcls-1{fill:#fff;stroke:#1d1d1b;stroke-linecap:round;stroke-linejoin:round;stroke-miterlimit:10}</style></defs><path id="bfPath_1815" data-name="Path 1815" class="bfcls-1" d="M993.9 67.623l-2.794-7.873a6.825 6.825 0 0 0-8.762-4.063l-41.4 14.984a6.825 6.825 0 0 0-4.063 8.762l2.794 7.873a6.825 6.825 0 0 0 8.762 4.063l41.4-14.984a6.825 6.825 0 0 0 4.063-8.762z" transform="translate(-935.957 -54.757)"/></svg><svg viewBox="0 0 23.991 23.388" width="23.99" height="23.39" id="robotHand2-12" x="1728" xmlns="http://www.w3.org/2000/svg"><defs><style>.bgcls-1,.bgcls-2{fill:#fff;stroke:#1d1d1b;stroke-linecap:round;stroke-linejoin:round;stroke-miterlimit:10}.bgcls-2{fill:none}</style></defs><g id="bgGroup_2231" data-name="Group 2231" transform="translate(.5 .5)"><path id="bgPath_1817" data-name="Path 1817" class="bgcls-1" d="M950.337 72.582a5.942 5.942 0 0 0-8.254-.254l-11.3 10.794a5.942 5.942 0 0 0-.254 8.254 5.942 5.942 0 0 0 8.254.254l11.3-10.794a5.714 5.714 0 0 0 .254-8.254z" transform="translate(-928.985 -70.785)"/><path id="bgLine_412" data-name="Line 412" class="bgcls-2" transform="translate(6.876 6.876)" d="M0 8.762L9.27 0"/></g></svg><svg viewBox="0 0 25.264 76.057" width="25.26" height="76.06" id="robotHand2-13" x="1752" xmlns="http://www.w3.org/2000/svg"><defs><style>.bhcls-1{fill:#fff;stroke:#1d1d1b;stroke-linecap:round;stroke-linejoin:round;stroke-miterlimit:10}</style></defs><path id="bhPath_1816" data-name="Path 1816" class="bhcls-1" d="M940.487 81.582l-9.651-.381a6.126 6.126 0 0 0-6.349 5.968l-2.287 62.349a6.126 6.126 0 0 0 5.968 6.349l9.651.381a6.126 6.126 0 0 0 6.349-5.968l2.286-62.349a6.126 6.126 0 0 0-5.967-6.349z" transform="translate(-921.696 -80.696)"/></svg><svg viewBox="0 0 56.954 22.942" width="56.95" height="22.94" id="robotHand2-14" x="1778" xmlns="http://www.w3.org/2000/svg"><defs><style>.bicls-1{fill:#fff;stroke:#1d1d1b;stroke-linecap:round;stroke-miterlimit:10}</style></defs><path id="biRectangle_659" data-name="Rectangle 659" class="bicls-1" transform="rotate(-11.19 57.473 2.617)" d="M0 0h54.603v11.428H0z"/></svg><svg viewBox="0 0 132.998 62.472" width="133" height="62.47" id="robotHand2-15" x="1835" xmlns="http://www.w3.org/2000/svg"><defs><style>.bjcls-1{fill:#fff;stroke:#1d1d1b;stroke-linecap:round;stroke-miterlimit:10}</style></defs><path id="bjRectangle_661" data-name="Rectangle 661" class="bjcls-1" transform="rotate(-11.19 129.27 9.685)" d="M0 0h126.983v37.46H0z"/></svg><svg viewBox="0 0 27.914 15.602" width="27.91" height="15.6" id="robotHand2-2" x="1968" xmlns="http://www.w3.org/2000/svg"><defs><style>.bkcls-1,.bkcls-2{fill:#fff;stroke:#1d1d1b;stroke-linecap:round;stroke-linejoin:round;stroke-miterlimit:10}.bkcls-2{fill:none}</style></defs><g id="bkGroup_2237" data-name="Group 2237" transform="translate(.51 .51)"><path id="bkPath_1827" data-name="Path 1827" class="bkcls-1" d="M933.191 21.2a5.8 5.8 0 0 0-6.857-4.571L911.1 19.545a5.8 5.8 0 0 0-4.571 6.857 5.8 5.8 0 0 0 6.857 4.571l15.238-2.921a6.038 6.038 0 0 0 4.567-6.852z" transform="translate(-906.409 -16.509)"/><path id="bkLine_416" data-name="Line 416" class="bkcls-2" transform="translate(7.227 5.957)" d="M0 2.413L12.444 0"/></g></svg><svg viewBox="0 0 71.752 29.365" width="71.75" height="29.37" id="robotHand2-3" x="1996" xmlns="http://www.w3.org/2000/svg"><defs><style>.blcls-1,.blcls-2{fill:#fff;stroke:#1d1d1b;stroke-linecap:round;stroke-linejoin:round;stroke-miterlimit:10}.blcls-2{fill:none}</style></defs><g id="blGroup_2252" data-name="Group 2252" transform="translate(-82.074 .507)"><path id="blPath_1825" data-name="Path 1825" class="blcls-1" d="M975.329 35.59l1.27-8.254a6.861 6.861 0 0 0-5.714-7.746l-43.555-6.476a6.861 6.861 0 0 0-7.746 5.714l-1.27 8.254a6.861 6.861 0 0 0 5.714 7.746l43.555 6.472a6.7 6.7 0 0 0 7.746-5.71z" transform="translate(-835.669 -13.049)"/><g id="blGroup_2238" data-name="Group 2238" transform="translate(126.257 11.422)"><path id="blPath_1828" data-name="Path 1828" class="blcls-1" d="M979.635 31a5.848 5.848 0 0 0-4.952-6.6l-15.365-2.286a5.848 5.848 0 0 0-6.6 4.952 5.847 5.847 0 0 0 4.952 6.6l15.365 2.286a6.018 6.018 0 0 0 6.6-4.952z" transform="translate(-952.644 -22.044)"/><path id="blLine_417" data-name="Line 417" class="blcls-2" transform="translate(7.182 6.039)" d="M0 0l12.571 1.778"/></g></g></svg><svg viewBox="0 0 102.088 96.755" width="102.09" height="96.76" id="robotHand2-4" x="2068" xmlns="http://www.w3.org/2000/svg"><defs><style>.bmcls-1{fill:#fff;stroke:#1d1d1b;stroke-linecap:round;stroke-miterlimit:10}</style></defs><g id="bmGroup_2253" data-name="Group 2253" transform="translate(-122.458 -7.467)"><path id="bmRectangle_660" data-name="Rectangle 660" class="bmcls-1" transform="rotate(8.476 -26.414 1048.016)" d="M0 0h55.238v75.555H0z"/><path id="bmPath_1823" data-name="Path 1823" class="bmcls-1" d="M1027.56 23.578l-1.9 13.206-38.481-5.714 1.9-13.206-26.662-4.064L950.1 96.212l26.793 4.063 1.524-10.54 38.476 5.714-1.524 10.54 23.365 3.429 12.317-82.285z" transform="translate(-827.074 -5.763)"/><path id="bmPath_1824" data-name="Path 1824" class="bmcls-1" d="M1000.57 70.814l4.952-34.031-25.143-3.683-5.079 34.031z" transform="translate(-820.275 -.555)"/></g></svg><svg viewBox="0 0 65.19 26.053" width="65.19" height="26.05" id="robotHand2-5" x="2171" xmlns="http://www.w3.org/2000/svg"><defs><style>.bncls-1,.bncls-2{fill:#fff;stroke:#1d1d1b;stroke-linecap:round;stroke-miterlimit:10}.bncls-2{fill:none}</style></defs><g id="bnGroup_2257" data-name="Group 2257" transform="translate(-58.545 .502)"><g id="bnGroup_2254" data-name="Group 2254"><path id="bnPath_1829" data-name="Path 1829" class="bncls-1" d="M993.94 53.38l-.762-8.254a6.9 6.9 0 0 0-7.365-6.222l-37.587 3.175A6.9 6.9 0 0 0 942 49.443l.762 8.254a6.9 6.9 0 0 0 7.365 6.222l37.587-3.175a6.994 6.994 0 0 0 6.226-7.364z" transform="translate(-882.94 -38.887)"/><path id="bnPath_1832" data-name="Path 1832" class="bncls-1" d="M998.278 46.437a5.857 5.857 0 0 0-6.349-5.333l-15.492 1.27a5.858 5.858 0 0 0-5.333 6.349 5.857 5.857 0 0 0 6.349 5.333l15.492-1.27a5.759 5.759 0 0 0 5.333-6.349z" transform="translate(-875.088 -38.294)"/></g><path id="bnLine_419" data-name="Line 419" class="bncls-2" transform="translate(105.921 8.906)" d="M0 .762L9.143 0"/></g></svg><svg viewBox="0 0 28.216 13.993" width="28.22" height="13.99" id="robotHand2-6" x="2237" xmlns="http://www.w3.org/2000/svg"><defs><style>.bocls-1,.bocls-2{fill:#fff;stroke:#1d1d1b;stroke-linecap:round;stroke-miterlimit:10}.bocls-2{fill:none}</style></defs><g id="boGroup_2258" data-name="Group 2258" transform="translate(-42.543 -6.861)"><path id="boPath_1831" data-name="Path 1831" class="bocls-1" d="M956.578 50.037a5.857 5.857 0 0 0-6.349-5.333l-15.492 1.27a5.857 5.857 0 0 0-5.333 6.349 5.858 5.858 0 0 0 6.349 5.333l15.492-1.27a5.933 5.933 0 0 0 5.333-6.349z" transform="translate(-886.34 -37.322)"/><path id="boLine_418" data-name="Line 418" class="bocls-2" transform="translate(52.842 13.477)" d="M0 .762L9.27 0"/></g></svg><svg viewBox="0 0 52.994 26.053" width="52.99" height="26.05" id="robotHand2-7" x="2266" xmlns="http://www.w3.org/2000/svg"><defs><style>.bpcls-1{fill:#fff;stroke:#1d1d1b;stroke-linecap:round;stroke-miterlimit:10}</style></defs><path id="bpPath_1830" data-name="Path 1830" class="bpcls-1" d="M947.44 57.38l-.762-8.254a6.9 6.9 0 0 0-7.365-6.222l-37.587 3.175a6.9 6.9 0 0 0-6.222 7.365l.762 8.254a6.9 6.9 0 0 0 7.365 6.222l37.587-3.175a6.811 6.811 0 0 0 6.222-7.365z" transform="translate(-894.985 -42.385)"/></svg><svg viewBox="0 0 58.972 36.875" width="58.97" height="36.88" id="robotHand2-8" x="2319" xmlns="http://www.w3.org/2000/svg"><defs><style>.bqcls-1{fill:#fff;stroke:#1d1d1b;stroke-linecap:round;stroke-linejoin:round;stroke-miterlimit:10}</style></defs><path id="bqPath_1819" data-name="Path 1819" class="bqcls-1" d="M984.326 60.747l-2.667-7.873a6.752 6.752 0 0 0-8.635-4.19l-41.65 14.349a6.752 6.752 0 0 0-4.19 8.635l2.667 7.873a6.752 6.752 0 0 0 8.635 4.19l41.65-14.349a6.7 6.7 0 0 0 4.19-8.635z" transform="translate(-926.27 -47.77)"/></svg><svg viewBox="0 0 24.54 22.762" width="24.54" height="22.76" id="robotHand2-9" x="2378" xmlns="http://www.w3.org/2000/svg"><defs><style>.brcls-1,.brcls-2{fill:#fff;stroke:#1d1d1b;stroke-linecap:round;stroke-linejoin:round;stroke-miterlimit:10}.brcls-2{fill:none}</style></defs><g id="brGroup_2234" data-name="Group 2234" transform="translate(.503 .503)"><path id="brPath_1821" data-name="Path 1821" class="brcls-1" d="M941.2 64.936a5.831 5.831 0 0 0-8.254-.635l-11.81 10.032a5.83 5.83 0 0 0-.635 8.254 5.83 5.83 0 0 0 8.254.635l11.81-10.032a5.848 5.848 0 0 0 .635-8.254z" transform="translate(-919.083 -62.883)"/><path id="brLine_414" data-name="Line 414" class="brcls-2" transform="translate(6.878 6.751)" d="M0 8.127L9.778 0"/></g></svg><svg viewBox="7866.496 2796.09 87.511 23.145" width="87.51" height="23.15" id="ros" x="2403" xmlns="http://www.w3.org/2000/svg"><defs><style>.bscls-1{fill:#fff}</style></defs><g id="bsros_logo" transform="translate(7866.496 2796.09)"><path id="bsPath_826" data-name="Path 826" class="bscls-1" d="M4.951 3.868a2.518 2.518 0 0 1-2.476 2.558A2.518 2.518 0 0 1 0 3.868 2.518 2.518 0 0 1 2.475 1.31a2.518 2.518 0 0 1 2.476 2.558z" transform="translate(0 -1.013)"/><path id="bsPath_827" data-name="Path 827" class="bscls-1" d="M4.951 42.326a2.518 2.518 0 0 1-2.476 2.558 2.56 2.56 0 0 1 0-5.116 2.518 2.518 0 0 1 2.476 2.558z" transform="translate(0 -30.753)"/><path id="bsPath_828" data-name="Path 828" class="bscls-1" d="M4.951 80.784a2.518 2.518 0 0 1-2.476 2.558 2.56 2.56 0 0 1 0-5.116 2.518 2.518 0 0 1 2.476 2.558z" transform="translate(0 -60.493)"/><path id="bsPath_829" data-name="Path 829" class="bscls-1" d="M43.057 42.326a2.477 2.477 0 1 1-2.476-2.558 2.518 2.518 0 0 1 2.476 2.558z" transform="translate(-29.468 -30.753)"/><path id="bsPath_830" data-name="Path 830" class="bscls-1" d="M43.057 3.868a2.477 2.477 0 1 1-4.951 0 2.477 2.477 0 1 1 4.951 0z" transform="translate(-29.468 -1.013)"/><path id="bsPath_831" data-name="Path 831" class="bscls-1" d="M81.164 42.326a2.477 2.477 0 1 1-2.476-2.558 2.518 2.518 0 0 1 2.476 2.558z" transform="translate(-58.937 -30.753)"/><path id="bsPath_832" data-name="Path 832" class="bscls-1" d="M81.164 3.868a2.477 2.477 0 1 1-4.951 0 2.477 2.477 0 1 1 4.951 0z" transform="translate(-58.937 -1.013)"/><path id="bsPath_833" data-name="Path 833" class="bscls-1" d="M81.164 80.784a2.477 2.477 0 1 1-2.476-2.558 2.518 2.518 0 0 1 2.476 2.558z" transform="translate(-58.937 -60.493)"/><path id="bsPath_834" data-name="Path 834" class="bscls-1" d="M43.057 80.784a2.477 2.477 0 1 1-2.476-2.558 2.518 2.518 0 0 1 2.476 2.558z" transform="translate(-29.468 -60.493)"/><path id="bsPath_835" data-name="Path 835" class="bscls-1" d="M141.327 14.827L145.762 24h-3.753l-4.312-8.88h-4.9V24h-3.2V1.555h9.523c3.784 0 6.979 2.084 6.979 6.7.001 3.591-1.825 5.802-4.772 6.572zm-2.2-10.1H132.8v7.213h6.328c2.171 0 3.691-1.154 3.691-3.59a3.377 3.377 0 0 0-3.695-3.621z" transform="translate(-100.223 -1.203)"/><path id="bsPath_836" data-name="Path 836" class="bscls-1" d="M141.327 14.827L145.762 24h-3.753l-4.312-8.88h-4.9V24h-3.2V1.555h9.523c3.784 0 6.979 2.084 6.979 6.7.001 3.591-1.825 5.802-4.772 6.572zm-2.2-10.1H132.8v7.213h6.328c2.171 0 3.691-1.154 3.691-3.59a3.377 3.377 0 0 0-3.695-3.621z" transform="translate(-100.223 -1.203)"/><path id="bsPath_837" data-name="Path 837" class="bscls-1" d="M141.327 14.827L145.762 24h-3.753l-4.312-8.88h-4.9V24h-3.2V1.555h9.523c3.784 0 6.979 2.084 6.979 6.7.001 3.591-1.825 5.802-4.772 6.572zm-2.2-10.1H132.8v7.213h6.328c2.171 0 3.691-1.154 3.691-3.59a3.377 3.377 0 0 0-3.695-3.621z" transform="translate(-100.223 -1.203)"/><path id="bsPath_838" data-name="Path 838" class="bscls-1" d="M229.239 23.145c-5.615 0-9.182-4.777-9.182-11.573S223.625 0 229.239 0c5.646 0 9.213 4.776 9.213 11.573s-3.567 11.572-9.213 11.572zm0-19.779c-3.784 0-5.862 3.174-5.862 8.207s2.078 8.207 5.862 8.207c3.816 0 5.894-3.174 5.894-8.207s-2.078-8.207-5.894-8.207z" transform="translate(-170.174)"/><path id="bsPath_839" data-name="Path 839" class="bscls-1" d="M229.239 23.145c-5.615 0-9.182-4.777-9.182-11.573S223.625 0 229.239 0c5.646 0 9.213 4.776 9.213 11.573s-3.567 11.572-9.213 11.572zm0-19.779c-3.784 0-5.862 3.174-5.862 8.207s2.078 8.207 5.862 8.207c3.816 0 5.894-3.174 5.894-8.207s-2.078-8.207-5.894-8.207z" transform="translate(-170.174)"/><path id="bsPath_840" data-name="Path 840" class="bscls-1" d="M229.239 23.145c-5.615 0-9.182-4.777-9.182-11.573S223.625 0 229.239 0c5.646 0 9.213 4.776 9.213 11.573s-3.567 11.572-9.213 11.572zm0-19.779c-3.784 0-5.862 3.174-5.862 8.207s2.078 8.207 5.862 8.207c3.816 0 5.894-3.174 5.894-8.207s-2.078-8.207-5.894-8.207z" transform="translate(-170.174)"/><path id="bsPath_841" data-name="Path 841" class="bscls-1" d="M324.258 23.145a9.921 9.921 0 0 1-7.724-3.622l2.327-2.34a7.826 7.826 0 0 0 5.645 2.661c3.04 0 4.5-1.09 4.5-3.27 0-1.731-1.272-2.6-4.9-3.719-4.591-1.41-6.793-2.6-6.793-6.6 0-3.879 3.164-6.251 7.165-6.251a9.575 9.575 0 0 1 7.1 3.046l-2.3 2.4a6.472 6.472 0 0 0-5.051-2.15c-2.544 0-3.63 1.282-3.63 2.789 0 1.571.993 2.34 4.746 3.494 4.28 1.347 6.948 2.757 6.948 6.764.001 4.041-2.481 6.798-8.033 6.798z" transform="translate(-244.781)"/><path id="bsPath_842" data-name="Path 842" class="bscls-1" d="M324.258 23.145a9.921 9.921 0 0 1-7.724-3.622l2.327-2.34a7.826 7.826 0 0 0 5.645 2.661c3.04 0 4.5-1.09 4.5-3.27 0-1.731-1.272-2.6-4.9-3.719-4.591-1.41-6.793-2.6-6.793-6.6 0-3.879 3.164-6.251 7.165-6.251a9.575 9.575 0 0 1 7.1 3.046l-2.3 2.4a6.472 6.472 0 0 0-5.051-2.15c-2.544 0-3.63 1.282-3.63 2.789 0 1.571.993 2.34 4.746 3.494 4.28 1.347 6.948 2.757 6.948 6.764.001 4.041-2.481 6.798-8.033 6.798z" transform="translate(-244.781)"/><path id="bsPath_843" data-name="Path 843" class="bscls-1" d="M324.258 23.145a9.921 9.921 0 0 1-7.724-3.622l2.327-2.34a7.826 7.826 0 0 0 5.645 2.661c3.04 0 4.5-1.09 4.5-3.27 0-1.731-1.272-2.6-4.9-3.719-4.591-1.41-6.793-2.6-6.793-6.6 0-3.879 3.164-6.251 7.165-6.251a9.575 9.575 0 0 1 7.1 3.046l-2.3 2.4a6.472 6.472 0 0 0-5.051-2.15c-2.544 0-3.63 1.282-3.63 2.789 0 1.571.993 2.34 4.746 3.494 4.28 1.347 6.948 2.757 6.948 6.764.001 4.041-2.481 6.798-8.033 6.798z" transform="translate(-244.781)"/></g></svg><svg width="20" height="20" viewBox="0 0 20 20" id="socials_edu" x="2491" xmlns="http://www.w3.org/2000/svg"><path data-name="Rectangle 725" fill="#03a5ed" d="M0 0h20v20H0z"/><g data-name="Group 2374"><g data-name="Group 2373" fill="#fff"><path data-name="Path 1961" d="M17.4 8.4v-.3L10 4.5 2.6 8.1v.3L10 12z"/><path data-name="Path 1962" d="M5.2 10.3v2.1l4.4 2.1h.7l4.4-2.1v-2.1L10 12.6z"/><path data-name="Path 1963" d="M16.6 13.5V9.4l-.6.3v3.8l-.4 1.2.6.8h.2l.6-.8z"/></g></g></svg><svg width="20" height="20" viewBox="0 0 20 20" id="socials_github" x="2511" xmlns="http://www.w3.org/2000/svg"><path data-name="Rectangle 726" fill="#03a5ed" d="M0 0h20v20H0z"/><path data-name="Path 1964" d="M14.6 4.3a.783.783 0 0 0-.8.1 2.471 2.471 0 0 0-.9.4l-.5.2a6.8 6.8 0 0 0-2-.2 4.71 4.71 0 0 0-2 .2.52.52 0 0 0-.4-.2 3.508 3.508 0 0 0-.8-.5 3.445 3.445 0 0 0-.9-.1 1.983 1.983 0 0 0-.1 2.1 3.118 3.118 0 0 0-.9 2.1 7.719 7.719 0 0 0 .2 1.5 3 3 0 0 0 .6 1.1 5.716 5.716 0 0 0 .8.7 3.552 3.552 0 0 0 .9.4 3.553 3.553 0 0 0 1 .2 1.433 1.433 0 0 0-.5 1.1l-.4.2c-.2 0-.4.1-.6.1a1.854 1.854 0 0 1-.7-.2 2.169 2.169 0 0 1-.6-.7c-.2-.2-.3-.4-.5-.6-.2-.1-.3-.2-.5-.2l-.2-.1c-.2 0-.2 0-.3.1a.349.349 0 0 0-.1.2c0 .1.1.1.1.2.1.1.1.1.2.1l.1.1c.2 0 .3.2.4.3.2.2.2.4.3.6l.1.2a2.506 2.506 0 0 0 .4.7c.2.2.4.2.7.3a1.7 1.7 0 0 0 .7.1 1.268 1.268 0 0 0 .6-.1l.2-.2V16h4.2v-2.1a1.816 1.816 0 0 0-.6-1.4 3.553 3.553 0 0 0 1-.2 2.471 2.471 0 0 0 .9-.4 2.7 2.7 0 0 0 .8-.7 10.908 10.908 0 0 0 .6-1.1 3.887 3.887 0 0 0 .2-1.5 3.163 3.163 0 0 0-.8-2.2 2.253 2.253 0 0 0 .1-2.1z" fill="#fff"/></svg><svg width="20" height="20" viewBox="0 0 20 20" id="socials_linkedin" x="2531" xmlns="http://www.w3.org/2000/svg"><path data-name="Rectangle 722" fill="#03a5ed" d="M0 0h20v20H0z"/><g data-name="Group 2372"><path data-name="Path 1960" d="M15.6 11.2v4.1h-2.4v-3.8c0-1-.3-1.6-1.2-1.6a1.123 1.123 0 0 0-1.2.9 1.268 1.268 0 0 0-.1.6v4H8.3V8.2h2.4v1A2.327 2.327 0 0 1 12.8 8c1.6 0 2.8 1 2.8 3.2zM5.8 4.7a1.272 1.272 0 0 0-1.4 1.2 1.184 1.184 0 0 0 1.3 1.2 1.337 1.337 0 0 0 1.4-1.2 1.184 1.184 0 0 0-1.3-1.2zM4.6 15.3H7V8.1H4.6z" fill="#fff"/></g></svg><svg width="20" height="20" viewBox="0 0 20 20" id="socials_medium" x="2551" xmlns="http://www.w3.org/2000/svg"><path data-name="Rectangle 724" fill="#03a5ed" d="M0 0h20v20H0z"/><path d="M5.216 7.09c0-.2 0-.3-.2-.4l-1.2-1.4v-.2h3.6l2.8 6.1 2.5-6.1h3.4v.2l-1 1a.367.367 0 0 0-.1.3v7a.367.367 0 0 0 .1.3l1 1v.2h-4.9v-.2l1-1c.1-.1.1-.1.1-.3v-5.7l-2.8 7.1h-.4l-3.3-7.1v4.8c0 .2 0 .4.2.5l1.3 1.6v.2h-3.7v-.2l1.3-1.6a.764.764 0 0 0 .2-.5l.1-5.6z" fill="#fff"/></svg><svg width="20" height="20" viewBox="0 0 20 20" id="socials_twitter" x="2571" xmlns="http://www.w3.org/2000/svg"><path data-name="Rectangle 723" fill="#03a5ed" d="M0 0h20v20H0z"/><path d="M14.8 7.5v.3a7.088 7.088 0 0 1-6.9 7.1h-.1a7.938 7.938 0 0 1-3.9-1.1c.2 0 .4.1.6.1a5.711 5.711 0 0 0 3.1-1 2.494 2.494 0 0 1-2.4-1.7.9.9 0 0 0 .5.1c.2 0 .5 0 .6-.1a2.452 2.452 0 0 1-2-2.4v-.1a2.133 2.133 0 0 0 1.2.3 2.608 2.608 0 0 1-1.1-2.1 2.772 2.772 0 0 1 .3-1.3 7.089 7.089 0 0 0 5.1 2.6 1.267 1.267 0 0 1-.1-.6 2.6 2.6 0 0 1 2.4-2.5h.1a2.5 2.5 0 0 1 1.8.8 4.419 4.419 0 0 0 1.6-.6 3.008 3.008 0 0 1-1.1 1.4 5.726 5.726 0 0 0 1.4-.4 2.08 2.08 0 0 1-1.1 1.2z" fill="#fff"/></svg><svg viewBox="0 0 21.47 12.359" width="21.47" height="12.36" id="status-done" x="2591" xmlns="http://www.w3.org/2000/svg"><defs><style>.bycls-1{fill:#54ce63}</style></defs><g id="bycheck_1_" transform="translate(0 -126.229)"><g id="bydone-all_1_" transform="translate(0 126.229)"><path id="byPath_450_1_" class="bycls-1" d="M16.234 1.257L14.872 0l-5.76 5.76 1.257 1.257zM20.109 0l-9.74 9.74-3.876-3.875-1.256 1.362 5.132 5.132 11.1-11.1zM0 7.227l5.132 5.132L6.389 11.1 1.257 5.865z"/></g></g></svg><svg viewBox="0 0 18.696 18.772" width="18.7" height="18.77" id="status-progress" x="2613" xmlns="http://www.w3.org/2000/svg"><defs><style>.bzcls-1{fill:#f15a24}</style></defs><g id="bzicon-gear_1_" transform="translate(0 -.001)"><g id="bzGroup_2169_1_" transform="translate(0 .001)"><path id="bzPath_1784_1_" class="bzcls-1" d="M17.812 7.421L16.5 7.16l-.524-1.31.788-1.05a1.1 1.1 0 0 0-.175-1.484l-1.135-1.133a.948.948 0 0 0-.786-.349 2.055 2.055 0 0 0-.7.175l-1.048.786a4.116 4.116 0 0 0-1.31-.524L11.35.96A1.209 1.209 0 0 0 10.215 0H8.557a1.136 1.136 0 0 0-1.136.96L7.16 2.27a8.812 8.812 0 0 0-1.31.611L4.8 2.1a1.081 1.081 0 0 0-1.484.087L2.1 3.318a1.307 1.307 0 0 0-.087 1.572l.786 1.135c-.175.349-.349.786-.524 1.222L.96 7.421A1.231 1.231 0 0 0 0 8.644V10.3a1.136 1.136 0 0 0 .96 1.135l1.31.262.524 1.31-.7.96a1.18 1.18 0 0 0 .087 1.484l1.135 1.135a.948.948 0 0 0 .786.349 2.055 2.055 0 0 0 .7-.175l1.135-.786c.437.175.786.349 1.222.524l.262 1.31a1.209 1.209 0 0 0 1.135.96h1.659a1.136 1.136 0 0 0 1.135-.96l.262-1.31 1.31-.524 1.048.786a.941.941 0 0 0 .7.175.851.851 0 0 0 .786-.349l1.135-1.135a1.086 1.086 0 0 0 .087-1.484l-.786-1.048a8.194 8.194 0 0 0 .524-1.31l1.31-.262a1.209 1.209 0 0 0 .96-1.135V8.557a1.051 1.051 0 0 0-.874-1.136zm-.087 2.794c0 .087 0 .087-.087.087l-1.659.262a.58.58 0 0 0-.437.349 5.58 5.58 0 0 1-.7 1.659.746.746 0 0 0 0 .611l.96 1.4v.175l-1.135 1.135h-.175l-1.4-.96a.746.746 0 0 0-.611 0 9.462 9.462 0 0 1-1.659.7c-.175.087-.349.175-.349.437l-.262 1.659a.086.086 0 0 1-.087.087H8.557c-.087 0-.087 0-.087-.087l-.262-1.659a.58.58 0 0 0-.349-.437 5.092 5.092 0 0 1-1.572-.7.66.66 0 0 0-.349-.087.321.321 0 0 0-.262.087l-1.4.96H4.1l-1.131-1.137v-.175l.96-1.4a.746.746 0 0 0 0-.611 5.58 5.58 0 0 1-.7-1.659.58.58 0 0 0-.437-.349L1.135 10.3a.086.086 0 0 1-.087-.087V8.644c0-.087 0-.087.087-.087l1.659-.262a.58.58 0 0 0 .437-.349 5.58 5.58 0 0 1 .7-1.659.746.746 0 0 0 0-.611l-1.048-1.4V4.1l1.133-1.131h.175l1.31.96a.746.746 0 0 0 .611 0 5.58 5.58 0 0 1 1.659-.7.58.58 0 0 0 .349-.437l.262-1.659a.086.086 0 0 1 .087-.087h1.659c.087 0 .087 0 .087.087l.262 1.659a.58.58 0 0 0 .349.437 5.58 5.58 0 0 1 1.659.7.746.746 0 0 0 .611 0l1.4-.96h.175L15.8 4.1v.175l-.96 1.4a.746.746 0 0 0 0 .611 9.462 9.462 0 0 1 .7 1.659c.087.175.175.349.437.349l1.659.262a.086.086 0 0 1 .087.087v1.572z"/><path id="bzPath_1785_1_" class="bzcls-1" d="M10.216 6.1A4.006 4.006 0 0 0 6.2 10.116a4.016 4.016 0 1 0 8.033 0A4.062 4.062 0 0 0 10.216 6.1zm0 7.072a2.969 2.969 0 1 1 2.969-2.972 3 3 0 0 1-2.969 2.969z" transform="translate(-.787 -.774)"/></g></g></svg><svg viewBox="0 0 18.875 18.772" width="18.88" height="18.77" id="status-waiting" x="2632" xmlns="http://www.w3.org/2000/svg"><defs><style>.cacls-1{fill:#fff}</style></defs><g id="caicon-time_1_" transform="translate(.011 -1.715)"><g id="caLayer_2_1_" transform="translate(-.011 1.715)"><g id="caGroup_2170_1_"><path id="caPath_1786_1_" class="cacls-1" d="M12.936 19.792a3.748 3.748 0 0 0-.433.087.747.747 0 1 0 .26 1.471c.173 0 .346-.087.519-.087a.693.693 0 0 0 .519-.952.617.617 0 0 0-.865-.519z" transform="translate(-1.59 -2.68)"/><path id="caPath_1787_1_" class="cacls-1" d="M19.578 7.776a.767.767 0 1 0 1.471-.433c-.087-.173-.087-.346-.173-.519a.739.739 0 0 0-1.385.519c-.091.173 0 .257.087.433z" transform="translate(-2.607 -.876)"/><path id="caPath_1788_1_" class="cacls-1" d="M15.779 18.481c-.173.087-.26.173-.433.26a.8.8 0 0 0-.26 1.038.725.725 0 0 0 1.038.26l.519-.26a.719.719 0 0 0 .173-1.038.741.741 0 0 0-1.038-.26z" transform="translate(-2.01 -2.494)"/><path id="caPath_1789_1_" class="cacls-1" d="M21.558 10.39a.662.662 0 0 0-.779-.692c-.433.087-.779.346-.779.692v.519a.779.779 0 0 0 1.558 0z" transform="translate(-2.683 -1.327)"/><path id="caPath_1790_1_" class="cacls-1" d="M19.169 16.177a.719.719 0 0 0-1.038.173c-.087.087-.173.26-.26.346a.707.707 0 0 0 .087 1.038h.087a.788.788 0 0 0 1.038-.087c.087-.173.26-.26.346-.433a.826.826 0 0 0-.26-1.038z" transform="translate(-2.372 -2.181)"/><path id="caPath_1791_1_" class="cacls-1" d="M20.516 13a.746.746 0 0 0-.952.519c-.087.173-.087.346-.173.433a.705.705 0 0 0 .433.952c.346.087.865-.087.952-.433a1.23 1.23 0 0 0 .173-.519.7.7 0 0 0-.433-.952z" transform="translate(-2.594 -1.77)"/><path id="caPath_1792_1_" class="cacls-1" d="M8.047 17.225a7 7 0 0 1-1.9-.606c-.173-.087-.26-.173-.433-.26-.26-.173-.519-.26-.779-.433A7.93 7.93 0 0 1 2.941 4.85a8.358 8.358 0 0 1 1.99-1.9 7.967 7.967 0 0 1 8.913-.087l-.606.865c-.173.26-.087.433.26.346l2.6-.26a.409.409 0 0 0 .433-.433v-.089l-.696-2.51C15.749.523 15.575.436 15.4.7l-.606.865A10.061 10.061 0 0 0 7.787.177a1.63 1.63 0 0 0-.692.173A9.284 9.284 0 0 0 1.9 3.811c-.087.087-.173.087-.173.173a.45.45 0 0 0-.173.346A8.993 8.993 0 0 0 0 9.869a1.689 1.689 0 0 0 .087.606c0 .173.087.346.087.606a9.637 9.637 0 0 0 2.6 5.106 15.067 15.067 0 0 0 1.212 1.038A10.041 10.041 0 0 0 7.7 18.783a.8.8 0 0 0 .346-1.558z" transform="translate(.011 -.027)"/><path id="caPath_1793_1_" class="cacls-1" d="M10.306 3.8a.592.592 0 0 0-.606.606v6.144l5.625 2.856a.639.639 0 1 0 .606-1.125L11 9.771V4.406a.82.82 0 0 0-.694-.606z" transform="translate(-1.296 -.535)"/></g></g></g></svg><svg viewBox="0 0 24.298 21.155" width="24.3" height="21.16" id="telegram" x="2651" xmlns="http://www.w3.org/2000/svg"><defs><style>.cbcls-1{fill:#03a5ed}</style></defs><g id="cbtelegram"><path id="cbXMLID_497_" class="cbcls-1" d="M.429 29.544l5.6 2.09L8.2 38.6a.659.659 0 0 0 1.047.315l3.121-2.544a.931.931 0 0 1 1.135-.032l5.629 4.087a.66.66 0 0 0 1.034-.4L24.284 20.2a.66.66 0 0 0-.884-.75L.423 28.31a.66.66 0 0 0 .006 1.234zm7.417.977l10.942-6.739a.191.191 0 0 1 .23.3l-9.03 8.394a1.872 1.872 0 0 0-.58 1.12L9.1 35.878a.283.283 0 0 1-.552.04l-1.184-4.157a1.1 1.1 0 0 1 .482-1.239z" transform="translate(0 -19.401)"/></g></svg><svg viewBox="0 0 22.298 18.096" width="22.3" height="18.1" id="twitter" x="2676" xmlns="http://www.w3.org/2000/svg"><defs><style>.cccls-1{fill:#03a5ed}</style></defs><g id="cctwitter" transform="translate(-5.8 -8)"><g id="ccGroup_178" data-name="Group 178" transform="translate(5.8 8)"><path id="ccPath_458" data-name="Path 458" class="cccls-1" d="M25.814 12.569v.548a12.874 12.874 0 0 1-12.977 12.978A13.422 13.422 0 0 1 5.8 24.084c.366 0 .731.091 1.1.091a9.409 9.409 0 0 0 5.666-1.919 4.613 4.613 0 0 1-4.3-3.2 2.53 2.53 0 0 0 .822.091 4.63 4.63 0 0 0 1.188-.183 4.6 4.6 0 0 1-3.656-4.478V14.4a4.006 4.006 0 0 0 2.1.548 4.629 4.629 0 0 1-2.011-3.838 3.926 3.926 0 0 1 .64-2.285 12.975 12.975 0 0 0 9.413 4.752 3.749 3.749 0 0 1-.091-1A4.525 4.525 0 0 1 21.245 8a4.424 4.424 0 0 1 3.29 1.462 8.755 8.755 0 0 0 2.924-1.1 5.081 5.081 0 0 1-2.011 2.559 8.784 8.784 0 0 0 2.65-.731 8.113 8.113 0 0 1-2.284 2.379z" transform="translate(-5.8 -8)"/></g></g></svg><svg viewBox="0 0 24.199 17.032" width="24.2" height="17.03" id="youtube" x="2699" xmlns="http://www.w3.org/2000/svg"><defs><style>.cdcls-1{fill:#03a5ed}</style></defs><g id="cdyoutube" transform="translate(0 -45.917)"><path id="cdXMLID_823_" class="cdcls-1" d="M23.257 47.379c-.874-1.038-2.486-1.462-5.567-1.462H6.51c-3.151 0-4.791.451-5.661 1.556C0 48.551 0 50.14 0 52.338v4.19c0 4.259 1.007 6.421 6.51 6.421h11.18c2.671 0 4.151-.374 5.109-1.29.982-.94 1.4-2.474 1.4-5.131v-4.19c.001-2.318-.064-3.916-.942-4.959zm-7.72 7.632l-5.077 2.654a.781.781 0 0 1-1.142-.692v-5.29a.781.781 0 0 1 1.14-.693l5.077 2.636a.781.781 0 0 1 0 1.385z"/></g></svg></svg>