<?xml version="1.0" encoding="utf-8"?><svg width="624" height="58.02" viewBox="0 0 624 58.02" xmlns="http://www.w3.org/2000/svg" xmlns:xlink="http://www.w3.org/1999/xlink"><svg viewBox="7739.251 2796.09 100.234 23.44" width="100.23" height="23.44" id="aira" xmlns="http://www.w3.org/2000/svg"><defs><style>.acls-1{fill:#fff}</style></defs><g id="aGroup_770" data-name="Group 770" transform="translate(7739.251 2796.09)"><path id="aRectangle_378" data-name="Rectangle 378" class="acls-1" transform="translate(11.385 11.832)" d="M0 0h.372v9.45H0z"/><path id="aRectangle_379" data-name="Rectangle 379" class="acls-1" transform="translate(21.133 2.158)" d="M0 0h.372v19.198H0z"/><path id="aRectangle_380" data-name="Rectangle 380" class="acls-1" transform="rotate(-45 26.572 8.198)" d="M0 0h27.086v.372H0z"/><path id="aRectangle_381" data-name="Rectangle 381" class="acls-1" transform="translate(2.158 21.133)" d="M0 0h19.198v.372H0z"/><path id="aRectangle_382" data-name="Rectangle 382" class="acls-1" transform="rotate(-44.21 31.762 -3.513)" d="M0 0h13.543v.372H0z"/><path id="aPath_821" data-name="Path 821" class="acls-1" d="M62.459 23.026c-.819-2.307-1.637-4.39-2.381-6.4-.744-1.935-1.488-3.8-2.158-5.581s-1.414-3.5-2.084-5.06-1.414-3.2-2.158-4.837L53.6 1h-3.2l-.074.223a136.02 136.02 0 0 0-2.158 4.762c-.67 1.637-1.414 3.349-2.084 5.06-.67 1.786-1.414 3.646-2.158 5.581s-1.488 4.093-2.381 6.4l-.145.374h3.8l2-5.434h9.45c.3.6.6 1.711.893 2.53.3.967.67 1.86 1.042 2.753l.074.149h3.944zm-6.92-8.111h-7.293a132.53 132.53 0 0 1 1.786-4.986c.6-1.488 1.191-2.976 1.786-4.316.6 1.414 1.191 2.9 1.786 4.39.669 1.564 1.339 3.126 1.934 4.912z" transform="translate(-10.593 -.256)"/><path id="aRectangle_383" data-name="Rectangle 383" class="acls-1" transform="translate(54.172 .744)" d="M0 0h3.646v22.398H0z"/><path id="aPath_822" data-name="Path 822" class="acls-1" d="M98.343 22.975a18.213 18.213 0 0 0-1.414-2.6c-.521-.893-1.116-1.786-1.637-2.6s-1.116-1.563-1.637-2.307c-.372-.521-.744-.967-1.042-1.339a7.052 7.052 0 0 0 3.125-2.232 6.144 6.144 0 0 0 1.191-3.869A6.29 6.29 0 0 0 94.4 2.586C92.762 1.4 90.306.8 87.181.8c-.893 0-1.86.074-2.9.074a14.371 14.371 0 0 0-2.679.446v22.027h3.646v-8.483h3.5c.372.446.819.967 1.265 1.563.521.67.967 1.339 1.488 2.084s.967 1.563 1.488 2.307a19.2 19.2 0 0 1 1.336 2.382l.074.149h4.018zM92.762 9.953a2.873 2.873 0 0 1-1.191 1.116 4.928 4.928 0 0 1-2.009.6c-.819.074-1.786.223-2.828.223H85.4V4.149a21.774 21.774 0 0 1 2.456-.074 19.658 19.658 0 0 1 2.158.149 5.8 5.8 0 0 1 1.711.6 2.873 2.873 0 0 1 1.116 1.191 3.625 3.625 0 0 1 .446 1.86 5.013 5.013 0 0 1-.525 2.078z" transform="translate(-20.879 -.205)"/><path id="aPath_823" data-name="Path 823" class="acls-1" d="M127.333 23.026c-.819-2.307-1.637-4.39-2.381-6.4-.744-1.935-1.488-3.869-2.158-5.581-.67-1.786-1.414-3.5-2.084-5.06s-1.414-3.2-2.158-4.837L118.4 1h-3.2l-.074.223a136.02 136.02 0 0 0-2.158 4.762c-.67 1.637-1.414 3.349-2.084 5.06s-1.414 3.646-2.158 5.581-1.488 4.093-2.381 6.4l-.149.372H110l2-5.432h9.45c.3.6.6 1.711.893 2.53.3.967.67 1.786 1.042 2.753l.074.149h3.944zm-6.92-8.111h-7.293a132.53 132.53 0 0 1 1.786-4.986c.6-1.488 1.191-2.976 1.786-4.316.6 1.414 1.191 2.9 1.786 4.39.67 1.564 1.265 3.126 1.935 4.912z" transform="translate(-27.174 -.256)"/><circle id="aEllipse_212" data-name="Ellipse 212" class="acls-1" cx="2.158" cy="2.158" r="2.158" transform="translate(19.124 19.124)"/><circle id="aEllipse_213" data-name="Ellipse 213" class="acls-1" cx="2.158" cy="2.158" r="2.158" transform="translate(19.124)"/><circle id="aEllipse_214" data-name="Ellipse 214" class="acls-1" cx="2.158" cy="2.158" r="2.158" transform="translate(19.124 9.525)"/><circle id="aEllipse_215" data-name="Ellipse 215" class="acls-1" cx="2.158" cy="2.158" r="2.158" transform="translate(0 19.124)"/><circle id="aEllipse_216" data-name="Ellipse 216" class="acls-1" cx="2.158" cy="2.158" r="2.158" transform="translate(9.525 19.124)"/><circle id="aEllipse_217" data-name="Ellipse 217" class="acls-1" cx="2.158" cy="2.158" r="2.158" transform="translate(9.525 9.674)"/></g></svg><svg viewBox="10353.747 491.006 15.083 17.085" width="15.08" height="17.09" id="anchor" x="101" xmlns="http://www.w3.org/2000/svg"><defs><style>.bcls-1{fill:#03a5ed}</style></defs><g id="banchor" transform="translate(10323.749 491.006)"><g id="bGroup_2004" data-name="Group 2004" transform="translate(29.998)"><path id="bPath_1712" data-name="Path 1712" class="bcls-1" d="M44.778 9.319l-1.535-1a.667.667 0 0 0-1.032.559v2.2a4.679 4.679 0 0 1-4 4.624V4.574a2.336 2.336 0 1 0-1.335 0V15.7a4.679 4.679 0 0 1-4-4.624v-2.2a.667.667 0 0 0-1.032-.559l-1.535 1a.667.667 0 1 0 .729 1.118l.5-.328v.97a6.007 6.007 0 1 0 12.013 0v-.97l.5.328a.667.667 0 1 0 .729-1.118zm-8.24-6.983a1 1 0 1 1 1 1 1 1 0 0 1-1-1z" transform="translate(-29.998)"/></g></g></svg><svg viewBox="7676 2778.975 35.837 58.018" width="35.84" height="58.02" id="ethereum" x="117" xmlns="http://www.w3.org/2000/svg"><defs><style>.ccls-1{fill:#fff}.ccls-2{opacity:.6}.ccls-3{clip-path:url(#cclip-path)}.ccls-4{opacity:.8}.ccls-5{clip-path:url(#cclip-path-2)}.ccls-6{opacity:.45}.ccls-7{clip-path:url(#cclip-path-3)}.ccls-8{clip-path:url(#cclip-path-4)}</style><clipPath id="cclip-path"><path id="cRectangle_2" data-name="Rectangle 2" d="M0 0h35.644v18.597H0z"/></clipPath><clipPath id="cclip-path-2"><path id="cRectangle_4" data-name="Rectangle 4" d="M0 0h17.822v40.099H0z"/></clipPath><clipPath id="cclip-path-3"><path id="cRectangle_5" data-name="Rectangle 5" class="ccls-1" d="M0 0h17.822v25.086H0z"/></clipPath><clipPath id="cclip-path-4"><path id="cRectangle_6" data-name="Rectangle 6" d="M0 0h17.822v25.086H0z"/></clipPath></defs><g id="cGroup_769" data-name="Group 769" transform="translate(7676 2778.975)"><g id="cGroup_12" data-name="Group 12" class="ccls-2" transform="translate(0 21.503)"><g id="cGroup_11" data-name="Group 11"><g id="cGroup_10" data-name="Group 10" class="ccls-3"><path id="cPath_5" data-name="Path 5" class="ccls-1" d="M17.822 22.2L0 30.239 17.822 40.8l17.822-10.561z" transform="translate(0 -22.2)"/></g></g></g><g id="cGroup_18" data-name="Group 18" class="ccls-4" transform="translate(18.016)"><g id="cGroup_17" data-name="Group 17"><g id="cGroup_16" data-name="Group 16" class="ccls-5"><path id="cPath_7" data-name="Path 7" class="ccls-1" d="M18.6 0v40.1l17.822-10.558z" transform="translate(-18.6)"/></g></g></g><g id="cGroup_21" data-name="Group 21" class="ccls-6" transform="translate(0 32.932)"><g id="cGroup_20" data-name="Group 20"><g id="cGroup_19" data-name="Group 19" class="ccls-7"><path id="cPath_8" data-name="Path 8" class="ccls-1" d="M0 34l17.822 25.086V44.558z" transform="translate(0 -34)"/></g></g></g><g id="cGroup_24" data-name="Group 24" class="ccls-4" transform="translate(17.822 32.932)"><g id="cGroup_23" data-name="Group 23"><g id="cGroup_22" data-name="Group 22" class="ccls-8"><path id="cPath_9" data-name="Path 9" class="ccls-1" d="M18.4 44.558v14.528L36.222 34z" transform="translate(-18.4 -34)"/></g></g></g><g id="cGroup_15" data-name="Group 15" class="ccls-6" transform="translate(.194)"><g id="cGroup_14" data-name="Group 14"><g id="cGroup_13" data-name="Group 13" class="ccls-5"><path id="cPath_6" data-name="Path 6" class="ccls-1" d="M.2 29.542L18.022 40.1V0z" transform="translate(-.2)"/></g></g></g></g></svg><svg viewBox="10153.18 931.326 13.131 18.674" width="13.13" height="18.67" id="expand-arrow" x="153" xmlns="http://www.w3.org/2000/svg"><defs><style>.dcls-1{fill:#f15a24}</style></defs><path id="dright-arrow" class="dcls-1" d="M12.575 4.871a.662.662 0 0 0-.941.932l4.772 4.772H.659a.656.656 0 0 0-.659.66.663.663 0 0 0 .659.668h15.747l-4.772 4.763a.676.676 0 0 0 0 .941.659.659 0 0 0 .941 0l5.9-5.9a.648.648 0 0 0 0-.932z" transform="rotate(90 4619.829 5551.155)"/></svg><svg viewBox="0 0 21.318 25.581" width="21.32" height="25.58" id="hourglass" x="167" xmlns="http://www.w3.org/2000/svg"><path data-name="Path 1727" d="M20.891 24.729h-1.279v-1.706h-2.131v-4.358a3.43 3.43 0 0 0-1.53-2.859l-4.523-3.015 4.522-3.016a3.43 3.43 0 0 0 1.53-2.859V2.558h2.132V.853h1.279a.426.426 0 0 0 0-.853H.426a.426.426 0 1 0 0 .853h1.279v1.705h2.132v4.358a3.43 3.43 0 0 0 1.53 2.859L9.89 12.79l-4.523 3.015a3.43 3.43 0 0 0-1.53 2.859v4.358H1.705v1.705H.426a.426.426 0 1 0 0 .853h20.465a.426.426 0 0 0 0-.853zM2.558 1.705V.853h16.2v.853h-16.2zM5.84 9.066a2.58 2.58 0 0 1-1.15-2.15V2.558h11.938v4.358a2.58 2.58 0 0 1-1.15 2.15l-4.819 3.212zm-1.15 9.6a2.58 2.58 0 0 1 1.15-2.15l4.819-3.216 4.819 3.212a2.58 2.58 0 0 1 1.15 2.15v4.358H4.69zm-2.132 5.21h16.2v.853h-16.2z"/><path data-name="Path 1728" d="M6.787 7.643a.877.877 0 0 1-.391-.731v-.947a.426.426 0 1 0-.853 0v.947a1.727 1.727 0 0 0 .771 1.44L8.291 9.67a.426.426 0 1 0 .473-.709z"/><path data-name="Path 1729" d="M15.004 17.592l-1.977-1.318a.426.426 0 1 0-.473.709l1.977 1.319a.876.876 0 0 1 .391.731v.947a.426.426 0 0 0 .853 0v-.948a1.726 1.726 0 0 0-.771-1.44z"/></svg><svg viewBox="7981.091 2785.672 103.476 45.02" width="103.48" height="45.02" id="ipfs" x="189" xmlns="http://www.w3.org/2000/svg"><defs><style>.fcls-1{fill:#fff}</style></defs><g id="fipfs-logo-white" transform="translate(7981.091 2785.672)"><path id="fPath_844" data-name="Path 844" class="fcls-1" d="M69.511 515.51l-19.494 11.255v22.509l19.494 11.256 19.494-11.255v-22.51zm-1.351 41.925a3.388 3.388 0 0 0-.654.378l-14.134-8.161a3.377 3.377 0 0 0-2-3.472v-16.321a3.387 3.387 0 0 0 .654-.378l14.134 8.161a3.377 3.377 0 0 0 2 3.472zM67.5 535.3l-14.135-8.16a3.377 3.377 0 0 0 0-.755l14.135-8.164a3.377 3.377 0 0 0 4.01 0l14.134 8.161a3.365 3.365 0 0 0 0 .755L71.509 535.3a3.377 3.377 0 0 0-4.009 0zm20.156 10.792a3.376 3.376 0 0 0-2 3.472l-14.135 8.16a3.37 3.37 0 0 0-.654-.378l-.016-16.23a3.376 3.376 0 0 0 2-3.472L87 529.391a3.371 3.371 0 0 0 .654.378v16.321z" transform="translate(-50.017 -515.51)"/><g id="fGroup_775" data-name="Group 775" transform="translate(47.674 10.902)"><g id="fGroup_774" data-name="Group 774"><path id="fPath_845" data-name="Path 845" class="fcls-1" d="M1280.759 1172.145h-2.641v22.417h2.641z" transform="translate(-1278.118 -1171.685)"/><path id="fPath_846" data-name="Path 846" class="fcls-1" d="M1333.177 1182.893c-1.013 0-3.9-.031-3.9-.031v-8.353h4.637c2.764 0 4.76 1.075 4.76 3.716 0 2.242-.4 4.668-5.497 4.668zm-3.9 11.669v-9.581c1.136.092 2.733.215 3.654.215 6.633 0 8.445-2.856 8.445-7.032 0-4.33-3.255-6.019-7.524-6.019h-7.252v22.417z" transform="translate(-1318.998 -1171.685)"/><path id="fPath_847" data-name="Path 847" class="fcls-1" d="M1450.816 1182h-9.243v-7.554h9.55l.215-2.3h-12.406v22.417h2.641v-10.41h9.243V1182z" transform="translate(-1413.703 -1171.685)"/><path id="fPath_848" data-name="Path 848" class="fcls-1" d="M1534.159 1188.434a17 17 0 0 0 7.431 1.72c3.194 0 4.883-1.413 4.883-4.453 0-1.812-.737-3.04-3.593-3.746l-4.422-1.106c-3.1-.768-5.036-2.426-5.036-5.4 0-4.361 3.255-6.234 8.168-6.234a13.316 13.316 0 0 1 6.725 1.628l-.768 2.088a13.821 13.821 0 0 0-5.988-1.413c-3.562 0-5.435 1.2-5.435 3.777 0 1.75 1.167 2.7 3.316 3.224l4.207 1.013c3.347.8 5.5 2.426 5.5 6.08 0 4.668-3.133 6.817-7.708 6.817a16.049 16.049 0 0 1-8.046-1.843l.768-2.15z" transform="translate(-1493.343 -1169.21)"/></g></g></g></svg><svg viewBox="7676.477 2857.481 121.403 36.648" width="121.4" height="36.65" id="nixos" x="293" xmlns="http://www.w3.org/2000/svg"><defs><style>.gcls-1{fill:#5277c3}.gcls-1,.gcls-2,.gcls-3{fill-rule:evenodd}.gcls-2{fill:#7ebae4}.gcls-3{fill:url(#glinear-gradient)}.gcls-4{fill:#fff}</style><linearGradient id="glinear-gradient" x1="-.411" y1="5.004" x2=".135" y2="5.733" gradientUnits="objectBoundingBox"><stop offset="0" stop-color="#fff"/><stop offset=".243" stop-color="#7eb1dd"/><stop offset="1" stop-color="#7ebae4"/></linearGradient></defs><g id="gNixOS-logo" transform="translate(7659.991 2845.217)"><g id="glayer1" transform="translate(17.065 13.268)"><path id="gpath4861" class="gcls-1" d="M271.09-710.252l9.745 16.88-4.478.042-2.6-4.535-2.62 4.511h-2.227l-1.14-1.969 3.733-6.419-2.65-4.611z" transform="translate(-258.884 728.031)"/><path id="guse4863" class="gcls-2" d="M172.062-797.443l-9.746 16.879-2.276-3.857 2.627-4.521-5.217-.014-1.112-1.927 1.135-1.971 7.425.023 2.669-4.6z" transform="translate(-156.339 808.269)"/><path id="guse4865" class="gcls-2" d="M362.885-628.243h19.491l-2.2 3.9-5.228-.014 2.6 4.525-1.113 1.927h-2.275l-3.692-6.442-5.319-.011z" transform="translate(-346.414 652.562)"/><path id="guse4867" class="gcls-2" d="M392.691-916.268l-9.745-16.88 4.478-.042 2.6 4.535 2.62-4.511h2.225l1.14 1.969-3.733 6.419 2.65 4.611z" transform="translate(-364.875 933.191)"/><path id="gpath4873" class="gcls-1" d="M271.09-710.252l9.745 16.88-4.478.042-2.6-4.535-2.62 4.511h-2.227l-1.14-1.969 3.733-6.419-2.65-4.611z" transform="translate(-258.884 728.031)"/><path id="guse4875" class="gcls-1" d="M226.413-922.847h-19.491l2.2-3.9 5.228.014-2.6-4.525 1.113-1.927h2.275l3.692 6.442 5.319.011z" transform="translate(-202.888 933.187)"/><path id="guse4877" class="gcls-1" d="M460.872-828.626l9.746-16.88 2.276 3.857-2.627 4.521 5.217.014 1.112 1.927-1.135 1.971-7.425-.023-2.669 4.6z" transform="translate(-436.586 852.498)"/></g><g id="glayer3" transform="translate(16.486 12.265)"><path id="gpath3336-6" class="gcls-3" d="M271.236-710.388l9.745 16.88-4.478.042L273.9-698l-2.62 4.511h-2.225l-1.14-1.969 3.733-6.419L269-706.49z" transform="translate(-258.438 729.16)"/><path id="guse3439-6" class="gcls-3" d="M3.32 0l9.745 16.88-4.478.042-2.6-4.535L3.365 16.9H1.14L0 14.928 3.733 8.51 1.083 3.9z" transform="rotate(60 -.417 17.163)"/><path id="guse3445-0" class="gcls-3" d="M3.32 0l9.745 16.88-4.478.042-2.6-4.535L3.365 16.9H1.14L0 14.928 3.733 8.51 1.083 3.9z" transform="rotate(-60 32.112 .754)"/><path id="guse3449-5" class="gcls-3" d="M3.32 0l9.745 16.88-4.478.042-2.6-4.535L3.365 16.9H1.14L0 14.928 3.733 8.51 1.083 3.9z" transform="rotate(180 15.864 8.958)"/><path id="gpath4260-0" class="gcls-3" d="M271.236-710.388l9.745 16.88-4.478.042L273.9-698l-2.62 4.511h-2.225l-1.14-1.969 3.733-6.419L269-706.49z" transform="translate(-258.438 729.16)"/><path id="guse4354-5" class="gcls-3" d="M3.32 0l9.745 16.88-4.478.042-2.6-4.535L3.365 16.9H1.14L0 14.928 3.733 8.51 1.083 3.9z" transform="rotate(120 10.439 11.668)"/><path id="guse4362-2" class="gcls-3" d="M3.32 0l9.745 16.88-4.478.042-2.6-4.535L3.365 16.9H1.14L0 14.928 3.733 8.51 1.083 3.9z" transform="rotate(-120 21.272 6.213)"/></g><path id="gpath4683" class="gcls-4" d="M772.088-847.118h-2.458v11.154c0 1.575.063 4.065.158 6.837h-.094c-1.229-2.3-2.615-4.506-3.592-6.018l-7.719-11.973h-3.371v21.362h2.458v-11.154c0-1.575-.063-4.537-.158-7.278h.095c1.828 3.182 2.9 4.947 3.907 6.459l7.719 11.973h3.056z" transform="translate(-690.203 867.251)"/><path id="gpath4685" class="gcls-4" d="M1024.189-818.848h2.646V-834.1h-2.646zm1.323-17.487a1.627 1.627 0 0 0 1.638-1.638 1.627 1.627 0 0 0-1.638-1.638 1.627 1.627 0 0 0-1.638 1.638 1.627 1.627 0 0 0 1.638 1.638z" transform="translate(-937.625 860.342)"/><path id="gpath4687" class="gcls-4" d="M1107.436-770.47h-3.025l-3.718 5.608h-.095l-3.592-5.608h-3.277l5.451 7.436v.095l-5.64 7.719h3.025l3.97-6.049h.095l3.97 6.049h3.277l-5.766-7.845v-.095z" transform="translate(-1001.736 796.714)"/><path id="gpath4680" class="gcls-4" d="M1290.694-842.351c-5.015 0-9.138 4.038-9.138 10.759s4.123 10.758 9.138 10.758 9.138-4.038 9.138-10.758-4.123-10.759-9.138-10.759zm0 2.1c3.733 0 6.575 3.083 6.575 8.662s-2.842 8.662-6.575 8.662-6.575-3.083-6.575-8.662 2.842-8.665 6.575-8.665z" transform="translate(-1174.758 862.863)"/><path id="gpath4677" class="gcls-4" d="M1516.291-838.273c0 2.959 1.541 4.562 5.117 6.011 2.744 1.11 3.854 2.1 3.854 4.131 0 2.466-2 3.7-4.655 3.7a14.513 14.513 0 0 1-4.686-.8l-.277 2.127a14.1 14.1 0 0 0 4.84.771c4.131 0 7.583-2.1 7.583-6.319 0-2.929-1.788-4.347-5.395-5.8-2.4-.956-3.576-1.973-3.576-4.1 0-2.065 1.788-3.206 4.038-3.206a11.061 11.061 0 0 1 3.792.74l.277-2.1a11 11 0 0 0-4.223-.74c-3.792.005-6.689 2.194-6.689 5.585z" transform="translate(-1390.178 864.246)"/></g></svg><svg viewBox="0 0 27.964 19.657" width="27.96" height="19.66" id="ok" x="415" xmlns="http://www.w3.org/2000/svg"><defs><style>.hcls-1{fill:none;stroke:#fff;stroke-width:2px}</style></defs><path id="hPath_1730" data-name="Path 1730" class="hcls-1" d="M1020.475 1258.759l9.014 9.014 17.536-17.536" transform="translate(-1019.768 -1249.53)"/></svg><svg viewBox="7866.496 2796.09 87.511 23.145" width="87.51" height="23.15" id="ros" x="443" xmlns="http://www.w3.org/2000/svg"><defs><style>.icls-1{fill:#fff}</style></defs><g id="iros_logo" transform="translate(7866.496 2796.09)"><path id="iPath_826" data-name="Path 826" class="icls-1" d="M4.951 3.868a2.518 2.518 0 0 1-2.476 2.558A2.518 2.518 0 0 1 0 3.868 2.518 2.518 0 0 1 2.475 1.31a2.518 2.518 0 0 1 2.476 2.558z" transform="translate(0 -1.013)"/><path id="iPath_827" data-name="Path 827" class="icls-1" d="M4.951 42.326a2.518 2.518 0 0 1-2.476 2.558 2.56 2.56 0 0 1 0-5.116 2.518 2.518 0 0 1 2.476 2.558z" transform="translate(0 -30.753)"/><path id="iPath_828" data-name="Path 828" class="icls-1" d="M4.951 80.784a2.518 2.518 0 0 1-2.476 2.558 2.56 2.56 0 0 1 0-5.116 2.518 2.518 0 0 1 2.476 2.558z" transform="translate(0 -60.493)"/><path id="iPath_829" data-name="Path 829" class="icls-1" d="M43.057 42.326a2.477 2.477 0 1 1-2.476-2.558 2.518 2.518 0 0 1 2.476 2.558z" transform="translate(-29.468 -30.753)"/><path id="iPath_830" data-name="Path 830" class="icls-1" d="M43.057 3.868a2.477 2.477 0 1 1-4.951 0 2.477 2.477 0 1 1 4.951 0z" transform="translate(-29.468 -1.013)"/><path id="iPath_831" data-name="Path 831" class="icls-1" d="M81.164 42.326a2.477 2.477 0 1 1-2.476-2.558 2.518 2.518 0 0 1 2.476 2.558z" transform="translate(-58.937 -30.753)"/><path id="iPath_832" data-name="Path 832" class="icls-1" d="M81.164 3.868a2.477 2.477 0 1 1-4.951 0 2.477 2.477 0 1 1 4.951 0z" transform="translate(-58.937 -1.013)"/><path id="iPath_833" data-name="Path 833" class="icls-1" d="M81.164 80.784a2.477 2.477 0 1 1-2.476-2.558 2.518 2.518 0 0 1 2.476 2.558z" transform="translate(-58.937 -60.493)"/><path id="iPath_834" data-name="Path 834" class="icls-1" d="M43.057 80.784a2.477 2.477 0 1 1-2.476-2.558 2.518 2.518 0 0 1 2.476 2.558z" transform="translate(-29.468 -60.493)"/><path id="iPath_835" data-name="Path 835" class="icls-1" d="M141.327 14.827L145.762 24h-3.753l-4.312-8.88h-4.9V24h-3.2V1.555h9.523c3.784 0 6.979 2.084 6.979 6.7.001 3.591-1.825 5.802-4.772 6.572zm-2.2-10.1H132.8v7.213h6.328c2.171 0 3.691-1.154 3.691-3.59a3.377 3.377 0 0 0-3.695-3.621z" transform="translate(-100.223 -1.203)"/><path id="iPath_836" data-name="Path 836" class="icls-1" d="M141.327 14.827L145.762 24h-3.753l-4.312-8.88h-4.9V24h-3.2V1.555h9.523c3.784 0 6.979 2.084 6.979 6.7.001 3.591-1.825 5.802-4.772 6.572zm-2.2-10.1H132.8v7.213h6.328c2.171 0 3.691-1.154 3.691-3.59a3.377 3.377 0 0 0-3.695-3.621z" transform="translate(-100.223 -1.203)"/><path id="iPath_837" data-name="Path 837" class="icls-1" d="M141.327 14.827L145.762 24h-3.753l-4.312-8.88h-4.9V24h-3.2V1.555h9.523c3.784 0 6.979 2.084 6.979 6.7.001 3.591-1.825 5.802-4.772 6.572zm-2.2-10.1H132.8v7.213h6.328c2.171 0 3.691-1.154 3.691-3.59a3.377 3.377 0 0 0-3.695-3.621z" transform="translate(-100.223 -1.203)"/><path id="iPath_838" data-name="Path 838" class="icls-1" d="M229.239 23.145c-5.615 0-9.182-4.777-9.182-11.573S223.625 0 229.239 0c5.646 0 9.213 4.776 9.213 11.573s-3.567 11.572-9.213 11.572zm0-19.779c-3.784 0-5.862 3.174-5.862 8.207s2.078 8.207 5.862 8.207c3.816 0 5.894-3.174 5.894-8.207s-2.078-8.207-5.894-8.207z" transform="translate(-170.174)"/><path id="iPath_839" data-name="Path 839" class="icls-1" d="M229.239 23.145c-5.615 0-9.182-4.777-9.182-11.573S223.625 0 229.239 0c5.646 0 9.213 4.776 9.213 11.573s-3.567 11.572-9.213 11.572zm0-19.779c-3.784 0-5.862 3.174-5.862 8.207s2.078 8.207 5.862 8.207c3.816 0 5.894-3.174 5.894-8.207s-2.078-8.207-5.894-8.207z" transform="translate(-170.174)"/><path id="iPath_840" data-name="Path 840" class="icls-1" d="M229.239 23.145c-5.615 0-9.182-4.777-9.182-11.573S223.625 0 229.239 0c5.646 0 9.213 4.776 9.213 11.573s-3.567 11.572-9.213 11.572zm0-19.779c-3.784 0-5.862 3.174-5.862 8.207s2.078 8.207 5.862 8.207c3.816 0 5.894-3.174 5.894-8.207s-2.078-8.207-5.894-8.207z" transform="translate(-170.174)"/><path id="iPath_841" data-name="Path 841" class="icls-1" d="M324.258 23.145a9.921 9.921 0 0 1-7.724-3.622l2.327-2.34a7.826 7.826 0 0 0 5.645 2.661c3.04 0 4.5-1.09 4.5-3.27 0-1.731-1.272-2.6-4.9-3.719-4.591-1.41-6.793-2.6-6.793-6.6 0-3.879 3.164-6.251 7.165-6.251a9.575 9.575 0 0 1 7.1 3.046l-2.3 2.4a6.472 6.472 0 0 0-5.051-2.15c-2.544 0-3.63 1.282-3.63 2.789 0 1.571.993 2.34 4.746 3.494 4.28 1.347 6.948 2.757 6.948 6.764.001 4.041-2.481 6.798-8.033 6.798z" transform="translate(-244.781)"/><path id="iPath_842" data-name="Path 842" class="icls-1" d="M324.258 23.145a9.921 9.921 0 0 1-7.724-3.622l2.327-2.34a7.826 7.826 0 0 0 5.645 2.661c3.04 0 4.5-1.09 4.5-3.27 0-1.731-1.272-2.6-4.9-3.719-4.591-1.41-6.793-2.6-6.793-6.6 0-3.879 3.164-6.251 7.165-6.251a9.575 9.575 0 0 1 7.1 3.046l-2.3 2.4a6.472 6.472 0 0 0-5.051-2.15c-2.544 0-3.63 1.282-3.63 2.789 0 1.571.993 2.34 4.746 3.494 4.28 1.347 6.948 2.757 6.948 6.764.001 4.041-2.481 6.798-8.033 6.798z" transform="translate(-244.781)"/><path id="iPath_843" data-name="Path 843" class="icls-1" d="M324.258 23.145a9.921 9.921 0 0 1-7.724-3.622l2.327-2.34a7.826 7.826 0 0 0 5.645 2.661c3.04 0 4.5-1.09 4.5-3.27 0-1.731-1.272-2.6-4.9-3.719-4.591-1.41-6.793-2.6-6.793-6.6 0-3.879 3.164-6.251 7.165-6.251a9.575 9.575 0 0 1 7.1 3.046l-2.3 2.4a6.472 6.472 0 0 0-5.051-2.15c-2.544 0-3.63 1.282-3.63 2.789 0 1.571.993 2.34 4.746 3.494 4.28 1.347 6.948 2.757 6.948 6.764.001 4.041-2.481 6.798-8.033 6.798z" transform="translate(-244.781)"/></g></svg><svg viewBox="0 0 20.488 11.778" width="20.49" height="11.78" id="status-done" x="531" xmlns="http://www.w3.org/2000/svg"><defs><style>.jcls-1{fill:#fff}</style></defs><g id="jcheck" transform="translate(0 -126.229)"><g id="jdone-all" transform="translate(0 126.229)"><path id="jPath_450" data-name="Path 450" class="jcls-1" d="M15.474 127.457l-1.228-1.228-5.539 5.539L9.935 133zm3.692-1.228l-9.232 9.318-3.692-3.692-1.228 1.228 4.923 4.923 10.55-10.55zM0 133.084l4.923 4.923 1.228-1.228-4.923-4.926z" transform="translate(0 -126.229)"/></g></g></svg><svg viewBox="0 0 27.825 25.435" width="27.83" height="25.44" id="status-planning" x="552" xmlns="http://www.w3.org/2000/svg"><defs><style>.kcls-1{fill:#f15a24}</style></defs><g id="kicon-pipe" transform="translate(0 -43.895)"><path id="kPath_1794" data-name="Path 1794" class="kcls-1" d="M26.089 219.934a.5.5 0 0 0-.468-.484h-7.177a.5.5 0 0 0-.468.484l-.414 4.77H4.237a.507.507 0 0 0-.471.537v.322H.471A.507.507 0 0 0 0 226.1v1.5a.507.507 0 0 0 .471.537h3.3v.322a.507.507 0 0 0 .471.537h13.476a5.454 5.454 0 0 0 .868 1.585 4.424 4.424 0 0 0 3.446 1.742 4.424 4.424 0 0 0 3.446-1.742 5.8 5.8 0 0 0 1.182-4.081zM.942 227.065v-.429h2.824v.429zm3.766-1.288h.709v2.146h-.709zm1.65 2.146v-2.146h11.11l-.063.724a6.018 6.018 0 0 0 .046 1.422zm18.836-7.4l.056.649h-6.436l.056-.649zm-.413 9.338a3.414 3.414 0 0 1-5.5 0 4.624 4.624 0 0 1-.942-3.254l.379-4.362h6.623l.379 4.362a4.624 4.624 0 0 1-.939 3.254z" transform="translate(0 -162.994)"/><path id="kPath_1795" data-name="Path 1795" class="kcls-1" d="M294.158 43.9h-1.789a.541.541 0 0 0 0 1.073h1.789a.649.649 0 0 1 0 1.288h-7.909a.541.541 0 0 0 0 1.073h7.909a1.732 1.732 0 0 0 0-3.434z" transform="translate(-267.839)"/><path id="kPath_1796" data-name="Path 1796" class="kcls-1" d="M184.166 81.186h6.5a1.015 1.015 0 0 1 .942 1.073v1.61a.475.475 0 1 0 .942 0v-1.61a2.03 2.03 0 0 0-1.883-2.146h-6.5a1.082 1.082 0 0 1 0-2.146h3.484a.541.541 0 0 0 0-1.073h-3.484a2.165 2.165 0 0 0 0 4.293z" transform="translate(-170.841 -30.637)"/><path id="kPath_1797" data-name="Path 1797" class="kcls-1" d="M293.749 44.968h4.237a.541.541 0 0 0 0-1.073h-4.237a.541.541 0 0 0 0 1.073z" transform="translate(-274.868)"/></g></svg><svg viewBox="0 0 21.51 21.51" width="21.51" height="21.51" id="status-progress" x="580" xmlns="http://www.w3.org/2000/svg"><defs><style>.lcls-1{fill:#b5c0f1}</style></defs><g id="licon-gear" transform="translate(0 -.001)"><g id="lGroup_2169" data-name="Group 2169" transform="translate(0 .001)"><path id="lPath_1784" data-name="Path 1784" class="lcls-1" d="M20.409 8.5L18.9 8.242a8.525 8.525 0 0 0-.607-1.465l.89-1.245a1.325 1.325 0 0 0-.144-1.712L17.7 2.481a1.319 1.319 0 0 0-.939-.391 1.306 1.306 0 0 0-.768.247l-1.249.89a8.436 8.436 0 0 0-1.52-.627l-.252-1.492A1.327 1.327 0 0 0 11.66 0H9.769a1.327 1.327 0 0 0-1.312 1.11L8.2 2.639a8.315 8.315 0 0 0-1.46.616l-1.24-.89a1.327 1.327 0 0 0-1.712.144L2.444 3.847A1.33 1.33 0 0 0 2.3 5.559l.9 1.263a8.327 8.327 0 0 0-.6 1.469l-1.49.252A1.327 1.327 0 0 0 0 9.855v1.892a1.327 1.327 0 0 0 1.11 1.312l1.528.261a8.315 8.315 0 0 0 .616 1.46l-.885 1.231a1.325 1.325 0 0 0 .144 1.712l1.339 1.339a1.319 1.319 0 0 0 .939.391 1.306 1.306 0 0 0 .768-.247l1.263-.9a8.5 8.5 0 0 0 1.42.584l.252 1.51A1.327 1.327 0 0 0 9.8 21.511h1.9a1.327 1.327 0 0 0 1.312-1.11l.256-1.51a8.525 8.525 0 0 0 1.465-.607l1.245.89a1.319 1.319 0 0 0 .773.247 1.319 1.319 0 0 0 .939-.391l1.339-1.339a1.33 1.33 0 0 0 .144-1.712l-.89-1.249a8.464 8.464 0 0 0 .607-1.465l1.51-.252a1.327 1.327 0 0 0 1.11-1.313V9.81a1.311 1.311 0 0 0-1.101-1.31zm-.1 3.2a.116.116 0 0 1-.1.117l-1.887.315a.6.6 0 0 0-.485.445 7.193 7.193 0 0 1-.782 1.883.608.608 0 0 0 .027.661l1.11 1.564a.122.122 0 0 1-.013.153l-1.339 1.339a.114.114 0 0 1-.085.036.11.11 0 0 1-.067-.022l-1.559-1.11a.607.607 0 0 0-.661-.027 7.193 7.193 0 0 1-1.883.782.6.6 0 0 0-.445.485l-.319 1.887a.116.116 0 0 1-.117.1H9.809a.116.116 0 0 1-.117-.1l-.315-1.887a.6.6 0 0 0-.445-.485 7.469 7.469 0 0 1-1.842-.755.622.622 0 0 0-.305-.081.592.592 0 0 0-.35.112l-1.573 1.119a.134.134 0 0 1-.067.022.12.12 0 0 1-.085-.036l-1.34-1.339a.122.122 0 0 1-.013-.153l1.105-1.55a.615.615 0 0 0 .027-.665 7.125 7.125 0 0 1-.789-1.878.615.615 0 0 0-.485-.445l-1.9-.324a.116.116 0 0 1-.1-.117V9.855a.116.116 0 0 1 .1-.117l1.874-.315a.608.608 0 0 0 .49-.449 7.186 7.186 0 0 1 .768-1.887.6.6 0 0 0-.031-.656L3.294 4.858a.122.122 0 0 1 .013-.153l1.339-1.338a.114.114 0 0 1 .085-.036.11.11 0 0 1 .067.022l1.55 1.105a.615.615 0 0 0 .665.027 7.126 7.126 0 0 1 1.878-.791.615.615 0 0 0 .445-.485l.324-1.9a.116.116 0 0 1 .117-.1h1.892a.116.116 0 0 1 .117.1l.314 1.873a.608.608 0 0 0 .449.49 7.293 7.293 0 0 1 1.928.791.608.608 0 0 0 .661-.027l1.55-1.114a.134.134 0 0 1 .067-.022.12.12 0 0 1 .085.036l1.34 1.338a.122.122 0 0 1 .013.153l-1.11 1.559a.607.607 0 0 0-.027.661 7.193 7.193 0 0 1 .782 1.883.6.6 0 0 0 .485.445l1.887.319a.116.116 0 0 1 .1.117V11.7z" transform="translate(0 -.001)"/><path id="lPath_1785" data-name="Path 1785" class="lcls-1" d="M140.742 136a4.642 4.642 0 1 0 4.642 4.642 4.645 4.645 0 0 0-4.642-4.642zm0 8.07a3.428 3.428 0 1 1 3.428-3.428 3.431 3.431 0 0 1-3.428 3.429z" transform="translate(-129.984 -129.89)"/></g></g></svg><svg viewBox="0 0 21.771 21.613" width="21.77" height="21.61" id="status-waiting" x="602" xmlns="http://www.w3.org/2000/svg"><defs><style>.mcls-1{fill:#f15a24}</style></defs><g id="micon-time" transform="translate(-.001 -1.688)"><g id="mLayer_2_16_" transform="translate(0 1.688)"><g id="mGroup_2170" data-name="Group 2170"><path id="mPath_1786" data-name="Path 1786" class="mcls-1" d="M253.927 423.181c-.18.045-.363.084-.544.118a.875.875 0 0 0 .319 1.721c.216-.04.434-.087.648-.141a.875.875 0 0 0-.423-1.7z" transform="translate(-240.842 -403.431)"/><path id="mPath_1787" data-name="Path 1787" class="mcls-1" d="M412.714 137.934a.875.875 0 0 0 1.662-.55 10.537 10.537 0 0 0-.228-.623.875.875 0 1 0-1.625.65c.068.171.133.347.191.523z" transform="translate(-393.157 -129.914)"/><path id="mPath_1788" data-name="Path 1788" class="mcls-1" d="M321.779 394.056c-.154.1-.314.2-.474.293a.875.875 0 1 0 .875 1.516c.191-.11.381-.227.565-.349a.875.875 0 0 0-.965-1.46z" transform="translate(-305.85 -375.555)"/><path id="mPath_1789" data-name="Path 1789" class="mcls-1" d="M429.384 208.152a.875.875 0 1 0-1.749.069c.007.185.009.372 0 .556a.875.875 0 1 0 1.75.039c.01-.216.008-.443-.001-.664z" transform="translate(-407.621 -197.688)"/><path id="mPath_1790" data-name="Path 1790" class="mcls-1" d="M378.538 344.244a.875.875 0 0 0-1.225.175 9.076 9.076 0 0 1-.348.435.876.876 0 0 0 .1 1.234.725.725 0 0 0 .064.049.875.875 0 0 0 1.17-.148c.143-.168.283-.343.415-.52a.875.875 0 0 0-.176-1.225z" transform="translate(-359.124 -328.045)"/><path id="mPath_1791" data-name="Path 1791" class="mcls-1" d="M415.089 279.392a.875.875 0 0 0-1.1.573 9.392 9.392 0 0 1-.183.527.875.875 0 0 0 1.636.623c.079-.206.151-.417.217-.626a.875.875 0 0 0-.57-1.097z" transform="translate(-394.388 -266.357)"/><path id="mPath_1792" data-name="Path 1792" class="mcls-1" d="M9.267 21.564a9.037 9.037 0 0 1-2.245-.713L7 20.837a11.134 11.134 0 0 1-.5-.252 9.337 9.337 0 0 1-.871-.544A9.133 9.133 0 0 1 5.664 5.08l.036-.022a9.149 9.149 0 0 1 10.253-.082l-.684.988c-.19.275-.073.475.26.445l2.97-.266a.489.489 0 0 0 .443-.64l-.8-2.874c-.089-.322-.318-.361-.508-.086l-.685.99A10.809 10.809 0 0 0 9.027 1.85q-.42.073-.829.177h-.006l-.031.009a10.792 10.792 0 0 0-5.984 4.012 16.657 16.657 0 0 0-.184.246 9.752 9.752 0 0 0-.231.342l-.025.042a10.79 10.79 0 0 0-1.725 6.368v.022a10.441 10.441 0 0 0 .152 1.365A10.8 10.8 0 0 0 3.21 20.29l.011.012a11.028 11.028 0 0 0 1.394 1.165 10.791 10.791 0 0 0 4.34 1.816.875.875 0 0 0 .309-1.723z" transform="translate(0 -1.688)"/><path id="mPath_1793" data-name="Path 1793" class="mcls-1" d="M206.7 83.2a.708.708 0 0 0-.708.708v7.055l6.452 3.335a.708.708 0 0 0 .65-1.258L207.4 90.1v-6.194a.708.708 0 0 0-.7-.706z" transform="translate(-196.347 -79.383)"/></g></g></g></svg></svg>