<?xml version="1.0" encoding="utf-8"?>
<!-- Generator: Adobe Illustrator 22.1.0, SVG Export Plug-In . SVG Version: 6.00 Build 0)  -->
<svg version="1.1" id="Layer_1" xmlns="http://www.w3.org/2000/svg" xmlns:xlink="http://www.w3.org/1999/xlink" x="0px" y="0px"
	 viewBox="0 0 121 163.3" style="enable-background:new 0 0 121 163.3;" xml:space="preserve">
<style type="text/css">
	.st0{fill:#FFFFFF;}
	.st1{fill:none;stroke:#000000;stroke-miterlimit:10;}
	.st2{fill:none;}
	.st3{fill:none;stroke:#000000;stroke-width:0.2576;stroke-miterlimit:10;}
	.st4{fill:none;stroke:#000000;stroke-width:0.7;stroke-miterlimit:10;}
	.st5{fill:#1A1A1A;}
	.st6{fill:#FFFFFF;stroke:#000000;stroke-width:0.7;stroke-miterlimit:10;}
	.st7{font-family:'Roboto-Light';}
	.st8{font-size:20.9293px;}
</style>
<g>
	<rect class="st0" width="121" height="163.3"/>
	
		<rect x="-15.2" y="27.2" transform="matrix(-1.836970e-16 1 -1 -1.836970e-16 142.1664 21.1672)" class="st1" width="151.3" height="109"/>
	<g id="Group_2104_2_" transform="translate(0 0.064)">
		<path id="Path_1732_3_" class="st2" d="M108.6,48v-5.3c0,0,1.3-1.8,0.7-3.2c-0.7-1.3-1.5-1.7-1.5-1.7v-3.2
			c-3.8-1.6-7.8-2.7-12-3.3c-7-1-12-1.7-12-1.7S73.3,22,62.5,21s-16.1,0.3-26.7,3.7c-9,2.8-8.1,5.1-8.1,5.1l-14.8-1.2v8.6l-1.7,0.8
			v4l1.8,3.3l9.3,2.7L108.6,48z"/>
		<path id="Path_1740_3_" class="st3" d="M16.5,34.1c0.4,0.7,0.5,1.5,0.3,2.3l-4,0.8v-2.7L16.5,34.1z"/>
		<g>
			<path id="Path_1733_3_" class="st4" d="M108.6,45.2v-2.7c0,0,1.3-1.8,0.7-3.2c-0.7-1.3-1.5-1.7-1.5-1.7v-3.2
				c-3.8-1.6-7.8-2.7-11.9-3.3c-7-1-12-1.7-12-1.7s-10.6-7.8-21.4-8.8s-17.4-1.2-27.7,2.7c-2.9,1.1-5.7,2.4-8.3,4.1l-13.6,1v8.6
				l-1.7,0.8v4l1.8,3.3L108.6,45.2z"/>
			<line class="st4" x1="100.5" y1="34.8" x2="83.8" y2="32.3"/>
			<path id="Path_1734_3_" class="st4" d="M109.6,47.5h-8.5v-2.3h8.3L109.6,47.5z"/>
			<path id="Path_1735_3_" class="st4" d="M78.3,30.9c0,0-9.5-6.1-16.6-7.3C54,22.5,49.4,23,49.4,23l2.3,7.8L78.3,30.9z"/>
			<path id="Path_1736_3_" class="st4" d="M49.2,30.8H32l-2.8-1.5c0,0,8.8-4.6,17.9-5.8L49.2,30.8z"/>
			<path id="Path_1738_3_" class="st4" d="M107.8,34.6c0,0-4.5-0.5-5,0.5c-0.3,0.8-2.3,2.3,5,2.7V34.6z"/>
			<path id="Path_1739_3_" class="st4" d="M12.9,31.6c1.3,0.2,2.5,0.9,3.3,2c1,1.5,0.7,2.8,0.7,2.8l-4,0.8V31.6z"/>
			<rect id="Rectangle_620_3_" x="36.3" y="45.3" class="st4" width="54.4" height="2.2"/>
			<rect id="Rectangle_626_3_" x="13.1" y="45.3" class="st4" width="11.4" height="2.1"/>
			<path id="Path_1762_3_" class="st4" d="M50.1,32.4c0,0-2.3,5,1.8,11.5"/>
			<path id="Path_1763_3_" class="st4" d="M78.3,32.4c0,0,4.5,5.8,0.5,11.6"/>
			<path id="Rectangle_622_3_" class="st4" d="M51.6,34.1h3.5c0.3,0,0.6,0.3,0.6,0.6l0,0c0,0.3-0.3,0.6-0.6,0.6h-3.5
				c-0.3,0-0.6-0.3-0.6-0.6l0,0C51,34.3,51.3,34.1,51.6,34.1z"/>
		</g>
		<g id="Group_2101_4_" transform="translate(39.305 63.499)">
			<path id="Path_1752_4_" class="st5" d="M63.7-18.1c0-4.8-4-8.8-8.8-8.8c-4.8,0-8.8,4-8.8,8.8H63.7z"/>
			<g id="Group_2100_4_">
				<path id="Path_1761_4_" class="st6" d="M46.1-18.1c0-4.8,4-8.8,8.8-8.8c4.8,0,8.8,4,8.8,8.8H46.1z"/>
				<circle id="Ellipse_438_4_" class="st6" cx="54.9" cy="-18.1" r="7.3"/>
				<circle id="Ellipse_439_5_" class="st4" cx="54.9" cy="-18.1" r="4.8"/>
			</g>
		</g>
		<g id="Group_2101_3_" transform="translate(39.305 63.499)">
			<path id="Path_1752_3_" class="st5" d="M-0.4-18.1c0-4.8-4-8.8-8.8-8.8c-4.8,0-8.8,4-8.8,8.8H-0.4z"/>
			<g id="Group_2100_3_">
				<path id="Path_1761_3_" class="st6" d="M-18-18.1c0-4.8,4-8.8,8.8-8.8c4.8,0,8.8,4,8.8,8.8H-18z"/>
				<circle id="Ellipse_438_3_" class="st6" cx="-9.2" cy="-18.1" r="7.3"/>
				<circle id="Ellipse_439_4_" class="st4" cx="-9.2" cy="-18.1" r="4.8"/>
			</g>
		</g>
	</g>
	<text transform="matrix(1 0 0 1 13.1676 80.937)" class="st7 st8">POST ASK</text>
	<g>
		<polygon class="st4" points="109.6,151.5 11.2,151.5 11.2,95.1 60.5,95.1 109.6,95.1 		"/>
		<line class="st4" x1="60.4" y1="151.5" x2="60.4" y2="95.1"/>
		<g>
			<line class="st4" x1="11.2" y1="100.7" x2="109.5" y2="100.7"/>
			<line class="st4" x1="11.2" y1="95.1" x2="109.5" y2="95.1"/>
			<line class="st4" x1="11.2" y1="106.4" x2="109.5" y2="106.4"/>
			<line class="st4" x1="11.2" y1="112" x2="109.5" y2="112"/>
			<line class="st4" x1="11.2" y1="117.6" x2="109.5" y2="117.6"/>
			<line class="st4" x1="11.2" y1="123.3" x2="109.5" y2="123.3"/>
			<line class="st4" x1="11.2" y1="128.9" x2="109.5" y2="128.9"/>
			<line class="st4" x1="11.2" y1="134.6" x2="109.5" y2="134.6"/>
			<line class="st4" x1="11.2" y1="140.2" x2="109.5" y2="140.2"/>
			<line class="st4" x1="11.2" y1="145.8" x2="109.5" y2="145.8"/>
			<line class="st4" x1="11.2" y1="151.5" x2="109.5" y2="151.5"/>
		</g>
	</g>
</g>
</svg>
