<svg xmlns="http://www.w3.org/2000/svg" viewBox="4204 263 16.874 21.073">
  <defs>
    <style>
      .cls-1 {
        fill: #03a5ed;
      }
    </style>
  </defs>
  <g id="copy" transform="translate(3472 -5.086)">
    <g id="Group_172" data-name="Group 172" transform="translate(732 268.086)">
      <path id="Path_450" data-name="Path 450" class="cls-1" d="M60.112,85.4h-9.8a1.667,1.667,0,0,0-1.666,1.666v14.056a1.667,1.667,0,0,0,1.666,1.666h9.8a1.667,1.667,0,0,0,1.666-1.666V87.066A1.672,1.672,0,0,0,60.112,85.4Zm.5,15.717a.5.5,0,0,1-.5.5h-9.8a.5.5,0,0,1-.5-.5V87.066a.5.5,0,0,1,.5-.5h9.8a.5.5,0,0,1,.5.5Z" transform="translate(-48.65 -81.715)"/>
      <path id="Path_451" data-name="Path 451" class="cls-1" d="M146.912,0h-9.8a1.667,1.667,0,0,0-1.666,1.666.583.583,0,1,0,1.165,0,.5.5,0,0,1,.5-.5h9.8a.5.5,0,0,1,.5.5V15.722a.5.5,0,0,1-.5.5.583.583,0,0,0,0,1.165,1.667,1.667,0,0,0,1.666-1.666V1.666A1.667,1.667,0,0,0,146.912,0Z" transform="translate(-131.704)"/>
    </g>
  </g>
</svg>
