<?xml version="1.0" encoding="utf-8"?>
<!-- Generator: Adobe Illustrator 22.1.0, SVG Export Plug-In . SVG Version: 6.00 Build 0)  -->
<svg version="1.1" id="Layer_1" xmlns="http://www.w3.org/2000/svg" xmlns:xlink="http://www.w3.org/1999/xlink" x="0px" y="0px"
	 viewBox="0 0 30 19.7" style="enable-background:new 0 0 30 19.7;" xml:space="preserve">
<style type="text/css">
	.st0{fill:#41479B;}
	.st1{fill:#F5F5F5;}
	.st2{fill:#FF4B55;}
</style>
<g>
	<path class="st0" d="M29.5,19.7h-29c-0.3,0-0.5-0.2-0.5-0.5V0.5C0,0.2,0.2,0,0.5,0h29C29.8,0,30,0.2,30,0.5v18.6
		C30,19.4,29.8,19.7,29.5,19.7z"/>
	<path class="st1" d="M30,0.5C30,0.2,29.8,0,29.5,0h-2.3l-9.6,6.3V0h-5.2v6.3L2.8,0H0.5C0.2,0,0,0.2,0,0.5v1.3l8.2,5.4H0v5.2h8.2
		L0,17.8v1.3c0,0.3,0.2,0.5,0.5,0.5h2.3l9.6-6.3v6.3h5.2v-6.3l9.6,6.3h2.3c0.3,0,0.5-0.2,0.5-0.5v-1.3l-8.2-5.4H30V7.2h-8.2L30,1.9
		V0.5z"/>
	<g>
		<polygon class="st2" points="30,8.3 16.6,8.3 16.6,0 13.4,0 13.4,8.3 0,8.3 0,11.4 13.4,11.4 13.4,19.7 16.6,19.7 16.6,11.4 
			30,11.4 		"/>
		<path class="st2" d="M10.5,12.4L0,19.2c0,0.2,0.2,0.4,0.5,0.4h0.7l11.2-7.2L10.5,12.4L10.5,12.4z"/>
		<path class="st2" d="M20.3,12.4h-1.9l11.1,7.2c0.3,0,0.5-0.2,0.5-0.5v-0.4L20.3,12.4z"/>
		<path class="st2" d="M0,1.1l9.5,6.2h1.9L0.3,0.1C0.1,0.1,0,0.3,0,0.5V1.1z"/>
		<path class="st2" d="M19.5,7.2L30,0.4c0-0.2-0.2-0.4-0.5-0.4h-0.7L17.6,7.2H19.5z"/>
	</g>
</g>
</svg>
