<svg id="exclamation-mark" xmlns="http://www.w3.org/2000/svg" width="22.446" height="22.446" viewBox="0 0 22.446 22.446">
  <path id="Path_1165" data-name="Path 1165" d="M11.223,0A11.223,11.223,0,1,0,22.446,11.223,11.223,11.223,0,0,0,11.223,0Zm0,20.342a9.119,9.119,0,1,1,9.119-9.119A9.118,9.118,0,0,1,11.223,20.342Zm0-15.42c-.8,0-1.412.419-1.412,1.1v6.215c0,.678.608,1.1,1.412,1.1.784,0,1.412-.436,1.412-1.1V6.019C12.636,5.358,12.008,4.922,11.224,4.922Zm0,9.808a1.4,1.4,0,1,0,1.4,1.4A1.4,1.4,0,0,0,11.224,14.73Z" fill="#f15a24"/>
</svg>
