<?xml version="1.0" encoding="utf-8"?>
<!-- Generator: Adobe Illustrator 23.0.1, SVG Export Plug-In . SVG Version: 6.00 Build 0)  -->
<svg version="1.1" id="Capa_1" xmlns="http://www.w3.org/2000/svg" xmlns:xlink="http://www.w3.org/1999/xlink" x="0px" y="0px"
	 viewBox="0 0 30 30" style="enable-background:new 0 0 30 30;" xml:space="preserve">
<style type="text/css">
	.st0{fill:#FFFFFF;}
</style>
<path class="st0" d="M15,0C6.7,0,0,6.7,0,15s6.7,15,15,15s15-6.7,15-15S23.3,0,15,0z M21.4,22H8.6c-0.6,0-1.1-0.5-1.1-1.1
	s0.5-1.1,1.1-1.1h12.9c0.6,0,1.1,0.5,1.1,1.1S22,22,21.4,22z M21.4,16.1H8.6c-0.6,0-1.1-0.5-1.1-1.1s0.5-1.1,1.1-1.1h12.9
	c0.6,0,1.1,0.5,1.1,1.1S22,16.1,21.4,16.1z M21.4,10.2H8.6c-0.6,0-1.1-0.5-1.1-1.1C7.5,8.5,8,8,8.6,8h12.9c0.6,0,1.1,0.5,1.1,1.1
	C22.5,9.7,22,10.2,21.4,10.2z"/>
</svg>
