<?xml version="1.0" encoding="utf-8"?>
<!-- Generator: Adobe Illustrator 23.0.1, SVG Export Plug-In . SVG Version: 6.00 Build 0)  -->
<svg version="1.1" id="Capa_1" xmlns="http://www.w3.org/2000/svg" xmlns:xlink="http://www.w3.org/1999/xlink" x="0px" y="0px"
	 viewBox="0 0 21.6 20" style="enable-background:new 0 0 21.6 20;" xml:space="preserve">
<style type="text/css">
	.st0{fill:#03A5ED;}
</style>
<path class="st0" d="M19.9,20H1.6C0.7,20,0,19.3,0,18.4s0.7-1.6,1.6-1.6H20c0.9,0,1.6,0.7,1.6,1.6S20.7,20,19.9,20z M19.9,11.6H1.6
	C0.7,11.6,0,10.9,0,10s0.7-1.6,1.6-1.6H20c0.9,0,1.6,0.7,1.6,1.6S20.7,11.6,19.9,11.6z M19.9,3.1H1.6C0.7,3.1,0,2.4,0,1.6
	C0,0.7,0.7,0,1.6,0H20c0.9,0,1.6,0.7,1.6,1.6C21.4,2.4,20.7,3.1,19.9,3.1z"/>
</svg>
