<?xml version="1.0" encoding="utf-8"?>
<!-- Generator: Adobe Illustrator 23.0.1, SVG Export Plug-In . SVG Version: 6.00 Build 0)  -->
<svg version="1.1" id="reddit" xmlns="http://www.w3.org/2000/svg" xmlns:xlink="http://www.w3.org/1999/xlink" x="0px" y="0px"
	 viewBox="0 0 15 12.5" style="enable-background:new 0 0 15 12.5;" xml:space="preserve">
<style type="text/css">
	.st0{fill:#FFFFFF;}
</style>
<path id="Path_580" class="st0" d="M13.2,4.3c-0.4,0-0.8,0.1-1.1,0.4c-1.2-0.7-2.6-1.1-4-1.2l0.8-2.4L11,1.6C11.1,2.4,11.8,3,12.6,3
	C13.4,2.9,14,2.2,14,1.4S13.2-0.1,12.4,0c-0.5,0-1,0.3-1.2,0.8L8.7,0.2c-0.2,0-0.4,0.1-0.5,0.3l-1,3c-1.5,0-3,0.4-4.3,1.2
	C2.1,4.1,1,4.2,0.4,5C0.1,5.3,0,5.7,0,6.1c0,0.6,0.3,1.1,0.8,1.5c0,0.1,0,0.3,0,0.4c0.1,1.4,0.8,2.6,2,3.2c1.4,0.9,3,1.3,4.7,1.3
	c1.6,0,3.3-0.4,4.7-1.3c1.2-0.7,2-1.9,2-3.2c0-0.1,0-0.3,0-0.4C15,7.1,15.3,6,14.7,5.2C14.4,4.6,13.8,4.3,13.2,4.3L13.2,4.3z
	 M12.5,0.8c0.4,0,0.7,0.3,0.7,0.7s-0.3,0.7-0.7,0.7c-0.4,0-0.7-0.3-0.7-0.7C11.8,1.1,12.1,0.8,12.5,0.8L12.5,0.8z M4.3,7.2
	c0-0.6,0.5-1,1-1c0.6,0,1,0.5,1,1c0,0.6-0.5,1-1,1C4.7,8.2,4.3,7.8,4.3,7.2z M10,10.2C9.3,10.8,8.4,11,7.5,11h0
	C6.6,11,5.7,10.8,5,10.2C4.9,10,4.9,9.8,5,9.6c0,0,0,0,0,0c0.2-0.2,0.4-0.2,0.6,0c0.5,0.4,1.2,0.6,1.9,0.5h0
	c0.7,0.1,1.3-0.1,1.9-0.5c0.2-0.2,0.4-0.2,0.6,0C10.1,9.8,10.1,10,10,10.2C10,10.2,10,10.2,10,10.2z M9.7,8.2c-0.6,0-1-0.4-1-1
	c0-0.6,0.5-1,1-1c0.6,0,1,0.5,1,1C10.7,7.8,10.3,8.2,9.7,8.2z"/>
</svg>
