<?xml version="1.0" encoding="utf-8"?>
<!-- Generator: Adobe Illustrator 23.0.1, SVG Export Plug-In . SVG Version: 6.00 Build 0)  -->
<svg version="1.1" id="Layer_1" xmlns="http://www.w3.org/2000/svg" xmlns:xlink="http://www.w3.org/1999/xlink" x="0px" y="0px"
	 width="39.8px" height="28px" viewBox="0 0 39.8 28" style="enable-background:new 0 0 39.8 28;" xml:space="preserve">
<style type="text/css">
	.st0{fill:#FFFFFF;}
</style>
<g>
	<g>
		<g>
			<g>
				<path class="st0" d="M12.4,6.2c-0.3,0-0.6,0.2-0.8,0.4c-1.8,2-2.8,4.7-2.8,7.4s1,5.4,2.8,7.4c0.2,0.2,0.5,0.4,0.8,0.4
					c0.3,0,0.6-0.1,0.9-0.3l2.2-2.2c0.4-0.4,0.5-1.1,0.1-1.6c-0.9-1-1.3-2.3-1.3-3.6c0-1.3,0.5-2.6,1.3-3.6c0.2-0.2,0.3-0.5,0.3-0.8
					c0-0.3-0.1-0.6-0.3-0.8l-2.2-2.2C13,6.3,12.7,6.2,12.4,6.2z"/>
			</g>
		</g>
		<g>
			<g>
				<path class="st0" d="M18.1,12.2c-0.5,0.5-0.7,1.1-0.7,1.8s0.3,1.3,0.7,1.8c1,1,2.6,1,3.5,0c0.5-0.5,0.7-1.1,0.7-1.8
					c0-0.6-0.2-1.3-0.7-1.8c-0.5-0.5-1.1-0.7-1.8-0.7C19.2,11.5,18.6,11.8,18.1,12.2z M20.8,13.1c0.5,0.5,0.5,1.3,0,1.8
					c-0.5,0.5-1.3,0.5-1.8,0c-0.2-0.2-0.4-0.6-0.4-0.9c0-0.3,0.1-0.7,0.4-0.9c0,0,0,0,0,0c0.2-0.2,0.6-0.4,0.9-0.4
					C20.2,12.7,20.6,12.8,20.8,13.1z"/>
			</g>
		</g>
		<g>
			<g>
				<path class="st0" d="M5.4,0.4C-1.8,8-1.8,20,5.4,27.6C5.6,27.9,5.9,28,6.2,28c0.3,0,0.6-0.1,0.9-0.3l2.2-2.2
					c0.5-0.5,0.5-1.2,0-1.6c-2.5-2.7-3.8-6.1-3.8-9.8c0-3.6,1.4-7.1,3.8-9.8C9.6,4,9.7,3.7,9.7,3.4c0-0.3-0.1-0.6-0.3-0.8L7.1,0.3
					C6.9,0.1,6.6,0,6.2,0C5.9,0,5.6,0.1,5.4,0.4z"/>
			</g>
		</g>
	</g>
	<g>
		<g>
			<g>
				<path class="st0" d="M26.6,6.5l-2.2,2.2C24.1,9,24,9.3,24,9.6c0,0.3,0.1,0.5,0.3,0.8c0.9,1,1.3,2.3,1.3,3.6
					c0,1.3-0.5,2.6-1.3,3.6c-0.4,0.5-0.4,1.2,0.1,1.6l2.2,2.2c0.2,0.2,0.5,0.4,0.9,0.3c0.3,0,0.6-0.2,0.8-0.4c1.8-2,2.8-4.7,2.8-7.4
					s-1-5.4-2.8-7.4c-0.2-0.2-0.5-0.4-0.8-0.4C27.1,6.2,26.8,6.3,26.6,6.5z"/>
			</g>
		</g>
		<g>
			<g>
				<path class="st0" d="M19.9,11.5c-0.7,0-1.3,0.3-1.8,0.7c-0.5,0.5-0.7,1.1-0.7,1.8c0,0.6,0.2,1.3,0.7,1.8c1,1,2.5,1,3.5,0
					c0.5-0.5,0.7-1.1,0.7-1.8s-0.3-1.3-0.7-1.8C21.2,11.8,20.6,11.5,19.9,11.5z"/>
			</g>
		</g>
		<g>
			<g>
				<path class="st0" d="M33.6,0c-0.3,0-0.6,0.1-0.9,0.3l-2.2,2.2c-0.2,0.2-0.3,0.5-0.3,0.8c0,0.3,0.1,0.6,0.3,0.8
					c2.5,2.7,3.8,6.1,3.8,9.8c0,3.6-1.4,7.1-3.8,9.8c-0.4,0.5-0.4,1.2,0,1.6l2.2,2.2c0.2,0.2,0.5,0.4,0.9,0.3c0.3,0,0.6-0.1,0.8-0.4
					c7.2-7.6,7.2-19.6,0-27.3C34.2,0.1,33.9,0,33.6,0z"/>
			</g>
		</g>
	</g>
</g>
</svg>
