<svg xmlns="http://www.w3.org/2000/svg" width="22.45" height="22.451" viewBox="0 0 22.45 22.451">
  <g id="checked" transform="translate(-0.004)">
    <path id="Path_1166" data-name="Path 1166" d="M11.229,0A11.225,11.225,0,1,0,22.454,11.225,11.225,11.225,0,0,0,11.229,0Zm0,20.346a9.121,9.121,0,1,1,9.12-9.121A9.12,9.12,0,0,1,11.229,20.346Zm4.412-13.9a.977.977,0,0,0-1.361.379L10.516,13.59l-2.1-2.552a1.055,1.055,0,0,0-1.36-.379,1.038,1.038,0,0,0-.366,1.413l2.917,3.551a1.231,1.231,0,0,0,.728.5l0,0h.027a1.273,1.273,0,0,0,1.32-.507l4.32-7.76A1.057,1.057,0,0,0,15.641,6.45Z" fill="#54ce63"/>
  </g>
</svg>
