<?xml version="1.0" encoding="utf-8"?>
<!-- Generator: Adobe Illustrator 23.0.1, SVG Export Plug-In . SVG Version: 6.00 Build 0)  -->
<svg version="1.1" id="AIRA_logo" xmlns="http://www.w3.org/2000/svg" xmlns:xlink="http://www.w3.org/1999/xlink" x="0px" y="0px"
	 width="25.3px" height="25.3px" viewBox="0 0 25.3 25.3" style="enable-background:new 0 0 25.3 25.3;" xml:space="preserve">
<style type="text/css">
	.st0{fill:#7481B9;}
</style>
<g id="Group_1349" transform="translate(12.268 12.749)">
	<rect id="Rectangle_764" x="0" y="0" class="st0" width="0.4" height="10.2"/>
</g>
<g id="Group_1350" transform="translate(22.771 2.325)">
	<rect id="Rectangle_765" x="0" y="0" class="st0" width="0.4" height="20.7"/>
</g>
<g id="Group_1351" transform="translate(2.14 2.196)">
	
		<rect id="Rectangle_766" x="-4.1" y="10.3" transform="matrix(0.7071 -0.7071 0.7071 0.7071 -4.3325 10.4604)" class="st0" width="29.2" height="0.4"/>
</g>
<g id="Group_1352" transform="translate(2.325 22.771)">
	<rect id="Rectangle_767" x="0" y="0" class="st0" width="20.7" height="0.4"/>
</g>
<g id="Group_1353" transform="translate(12.332 12.616)">
	
		<rect id="Rectangle_768" x="-1.9" y="5" transform="matrix(0.7168 -0.6973 0.6973 0.7168 -2.1274 5.2261)" class="st0" width="14.6" height="0.4"/>
</g>
<g id="Group_1358" transform="translate(20.606 20.606)">
	<circle id="Ellipse_249" class="st0" cx="2.3" cy="2.3" r="2.3"/>
</g>
<g id="Group_1359" transform="translate(20.606 0)">
	<circle id="Ellipse_250" class="st0" cx="2.3" cy="2.3" r="2.3"/>
</g>
<g id="Group_1360" transform="translate(20.606 10.263)">
	<circle id="Ellipse_251" class="st0" cx="2.3" cy="2.3" r="2.3"/>
</g>
<g id="Group_1361" transform="translate(0 20.606)">
	<circle id="Ellipse_252" class="st0" cx="2.3" cy="2.3" r="2.3"/>
</g>
<g id="Group_1362" transform="translate(10.263 20.606)">
	<circle id="Ellipse_253" class="st0" cx="2.3" cy="2.3" r="2.3"/>
</g>
<g id="Group_1363" transform="translate(10.263 10.423)">
	<circle id="Ellipse_254" class="st0" cx="2.3" cy="2.3" r="2.3"/>
</g>
</svg>
