<?xml version="1.0" encoding="utf-8"?>
<!-- Generator: Adobe Illustrator 23.0.1, SVG Export Plug-In . SVG Version: 6.00 Build 0)  -->
<svg version="1.1" id="Capa_1" xmlns="http://www.w3.org/2000/svg" xmlns:xlink="http://www.w3.org/1999/xlink" x="0px" y="0px"
	 viewBox="0 0 25 23.4" style="enable-background:new 0 0 25 23.4;" xml:space="preserve">
<style type="text/css">
	.st0{fill:#999999;}
</style>
<g>
	<path class="st0" d="M19.6,13.6c0-5.4-4.4-9.8-9.8-9.8S0,8.2,0,13.6c0,2.8,1.2,5.4,3.2,7.3l0,0l0.3,0.2c0,0,0.1,0,0.1,0.1
		c0.2,0.2,0.3,0.2,0.6,0.4c0.1,0.1,0.1,0.1,0.2,0.2C4.6,21.9,4.8,22,5,22.2c0.1,0,0.1,0.1,0.2,0.1c0.2,0.2,0.5,0.2,0.7,0.3
		c0,0,0,0,0.1,0c0.7,0.3,1.6,0.7,2.3,0.8h0.1c0.3,0.1,0.6,0.1,0.8,0.1h0.1c0.2,0,0.6,0,0.7,0c0.2,0,0.6,0,0.8,0h0.1
		c0.2,0,0.6-0.1,0.7-0.1h0.1c0.8-0.2,1.6-0.4,2.3-0.7H14c0.2-0.1,0.5-0.2,0.7-0.3c0.1,0,0.1-0.1,0.2-0.1c0.2-0.1,0.4-0.2,0.6-0.4
		c0.1-0.1,0.2-0.1,0.2-0.2c0.2-0.1,0.3-0.2,0.5-0.3l0.1-0.1l0.3-0.2l0,0C18.3,19,19.6,16.4,19.6,13.6z M0.7,13.6
		c0-5,4.1-9.1,9.1-9.1s9.1,4.1,9.1,9.1c0,2.7-1.2,5.1-3.1,6.8c-0.1-0.1-0.2-0.2-0.3-0.2l-2.9-1.5c-0.2-0.2-0.5-0.4-0.5-0.7v-1
		c0.1-0.1,0.2-0.2,0.2-0.3c0.4-0.6,0.7-1.2,0.9-1.8c0.5-0.2,0.7-0.7,0.7-1.2v-1.2c0-0.3-0.1-0.7-0.3-0.8V10c0-0.2,0.1-1.2-0.7-2.1
		c-0.7-0.7-1.8-1.1-3.2-1.1s-2.4,0.3-3,1C5.9,8.7,6,9.8,6,9.9v1.7c-0.3,0.2-0.3,0.6-0.3,0.8v1.2c0,0.4,0.2,0.8,0.5,1
		c0.3,1.1,0.8,2,1.1,2.3v1c0,0.3-0.2,0.6-0.4,0.7L4,20.2c-0.1,0.1-0.2,0.1-0.3,0.2C1.9,18.6,0.7,16.2,0.7,13.6z"/>
	<g>
		<path class="st0" d="M9.8,5.3c4.6,0,8.2,3.7,8.2,8.2s-3.7,8.2-8.2,8.2s-8.2-3.8-8.2-8.2S5.2,5.3,9.8,5.3 M9.8,3.8
			C4.4,3.8,0,8.1,0,13.6s4.4,9.8,9.8,9.8s9.8-4.4,9.8-9.8S15.2,3.8,9.8,3.8L9.8,3.8z"/>
	</g>
	<g>
		<path class="st0" d="M19.4,0c-3.1,0-5.6,2.5-5.6,5.6s2.5,5.6,5.6,5.6S25,8.7,25,5.6S22.5,0,19.4,0z M19.8,8.8
			C19.8,8.9,19.6,9,19.3,9c-0.2,0-0.4-0.1-0.5-0.2c-0.1-0.1-0.2-0.2-0.2-0.4s0.1-0.3,0.2-0.5c0.1-0.1,0.2-0.2,0.5-0.2
			c0.2,0,0.3,0.1,0.5,0.2C20,8.1,20,8.2,20,8.5C20,8.6,19.9,8.7,19.8,8.8z M20.7,5.4L20.1,6c-0.2,0.2-0.3,0.6-0.3,1h-1
			c0-0.4,0-0.7,0.2-0.9c0.1-0.2,0.3-0.5,0.7-0.8c0.3-0.3,0.5-0.5,0.6-0.7c0.2-0.2,0.2-0.4,0.2-0.7c0-0.3-0.1-0.5-0.2-0.7
			c-0.2-0.2-0.3-0.2-0.7-0.2c-0.2,0-0.5,0.1-0.7,0.2c-0.2,0.2-0.2,0.3-0.2,0.6h-1c0-0.6,0.2-0.9,0.6-1.2s0.8-0.5,1.4-0.5
			c0.7,0,1.1,0.2,1.4,0.5C21.3,3,21.5,3.4,21.5,4C21.4,4.5,21.2,4.9,20.7,5.4z"/>
	</g>
</g>
</svg>
