<svg xmlns="http://www.w3.org/2000/svg" viewBox="7739.251 2796.09 100.234 23.44">
  <defs>
    <style>
      .cls-1 {
        fill: #fff;
      }
    </style>
  </defs>
  <g id="Group_770" data-name="Group 770" transform="translate(7739.251 2796.09)">
    <rect id="Rectangle_378" data-name="Rectangle 378" class="cls-1" width="0.372" height="9.45" transform="translate(11.385 11.832)"/>
    <rect id="Rectangle_379" data-name="Rectangle 379" class="cls-1" width="0.372" height="19.198" transform="translate(21.133 2.158)"/>
    <rect id="Rectangle_380" data-name="Rectangle 380" class="cls-1" width="27.086" height="0.372" transform="translate(1.986 21.19) rotate(-45)"/>
    <rect id="Rectangle_381" data-name="Rectangle 381" class="cls-1" width="19.198" height="0.372" transform="translate(2.158 21.133)"/>
    <rect id="Rectangle_382" data-name="Rectangle 382" class="cls-1" width="13.543" height="0.372" transform="translate(11.445 21.152) rotate(-44.21)"/>
    <path id="Path_821" data-name="Path 821" class="cls-1" d="M62.459,23.026c-.819-2.307-1.637-4.39-2.381-6.4-.744-1.935-1.488-3.8-2.158-5.581s-1.414-3.5-2.084-5.06-1.414-3.2-2.158-4.837L53.6,1H50.4l-.074.223c-.744,1.563-1.488,3.2-2.158,4.762-.67,1.637-1.414,3.349-2.084,5.06-.67,1.786-1.414,3.646-2.158,5.581s-1.488,4.093-2.381,6.4L41.4,23.4h3.8L47.2,17.966h9.45c.3.6.6,1.711.893,2.53.3.967.67,1.86,1.042,2.753l.074.149h3.944Zm-6.92-8.111H48.246c.6-1.786,1.191-3.423,1.786-4.986.6-1.488,1.191-2.976,1.786-4.316.6,1.414,1.191,2.9,1.786,4.39C54.273,11.567,54.943,13.129,55.538,14.915Z" transform="translate(-10.593 -0.256)"/>
    <rect id="Rectangle_383" data-name="Rectangle 383" class="cls-1" width="3.646" height="22.398" transform="translate(54.172 0.744)"/>
    <path id="Path_822" data-name="Path 822" class="cls-1" d="M98.343,22.975a18.213,18.213,0,0,0-1.414-2.6c-.521-.893-1.116-1.786-1.637-2.6s-1.116-1.563-1.637-2.307c-.372-.521-.744-.967-1.042-1.339a7.052,7.052,0,0,0,3.125-2.232,6.144,6.144,0,0,0,1.191-3.869A6.29,6.29,0,0,0,94.4,2.586C92.762,1.4,90.306.8,87.181.8c-.893,0-1.86.074-2.9.074a14.371,14.371,0,0,0-2.679.446V23.347h3.646V14.864h3.5c.372.446.819.967,1.265,1.563.521.67.967,1.339,1.488,2.084s.967,1.563,1.488,2.307A19.2,19.2,0,0,1,94.325,23.2l.074.149h4.018ZM92.762,9.953a2.873,2.873,0,0,1-1.191,1.116,4.928,4.928,0,0,1-2.009.6c-.819.074-1.786.223-2.828.223H85.4V4.149a21.774,21.774,0,0,1,2.456-.074,19.658,19.658,0,0,1,2.158.149,5.8,5.8,0,0,1,1.711.6,2.873,2.873,0,0,1,1.116,1.191,3.625,3.625,0,0,1,.446,1.86A5.013,5.013,0,0,1,92.762,9.953Z" transform="translate(-20.879 -0.205)"/>
    <path id="Path_823" data-name="Path 823" class="cls-1" d="M127.333,23.026c-.819-2.307-1.637-4.39-2.381-6.4-.744-1.935-1.488-3.869-2.158-5.581-.67-1.786-1.414-3.5-2.084-5.06s-1.414-3.2-2.158-4.837L118.4,1h-3.2l-.074.223c-.744,1.563-1.488,3.2-2.158,4.762-.67,1.637-1.414,3.349-2.084,5.06s-1.414,3.646-2.158,5.581-1.488,4.093-2.381,6.4l-.149.372H110L112,17.966h9.45c.3.6.6,1.711.893,2.53.3.967.67,1.786,1.042,2.753l.074.149h3.944Zm-6.92-8.111H113.12c.6-1.786,1.191-3.423,1.786-4.986.6-1.488,1.191-2.976,1.786-4.316.6,1.414,1.191,2.9,1.786,4.39C119.148,11.567,119.743,13.129,120.413,14.915Z" transform="translate(-27.174 -0.256)"/>
    <circle id="Ellipse_212" data-name="Ellipse 212" class="cls-1" cx="2.158" cy="2.158" r="2.158" transform="translate(19.124 19.124)"/>
    <circle id="Ellipse_213" data-name="Ellipse 213" class="cls-1" cx="2.158" cy="2.158" r="2.158" transform="translate(19.124)"/>
    <circle id="Ellipse_214" data-name="Ellipse 214" class="cls-1" cx="2.158" cy="2.158" r="2.158" transform="translate(19.124 9.525)"/>
    <circle id="Ellipse_215" data-name="Ellipse 215" class="cls-1" cx="2.158" cy="2.158" r="2.158" transform="translate(0 19.124)"/>
    <circle id="Ellipse_216" data-name="Ellipse 216" class="cls-1" cx="2.158" cy="2.158" r="2.158" transform="translate(9.525 19.124)"/>
    <circle id="Ellipse_217" data-name="Ellipse 217" class="cls-1" cx="2.158" cy="2.158" r="2.158" transform="translate(9.525 9.674)"/>
  </g>
</svg>
