<svg xmlns="http://www.w3.org/2000/svg" viewBox="10353.747 491.006 15.083 17.085">
  <defs>
    <style>
      .cls-1 {
        fill: #03a5ed;
      }
    </style>
  </defs>
  <g id="anchor" transform="translate(10323.749 491.006)">
    <g id="Group_2004" data-name="Group 2004" transform="translate(29.998)">
      <path id="Path_1712" data-name="Path 1712" class="cls-1" d="M44.778,9.319l-1.535-1a.667.667,0,0,0-1.032.559v2.2a4.679,4.679,0,0,1-4,4.624V4.574a2.336,2.336,0,1,0-1.335,0V15.7a4.679,4.679,0,0,1-4-4.624v-2.2a.667.667,0,0,0-1.032-.559l-1.535,1a.667.667,0,1,0,.729,1.118l.5-.328v.97a6.007,6.007,0,1,0,12.013,0v-.97l.5.328a.667.667,0,1,0,.729-1.118Zm-8.24-6.983a1,1,0,1,1,1,1A1,1,0,0,1,36.538,2.336Z" transform="translate(-29.998)"/>
    </g>
  </g>
</svg>
