<?xml version="1.0" encoding="utf-8"?>
<!-- Generator: Adobe Illustrator 23.0.1, SVG Export Plug-In . SVG Version: 6.00 Build 0)  -->
<svg version="1.1" id="Layer_1" xmlns="http://www.w3.org/2000/svg" xmlns:xlink="http://www.w3.org/1999/xlink" x="0px" y="0px"
	 viewBox="0 0 22.5 22.5" style="enable-background:new 0 0 22.5 22.5;" xml:space="preserve">
<style type="text/css">
	.st0{fill:#FFFFFF;}
	.st1{fill:#54CE63;}
</style>
<circle class="st0" cx="11.3" cy="11.2" r="9.5"/>
<g id="checked" transform="translate(-0.004)">
	<path id="Path_1166" class="st1" d="M11.2,0C5,0,0,5,0,11.2s5,11.2,11.2,11.2s11.2-5,11.2-11.2S17.4,0,11.2,0C11.2,0,11.2,0,11.2,0
		z M11.2,20.3c-5,0-9.1-4.1-9.1-9.1s4.1-9.1,9.1-9.1s9.1,4.1,9.1,9.1c0,0,0,0,0,0C20.3,16.3,16.3,20.3,11.2,20.3
		C11.2,20.3,11.2,20.3,11.2,20.3z M15.6,6.4c-0.5-0.3-1.1-0.1-1.3,0.3c0,0,0,0,0,0l-3.8,6.8L8.4,11c-0.3-0.5-0.9-0.6-1.4-0.4
		c-0.5,0.3-0.7,0.9-0.4,1.4l2.9,3.6c0.2,0.3,0.4,0.4,0.7,0.5l0,0h0c0.5,0.1,1-0.1,1.3-0.5L16,7.9C16.3,7.4,16.1,6.7,15.6,6.4
		L15.6,6.4z"/>
</g>
</svg>
