<?xml version="1.0" encoding="utf-8"?>
<!-- Generator: Adobe Illustrator 23.0.1, SVG Export Plug-In . SVG Version: 6.00 Build 0)  -->
<svg version="1.1" id="Layer_1" xmlns="http://www.w3.org/2000/svg" xmlns:xlink="http://www.w3.org/1999/xlink" x="0px" y="0px"
	 width="35.92px" height="35.92px" viewBox="0 0 35.92 35.92" style="enable-background:new 0 0 35.92 35.92;" xml:space="preserve"
	>
<style type="text/css">
	.st0{fill:#FFFFFF;}
</style>
<path class="st0" d="M13.61,35.92c-3.64,0-7.05-1.4-9.62-3.95C1.42,29.42,0,26.02,0,22.38V22c0-4.71,3.99-9.28,7.5-13.32
	c2.56-2.94,4.98-5.72,4.98-7.56c0-0.62,0.51-1.13,1.13-1.13s1.13,0.51,1.13,1.13c0,1.96,2.45,4.74,5.05,7.69l1.36,1.55
	c0.2,0.23,0.29,0.52,0.27,0.82c-0.02,0.3-0.16,0.57-0.39,0.77c-0.21,0.18-0.47,0.28-0.74,0.28c-0.33,0-0.64-0.14-0.86-0.39
	l-1.22-1.4C16.4,8.39,14.88,6.67,13.84,5l-0.25-0.4L13.34,5c-1.03,1.61-2.54,3.34-4.13,5.16C5.95,13.9,2.26,18.14,2.26,22v0.38
	c0,6.22,5.09,11.28,11.35,11.28c3.04,0,5.86-1.13,7.95-3.17c0.21-0.21,0.49-0.32,0.79-0.32c0.3,0,0.59,0.12,0.8,0.34
	c0.21,0.22,0.33,0.5,0.32,0.8c0,0.3-0.12,0.59-0.34,0.79C20.62,34.57,17.24,35.92,13.61,35.92z M34.8,27.58
	c-1.37,0-2.72-0.78-4.01-2.33c-0.13-0.15-0.33-0.23-0.56-0.23c-0.23,0-0.43,0.09-0.56,0.24c-1.29,1.55-2.64,2.33-4.01,2.33
	s-2.72-0.78-4.01-2.33c-0.13-0.15-0.33-0.23-0.56-0.23c-0.23,0-0.43,0.09-0.56,0.24c-1.29,1.55-2.64,2.33-4.01,2.33
	s-2.72-0.78-4.01-2.33c-0.13-0.15-0.33-0.23-0.56-0.23c-0.23,0-0.43,0.09-0.56,0.24c-1.29,1.55-2.64,2.33-4.01,2.33
	c-0.62,0-1.13-0.51-1.13-1.13s0.51-1.13,1.13-1.13c0.65,0,1.46-0.54,2.28-1.52c0.55-0.66,1.39-1.04,2.29-1.04
	c0.9,0,1.74,0.38,2.29,1.05c0.82,0.98,1.63,1.52,2.28,1.52c0.65,0,1.46-0.54,2.28-1.52c0.55-0.66,1.39-1.04,2.29-1.04
	s1.74,0.38,2.29,1.05c0.82,0.98,1.63,1.52,2.28,1.52s1.46-0.54,2.28-1.52c0.55-0.66,1.39-1.04,2.29-1.04s1.74,0.38,2.29,1.05
	c0.82,0.98,1.63,1.52,2.28,1.52c0.62,0,1.13,0.51,1.13,1.13S35.42,27.58,34.8,27.58z M34.8,20.45c-1.37,0-2.72-0.78-4.01-2.33
	c-0.13-0.15-0.33-0.23-0.56-0.23c-0.23,0-0.43,0.09-0.56,0.24c-1.29,1.55-2.64,2.33-4.01,2.33s-2.72-0.78-4.01-2.33
	c-0.13-0.15-0.33-0.23-0.56-0.23c-0.23,0-0.43,0.09-0.56,0.24c-1.29,1.55-2.64,2.33-4.01,2.33c-0.62,0-1.13-0.51-1.13-1.13
	s0.51-1.13,1.13-1.13c0.65,0,1.46-0.54,2.28-1.52c0.55-0.66,1.39-1.04,2.29-1.04s1.74,0.38,2.29,1.05c0.82,0.98,1.63,1.52,2.28,1.52
	s1.46-0.54,2.28-1.52c0.55-0.66,1.39-1.04,2.29-1.04s1.74,0.38,2.29,1.05c0.82,0.98,1.63,1.52,2.28,1.52c0.62,0,1.13,0.51,1.13,1.13
	S35.42,20.45,34.8,20.45z"/>
</svg>
