<?xml version="1.0" encoding="utf-8"?>
<!-- Generator: Adobe Illustrator 23.0.1, SVG Export Plug-In . SVG Version: 6.00 Build 0)  -->
<svg version="1.1" id="Layer_1" xmlns="http://www.w3.org/2000/svg" xmlns:xlink="http://www.w3.org/1999/xlink" x="0px" y="0px"
	 width="38.16px" height="50.7px" viewBox="0 0 38.16 50.7" style="enable-background:new 0 0 38.16 50.7;" xml:space="preserve">
<style type="text/css">
	.st0{fill:#FFFFFF;}
</style>
<g>
	<g>
		<g>
			<path class="st0" d="M19.08,4.18c-8.21,0-14.9,6.68-14.9,14.9s6.68,14.9,14.9,14.9s14.9-6.68,14.9-14.9S27.29,4.18,19.08,4.18z
				 M21.4,23.51l-0.81,2.63h-3.02l-0.81-2.63l2.32-8.7L21.4,23.51z M19.08,32.41c-7.09,0-12.9-5.56-13.3-12.54h3.37v-1.57H5.77
				c0.16-2.82,1.21-5.41,2.87-7.5l2.04,2.04l1.11-1.11l-2.1-2.1c2.24-2.22,5.26-3.66,8.6-3.85v3.37h0.67l-3.84,14.39l1.28,4.17h5.34
				l1.28-4.17L19.19,9.15h0.67V5.77c3.35,0.2,6.37,1.63,8.6,3.85l-2.1,2.1l1.11,1.11l2.04-2.04c1.66,2.08,2.7,4.67,2.87,7.5h-3.37
				v1.57h3.37C31.98,26.85,26.16,32.41,19.08,32.41z"/>
			<path class="st0" d="M38.16,19.08C38.16,8.56,29.6,0,19.08,0S0,8.56,0,19.08c0,9.46,6.92,17.45,16.2,18.86v7.54h-3.92
				c-1.01,0-1.83,0.82-1.83,1.83v1.83H6.01v1.57h26.13v-1.57H27.7V47.3c0-1.01-0.82-1.83-1.83-1.83h-3.92v-7.54
				C31.24,36.53,38.16,28.54,38.16,19.08z M25.87,47.04c0.14,0,0.26,0.12,0.26,0.26v1.83H12.02V47.3c0-0.14,0.12-0.26,0.26-0.26
				H25.87z M21.08,36.47l-0.69,0.08v8.93h-2.61v-8.93l-0.69-0.08C8.24,35.45,1.57,27.98,1.57,19.08c0-9.66,7.86-17.51,17.51-17.51
				s17.51,7.86,17.51,17.51C36.59,27.98,29.92,35.45,21.08,36.47z"/>
		</g>
	</g>
</g>
</svg>
