<?xml version="1.0" encoding="utf-8"?>
<!-- Generator: Adobe Illustrator 23.0.1, SVG Export Plug-In . SVG Version: 6.00 Build 0)  -->
<svg version="1.1" id="Layer_1" xmlns="http://www.w3.org/2000/svg" xmlns:xlink="http://www.w3.org/1999/xlink" x="0px" y="0px"
	 width="26.82px" height="73.14px" viewBox="0 0 26.82 73.14" style="enable-background:new 0 0 26.82 73.14;" xml:space="preserve"
	>
<style type="text/css">
	.st0{fill:#FFFFFF;}
</style>
<g>
	<path class="st0" d="M13.41,0C8.71,0.01,4.89,3.82,4.88,8.53v40.86c-3.62,2.96-5.42,7.6-4.74,12.22
		c1.03,7.33,7.82,12.43,15.15,11.4c6.62-0.94,11.54-6.61,11.53-13.3c0.01-4-1.78-7.79-4.87-10.32V8.53
		C21.94,3.82,18.12,0.01,13.41,0z M24.38,59.71c0.01,6.06-4.9,10.97-10.95,10.98C7.37,70.7,2.45,65.79,2.45,59.74
		c0-3.46,1.62-6.71,4.39-8.79c0.31-0.23,0.49-0.59,0.49-0.97V46.3h2.44v-2.44H7.32v-3.66h2.44v-2.44H7.32v-3.66h2.44v-2.44H7.32
		v-3.66h2.44v-2.44H7.32v-3.66h2.44V19.5H7.32v-3.66h2.44V13.4H7.32V8.53c0-3.37,2.73-6.09,6.09-6.09c3.36,0,6.09,2.73,6.09,6.09
		v41.45c0,0.38,0.18,0.74,0.49,0.97C22.76,53.01,24.39,56.26,24.38,59.71z"/>
	<path class="st0" d="M14.63,53.74V10.97H12.2v42.77c-3.3,0.67-5.42,3.89-4.75,7.19s3.89,5.42,7.19,4.75
		c3.3-0.67,5.42-3.89,4.75-7.19C18.89,56.1,17.03,54.23,14.63,53.74z M13.41,63.36c-2.02,0-3.66-1.64-3.66-3.66
		c0-2.02,1.64-3.66,3.66-3.66s3.66,1.64,3.66,3.66C17.07,61.73,15.43,63.36,13.41,63.36z"/>
</g>
</svg>
