<?xml version="1.0" encoding="utf-8"?>
<!-- Generator: Adobe Illustrator 23.0.1, SVG Export Plug-In . SVG Version: 6.00 Build 0)  -->
<svg version="1.1" id="Layer_1" xmlns="http://www.w3.org/2000/svg" xmlns:xlink="http://www.w3.org/1999/xlink" x="0px" y="0px"
	 width="101px" height="130px" viewBox="0 0 101 130" style="enable-background:new 0 0 101 130;" xml:space="preserve">
<style type="text/css">
	.st0{enable-background:new    ;}
	.st1{fill:#FFFFFF;}
	.st2{clip-path:url(#SVGID_2_);}
	.st3{fill:#B5C4C6;}
	.st4{fill:#F7AB72;}
	.st5{fill:#663D29;}
	.st6{fill:#FCBA8D;}
	.st7{fill:#E18B4A;}
	.st8{fill:#7A5433;}
	.st9{fill:#7BEA68;}
	.st10{fill:#51AD49;}
	.st11{fill:#231F20;}
</style>
<g>
	<g>
		<g>
			<path d="M90.9,2.2C88.1,0.8,85.1,0,82,0C71.5,0,63,8.5,63,19c0,5,1.9,9.7,5.4,13.3l-0.8,5.7c-0.1,0.4,0.2,0.8,0.6,0.9
				c0.2,0,0.4,0,0.5-0.1l4.3-2.9c9.3,4.9,20.8,1.4,25.7-7.9S100.1,7.1,90.9,2.2z"/>
		</g>
	</g>
	<g class="st0">
		<path class="st1" d="M80.6,21.7c0,1.5-0.3,2.7-1,3.8c-0.8,1.3-1.8,2-3.2,2c-1.4,0-2.4-0.5-3.1-1.6c-0.6-0.9-0.8-2.1-0.8-3.5
			c0-1.4,0.3-2.9,1-4.3c0.8-1.7,1.9-2.6,3.1-2.6c0.3,0,0.8,0.2,1.4,0.6C79.7,17.2,80.6,19,80.6,21.7z M79.3,21.7
			c0-1.1-0.1-2.1-0.4-2.9c-0.4-1.2-1.1-1.8-2-1.8c-1,0-1.8,0.7-2.4,2c-0.4,1-0.7,2.2-0.7,3.3c0,1.1,0.2,2,0.5,2.7
			c0.4,1,1.1,1.5,2.1,1.5c1,0,1.8-0.6,2.3-1.7C79.1,23.9,79.3,22.8,79.3,21.7z"/>
		<path class="st1" d="M90.8,27.7c-0.4,0.3-0.8,0.5-1,0.5c-0.4,0-1-0.5-1.9-1.6c-1.2-1.4-1.8-2.1-1.8-2.2c-0.2-0.2-0.6-0.6-1.1-1.2
			c-0.4-0.5-0.8-0.9-1.2-1.1l-0.5,0.6v2.5c0,0.2,0.1,0.4,0.2,0.7c0.1,0.3,0.2,0.5,0.2,0.7c0,0.1-0.1,0.2-0.2,0.3S83.1,27,83,27
			c-0.7,0-1-0.4-1-1.1v-3.6c0-0.2,0-0.5,0.1-1c0.1-0.4,0.1-0.8,0.1-1v-7c0-1,0-1.8-0.1-2.4c0-0.1,0-0.3-0.1-0.6
			c0-0.2-0.1-0.4-0.1-0.6c0-0.2,0.1-0.3,0.4-0.5c0.3-0.2,0.5-0.3,0.7-0.3c0.2,0,0.3,0,0.5,0.1s0.3,0.2,0.3,0.3c0,0,0,0.2-0.1,0.6
			c-0.1,0.5-0.2,1.4-0.2,2.7l-0.1,7.4l0.1,0.1c0.5-0.3,1.3-1,2.3-1.9c0.6-0.6,1.2-1.2,1.8-1.8c1-1,1.5-1.5,1.7-1.5
			c0.3,0,0.5,0.1,0.6,0.3c0.2,0.2,0.2,0.5,0.2,0.7l0,0.1c-0.7,0.4-1.6,1.2-2.9,2.3c-1.5,1.3-2.2,2.1-2.2,2.5c0,0.2,0.3,0.5,0.8,1.1
			c0.8,0.9,1.6,1.9,2.4,2.8c1.1,1.2,2,1.9,2.7,2.3V27.7z"/>
	</g>
	<g>
		<g>
			<g>
				<path class="st1" d="M90.9,2.2C88.1,0.8,85.1,0,82,0C71.5,0,63,8.5,63,19c0,5,1.9,9.7,5.4,13.3l-0.8,5.7
					c-0.1,0.4,0.2,0.8,0.6,0.9c0.2,0,0.4,0,0.5-0.1l4.3-2.9c9.3,4.9,20.8,1.4,25.7-7.9S100.1,7.1,90.9,2.2z M94.5,31.3
					c-3.3,3.3-7.8,5.2-12.5,5.2c-3,0-6-0.8-8.6-2.2c-0.2-0.1-0.5-0.1-0.8,0l-3.4,2.2l0.7-4.3c0-0.2-0.1-0.5-0.2-0.6
					c-6.9-6.8-7-17.9-0.2-24.8s17.9-7,24.8-0.2C101.2,13.3,101.3,24.4,94.5,31.3z"/>
			</g>
		</g>
	</g>
</g>
<g>
	<g>
		<defs>
			<rect id="SVGID_1_" y="8.1" width="95.6" height="121.9"/>
		</defs>
		<clipPath id="SVGID_2_">
			<use xlink:href="#SVGID_1_"  style="overflow:visible;"/>
		</clipPath>
		<g class="st2">
			<g>
				<path class="st1" d="M44.7,114.5l1-0.5c0.3-0.2,0.7-0.3,1-0.4c0.2-0.1,0.3,0.2,0.1,0.3c-0.1,0.1-0.2,0.1-0.3,0.2
					c0.4,0,0.7,0.1,1.1,0.1c-0.4-1.1-0.9-2.3-1.5-3.3c-0.7-1.2-1.5-2.3-2.3-3.4c-1.1,0.3-2.3,0.6-3.4,0.9c0.8,0.7,1.4,2.1,1.8,2.9
					c0.6,1.3,1,3,0.9,4.4C43.5,115.2,44.1,114.8,44.7,114.5z"/>
				<path class="st3" d="M47,112.7c-0.8-1.6-2.7-1.4-4.2-1.9c-0.5-0.2-0.9-0.5-1.3-0.8c0.2,0.4,0.4,0.9,0.5,1.2c0.6,1.3,1,3,0.9,4.4
					c0.5-0.4,1.1-0.8,1.7-1.2l1-0.5c0.3-0.2,0.7-0.3,1-0.4c0.2-0.1,0.3,0.2,0.1,0.3c-0.1,0.1-0.2,0.1-0.3,0.2c0.4,0,0.7,0.1,1.1,0.1
					c-0.2-0.4-0.3-0.8-0.5-1.3C47,112.8,47,112.8,47,112.7z"/>
				<path class="st4" d="M50,114.3c0-1.7-0.1-3.5-1.4-4.7c-0.8-0.7-1.6-0.8-2.6-0.9c-0.2,0-0.5-0.1-0.7-0.2c1.2,1.7,2.2,3.6,2.8,5.5
					C48.8,114.2,49.4,114.3,50,114.3z"/>
				<path class="st1" d="M24.3,122.1c3.6,1.2,8.2-0.6,11.4-2c1.1-0.5,2.1-1,3.1-1.6l0.6-0.4c0.7-0.4,1.5-0.9,2.2-1.5
					c0.4-0.3,0.7-0.5,1.1-0.8c-0.2-1.3-0.3-2.7-0.7-3.9c-0.4-1.2-1.1-2.6-2-3.6c-1.5,0.4-3,0.8-4.4,1.3c-0.4,0.1-0.8,0.3-1.2,0.4
					l-0.6,0.2c-3.7,1.3-7.4,2.8-11.1,4.2c-0.2,0.1-0.3-0.2-0.1-0.3c1.3-0.7,2.6-1.3,4-1.8c-1.1,0-2.2-0.2-2.5-0.9
					c-0.3,0.1-0.6,0-0.8-0.2c-0.2-0.2-0.1-0.5-0.1-0.8c0.1-0.7,0.3-1.5,0.8-2.1c0-0.1-0.1-0.2-0.1-0.4c0-0.7,0.6-1.4,1.1-1.8
					c0.2-0.1,0.3-0.2,0.5-0.3c0.2-0.5,0.6-1,0.9-1.4c0.2-0.3,0.5-0.6,0.9-0.8c0,0,0,0,0,0c-0.8-0.4-1.5-1-1.8-1.9
					c-0.5-2.3,2.3-1.1,3.4-0.6c0.5-2.7,1.2-5.3,2.3-7.8c0-0.1,0.2,0,0.2,0.1c-0.8,2.6-1.5,5.3-2,7.9c2,0.8,4.3,1.8,5.3,3.7
					c0.5,0.8,0.6,1.8,0.4,2.7c-0.1,0.5-0.3,1.1-0.4,1.6c0.2-0.1,0.4-0.1,0.7-0.2c1.5-0.5,3-0.9,4.4-1.4c0,0,0.1,0,0.1,0l0,0
					c1.2-0.4,2.5-0.7,3.8-1l0.5-0.1l0.4,0.5c0.2,0.3,0.5,0.6,0.7,0.9c0,0,0,0,0,0c1.7,0.2,3.3,0.1,4.5,1.6c1.1,1.3,1.2,3.1,1.1,4.7
					c0.3,0,0.6,0.1,0.9,0.1c0.8,0.1,1.6,0.1,2.3,0.2c0.1-2,0.2-4,0.2-6c0-4.5-0.1-9-0.1-13.5c0-0.2,0.3-0.2,0.3,0
					c0.4,4.6,0.4,9.2,0.4,13.7c0,1.9,0,3.9-0.1,5.8l0,0.6l-0.7-0.1c-0.9-0.1-1.8-0.2-2.7-0.3c-0.9-0.1-1.8-0.2-2.7-0.2l-0.6,0
					c-0.7-0.1-1.5-0.1-2.2-0.2c-2,1.2-3.7,2.7-5.7,3.9c0,0,0,0-0.1,0.1c0.8,0.4,1.5,0.8,2.3,1.2c2.3,1,4.6,2,7,2.9
					c1.9,0.8,4.1,1.6,6.2,1.2c0.5-0.1,1-0.3,1.4-0.5l0.5-0.3c1.1-0.9,1.6-2.2,2-3.7c1.1-4.2,0.8-8.6,0.2-12.9
					c-0.5-4.3-1.4-8.7-2.8-12.8c-1.1-3.2-3.3-6.3-6.5-7.3c0.6,1.1,1.1,2.2,1.4,3.4l0.2,0.6l-0.3,0.5c-0.3,0.4-0.6,0.8-1,1.1
					c-0.8,0.7-1.7,1.4-2.6,1.9c0.5,0.4,1,0.9,1.5,1.3c0.3,0.3,0.6,0.6,0.9,0.8l0.3,0.3l-0.3,0.5c-1.7,2.3-4.8,3.6-7.5,4.1l0,0
					c0.2,0.9,0.2,1.9,0.2,2.9c0,1,0,2.2-0.4,3.2c0,0.1-0.2,0.1-0.2,0c-0.2-1-0.1-2.1,0-3.2c0-0.9-0.1-1.9,0-2.8l0-0.1
					c-2.9,1-6-1.3-7.6-4L34.5,96l0.2-0.6c0.6-1.1,1.4-2.2,2.2-3.1c-0.3-0.2-0.7-0.4-1-0.6c-0.5-0.3-1.1-0.6-1.7-0.9l-0.5-0.3
					l0.2-0.5c0.6-1.5,1.4-2.9,2.2-4.1c0.4-0.6,0.8-1.1,1.2-1.6c-5.2,0.9-8.4,5.9-10.9,10.1c-2.4,4.1-4.2,8.5-5.6,13
					c-1.2,4.3-2.5,10,1.4,13.4c0.5,0.4,1,0.7,1.5,0.9L24.3,122.1z"/>
				<path class="st3" d="M41.8,112c-0.1-0.3-0.3-0.7-0.4-1C41,116.5,34,118.5,29,119c-2.3,0.3-5.5,0.6-7.2-1.4
					c-1.7-2.1,0.6-4.1,2.6-4.6c0.1,0,0.1,0,0.2,0c0.6-0.3,1.2-0.5,1.8-0.8c-1.1,0-2.2-0.2-2.5-0.9c-0.3,0.1-0.6,0-0.8-0.2
					c-0.2-0.2-0.1-0.5-0.1-0.8c0,0,0-0.1,0-0.1c-0.4,0.7-0.9,1.5-1.5,2.1c-0.1,0.1-0.4,0.2-0.5,0.1c-0.5-0.3-0.8-0.8-1-1.4
					c-0.7,3.5-0.6,7.3,2.3,9.8c0.5,0.4,1,0.7,1.5,0.9l0.5,0.2c3.6,1.2,8.2-0.6,11.4-2c1.1-0.5,2.1-1,3.1-1.6l0.6-0.4
					c0.7-0.4,1.5-0.9,2.2-1.5c0.4-0.3,0.7-0.5,1.1-0.8C42.4,114.6,42.3,113.3,41.8,112z"/>
				<path class="st3" d="M56.4,120.4c-1.8,1.5-4.5,1.4-6.5,0.4c-1.3-0.6-2.8-1.5-3.7-2.8c-0.8-1.3-0.8-2.2-0.3-3.4
					c-0.1,0-0.1,0-0.2,0c-2,1.2-3.7,2.7-5.7,3.9c0,0,0,0-0.1,0.1c0.8,0.4,1.5,0.8,2.3,1.2c2.3,1,4.6,2,7,2.9
					c1.9,0.8,4.1,1.6,6.2,1.2c0.5-0.1,1-0.3,1.4-0.5l0.5-0.3c1.1-0.9,1.6-2.2,2-3.7c0.6-2.2,0.8-4.5,0.7-6.7
					C59.7,115.6,58.7,118.4,56.4,120.4z"/>
				<path class="st3" d="M29.1,101.5c0.8,0.3,1.6,0.6,2.4,1c-0.2-0.9-0.4-1.8-0.5-2.7c-0.2-1.8-0.1-3.6-0.1-5.4
					C30.2,96.7,29.5,99.1,29.1,101.5z"/>
				<path class="st3" d="M50.7,113.2c0,0.4,0,0.8,0,1.2c0.3,0,0.6,0.1,0.9,0.1c0.8,0.1,1.6,0.1,2.3,0.2c0.1-2,0.2-4,0.2-6
					c0-2.2,0-4.3,0-6.5c-0.2,1.7-0.4,3.4-0.8,5.1C52.8,109.4,52.1,111.7,50.7,113.2z"/>
				<path class="st5" d="M24,190c-0.9-0.3-2.1-0.8-2.8-1.5c0,0,0,0,0-0.1c-0.6,0.2-1.2,0.3-1.8,0.5c-1.1,0.4-2.2,0.8-3.2,1.3
					c-1,0.5-2,1-3,1.6c-0.4,0.3-1.5,1-2,1.8c2.2-0.1,4.4-0.1,6.7-0.2c2.2-0.2,4.6-0.8,6.9-0.6c0.1,0,0.1,0.2,0,0.2
					c-2.1,0.7-4.7,0.7-6.9,0.9c-2.2,0.2-4.6,0.4-6.8,0c-0.1,0.4,0,0.7,0.6,0.9c1.4-0.1,2.8,0.1,4.2,0.1c1.5,0,3.1,0,4.6-0.2
					c1.9-0.1,3.8-0.4,5.6-0.8c0.2-0.6,0.5-1.2,0.6-1.9c0.1-0.6,0.2-1.2,0.2-1.9C25.9,190.4,24.9,190.2,24,190z"/>
				<path class="st1" d="M35.9,87.5c-0.5,0.9-1,1.9-1.4,2.8c0.7,0.3,1.3,0.7,1.9,1c0.3,0.2,0.6,0.4,0.9,0.6l0.3,0.2l-0.3,0.5
					c-0.4,0.6-0.9,1.1-1.2,1.7c-0.4,0.6-0.7,1.2-1,1.9c1.5,2.5,4,4.8,7,4.1c-1.2-2.2-1.9-4.6-2.2-7.3c-0.4-3.3-0.4-6.8-0.1-10.2
					c-0.6,0.1-1.1,0.7-1.6,1.3c0,0.1,0,0.1-0.1,0.1c-0.3,0.4-0.6,0.8-0.8,1.2C36.8,86.1,36.3,86.8,35.9,87.5z"/>
				<path class="st4" d="M25.8,111.6c0.7,0,1.4,0,2.1,0.1c2-0.8,4-1.4,5.9-2.1c0.4-1.1,0.8-2.2,0.5-3.3c-0.5-1.9-2.5-3-4.2-3.8
					c-1-0.4-2-0.8-3-1.2c-0.2-0.1-0.9-0.4-1.1-0.3c-1,0.5,0.3,1.8,0.7,2c1.2,0.8,2.6,1.1,3.7,1.9c0.6-0.1,1.1-0.1,1.7,0
					c0.2,0,0.2,0.2,0,0.3c-1.5,0.5-3.2,0.5-4.8,0.8c-0.7,0.1-1.3,0.2-2,0.5h0c-0.1,0-0.1,0.1-0.2,0.1c-0.3,0.2-1,0.7-1,1.1
					c0,0.5,0.7,0.9,1.1,1.2c0.4-0.2,0.8-0.4,1.1-0.6c1.2-0.5,2.8-0.9,4.1-0.9c0.1,0,0.2,0.2,0.1,0.2c-1.5,0.8-3.4,0.8-4.8,1.7
					c-0.4,0.3-1.1,0.8-1.2,1.3C24.3,111.6,25.1,111.6,25.8,111.6z"/>
				<path class="st4" d="M24.9,109.3c-0.3-0.1-0.7-0.3-0.9-0.5c-0.1,0.3-0.3,0.7-0.4,1c-0.1,0.2-0.2,0.7-0.2,0.9
					c0,0.2,0.2,0.3,0.4,0.4c0-0.2,0.1-0.4,0.2-0.6C24.2,110,24.5,109.6,24.9,109.3z"/>
				<path class="st4" d="M29.5,105.1c-0.6-0.3-1.2-0.6-1.9-0.9c0,0-0.1,0-0.1,0c-0.5,0.1-1,0.8-1.3,1.2c-0.1,0.1-0.1,0.2-0.2,0.3
					c0.6-0.2,1.3-0.3,1.9-0.3C28.4,105.2,29,105.1,29.5,105.1z"/>
				<path class="st1" d="M34.9,58.2c0.1-0.2,0.1-0.3,0.2-0.5c0.1-0.3,0.5-1.8-0.2-1.5c-0.1,0.2-0.2,0.4-0.3,0.7c0,0.3,0,0.6,0.1,0.9
					C34.6,57.9,34.7,58,34.9,58.2z"/>
				<path class="st1" d="M51,58.2c0.1-0.2,0.1-0.3,0.2-0.5c0.1-0.3,0.5-1.8-0.2-1.5c-0.1,0.2-0.2,0.4-0.3,0.7c0,0.3,0,0.6,0.1,0.9
					C50.8,57.9,50.9,58,51,58.2z"/>
				<path class="st4" d="M53.1,64.7c0.1,0.5,0.1,1.1,0.2,1.6c0.5-1.6,2.1-3,3.2-4c0.8-0.8,1.9-1.9,3.1-2.6c-0.2-0.5-0.3-1.1-0.4-1.7
					c-0.3,0-0.6,0-0.9,0c-0.9,0.1-1.8,0.2-2.7,0.2c-0.1,2-1.1,4-2.9,4.5c-2.2,0.7-5.5-0.4-6.4-2.7c-0.9-2.2,0-5.9,2.5-6.5
					c0.1,0,0.2,0.2,0.1,0.2c-2.1,1-3,3.8-2.2,5.9c0.7,2.1,3.6,3.2,5.6,2.7c1.8-0.4,2.7-2.4,2.8-4.2c0,0,0-0.1,0-0.2
					c0-0.7-0.1-1.3-0.3-1.9c-0.9-2.4-3.4-3.1-5.7-2.4c-0.1,0-0.2-0.2-0.1-0.2c2.4-1,5.3-0.3,6.2,2.3c0.2,0.6,0.3,1.3,0.3,2
					c0.8-0.2,1.7-0.2,2.5-0.2c0.3,0,0.7,0,1-0.1c-0.2-1.6-0.2-3.3-0.1-4.8c0.1-2,0.4-4.1,0.9-6.1c-1.7,0.2-3.6,0-5.2-0.7
					c0.1,0.2,0.1,0.5,0,0.8c-0.3,2-2.7,2.3-4.3,2.2c-3-0.3-5.9-1.4-8.4-3.2c0.2,1.8-1.3,2.2-2.8,2.2c-3.4-0.1-6.3-2.5-7.4-5.6
					c-1.5,1.8-2.4,4.1-3.3,6.2c-1,2.4-1.6,4.9-1.9,7.4c0.1,0,0.3,0.1,0.4,0.1c0.6,0.1,1.2,0.2,1.7,0.4c0.7-2.2,2.6-4.3,5-4
					c0.1,0,0.2,0.2,0,0.2c-2.6,0.4-4.5,2.4-4.8,5c-0.3,2.9,2.1,5.8,5.1,5.5c2.7-0.3,4.5-2.3,4.7-5c0.2-2.6-1.2-5.5-4.2-5.6
					c-0.1,0-0.1-0.1,0-0.1c3.1-0.3,4.7,2.7,4.6,5.5c1.6-1.6,5.3-2.3,6.1,0.2c0,0.1-0.1,0.2-0.2,0.1c-1.5-2.1-4.3-0.8-6,0.3
					C39,61,37,63,34.1,63.3c-3.1,0.4-5.7-2.6-5.6-5.6c0-0.4,0.1-0.7,0.2-1.1c-0.5-0.1-1.1-0.2-1.6-0.3c-0.2,0-0.3-0.1-0.5-0.1
					c-0.1,0.5-0.1,0.9-0.2,1.4c0,0,0,0,0,0.1c0,0,0,0,0,0c0.7,1.4,1.3,2.8,1.9,4.2c0.5,1.3,1.2,2.7,1.6,4.1c0.1-0.2,0.1-0.4,0.2-0.5
					l0.1-0.4l0.4,0.1c2.3,0.9,4.8,1.1,7.4,1.1c-0.3-1.4,0.2-3.1,0.8-4.3c0.7-1.4,1.7-2.8,2.9-3.8c0.1-0.1,0.2,0.1,0.2,0.2
					c-0.9,1.2-1.8,2.2-2.5,3.5c-0.4,0.8-0.7,1.6-0.8,2.5c-0.1,0.6-0.1,1.2-0.2,1.8c1.1,0,2.3,0,3.4-0.1c3.8-0.1,7.4-0.8,11-1.9
					l0.3-0.1L53.1,64.7z M49.9,57.4c0.1-0.3,0.8-2,1.4-1.8c0.1,0,0.2,0,0.3,0c0.4,0.2,0.4,0.8,0.3,1.2c-0.1,0.8-0.4,2.7-1.4,3
					C49.2,60.1,49.7,58,49.9,57.4z M52.7,49.2c1.2-0.1,2,1.3,1.8,2.4c0,0.2-0.3,0.2-0.4,0.1c-0.2-0.3-0.2-0.8-0.4-1.1
					c-0.3-0.6-0.9-0.6-1.4-0.4c-0.7,0.3-1.2,0.8-1.8,1.3c-0.1,0.1-0.4,0.1-0.4-0.1C50.2,50.3,51.7,49.2,52.7,49.2z M35.1,55.6
					c0.1,0,0.2,0,0.3,0c0.4,0.2,0.4,0.8,0.3,1.2c-0.1,0.8-0.4,2.7-1.4,3c-1.3,0.3-0.8-1.8-0.6-2.4C33.8,57.1,34.5,55.3,35.1,55.6z
					 M37.6,50.7c0,0.2-0.3,0.2-0.3,0c-0.5-1-1-1.8-2.2-1.8c-0.9,0.1-1.6,0.7-2.2,1.2c-0.1,0.1-0.3,0-0.3-0.1
					C32.8,47.3,38.2,47.8,37.6,50.7z"/>
				<path class="st6" d="M29,57.4c-0.3,2.9,2.1,5.8,5.1,5.5c2.7-0.3,4.5-2.3,4.7-5c0.2-2.5-1.2-5.4-4-5.6c-0.7,0.1-1.4,0.4-2.1,0.4
					C30.7,53.3,29.2,55.1,29,57.4z M33.7,57.4c0.1-0.3,0.8-2,1.4-1.8c0.1,0,0.2,0,0.3,0c0.4,0.2,0.4,0.8,0.3,1.2
					c-0.1,0.8-0.4,2.7-1.4,3C33.1,60.1,33.5,58,33.7,57.4z"/>
				<path class="st6" d="M54.9,56.1c-0.9-2.4-3.4-3.1-5.7-2.4c0,0-0.1,0-0.1,0c0,0-0.1,0-0.1,0c0,0,0,0,0,0.1c-2.1,1-3,3.8-2.2,5.9
					c0.7,2.1,3.6,3.2,5.6,2.7c1.8-0.4,2.7-2.4,2.8-4.2c0,0,0-0.1,0-0.2C55.1,57.3,55,56.6,54.9,56.1z M51.9,56.8
					c-0.1,0.8-0.4,2.7-1.4,3c-1.3,0.3-0.8-1.8-0.6-2.4c0.1-0.3,0.8-2,1.4-1.8c0.1,0,0.2,0,0.3,0C51.9,55.8,51.9,56.4,51.9,56.8z"/>
				<path class="st7" d="M59.2,58c-0.3,0-0.6,0-0.9,0c-0.4,0-0.8,0.1-1.2,0.1c0,0.2,0,0.3,0.1,0.5c0,0.4,0.3,1.5,0.7,2.3
					c0.5-0.5,1.1-0.9,1.7-1.3C59.4,59.2,59.3,58.6,59.2,58z"/>
				<path class="st7" d="M31.1,47.3c0.1-0.1,0.3-0.1,0.4,0c0.8,0.4,1.6,0.8,2.3,1.1c1.3-0.5,3.3,0,3.7,1.3c1.7,0.3,3.5,0.2,5.2-1
					c0.2-0.1,0.4-0.1,0.5,0.1c1.7,1.8,4.2,2.6,6.7,2.5v0c0.1-1.1,1.7-2.1,2.7-2.2c0.7,0,1.3,0.5,1.6,1.2c0.3-0.2,0.6-0.3,0.9-0.5
					c0.2-0.1,0.5,0,0.5,0.1c1.2,2.4,1,5,1.3,7.6c0.4,0,0.7,0,1.1-0.1c0.3,0,0.7,0,1-0.1c-0.2-1.6-0.2-3.3-0.1-4.8
					c0.1-2,0.4-4.1,0.9-6.1c-1.7,0.2-3.6,0-5.2-0.7c0.1,0.2,0.1,0.5,0,0.8c-0.3,2-2.7,2.3-4.3,2.2c-3-0.3-5.9-1.4-8.4-3.2
					c0.2,1.8-1.3,2.2-2.8,2.2c-3.4-0.1-6.3-2.5-7.4-5.6c-1.5,1.8-2.4,4.1-3.3,6.2c-0.3,0.7-0.5,1.3-0.7,2
					C28.8,49.2,30,48.2,31.1,47.3z"/>
				<path class="st4" d="M52.2,50.1c-0.6,0.3-1.1,0.7-1.6,1.2c1.1-0.1,2.1-0.3,3.1-0.7c0,0,0-0.1-0.1-0.1
					C53.3,49.9,52.7,49.8,52.2,50.1z"/>
				<path class="st4" d="M35,49c0.5,0.2,1,0.4,1.4,0.5C36.1,49.1,35.7,48.9,35,49L35,49z"/>
				<path class="st4" d="M28.8,72.5c0-0.7,0.1-1.5,0.2-2.2c0.1-1.2,0.4-2.4,0.7-3.6c-0.8-1.3-1.2-2.8-1.8-4.2c-0.4-1-0.8-2-1.1-3
					c-0.2-0.5-0.5-0.9-0.7-1.4C26,58.1,26,58,26,57.9c0,0,0,0,0,0c-0.3-0.5-0.6-0.9-1-1.3c-0.3-0.4-0.4-0.5-0.9-0.5
					c-0.5,0.1-0.5,0.3-0.8,0.7c-0.3,0.5-0.6,1.1-0.8,1.8c-0.4,1.2-0.5,2.4-0.4,3.7c0.1,1.2,0.7,4.1,2.4,3.6c0-0.4,0.1-0.9,0.1-1.3
					c0-0.1,0.2-0.1,0.2,0c0,0.4,0.1,0.8,0.1,1.2l0,0.6c0,0.2,0,0.4,0,0.6c0.4,1.2,1,2.1,1.7,3.1C27.4,70.8,28.2,71.6,28.8,72.5z
					 M24.9,63.5c0,0.1-0.2,0.1-0.2,0c-0.1-1.1,0-2.2-0.1-3.3c0-0.2,0-1-0.4-0.7c-0.2,0.1-0.3,0.7-0.3,0.8c-0.1,0.4-0.2,0.7-0.4,1
					c-0.1,0.1-0.3,0.1-0.3,0c-0.2-0.7,0.4-3.3,1.6-2.5c0.5,0.3,0.4,1.1,0.4,1.6C25.2,61.3,25.2,62.4,24.9,63.5z"/>
				<path class="st4" d="M40.5,80.8c0.4,0,0.8,0.1,1.2,0.1c0.1,0,0.2,0.2,0,0.3c-0.4,0.1-0.8,0.2-1.2,0.2c0,2.1-0.2,4.3-0.2,6.4
					c0.9,0.8,1.7,1.5,3,1.4c1.3-0.1,2.1-0.9,2.8-1.8c0-2-0.1-4.1,0-6.2c-0.7,0.1-1.3,0.1-2,0c-0.2,0-0.1-0.2,0-0.3
					c0.7-0.1,1.3-0.2,2-0.3l0.4-0.1c3-0.7,6.1-2,8.5-3.9c1.5-1.2,2.6-2.8,3.4-4.5c0.3-0.7,0.6-1.4,0.8-2.1c-0.6,0.7-1.4,1.2-2.2,1.6
					c-1,0.5-2.2,1.1-3.3,0.9c0,0.9-0.1,1.7-0.3,2.6L53,75.8l-0.7,0.4c-3.2,1.5-6.8,2.3-10.3,2.5c-2.8,0.1-5.6-0.3-8.3-0.8
					c-1.4-0.3-2.9-0.6-4.1-1.4L28.9,76l-0.1-0.6c-0.1-0.7-0.1-1.5-0.1-2.2c-1.1-0.9-2-2.1-2.7-3.2c-0.3-0.4-0.6-0.9-0.8-1.4
					c0.2,3.2,0.7,6.3,2.6,9c1.4,2.1,4.2,2.5,6.5,2.9c1.9,0.3,3.8,0.3,5.7,0.4L40.5,80.8z"/>
				<path class="st4" d="M40.4,82.8c-0.1,1.7-0.2,3.3-0.2,5c0.6,0.6,1.2,1.1,2,1.3C42.7,86.5,42.2,82.9,40.4,82.8z"/>
				<path class="st7" d="M46,81.2c-0.7,0.1-1.3,0.1-2,0c-0.2,0-0.1-0.2,0-0.3c0.3,0,0.7-0.1,1-0.1c-1.1,0.1-2.2,0.2-3.3,0.2
					c0.1,0.1,0.1,0.2,0,0.2c-0.4,0.1-0.8,0.2-1.2,0.2c0,0.2,0,0.4,0,0.5c2.4,0,3.1,4.2,2.6,7.2c0.1,0,0.1,0,0.2,0
					c1.3-0.1,2.1-0.9,2.8-1.8C46,85.3,45.9,83.2,46,81.2z"/>
				<path class="st4" d="M36.6,80.6c-2.2-0.3-5.2-0.8-7.8-2c1.5,1.1,3.6,1.4,5.4,1.8c1,0.2,2.1,0.3,3.1,0.3
					C37.2,80.6,36.9,80.6,36.6,80.6z"/>
				<path class="st8" d="M26,57c0-0.3,0-0.6,0.1-0.9c-0.2-0.1-0.5-0.1-0.7-0.3c-0.1,0,0-0.2,0-0.2c0.2,0,0.4,0,0.7,0
					c0.3-2.7,1.1-5.4,2.1-7.9c0.9-2.1,1.9-4.5,3.5-6.2l0.3-0.3l0.2,0.5c0.9,2.5,2.8,4.6,5.6,5.2c0.8,0.2,1.9,0.3,2.7,0.1
					c1-0.2,1.1-1.2,0.9-2L41,44l0.9,0.7c1.9,1.4,3.9,2.5,6.2,3.1c1.6,0.4,4.3,1.1,5.6-0.3c0.6-0.6,0.5-1.3,0.2-1.9l-1.1-1.3l1.4,0.8
					c0.8,0.4,1.6,0.7,2.5,0.9c1.1,0.2,2.2,0.2,3.3,0l0.6-0.1l-0.1,0.6c-0.4,2-0.8,4-0.9,6c-0.1,1.7,0,3.3,0.2,5c0.4,0,0.8,0,1.2,0.1
					c0.1,0,0.1,0.2,0,0.3C60.7,57.9,60.3,58,60,58c0.1,0.5,0.2,1,0.2,1.5c0.2-0.1,0.5-0.2,0.8-0.2c0.6-0.8,1.3-1.5,2.2-1.8
					c0-1,0.2-2.1,0.3-3.1c0.2-0.9,0.2-1.8,0.3-2.6l0.1-0.6l0.5,0.3c0.6,0.3,1.1,0.4,1.3,0c0.1-0.3-0.2-1.2-0.3-1.5
					c-0.1-0.4-0.2-0.8-0.4-1.2c-0.5-1.3-1.2-2.6-2.2-3.7l-1.2-0.8c0.2,0.1,0.5,0.1,0.7,0.2l0.7,0.1c0,0,0.1,0,0.2,0
					c0.5,0.1,1.3,0.3,1.8,0.2c0.4-0.1,0.8-0.8,0.9-1.2c0.1-0.3-0.1-0.7-0.1-1c-0.1-0.4-0.2-0.8-0.3-1.2c-0.3-1-0.8-2-1.5-2.9
					c-2-2.9-5.2-4.9-8.4-6.4c-3.2-1.5-6.7-2.4-10.2-2.7c-3.5-0.3-7.5-0.1-10.8,1.3c-1.6,0.7-3.1,1.8-3.9,3.4
					c-0.8,1.5-0.8,3.1-0.5,4.7l0.1,0.5l-0.4,0.3c-2.2,1.6-3.2,4.2-3.9,6.8c-0.4,1.6-0.6,3.2-0.8,4.8c-0.1,1.5-0.1,3-0.4,4.5
					C25.2,55.8,25.6,56.4,26,57z"/>
				<path class="st5" d="M63,44.5c0,0,0.1,0,0.2,0c0.5,0.1,1.3,0.3,1.8,0.2c0.4-0.1,0.8-0.8,0.9-1.2c0.1-0.3-0.1-0.7-0.1-1
					c-0.1-0.4-0.2-0.8-0.3-1.2c-0.1-0.4-0.3-0.7-0.4-1.1c-0.1,1.1-0.6,2-2.1,2.4c-4.7,1.2-9.7-1.4-13.9-3.3c0.2,4.3-6.6,1.2-9.3-0.8
					c-0.2,2.6-3.8,2-5.5,0.1c-1.7-2-2.2-4.5-1.6-6.9c-0.8,0.6-1.5,1.3-2,2.2c-0.8,1.5-0.8,3.1-0.5,4.7l0.1,0.5l-0.4,0.3
					c-2.2,1.6-3.2,4.2-3.9,6.8c-0.4,1.6-0.6,3.2-0.8,4.8c-0.1,1.5-0.1,3-0.4,4.5c0.5,0.3,1,1,1.3,1.5c0-0.3,0-0.6,0.1-0.9
					c-0.2-0.1-0.5-0.1-0.7-0.3c-0.1,0,0-0.2,0-0.2c0.2,0,0.4,0,0.7,0c0.3-2.7,1.1-5.4,2.1-7.9c0.9-2.1,1.9-4.5,3.5-6.2l0.3-0.3
					l0.2,0.5c0.9,2.5,2.8,4.6,5.6,5.2c0.8,0.2,1.9,0.3,2.7,0.1c1-0.2,1.1-1.2,0.9-2L41,44l0.9,0.7c1.9,1.4,3.9,2.5,6.2,3.1
					c1.6,0.4,4.3,1.1,5.6-0.3c0.6-0.6,0.5-1.3,0.2-1.9l-1.1-1.3l1.4,0.8c0.8,0.4,1.6,0.7,2.5,0.9c1.1,0.2,2.2,0.2,3.3,0l0.6-0.1
					l-0.1,0.6c-0.4,2-0.8,4-0.9,6c-0.1,1.7,0,3.3,0.2,5c0.4,0,0.8,0,1.2,0.1c0.1,0,0.1,0.2,0,0.3C60.7,57.9,60.3,58,60,58
					c0.1,0.5,0.2,1,0.2,1.5c0.2-0.1,0.5-0.2,0.8-0.2c0.6-0.8,1.3-1.5,2.2-1.8c0-1,0.2-2.1,0.3-3.1c0.2-0.9,0.2-1.8,0.3-2.6l0.1-0.6
					l0.5,0.3c0.6,0.3,1.1,0.4,1.3,0c0.1-0.3-0.2-1.2-0.3-1.5c-0.1-0.4-0.2-0.8-0.4-1.2c-0.5-1.3-1.2-2.6-2.2-3.7l-1.2-0.8
					c0.2,0.1,0.5,0.1,0.7,0.2L63,44.5z"/>
				<path class="st4" d="M24.1,188.7c-0.7-0.1-1.3-0.3-2-0.6c-0.2,0.1-0.3,0.1-0.5,0.2c0.7,0.1,1.4,0.5,2,0.8
					c1.1,0.5,2.1,0.4,3.2,0.5c0-0.4,0-0.9,0-1.3C25.9,188.6,25,188.8,24.1,188.7z"/>
				<path class="st4" d="M56.5,187.3c-0.2,0-0.3-0.1-0.5-0.1c-1.6,0.7-3.4,1-5.2,0.8c0.1,0.6,0.2,1.1,0.3,1.7c0.7-0.2,2.7-1,2.9-1.1
					C54.9,188.2,55.6,187.6,56.5,187.3z"/>
				<path class="st5" d="M65.6,190c-0.9-0.5-2-0.7-3-1c-1.9-0.6-3.8-1.1-5.8-1.6c0,0,0,0.1,0,0.1c-1.1,1.4-3.7,2.5-5.5,2.6
					c0.1,0.8,0.2,1.6,0.3,2.4c0,0.1,0,0.2,0.1,0.4c2.1,0.2,4.2,0.2,6.4,0.3c1.3,0.1,2.7,0.1,4.1,0.1c1.1,0,2.2-0.1,3.3,0.1
					c0.5-0.2,0.9-0.4,1.1-0.8c-2.3,0.1-4.6,0-6.9-0.1c-2.3-0.1-4.6-0.2-6.9-0.6c-0.1,0-0.1-0.2,0-0.2c2.4,0.1,4.7,0.2,7.1,0.3
					c2.3,0.1,4.6,0,6.9,0.1C66.9,191.4,66.5,190.5,65.6,190z"/>
				<path class="st9" d="M54.3,187.2c0.9-0.3,1.7-0.7,2.4-1.2c-0.2-1.9-0.3-3.9-0.5-5.8c-0.2-2.4-0.4-4.8-0.5-7.2
					c-2.3,0.8-4.7,1.5-7.1,2.1c0.5,2.1,0.8,4.3,1.1,6.5c0.3,1.9,0.6,3.9,0.8,5.8C51.7,187.6,53.1,187.6,54.3,187.2z"/>
				<path class="st1" d="M43.5,99.2c-0.1,0.3-0.3,0.6-0.4,0.9c1.3-0.4,2.7-0.8,3.9-1.5c1.1-0.6,2-1.4,2.9-2.3
					c-0.3-0.3-0.6-0.6-0.9-0.9c-0.5-0.5-1-1-1.6-1.4l-0.4-0.3l0.3-0.2c0.8-0.5,1.6-0.9,2.3-1.5c0.6-0.5,1.1-1,1.6-1.6
					c-0.6-1.4-1.1-2.8-1.8-4.1l-0.3-0.6c-0.4-0.7-0.8-1.3-1.2-1.8c-0.4-0.5-1-0.9-1.5-1.3c0.1,1.6,0,3.2,0.1,4.8
					c0,2.2-0.1,4.2-0.8,6.3C45.2,95.5,44.5,97.4,43.5,99.2z"/>
				<path class="st1" d="M56.1,172.1c0.6-0.2,1.2-0.4,1.8-0.6c1.1-0.4,2.3-0.9,3.4-1.3c-0.4-8-0.9-16-1.5-24
					c-0.4-4.4-0.8-8.7-1.3-13c-0.3-3.1-0.7-6.2-1.4-9.2c-2.7,1.3-6.5-0.2-9.1-1.2c-2.2-0.9-4.4-1.8-6.6-2.8c-0.7-0.3-1.3-0.7-2-1.1
					c-2.2,1.3-4.6,2.3-7,3.1c-2.6,0.8-5.5,1.4-8,0.7c-0.3,3.7-0.8,7.4-1.1,11.1c-0.8,8.5-1.4,17-1.9,25.5c-0.2,3.8-0.4,7.6-0.5,11.4
					c0.3,0.1,0.6,0.3,1,0.4l0.4,0.2c2.4,1.1,4.8,2.1,7.3,2.9l0.6,0.2c2.5,0.7,5,1.2,7.5,1.3c0.2-1.4,0.4-2.8,0.6-4.2
					c0.4-3.1,0.8-6.2,1.2-9.4c0-0.4,0.6-0.4,0.6,0c0.4,4.3,1,8.5,1.7,12.7c0,0.3,0.1,0.5,0.1,0.8c0.9-0.1,1.8-0.2,2.7-0.3
					c1.2-0.2,2.4-0.4,3.5-0.7l0.4-0.1c2.5-0.6,4.9-1.3,7.2-2.1L56.1,172.1z M31.4,154.6c-0.5,1.8-1.6,3.8-3.6,4.1
					c-1.2,0.1-2.3-0.4-3.2-1c-0.8-0.4-1.5-0.9-1.8-1.8c-0.3-1.1-0.2-2.5-0.1-3.7c0-1.4,0.1-2.8,0.4-4.1c0-0.2,0.3-0.1,0.3,0
					c-0.1,2.1-0.4,4.2-0.3,6.4c0,0.5,0,1.2,0.3,1.6c0.3,0.5,0.9,0.8,1.5,1.1c1.1,0.6,2.2,1.1,3.4,0.6c2.1-0.8,2.6-3.5,3-5.4
					c0.5-2.1,0.7-4.3,1-6.5c0-0.2,0.4-0.3,0.4,0C32.8,148.8,32.2,151.8,31.4,154.6z M32.7,145.2c-1.4,0.6-3.1,0.6-4.6,0.8
					c-0.4,0.1-4.5,0.9-4.6,0.7c0,0.1,0,0.1-0.1,0.2c0,0,0,0-0.1,0c-0.1,0-0.1-0.1-0.2-0.1l0-0.1c0-0.1,0-0.2,0.1-0.2
					c0.6-0.4,1.6-0.5,2.3-0.6c0.8-0.2,1.6-0.3,2.5-0.5c1.5-0.2,3.2-0.8,4.7-0.5C32.8,144.9,32.8,145.2,32.7,145.2z M36.1,137.9
					c0.3-0.7,1-1.3,1.7-1.4c0.1,0,0.2,0.2,0.1,0.2c-0.6,0.4-1.6,1.2-1.4,2.1c0.2,0.8,1.1,0,1.3-0.4c0.3-0.4,0.4-1,0.2-1.5
					c-0.1-0.2,0.2-0.5,0.4-0.3c0.5,0.7,0.4,1.5,0,2.2c-0.4,0.6-1.1,1.1-1.8,0.8C35.9,139.4,35.9,138.5,36.1,137.9z M38.7,152.7
					c-0.3,0.6-0.9,1.3-1.7,1.2c-0.8-0.1-0.6-1.1-0.5-1.7c0.2-0.6,0.7-1.5,1.4-1.6c0.1,0,0.2,0.1,0.1,0.2c-0.2,0.3-0.5,0.6-0.7,0.9
					c-0.2,0.3-0.4,0.9-0.3,1.2c0.1,0.4,0.5,0.2,0.7,0c0.2-0.2,0.4-0.5,0.5-0.8c0.2-0.4,0.2-0.8,0-1.2c-0.1-0.2,0.2-0.3,0.3-0.2
					C39.2,151.1,38.9,152.2,38.7,152.7z M38.8,125.5c-0.4,0.6-1.1,0.9-1.7,0.4s-0.5-1.4-0.2-2c0.2-0.4,0.9-0.8,1.3-0.3
					c0.1,0.1,0,0.2-0.1,0.2c-0.5,0-0.7,0.2-0.8,0.7c-0.1,0.4-0.1,1,0.4,1.1c0.4,0.1,0.7-0.4,0.8-0.7c0.1-0.4,0-0.8,0-1.2
					c0-0.2,0.2-0.3,0.3-0.2C39.2,124,39.2,124.9,38.8,125.5z M41.5,130.6c0.1,3.2,0.3,6.4,0.2,9.7c0,3.2-0.3,6.4-0.7,9.6
					c-0.3,3.1-0.5,6.3-1.2,9.4c0,0.2-0.3,0.1-0.3,0c0.1-3.3,0.7-6.5,1-9.8c0.2-3.2,0.4-6.4,0.5-9.6c0-3.2-0.2-6.4-0.2-9.7
					c0-3.1,0-6.4,0.8-9.4c0-0.1,0.3-0.1,0.2,0C41.6,124.1,41.4,127.3,41.5,130.6z M46.2,145.8c1.7-0.4,3.5-0.2,5.3-0.2
					s3.6,0.2,5.3,0.6c0.3,0.1,0.2,0.5-0.1,0.5c-1.7-0.1-3.5-0.4-5.2-0.5c-1.7-0.1-3.5,0-5.2-0.2C46.1,146,46,145.8,46.2,145.8z
					 M46.7,147.1c0-0.3,0.4-0.2,0.4,0c0.3,3.8,0.1,11.1,5.6,10.8c2.4-0.1,3.6-1.7,3.7-4c0-2.3-0.2-4.6,0-6.8c0-0.2,0.3-0.2,0.3,0
					c0.2,1.6,0.2,3.2,0.2,4.8c0,1.3,0.2,2.6-0.2,3.8c-0.5,1.8-2.3,2.8-4.1,2.9C46.8,158.9,46.7,151.3,46.7,147.1z"/>
				<path class="st3" d="M37.7,125.6c0.4,0.1,0.7-0.4,0.8-0.7c0.1-0.3,0-0.6,0-0.9c-0.1,0-0.2-0.1-0.3-0.1c0,0,0,0-0.1,0
					c-0.5,0-0.7,0.2-0.8,0.7C37.2,124.9,37.2,125.5,37.7,125.6z"/>
				<path class="st3" d="M59.7,146.2c-0.4-4.4-0.8-8.7-1.3-13c-0.3-3.1-0.7-6.2-1.4-9.2c-2.7,1.3-6.5-0.2-9.1-1.2
					c-2.2-0.9-4.4-1.8-6.6-2.8c-0.7-0.3-1.3-0.7-2-1.1c-2.2,1.3-4.6,2.3-7,3.1c-2.6,0.8-5.5,1.4-8,0.7c0,0,0,0,0,0
					c1.2,0.6,2.2,1.2,3.6,1.3c1.5,0.1,2.8,0,4.2-0.4c1.9-0.6,3.9-1.3,5.8-0.6c0,0,0,0,0,0c0,0,0.1,0,0.1,0c1,0.2,1.9,0.6,2.8,1
					c0.1-0.2,0.2-0.3,0.3-0.5c0.1-0.9,0.3-1.8,0.5-2.7c0-0.1,0.3-0.1,0.2,0c-0.1,0.7-0.1,1.4-0.2,2.2c1-0.5,2.2,0,3.4,0.7
					c3.6,2,6.8,3.6,11,2.9c0.2,0,0.4,0.1,0.5,0.3c1.2,3.3,0.9,7.4,1,10.8c0,2.9,0.7,6.5-0.6,9.1c0,0.1-0.1,0.2-0.2,0.2
					c0.2,1.1,0.2,2.4,0.1,3.7c0,0.4,0,0.8,0,1.2c0,1.3,0.2,2.6-0.2,3.8c-0.2,0.8-0.6,1.4-1.2,1.8c0.7-0.2,1.3-0.4,2,0.2
					c0.9,0.7,0.8,2.9,0.7,3.8c-0.2,3.6-1.6,6.1-4.8,8c-2.7,1.6-7,3.2-9.9,1.2c-1.3-0.9-2.3-2.2-3-3.8c0.3,2.6,0.7,5.1,1.1,7.7
					c0,0.3,0.1,0.5,0.1,0.8c0.9-0.1,1.8-0.2,2.7-0.3c1.2-0.2,2.4-0.4,3.5-0.7l0.4-0.1c2.5-0.6,4.9-1.3,7.2-2.1l0.4-0.1
					c0.6-0.2,1.2-0.4,1.8-0.6c1.1-0.4,2.3-0.9,3.4-1.3C60.8,162.2,60.4,154.2,59.7,146.2z"/>
				<path class="st3" d="M35.5,169.2c-2.2,1.2-4.9,0.8-7.2-0.2c-3.7-1.6-6-5.6-7.2-9.6c-0.2,3.7-0.4,7.4-0.5,11.2
					c0.3,0.1,0.6,0.3,1,0.4l0.4,0.2c2.4,1.1,4.8,2.1,7.3,2.9l0.6,0.2c2.5,0.7,5,1.2,7.6,1.3c0.2-1.4,0.4-2.8,0.6-4.2
					c0.3-2,0.5-3.9,0.8-5.9C38.1,167,37,168.4,35.5,169.2z"/>
				<path class="st3" d="M26.8,154.4c-2,0.1-3-1.6-3.5-3.3c-0.1,1.2-0.1,2.3-0.1,3.5c0,0.5,0,1.2,0.3,1.6c0.3,0.5,0.9,0.8,1.5,1.1
					c1.1,0.6,2.2,1.1,3.4,0.6c2.1-0.8,2.6-3.5,3-5.4c0.2-0.8,0.3-1.6,0.5-2.5C30.6,152.2,28.9,154.2,26.8,154.4z"/>
				<path class="st3" d="M38.2,150.9C38.2,150.9,38.2,150.9,38.2,150.9c-0.1,0-0.1-0.1-0.2-0.1v0c-0.2,0.3-0.5,0.6-0.7,0.9
					c-0.2,0.3-0.4,0.9-0.3,1.2c0.1,0.4,0.5,0.2,0.7,0c0.2-0.2,0.4-0.5,0.5-0.8c0.2-0.4,0.2-0.8,0-1.2
					C38.2,151,38.2,150.9,38.2,150.9z"/>
				<path class="st3" d="M38,136.8C38,136.8,38,136.8,38,136.8c-0.7,0.3-1.7,1.2-1.4,2c0.2,0.8,1.1,0,1.3-0.4c0.3-0.4,0.4-1,0.2-1.5
					C38,136.9,38,136.9,38,136.8z"/>
				<path class="st3" d="M54.4,155.8c-1.9,1-4.5,0.9-6-0.5c0.8,1.6,2.1,2.8,4.3,2.6c2.4-0.1,3.6-1.7,3.7-4c0-0.2,0-0.4,0-0.6
					C56,154.4,55.3,155.3,54.4,155.8z"/>
				<path class="st9" d="M22,171.9c-0.3,2.6-0.5,5.2-0.8,7.8c-0.2,2.3-0.3,4.6-0.5,7c1,0.7,2.1,1.3,3.4,1.4c1.4,0.1,2.5-0.3,3.6-0.9
					c0,0,0,0,0,0c0.2-1.9,0.4-3.7,0.6-5.6c0.3-2.3,0.6-4.6,0.9-6.9c-0.5-0.1-0.9-0.3-1.3-0.4C25.9,173.6,23.9,172.8,22,171.9z"/>
				<path class="st10" d="M51.3,182.7c-0.3-1.9-0.5-4.4,0.7-6.1c1-1.4,2.3-2.3,3.8-3.1c0-0.2,0-0.4,0-0.5c-2.3,0.8-4.7,1.5-7.1,2.1
					c0.5,2.1,0.8,4.3,1.1,6.5c0.3,1.9,0.6,3.9,0.8,5.8c1.3,0.2,2.6,0.1,3.9-0.3c0.2-0.1,0.5-0.2,0.7-0.2
					C53.2,186.6,51.7,185.3,51.3,182.7z"/>
				<path class="st10" d="M27.9,174.3c-2-0.7-4-1.5-6-2.4c0,0.1,0,0.3,0,0.4c1.6,1.4,3.1,2.7,4,4.6c1,2,0.9,4.5,0.7,6.6
					c-0.2,2-1.6,3.7-3.3,4.4c0.3,0.1,0.5,0.1,0.8,0.2c1.4,0.1,2.5-0.3,3.6-0.9c0,0,0,0,0,0c0.2-1.9,0.4-3.7,0.6-5.6
					c0.3-2.3,0.6-4.6,0.9-6.9C28.8,174.6,28.4,174.4,27.9,174.3z"/>
				<path class="st4" d="M60.1,61.8c-0.1,0.2-0.3,0.1-0.3-0.1c0-0.3,0.1-0.5,0.2-0.8c0,0,0,0,0-0.1c-0.1-0.2-0.1-0.4-0.2-0.5
					c-1,0.7-2,1.5-2.9,2.4c-1.4,1.4-2.7,2.8-3.5,4.6c0,0,0,0.1-0.1,0.1c0.1,1.2,0.2,2.4,0.2,3.6c0,0.4,0,0.8,0,1.2
					c2.1-0.4,4.2-1.4,5.7-2.8c0.1-0.3,0.2-0.6,0.2-0.8l0.2-0.7c0.1-0.4,0.3-0.8,0.4-1.3c0-0.1,0.2-0.1,0.2,0c0,0.6-0.1,1.1-0.2,1.7
					c0.6,0.3,1.5,0,2.1-0.4c0.6-0.5,1.1-1.1,1.5-1.7c0.9-1.2,1.6-2.4,1.9-3.8c0.3-1.5-0.1-5.2-2.7-4C61.7,58.8,60.7,60.4,60.1,61.8z
					 M64,62.7c-0.1,0.1-0.2,0-0.2-0.1c-0.2-0.4,0-1.2-0.5-1.4c-0.5-0.3-0.8,0.4-1,0.8c-0.4,0.9-0.7,1.8-0.9,2.7c0,0.1-0.2,0.1-0.2,0
					c0-0.9,0.3-1.9,0.6-2.7c0.2-0.5,0.4-1.2,1-1.4C63.9,59.9,64.7,61.8,64,62.7z"/>
				<path class="st10" d="M46,88.3c-1.3,1.7-4.4,1.9-5.7,0.2c0,1.3,0,2.6,0.2,3.8c0.2,2,0.6,4,1.3,5.9c0.2,0.6,0.5,1.1,0.8,1.7
					c0.2-0.4,0.4-0.8,0.6-1.2c0.9-1.8,1.6-3.7,2.2-5.6C45.7,91.6,45.9,90,46,88.3z"/>
			</g>
			<g>
				<path class="st11" d="M24.8,58.7c-1.2-0.8-1.8,1.8-1.6,2.5c0,0.2,0.2,0.2,0.3,0c0.2-0.3,0.3-0.7,0.4-1c0-0.2,0.1-0.7,0.3-0.8
					c0.4-0.3,0.4,0.5,0.4,0.7c0.1,1.1,0,2.2,0.1,3.3c0,0.1,0.1,0.1,0.2,0c0.3-1,0.3-2.1,0.2-3.2C25.1,59.8,25.3,59,24.8,58.7"/>
				<path class="st11" d="M62.7,60.5c-0.5,0.2-0.8,0.9-1,1.4c-0.3,0.9-0.6,1.8-0.6,2.7c0,0.1,0.2,0.2,0.2,0c0.3-0.9,0.5-1.8,0.9-2.7
					c0.2-0.4,0.5-1,1-0.8c0.5,0.2,0.4,1,0.5,1.4c0,0.1,0.1,0.1,0.2,0.1C64.7,61.8,63.9,59.9,62.7,60.5"/>
				<path class="st11" d="M32.6,50.1c0,0.2,0.2,0.2,0.3,0.1c0.6-0.6,1.3-1.2,2.2-1.2c1.3-0.1,1.8,0.8,2.2,1.8c0.1,0.1,0.3,0.1,0.3,0
					C38.2,47.8,32.8,47.3,32.6,50.1"/>
				<path class="st11" d="M52.7,49.2c-1,0.1-2.6,1.1-2.7,2.2c0,0.2,0.2,0.2,0.4,0.1c0.5-0.5,1.1-1,1.8-1.3c0.6-0.3,1.1-0.2,1.4,0.4
					c0.2,0.3,0.2,0.8,0.4,1.1c0.1,0.2,0.4,0.2,0.4-0.1C54.8,50.5,53.9,49.1,52.7,49.2"/>
				<path class="st11" d="M35.4,55.6c-0.1,0-0.2,0-0.3,0c-0.6-0.2-1.3,1.5-1.4,1.8c-0.2,0.6-0.6,2.7,0.6,2.4c1-0.2,1.3-2.2,1.4-3
					C35.7,56.4,35.7,55.8,35.4,55.6 M35,57.7c0,0.2-0.1,0.3-0.2,0.5c-0.2-0.1-0.3-0.2-0.3-0.5c-0.1-0.3-0.1-0.6-0.1-0.9
					c0.1-0.2,0.2-0.5,0.3-0.7C35.5,55.8,35.1,57.3,35,57.7"/>
				<path class="st11" d="M51.5,55.6c-0.1,0-0.2,0-0.3,0c-0.6-0.2-1.3,1.5-1.4,1.8c-0.2,0.6-0.6,2.7,0.6,2.4c1-0.2,1.3-2.2,1.4-3
					C51.9,56.4,51.9,55.8,51.5,55.6 M51.2,57.7c0,0.2-0.1,0.3-0.2,0.5c-0.2-0.1-0.3-0.2-0.3-0.5c-0.1-0.3-0.1-0.6-0.1-0.9
					c0.1-0.2,0.2-0.5,0.3-0.7C51.7,55.8,51.3,57.3,51.2,57.7"/>
				<path class="st11" d="M65.7,189.4c-1.5-0.7-3.3-1.1-4.9-1.5c-1.3-0.4-2.8-1-4.2-1c0.1,0,0.1-0.1,0.2-0.1l0.7-0.5l-0.1-0.8
					c-0.2-1.8-0.5-3.6-0.6-5.5c-0.2-2.4-0.5-4.8-0.7-7.2c1.7-0.6,3.4-1.2,5.1-1.9c0,0.5,0,0.9,0.1,1.4l0.6-1.7l0-0.8
					c-0.2-3.1-0.3-6.2-0.5-9.3c-0.5-8.8-1.2-17.6-2.2-26.3c-0.4-3.5-0.8-7.1-1.7-10.6c0.5-0.3,1-0.8,1.4-1.5
					c1.2-1.9,1.5-4.3,1.7-6.5c0.2-2.4,0.1-4.9-0.1-7.3c-0.5-5-1.4-10.1-3-14.8c-1.2-3.5-3.8-7.4-7.6-8c-0.1-0.1-0.1-0.2-0.2-0.3
					c-0.7-1.3-1.8-2.9-3.2-3.4c0-0.2,0-0.5,0-0.8c1.2-0.2,2.4-0.7,3.5-1.1c1.8-0.7,3.6-1.6,5.1-2.8c2.5-2,4.4-5.2,5.1-8.4
					c0.9,0.3,2.2-0.2,2.9-0.8c1.7-1.6,3.2-3.9,3.4-6.2c0.2-1.5-0.3-4.9-2.5-4.7c-0.1,0-0.2,0-0.3,0c0.2-1.2,0.3-2.5,0.5-3.8
					c0.1-0.5,0.1-1,0.2-1.5c0.2,0.1,0.5,0.2,0.7,0.2c1,0.1,1.2-0.5,1-1.3c-0.3-2.1-1.3-4.1-2.6-5.8c0.4,0,0.7,0.1,1.1,0.1
					c1.6,0.1,1.8-1.1,1.7-2.5c-0.5-4.2-3.8-7.2-7.1-9.4c-3.5-2.3-7.6-3.8-11.8-4.4c-4-0.6-8.6-0.5-12.5,0.9
					c-1.9,0.7-3.7,1.9-4.7,3.7c-1,1.7-1,3.5-0.6,5.3c-2.2,1-3.4,3.8-4.1,6.1c-0.5,1.6-0.8,3.3-1,5c-0.2,1.8-0.4,3.7-0.3,5.5
					c-1.3-0.2-2.1,2.6-2.4,3.5c-0.5,1.9-0.5,4,0.2,5.8c0.4,1,1.4,2.1,2.5,1.8c-0.2,4.1,0.5,8.7,3,11.8c1.4,1.8,4,2.2,6.2,2.6
					c2,0.4,4.2,0.7,6.2,0.5c0,0.3-0.1,0.7-0.1,1c-0.7-0.2-1.2,0.4-1.6,0.9c-0.1,0.2-0.3,0.3-0.4,0.5c-4.7,0.6-7.9,4.3-10.4,8.1
					c-2.8,4.4-5.1,9.2-6.7,14.2c-1.4,4.3-2.9,9.6-0.2,13.8c0.9,1.3,1.9,2.1,3.1,2.6c-0.4,3.1-0.7,6.2-1,9.3
					c-0.4,4.3-0.8,8.6-1.1,12.8c-0.7,8.5-1.2,17-1.5,25.5c0,0.1,0,0.1,0,0.1l0,0.7l0.7,0.3c0.3,0.1,0.6,0.3,0.9,0.4
					c-0.3,2.5-0.6,5-0.9,7.5c-0.2,2.3-0.5,4.6-0.7,6.9l0,0.6l0.7,0.5c0.2,0.2,0.5,0.3,0.8,0.5c-1.3,0.1-2.6,0.7-3.7,1.1
					c-1.6,0.6-3.2,1.4-4.7,2.4c-0.9,0.6-2.4,1.4-2.5,2.6c-0.1,0.7,0.5,1.5,1.2,1.3c1.4,0.3,2.8,0.3,4.1,0.3c1.6,0,3.2,0,4.8-0.2
					c1.7-0.1,3.4-0.3,5.1-0.6l0.7-0.1l0.3-0.7c0.7-1.8,1-3.9,0.5-5.6c0.1-0.1,0.3-0.1,0.4-0.2l0.6-0.3l0.1-0.8
					c0.2-1.6,0.4-3.2,0.5-4.9c0.3-2.4,0.7-4.7,1-7.1c2.5,0.7,5,1.2,7.6,1.4l0.5,0l0.1-0.7c0.1-0.6,0.2-1.2,0.2-1.8
					c0.4-3.1,0.9-6.2,1.3-9.3c0.3,3.3,0.8,6.5,1.3,9.8c0.1,0.4,0.1,0.9,0.2,1.3l0.1,0.8l0.7-0.1c0,0,0,0,0,0c2.1-0.2,4.2-0.5,6.2-1
					c0.4,2.2,0.7,4.5,1,6.7c0.2,1.8,0.4,3.6,0.7,5.4l0.1,0.5l0.7,0.1c-0.1,1.5,0.2,3.1,0.4,4.7c0,0.1,0,0.1,0,0.2l0.1,0.4l0.7,0.1
					c2,0.4,4.1,0.3,6.1,0.3c1.3,0.1,2.7,0.1,4.1,0.1c1.3,0.1,2.7,0.3,3.9,0c0,0,0.1,0,0.1-0.1c0.8-0.2,1.5-0.9,1.6-1.8
					C67.6,190.9,66.8,189.9,65.7,189.4 M46.6,87.2c0-1.6,0-3.2-0.1-4.8c0.5,0.4,1,0.8,1.5,1.3c0.5,0.6,0.9,1.2,1.2,1.8l0.3,0.6
					c0.7,1.3,1.2,2.8,1.8,4.1c-0.4,0.6-1,1.1-1.6,1.6c-0.7,0.6-1.5,1-2.3,1.5l-0.3,0.2l0.4,0.3c0.5,0.5,1,1,1.6,1.4
					c0.3,0.3,0.6,0.6,0.9,0.9c-0.9,0.9-1.8,1.7-2.9,2.3c-1.2,0.7-2.6,1.1-3.9,1.5c0.2-0.3,0.3-0.6,0.4-0.9c0.9-1.8,1.7-3.8,2.2-5.7
					C46.4,91.4,46.6,89.4,46.6,87.2 M42.5,99.9c-0.3-0.6-0.6-1.1-0.8-1.7c-0.8-1.9-1.1-3.9-1.3-5.9c-0.1-1.3-0.2-2.6-0.2-3.8
					c1.3,1.7,4.4,1.5,5.7-0.2c-0.1,1.6-0.2,3.2-0.7,4.8c-0.6,1.9-1.3,3.8-2.2,5.6C42.9,99.2,42.7,99.6,42.5,99.9 M65.7,62.2
					c-0.3,1.4-1,2.7-1.9,3.9c-0.5,0.6-0.9,1.3-1.5,1.7c-0.6,0.5-1.5,0.8-2.1,0.4c0.1-0.6,0.2-1.2,0.2-1.7c0-0.1-0.2-0.2-0.2,0
					c-0.2,0.4-0.3,0.8-0.4,1.3l-0.2,0.7c-0.1,0.3-0.2,0.6-0.2,0.8c-1.6,1.5-3.6,2.5-5.7,2.8c0-0.4,0-0.8,0-1.2
					c0-1.2-0.1-2.4-0.2-3.6c0,0,0,0,0.1-0.1c0.8-1.8,2-3.2,3.5-4.6c0.9-0.9,1.9-1.7,2.9-2.4c0.1,0.2,0.1,0.4,0.2,0.5c0,0,0,0,0,0.1
					c-0.1,0.3-0.2,0.5-0.2,0.8c0,0.2,0.2,0.3,0.3,0.1c0.5-1.4,1.5-3,3-3.6C65.7,57,66,60.7,65.7,62.2 M41.7,66.3
					c-1.1,0-2.2,0.1-3.4,0.1c0.1-0.6,0-1.2,0.2-1.8c0.2-0.9,0.5-1.7,0.8-2.5c0.6-1.3,1.6-2.4,2.5-3.5c0.1-0.1-0.1-0.2-0.2-0.2
					c-1.3,1-2.3,2.3-2.9,3.8c-0.6,1.2-1.1,2.9-0.8,4.3c-2.5,0-5.1-0.2-7.4-1.1l-0.4-0.1l-0.1,0.4c-0.1,0.2-0.1,0.4-0.2,0.5
					c-0.4-1.4-1.1-2.8-1.6-4.1c-0.6-1.4-1.1-2.9-1.9-4.2c0,0,0,0,0,0c0,0,0,0,0-0.1c0.1-0.5,0.1-0.9,0.2-1.4c0.2,0,0.4,0.1,0.5,0.1
					c0.5,0.1,1,0.3,1.6,0.3c-0.1,0.4-0.1,0.8-0.2,1.1c-0.1,3,2.5,5.9,5.6,5.6C37,63,39,61,39.3,58.1c1.7-1.1,4.5-2.4,6-0.3
					c0.1,0.1,0.3,0,0.2-0.1c-0.8-2.6-4.5-1.8-6.1-0.2c0.1-2.7-1.5-5.8-4.6-5.5c-0.1,0-0.1,0.1,0,0.1c2.9,0.1,4.4,3,4.2,5.6
					c-0.2,2.8-2,4.7-4.7,5c-3,0.4-5.4-2.6-5.1-5.5c0.3-2.7,2.2-4.6,4.8-5c0.1,0,0.1-0.2,0-0.2c-2.4-0.3-4.3,1.8-5,4
					c-0.5-0.2-1.1-0.3-1.7-0.4c-0.1,0-0.3,0-0.4-0.1c0.4-2.5,1-5,1.9-7.4c0.9-2.1,1.8-4.4,3.3-6.2c1,3.2,3.9,5.5,7.4,5.6
					c1.5,0,3-0.4,2.8-2.2c2.4,1.8,5.4,2.9,8.4,3.2c1.6,0.2,4-0.1,4.3-2.2c0-0.3,0-0.5,0-0.8c1.7,0.6,3.5,0.9,5.2,0.7
					c-0.5,2-0.8,4.1-0.9,6.1c-0.1,1.5-0.1,3.2,0.1,4.8c-0.3,0-0.7,0-1,0.1c-0.8,0-1.7,0.1-2.5,0.2c0-0.7-0.1-1.4-0.3-2
					c-1-2.6-3.9-3.3-6.2-2.3c-0.1,0,0,0.2,0.1,0.2c2.3-0.7,4.8,0,5.7,2.4c0.2,0.6,0.3,1.2,0.3,1.9c0,0,0,0.1,0,0.2
					c-0.1,1.8-1,3.8-2.8,4.2c-2,0.5-4.9-0.6-5.6-2.7c-0.8-2.1,0.2-4.9,2.2-5.9c0.1-0.1,0-0.2-0.1-0.2c-2.5,0.7-3.3,4.4-2.5,6.5
					c0.9,2.3,4.1,3.4,6.4,2.7c1.8-0.6,2.8-2.6,2.9-4.5c0.9,0,1.8-0.1,2.7-0.2c0.3,0,0.6,0,0.9,0c0.1,0.6,0.2,1.1,0.4,1.7
					c-1.2,0.7-2.3,1.8-3.1,2.6c-1.1,1-2.7,2.5-3.2,4c0-0.5-0.1-1.1-0.2-1.6 M25,51c0.2-1.6,0.4-3.2,0.8-4.8c0.7-2.7,1.7-5.2,3.9-6.8
					l0.4-0.3L30,38.6c-0.2-1.6-0.3-3.2,0.5-4.7c0.9-1.6,2.3-2.7,3.9-3.4c3.3-1.4,7.2-1.6,10.8-1.3c3.5,0.3,7,1.2,10.2,2.7
					c3.2,1.5,6.3,3.5,8.4,6.4c0.6,0.9,1.1,1.9,1.5,2.9c0.1,0.4,0.2,0.8,0.3,1.2c0.1,0.3,0.2,0.7,0.1,1c-0.1,0.4-0.5,1-0.9,1.2
					c-0.5,0.2-1.3-0.1-1.8-0.2c0,0-0.1,0-0.2,0l-0.7-0.1c-0.2,0-0.5-0.1-0.7-0.2l1.2,0.8c0.9,1.1,1.6,2.3,2.2,3.7
					c0.1,0.4,0.3,0.8,0.4,1.2c0.1,0.3,0.4,1.2,0.3,1.5c-0.2,0.5-0.7,0.4-1.3,0L63.9,51l-0.1,0.6c-0.1,0.9-0.2,1.8-0.3,2.6
					c-0.2,1-0.4,2.1-0.3,3.1c-0.9,0.3-1.6,1-2.2,1.8c-0.3,0-0.5,0.1-0.8,0.2c-0.1-0.5-0.2-1-0.2-1.5c0.4,0,0.8-0.1,1.2-0.2
					c0.1,0,0.1-0.2,0-0.3c-0.4-0.1-0.8-0.1-1.2-0.1c-0.2-1.6-0.3-3.3-0.2-5c0.1-2,0.5-4,0.9-6l0.1-0.6l-0.6,0.1
					c-1.1,0.2-2.2,0.2-3.3,0c-0.9-0.2-1.7-0.5-2.5-0.9l-1.4-0.8l1.1,1.3c0.3,0.6,0.3,1.3-0.2,1.9c-1.3,1.4-4,0.7-5.6,0.3
					c-2.3-0.6-4.4-1.7-6.2-3.1L41,44l0.4,1.1c0.2,0.9,0.1,1.8-0.9,2c-0.9,0.2-1.9,0.1-2.7-0.1c-2.8-0.6-4.7-2.7-5.6-5.2L32,41.3
					l-0.3,0.3c-1.7,1.7-2.6,4.1-3.5,6.2c-1,2.5-1.8,5.2-2.1,7.9c-0.2,0-0.4,0-0.7,0c-0.1,0-0.1,0.1,0,0.2c0.2,0.1,0.4,0.2,0.7,0.3
					c0,0.3,0,0.6-0.1,0.9c-0.3-0.5-0.8-1.2-1.3-1.5C24.9,54,24.9,52.5,25,51 M25,66.3l0-0.6c0-0.4,0-0.8-0.1-1.2
					c0-0.1-0.2-0.1-0.2,0c0,0.4-0.1,0.9-0.1,1.3c-1.7,0.5-2.3-2.3-2.4-3.6c-0.1-1.2,0-2.5,0.4-3.7c0.2-0.6,0.4-1.2,0.8-1.8
					c0.2-0.4,0.3-0.6,0.8-0.7c0.5-0.1,0.6,0.1,0.9,0.5c0.4,0.4,0.7,0.9,1,1.3c0,0,0,0,0,0c0,0.1,0.1,0.2,0.1,0.2
					c0.3,0.4,0.5,0.9,0.7,1.4c0.4,1,0.7,2,1.1,3c0.5,1.4,1,3,1.8,4.2c-0.3,1.2-0.6,2.4-0.7,3.6c-0.1,0.7-0.2,1.4-0.2,2.2
					c-0.6-0.9-1.3-1.7-2-2.5c-0.7-1-1.3-1.9-1.7-3.1C25.1,66.7,25,66.5,25,66.3 M34.3,80.3c-2.3-0.4-5.1-0.8-6.5-2.9
					c-1.8-2.7-2.3-5.8-2.6-9c0.2,0.5,0.5,1,0.8,1.4c0.8,1.1,1.7,2.3,2.7,3.2c0,0.8,0,1.5,0.1,2.2l0.1,0.6l0.6,0.5
					c1.2,0.8,2.7,1.1,4.1,1.4c2.7,0.5,5.5,0.9,8.3,0.8c3.5-0.1,7.1-0.9,10.3-2.5l0.7-0.4l0.2-0.7c0.2-0.8,0.3-1.7,0.3-2.6
					c1.1,0.2,2.3-0.4,3.3-0.9c0.8-0.4,1.6-0.9,2.2-1.6c-0.2,0.7-0.5,1.4-0.8,2.1c-0.8,1.7-2,3.3-3.4,4.5c-2.4,2-5.4,3.2-8.5,3.9
					L46,80.6c-0.7,0.1-1.3,0.2-2,0.3c-0.1,0-0.2,0.2,0,0.3c0.7,0.1,1.3,0.1,2,0c-0.1,2,0,4.1,0,6.2c-0.7,0.9-1.5,1.7-2.8,1.8
					c-1.3,0.1-2.1-0.6-3-1.4c0-2.1,0.2-4.3,0.2-6.4c0.4-0.1,0.8-0.1,1.2-0.2c0.2,0,0.1-0.2,0-0.3c-0.4,0-0.8-0.1-1.2-0.1l-0.4,0
					C38.1,80.7,36.2,80.7,34.3,80.3 M38.1,84.2c0,0,0.1-0.1,0.1-0.1c0.5-0.6,1-1.2,1.6-1.3c-0.3,3.4-0.3,6.9,0.1,10.2
					c0.3,2.7,1.1,5,2.2,7.3c-3,0.7-5.5-1.6-7-4.1c0.3-0.6,0.6-1.3,1-1.9c0.4-0.6,0.8-1.1,1.2-1.7l0.3-0.5l-0.3-0.2
					c-0.3-0.2-0.6-0.4-0.9-0.6c-0.6-0.3-1.2-0.7-1.9-1c0.4-1,0.9-1.9,1.4-2.8c0.4-0.7,0.9-1.5,1.4-2.2
					C37.5,85.1,37.8,84.7,38.1,84.2 M22.3,121c-3.9-3.4-2.6-9.1-1.4-13.4c1.3-4.6,3.2-8.9,5.6-13c2.5-4.2,5.7-9.2,10.9-10.1
					c-0.4,0.5-0.8,1.1-1.2,1.6c-0.8,1.3-1.6,2.7-2.2,4.1l-0.2,0.5l0.5,0.3c0.6,0.3,1.1,0.6,1.7,0.9c0.3,0.2,0.7,0.4,1,0.6
					c-0.8,1-1.6,2-2.2,3.1l-0.2,0.6l0.4,0.8c1.5,2.7,4.7,5,7.6,4l0,0.1c-0.1,0.9,0,1.9,0,2.8c0,1.1-0.1,2.2,0,3.2
					c0,0.1,0.2,0.1,0.2,0c0.4-1,0.4-2.2,0.4-3.2c0-1,0-2-0.2-2.9l0,0c2.7-0.5,5.8-1.8,7.5-4.1l0.3-0.5l-0.3-0.3
					c-0.3-0.3-0.6-0.6-0.9-0.8c-0.5-0.4-1-0.9-1.5-1.3c1-0.5,1.8-1.2,2.6-1.9c0.4-0.3,0.7-0.7,1-1.1l0.3-0.5l-0.2-0.6
					c-0.4-1.2-0.9-2.3-1.4-3.4c3.2,1,5.4,4.1,6.5,7.3c1.5,4.1,2.3,8.5,2.8,12.8c0.5,4.3,0.8,8.7-0.2,12.9c-0.4,1.5-1,2.8-2,3.7
					l-0.5,0.3c-0.4,0.2-0.9,0.4-1.4,0.5c-2.1,0.4-4.2-0.4-6.2-1.2c-2.3-0.9-4.7-1.9-7-2.9c-0.8-0.4-1.6-0.8-2.3-1.2c0,0,0,0,0.1-0.1
					c2-1.3,3.7-2.7,5.7-3.9c0.7,0.1,1.5,0.1,2.2,0.2l0.6,0c0.9,0.1,1.8,0.1,2.7,0.2c0.9,0.1,1.8,0.2,2.7,0.3l0.7,0.1l0-0.6
					c0.1-2,0.1-3.9,0.1-5.8c0-4.6,0-9.2-0.4-13.7c0-0.2-0.3-0.2-0.3,0c0,4.5,0.1,9,0.1,13.5c0,2-0.1,4-0.2,6
					c-0.8-0.1-1.6-0.1-2.3-0.2c-0.3,0-0.6-0.1-0.9-0.1c0-1.6,0-3.4-1.1-4.7c-1.2-1.5-2.8-1.3-4.5-1.6c0,0,0,0,0,0
					c-0.2-0.3-0.5-0.6-0.7-0.9l-0.4-0.5l-0.5,0.1c-1.3,0.3-2.5,0.6-3.8,1l0,0c0,0-0.1,0-0.1,0c-1.5,0.4-3,0.9-4.4,1.4
					c-0.2,0.1-0.4,0.1-0.7,0.2c0.2-0.5,0.3-1.1,0.4-1.6c0.2-0.9,0-1.8-0.4-2.7c-1-1.9-3.4-3-5.3-3.7c0.5-2.7,1.2-5.3,2-7.9
					c0-0.1-0.1-0.2-0.2-0.1c-1.1,2.5-1.8,5.1-2.3,7.8c-1.1-0.4-3.9-1.7-3.4,0.6c0.2,0.9,1,1.5,1.8,1.9c0,0,0,0,0,0
					c-0.3,0.2-0.6,0.5-0.9,0.8c-0.3,0.4-0.7,0.9-0.9,1.4c-0.2,0.1-0.3,0.2-0.5,0.3c-0.5,0.4-1.1,1.1-1.1,1.8c0,0.1,0,0.3,0.1,0.4
					c-0.5,0.6-0.7,1.4-0.8,2.1c0,0.3-0.1,0.6,0.1,0.8c0.2,0.2,0.5,0.3,0.8,0.2c0.3,0.7,1.4,0.9,2.5,0.9c-1.4,0.6-2.7,1.2-4,1.8
					c-0.1,0.1,0,0.3,0.1,0.3c3.7-1.3,7.3-2.9,11.1-4.2l0.6-0.2c0.4-0.1,0.8-0.3,1.2-0.4c1.5-0.5,3-0.9,4.4-1.3c0.9,1,1.6,2.4,2,3.6
					c0.5,1.3,0.5,2.6,0.7,3.9c-0.4,0.3-0.7,0.6-1.1,0.8c-0.7,0.5-1.4,1-2.2,1.5l-0.6,0.4c-1,0.6-2,1.1-3.1,1.6
					c-3.2,1.3-7.8,3.2-11.4,2l-0.5-0.2C23.2,121.7,22.7,121.4,22.3,121 M42.1,111.2c-0.3-0.8-0.9-2.2-1.8-2.9
					c1.1-0.3,2.3-0.6,3.4-0.9c0.8,1.1,1.6,2.2,2.3,3.4c0.6,1.1,1.1,2.2,1.5,3.3c-0.4,0-0.7-0.1-1.1-0.1c0.1-0.1,0.2-0.1,0.3-0.2
					c0.2-0.1,0-0.3-0.1-0.3c-0.3,0.1-0.7,0.2-1,0.4l-1,0.5c-0.6,0.3-1.1,0.7-1.7,1.2C43.1,114.1,42.7,112.5,42.1,111.2 M45.4,108.6
					c0.2,0.1,0.4,0.1,0.7,0.2c1,0.1,1.8,0.2,2.6,0.9c1.3,1.2,1.4,3,1.4,4.7c-0.6-0.1-1.2-0.1-1.8-0.2
					C47.6,112.2,46.6,110.3,45.4,108.6 M24.5,110.7c0.1-0.5,0.8-1,1.2-1.3c1.5-0.9,3.3-0.9,4.8-1.7c0.1-0.1,0-0.2-0.1-0.2
					c-1.3,0-2.8,0.4-4,0.9c-0.4,0.2-0.8,0.3-1.1,0.6c-0.4-0.2-1.1-0.6-1.1-1.2c0-0.4,0.7-1,1-1.1c0.1,0,0.1-0.1,0.2-0.1h0
					c0.6-0.3,1.3-0.4,2-0.5c1.6-0.3,3.2-0.3,4.8-0.8c0.2-0.1,0.1-0.2,0-0.3c-0.6-0.1-1.1,0-1.7,0c-1.1-0.8-2.5-1.1-3.7-1.9
					c-0.4-0.3-1.7-1.6-0.7-2c0.2-0.1,0.9,0.3,1.1,0.3c1,0.3,2,0.7,3,1.2c1.7,0.8,3.7,1.8,4.2,3.8c0.3,1.1-0.1,2.2-0.5,3.3
					c-2,0.6-4,1.3-5.9,2.1c-0.7-0.1-1.4-0.1-2.1-0.1C25.1,111.6,24.3,111.6,24.5,110.7 M24,110.4c-0.1,0.2-0.2,0.4-0.2,0.6
					c-0.2-0.1-0.3-0.1-0.4-0.4c0-0.2,0.1-0.7,0.2-0.9c0.1-0.3,0.2-0.7,0.4-1c0.2,0.2,0.6,0.4,0.9,0.5C24.5,109.6,24.2,110,24,110.4
					 M26,105.7c0.1-0.1,0.1-0.2,0.2-0.3c0.3-0.4,0.8-1.1,1.3-1.2c0,0,0.1,0,0.1,0c0.6,0.3,1.3,0.6,1.9,0.9c-0.5,0.1-1.1,0.2-1.6,0.2
					C27.3,105.4,26.6,105.5,26,105.7 M26.6,192c-0.1,0.7-0.4,1.3-0.6,1.9c-1.9,0.3-3.7,0.6-5.6,0.8c-1.5,0.1-3.1,0.2-4.6,0.2
					c-1.4,0-2.8-0.2-4.2-0.1c-0.6-0.2-0.7-0.5-0.6-0.9c2.2,0.4,4.6,0.2,6.8,0c2.2-0.2,4.8-0.2,6.9-0.9c0.1,0,0.1-0.2,0-0.2
					c-2.2-0.1-4.6,0.4-6.9,0.6c-2.2,0.2-4.4,0.1-6.7,0.2c0.4-0.7,1.6-1.5,2-1.8c1-0.6,2-1.1,3-1.6c1-0.5,2.1-0.9,3.2-1.3
					c0.6-0.2,1.2-0.3,1.8-0.5c0,0,0,0,0,0.1c0.7,0.6,1.9,1.2,2.8,1.5c0.8,0.3,1.9,0.4,2.7,0.2C26.7,190.8,26.7,191.4,26.6,192
					 M26.8,189.7c-1.1-0.1-2.1-0.1-3.2-0.5c-0.7-0.3-1.3-0.7-2-0.8c0.2-0.1,0.4-0.1,0.5-0.2c0.6,0.3,1.3,0.5,2,0.6
					c0.9,0.1,1.8,0,2.7-0.3C26.8,188.8,26.8,189.2,26.8,189.7 M28.4,181.6c-0.2,1.9-0.5,3.7-0.6,5.6c0,0,0,0,0,0
					c-1.1,0.6-2.2,1-3.6,0.9c-1.3-0.1-2.4-0.7-3.4-1.4c0.2-2.3,0.3-4.7,0.5-7c0.2-2.6,0.5-5.2,0.8-7.8c2,0.9,3.9,1.7,6,2.4
					c0.4,0.1,0.9,0.3,1.3,0.4C28.9,177,28.6,179.3,28.4,181.6 M48,174.5c-1.2,0.3-2.3,0.5-3.5,0.7c-0.9,0.1-1.8,0.2-2.7,0.3
					c0-0.3-0.1-0.5-0.1-0.8c-0.7-4.2-1.2-8.5-1.7-12.7c0-0.4-0.6-0.4-0.6,0c-0.4,3.1-0.8,6.2-1.2,9.4c-0.2,1.4-0.4,2.8-0.6,4.2
					c-2.5-0.1-5.1-0.6-7.5-1.3l-0.6-0.2c-2.5-0.8-4.9-1.8-7.3-2.9l-0.4-0.2c-0.3-0.1-0.6-0.3-1-0.4c0.1-3.8,0.3-7.6,0.5-11.4
					c0.5-8.5,1.1-17,1.9-25.5c0.3-3.7,0.8-7.4,1.1-11.1c2.5,0.7,5.4,0.2,8-0.7c2.4-0.8,4.8-1.8,7-3.1c0.6,0.4,1.3,0.7,2,1.1
					c2.2,1,4.4,1.9,6.6,2.8c2.6,1,6.4,2.6,9.1,1.2c0.7,3,1.1,6.1,1.4,9.2c0.5,4.3,0.9,8.7,1.3,13c0.7,8,1.1,16,1.5,24
					c-1.1,0.4-2.3,0.9-3.4,1.3c-0.6,0.2-1.2,0.4-1.8,0.6l-0.4,0.1c-2.4,0.8-4.8,1.6-7.2,2.1L48,174.5z M50.5,187.5
					c-0.2-1.9-0.6-3.9-0.8-5.8c-0.3-2.2-0.6-4.4-1.1-6.5c2.4-0.6,4.8-1.3,7.1-2.1c0.2,2.4,0.3,4.8,0.5,7.2c0.2,1.9,0.3,3.8,0.5,5.8
					c-0.7,0.5-1.5,0.9-2.4,1.2C53.1,187.6,51.7,187.6,50.5,187.5 M50.8,188c1.8,0.2,3.6-0.1,5.2-0.8c0.2,0,0.3,0.1,0.5,0.1
					c-0.8,0.3-1.6,0.9-2.4,1.3c-0.2,0.1-2.2,0.9-2.9,1.1C51.1,189.1,51,188.5,50.8,188 M65.3,193.5c-1.1-0.2-2.2-0.1-3.3-0.1
					c-1.3-0.1-2.7-0.1-4.1-0.1c-2.1-0.1-4.2-0.2-6.4-0.3c0-0.1,0-0.2-0.1-0.4c-0.1-0.8-0.2-1.6-0.3-2.4c1.9-0.1,4.5-1.1,5.5-2.6
					c0,0,0-0.1,0-0.1c1.9,0.5,3.8,1,5.8,1.6c1,0.3,2.1,0.5,3,1c1,0.5,1.3,1.5,1.1,2.2c-2.3-0.1-4.6,0-6.9-0.1
					c-2.4-0.1-4.7-0.3-7.1-0.3c-0.1,0-0.1,0.2,0,0.2c2.3,0.4,4.6,0.5,6.9,0.6s4.6,0.2,6.9,0.1C66.2,193,65.8,193.3,65.3,193.5"/>
				<path class="st11" d="M41.9,120.8c0-0.1-0.2-0.2-0.2,0c-0.8,3-0.8,6.3-0.8,9.4c0,3.2,0.2,6.4,0.2,9.7c0,3.2-0.2,6.4-0.5,9.6
					c-0.3,3.3-0.8,6.5-1,9.8c0,0.1,0.2,0.2,0.3,0c0.7-3.1,0.8-6.3,1.2-9.4c0.3-3.2,0.6-6.4,0.7-9.6c0-3.2-0.1-6.4-0.2-9.7
					C41.4,127.3,41.6,124.1,41.9,120.8"/>
				<path class="st11" d="M56.7,146.2c-1.7-0.4-3.5-0.5-5.3-0.6c-1.7-0.1-3.5-0.2-5.3,0.2c-0.2,0-0.1,0.2,0,0.2
					c1.7,0.2,3.5,0.1,5.2,0.2c1.7,0.1,3.5,0.4,5.2,0.5C56.9,146.8,57,146.3,56.7,146.2"/>
				<path class="st11" d="M56.9,151.9c0-1.6,0-3.2-0.2-4.8c0-0.2-0.3-0.2-0.3,0c-0.2,2.3,0,4.6,0,6.8c0,2.3-1.3,3.9-3.7,4
					c-5.5,0.3-5.3-7-5.6-10.8c0-0.2-0.4-0.3-0.4,0c0,4.2,0.1,11.7,6,11.5c1.8-0.1,3.5-1.1,4.1-2.9C57.1,154.5,57,153.1,56.9,151.9"
					/>
				<path class="st11" d="M32.6,144.9c-1.5-0.2-3.2,0.3-4.7,0.5c-0.8,0.1-1.6,0.3-2.5,0.5c-0.7,0.1-1.7,0.2-2.3,0.6
					c-0.1,0.1-0.1,0.1-0.1,0.2l0,0.1c0,0.1,0.1,0.1,0.2,0.1c0,0,0,0,0.1,0c0.1,0,0.1-0.1,0.1-0.2c0.1,0.2,4.2-0.7,4.6-0.7
					c1.5-0.2,3.2-0.2,4.6-0.8C32.8,145.2,32.8,144.9,32.6,144.9"/>
				<path class="st11" d="M32.7,145.9c0-0.3-0.4-0.2-0.4,0c-0.3,2.2-0.5,4.4-1,6.5c-0.4,1.9-1,4.6-3,5.4c-1.2,0.5-2.4-0.1-3.4-0.6
					c-0.5-0.3-1.2-0.6-1.5-1.1c-0.3-0.5-0.2-1.1-0.3-1.6c-0.1-2.1,0.2-4.2,0.3-6.4c0-0.2-0.3-0.2-0.3,0c-0.4,1.3-0.4,2.8-0.4,4.1
					c0,1.2-0.1,2.5,0.1,3.7c0.2,0.9,1,1.4,1.8,1.8c1,0.6,2.1,1.1,3.2,1c2.1-0.3,3.1-2.3,3.6-4.1C32.2,151.8,32.8,148.8,32.7,145.9"
					/>
				<path class="st11" d="M38.7,123.4c-0.1-0.2-0.3,0-0.3,0.2c0.1,0.4,0.2,0.8,0,1.2c-0.1,0.4-0.4,0.8-0.8,0.7
					c-0.5-0.1-0.5-0.7-0.4-1.1c0.1-0.4,0.3-0.7,0.8-0.7c0.1,0,0.2-0.1,0.1-0.2c-0.4-0.5-1.1-0.1-1.3,0.3c-0.3,0.6-0.4,1.6,0.2,2
					c0.6,0.4,1.4,0.1,1.7-0.4C39.2,124.9,39.2,124,38.7,123.4"/>
				<path class="st11" d="M38.4,136.7c-0.2-0.2-0.5,0.1-0.4,0.3c0.2,0.5,0.1,1.1-0.2,1.5c-0.2,0.4-1,1.2-1.3,0.4
					c-0.2-0.9,0.8-1.7,1.4-2.1c0.1-0.1,0-0.3-0.1-0.2c-0.8,0.1-1.4,0.7-1.7,1.4c-0.3,0.6-0.2,1.5,0.5,1.8c0.7,0.3,1.4-0.3,1.8-0.8
					C38.8,138.2,38.9,137.4,38.4,136.7"/>
				<path class="st11" d="M38.5,150.8c-0.1-0.1-0.4,0.1-0.3,0.2c0.2,0.4,0.1,0.8,0,1.2c-0.1,0.3-0.2,0.6-0.5,0.8
					c-0.2,0.2-0.6,0.4-0.7,0c-0.1-0.4,0.2-0.9,0.3-1.2c0.2-0.4,0.5-0.6,0.7-0.9c0.1-0.1,0-0.2-0.1-0.2c-0.7,0.1-1.2,1-1.4,1.6
					c-0.2,0.5-0.3,1.6,0.5,1.7c0.8,0.1,1.4-0.6,1.7-1.2C38.9,152.2,39.2,151.1,38.5,150.8"/>
			</g>
			<g>
				<path class="st4" d="M26.4,57.6l-0.5,1L25,65.7l0.2,2.2l0,1.3l3.8,8.4l9.3,1.6l11.3-0.6l6.7-4.6l2.7-4l0.7-2.3l-0.9-5.3l1.2-1.6
					l-0.4-1.1c0,0-0.6,0.3-0.9,0.5c-0.5,0.4-1,0.9-1,0.9l-0.9-0.4l-1.7,1.6l-1.7,1.1l-2,0.6l-2.3-0.4l-4.2-1.4l-2.4-2.6v-1.6h-1.6
					l-0.7,1l-0.7,0.8l-1.2,2.1l-1,1.7l-2.2,0.8h-3.6l-2.6-1.8l-1.4-3.6L26.4,57.6z"/>
				<path class="st7" d="M57.9,61c0,0,0.2,1.2,0.2,1.2c0.3,1.7-0.3,3.2-0.9,4.8c-0.4,1.1-0.9,2.2-1.4,3.2c-1.1,2.4-2.2,5.1-4.5,6.6
					c-1.2,0.8-2.5,1.3-3.8,1.9c-2.1,1-5,0.8-6.9,2.1c0.3,0.1,0.7,0.1,1.1,0.1l1.8,0.4l0.5,0l-0.2-0.2l0-0.2l0.9-0.1l0.3,0l0.4-0.1
					l0.8-0.2l0.9-0.2l0.7-0.2l0.7-0.2l0.8-0.3l1.3-0.5l1.5-0.7l1.4-0.8l1.2-0.8l0.9-0.8l0.7-0.7l0.5-0.6l0.8-1.2l0.8-1.4l0.8-2.1
					l0.7-2.3l0.4-1.3c-0.1-1-0.2-2-0.3-3c0-0.5-0.1-1,0-1.6c0-0.2,0.2-0.8,0.2-1l-0.4-1.1h-1.2L57.9,61z"/>
				<g>
					<path class="st11" d="M50.4,70.9c0-0.1-0.2,0-0.2,0.1c0,0.3,0,0.6-0.1,1c-2.8,1.6-5.8,3.6-9,3c-0.1,0-0.2,0.2-0.1,0.2
						c1.5,1,3.2,0.4,4.6-0.2c1.5-0.6,3.1-1.4,4.4-2.5c-0.1,0.3-0.3,0.7-0.5,1c-0.1,0.2,0.1,0.3,0.3,0.2C50.5,73,50.8,71.7,50.4,70.9
						"/>
					<path class="st11" d="M43.6,70.6c-1.3,0.3-3.2,0.9-4.1-0.5c-0.7-1.1-0.1-2.8,0.2-4c0.6-2.4,1.5-4.7,2.3-7
						c0-0.1-0.1-0.2-0.2-0.1c-0.9,1.6-1.5,3.3-2,5c-0.5,1.5-1,3.1-1.2,4.7c-0.1,1.1,0.3,2.1,1.3,2.7c1.2,0.6,2.6,0.1,3.8-0.4
						C43.9,70.8,43.8,70.5,43.6,70.6"/>
				</g>
			</g>
		</g>
	</g>
</g>
</svg>
