<?xml version="1.0" encoding="utf-8"?>
<!-- Generator: Adobe Illustrator 23.0.1, SVG Export Plug-In . SVG Version: 6.00 Build 0)  -->
<svg version="1.1" id="Layer_1" xmlns="http://www.w3.org/2000/svg" xmlns:xlink="http://www.w3.org/1999/xlink" x="0px" y="0px"
	 width="101px" height="130px" viewBox="0 0 101 130" style="enable-background:new 0 0 101 130;" xml:space="preserve">
<style type="text/css">
	.st0{clip-path:url(#SVGID_2_);}
	.st1{fill:#FFFFFF;}
	.st2{fill:#B5C4C6;}
	.st3{fill:#F7AB72;}
	.st4{fill:#663D29;}
	.st5{fill:#FCBA8D;}
	.st6{fill:#E18B4A;}
	.st7{fill:#7BEA68;}
	.st8{fill:#51AD49;}
	.st9{fill:#7A5433;}
	.st10{fill:#231F20;}
	.st11{enable-background:new    ;}
</style>
<g>
	<g>
		<defs>
			<rect id="SVGID_1_" x="-0.1" y="-24.7" width="106.3" height="154.7"/>
		</defs>
		<clipPath id="SVGID_2_">
			<use xlink:href="#SVGID_1_"  style="overflow:visible;"/>
		</clipPath>
		<g class="st0">
			<g>
				<path class="st1" d="M44.6,114.4l1-0.5c0.3-0.2,0.7-0.3,1-0.4c0.2-0.1,0.3,0.2,0.1,0.3c-0.1,0.1-0.2,0.1-0.3,0.2
					c0.4,0,0.7,0.1,1.1,0.1c-0.4-1.1-0.9-2.3-1.5-3.3c-0.7-1.2-1.5-2.3-2.3-3.4c-1.1,0.3-2.3,0.6-3.4,0.9c0.8,0.7,1.4,2.1,1.8,2.9
					c0.6,1.3,1,3,0.9,4.4C43.4,115.2,44,114.8,44.6,114.4z"/>
				<path class="st2" d="M46.9,112.7c-0.8-1.6-2.7-1.4-4.2-1.9c-0.5-0.2-0.9-0.5-1.3-0.8c0.2,0.4,0.4,0.9,0.5,1.2
					c0.6,1.3,1,3,0.9,4.4c0.5-0.4,1.1-0.8,1.7-1.2l1-0.5c0.3-0.2,0.7-0.3,1-0.4c0.2-0.1,0.3,0.2,0.1,0.3c-0.1,0.1-0.2,0.1-0.3,0.2
					c0.4,0,0.7,0.1,1.1,0.1c-0.2-0.4-0.3-0.8-0.5-1.3C47,112.8,46.9,112.7,46.9,112.7z"/>
				<path class="st3" d="M49.9,114.3c0-1.7-0.1-3.5-1.4-4.7c-0.8-0.7-1.6-0.8-2.6-0.9c-0.2,0-0.5-0.1-0.7-0.2
					c1.2,1.7,2.2,3.6,2.9,5.5C48.7,114.2,49.3,114.3,49.9,114.3z"/>
				<path class="st1" d="M24.2,122.1c3.6,1.2,8.2-0.6,11.4-2c1.1-0.5,2.1-1,3.1-1.6l0.6-0.4c0.7-0.4,1.5-0.9,2.2-1.5
					c0.4-0.3,0.7-0.5,1.1-0.8c-0.2-1.3-0.3-2.7-0.7-3.9c-0.4-1.2-1.1-2.6-2-3.6c-1.5,0.4-3,0.8-4.4,1.3c-0.4,0.1-0.8,0.3-1.2,0.4
					l-0.6,0.2c-3.7,1.3-7.4,2.8-11.1,4.2c-0.2,0.1-0.3-0.2-0.1-0.3c1.3-0.7,2.6-1.3,4-1.8c-1.1,0-2.2-0.2-2.5-0.9
					c-0.3,0.1-0.6,0-0.8-0.2c-0.2-0.2-0.1-0.5-0.1-0.8c0.1-0.7,0.3-1.5,0.8-2.1c0-0.1-0.1-0.2-0.1-0.4c0-0.7,0.6-1.4,1.1-1.8
					c0.2-0.1,0.3-0.2,0.5-0.3c0.2-0.5,0.6-1,0.9-1.4c0.2-0.3,0.5-0.6,0.9-0.8c0,0,0,0,0,0c-0.8-0.4-1.5-1-1.8-1.9
					c-0.5-2.3,2.3-1.1,3.4-0.6c0.5-2.7,1.2-5.3,2.3-7.8c0-0.1,0.2,0,0.2,0.1c-0.8,2.6-1.5,5.3-2,8c2,0.8,4.3,1.8,5.3,3.7
					c0.5,0.8,0.6,1.8,0.4,2.7c-0.1,0.5-0.3,1.1-0.4,1.6c0.2-0.1,0.4-0.1,0.7-0.2c1.5-0.5,3-0.9,4.5-1.4c0,0,0.1,0,0.1,0l0,0
					c1.2-0.4,2.5-0.7,3.8-1l0.5-0.1l0.4,0.5c0.2,0.3,0.5,0.6,0.7,0.9c0,0,0,0,0,0c1.7,0.2,3.3,0.1,4.5,1.6c1.1,1.3,1.2,3.1,1.1,4.7
					c0.3,0,0.6,0.1,0.9,0.1c0.8,0.1,1.6,0.1,2.3,0.2c0.1-2,0.2-4,0.2-6c0-4.5-0.1-9-0.1-13.5c0-0.2,0.3-0.2,0.3,0
					c0.4,4.6,0.4,9.2,0.4,13.7c0,1.9,0,3.9-0.1,5.8l0,0.6l-0.7-0.1c-0.9-0.1-1.8-0.2-2.8-0.3c-0.9-0.1-1.8-0.2-2.7-0.2l-0.6,0
					c-0.7-0.1-1.5-0.1-2.2-0.2c-2,1.2-3.7,2.7-5.7,4c0,0,0,0-0.1,0.1c0.8,0.4,1.5,0.8,2.3,1.2c2.3,1,4.6,2,7,2.9
					c1.9,0.8,4.1,1.6,6.2,1.2c0.5-0.1,1-0.3,1.4-0.5l0.5-0.3c1.1-0.9,1.6-2.2,2-3.7c1.1-4.2,0.8-8.6,0.2-12.9
					c-0.5-4.3-1.4-8.7-2.8-12.8c-1.1-3.2-3.3-6.3-6.5-7.3c0.6,1.1,1.1,2.2,1.4,3.4l0.2,0.6l-0.3,0.5c-0.3,0.4-0.6,0.8-1,1.1
					c-0.8,0.7-1.7,1.4-2.6,1.9c0.5,0.4,1,0.9,1.5,1.3c0.3,0.3,0.6,0.6,0.9,0.8l0.3,0.3l-0.3,0.5c-1.7,2.3-4.8,3.6-7.5,4.1l0,0
					c0.2,0.9,0.2,1.9,0.2,2.9c0,1,0,2.2-0.4,3.2c0,0.1-0.2,0.1-0.2,0c-0.2-1-0.1-2.1,0-3.2c0-0.9-0.1-1.9,0-2.8l0-0.1
					c-2.9,1-6-1.3-7.6-4L34.4,96l0.2-0.6c0.6-1.1,1.4-2.2,2.2-3.1c-0.3-0.2-0.7-0.4-1-0.6c-0.5-0.3-1.1-0.6-1.7-0.9l-0.5-0.3
					l0.2-0.5c0.6-1.5,1.4-2.9,2.2-4.1c0.4-0.6,0.8-1.1,1.2-1.6c-5.2,0.9-8.4,5.9-10.9,10.1c-2.4,4.1-4.2,8.5-5.6,13
					c-1.2,4.3-2.5,10.1,1.4,13.4c0.5,0.4,1,0.7,1.5,0.9L24.2,122.1z"/>
				<path class="st2" d="M41.7,112c-0.1-0.3-0.3-0.7-0.4-1c-0.5,5.6-7.4,7.5-12.5,8.1c-2.3,0.3-5.5,0.6-7.2-1.4
					c-1.7-2.1,0.6-4.1,2.6-4.6c0.1,0,0.1,0,0.2,0c0.6-0.3,1.2-0.5,1.8-0.8c-1.1,0-2.2-0.2-2.5-0.9c-0.3,0.1-0.6,0-0.8-0.2
					c-0.2-0.2-0.1-0.5-0.1-0.8c0,0,0-0.1,0-0.1c-0.4,0.7-0.9,1.5-1.5,2.1c-0.1,0.1-0.4,0.2-0.5,0.1c-0.5-0.3-0.8-0.8-1-1.4
					c-0.7,3.5-0.6,7.3,2.3,9.8c0.5,0.4,1,0.7,1.5,0.9l0.5,0.2c3.6,1.2,8.2-0.6,11.4-2c1.1-0.5,2.1-1,3.1-1.6l0.6-0.4
					c0.7-0.4,1.5-0.9,2.2-1.5c0.4-0.3,0.7-0.5,1.1-0.8C42.3,114.6,42.2,113.3,41.7,112z"/>
				<path class="st2" d="M56.3,120.4c-1.8,1.5-4.5,1.4-6.5,0.4c-1.3-0.6-2.8-1.5-3.7-2.8c-0.8-1.3-0.8-2.2-0.3-3.4
					c-0.1,0-0.1,0-0.2,0c-2,1.2-3.7,2.7-5.7,4c0,0,0,0-0.1,0.1c0.8,0.4,1.5,0.8,2.3,1.2c2.3,1,4.6,2,7,2.9c1.9,0.8,4.1,1.6,6.2,1.2
					c0.5-0.1,1-0.3,1.4-0.5l0.5-0.3c1.1-0.9,1.6-2.2,2-3.7c0.6-2.2,0.8-4.5,0.7-6.8C59.6,115.5,58.6,118.4,56.3,120.4z"/>
				<path class="st2" d="M29,101.4c0.8,0.3,1.6,0.6,2.4,1c-0.2-0.9-0.4-1.8-0.5-2.7c-0.2-1.8-0.1-3.6-0.1-5.4
					C30.1,96.7,29.4,99.1,29,101.4z"/>
				<path class="st2" d="M50.6,113.2c0,0.4,0,0.8,0,1.2c0.3,0,0.6,0.1,0.9,0.1c0.8,0.1,1.6,0.1,2.3,0.2c0.1-2,0.2-4,0.2-6
					c0-2.2,0-4.3,0-6.5c-0.2,1.7-0.4,3.4-0.8,5.1C52.7,109.4,52,111.6,50.6,113.2z"/>
				<path class="st4" d="M23.9,190c-0.9-0.3-2.1-0.8-2.8-1.5c0,0,0,0,0-0.1c-0.6,0.2-1.2,0.3-1.8,0.5c-1.1,0.4-2.2,0.8-3.2,1.3
					c-1,0.5-2,1-3,1.6c-0.4,0.3-1.5,1-2,1.8c2.2-0.1,4.4-0.1,6.7-0.2c2.2-0.2,4.6-0.8,6.9-0.6c0.1,0,0.1,0.2,0,0.2
					c-2.1,0.7-4.7,0.7-6.9,0.9c-2.2,0.2-4.6,0.4-6.8,0c-0.1,0.4,0,0.7,0.6,0.9c1.4-0.1,2.8,0.1,4.2,0.1c1.5,0,3.1,0,4.6-0.2
					c1.9-0.1,3.8-0.4,5.6-0.8c0.2-0.6,0.5-1.2,0.6-1.9c0.1-0.6,0.2-1.2,0.2-1.9C25.8,190.5,24.8,190.3,23.9,190z"/>
				<path class="st1" d="M35.8,87.5c-0.5,0.9-1,1.9-1.4,2.8c0.7,0.3,1.3,0.7,1.9,1c0.3,0.2,0.6,0.4,0.9,0.6l0.3,0.2l-0.3,0.5
					c-0.4,0.6-0.9,1.1-1.3,1.7c-0.4,0.6-0.7,1.2-1,1.9c1.5,2.5,4,4.8,7,4.1c-1.2-2.2-1.9-4.6-2.3-7.3c-0.4-3.3-0.4-6.8-0.1-10.2
					c-0.6,0.1-1.1,0.7-1.6,1.3c0,0.1,0,0.1-0.1,0.1c-0.3,0.4-0.6,0.8-0.8,1.2C36.7,86,36.2,86.8,35.8,87.5z"/>
				<path class="st3" d="M25.7,111.6c0.7,0,1.4,0,2.1,0.1c2-0.8,4-1.4,5.9-2.1c0.4-1.1,0.8-2.2,0.5-3.3c-0.5-1.9-2.6-3-4.2-3.8
					c-1-0.4-2-0.8-3-1.2c-0.2-0.1-0.9-0.4-1.1-0.3c-1,0.5,0.3,1.8,0.7,2c1.2,0.8,2.6,1.1,3.7,1.9c0.6-0.1,1.1-0.1,1.7,0
					c0.2,0,0.2,0.2,0,0.3c-1.5,0.5-3.2,0.5-4.8,0.8c-0.7,0.1-1.3,0.2-2,0.5h0c-0.1,0-0.1,0.1-0.2,0.1c-0.3,0.2-1,0.7-1,1.1
					c0,0.5,0.7,0.9,1.1,1.2c0.4-0.2,0.8-0.4,1.1-0.6c1.2-0.5,2.8-0.9,4.1-0.9c0.1,0,0.2,0.2,0.1,0.2c-1.5,0.8-3.4,0.8-4.9,1.7
					c-0.4,0.3-1.1,0.8-1.2,1.3C24.2,111.6,25,111.6,25.7,111.6z"/>
				<path class="st3" d="M24.8,109.2c-0.3-0.1-0.7-0.3-0.9-0.5c-0.1,0.3-0.3,0.7-0.4,1c-0.1,0.2-0.2,0.7-0.2,0.9
					c0,0.2,0.2,0.3,0.4,0.4c0-0.2,0.1-0.4,0.2-0.6C24.1,109.9,24.4,109.6,24.8,109.2z"/>
				<path class="st3" d="M29.4,105c-0.6-0.3-1.2-0.6-1.9-0.9c0,0-0.1,0-0.1,0c-0.5,0.1-1,0.8-1.3,1.2c-0.1,0.1-0.1,0.2-0.2,0.3
					c0.6-0.2,1.3-0.3,1.9-0.3C28.3,105.2,28.9,105.1,29.4,105z"/>
				<path class="st1" d="M34.8,58.1c0.1-0.2,0.1-0.3,0.2-0.5c0.1-0.3,0.5-1.8-0.2-1.5c-0.1,0.2-0.2,0.4-0.3,0.7c0,0.3,0,0.6,0.1,0.9
					C34.5,57.8,34.6,58,34.8,58.1z"/>
				<path class="st1" d="M51,58.1c0.1-0.2,0.1-0.3,0.2-0.5c0.1-0.3,0.5-1.8-0.2-1.5c-0.1,0.2-0.2,0.4-0.3,0.7c0,0.3,0,0.6,0.1,0.9
					C50.7,57.8,50.8,58,51,58.1z"/>
				<path class="st3" d="M53,64.6c0.1,0.5,0.1,1.1,0.2,1.6c0.5-1.6,2.1-3,3.2-4c0.8-0.8,1.9-1.9,3.1-2.6c-0.2-0.5-0.3-1.1-0.4-1.7
					c-0.3,0-0.6,0-0.9,0c-0.9,0.1-1.8,0.2-2.7,0.2c-0.1,2-1.1,4-2.9,4.5c-2.2,0.7-5.5-0.4-6.4-2.7c-0.9-2.2,0-5.9,2.5-6.6
					c0.1,0,0.2,0.2,0.1,0.2c-2.1,1-3,3.8-2.2,5.9c0.7,2.1,3.6,3.2,5.6,2.7c1.8-0.4,2.7-2.4,2.8-4.2c0,0,0-0.1,0-0.1
					c0-0.7-0.1-1.3-0.3-1.9c-0.9-2.4-3.4-3.1-5.7-2.4c-0.1,0-0.2-0.2-0.1-0.2c2.4-1,5.3-0.3,6.2,2.3c0.2,0.6,0.3,1.3,0.3,2
					c0.8-0.2,1.7-0.2,2.5-0.3c0.3,0,0.7,0,1-0.1c-0.2-1.6-0.2-3.3-0.1-4.8c0.1-2,0.4-4.1,0.9-6.1c-1.7,0.2-3.6,0-5.2-0.7
					c0.1,0.2,0.1,0.5,0,0.8c-0.3,2-2.7,2.3-4.3,2.2c-3-0.3-6-1.4-8.4-3.2c0.2,1.8-1.3,2.2-2.8,2.2c-3.4-0.1-6.3-2.5-7.4-5.6
					c-1.5,1.8-2.4,4.1-3.3,6.2c-1,2.4-1.6,4.9-1.9,7.4c0.1,0,0.3,0.1,0.4,0.1c0.6,0.1,1.2,0.2,1.7,0.4c0.7-2.2,2.6-4.3,5-4
					c0.1,0,0.2,0.2,0,0.2c-2.6,0.4-4.5,2.4-4.8,5.1c-0.3,2.9,2.1,5.8,5.1,5.5c2.8-0.3,4.6-2.3,4.8-5c0.2-2.6-1.2-5.6-4.2-5.6
					c-0.1,0-0.1-0.1,0-0.1c3.1-0.3,4.7,2.8,4.6,5.5c1.6-1.6,5.3-2.3,6.1,0.2c0,0.1-0.1,0.2-0.2,0.1c-1.5-2.1-4.3-0.8-6,0.3
					c-0.3,2.8-2.2,4.8-5.1,5.2c-3.1,0.4-5.7-2.6-5.6-5.6c0-0.4,0.1-0.7,0.2-1.1c-0.5-0.1-1.1-0.2-1.6-0.3c-0.2,0-0.3-0.1-0.5-0.1
					c-0.1,0.5-0.1,0.9-0.2,1.4c0,0,0,0,0,0.1c0,0,0,0,0,0c0.7,1.4,1.3,2.8,1.9,4.2c0.5,1.3,1.2,2.7,1.6,4.1c0.1-0.2,0.1-0.4,0.2-0.5
					l0.1-0.4l0.4,0.1c2.3,0.9,4.8,1.1,7.4,1.1c-0.3-1.4,0.2-3.1,0.8-4.3c0.7-1.4,1.7-2.8,2.9-3.8c0.1-0.1,0.2,0.1,0.2,0.2
					c-0.9,1.2-1.8,2.2-2.5,3.5c-0.4,0.8-0.7,1.6-0.8,2.5c-0.1,0.6-0.1,1.2-0.2,1.8c1.1,0,2.3,0,3.4-0.1c3.8-0.1,7.4-0.8,11-1.9
					l0.3-0.1L53,64.6z M49.8,57.3c0.1-0.3,0.8-2.1,1.4-1.8c0.1,0,0.2,0,0.3,0c0.4,0.2,0.4,0.8,0.3,1.2c-0.1,0.8-0.4,2.7-1.4,3
					C49.2,60,49.6,57.9,49.8,57.3z M52.7,49.1c1.2-0.1,2,1.3,1.8,2.4c0,0.2-0.3,0.2-0.4,0.1c-0.2-0.3-0.2-0.8-0.4-1.1
					c-0.3-0.6-0.9-0.6-1.4-0.4c-0.7,0.3-1.2,0.8-1.8,1.3c-0.1,0.1-0.4,0.1-0.4-0.1C50.1,50.2,51.7,49.1,52.7,49.1z M35,55.5
					c0.1,0,0.2,0,0.3,0c0.4,0.2,0.4,0.8,0.3,1.2c-0.1,0.8-0.4,2.7-1.4,3c-1.3,0.3-0.8-1.8-0.6-2.4C33.7,57,34.4,55.2,35,55.5z
					 M37.5,50.6c0,0.2-0.3,0.2-0.3,0c-0.5-1-1-1.8-2.2-1.8c-0.9,0.1-1.6,0.7-2.2,1.2c-0.1,0.1-0.3,0-0.3-0.1
					C32.8,47.2,38.1,47.7,37.5,50.6z"/>
				<path class="st5" d="M28.9,57.3c-0.3,2.9,2.1,5.8,5.1,5.5c2.8-0.3,4.6-2.3,4.8-5c0.2-2.5-1.2-5.4-4-5.6
					c-0.7,0.1-1.4,0.4-2.1,0.4C30.6,53.3,29.1,55,28.9,57.3z M33.6,57.3c0.1-0.3,0.8-2.1,1.4-1.8c0.1,0,0.2,0,0.3,0
					c0.4,0.2,0.4,0.8,0.3,1.2c-0.1,0.8-0.4,2.7-1.4,3C33,60,33.4,57.9,33.6,57.3z"/>
				<path class="st5" d="M54.8,56c-0.9-2.4-3.4-3.1-5.7-2.4c0,0-0.1,0-0.1,0c0,0-0.1,0-0.1,0c0,0,0,0,0,0.1c-2.1,1-3,3.8-2.2,5.9
					c0.7,2.1,3.6,3.2,5.6,2.7c1.8-0.4,2.7-2.4,2.8-4.2c0-0.1,0-0.1,0-0.2C55.1,57.2,55,56.5,54.8,56z M51.8,56.7
					c-0.1,0.8-0.4,2.7-1.4,3c-1.3,0.3-0.8-1.8-0.6-2.4c0.1-0.3,0.8-2.1,1.4-1.8c0.1,0,0.2,0,0.3,0C51.8,55.7,51.8,56.4,51.8,56.7z"
					/>
				<path class="st6" d="M59.2,58c-0.3,0-0.6,0-0.9,0c-0.4,0-0.8,0.1-1.2,0.1c0,0.2,0,0.3,0.1,0.5c0,0.4,0.3,1.5,0.7,2.3
					c0.5-0.5,1.1-0.9,1.7-1.3C59.4,59.1,59.2,58.5,59.2,58z"/>
				<path class="st6" d="M31.1,47.2c0.1-0.1,0.3-0.1,0.4,0c0.8,0.4,1.6,0.8,2.3,1.1c1.3-0.5,3.3,0,3.7,1.3c1.7,0.3,3.5,0.2,5.2-1
					c0.2-0.1,0.4-0.1,0.5,0.1c1.7,1.8,4.2,2.6,6.7,2.5v0c0.1-1.1,1.7-2.1,2.7-2.2c0.7,0,1.3,0.5,1.6,1.2c0.3-0.2,0.6-0.3,0.9-0.5
					c0.2-0.1,0.5,0,0.5,0.1c1.2,2.4,1,5,1.3,7.6c0.4,0,0.7,0,1.1-0.1c0.3,0,0.7,0,1-0.1c-0.2-1.6-0.2-3.3-0.1-4.8
					c0.1-2,0.4-4.1,0.9-6.1c-1.7,0.2-3.6,0-5.2-0.7c0.1,0.2,0.1,0.5,0,0.8c-0.3,2-2.7,2.3-4.3,2.2c-3-0.3-6-1.4-8.4-3.2
					c0.2,1.8-1.3,2.2-2.8,2.2c-3.4-0.1-6.3-2.5-7.4-5.6c-1.5,1.8-2.4,4.1-3.3,6.2c-0.3,0.7-0.5,1.3-0.7,2
					C28.7,49.2,29.9,48.1,31.1,47.2z"/>
				<path class="st3" d="M52.1,50c-0.6,0.3-1.1,0.7-1.6,1.2c1.1-0.1,2.1-0.3,3.1-0.7c0,0,0-0.1-0.1-0.1C53.2,49.8,52.7,49.8,52.1,50
					z"/>
				<path class="st3" d="M35,48.9c0.5,0.2,1,0.4,1.4,0.5C36,49,35.6,48.8,35,48.9L35,48.9z"/>
				<path class="st7" d="M38.2,66.8c0,0.1-0.1,0.1-0.2,0c-1.2,0-2.5-0.1-3.7-0.2c-1.4-0.1-2.8-0.4-4-1c-1,3.2-1.6,6.8-1,10.1
					c1.6,1.1,3.5,1.4,5.4,1.7c2.5,0.4,5.1,0.7,7.7,0.6c3.5-0.2,6.8-1.2,10-2.6c0.4-1.6,0.6-3.2,0.6-5c0-1.9-0.1-3.8-0.2-5.7
					c-3.5,1.4-7.5,1.9-11.2,2C40.3,66.8,39.3,66.8,38.2,66.8z M52.1,73.3c-3.4,1.3-7.3,1.9-11,2.1c-1.9,0.1-3.8,0.1-5.8,0
					c-1.5-0.1-3-0.3-4.4-1.1c-0.1-0.1,0-0.3,0.1-0.2c3.1,1.4,7.1,1.1,10.5,0.9c3.6-0.2,7-1.1,10.5-1.9C52.2,73,52.3,73.2,52.1,73.3z
					 M52.3,70.4c-3,1.3-6.6,1.5-9.8,1.7c-3.5,0.2-7,0.6-10.4-0.5c-0.1,0-0.1-0.2,0.1-0.2c3.3,0.7,6.8,0.4,10.2,0.2
					c3.4-0.2,6.6-0.8,9.9-1.4C52.3,70.2,52.4,70.3,52.3,70.4z M49.2,68c-2.8,0.9-5.9,1.3-8.8,1.4c-2.7,0.1-5.7,0.3-8.1-0.8
					c-0.1-0.1,0-0.3,0.1-0.2c5.5,1.5,11.3,0.3,16.8-0.5C49.2,67.8,49.3,68,49.2,68z"/>
				<path class="st8" d="M52.2,73.2C52.2,73.2,52.2,73.3,52.2,73.2c-0.8,1.2-1.9,2.1-3.3,2.6c-3.3,1.2-8.8,2.7-12,0.5
					c-0.3-0.2-0.3-0.7,0.1-0.7c0.2,0,0.4-0.1,0.6-0.1c-0.7,0-1.4-0.1-2.2-0.1c-1.5-0.1-3-0.3-4.4-1.1c-0.1-0.1,0-0.3,0.1-0.2
					c2.7,1.2,6.1,1.2,9.1,1c0.1,0,0.3-0.1,0.4-0.1c-1.8,0-3.5-0.3-5.2-0.8c-1.3-0.3-2.8-0.6-3.8-1.5c-1.7-1.5-2-3.3-1.8-5.2
					c-0.7,2.7-1,5.7-0.5,8.3c1.6,1.1,3.5,1.4,5.4,1.7c2.5,0.4,5.1,0.7,7.7,0.6c3.5-0.2,6.8-1.2,10-2.6c0.3-1.2,0.5-2.4,0.5-3.6
					C52.7,72.3,52.5,72.8,52.2,73.2z"/>
				<path class="st3" d="M28.7,72.5c0-0.7,0.1-1.5,0.2-2.2c0.1-1.2,0.4-2.4,0.7-3.6c-0.8-1.3-1.2-2.8-1.8-4.2c-0.4-1-0.8-2-1.1-3
					c-0.2-0.5-0.5-0.9-0.7-1.4c-0.1,0-0.1-0.1-0.1-0.2c0,0,0,0,0,0c-0.3-0.5-0.6-0.9-1-1.3c-0.3-0.4-0.4-0.5-0.9-0.5
					c-0.5,0.1-0.5,0.3-0.8,0.7c-0.3,0.6-0.6,1.1-0.8,1.8c-0.4,1.2-0.5,2.4-0.4,3.7c0.1,1.3,0.7,4.1,2.4,3.6c0-0.4,0.1-0.9,0.1-1.3
					c0-0.1,0.2-0.1,0.2,0c0,0.4,0.1,0.8,0.1,1.2l0,0.6c0,0.2,0,0.4,0,0.6c0.4,1.2,1,2.1,1.7,3.1C27.3,70.8,28.1,71.6,28.7,72.5z
					 M24.8,63.4c0,0.1-0.2,0.1-0.2,0c-0.1-1.1,0-2.2-0.1-3.3c0-0.2,0-1-0.4-0.7c-0.2,0.1-0.3,0.7-0.3,0.8c-0.1,0.4-0.2,0.7-0.4,1
					c-0.1,0.1-0.3,0.1-0.3,0c-0.2-0.7,0.4-3.3,1.6-2.5c0.5,0.3,0.4,1.1,0.4,1.6C25.1,61.3,25.1,62.4,24.8,63.4z"/>
				<path class="st3" d="M40.4,80.8c0.4,0,0.8,0.1,1.2,0.1c0.1,0,0.2,0.2,0,0.3c-0.4,0.1-0.8,0.2-1.2,0.2c0,2.1-0.2,4.3-0.2,6.4
					c0.9,0.8,1.7,1.5,3,1.4s2.1-0.9,2.8-1.8c0-2.1-0.1-4.1,0-6.2c-0.7,0.1-1.3,0.1-2,0c-0.2,0-0.1-0.2,0-0.3c0.7-0.1,1.3-0.2,2-0.3
					l0.4-0.1c3.1-0.7,6.1-2,8.5-3.9c1.5-1.2,2.6-2.8,3.4-4.5c0.3-0.7,0.6-1.4,0.8-2.1c-0.6,0.7-1.4,1.2-2.2,1.6
					c-1,0.5-2.2,1.1-3.3,0.9c0,0.9-0.1,1.7-0.3,2.6l-0.2,0.7l-0.7,0.4c-3.2,1.5-6.8,2.3-10.3,2.5c-2.8,0.1-5.6-0.3-8.3-0.8
					c-1.4-0.3-2.9-0.6-4.1-1.4l-0.6-0.5l-0.1-0.6c-0.1-0.7-0.1-1.5-0.1-2.3c-1.1-0.9-2-2.1-2.7-3.2c-0.3-0.4-0.6-0.9-0.8-1.4
					c0.2,3.2,0.7,6.3,2.6,9c1.4,2.1,4.2,2.5,6.5,2.9c1.9,0.3,3.8,0.3,5.8,0.4L40.4,80.8z"/>
				<path class="st3" d="M40.3,82.7c-0.1,1.7-0.2,3.3-0.2,5c0.6,0.6,1.2,1.1,2,1.3C42.6,86.4,42.1,82.8,40.3,82.7z"/>
				<path class="st6" d="M45.9,81.1c-0.7,0.1-1.3,0.1-2,0c-0.2,0-0.1-0.2,0-0.3c0.3,0,0.7-0.1,1-0.1c-1.1,0.1-2.2,0.2-3.3,0.2
					c0.1,0.1,0.1,0.2,0,0.2c-0.4,0.1-0.8,0.2-1.2,0.2c0,0.2,0,0.4,0,0.5c2.4,0,3.1,4.2,2.6,7.2c0.1,0,0.1,0,0.2,0
					c1.3-0.1,2.1-0.9,2.8-1.8C45.9,85.2,45.8,83.2,45.9,81.1z"/>
				<path class="st3" d="M36.5,80.5c-2.2-0.3-5.2-0.8-7.8-2c1.5,1.1,3.6,1.4,5.4,1.8c1,0.2,2.1,0.3,3.1,0.3
					C37.1,80.6,36.8,80.5,36.5,80.5z"/>
				<path class="st9" d="M25.9,56.9c0-0.3,0-0.6,0.1-0.9c-0.2-0.1-0.5-0.1-0.7-0.3c-0.1,0,0-0.2,0-0.2c0.2,0,0.4,0,0.7,0
					c0.3-2.7,1.1-5.4,2.1-7.9c0.9-2.1,1.9-4.5,3.5-6.2l0.3-0.3l0.2,0.5c0.9,2.5,2.8,4.6,5.6,5.2c0.8,0.2,1.9,0.3,2.7,0.1
					c1-0.2,1.1-1.2,0.9-2l-0.4-1.1l0.9,0.7c1.9,1.4,3.9,2.5,6.2,3.1c1.6,0.4,4.3,1.1,5.6-0.3c0.6-0.6,0.5-1.3,0.2-1.9l-1.1-1.3
					l1.4,0.8c0.8,0.4,1.6,0.7,2.5,0.9c1.1,0.2,2.2,0.2,3.3,0l0.6-0.1l-0.1,0.6c-0.4,2-0.8,4-0.9,6c-0.1,1.7,0,3.3,0.2,5
					c0.4,0,0.8,0,1.2,0.1c0.1,0,0.1,0.2,0,0.3c-0.4,0.1-0.8,0.2-1.2,0.2c0.1,0.5,0.2,1,0.2,1.5c0.2-0.1,0.5-0.2,0.8-0.2
					c0.6-0.8,1.3-1.5,2.2-1.8c0-1,0.2-2.1,0.3-3.1c0.2-0.9,0.2-1.8,0.3-2.6l0.1-0.6l0.5,0.3c0.6,0.3,1.1,0.4,1.3,0
					c0.1-0.3-0.2-1.2-0.3-1.5c-0.1-0.4-0.2-0.8-0.4-1.2c-0.5-1.3-1.2-2.6-2.2-3.7l-1.2-0.8c0.2,0.1,0.5,0.1,0.7,0.2l0.7,0.1
					c0,0,0.1,0,0.2,0c0.5,0.1,1.3,0.3,1.8,0.2c0.4-0.1,0.8-0.8,0.9-1.2c0.1-0.3-0.1-0.7-0.1-1c-0.1-0.4-0.2-0.8-0.3-1.2
					c-0.3-1-0.8-2-1.5-2.9c-2-2.9-5.2-4.9-8.4-6.4c-3.2-1.5-6.7-2.4-10.2-2.7c-3.5-0.3-7.5-0.1-10.8,1.3c-1.6,0.7-3.1,1.8-3.9,3.4
					c-0.8,1.5-0.8,3.1-0.5,4.7L30,39l-0.4,0.3c-2.2,1.6-3.2,4.2-3.9,6.8c-0.4,1.6-0.6,3.2-0.8,4.8c-0.1,1.5-0.1,3-0.4,4.5
					C25.1,55.7,25.5,56.3,25.9,56.9z"/>
				<path class="st4" d="M62.9,44.4c0,0,0.1,0,0.2,0c0.5,0.1,1.3,0.3,1.7,0.2c0.4-0.1,0.8-0.8,0.9-1.2c0.1-0.3-0.1-0.7-0.1-1
					c-0.1-0.4-0.2-0.8-0.3-1.2c-0.1-0.4-0.3-0.7-0.4-1.1c-0.1,1.1-0.6,2-2.1,2.4c-4.7,1.2-9.7-1.4-13.9-3.3c0.2,4.3-6.6,1.2-9.3-0.8
					c-0.2,2.6-3.8,2-5.5,0.1c-1.7-2-2.2-4.5-1.6-6.9c-0.8,0.6-1.5,1.3-2,2.2c-0.8,1.5-0.8,3.1-0.5,4.7L30,39l-0.4,0.3
					c-2.2,1.6-3.2,4.2-3.9,6.8c-0.4,1.6-0.6,3.2-0.8,4.8c-0.1,1.5-0.1,3-0.4,4.5c0.5,0.3,1,1,1.3,1.5c0-0.3,0-0.6,0.1-0.9
					c-0.2-0.1-0.5-0.1-0.7-0.3c-0.1,0,0-0.2,0-0.2c0.2,0,0.4,0,0.7,0c0.3-2.7,1.1-5.4,2.1-7.9c0.9-2.1,1.9-4.5,3.5-6.2l0.3-0.3
					l0.2,0.5c0.9,2.5,2.8,4.6,5.6,5.2c0.8,0.2,1.9,0.3,2.7,0.1c1-0.2,1.1-1.2,0.9-2l-0.4-1.1l0.9,0.7c1.9,1.4,3.9,2.5,6.2,3.1
					c1.6,0.4,4.3,1.1,5.6-0.3c0.6-0.6,0.5-1.3,0.2-1.9l-1.1-1.3l1.4,0.8c0.8,0.4,1.6,0.7,2.5,0.9c1.1,0.2,2.2,0.2,3.3,0l0.6-0.1
					l-0.1,0.6c-0.4,2-0.8,4-0.9,6c-0.1,1.7,0,3.3,0.2,5c0.4,0,0.8,0,1.2,0.1c0.1,0,0.1,0.2,0,0.3c-0.4,0.1-0.8,0.2-1.2,0.2
					c0.1,0.5,0.2,1,0.2,1.5c0.2-0.1,0.5-0.2,0.8-0.2c0.6-0.8,1.3-1.5,2.2-1.8c0-1,0.2-2.1,0.3-3.1c0.2-0.9,0.2-1.8,0.3-2.6l0.1-0.6
					l0.5,0.3c0.6,0.3,1.1,0.4,1.3,0c0.1-0.3-0.2-1.2-0.3-1.5c-0.1-0.4-0.2-0.8-0.4-1.2c-0.5-1.3-1.2-2.6-2.2-3.7l-1.2-0.8
					c0.2,0.1,0.5,0.1,0.7,0.2L62.9,44.4z"/>
				<path class="st3" d="M24,188.7c-0.7-0.1-1.3-0.3-2-0.6c-0.2,0.1-0.3,0.1-0.5,0.2c0.7,0.1,1.4,0.5,2,0.8c1.1,0.5,2.1,0.4,3.2,0.5
					c0-0.4,0-0.9,0-1.3C25.8,188.7,24.9,188.8,24,188.7z"/>
				<path class="st3" d="M56.4,187.3c-0.2,0-0.3-0.1-0.5-0.1c-1.6,0.7-3.4,1-5.2,0.8c0.1,0.6,0.2,1.1,0.3,1.7c0.7-0.2,2.7-1,2.9-1.1
					C54.8,188.2,55.6,187.7,56.4,187.3z"/>
				<path class="st4" d="M65.5,190c-0.9-0.5-2-0.7-3-1c-1.9-0.6-3.8-1.1-5.8-1.6c0,0,0,0.1,0,0.1c-1.1,1.4-3.7,2.5-5.5,2.6
					c0.1,0.8,0.2,1.6,0.3,2.4c0,0.1,0,0.2,0.1,0.4c2.1,0.2,4.2,0.2,6.4,0.3c1.3,0.1,2.7,0.1,4.1,0.1c1.1,0,2.2-0.1,3.3,0.1
					c0.5-0.2,0.9-0.4,1.1-0.8c-2.3,0.1-4.6,0-6.9-0.1c-2.3-0.1-4.6-0.2-6.9-0.6c-0.1,0-0.1-0.2,0-0.2c2.4,0.1,4.7,0.2,7.1,0.3
					c2.3,0.1,4.6,0,6.9,0.1C66.8,191.4,66.5,190.5,65.5,190z"/>
				<path class="st7" d="M54.2,187.2c0.9-0.3,1.7-0.7,2.4-1.2c-0.2-1.9-0.3-3.9-0.5-5.8c-0.2-2.4-0.4-4.8-0.5-7.2
					c-2.3,0.8-4.7,1.5-7.2,2.1c0.5,2.1,0.8,4.3,1.1,6.5c0.3,1.9,0.6,3.9,0.8,5.8C51.7,187.7,53,187.6,54.2,187.2z"/>
				<path class="st1" d="M43.5,99.2c-0.1,0.3-0.3,0.6-0.4,0.9c1.3-0.4,2.7-0.8,3.9-1.5c1.1-0.6,2-1.4,2.9-2.3
					c-0.3-0.3-0.6-0.6-0.9-0.9c-0.5-0.5-1-1-1.6-1.4L47,93.5l0.3-0.2c0.8-0.5,1.6-0.9,2.3-1.5c0.6-0.5,1.1-1,1.6-1.6
					c-0.6-1.4-1.1-2.8-1.8-4.1l-0.3-0.6c-0.4-0.7-0.8-1.3-1.2-1.8c-0.4-0.5-1-0.9-1.5-1.3c0.1,1.6,0,3.2,0.1,4.8
					c0,2.2-0.1,4.2-0.8,6.3C45.1,95.4,44.4,97.3,43.5,99.2z"/>
				<path class="st1" d="M56,172.1c0.6-0.2,1.2-0.4,1.8-0.6c1.1-0.4,2.3-0.9,3.4-1.3c-0.4-8-0.9-16-1.5-24
					c-0.4-4.4-0.8-8.7-1.3-13.1c-0.3-3.1-0.7-6.2-1.4-9.2c-2.7,1.3-6.5-0.2-9.1-1.2c-2.2-0.9-4.4-1.8-6.6-2.8
					c-0.7-0.3-1.3-0.7-2-1.1c-2.2,1.3-4.6,2.3-7,3.1c-2.6,0.8-5.5,1.4-8,0.7c-0.3,3.7-0.8,7.4-1.1,11.1c-0.8,8.5-1.4,17-1.9,25.5
					c-0.2,3.8-0.4,7.6-0.5,11.4c0.3,0.1,0.6,0.3,1,0.4l0.4,0.2c2.4,1.1,4.8,2.1,7.3,2.9l0.6,0.2c2.5,0.7,5,1.2,7.6,1.3
					c0.2-1.4,0.4-2.8,0.6-4.2c0.4-3.1,0.8-6.3,1.3-9.4c0-0.4,0.6-0.4,0.6,0c0.4,4.3,1,8.5,1.7,12.7c0,0.3,0.1,0.5,0.1,0.8
					c0.9-0.1,1.8-0.2,2.7-0.3c1.2-0.2,2.4-0.4,3.5-0.7l0.4-0.1c2.5-0.6,4.9-1.3,7.3-2.1L56,172.1z M31.3,154.6
					c-0.5,1.8-1.6,3.8-3.6,4.1c-1.2,0.1-2.3-0.4-3.2-1c-0.8-0.4-1.5-0.9-1.8-1.8c-0.3-1.1-0.2-2.5-0.1-3.7c0-1.4,0.1-2.8,0.4-4.1
					c0-0.2,0.3-0.1,0.3,0c-0.1,2.1-0.4,4.2-0.3,6.4c0,0.5,0,1.2,0.3,1.6c0.3,0.5,0.9,0.8,1.5,1.1c1.1,0.6,2.2,1.1,3.4,0.6
					c2.1-0.8,2.6-3.5,3-5.4c0.5-2.2,0.7-4.3,1-6.5c0-0.2,0.4-0.3,0.4,0C32.7,148.8,32.2,151.8,31.3,154.6z M32.6,145.2
					c-1.4,0.6-3.1,0.6-4.6,0.8c-0.4,0.1-4.5,0.9-4.6,0.7c0,0.1,0,0.1-0.1,0.2c0,0,0,0-0.1,0c-0.1,0-0.1-0.1-0.2-0.1l0-0.1
					c0-0.1,0-0.2,0.1-0.2c0.6-0.4,1.6-0.5,2.3-0.6c0.8-0.2,1.6-0.3,2.5-0.5c1.5-0.2,3.2-0.8,4.7-0.5
					C32.7,144.9,32.7,145.2,32.6,145.2z M36,137.9c0.3-0.7,1-1.3,1.7-1.4c0.1,0,0.2,0.2,0.1,0.2c-0.6,0.4-1.6,1.2-1.4,2.1
					c0.2,0.8,1.1,0,1.3-0.4c0.3-0.4,0.4-1,0.2-1.5c-0.1-0.2,0.2-0.5,0.4-0.3c0.5,0.7,0.4,1.5,0,2.2c-0.4,0.6-1.1,1.1-1.8,0.8
					C35.8,139.4,35.8,138.5,36,137.9z M38.6,152.7c-0.3,0.6-0.9,1.3-1.7,1.2c-0.8-0.1-0.6-1.1-0.5-1.7c0.2-0.6,0.7-1.5,1.4-1.6
					c0.1,0,0.2,0.1,0.1,0.2c-0.2,0.3-0.5,0.6-0.7,0.9c-0.2,0.3-0.4,0.9-0.3,1.2c0.1,0.4,0.5,0.2,0.7,0c0.2-0.2,0.4-0.5,0.5-0.8
					c0.2-0.4,0.2-0.8,0-1.2c-0.1-0.2,0.2-0.3,0.3-0.2C39.2,151.1,38.8,152.2,38.6,152.7z M38.7,125.5c-0.4,0.6-1.1,0.9-1.7,0.4
					s-0.5-1.4-0.2-2c0.2-0.4,0.9-0.8,1.3-0.3c0.1,0.1,0,0.2-0.1,0.2c-0.5,0-0.7,0.2-0.8,0.7c-0.1,0.4-0.1,1,0.4,1.1
					c0.4,0.1,0.7-0.4,0.8-0.7c0.1-0.4,0-0.8,0-1.2c0-0.2,0.2-0.3,0.3-0.2C39.2,124,39.1,124.9,38.7,125.5z M41.4,130.6
					c0.1,3.2,0.3,6.4,0.2,9.7c0,3.2-0.3,6.4-0.7,9.6c-0.3,3.1-0.5,6.4-1.2,9.4c0,0.2-0.3,0.1-0.3,0c0.1-3.3,0.7-6.5,1-9.8
					c0.2-3.2,0.4-6.4,0.5-9.6c0-3.2-0.2-6.5-0.2-9.7c0-3.1,0-6.4,0.8-9.4c0-0.1,0.3-0.1,0.2,0C41.5,124.1,41.3,127.3,41.4,130.6z
					 M46.1,145.8c1.7-0.4,3.5-0.2,5.3-0.2c1.7,0.1,3.6,0.2,5.3,0.6c0.3,0.1,0.2,0.5-0.1,0.5c-1.7-0.1-3.5-0.4-5.2-0.5
					c-1.7-0.1-3.5,0-5.2-0.2C46,146,46,145.8,46.1,145.8z M46.6,147.1c0-0.3,0.4-0.2,0.4,0c0.3,3.8,0.1,11.1,5.6,10.8
					c2.4-0.1,3.6-1.7,3.7-4c0-2.3-0.2-4.6,0-6.8c0-0.2,0.3-0.2,0.3,0c0.2,1.6,0.2,3.2,0.2,4.8c0,1.3,0.2,2.6-0.2,3.8
					c-0.5,1.8-2.3,2.8-4.1,2.9C46.7,158.9,46.6,151.3,46.6,147.1z"/>
				<path class="st2" d="M37.6,125.6c0.4,0.1,0.7-0.4,0.8-0.7c0.1-0.3,0-0.6,0-0.9c-0.1,0-0.2-0.1-0.3-0.1c0,0,0,0-0.1,0
					c-0.5,0-0.7,0.2-0.8,0.7C37.1,124.9,37.1,125.5,37.6,125.6z"/>
				<path class="st2" d="M59.6,146.2c-0.4-4.4-0.8-8.7-1.3-13.1c-0.3-3.1-0.7-6.2-1.4-9.2c-2.7,1.3-6.5-0.2-9.1-1.2
					c-2.2-0.9-4.4-1.8-6.6-2.8c-0.7-0.3-1.3-0.7-2-1.1c-2.2,1.3-4.6,2.3-7,3.1c-2.6,0.8-5.5,1.4-8,0.7c0,0,0,0,0,0
					c1.2,0.6,2.2,1.2,3.6,1.3c1.5,0.1,2.8,0,4.2-0.4c1.9-0.6,3.9-1.3,5.8-0.6c0,0,0,0,0,0c0,0,0.1,0,0.1,0c1,0.2,1.9,0.6,2.8,1
					c0.1-0.2,0.2-0.3,0.3-0.5c0.1-0.9,0.3-1.8,0.5-2.7c0-0.1,0.3-0.1,0.2,0c-0.1,0.7-0.1,1.5-0.2,2.2c1-0.5,2.2,0,3.4,0.7
					c3.6,2,6.8,3.6,11,2.9c0.2,0,0.4,0.1,0.5,0.3c1.2,3.3,0.9,7.4,1,10.8c0,2.9,0.7,6.5-0.6,9.2c0,0.1-0.1,0.2-0.2,0.2
					c0.2,1.1,0.2,2.4,0.1,3.7c0,0.4,0,0.8,0,1.2c0,1.3,0.2,2.6-0.2,3.8c-0.2,0.8-0.6,1.4-1.2,1.8c0.7-0.2,1.3-0.4,2,0.2
					c0.9,0.7,0.8,2.9,0.7,3.9c-0.2,3.6-1.6,6.1-4.8,8c-2.7,1.6-7,3.2-9.9,1.2c-1.3-0.9-2.3-2.2-3-3.8c0.3,2.6,0.7,5.1,1.1,7.7
					c0,0.3,0.1,0.5,0.1,0.8c0.9-0.1,1.8-0.2,2.7-0.3c1.2-0.2,2.4-0.4,3.5-0.7l0.4-0.1c2.5-0.6,4.9-1.3,7.3-2.1l0.4-0.1
					c0.6-0.2,1.2-0.4,1.8-0.6c1.1-0.4,2.3-0.9,3.4-1.3C60.8,162.2,60.3,154.2,59.6,146.2z"/>
				<path class="st2" d="M35.4,169.2c-2.2,1.2-4.9,0.8-7.2-0.2c-3.7-1.6-6-5.6-7.2-9.6c-0.2,3.7-0.4,7.5-0.5,11.2
					c0.3,0.1,0.6,0.3,1,0.4l0.4,0.2c2.4,1.1,4.8,2.1,7.3,2.9l0.6,0.2c2.5,0.7,5,1.2,7.6,1.3c0.2-1.4,0.4-2.8,0.6-4.2
					c0.3-2,0.5-3.9,0.8-5.9C38,167,36.9,168.4,35.4,169.2z"/>
				<path class="st2" d="M26.6,154.4c-2,0.1-3-1.6-3.5-3.4c-0.1,1.2-0.1,2.3-0.1,3.5c0,0.5,0,1.2,0.3,1.6c0.3,0.5,0.9,0.8,1.5,1.1
					c1.1,0.6,2.2,1.1,3.4,0.6c2.1-0.8,2.6-3.5,3-5.4c0.2-0.8,0.3-1.6,0.5-2.5C30.5,152.2,28.8,154.2,26.6,154.4z"/>
				<path class="st2" d="M38.1,150.9C38.1,150.9,38.1,150.9,38.1,150.9c-0.1,0-0.1-0.1-0.2-0.1v0c-0.2,0.3-0.5,0.6-0.7,0.9
					c-0.2,0.3-0.4,0.9-0.3,1.2c0.1,0.4,0.5,0.2,0.7,0c0.2-0.2,0.4-0.5,0.5-0.8c0.2-0.4,0.2-0.8,0-1.2
					C38.1,151,38.1,150.9,38.1,150.9z"/>
				<path class="st2" d="M37.9,136.8C37.9,136.8,37.9,136.8,37.9,136.8c-0.7,0.3-1.7,1.2-1.4,2c0.2,0.8,1.1,0,1.3-0.4
					c0.3-0.4,0.4-1,0.2-1.5C37.9,136.9,37.9,136.9,37.9,136.8z"/>
				<path class="st2" d="M54.3,155.9c-1.9,1-4.5,0.9-6-0.5c0.8,1.6,2.1,2.8,4.3,2.6c2.4-0.1,3.6-1.7,3.7-4c0-0.2,0-0.4,0-0.6
					C55.9,154.4,55.3,155.3,54.3,155.9z"/>
				<path class="st7" d="M21.9,171.9c-0.3,2.6-0.5,5.2-0.8,7.8c-0.2,2.3-0.3,4.6-0.5,7c1,0.7,2.1,1.3,3.4,1.4
					c1.4,0.1,2.5-0.3,3.6-0.9c0,0,0,0,0,0c0.2-1.9,0.4-3.7,0.6-5.6c0.3-2.3,0.6-4.6,0.9-6.9c-0.5-0.1-0.9-0.3-1.3-0.4
					C25.8,173.6,23.8,172.8,21.9,171.9z"/>
				<path class="st8" d="M51.2,182.7c-0.3-1.9-0.5-4.4,0.7-6.1c1-1.4,2.3-2.3,3.8-3.1c0-0.2,0-0.4,0-0.5c-2.3,0.8-4.7,1.5-7.2,2.1
					c0.5,2.1,0.8,4.3,1.1,6.5c0.3,1.9,0.6,3.9,0.8,5.8c1.3,0.2,2.6,0.1,3.9-0.3c0.2-0.1,0.5-0.2,0.7-0.2
					C53.1,186.6,51.6,185.3,51.2,182.7z"/>
				<path class="st8" d="M27.8,174.3c-2-0.7-4-1.5-6-2.4c0,0.1,0,0.3,0,0.4c1.6,1.4,3.1,2.7,4,4.6c1,2,0.9,4.5,0.7,6.6
					c-0.2,2-1.6,3.8-3.3,4.4c0.3,0.1,0.5,0.1,0.8,0.2c1.4,0.1,2.5-0.3,3.6-0.9c0,0,0,0,0,0c0.2-1.9,0.4-3.7,0.6-5.6
					c0.3-2.3,0.6-4.6,0.9-6.9C28.7,174.6,28.3,174.5,27.8,174.3z"/>
				<path class="st3" d="M60,61.7c-0.1,0.2-0.3,0.1-0.3-0.1c0-0.3,0.1-0.5,0.2-0.8c0,0,0,0,0-0.1c-0.1-0.2-0.1-0.4-0.2-0.5
					c-1,0.7-2,1.5-2.9,2.4c-1.4,1.4-2.7,2.8-3.5,4.6c0,0,0,0.1-0.1,0.1c0.1,1.2,0.2,2.4,0.2,3.6c0,0.4,0,0.8,0,1.2
					c2.1-0.4,4.2-1.4,5.8-2.8c0.1-0.3,0.2-0.6,0.2-0.8l0.2-0.7c0.1-0.4,0.3-0.8,0.4-1.3c0-0.1,0.2-0.1,0.2,0c0,0.6-0.1,1.1-0.2,1.7
					c0.6,0.3,1.5,0,2.1-0.4c0.6-0.5,1.1-1.1,1.5-1.7c0.9-1.2,1.6-2.4,1.9-3.8c0.3-1.5-0.1-5.2-2.7-4C61.6,58.8,60.6,60.3,60,61.7z
					 M63.9,62.6c-0.1,0.1-0.2,0-0.2-0.1c-0.2-0.4,0-1.2-0.5-1.4c-0.5-0.3-0.8,0.4-1,0.8c-0.4,0.9-0.7,1.8-0.9,2.7
					c0,0.1-0.2,0.1-0.2,0c0-0.9,0.3-1.9,0.6-2.7c0.2-0.5,0.4-1.2,1-1.4C63.9,59.9,64.6,61.7,63.9,62.6z"/>
				<path class="st8" d="M45.9,88.3c-1.3,1.7-4.4,1.9-5.7,0.2c0,1.3,0,2.6,0.2,3.8c0.2,2,0.6,4,1.3,5.9c0.2,0.6,0.5,1.1,0.8,1.7
					c0.2-0.4,0.4-0.8,0.6-1.2c0.9-1.8,1.6-3.7,2.2-5.6C45.6,91.5,45.8,89.9,45.9,88.3z"/>
			</g>
			<g>
				<path class="st10" d="M24.7,58.6c-1.2-0.8-1.8,1.8-1.6,2.5c0,0.2,0.2,0.2,0.3,0c0.2-0.3,0.3-0.7,0.4-1c0-0.2,0.1-0.7,0.3-0.8
					c0.4-0.3,0.4,0.5,0.4,0.7c0.1,1.1,0,2.2,0.1,3.3c0,0.1,0.1,0.1,0.2,0c0.3-1,0.3-2.1,0.2-3.2C25,59.7,25.1,59,24.7,58.6"/>
				<path class="st10" d="M62.6,60.4c-0.5,0.2-0.8,0.9-1,1.4c-0.3,0.9-0.6,1.8-0.6,2.7c0,0.1,0.2,0.2,0.2,0c0.3-0.9,0.5-1.8,0.9-2.7
					c0.2-0.4,0.5-1,1-0.8c0.5,0.2,0.4,1,0.5,1.4c0,0.1,0.1,0.1,0.2,0.1C64.6,61.7,63.9,59.9,62.6,60.4"/>
				<path class="st10" d="M49.1,67.8c-5.5,0.8-11.3,2-16.8,0.5c-0.1,0-0.2,0.2-0.1,0.2c2.5,1.1,5.5,1,8.1,0.8c3-0.1,6-0.5,8.9-1.4
					C49.3,68,49.2,67.8,49.1,67.8"/>
				<path class="st10" d="M52.2,70.2c-3.3,0.7-6.5,1.2-9.9,1.4c-3.4,0.2-6.8,0.5-10.2-0.2c-0.1,0-0.2,0.2-0.1,0.2
					c3.4,1,7,0.7,10.4,0.5c3.2-0.2,6.8-0.4,9.8-1.7C52.4,70.3,52.3,70.2,52.2,70.2"/>
				<path class="st10" d="M52,73c-3.5,0.8-6.9,1.7-10.5,1.9c-3.3,0.2-7.4,0.5-10.5-0.9C31,74,30.8,74.2,31,74.3
					c1.4,0.8,2.9,1,4.4,1.1c1.9,0.2,3.8,0.2,5.8,0c3.7-0.2,7.5-0.8,11-2.1C52.3,73.2,52.2,73,52,73"/>
				<path class="st10" d="M32.5,50c0,0.2,0.2,0.2,0.3,0.1c0.6-0.6,1.3-1.2,2.2-1.2c1.3-0.1,1.8,0.8,2.2,1.8c0.1,0.1,0.3,0.1,0.3,0
					C38.1,47.7,32.8,47.2,32.5,50"/>
				<path class="st10" d="M52.7,49.1c-1,0.1-2.6,1.1-2.7,2.2c0,0.2,0.2,0.2,0.4,0.1c0.6-0.5,1.1-1,1.8-1.3c0.6-0.3,1.1-0.2,1.4,0.4
					c0.2,0.4,0.2,0.8,0.4,1.1c0.1,0.2,0.4,0.2,0.4-0.1C54.7,50.4,53.8,49,52.7,49.1"/>
				<path class="st10" d="M35.3,55.5c-0.1,0-0.2,0-0.3,0c-0.6-0.2-1.3,1.5-1.4,1.8c-0.2,0.6-0.6,2.7,0.6,2.4c1-0.2,1.3-2.2,1.4-3
					C35.6,56.4,35.7,55.7,35.3,55.5 M34.9,57.6c0,0.2-0.1,0.3-0.2,0.5c-0.2-0.1-0.3-0.2-0.3-0.5c-0.1-0.3-0.1-0.6-0.1-0.9
					c0.1-0.2,0.2-0.5,0.3-0.7C35.4,55.8,35,57.3,34.9,57.6"/>
				<path class="st10" d="M51.5,55.5c-0.1,0-0.2,0-0.3,0c-0.6-0.2-1.3,1.5-1.4,1.8c-0.2,0.6-0.6,2.7,0.6,2.4c1-0.2,1.3-2.2,1.4-3
					C51.8,56.4,51.8,55.7,51.5,55.5 M51.1,57.6c0,0.2-0.1,0.3-0.2,0.5c-0.2-0.1-0.3-0.2-0.3-0.5c-0.1-0.3-0.1-0.6-0.1-0.9
					c0.1-0.2,0.2-0.5,0.3-0.7C51.6,55.8,51.2,57.3,51.1,57.6"/>
				<path class="st10" d="M65.7,189.4c-1.5-0.7-3.3-1.1-4.9-1.5c-1.3-0.4-2.8-1-4.2-1c0.1,0,0.1-0.1,0.2-0.1l0.7-0.5l-0.1-0.8
					c-0.2-1.8-0.5-3.6-0.6-5.5c-0.2-2.4-0.5-4.8-0.7-7.2c1.7-0.6,3.4-1.2,5.2-1.9c0,0.5,0,0.9,0.1,1.4l0.6-1.7l0-0.8
					c-0.2-3.1-0.3-6.2-0.5-9.3c-0.5-8.8-1.2-17.6-2.2-26.4c-0.4-3.5-0.8-7.1-1.7-10.6c0.5-0.3,1-0.8,1.4-1.5
					c1.2-1.9,1.5-4.3,1.7-6.5c0.2-2.4,0.1-4.9-0.1-7.3c-0.5-5-1.4-10.1-3-14.8c-1.2-3.5-3.8-7.4-7.6-8c-0.1-0.1-0.1-0.2-0.2-0.3
					c-0.7-1.3-1.8-2.9-3.2-3.4c0-0.2,0-0.5,0-0.8c1.2-0.2,2.4-0.7,3.5-1.1c1.8-0.7,3.6-1.6,5.1-2.8c2.5-2,4.4-5.2,5.1-8.4
					c0.9,0.3,2.2-0.2,2.9-0.8c1.7-1.6,3.2-3.9,3.4-6.2c0.2-1.5-0.3-4.9-2.5-4.7c-0.1,0-0.2,0-0.3,0c0.2-1.2,0.3-2.5,0.5-3.8
					c0.1-0.5,0.1-1,0.2-1.5c0.2,0.1,0.5,0.2,0.7,0.2c1,0.1,1.2-0.5,1-1.3c-0.3-2.1-1.3-4.1-2.6-5.8c0.4,0,0.7,0.1,1.1,0.1
					c1.6,0.1,1.8-1.1,1.7-2.5c-0.5-4.2-3.8-7.3-7.1-9.4c-3.5-2.3-7.6-3.8-11.8-4.4c-4-0.6-8.6-0.5-12.5,0.9
					c-1.9,0.7-3.7,1.9-4.7,3.7c-1,1.7-1,3.5-0.6,5.3c-2.2,1-3.4,3.8-4.1,6.1c-0.5,1.6-0.8,3.3-1,5c-0.2,1.8-0.4,3.7-0.3,5.5
					c-1.3-0.2-2.1,2.6-2.4,3.5c-0.5,1.9-0.5,4,0.2,5.8c0.4,1,1.4,2.1,2.5,1.8c-0.2,4.1,0.5,8.7,3,11.9c1.4,1.8,4,2.2,6.2,2.6
					c2,0.4,4.2,0.7,6.2,0.5c0,0.3-0.1,0.7-0.1,1c-0.7-0.2-1.2,0.4-1.6,0.9c-0.1,0.2-0.3,0.3-0.4,0.5c-4.7,0.6-7.9,4.3-10.4,8.1
					c-2.8,4.4-5.1,9.2-6.7,14.2c-1.4,4.3-2.9,9.6-0.2,13.8c0.9,1.3,1.9,2.1,3.1,2.6c-0.4,3.1-0.7,6.2-1,9.3
					c-0.4,4.3-0.8,8.6-1.1,12.8c-0.7,8.5-1.2,17-1.5,25.5c0,0.1,0,0.1,0,0.1l0,0.7l0.7,0.3c0.3,0.1,0.6,0.3,0.9,0.4
					c-0.3,2.5-0.6,5-0.9,7.5c-0.2,2.3-0.5,4.6-0.7,6.9l0,0.6l0.7,0.5c0.2,0.2,0.5,0.3,0.8,0.5c-1.3,0.1-2.6,0.7-3.7,1.1
					c-1.6,0.6-3.2,1.4-4.7,2.4c-0.9,0.6-2.4,1.4-2.5,2.6c-0.1,0.7,0.5,1.5,1.2,1.3c1.4,0.3,2.8,0.3,4.1,0.3c1.6,0,3.2,0,4.8-0.2
					c1.7-0.1,3.4-0.3,5.1-0.6l0.7-0.1l0.3-0.7c0.7-1.8,1-4,0.5-5.6c0.1-0.1,0.3-0.1,0.4-0.2l0.6-0.3l0.1-0.8
					c0.2-1.6,0.4-3.2,0.5-4.9c0.3-2.4,0.7-4.8,1-7.1c2.5,0.7,5,1.2,7.6,1.4l0.5,0l0.1-0.7c0.1-0.6,0.2-1.2,0.2-1.8
					c0.4-3.1,0.9-6.2,1.3-9.3c0.3,3.3,0.8,6.5,1.3,9.8c0.1,0.4,0.1,0.9,0.2,1.3l0.1,0.8l0.7-0.1c0,0,0,0,0,0c2.1-0.2,4.2-0.5,6.2-1
					c0.4,2.2,0.7,4.5,1,6.7c0.2,1.8,0.4,3.6,0.7,5.4l0.1,0.5l0.7,0.1c-0.1,1.5,0.2,3.1,0.4,4.7c0,0.1,0,0.1,0,0.2l0.1,0.4l0.7,0.1
					c2,0.4,4.1,0.3,6.1,0.3c1.3,0.1,2.7,0.1,4.1,0.1c1.3,0.1,2.7,0.3,3.9,0c0,0,0.1,0,0.1-0.1c0.8-0.2,1.5-0.9,1.6-1.8
					C67.5,190.9,66.7,189.9,65.7,189.4 M46.5,87.2c0-1.6,0-3.2-0.1-4.8c0.5,0.4,1,0.8,1.5,1.3c0.5,0.6,0.9,1.2,1.2,1.8l0.3,0.6
					c0.7,1.3,1.2,2.8,1.8,4.1c-0.4,0.6-1,1.1-1.6,1.6c-0.7,0.6-1.5,1-2.3,1.5L47,93.5l0.4,0.3c0.5,0.5,1,1,1.6,1.4
					c0.3,0.3,0.6,0.6,0.9,0.9c-0.9,0.9-1.8,1.7-2.9,2.3c-1.2,0.7-2.6,1.1-3.9,1.5c0.2-0.3,0.3-0.6,0.4-0.9c0.9-1.8,1.7-3.8,2.2-5.7
					C46.3,91.3,46.5,89.4,46.5,87.2 M42.4,99.9c-0.3-0.6-0.6-1.1-0.8-1.7c-0.8-1.9-1.1-3.9-1.3-5.9c-0.1-1.3-0.2-2.6-0.2-3.8
					c1.3,1.7,4.4,1.5,5.7-0.2c-0.1,1.6-0.2,3.2-0.7,4.8c-0.6,1.9-1.3,3.8-2.2,5.6C42.8,99.1,42.6,99.5,42.4,99.9 M65.7,62.1
					c-0.3,1.4-1,2.7-1.9,3.9c-0.5,0.6-0.9,1.3-1.5,1.7c-0.6,0.5-1.5,0.8-2.1,0.4c0.1-0.6,0.2-1.2,0.2-1.7c0-0.1-0.2-0.2-0.2,0
					c-0.2,0.4-0.3,0.8-0.4,1.3l-0.2,0.7c-0.1,0.3-0.2,0.6-0.2,0.8c-1.6,1.5-3.6,2.5-5.8,2.8c0-0.4,0-0.8,0-1.2
					c0-1.2-0.1-2.4-0.2-3.6c0,0,0,0,0.1-0.1c0.8-1.8,2-3.2,3.5-4.6c0.9-0.9,1.9-1.7,2.9-2.4c0.1,0.2,0.1,0.4,0.2,0.5c0,0,0,0,0,0.1
					c-0.1,0.3-0.2,0.5-0.2,0.8c0,0.2,0.2,0.3,0.3,0.1c0.5-1.4,1.5-3,3-3.6C65.6,56.9,66,60.6,65.7,62.1 M52.6,64.3
					c-3.6,1.2-7.2,1.8-11,1.9c-1.1,0-2.2,0.1-3.4,0.1c0.1-0.6,0-1.2,0.2-1.8c0.2-0.9,0.5-1.7,0.8-2.5c0.6-1.3,1.6-2.4,2.5-3.5
					c0.1-0.1-0.1-0.2-0.2-0.2c-1.3,1-2.3,2.3-2.9,3.8c-0.6,1.2-1.1,2.9-0.8,4.3c-2.5,0-5.1-0.2-7.4-1.1l-0.4-0.1L30,65.5
					c-0.1,0.2-0.1,0.4-0.2,0.5c-0.4-1.4-1.1-2.8-1.6-4.1c-0.6-1.4-1.1-2.9-1.9-4.2c0,0,0,0,0,0c0,0,0,0,0-0.1
					c0.1-0.5,0.1-0.9,0.2-1.4c0.2,0,0.4,0.1,0.5,0.1c0.5,0.1,1,0.3,1.6,0.3c-0.1,0.4-0.1,0.8-0.2,1.1c-0.1,3,2.5,5.9,5.6,5.6
					c2.9-0.3,4.8-2.3,5.1-5.2c1.7-1.1,4.5-2.4,6-0.3c0.1,0.1,0.3,0,0.2-0.1c-0.8-2.6-4.5-1.8-6.1-0.2c0.1-2.7-1.5-5.8-4.6-5.5
					c-0.1,0-0.1,0.1,0,0.1c2.9,0.1,4.4,3,4.2,5.6c-0.2,2.8-2,4.7-4.8,5c-3,0.4-5.4-2.6-5.1-5.5c0.3-2.7,2.2-4.6,4.8-5.1
					c0.1,0,0.1-0.2,0-0.2c-2.4-0.3-4.3,1.8-5,4c-0.5-0.2-1.1-0.3-1.7-0.4c-0.1,0-0.3,0-0.4-0.1c0.4-2.5,1-5,1.9-7.4
					c0.9-2.1,1.8-4.4,3.3-6.2c1,3.2,3.9,5.5,7.4,5.6c1.5,0,3-0.4,2.8-2.2c2.4,1.8,5.4,2.9,8.4,3.2c1.6,0.2,4-0.1,4.3-2.2
					c0-0.3,0-0.5,0-0.8c1.7,0.6,3.5,0.9,5.2,0.7c-0.5,2-0.8,4.1-0.9,6.1c-0.1,1.5-0.1,3.2,0.1,4.8c-0.3,0-0.7,0-1,0.1
					c-0.8,0-1.7,0.1-2.5,0.3c0-0.7-0.1-1.4-0.3-2c-1-2.6-3.9-3.3-6.2-2.3c-0.1,0,0,0.2,0.1,0.2c2.3-0.7,4.8,0,5.7,2.4
					c0.2,0.6,0.3,1.2,0.3,1.9c0,0,0,0.1,0,0.2c-0.1,1.8-1,3.8-2.8,4.2c-2,0.5-4.9-0.6-5.6-2.7c-0.8-2.1,0.2-4.9,2.2-5.9
					c0.1-0.1,0-0.2-0.1-0.2c-2.5,0.7-3.3,4.4-2.5,6.6c0.9,2.3,4.1,3.4,6.4,2.7c1.8-0.6,2.8-2.6,2.9-4.5c0.9,0,1.8-0.1,2.7-0.2
					c0.3,0,0.6,0,0.9,0c0.1,0.6,0.2,1.1,0.4,1.7c-1.2,0.7-2.3,1.8-3.1,2.6c-1.1,1-2.7,2.5-3.2,4.1c0-0.5-0.1-1.1-0.2-1.6L53,64.2
					L52.6,64.3z M52.9,70.4c0,1.8-0.2,3.3-0.6,5c-3.1,1.4-6.4,2.4-10,2.6c-2.6,0.2-5.1-0.1-7.7-0.6c-1.9-0.3-3.8-0.6-5.4-1.7
					c-0.6-3.3,0-6.9,1-10.1c1.2,0.6,2.6,0.8,4,1c1.2,0.1,2.4,0.2,3.7,0.2c0,0.1,0.2,0.1,0.2,0c1.1,0,2.2,0,3.2,0
					c3.8-0.1,7.7-0.6,11.2-2C52.8,66.7,52.9,68.6,52.9,70.4 M24.9,50.9c0.2-1.6,0.4-3.3,0.8-4.8c0.7-2.7,1.7-5.2,3.9-6.8L30,39
					l-0.1-0.5c-0.2-1.6-0.3-3.2,0.5-4.7c0.9-1.6,2.3-2.7,3.9-3.4c3.3-1.4,7.2-1.6,10.8-1.3c3.5,0.3,7,1.2,10.2,2.7
					c3.2,1.5,6.3,3.5,8.4,6.4c0.6,0.9,1.1,1.9,1.5,2.9c0.1,0.4,0.2,0.8,0.3,1.2c0.1,0.3,0.2,0.7,0.1,1c-0.1,0.4-0.5,1-0.9,1.2
					c-0.5,0.2-1.3-0.1-1.8-0.2c0,0-0.1,0-0.2,0l-0.7-0.1c-0.2,0-0.5-0.1-0.7-0.2l1.2,0.8c0.9,1.1,1.6,2.3,2.2,3.7
					c0.1,0.4,0.3,0.8,0.4,1.2c0.1,0.3,0.4,1.2,0.3,1.5c-0.2,0.5-0.7,0.4-1.3,0L63.8,51l-0.1,0.6c-0.1,0.9-0.2,1.8-0.3,2.6
					c-0.2,1-0.4,2.1-0.3,3.1c-0.9,0.3-1.6,1-2.2,1.8c-0.3,0-0.5,0.1-0.8,0.2c-0.1-0.5-0.2-1-0.2-1.5c0.4,0,0.8-0.1,1.2-0.2
					c0.1,0,0.1-0.2,0-0.3c-0.4-0.1-0.8-0.1-1.2-0.1c-0.2-1.6-0.3-3.3-0.2-5c0.1-2,0.5-4,0.9-6l0.1-0.6L60,45.8
					c-1.1,0.2-2.2,0.2-3.3,0c-0.9-0.2-1.7-0.5-2.5-0.9l-1.4-0.8l1.1,1.3c0.3,0.6,0.3,1.3-0.2,1.9c-1.3,1.4-4,0.7-5.6,0.3
					c-2.3-0.6-4.4-1.7-6.2-3.1l-0.9-0.7l0.4,1.1c0.2,0.9,0.1,1.8-0.9,2c-0.9,0.2-1.9,0.1-2.7-0.1c-2.8-0.6-4.7-2.7-5.6-5.2l-0.2-0.5
					l-0.3,0.3c-1.7,1.7-2.6,4.1-3.5,6.2c-1,2.5-1.8,5.2-2.1,7.9c-0.2,0-0.4,0-0.7,0c-0.1,0-0.1,0.1,0,0.2c0.2,0.1,0.4,0.2,0.7,0.3
					c0,0.3,0,0.6-0.1,0.9c-0.4-0.5-0.8-1.2-1.3-1.5C24.8,53.9,24.8,52.4,24.9,50.9 M24.9,66.2l0-0.6c0-0.4,0-0.8-0.1-1.2
					c0-0.1-0.2-0.1-0.2,0c0,0.4-0.1,0.9-0.1,1.3c-1.7,0.5-2.3-2.3-2.4-3.6c-0.1-1.2,0-2.5,0.4-3.7c0.2-0.6,0.4-1.2,0.8-1.8
					c0.2-0.4,0.3-0.6,0.8-0.7c0.5-0.1,0.6,0.1,0.9,0.5c0.4,0.4,0.7,0.9,1,1.3c0,0,0,0,0,0c0,0.1,0.1,0.2,0.1,0.2
					c0.3,0.4,0.5,0.9,0.7,1.4c0.4,1,0.7,2,1.1,3c0.5,1.4,1,3,1.8,4.2c-0.3,1.2-0.6,2.4-0.7,3.6c-0.1,0.7-0.2,1.4-0.2,2.2
					c-0.6-0.9-1.3-1.7-2-2.5c-0.7-1-1.3-1.9-1.7-3.1C25,66.6,25,66.4,24.9,66.2 M34.2,80.3c-2.3-0.4-5.1-0.8-6.5-2.9
					c-1.8-2.7-2.3-5.8-2.6-9c0.2,0.5,0.5,1,0.8,1.4c0.8,1.1,1.7,2.3,2.7,3.2c0,0.8,0,1.5,0.1,2.3l0.1,0.6l0.6,0.5
					c1.2,0.8,2.7,1.1,4.1,1.4c2.7,0.5,5.5,0.9,8.3,0.8c3.5-0.1,7.1-0.9,10.3-2.5l0.7-0.4l0.2-0.7c0.2-0.8,0.3-1.7,0.3-2.6
					c1.1,0.2,2.3-0.4,3.3-0.9c0.8-0.4,1.6-0.9,2.2-1.6c-0.2,0.7-0.5,1.4-0.8,2.1c-0.8,1.7-2,3.3-3.4,4.5c-2.4,2-5.4,3.3-8.5,3.9
					l-0.4,0.1c-0.7,0.1-1.3,0.2-2,0.3c-0.1,0-0.2,0.2,0,0.3c0.7,0.1,1.3,0.1,2,0c-0.1,2.1,0,4.1,0,6.2c-0.7,0.9-1.5,1.7-2.8,1.8
					c-1.3,0.1-2.1-0.6-3-1.4c0-2.1,0.2-4.3,0.2-6.4c0.4-0.1,0.8-0.1,1.2-0.2c0.2,0,0.1-0.2,0-0.3c-0.4,0-0.8-0.1-1.2-0.1l-0.4,0
					C38,80.6,36.1,80.6,34.2,80.3 M38,84.2c0,0,0.1-0.1,0.1-0.1c0.5-0.6,1-1.2,1.6-1.3c-0.3,3.4-0.3,6.9,0.1,10.2
					c0.3,2.7,1.1,5,2.3,7.3c-3,0.7-5.5-1.6-7-4.1c0.3-0.6,0.6-1.3,1-1.9c0.4-0.6,0.8-1.1,1.3-1.7l0.3-0.5l-0.3-0.2
					c-0.3-0.2-0.6-0.4-0.9-0.6c-0.6-0.3-1.2-0.7-1.9-1c0.4-1,0.9-1.9,1.4-2.8c0.4-0.7,0.9-1.5,1.4-2.2C37.4,85,37.7,84.6,38,84.2
					 M22.2,120.9c-3.9-3.4-2.6-9.1-1.4-13.4c1.3-4.6,3.2-8.9,5.6-13c2.5-4.2,5.7-9.2,10.9-10.1c-0.4,0.5-0.8,1.1-1.2,1.6
					c-0.8,1.3-1.6,2.7-2.2,4.1l-0.2,0.5l0.5,0.3c0.6,0.3,1.1,0.6,1.7,0.9c0.3,0.2,0.7,0.4,1,0.6c-0.8,1-1.6,2-2.2,3.1L34.4,96
					l0.4,0.8c1.5,2.7,4.7,5,7.6,4l0,0.1c-0.1,0.9,0,1.9,0,2.8c0,1.1-0.1,2.2,0,3.2c0,0.1,0.2,0.1,0.2,0c0.4-1,0.4-2.2,0.4-3.2
					c0-1,0-2-0.2-2.9l0,0c2.7-0.5,5.8-1.8,7.5-4.1l0.3-0.5l-0.3-0.3c-0.3-0.3-0.6-0.6-0.9-0.8c-0.5-0.4-1-0.9-1.5-1.3
					c1-0.5,1.9-1.2,2.6-1.9c0.4-0.3,0.7-0.7,1-1.1l0.3-0.5l-0.2-0.6c-0.4-1.2-0.9-2.3-1.4-3.4c3.2,1,5.4,4.1,6.5,7.3
					c1.5,4.1,2.3,8.5,2.8,12.8c0.5,4.3,0.8,8.7-0.2,12.9c-0.4,1.5-1,2.8-2,3.7l-0.5,0.3c-0.4,0.2-0.9,0.4-1.4,0.5
					c-2.1,0.4-4.2-0.4-6.2-1.2c-2.3-0.9-4.7-1.9-7-2.9c-0.8-0.4-1.6-0.8-2.3-1.2c0,0,0,0,0.1-0.1c2-1.3,3.7-2.7,5.7-4
					c0.7,0.1,1.5,0.1,2.2,0.2l0.6,0c0.9,0.1,1.8,0.1,2.7,0.2c0.9,0.1,1.8,0.2,2.8,0.3l0.7,0.1l0-0.6c0.1-2,0.1-3.9,0.1-5.8
					c0-4.6,0-9.2-0.4-13.7c0-0.2-0.3-0.2-0.3,0c0,4.5,0.1,9,0.1,13.5c0,2-0.1,4-0.2,6c-0.8-0.1-1.6-0.1-2.3-0.2
					c-0.3,0-0.6-0.1-0.9-0.1c0-1.6,0-3.4-1.1-4.7c-1.2-1.5-2.8-1.3-4.5-1.6c0,0,0,0,0,0c-0.2-0.3-0.5-0.6-0.7-0.9l-0.4-0.5l-0.5,0.1
					c-1.3,0.3-2.5,0.6-3.8,1l0,0c0,0-0.1,0-0.1,0c-1.5,0.4-3,0.9-4.5,1.4c-0.2,0.1-0.4,0.1-0.7,0.2c0.2-0.5,0.3-1.1,0.4-1.6
					c0.2-0.9,0-1.8-0.4-2.7c-1-1.9-3.4-3-5.3-3.7c0.5-2.7,1.2-5.3,2-8c0-0.1-0.1-0.2-0.2-0.1c-1.1,2.5-1.8,5.1-2.3,7.8
					c-1.1-0.4-3.9-1.7-3.4,0.6c0.2,0.9,1,1.5,1.8,1.9c0,0,0,0,0,0c-0.3,0.2-0.6,0.5-0.9,0.8c-0.3,0.4-0.7,0.9-0.9,1.4
					c-0.2,0.1-0.3,0.2-0.5,0.3c-0.5,0.4-1.1,1.1-1.1,1.8c0,0.1,0,0.3,0.1,0.4c-0.5,0.6-0.7,1.4-0.8,2.1c0,0.3-0.1,0.6,0.1,0.8
					c0.2,0.2,0.5,0.3,0.8,0.2c0.3,0.7,1.4,0.9,2.5,0.9c-1.4,0.6-2.7,1.2-4,1.8c-0.1,0.1,0,0.3,0.1,0.3c3.7-1.3,7.3-2.9,11.1-4.2
					l0.6-0.2c0.4-0.1,0.8-0.3,1.2-0.4c1.5-0.5,3-0.9,4.4-1.3c0.9,1,1.6,2.4,2,3.6c0.5,1.3,0.5,2.6,0.7,3.9c-0.4,0.3-0.7,0.6-1.1,0.8
					c-0.7,0.5-1.4,1-2.2,1.5l-0.6,0.4c-1,0.6-2,1.1-3.1,1.6c-3.2,1.4-7.8,3.2-11.4,2l-0.5-0.2C23.1,121.7,22.6,121.3,22.2,120.9
					 M42,111.1c-0.3-0.8-0.9-2.2-1.8-2.9c1.1-0.3,2.3-0.6,3.4-0.9c0.8,1.1,1.6,2.2,2.3,3.4c0.6,1.1,1.1,2.2,1.5,3.3
					c-0.4,0-0.7-0.1-1.1-0.1c0.1-0.1,0.2-0.1,0.3-0.2c0.2-0.1,0-0.3-0.1-0.3c-0.3,0.1-0.7,0.2-1,0.4l-1,0.5
					c-0.6,0.3-1.1,0.7-1.7,1.2C43,114.1,42.6,112.5,42,111.1 M45.3,108.6c0.2,0.1,0.4,0.1,0.7,0.2c1,0.1,1.8,0.2,2.6,0.9
					c1.3,1.2,1.4,3,1.4,4.7c-0.6-0.1-1.2-0.1-1.8-0.2C47.5,112.2,46.5,110.3,45.3,108.6 M24.4,110.7c0.1-0.5,0.8-1,1.2-1.3
					c1.5-0.9,3.3-0.9,4.9-1.7c0.1-0.1,0-0.2-0.1-0.2c-1.3,0-2.8,0.4-4.1,0.9c-0.4,0.2-0.8,0.3-1.1,0.6c-0.4-0.2-1.1-0.6-1.1-1.2
					c0-0.4,0.7-1,1-1.1c0.1,0,0.1-0.1,0.2-0.1h0c0.6-0.3,1.3-0.4,2-0.5c1.6-0.3,3.2-0.3,4.8-0.8c0.1-0.1,0.1-0.2,0-0.3
					c-0.6-0.1-1.1,0-1.7,0c-1.1-0.8-2.5-1.1-3.7-1.9c-0.4-0.3-1.7-1.6-0.7-2c0.2-0.1,0.9,0.3,1.1,0.3c1,0.3,2,0.7,3,1.2
					c1.7,0.8,3.7,1.8,4.2,3.8c0.3,1.1-0.1,2.2-0.5,3.3c-2,0.6-4,1.3-5.9,2.1c-0.7-0.1-1.4-0.1-2.1-0.1
					C25,111.6,24.2,111.6,24.4,110.7 M23.9,110.4c-0.1,0.2-0.2,0.4-0.2,0.6c-0.2-0.1-0.3-0.1-0.4-0.4c0-0.2,0.1-0.7,0.2-0.9
					c0.1-0.3,0.2-0.7,0.4-1c0.2,0.2,0.6,0.4,0.9,0.5C24.4,109.6,24.1,109.9,23.9,110.4 M25.9,105.6c0.1-0.1,0.1-0.2,0.2-0.3
					c0.3-0.4,0.8-1.1,1.3-1.2c0,0,0.1,0,0.1,0c0.6,0.3,1.3,0.6,1.9,0.9c-0.5,0.1-1.1,0.2-1.6,0.2C27.2,105.4,26.5,105.4,25.9,105.6
					 M26.5,192.1c-0.1,0.7-0.4,1.3-0.6,1.9c-1.9,0.3-3.7,0.6-5.6,0.8c-1.5,0.1-3.1,0.2-4.6,0.2c-1.4,0-2.8-0.2-4.2-0.1
					c-0.6-0.2-0.7-0.5-0.6-0.9c2.2,0.4,4.6,0.2,6.8,0c2.2-0.2,4.8-0.2,6.9-0.9c0.1,0,0.1-0.2,0-0.2c-2.2-0.1-4.6,0.4-6.9,0.6
					c-2.2,0.2-4.4,0.1-6.7,0.2c0.4-0.7,1.6-1.5,2-1.8c1-0.6,2-1.1,3-1.6c1-0.5,2.1-0.9,3.2-1.3c0.6-0.2,1.2-0.3,1.8-0.5
					c0,0,0,0,0,0.1c0.7,0.6,1.9,1.2,2.8,1.5c0.8,0.3,1.9,0.4,2.7,0.2C26.6,190.8,26.6,191.4,26.5,192.1 M26.6,189.7
					c-1.1-0.1-2.1-0.1-3.2-0.5c-0.7-0.3-1.3-0.7-2-0.8c0.2-0.1,0.4-0.1,0.5-0.2c0.6,0.3,1.3,0.5,2,0.6c0.9,0.1,1.8,0,2.7-0.3
					C26.6,188.8,26.6,189.2,26.6,189.7 M28.2,181.6c-0.2,1.9-0.5,3.7-0.6,5.6c0,0,0,0,0,0c-1.1,0.6-2.2,1-3.6,0.9
					c-1.3-0.1-2.4-0.7-3.4-1.4c0.2-2.3,0.3-4.7,0.5-7c0.2-2.6,0.5-5.2,0.8-7.8c2,0.9,3.9,1.7,6,2.4c0.4,0.1,0.9,0.3,1.3,0.4
					C28.8,177,28.5,179.3,28.2,181.6 M47.9,174.5c-1.2,0.3-2.3,0.5-3.5,0.7c-0.9,0.1-1.8,0.2-2.7,0.3c0-0.3-0.1-0.5-0.1-0.8
					c-0.7-4.2-1.2-8.5-1.7-12.7c0-0.4-0.6-0.4-0.6,0c-0.4,3.1-0.8,6.2-1.3,9.4c-0.2,1.4-0.4,2.8-0.6,4.2c-2.5-0.1-5.1-0.6-7.6-1.3
					l-0.6-0.2c-2.5-0.8-5-1.8-7.3-2.9l-0.4-0.2c-0.3-0.1-0.6-0.3-1-0.4c0.1-3.8,0.3-7.6,0.5-11.4c0.5-8.5,1.1-17,1.9-25.5
					c0.3-3.7,0.8-7.4,1.1-11.1c2.5,0.7,5.4,0.2,8-0.7c2.4-0.8,4.8-1.8,7-3.1c0.6,0.4,1.3,0.7,2,1.1c2.2,1,4.4,1.9,6.6,2.8
					c2.6,1,6.4,2.6,9.1,1.2c0.7,3,1.1,6.1,1.4,9.2c0.5,4.3,0.9,8.7,1.3,13.1c0.7,8,1.1,16,1.5,24c-1.1,0.4-2.3,0.9-3.4,1.3
					c-0.6,0.2-1.2,0.4-1.8,0.6l-0.4,0.1c-2.4,0.8-4.8,1.6-7.3,2.1L47.9,174.5z M50.4,187.5c-0.2-1.9-0.6-3.9-0.8-5.8
					c-0.3-2.2-0.6-4.4-1.1-6.5c2.4-0.6,4.8-1.3,7.2-2.1c0.2,2.4,0.3,4.8,0.5,7.2c0.2,1.9,0.3,3.8,0.5,5.8c-0.7,0.5-1.5,0.9-2.4,1.2
					C53,187.6,51.7,187.7,50.4,187.5 M50.7,188c1.8,0.2,3.6-0.1,5.2-0.8c0.2,0,0.3,0.1,0.5,0.1c-0.8,0.3-1.6,0.9-2.4,1.3
					c-0.2,0.1-2.2,0.9-2.9,1.1C51,189.1,50.9,188.5,50.7,188 M65.2,193.5c-1.1-0.2-2.2-0.1-3.3-0.1c-1.3-0.1-2.7-0.1-4.1-0.1
					c-2.1-0.1-4.3-0.2-6.4-0.3c0-0.1,0-0.2-0.1-0.4c-0.1-0.8-0.2-1.6-0.3-2.4c1.9-0.1,4.5-1.1,5.5-2.6c0,0,0-0.1,0-0.1
					c1.9,0.5,3.8,1,5.8,1.6c1,0.3,2.1,0.5,3.1,1c1,0.5,1.3,1.5,1.1,2.2c-2.3-0.1-4.6,0-6.9-0.1c-2.4-0.1-4.7-0.3-7.1-0.3
					c-0.1,0-0.1,0.2,0,0.2c2.3,0.4,4.6,0.5,6.9,0.6c2.3,0.1,4.6,0.2,6.9,0.1C66.1,193.1,65.7,193.4,65.2,193.5"/>
				<path class="st10" d="M41.8,120.8c0-0.1-0.2-0.2-0.2,0c-0.8,3-0.8,6.3-0.8,9.4c0,3.2,0.2,6.5,0.2,9.7c0,3.2-0.2,6.4-0.5,9.6
					c-0.3,3.3-0.9,6.5-1,9.8c0,0.1,0.2,0.2,0.3,0c0.7-3.1,0.8-6.3,1.2-9.4c0.3-3.2,0.6-6.4,0.7-9.6c0-3.2-0.1-6.5-0.2-9.7
					C41.3,127.3,41.5,124.1,41.8,120.8"/>
				<path class="st10" d="M56.6,146.2c-1.7-0.4-3.5-0.5-5.3-0.6s-3.6-0.2-5.3,0.2c-0.2,0-0.1,0.2,0,0.2c1.7,0.2,3.5,0.1,5.2,0.2
					c1.7,0.1,3.5,0.4,5.2,0.5C56.9,146.7,56.9,146.3,56.6,146.2"/>
				<path class="st10" d="M56.8,151.9c0-1.6,0-3.2-0.2-4.8c0-0.2-0.3-0.2-0.3,0c-0.2,2.3,0,4.6,0,6.8c0,2.3-1.3,3.9-3.7,4
					c-5.5,0.3-5.3-7-5.6-10.8c0-0.2-0.4-0.3-0.4,0c0,4.2,0.1,11.8,6,11.5c1.8-0.1,3.6-1.1,4.1-2.9C57,154.5,56.9,153.1,56.8,151.9"
					/>
				<path class="st10" d="M32.5,144.9c-1.5-0.2-3.2,0.3-4.7,0.5c-0.8,0.1-1.6,0.3-2.5,0.5c-0.7,0.1-1.7,0.2-2.3,0.6
					c-0.1,0.1-0.1,0.1-0.1,0.2l0,0.1c0,0.1,0.1,0.1,0.2,0.1c0,0,0,0,0.1,0c0.1,0,0.1-0.1,0.1-0.2c0.1,0.2,4.2-0.7,4.6-0.7
					c1.5-0.2,3.2-0.2,4.6-0.8C32.7,145.2,32.7,144.9,32.5,144.9"/>
				<path class="st10" d="M32.6,145.9c0-0.3-0.4-0.2-0.4,0c-0.3,2.2-0.5,4.4-1,6.5c-0.4,1.9-1,4.6-3,5.4c-1.2,0.5-2.4-0.1-3.4-0.6
					c-0.5-0.3-1.2-0.6-1.5-1.1c-0.3-0.5-0.2-1.1-0.3-1.6c-0.1-2.1,0.2-4.2,0.3-6.4c0-0.2-0.3-0.2-0.3,0c-0.4,1.3-0.4,2.8-0.4,4.1
					c0,1.2-0.1,2.5,0.1,3.7c0.2,0.9,1,1.4,1.8,1.8c1,0.6,2.1,1.1,3.2,1c2.1-0.3,3.1-2.3,3.6-4.1C32.2,151.8,32.7,148.8,32.6,145.9"
					/>
				<path class="st10" d="M38.6,123.4c-0.1-0.2-0.3,0-0.3,0.2c0.1,0.4,0.2,0.8,0,1.2c-0.1,0.4-0.4,0.8-0.8,0.7
					c-0.5-0.1-0.5-0.7-0.4-1.1c0.1-0.4,0.3-0.7,0.8-0.7c0.1,0,0.2-0.1,0.1-0.2c-0.4-0.5-1.1-0.1-1.3,0.3c-0.3,0.6-0.4,1.6,0.2,2
					c0.6,0.4,1.4,0.1,1.7-0.4C39.1,124.9,39.2,124,38.6,123.4"/>
				<path class="st10" d="M38.3,136.7c-0.2-0.2-0.5,0.1-0.4,0.3c0.2,0.5,0.1,1.1-0.2,1.5c-0.2,0.4-1,1.2-1.3,0.4
					c-0.2-0.9,0.8-1.7,1.4-2.1c0.1-0.1,0-0.3-0.1-0.2c-0.8,0.1-1.4,0.7-1.7,1.4c-0.3,0.6-0.2,1.5,0.5,1.8c0.7,0.3,1.4-0.3,1.8-0.8
					C38.7,138.2,38.8,137.4,38.3,136.7"/>
				<path class="st10" d="M38.4,150.8c-0.1-0.1-0.4,0.1-0.3,0.2c0.2,0.4,0.1,0.8,0,1.2c-0.1,0.3-0.2,0.6-0.5,0.8
					c-0.2,0.2-0.6,0.4-0.7,0c-0.1-0.4,0.2-0.9,0.3-1.2c0.2-0.4,0.5-0.6,0.7-0.9c0.1-0.1,0-0.2-0.1-0.2c-0.7,0.1-1.2,1-1.4,1.6
					c-0.2,0.5-0.3,1.6,0.5,1.7c0.8,0.1,1.4-0.6,1.7-1.2C38.8,152.2,39.2,151.1,38.4,150.8"/>
			</g>
		</g>
	</g>
</g>
<g>
	<g>
		<g>
			<path d="M90.8,2.2C88.1,0.8,85,0,82,0c-10.5,0-19,8.5-19,19c0,5,1.9,9.7,5.4,13.3l-0.8,5.7c-0.1,0.4,0.2,0.8,0.6,0.9
				c0.2,0,0.4,0,0.5-0.1l4.3-2.9c9.3,4.9,20.8,1.4,25.7-7.9S100.1,7.1,90.8,2.2z"/>
		</g>
	</g>
	<g class="st11">
		<path class="st1" d="M76.8,26.3c0,1.2-0.7,1.8-2,1.8c-0.2,0-0.7-0.2-1.4-0.5c-0.1-0.3-0.2-0.5-0.2-0.8c0-0.5,0.1-0.9,0.4-1
			c0.2-0.1,0.6-0.2,1.1-0.2C76.1,25.5,76.8,25.7,76.8,26.3z M77.6,11.1c-0.1,0.1-0.2,0.4-0.4,0.7c-0.7,2.5-1.1,5.1-1.3,8.1
			c0,0.1,0,0.3-0.1,0.5c0,0.3-0.1,0.5-0.1,0.6c0,0.2,0.1,0.9,0.4,1.9c-0.1,0.1-0.2,0.2-0.4,0.3c-0.1,0-0.2,0-0.4,0
			c-0.2,0-0.4,0-0.6-0.1c-0.2-0.3-0.3-1-0.3-1.8v-0.3l0.7-8.9c0-0.1-0.1-0.3-0.2-0.6c-0.1-0.3-0.2-0.5-0.2-0.6
			c0.4-0.3,0.8-0.5,1.3-0.5C76.8,10.5,77.2,10.7,77.6,11.1z"/>
		<path class="st1" d="M82.1,26.3c0,1.2-0.7,1.8-2,1.8c-0.2,0-0.7-0.2-1.4-0.5c-0.1-0.3-0.2-0.5-0.2-0.8c0-0.5,0.1-0.9,0.4-1
			c0.2-0.1,0.6-0.2,1.1-0.2C81.5,25.5,82.1,25.7,82.1,26.3z M82.9,11.1c-0.1,0.1-0.2,0.4-0.4,0.7c-0.7,2.5-1.1,5.1-1.3,8.1
			c0,0.1,0,0.3-0.1,0.5c0,0.3-0.1,0.5-0.1,0.6c0,0.2,0.1,0.9,0.4,1.9c-0.1,0.1-0.2,0.2-0.4,0.3c-0.1,0-0.2,0-0.4,0
			c-0.2,0-0.4,0-0.6-0.1c-0.2-0.3-0.3-1-0.3-1.8v-0.3l0.7-8.9c0-0.1-0.1-0.3-0.2-0.6c-0.1-0.3-0.2-0.5-0.2-0.6
			c0.4-0.3,0.8-0.5,1.3-0.5C82.1,10.5,82.5,10.7,82.9,11.1z"/>
		<path class="st1" d="M87.5,26.3c0,1.2-0.7,1.8-2,1.8c-0.2,0-0.7-0.2-1.4-0.5C84,27.3,84,27,84,26.7c0-0.5,0.1-0.9,0.4-1
			c0.2-0.1,0.6-0.2,1.1-0.2C86.8,25.5,87.5,25.7,87.5,26.3z M88.3,11.1c-0.1,0.1-0.2,0.4-0.4,0.7c-0.7,2.5-1.1,5.1-1.3,8.1
			c0,0.1,0,0.3-0.1,0.5c0,0.3-0.1,0.5-0.1,0.6c0,0.2,0.1,0.9,0.4,1.9c-0.1,0.1-0.2,0.2-0.4,0.3c-0.1,0-0.2,0-0.4,0
			c-0.2,0-0.4,0-0.6-0.1c-0.2-0.3-0.3-1-0.3-1.8v-0.3l0.7-8.9c0-0.1-0.1-0.3-0.2-0.6c-0.1-0.3-0.2-0.5-0.2-0.6
			c0.4-0.3,0.8-0.5,1.3-0.5C87.5,10.5,87.9,10.7,88.3,11.1z"/>
	</g>
	<g>
		<g>
			<g>
				<path class="st1" d="M90.8,2.2C88.1,0.8,85,0,82,0c-10.5,0-19,8.5-19,19c0,5,1.9,9.7,5.4,13.3l-0.8,5.7
					c-0.1,0.4,0.2,0.8,0.6,0.9c0.2,0,0.4,0,0.5-0.1l4.3-2.9c9.3,4.9,20.8,1.4,25.7-7.9S100.1,7.1,90.8,2.2z M94.4,31.3
					c-3.3,3.3-7.8,5.2-12.5,5.2c-3,0-6-0.8-8.6-2.2c-0.2-0.1-0.5-0.1-0.8,0l-3.4,2.2l0.7-4.3c0-0.2-0.1-0.5-0.2-0.6
					c-6.9-6.8-7-17.9-0.2-24.8s17.9-7,24.8-0.2C101.1,13.4,101.2,24.4,94.4,31.3z"/>
			</g>
		</g>
	</g>
</g>
</svg>
