<svg xmlns="http://www.w3.org/2000/svg" viewBox="0 0 20.333 20.333">
  <defs>
    <style>
      .cls-1 {
        fill: #03a5ed;
      }
    </style>
  </defs>
  <g id="blog-symbol" transform="translate(0)">
    <path id="Path_1777" data-name="Path 1777" class="cls-1" d="M7.625,3.812a8.9,8.9,0,0,1,8.9,8.9H14.614A6.989,6.989,0,0,0,7.625,5.719ZM7.625,0A12.708,12.708,0,0,1,20.333,12.708H18.427a10.791,10.791,0,0,0-10.8-10.8Zm3.78,8.928a4.432,4.432,0,0,1,1.3,3.146,9.106,9.106,0,0,0-1.27,4.447c-5.083,0-8.9,3.812-8.9,3.812l-.278-.278L1.8,19.6l5.631-5.631a1.29,1.29,0,0,0,.19.014A1.27,1.27,0,1,0,6.368,12.9L.737,18.529,0,17.791s3.812-3.812,3.812-8.9A9.1,9.1,0,0,0,8.26,7.625,4.434,4.434,0,0,1,11.405,8.928Z"/>
  </g>
</svg>
