<svg xmlns="http://www.w3.org/2000/svg" viewBox="0 0 21.395 21.395">
  <defs>
    <style>
      .cls-1 {
        fill: #03a5ed;
      }
    </style>
  </defs>
  <g id="facebook-app-logo" transform="translate(-0.903 -0.001)">
    <path id="Path_1778" data-name="Path 1778" class="cls-1" d="M20.213,0H1.181A1.181,1.181,0,0,0,0,1.182V20.214A1.181,1.181,0,0,0,1.181,21.4H11.427V13.111H8.639V9.881h2.788V7.5A3.89,3.89,0,0,1,15.58,3.231a23.124,23.124,0,0,1,2.491.127V6.246h-1.71c-1.34,0-1.6.637-1.6,1.572V9.88h3.2l-.418,3.229h-2.78v8.286h5.452a1.182,1.182,0,0,0,1.182-1.181V1.181A1.181,1.181,0,0,0,20.213,0Z" transform="translate(0.903 0)"/>
  </g>
</svg>
