<svg xmlns="http://www.w3.org/2000/svg" viewBox="0 0 21.318 25.581">
  <g id="hourglass" transform="translate(-5 0)">
    <path id="Path_1727" data-name="Path 1727" d="M25.891,24.729H24.612V23.023H22.481V18.665a3.43,3.43,0,0,0-1.53-2.859l-4.523-3.015L20.95,9.775a3.43,3.43,0,0,0,1.53-2.859V2.558h2.132V.853h1.279a.426.426,0,0,0,0-.853H5.426a.426.426,0,1,0,0,.853H6.705V2.558H8.837V6.916a3.43,3.43,0,0,0,1.53,2.859l4.523,3.015-4.523,3.015a3.43,3.43,0,0,0-1.53,2.859v4.358H6.705v1.705H5.426a.426.426,0,1,0,0,.853H25.891a.426.426,0,0,0,0-.853ZM7.558,1.705V.853h16.2v.853H7.558ZM10.84,9.066a2.58,2.58,0,0,1-1.15-2.15V2.558H21.628V6.916a2.58,2.58,0,0,1-1.15,2.15l-4.819,3.212Zm-1.15,9.6a2.58,2.58,0,0,1,1.15-2.15L15.659,13.3l4.819,3.212a2.58,2.58,0,0,1,1.15,2.15v4.358H9.69ZM7.558,23.876h16.2v.853H7.558Z"/>
    <path id="Path_1728" data-name="Path 1728" d="M19.244,15.1a.877.877,0,0,1-.391-.731v-.947a.426.426,0,1,0-.853,0v.947a1.727,1.727,0,0,0,.771,1.44l1.977,1.318a.426.426,0,1,0,.473-.709Z" transform="translate(-7.457 -7.457)"/>
    <path id="Path_1729" data-name="Path 1729" d="M36.639,39.39l-1.977-1.318a.426.426,0,1,0-.473.709L36.166,40.1a.876.876,0,0,1,.391.731v.947a.426.426,0,0,0,.853,0V40.83A1.726,1.726,0,0,0,36.639,39.39Z" transform="translate(-16.635 -21.798)"/>
  </g>
</svg>
