<svg xmlns="http://www.w3.org/2000/svg" viewBox="0 0 21.771 21.613">
  <defs>
    <style>
      .cls-1 {
        fill: #f15a24;
      }
    </style>
  </defs>
  <g id="icon-time" transform="translate(-0.001 -1.688)">
    <g id="Layer_2_16_" transform="translate(0 1.688)">
      <g id="Group_2170" data-name="Group 2170" transform="translate(0)">
        <path id="Path_1786" data-name="Path 1786" class="cls-1" d="M253.927,423.181c-.18.045-.363.084-.544.118a.875.875,0,0,0,.319,1.721c.216-.04.434-.087.648-.141a.875.875,0,0,0-.423-1.7Z" transform="translate(-240.842 -403.431)"/>
        <path id="Path_1787" data-name="Path 1787" class="cls-1" d="M412.714,137.934a.875.875,0,0,0,1.662-.55c-.069-.209-.146-.419-.228-.623a.875.875,0,1,0-1.625.65C412.591,137.582,412.656,137.758,412.714,137.934Z" transform="translate(-393.157 -129.914)"/>
        <path id="Path_1788" data-name="Path 1788" class="cls-1" d="M321.779,394.056c-.154.1-.314.2-.474.293a.875.875,0,1,0,.875,1.516c.191-.11.381-.227.565-.349a.875.875,0,0,0-.965-1.46Z" transform="translate(-305.85 -375.555)"/>
        <path id="Path_1789" data-name="Path 1789" class="cls-1" d="M429.384,208.152a.875.875,0,1,0-1.749.069c.007.185.009.372,0,.556a.875.875,0,1,0,1.75.039C429.395,208.6,429.393,208.373,429.384,208.152Z" transform="translate(-407.621 -197.688)"/>
        <path id="Path_1790" data-name="Path 1790" class="cls-1" d="M378.538,344.244a.875.875,0,0,0-1.225.175c-.111.148-.228.294-.348.435a.876.876,0,0,0,.1,1.234c.021.018.042.034.064.049a.875.875,0,0,0,1.17-.148c.143-.168.283-.343.415-.52A.875.875,0,0,0,378.538,344.244Z" transform="translate(-359.124 -328.045)"/>
        <path id="Path_1791" data-name="Path 1791" class="cls-1" d="M415.089,279.392a.875.875,0,0,0-1.1.573c-.055.176-.117.353-.183.527a.875.875,0,0,0,1.636.623c.079-.206.151-.417.217-.626A.875.875,0,0,0,415.089,279.392Z" transform="translate(-394.388 -266.357)"/>
        <path id="Path_1792" data-name="Path 1792" class="cls-1" d="M9.267,21.564a9.037,9.037,0,0,1-2.245-.713L7,20.837c-.168-.079-.335-.164-.5-.252h0a9.337,9.337,0,0,1-.871-.544A9.133,9.133,0,0,1,5.664,5.08L5.7,5.058a9.149,9.149,0,0,1,10.253-.082l-.684.988c-.19.275-.073.475.26.445l2.97-.266a.489.489,0,0,0,.443-.64l-.8-2.874c-.089-.322-.318-.361-.508-.086l-.685.99A10.809,10.809,0,0,0,9.027,1.85q-.42.073-.829.177H8.192l-.031.009A10.792,10.792,0,0,0,2.177,6.048c-.013.015-.026.03-.037.046-.05.067-.1.135-.147.2-.079.112-.157.227-.231.342-.009.014-.016.028-.025.042A10.79,10.79,0,0,0,.012,13.046c0,.007,0,.015,0,.022.01.22.027.442.051.661,0,.014,0,.028.007.042.024.22.055.441.094.662a10.8,10.8,0,0,0,3.046,5.857l.011.012,0,0a11.028,11.028,0,0,0,1.394,1.165,10.791,10.791,0,0,0,4.34,1.816.875.875,0,0,0,.309-1.723Z" transform="translate(0 -1.688)"/>
        <path id="Path_1793" data-name="Path 1793" class="cls-1" d="M206.7,83.2a.708.708,0,0,0-.708.708v7.055l6.452,3.335a.708.708,0,0,0,.65-1.258L207.4,90.1V83.906A.708.708,0,0,0,206.7,83.2Z" transform="translate(-196.347 -79.383)"/>
      </g>
    </g>
  </g>
</svg>
