<svg xmlns="http://www.w3.org/2000/svg" viewBox="0 0 24.199 17.032">
  <defs>
    <style>
      .cls-1 {
        fill: #03a5ed;
      }
    </style>
  </defs>
  <g id="youtube" transform="translate(0 -45.917)">
    <path id="XMLID_823_" class="cls-1" d="M23.257,47.379c-.874-1.038-2.486-1.462-5.567-1.462H6.51c-3.151,0-4.791.451-5.661,1.556C0,48.551,0,50.14,0,52.338v4.19c0,4.259,1.007,6.421,6.51,6.421H17.69c2.671,0,4.151-.374,5.109-1.29.982-.94,1.4-2.474,1.4-5.131v-4.19C24.2,50.02,24.135,48.422,23.257,47.379Zm-7.72,7.632L10.46,57.665a.781.781,0,0,1-1.142-.692v-5.29a.781.781,0,0,1,1.14-.693l5.077,2.636a.781.781,0,0,1,0,1.385Z"/>
  </g>
</svg>
