<svg xmlns="http://www.w3.org/2000/svg" viewBox="-202 22.326 403.928 96.009">
  <defs>
    <style>
      .cls-1 {
        fill: #03a5ed;
      }

      .cls-2 {
        fill: none;
        stroke: #03a5ed;
        stroke-miterlimit: 10;
      }

      .cls-3 {
        fill: #b5c0f1;
      }

      .cls-4, .cls-5 {
        fill: #535974;
      }

      .cls-5 {
        font-size: 23px;
        font-family: Roboto-Regular, Roboto;
        letter-spacing: 0.05em;
      }
    </style>
  </defs>
  <g id="Group_2773" data-name="Group 2773" transform="translate(-640)">
    <g id="Group_2003" data-name="Group 2003" transform="translate(602 22.326)">
      <circle id="Ellipse_1" data-name="Ellipse 1" class="cls-1" cx="2.575" cy="2.575" r="2.575" transform="translate(71.674 61.296)"/>
      <circle id="Ellipse_2" data-name="Ellipse 2" class="cls-1" cx="2.575" cy="2.575" r="2.575" transform="translate(0 61.101)"/>
      <circle id="Ellipse_3" data-name="Ellipse 3" class="cls-1" cx="2.575" cy="2.575" r="2.575" transform="translate(36.13 0)"/>
      <path id="Path_1" data-name="Path 1" class="cls-2" d="M6.6,66.791l71.869.2L42.691,5.3Z" transform="translate(-4.025 -3.232)"/>
      <path id="Path_2" data-name="Path 2" class="cls-1" d="M52.7,88.706l35.935.117L70.765,58Z" transform="translate(-32.138 -35.37)"/>
      <path id="Path_3" data-name="Path 3" class="cls-3" d="M98.8,88.784l17.948.039L98.878,58Z" transform="translate(-60.251 -35.37)"/>
      <path id="Path_4" data-name="Path 4" class="cls-4" d="M52.7,124.5l35.935.117L70.687,116.7Z" transform="translate(-32.138 -71.167)"/>
    </g>
    <g id="Group_2004" data-name="Group 2004" transform="translate(-28 -80)">
      <g id="Group_3" data-name="Group 3" transform="translate(466 167.335)">
        <text id="ROBONOMICS_NETWORK_BY" data-name="ROBONOMICS NETWORK BY" class="cls-5" transform="translate(0 25)"><tspan x="0" y="0">ROBONOMICS NETWORK</tspan><tspan class="cls-1" y="0" xml:space="preserve"> BY</tspan></text>
        <g id="Group_2" data-name="Group 2" transform="translate(324.661 6.549)">
          <rect id="Rectangle_378" data-name="Rectangle 378" class="cls-1" width="0.294" height="7.542" transform="translate(9.004 9.442)"/>
          <rect id="Rectangle_379" data-name="Rectangle 379" class="cls-1" width="0.294" height="15.321" transform="translate(16.712 1.722)"/>
          <path id="Path_932" data-name="Path 932" class="cls-1" d="M0,.092,21.519,0V.29L0,.383Z" transform="translate(1.504 16.846) rotate(-45)"/>
          <rect id="Rectangle_381" data-name="Rectangle 381" class="cls-1" width="15.182" height="0.297" transform="translate(1.707 16.865)"/>
          <path id="Path_933" data-name="Path 933" class="cls-1" d="M0,.046,10.759,0V.293L0,.339Z" transform="translate(9.018 16.848) rotate(-44.21)"/>
          <path id="Path_821" data-name="Path 821" class="cls-1" d="M58.054,18.577c-.647-1.841-1.295-3.5-1.883-5.107-.588-1.544-1.177-3.028-1.707-4.454s-1.118-2.791-1.648-4.038S51.7,2.425,51.11,1.119L51.051,1H48.52l-.059.178c-.588,1.247-1.177,2.553-1.707,3.8-.53,1.306-1.118,2.672-1.648,4.038-.53,1.425-1.118,2.91-1.707,4.454s-1.177,3.266-1.883,5.107l-.118.3h3l1.589-4.335h7.474c.235.475.471,1.366.706,2.019.235.772.53,1.485.824,2.2l.059.119h3.119ZM52.581,12.1H46.814c.471-1.425.942-2.732,1.412-3.979.471-1.188.942-2.375,1.412-3.444.471,1.128.942,2.316,1.412,3.5C51.581,9.432,52.11,10.679,52.581,12.1Z" transform="translate(-17.037 -0.406)"/>
          <rect id="Rectangle_383" data-name="Rectangle 383" class="cls-1" width="2.883" height="17.874" transform="translate(42.841 0.594)"/>
          <path id="Path_822" data-name="Path 822" class="cls-1" d="M94.841,18.5a14.577,14.577,0,0,0-1.118-2.078c-.412-.713-.883-1.425-1.295-2.078s-.883-1.247-1.295-1.841c-.294-.416-.588-.772-.824-1.069a5.579,5.579,0,0,0,2.472-1.781,4.934,4.934,0,0,0,.942-3.088,5.037,5.037,0,0,0-2-4.335A9.663,9.663,0,0,0,86.014.8c-.706,0-1.471.059-2.3.059a11.271,11.271,0,0,0-2.118.356V18.793h2.883v-6.77h2.766c.294.356.647.772,1,1.247.412.534.765,1.069,1.177,1.663s.765,1.247,1.177,1.841a15.36,15.36,0,0,1,1.059,1.9l.059.119H94.9ZM90.427,8.1a2.28,2.28,0,0,1-.942.891A3.871,3.871,0,0,1,87.9,9.47c-.647.059-1.412.178-2.236.178H84.6V3.472a17.065,17.065,0,0,1,1.942-.059,15.408,15.408,0,0,1,1.707.119,4.563,4.563,0,0,1,1.353.475,2.284,2.284,0,0,1,.883.95,2.914,2.914,0,0,1,.353,1.485A4.029,4.029,0,0,1,90.427,8.1Z" transform="translate(-33.581 -0.325)"/>
          <path id="Path_823" data-name="Path 823" class="cls-1" d="M122.912,18.577c-.647-1.841-1.295-3.5-1.883-5.107-.588-1.544-1.177-3.088-1.707-4.454-.53-1.425-1.118-2.791-1.648-4.038s-1.118-2.553-1.707-3.86L115.851,1h-2.53l-.059.178c-.588,1.247-1.177,2.553-1.707,3.8-.53,1.306-1.118,2.672-1.648,4.038s-1.118,2.91-1.707,4.454-1.177,3.266-1.883,5.107l-.118.3h3l1.589-4.335h7.474c.235.475.471,1.366.706,2.019.235.772.53,1.425.824,2.2l.059.119h3.119ZM117.44,12.1h-5.767c.471-1.425.942-2.732,1.412-3.979.471-1.188.942-2.375,1.412-3.444.471,1.128.942,2.316,1.412,3.5C116.439,9.432,116.91,10.679,117.44,12.1Z" transform="translate(-43.705 -0.406)"/>
          <ellipse id="Ellipse_212" data-name="Ellipse 212" class="cls-1" cx="1.707" cy="1.722" rx="1.707" ry="1.722" transform="translate(15.124 15.261)"/>
          <ellipse id="Ellipse_213" data-name="Ellipse 213" class="cls-1" cx="1.707" cy="1.722" rx="1.707" ry="1.722" transform="translate(15.124)"/>
          <ellipse id="Ellipse_214" data-name="Ellipse 214" class="cls-1" cx="1.707" cy="1.722" rx="1.707" ry="1.722" transform="translate(15.124 7.601)"/>
          <ellipse id="Ellipse_215" data-name="Ellipse 215" class="cls-1" cx="1.707" cy="1.722" rx="1.707" ry="1.722" transform="translate(0 15.261)"/>
          <ellipse id="Ellipse_216" data-name="Ellipse 216" class="cls-1" cx="1.707" cy="1.722" rx="1.707" ry="1.722" transform="translate(7.532 15.261)"/>
          <ellipse id="Ellipse_217" data-name="Ellipse 217" class="cls-1" cx="1.707" cy="1.722" rx="1.707" ry="1.722" transform="translate(7.532 7.72)"/>
        </g>
      </g>
    </g>
  </g>
</svg>
