<svg xmlns="http://www.w3.org/2000/svg" viewBox="0 0 24.298 19.718">
  <defs>
    <style>
      .cls-1 {
        fill: #03a5ed;
      }
    </style>
  </defs>
  <g id="support" transform="translate(0 -41.206)">
    <g id="Group_2164" data-name="Group 2164" transform="translate(0 41.206)">
      <g id="Group_2163" data-name="Group 2163" transform="translate(0 0)">
        <path id="Path_1779" data-name="Path 1779" class="cls-1" d="M90.885,41.206H74.213a1.807,1.807,0,0,0-1.8,1.8V53.366a1.807,1.807,0,0,0,1.8,1.8H85.705l2.6,2.623a.557.557,0,0,0,.4.178.574.574,0,0,0,.578-.578V55.166h1.6a1.807,1.807,0,0,0,1.8-1.8V43.007A1.807,1.807,0,0,0,90.885,41.206ZM76.769,50.12a1.667,1.667,0,1,1,1.667-1.667A1.679,1.679,0,0,1,76.769,50.12Zm5.846,0a1.667,1.667,0,1,1,1.667-1.667A1.679,1.679,0,0,1,82.616,50.12Zm5.824,0a1.667,1.667,0,1,1,1.667-1.667A1.679,1.679,0,0,1,88.44,50.12Z" transform="translate(-68.388 -41.206)"/>
        <path id="Path_1780" data-name="Path 1780" class="cls-1" d="M3,200.741v-3.535H1.179A1.186,1.186,0,0,0,0,198.384v6.8a1.169,1.169,0,0,0,1.178,1.223H2.224v1.467a.39.39,0,0,0,.378.378.368.368,0,0,0,.267-.111l1.712-1.712h7.558a1.186,1.186,0,0,0,1.178-1.178v-1.689H5.825A2.827,2.827,0,0,1,3,200.741Z" transform="translate(0 -188.536)"/>
      </g>
    </g>
  </g>
</svg>
