<svg xmlns="http://www.w3.org/2000/svg" viewBox="7981.091 2785.672 103.476 45.02">
  <defs>
    <style>
      .cls-1 {
        fill: #fff;
      }
    </style>
  </defs>
  <g id="ipfs-logo-white" transform="translate(7981.091 2785.672)">
    <path id="Path_844" data-name="Path 844" class="cls-1" d="M69.511,515.51,50.017,526.765v22.509L69.511,560.53l19.494-11.255v-22.51ZM68.16,557.435a3.388,3.388,0,0,0-.654.378l-14.134-8.161a3.377,3.377,0,0,0-2-3.472V529.859a3.387,3.387,0,0,0,.654-.378h0l14.134,8.161a3.377,3.377,0,0,0,2,3.472ZM67.5,535.3l-14.135-8.16a3.377,3.377,0,0,0,0-.755L67.5,518.221h0a3.377,3.377,0,0,0,4.01,0l14.134,8.161a3.365,3.365,0,0,0,0,.755L71.509,535.3A3.377,3.377,0,0,0,67.5,535.3Zm20.156,10.792a3.376,3.376,0,0,0-2,3.472l-14.135,8.16a3.37,3.37,0,0,0-.654-.378l-.016-16.23a3.376,3.376,0,0,0,2-3.472L87,529.391h0a3.371,3.371,0,0,0,.654.378v16.321Z" transform="translate(-50.017 -515.51)"/>
    <g id="Group_775" data-name="Group 775" transform="translate(47.674 10.902)">
      <g id="Group_774" data-name="Group 774" transform="translate(0 0)">
        <path id="Path_845" data-name="Path 845" class="cls-1" d="M1280.759,1172.145h-2.641v22.417h2.641Z" transform="translate(-1278.118 -1171.685)"/>
        <path id="Path_846" data-name="Path 846" class="cls-1" d="M1333.177,1182.893c-1.013,0-3.9-.031-3.9-.031v-8.353h4.637c2.764,0,4.76,1.075,4.76,3.716C1338.674,1180.467,1338.274,1182.893,1333.177,1182.893Zm-3.9,11.669v-9.581c1.136.092,2.733.215,3.654.215,6.633,0,8.445-2.856,8.445-7.032,0-4.33-3.255-6.019-7.524-6.019H1326.6v22.417Z" transform="translate(-1318.998 -1171.685)"/>
        <path id="Path_847" data-name="Path 847" class="cls-1" d="M1450.816,1182h-9.243v-7.554h9.55l.215-2.3h-12.406v22.417h2.641v-10.41h9.243V1182Z" transform="translate(-1413.703 -1171.685)"/>
        <path id="Path_848" data-name="Path 848" class="cls-1" d="M1534.159,1188.434a17,17,0,0,0,7.431,1.72c3.194,0,4.883-1.413,4.883-4.453,0-1.812-.737-3.04-3.593-3.746l-4.422-1.106c-3.1-.768-5.036-2.426-5.036-5.4,0-4.361,3.255-6.234,8.168-6.234a13.316,13.316,0,0,1,6.725,1.628l-.768,2.088a13.821,13.821,0,0,0-5.988-1.413c-3.562,0-5.435,1.2-5.435,3.777,0,1.75,1.167,2.7,3.316,3.224l4.207,1.013c3.347.8,5.5,2.426,5.5,6.08,0,4.668-3.133,6.817-7.708,6.817a16.049,16.049,0,0,1-8.046-1.843l.768-2.15Z" transform="translate(-1493.343 -1169.21)"/>
      </g>
    </g>
  </g>
</svg>
