<svg xmlns="http://www.w3.org/2000/svg" width="144.318" height="39.478" viewBox="0 0 144.318 39.478">
  <g id="Group_2685" data-name="Group 2685" transform="translate(-1134.682 -657)">
    <g id="polkadot" transform="translate(1107.964 490.766)">
      <g id="Layer_1" data-name="Layer 1" transform="translate(73.036 173.234)">
        <path id="Path_1971" data-name="Path 1971" d="M87.939,183.721a7.493,7.493,0,0,0,1.58-2.387,6.887,6.887,0,0,0,.548-2.649,5.641,5.641,0,0,0-.38-2.047A4.686,4.686,0,0,0,88.5,174.9a5.9,5.9,0,0,0-2.034-1.21,8.5,8.5,0,0,0-2.931-.454,10.083,10.083,0,0,0-2.33.276,12.7,12.7,0,0,0-6.387,3.412,7.1,7.1,0,0,0-1.308,1.681,3.805,3.805,0,0,0-.477,1.812,3.052,3.052,0,0,0,.235,1.271,1.987,1.987,0,0,0,.672.824,3,3,0,0,0,1.106.454,7.282,7.282,0,0,0,1.516.141.356.356,0,0,0-.074-.188,1.777,1.777,0,0,1-.155-.3,3.251,3.251,0,0,1-.155-.528,4.136,4.136,0,0,1-.074-.857,6.639,6.639,0,0,1,.612-2.82A7.019,7.019,0,0,1,78.3,176.3a6.168,6.168,0,0,1,2.249-1.324,9.231,9.231,0,0,1,3.025-.461,3.758,3.758,0,0,1,1.56.3,2.827,2.827,0,0,1,1.069.817,3.449,3.449,0,0,1,.608,1.2,5.243,5.243,0,0,1,.195,1.452,7.435,7.435,0,0,1-.161,1.519,8.525,8.525,0,0,1-1.2,2.911,6.387,6.387,0,0,1-.971,1.17,5.191,5.191,0,0,1-1.17.83,3.452,3.452,0,0,1-1.345.38s.914-5.419,1.9-9.012c-1.324-1.1-3.674-.672-4.034.309-1.442,3.9-2.578,11.164-3.23,14.139-.444,2.017-2,7.974-2,7.974,2.494,0,4.242-1.008,4.921-3.257.709-2.353,2.215-9.137,2.215-9.137h.148a8.017,8.017,0,0,0,5.859-2.387Z" transform="translate(-73.036 -173.234)" fill="#fff"/>
        <path id="Path_1972" data-name="Path 1972" d="M184.826,199.537l1.664-7.8h2.9l.2-1.042h-2.9q.178-.877.336-1.63t.3-1.3q.064-.336.128-.629c.044-.2.605-2.316.733-2.78-1.008,1.271-4.454,2.75-4.454,2.75l-.787,3.593h-.85l-.215,1.042h.864l-.491,2.306c-.538.575-2.04,1.533-2.79.6v-.027q0-4.151-3.338-4.152a5.651,5.651,0,0,0-2.373.477,6.434,6.434,0,0,0-1.835,1.25,7.732,7.732,0,0,0-1.345,1.758,11.967,11.967,0,0,0-.9,2.017,12.492,12.492,0,0,0-.508,2,11,11,0,0,0-.158,1.681c-.044.108-.087.218-.138.336a3.322,3.322,0,0,1-.464.729,2.017,2.017,0,0,1-.585.477,1.483,1.483,0,0,1-.706.171,1.274,1.274,0,0,1-.807-.208.924.924,0,0,1-.259-.756,3.375,3.375,0,0,1,.027-.413,2.6,2.6,0,0,1,.087-.427s1.372-9.355,3.2-14.562c-2.017.313-3.967.555-3.967.555l-1.372,6.464v-.1a1.143,1.143,0,0,0-.5-.938,2.689,2.689,0,0,0-1.607-.38,4.958,4.958,0,0,0-2.074.39,5.92,5.92,0,0,0-1.681,1.143,7.806,7.806,0,0,0-1.294,1.651,11.546,11.546,0,0,0-.921,1.95,12.063,12.063,0,0,0-.545,2.017,11.853,11.853,0,0,0-.161,1.345,6.81,6.81,0,0,1-.316.861,3.568,3.568,0,0,1-.471.78,2.286,2.286,0,0,1-.592.528,1.344,1.344,0,0,1-.706.2c-.713,0-1.143-.376-1.066-1.116a57.109,57.109,0,0,1,2.017-10.085c-1.345.225-3.788.42-3.788.42l-.279,1.385v-.192a1.143,1.143,0,0,0-.5-.938,2.689,2.689,0,0,0-1.607-.38,4.958,4.958,0,0,0-2.071.427,5.92,5.92,0,0,0-1.681,1.143,7.8,7.8,0,0,0-1.294,1.651,11.547,11.547,0,0,0-.921,1.95,12.065,12.065,0,0,0-.545,2.017,11.874,11.874,0,0,0-.158,1.345,7.532,7.532,0,0,1-.387.871c-.5.887-1.143,1.856-1.909,2.017-1.775.4-.918-1.5-.75-2.467.057-.336.292-1.294.292-1.294a3.022,3.022,0,0,0,.084-.5q.02-.249.02-.487a3.947,3.947,0,0,0-.171-1.173,2.745,2.745,0,0,0-.528-.971,2.483,2.483,0,0,0-.894-.672,3.075,3.075,0,0,0-1.264-.242,3.36,3.36,0,0,0-.864.114l5.762-4.034-3.133.42-5.015,3.987,2.077-9.977-3.849.531s-.887,4.326-1.812,9.348c-.276,1.5-.615,3.072-.945,4.488a4.988,4.988,0,0,1-.393.958c-.2.36-.914,1.345-1.819,1.345-.824,0-1.042-.41-1.056-.965-.04-1.98,2.76-14.881,2.76-14.881s-2.279.336-3.849.521c0,0-.914,3.819-1.681,7.839V193.8a2.138,2.138,0,0,1-2.857.861v-.027q0-4.152-3.341-4.151a5.651,5.651,0,0,0-2.373.477,6.434,6.434,0,0,0-1.835,1.25,7.732,7.732,0,0,0-1.345,1.758,11.977,11.977,0,0,0-.9,2.017,12.508,12.508,0,0,0-.508,2,10.879,10.879,0,0,0-.158,1.735,5.139,5.139,0,0,0,.313,1.9,3.281,3.281,0,0,0,.864,1.271,3.362,3.362,0,0,0,1.321.713,5.99,5.99,0,0,0,1.681.222,4.891,4.891,0,0,0,2.259-.545,5.889,5.889,0,0,0,1.893-1.563,8.683,8.683,0,0,0,1.365-2.464,12.239,12.239,0,0,0,.692-3.251,2.353,2.353,0,0,0,2.709-.908v-.067a50.881,50.881,0,0,0-.773,5.738,3.5,3.5,0,0,0,.215,1.409,2.689,2.689,0,0,0,.592.965,2.273,2.273,0,0,0,.884.558,3.282,3.282,0,0,0,1.093.178,5.5,5.5,0,0,0,.78-.064,4.573,4.573,0,0,0,.921-.242,5.158,5.158,0,0,0,1.008-.508,4.755,4.755,0,0,0,.7-.555c-.192.756-.316,1.214-.316,1.214h3.745l1.345-6.424a7.3,7.3,0,0,1,1.008-.706,1.849,1.849,0,0,1,.908-.259.783.783,0,0,1,.736.336,1.785,1.785,0,0,1,.2.914q0,.215-.02.457a3.028,3.028,0,0,1-.084.494l-.215,1.008a6.866,6.866,0,0,0-.151,1.345,2.844,2.844,0,0,0,.827,2.192,3.47,3.47,0,0,0,2.451.77,4.705,4.705,0,0,0,1.035-.141,3.362,3.362,0,0,0,1.251-.629,6.109,6.109,0,0,0,1.3-1.449c.081-.121.161-.249.239-.383.034.131.071.259.114.38a3.587,3.587,0,0,0,.773,1.294,2.82,2.82,0,0,0,1.106.713,3.923,3.923,0,0,0,1.294.215,3.727,3.727,0,0,0,1.277-.208,4.319,4.319,0,0,0,1.049-.545,5.2,5.2,0,0,0,.85-.763,10.057,10.057,0,0,0,.7-.871,2.774,2.774,0,0,0,.793,1.785,2.491,2.491,0,0,0,1.758.6,5.116,5.116,0,0,0,.763-.064,4.133,4.133,0,0,0,.877-.242,4.676,4.676,0,0,0,.941-.508,5.04,5.04,0,0,0,.945-.864,7.22,7.22,0,0,0,.716-1.008,4.137,4.137,0,0,0,.134.454,3.587,3.587,0,0,0,.773,1.294,2.82,2.82,0,0,0,1.106.713,3.923,3.923,0,0,0,1.294.215,3.741,3.741,0,0,0,1.271-.208,4.407,4.407,0,0,0,1.059-.545,4.875,4.875,0,0,0,.85-.763,7.774,7.774,0,0,0,.672-.871,2.353,2.353,0,0,0,2.551,2.235,6.361,6.361,0,0,0,.763-.05,3.993,3.993,0,0,0,.877-.215,4.668,4.668,0,0,0,.941-.477,4.771,4.771,0,0,0,.945-.827,6.483,6.483,0,0,0,.605-.8,2.3,2.3,0,0,0,.091.269,3.281,3.281,0,0,0,.864,1.271,3.362,3.362,0,0,0,1.321.713,5.988,5.988,0,0,0,1.681.222,4.892,4.892,0,0,0,2.259-.545,5.889,5.889,0,0,0,1.893-1.563,8.682,8.682,0,0,0,1.365-2.447,12.239,12.239,0,0,0,.692-3.251,2.807,2.807,0,0,0,2.635-.793l-.928,4.35a6.6,6.6,0,0,0-.151,1.385,4.444,4.444,0,0,0,.145,1.163,2.561,2.561,0,0,0,.457.935,2.1,2.1,0,0,0,.807.615,2.908,2.908,0,0,0,1.193.222,5.862,5.862,0,0,0,4.239-1.765,4.706,4.706,0,0,0,1.217-2.639s-1.8,1.93-3.378,1.93a.817.817,0,0,1-.716-.266,1.156,1.156,0,0,1-.185-.672,3.2,3.2,0,0,1,.024-.407A4.444,4.444,0,0,1,184.826,199.537Zm-68.437-5.469a1.64,1.64,0,0,0-.222.894,1.556,1.556,0,0,0,.145.693.78.78,0,0,0,.551.4,12.747,12.747,0,0,1-.464,2.135,9.055,9.055,0,0,1-.716,1.714,4.33,4.33,0,0,1-.881,1.143,1.446,1.446,0,0,1-.945.42,1.889,1.889,0,0,1-.622-.087.81.81,0,0,1-.413-.336,1.637,1.637,0,0,1-.229-.642,6.435,6.435,0,0,1-.071-1.056,9.175,9.175,0,0,1,.128-1.442,14.208,14.208,0,0,1,.356-1.607,13.391,13.391,0,0,1,.551-1.58,8.739,8.739,0,0,1,.713-1.365,4.273,4.273,0,0,1,.82-.958,1.388,1.388,0,0,1,.9-.363,1.082,1.082,0,0,1,.437.077.649.649,0,0,1,.286.259,1.519,1.519,0,0,1,.178.471,4.615,4.615,0,0,1,.087.706A1.345,1.345,0,0,0,116.389,194.068Zm32.177,4.962a3.558,3.558,0,0,1-.373,1.008,3.175,3.175,0,0,1-.545.716,2.232,2.232,0,0,1-.622.43,1.5,1.5,0,0,1-.615.145,2.488,2.488,0,0,1-.407-.037.78.78,0,0,1-.427-.235,1.56,1.56,0,0,1-.336-.6,3.7,3.7,0,0,1-.141-1.156,9.45,9.45,0,0,1,.114-1.378,13.011,13.011,0,0,1,.877-3.106,7.546,7.546,0,0,1,.723-1.345,3.849,3.849,0,0,1,.894-.945,1.731,1.731,0,0,1,1.035-.356,1.11,1.11,0,0,1,.521.108.971.971,0,0,1,.336.266,1.025,1.025,0,0,1,.171.336,1.047,1.047,0,0,1,.05.286Zm13.947,0v.141a3.22,3.22,0,0,1-.373.951,2.954,2.954,0,0,1-.545.672,2.189,2.189,0,0,1-.622.4,1.567,1.567,0,0,1-.592.134,2.489,2.489,0,0,1-.407-.037.78.78,0,0,1-.427-.235,1.561,1.561,0,0,1-.336-.6,3.7,3.7,0,0,1-.141-1.156,9.444,9.444,0,0,1,.114-1.378,13.014,13.014,0,0,1,.877-3.106,7.545,7.545,0,0,1,.723-1.345,3.849,3.849,0,0,1,.894-.945,1.731,1.731,0,0,1,1.035-.356,1.15,1.15,0,0,1,.5.094.865.865,0,0,1,.313.242,1.133,1.133,0,0,1,.171.3,2.039,2.039,0,0,1,.084.266Zm14.226-4.972a1.64,1.64,0,0,0-.222.894,1.556,1.556,0,0,0,.138.716.78.78,0,0,0,.551.4,12.73,12.73,0,0,1-.464,2.135,9.059,9.059,0,0,1-.716,1.714,4.327,4.327,0,0,1-.884,1.143,1.446,1.446,0,0,1-.945.42,1.89,1.89,0,0,1-.622-.087.81.81,0,0,1-.413-.336,1.637,1.637,0,0,1-.229-.642,6.427,6.427,0,0,1-.071-1.056,9.193,9.193,0,0,1,.128-1.442,14.252,14.252,0,0,1,.356-1.607,13.443,13.443,0,0,1,.551-1.58,8.74,8.74,0,0,1,.713-1.365,4.275,4.275,0,0,1,.82-.958,1.388,1.388,0,0,1,.9-.363,1.083,1.083,0,0,1,.437.077.646.646,0,0,1,.286.259,1.523,1.523,0,0,1,.178.471,4.626,4.626,0,0,1,.087.706,1.345,1.345,0,0,0-.582.511Z" transform="translate(-96.662 -180.62)" fill="#fff"/>
        <circle id="Ellipse_509" data-name="Ellipse 509" cx="2.155" cy="2.155" r="2.155" transform="translate(93.691 18.924)" fill="#fff"/>
      </g>
    </g>
    <g id="Group_2684" data-name="Group 2684" transform="translate(373.682 400)">
      <g id="Group_2683" data-name="Group 2683" transform="translate(761 257)">
        <g id="Group_2678" data-name="Group 2678" transform="translate(30.933 8.626)">
          <circle id="Ellipse_516" data-name="Ellipse 516" cx="2.488" cy="2.488" r="2.488" fill="#fff"/>
          <circle id="Ellipse_517" data-name="Ellipse 517" cx="2.488" cy="2.488" r="2.488" transform="translate(0.054 8.626)" fill="#fff"/>
          <circle id="Ellipse_518" data-name="Ellipse 518" cx="2.488" cy="2.488" r="2.488" transform="translate(0.108 17.251)" fill="#fff"/>
        </g>
        <g id="Group_2679" data-name="Group 2679" transform="translate(0 8.626)">
          <circle id="Ellipse_519" data-name="Ellipse 519" cx="2.488" cy="2.488" r="2.488" fill="#fff"/>
          <circle id="Ellipse_520" data-name="Ellipse 520" cx="2.488" cy="2.488" r="2.488" transform="translate(0.054 8.626)" fill="#fff"/>
          <circle id="Ellipse_521" data-name="Ellipse 521" cx="2.488" cy="2.488" r="2.488" transform="translate(0.108 17.251)" fill="#fff"/>
        </g>
        <g id="Group_2680" data-name="Group 2680" transform="translate(23.186 4.313)">
          <circle id="Ellipse_522" data-name="Ellipse 522" cx="2.488" cy="2.488" r="2.488" fill="#fff"/>
          <circle id="Ellipse_523" data-name="Ellipse 523" cx="2.488" cy="2.488" r="2.488" transform="translate(0.054 8.626)" fill="#fff"/>
          <circle id="Ellipse_524" data-name="Ellipse 524" cx="2.488" cy="2.488" r="2.488" transform="translate(0.108 17.251)" fill="#fff"/>
          <circle id="Ellipse_525" data-name="Ellipse 525" cx="2.488" cy="2.488" r="2.488" transform="translate(0.162 25.877)" fill="#fff"/>
        </g>
        <g id="Group_2681" data-name="Group 2681" transform="translate(7.693 4.313)">
          <circle id="Ellipse_526" data-name="Ellipse 526" cx="2.488" cy="2.488" r="2.488" fill="#fff"/>
          <circle id="Ellipse_527" data-name="Ellipse 527" cx="2.488" cy="2.488" r="2.488" transform="translate(0.054 8.626)" fill="#fff"/>
          <circle id="Ellipse_528" data-name="Ellipse 528" cx="2.488" cy="2.488" r="2.488" transform="translate(0.108 17.251)" fill="#fff"/>
          <circle id="Ellipse_529" data-name="Ellipse 529" cx="2.488" cy="2.488" r="2.488" transform="translate(0.162 25.877)" fill="#fff"/>
        </g>
        <g id="Group_2682" data-name="Group 2682" transform="translate(15.439 0)">
          <circle id="Ellipse_530" data-name="Ellipse 530" cx="2.488" cy="2.488" r="2.488" fill="#fff"/>
          <circle id="Ellipse_531" data-name="Ellipse 531" cx="2.488" cy="2.488" r="2.488" transform="translate(0.054 8.626)" fill="#fff"/>
          <circle id="Ellipse_532" data-name="Ellipse 532" cx="2.488" cy="2.488" r="2.488" transform="translate(0.108 17.251)" fill="#fff"/>
          <circle id="Ellipse_533" data-name="Ellipse 533" cx="2.488" cy="2.488" r="2.488" transform="translate(0.162 25.877)" fill="#fff"/>
          <circle id="Ellipse_534" data-name="Ellipse 534" cx="2.488" cy="2.488" r="2.488" transform="translate(0.054 34.502)" fill="#fff"/>
        </g>
      </g>
    </g>
  </g>
</svg>
