<svg xmlns="http://www.w3.org/2000/svg" width="36.017" height="39.478" viewBox="0 0 36.017 39.478">
  <g id="Group_2686" data-name="Group 2686" transform="translate(-761 -257)">
    <g id="Group_2683" data-name="Group 2683" transform="translate(761 257)">
      <g id="Group_2678" data-name="Group 2678" transform="translate(30.933 8.626)">
        <circle id="Ellipse_516" data-name="Ellipse 516" cx="2.488" cy="2.488" r="2.488" fill="#fff"/>
        <circle id="Ellipse_517" data-name="Ellipse 517" cx="2.488" cy="2.488" r="2.488" transform="translate(0.054 8.626)" fill="#fff"/>
        <circle id="Ellipse_518" data-name="Ellipse 518" cx="2.488" cy="2.488" r="2.488" transform="translate(0.108 17.251)" fill="#fff"/>
      </g>
      <g id="Group_2679" data-name="Group 2679" transform="translate(0 8.626)">
        <circle id="Ellipse_519" data-name="Ellipse 519" cx="2.488" cy="2.488" r="2.488" fill="#fff"/>
        <circle id="Ellipse_520" data-name="Ellipse 520" cx="2.488" cy="2.488" r="2.488" transform="translate(0.054 8.626)" fill="#fff"/>
        <circle id="Ellipse_521" data-name="Ellipse 521" cx="2.488" cy="2.488" r="2.488" transform="translate(0.108 17.251)" fill="#fff"/>
      </g>
      <g id="Group_2680" data-name="Group 2680" transform="translate(23.186 4.313)">
        <circle id="Ellipse_522" data-name="Ellipse 522" cx="2.488" cy="2.488" r="2.488" fill="#fff"/>
        <circle id="Ellipse_523" data-name="Ellipse 523" cx="2.488" cy="2.488" r="2.488" transform="translate(0.054 8.626)" fill="#fff"/>
        <circle id="Ellipse_524" data-name="Ellipse 524" cx="2.488" cy="2.488" r="2.488" transform="translate(0.108 17.251)" fill="#fff"/>
        <circle id="Ellipse_525" data-name="Ellipse 525" cx="2.488" cy="2.488" r="2.488" transform="translate(0.162 25.877)" fill="#fff"/>
      </g>
      <g id="Group_2681" data-name="Group 2681" transform="translate(7.693 4.313)">
        <circle id="Ellipse_526" data-name="Ellipse 526" cx="2.488" cy="2.488" r="2.488" fill="#fff"/>
        <circle id="Ellipse_527" data-name="Ellipse 527" cx="2.488" cy="2.488" r="2.488" transform="translate(0.054 8.626)" fill="#fff"/>
        <circle id="Ellipse_528" data-name="Ellipse 528" cx="2.488" cy="2.488" r="2.488" transform="translate(0.108 17.251)" fill="#fff"/>
        <circle id="Ellipse_529" data-name="Ellipse 529" cx="2.488" cy="2.488" r="2.488" transform="translate(0.162 25.877)" fill="#fff"/>
      </g>
      <g id="Group_2682" data-name="Group 2682" transform="translate(15.439 0)">
        <circle id="Ellipse_530" data-name="Ellipse 530" cx="2.488" cy="2.488" r="2.488" fill="#fff"/>
        <circle id="Ellipse_531" data-name="Ellipse 531" cx="2.488" cy="2.488" r="2.488" transform="translate(0.054 8.626)" fill="#fff"/>
        <circle id="Ellipse_532" data-name="Ellipse 532" cx="2.488" cy="2.488" r="2.488" transform="translate(0.108 17.251)" fill="#fff"/>
        <circle id="Ellipse_533" data-name="Ellipse 533" cx="2.488" cy="2.488" r="2.488" transform="translate(0.162 25.877)" fill="#fff"/>
        <circle id="Ellipse_534" data-name="Ellipse 534" cx="2.488" cy="2.488" r="2.488" transform="translate(0.054 34.502)" fill="#fff"/>
      </g>
    </g>
  </g>
</svg>
