<svg id="reddit" xmlns="http://www.w3.org/2000/svg" viewBox="0 0 22.59 18.824">
  <defs>
    <style>
      .cls-1 {
        fill: #03a5ed;
      }
    </style>
  </defs>
  <path id="Path_580" data-name="Path 580" class="cls-1" d="M19.875,47.864a2.716,2.716,0,0,0-1.71.6,12.86,12.86,0,0,0-6.008-1.784L13.331,43l3.228.753a2.255,2.255,0,1,0,.248-1.2l-3.751-.875a.617.617,0,0,0-.729.411l-1.459,4.567a13.12,13.12,0,0,0-6.484,1.773A2.717,2.717,0,0,0,0,50.554a2.678,2.678,0,0,0,1.176,2.213,4.644,4.644,0,0,0-.045.646,5.9,5.9,0,0,0,3.063,4.856,13.125,13.125,0,0,0,7.056,1.9,13.125,13.125,0,0,0,7.056-1.9,5.9,5.9,0,0,0,3.063-4.856,4.842,4.842,0,0,0-.038-.591,2.684,2.684,0,0,0-1.456-4.959Zm-1.052-5.3a1.027,1.027,0,1,1-1.037,1.027A1.034,1.034,0,0,1,18.823,42.566ZM6.406,52.219a1.562,1.562,0,0,1,1.552-1.538,1.542,1.542,0,0,1,1.529,1.538,1.523,1.523,0,0,1-1.529,1.515A1.543,1.543,0,0,1,6.406,52.219Zm8.608,4.455a5.062,5.062,0,0,1-3.707,1.156h-.024a5.057,5.057,0,0,1-3.706-1.156.606.606,0,0,1,0-.865.622.622,0,0,1,.873,0,3.944,3.944,0,0,0,2.834.8h.024a3.951,3.951,0,0,0,2.835-.8.621.621,0,0,1,.872,0A.608.608,0,0,1,15.014,56.674Zm-.358-2.94A1.544,1.544,0,0,1,13.1,52.219a1.563,1.563,0,0,1,1.554-1.538,1.541,1.541,0,0,1,1.529,1.538A1.523,1.523,0,0,1,14.656,53.734Z" transform="translate(0 -41.344)"/>
</svg>
