<svg id="twitter-2" xmlns="http://www.w3.org/2000/svg" width="20" height="20" viewBox="0 0 20 20">
  <rect id="Rectangle_723" data-name="Rectangle 723" width="20" height="20" fill="#03a5ed"/>
  <g id="twitter_hover" transform="translate(5337 1208)">
    <g id="Group_178" transform="translate(5.8 8)">
      <path id="Path_458" d="M-5328-1208.5v.3a7.088,7.088,0,0,1-6.9,7.1h-.1a7.938,7.938,0,0,1-3.9-1.1c.2,0,.4.1.6.1a5.711,5.711,0,0,0,3.1-1,2.494,2.494,0,0,1-2.4-1.7.9.9,0,0,0,.5.1c.2,0,.5,0,.6-.1a2.452,2.452,0,0,1-2-2.4v-.1a2.133,2.133,0,0,0,1.2.3,2.608,2.608,0,0,1-1.1-2.1,2.772,2.772,0,0,1,.3-1.3,7.089,7.089,0,0,0,5.1,2.6,1.267,1.267,0,0,1-.1-.6,2.6,2.6,0,0,1,2.4-2.5h.1a2.5,2.5,0,0,1,1.8.8,4.419,4.419,0,0,0,1.6-.6,3.008,3.008,0,0,1-1.1,1.4,5.726,5.726,0,0,0,1.4-.4A2.08,2.08,0,0,1-5328-1208.5Z" fill="#fff"/>
    </g>
  </g>
</svg>
