<svg id="github-2" xmlns="http://www.w3.org/2000/svg" width="20" height="20" viewBox="0 0 20 20">
  <rect id="Rectangle_726" data-name="Rectangle 726" width="20" height="20" fill="#03a5ed"/>
  <path id="Path_1964" data-name="Path 1964" d="M14.6,4.3a.783.783,0,0,0-.8.1,2.471,2.471,0,0,0-.9.4l-.5.2a6.8,6.8,0,0,0-2-.2,4.71,4.71,0,0,0-2,.2A.52.52,0,0,0,8,4.8a3.508,3.508,0,0,0-.8-.5,3.445,3.445,0,0,0-.9-.1,1.983,1.983,0,0,0-.1,2.1,3.118,3.118,0,0,0-.9,2.1,7.719,7.719,0,0,0,.2,1.5A3,3,0,0,0,6.1,11a5.716,5.716,0,0,0,.8.7,3.552,3.552,0,0,0,.9.4,3.553,3.553,0,0,0,1,.2,1.433,1.433,0,0,0-.5,1.1l-.4.2c-.2,0-.4.1-.6.1a1.854,1.854,0,0,1-.7-.2,2.169,2.169,0,0,1-.6-.7c-.2-.2-.3-.4-.5-.6-.2-.1-.3-.2-.5-.2l-.2-.1c-.2,0-.2,0-.3.1a.349.349,0,0,0-.1.2c0,.1.1.1.1.2.1.1.1.1.2.1l.1.1c.2,0,.3.2.4.3.2.2.2.4.3.6l.1.2a2.506,2.506,0,0,0,.4.7c.2.2.4.2.7.3a1.7,1.7,0,0,0,.7.1,1.268,1.268,0,0,0,.6-.1l.2-.2V16h4.2V13.9a1.816,1.816,0,0,0-.6-1.4,3.553,3.553,0,0,0,1-.2,2.471,2.471,0,0,0,.9-.4,2.7,2.7,0,0,0,.8-.7,10.908,10.908,0,0,0,.6-1.1,3.887,3.887,0,0,0,.2-1.5,3.163,3.163,0,0,0-.8-2.2A2.253,2.253,0,0,0,14.6,4.3Z" fill="#fff"/>
</svg>
