<svg id="medium-2" xmlns="http://www.w3.org/2000/svg" width="20" height="20" viewBox="0 0 20 20">
  <rect id="Rectangle_724" data-name="Rectangle 724" width="20" height="20" fill="#03a5ed"/>
  <g id="Page-1_1_" transform="translate(5340.916 1185.09)">
    <g id="Monogram_1_">
      <path id="Shape_1_" d="M-5335.7-1178c0-.2,0-.3-.2-.4l-1.2-1.4v-.2h3.6l2.8,6.1,2.5-6.1h3.4v.2l-1,1a.367.367,0,0,0-.1.3v7a.367.367,0,0,0,.1.3l1,1v.2h-4.9v-.2l1-1c.1-.1.1-.1.1-.3v-5.7l-2.8,7.1h-.4l-3.3-7.1v4.8c0,.2,0,.4.2.5l1.3,1.6v.2h-3.7v-.2l1.3-1.6a.764.764,0,0,0,.2-.5l.1-5.6Z" fill="#fff"/>
    </g>
  </g>
</svg>
