<svg id="linkedin" xmlns="http://www.w3.org/2000/svg" width="20" height="20" viewBox="0 0 20 20">
  <rect id="Rectangle_722" data-name="Rectangle 722" width="20" height="20" fill="#03a5ed"/>
  <g id="Group_2372" data-name="Group 2372">
    <path id="Path_1960" data-name="Path 1960" d="M15.6,11.2v4.1H13.2V11.5c0-1-.3-1.6-1.2-1.6a1.123,1.123,0,0,0-1.2.9,1.268,1.268,0,0,0-.1.6v4H8.3V8.2h2.4v1h0A2.327,2.327,0,0,1,12.8,8c1.6,0,2.8,1,2.8,3.2ZM5.8,4.7A1.272,1.272,0,0,0,4.4,5.9,1.184,1.184,0,0,0,5.7,7.1h0A1.337,1.337,0,0,0,7.1,5.9,1.184,1.184,0,0,0,5.8,4.7ZM4.6,15.3H7V8.1H4.6Z" fill="#fff"/>
  </g>
</svg>
