<svg xmlns="http://www.w3.org/2000/svg" viewBox="0 0 18.696 18.772">
  <defs>
    <style>
      .cls-1 {
        fill: #f15a24;
      }
    </style>
  </defs>
  <g id="icon-gear_1_" transform="translate(0 -0.001)">
    <g id="Group_2169_1_" transform="translate(0 0.001)">
      <path id="Path_1784_1_" class="cls-1" d="M17.812,7.421,16.5,7.16l-.524-1.31L16.764,4.8a1.1,1.1,0,0,0-.175-1.484L15.454,2.183a.948.948,0,0,0-.786-.349,2.055,2.055,0,0,0-.7.175l-1.048.786a4.116,4.116,0,0,0-1.31-.524L11.35.96A1.209,1.209,0,0,0,10.215,0H8.557A1.136,1.136,0,0,0,7.421.96L7.16,2.27a8.812,8.812,0,0,0-1.31.611L4.8,2.1a1.081,1.081,0,0,0-1.484.087L2.1,3.318a1.307,1.307,0,0,0-.087,1.572l.786,1.135c-.175.349-.349.786-.524,1.222L.96,7.421A1.231,1.231,0,0,0,0,8.644V10.3a1.136,1.136,0,0,0,.96,1.135l1.31.262.524,1.31-.7.96a1.18,1.18,0,0,0,.087,1.484l1.135,1.135a.948.948,0,0,0,.786.349,2.055,2.055,0,0,0,.7-.175l1.135-.786c.437.175.786.349,1.222.524l.262,1.31a1.209,1.209,0,0,0,1.135.96h1.659a1.136,1.136,0,0,0,1.135-.96l.262-1.31,1.31-.524,1.048.786a.941.941,0,0,0,.7.175h0a.851.851,0,0,0,.786-.349l1.135-1.135a1.086,1.086,0,0,0,.087-1.484l-.786-1.048a8.194,8.194,0,0,0,.524-1.31l1.31-.262a1.209,1.209,0,0,0,.96-1.135V8.557A1.051,1.051,0,0,0,17.812,7.421Zm-.087,2.794c0,.087,0,.087-.087.087l-1.659.262a.58.58,0,0,0-.437.349,5.58,5.58,0,0,1-.7,1.659.746.746,0,0,0,0,.611l.96,1.4v.175l-1.135,1.135h-.175l-1.4-.96a.746.746,0,0,0-.611,0,9.462,9.462,0,0,1-1.659.7c-.175.087-.349.175-.349.437l-.262,1.659a.086.086,0,0,1-.087.087H8.557c-.087,0-.087,0-.087-.087l-.262-1.659a.58.58,0,0,0-.349-.437,5.092,5.092,0,0,1-1.572-.7.66.66,0,0,0-.349-.087.321.321,0,0,0-.262.087l-1.4.96H4.1L2.969,14.756v-.175l.96-1.4a.746.746,0,0,0,0-.611,5.58,5.58,0,0,1-.7-1.659.58.58,0,0,0-.437-.349L1.135,10.3a.086.086,0,0,1-.087-.087V8.644c0-.087,0-.087.087-.087l1.659-.262a.58.58,0,0,0,.437-.349,5.58,5.58,0,0,1,.7-1.659.746.746,0,0,0,0-.611l-1.048-1.4V4.1L4.016,2.969h.175l1.31.96a.746.746,0,0,0,.611,0,5.58,5.58,0,0,1,1.659-.7.58.58,0,0,0,.349-.437l.262-1.659a.086.086,0,0,1,.087-.087h1.659c.087,0,.087,0,.087.087l.262,1.659a.58.58,0,0,0,.349.437,5.58,5.58,0,0,1,1.659.7.746.746,0,0,0,.611,0l1.4-.96h.175L15.8,4.1v.175l-.96,1.4a.746.746,0,0,0,0,.611,9.462,9.462,0,0,1,.7,1.659c.087.175.175.349.437.349l1.659.262a.086.086,0,0,1,.087.087v1.572Z"/>
      <path id="Path_1785_1_" class="cls-1" d="M10.216,6.1A4.006,4.006,0,0,0,6.2,10.116a4.016,4.016,0,1,0,8.033,0h0A4.062,4.062,0,0,0,10.216,6.1Zm0,7.072A2.969,2.969,0,1,1,13.185,10.2h0a3,3,0,0,1-2.969,2.969Z" transform="translate(-0.787 -0.774)"/>
    </g>
  </g>
</svg>
