<svg xmlns="http://www.w3.org/2000/svg" viewBox="2990 131 27.02 31.023"><defs><style>.a{fill:#f15a24;}</style></defs><g transform="translate(2922.342 19.675)"><g transform="translate(67.658 111.325)"><path class="a" d="M82,142.345c-2.608.07-4.744-1.107-4.744-1.631,0-.47-.017-1.711-.027-3.358-5.47,1.192-6.626-2.648-6.626-2.648a5.215,5.215,0,0,0-2.183-2.889c-1.787-1.224.133-1.2.133-1.2a4.131,4.131,0,0,1,3.012,2.036,4.18,4.18,0,0,0,5.726,1.64,4.215,4.215,0,0,1,1.249-2.641c-4.367-.5-8.959-2.193-8.959-9.758a7.654,7.654,0,0,1,2.026-5.3,7.116,7.116,0,0,1,.192-5.225s1.652-.531,5.409,2.023a18.565,18.565,0,0,1,9.849,0c3.754-2.555,5.4-2.023,5.4-2.023a7.126,7.126,0,0,1,.2,5.225,7.64,7.64,0,0,1,2.021,5.3c0,7.585-4.6,9.254-8.979,9.744a4.724,4.724,0,0,1,1.335,3.656c0,2.641-.025,4.77-.025,5.416C86.965,141.168,84.953,142.286,82,142.345Z" transform="translate(-67.658 -111.325)"/></g></g></svg>