<svg xmlns="http://www.w3.org/2000/svg" viewBox="2991 250 25.145 19.943"><defs><style>.a{fill:#f15a24;}</style></defs><g transform="translate(2991 250)"><path class="a" d="M2.975,4.069a.974.974,0,0,0-.326-.825L.326.422V0H7.62l5.624,12.361L18.2,0h6.948V.422L23.129,2.342a.624.624,0,0,0-.23.557V17.045a.581.581,0,0,0,.23.557l1.958,1.919v.422H15.24v-.422l2.035-1.958c.192-.192.192-.25.192-.557V5.566L11.824,19.9h-.768L4.491,5.566v9.616a1.286,1.286,0,0,0,.365,1.094L7.486,19.5v.422H0V19.5L2.649,16.3A1.292,1.292,0,0,0,2.994,15.2L2.975,4.83Z"/></g></svg>