<svg xmlns="http://www.w3.org/2000/svg" viewBox="2989 190 30.028 25.022"><defs><style>.a{fill:#f15a24;}</style></defs><g transform="translate(2989 148.656)"><path class="a" d="M26.418,50.01a3.61,3.61,0,0,0-2.273.8,17.094,17.094,0,0,0-7.986-2.371l1.561-4.892,4.291,1a3,3,0,1,0,.33-1.593L17.355,41.8a.821.821,0,0,0-.97.546l-1.939,6.071A17.439,17.439,0,0,0,5.828,50.77,3.612,3.612,0,0,0,0,53.587a3.559,3.559,0,0,0,1.563,2.942,6.173,6.173,0,0,0-.06.859c0,2.465,1.446,4.757,4.072,6.455a17.447,17.447,0,0,0,9.379,2.524,17.447,17.447,0,0,0,9.379-2.524c2.625-1.7,4.072-3.99,4.072-6.455a6.436,6.436,0,0,0-.05-.785,3.568,3.568,0,0,0-1.935-6.592Zm-1.4-7.042a1.365,1.365,0,1,1-1.378,1.365A1.374,1.374,0,0,1,25.021,42.968ZM8.515,55.8a2.076,2.076,0,0,1,2.063-2.044A2.05,2.05,0,0,1,12.61,55.8a2.024,2.024,0,0,1-2.032,2.014A2.051,2.051,0,0,1,8.515,55.8Zm11.442,5.922c-1.046,1.034-2.657,1.537-4.928,1.537H15c-2.271,0-3.882-.5-4.926-1.537a.806.806,0,0,1,0-1.149.827.827,0,0,1,1.16,0c.721.714,1.953,1.062,3.767,1.062h.032c1.813,0,3.046-.348,3.768-1.062a.825.825,0,0,1,1.159,0A.808.808,0,0,1,19.957,61.722Zm-.476-3.908A2.053,2.053,0,0,1,17.415,55.8a2.077,2.077,0,0,1,2.066-2.044A2.049,2.049,0,0,1,21.514,55.8,2.024,2.024,0,0,1,19.481,57.813Z"/></g></svg>