<svg xmlns="http://www.w3.org/2000/svg" viewBox="1279.609 219 329.582 329.052">
  <defs>
    <style>
      .cls-1 {
        fill: #f97906;
      }

      .cls-2 {
        fill: #e57200;
      }

      .cls-3 {
        fill: #f4ba38;
      }

      .cls-4 {
        fill: #5b5b5b;
      }

      .cls-5 {
        fill: #3f3f3f;
      }

      .cls-6 {
        fill: #ffcc4d;
      }

      .cls-7 {
        fill: #f29130;
      }

      .cls-8 {
        fill: #0b6382;
      }

      .cls-9 {
        fill: #00233f;
      }

      .cls-10, .cls-14 {
        fill: #727272;
      }

      .cls-10 {
        opacity: 0.2;
      }

      .cls-11 {
        fill: #fffaf5;
      }

      .cls-12 {
        fill: #efebe8;
      }

      .cls-13 {
        fill: #cccac8;
      }

      .cls-15 {
        fill: #ffe650;
      }

      .cls-16 {
        fill: #ffc200;
      }

      .cls-17 {
        fill: #ffed94;
      }

      .cls-18 {
        fill: #686868;
      }

      .cls-19 {
        fill: #a0d827;
      }

      .cls-20 {
        fill: #cff23b;
      }

      .cls-21 {
        fill: #e2336d;
      }

      .cls-22 {
        fill: #f45683;
      }
    </style>
  </defs>
  <g id="robot" transform="translate(1279.609 218.6)">
    <path id="Path_181" data-name="Path 181" class="cls-1" d="M315.979,450.624V412.411c0-29.19-23.352-52.011-52.542-52.011H92.542C63.352,360.4,40,382.691,40,412.411v38.212Z" transform="translate(-13.464 -121.172)"/>
    <path id="Path_182" data-name="Path 182" class="cls-2" d="M40,440.4v37.151H315.979V440.4" transform="translate(-13.464 -148.099)"/>
    <ellipse id="Ellipse_23" data-name="Ellipse 23" class="cls-3" cx="39.274" cy="35.028" rx="39.274" ry="35.028" transform="translate(125.252 213.753)"/>
    <path id="Path_183" data-name="Path 183" class="cls-4" d="M268.647,325.164c0,22.821-18.575,39.8-41.4,39.8H224.6c-22.821,0-41.4-16.983-41.4-39.8V305a41.45,41.45,0,0,1,41.4-41.4h2.654a41.45,41.45,0,0,1,41.4,41.4Z" transform="translate(-61.663 -88.59)"/>
    <path id="Path_184" data-name="Path 184" class="cls-5" d="M248.8,261.2h0c22.821,0,41.928,18.576,41.928,41.4v22.291c0,22.821-18.576,39.8-41.4,39.8h0" transform="translate(-83.744 -87.783)"/>
    <path id="Path_185" data-name="Path 185" class="cls-6" d="M109.307,45.512a2.507,2.507,0,0,1-2.654,2.654h0A2.507,2.507,0,0,1,104,45.512V3.054A2.507,2.507,0,0,1,106.654.4h0a2.507,2.507,0,0,1,2.654,2.654Z" transform="translate(-35.005 0)"/>
    <path id="Path_186" data-name="Path 186" class="cls-3" d="M107.731.4h0c2.123,0,2.654.531,2.654,2.654V41.8q0,3.184-3.184,3.184h0" transform="translate(-36.082 0)"/>
    <rect id="Rectangle_17" data-name="Rectangle 17" class="cls-7" width="15.922" height="21.229" transform="translate(63.687 37.551)"/>
    <path id="Path_187" data-name="Path 187" class="cls-1" d="M96,56.4h15.922V77.629" transform="translate(-32.313 -18.849)"/>
    <path id="Path_188" data-name="Path 188" class="cls-8" d="M117.151,117.02a10.883,10.883,0,0,1-11.145,11.145H91.145A10.883,10.883,0,0,1,80,117.02V91.545A10.883,10.883,0,0,1,91.145,80.4h14.86a10.883,10.883,0,0,1,11.145,11.145Z" transform="translate(-26.927 -26.927)"/>
    <path id="Path_189" data-name="Path 189" class="cls-9" d="M96,80.4h15.391a10.883,10.883,0,0,1,11.145,11.145v24.413c0,6.369-5.838,12.207-11.676,12.207H96" transform="translate(-32.313 -26.927)"/>
    <path id="Path_190" data-name="Path 190" class="cls-8" d="M389.151,117.02a10.883,10.883,0,0,1-11.145,11.145h-14.86A10.883,10.883,0,0,1,352,117.02V91.545A10.883,10.883,0,0,1,363.145,80.4h14.86a10.883,10.883,0,0,1,11.145,11.145Z" transform="translate(-118.48 -26.927)"/>
    <path id="Path_191" data-name="Path 191" class="cls-9" d="M376,80.4h10.615c6.369,0,10.615,5.307,10.615,11.676v23.883c0,6.369-4.246,12.207-10.615,12.207H376" transform="translate(-126.558 -26.927)"/>
    <path id="Path_192" data-name="Path 192" class="cls-1" d="M329.051,191.931c0,29.721-12.737,53.073-42.458,53.073H42.458C12.737,245,0,222.183,0,191.931v-43.52C0,118.691,23.352,96.4,53.6,96.4H275.979c29.721,0,53.6,22.291,53.6,52.542v42.989Z" transform="translate(0 -32.313)"/>
    <path id="Path_193" data-name="Path 193" class="cls-7" d="M329.051,191.931c0,29.721-12.737,53.073-42.458,53.073H42.458C12.737,245,0,222.183,0,191.931v-43.52C0,118.691,23.352,96.4,53.6,96.4H275.979c29.721,0,53.6,22.291,53.6,52.542v42.989Z" transform="translate(0 -32.313)"/>
    <path id="Path_194" data-name="Path 194" class="cls-1" d="M329.051,176.4v42.458c0,29.721-12.737,53.073-42.458,53.073H42.458C12.737,271.931,0,249.11,0,218.858V176.4" transform="translate(0 -59.24)"/>
    <path id="Path_195" data-name="Path 195" class="cls-2" d="M329.051,239.331c0,29.721-12.737,53.6-42.458,53.6H42.458C12.737,292.934,0,269.052,0,238.8" transform="translate(0 -80.243)"/>
    <circle id="Ellipse_24" data-name="Ellipse 24" class="cls-8" cx="54.134" cy="54.134" r="54.134" transform="translate(17.514 82.663)"/>
    <circle id="Ellipse_25" data-name="Ellipse 25" class="cls-10" cx="54.134" cy="54.134" r="54.134" transform="translate(17.514 88.501)"/>
    <path id="Path_196" data-name="Path 196" class="cls-9" d="M108,124.4a54.134,54.134,0,0,1,0,108.269" transform="translate(-36.352 -41.737)"/>
    <g id="Group_74" data-name="Group 74" transform="translate(35.028 100.177)">
      <circle id="Ellipse_26" data-name="Ellipse 26" class="cls-11" cx="36.62" cy="36.62" r="36.62"/>
      <circle id="Ellipse_27" data-name="Ellipse 27" class="cls-11" cx="36.62" cy="36.62" r="36.62"/>
    </g>
    <path id="Path_197" data-name="Path 197" class="cls-12" d="M69.6,161.347a36.778,36.778,0,0,1,52.011,52.011" transform="translate(-23.427 -50.556)"/>
    <g id="Group_75" data-name="Group 75" transform="translate(35.028 89.032)">
      <path id="Path_198" data-name="Path 198" class="cls-13" d="M89.42,160.353c19.637,0,35.559,9.553,36.62,29.19V187.42a36.62,36.62,0,0,0-73.24,0v2.123C54.392,170.437,70.314,160.353,89.42,160.353Z" transform="translate(-52.8 -139.655)"/>
      <circle id="Ellipse_28" data-name="Ellipse 28" class="cls-13" cx="2.123" cy="2.123" r="2.123" transform="translate(23.352)"/>
      <circle id="Ellipse_29" data-name="Ellipse 29" class="cls-13" cx="2.123" cy="2.123" r="2.123" transform="translate(34.497)"/>
      <circle id="Ellipse_30" data-name="Ellipse 30" class="cls-13" cx="2.123" cy="2.123" r="2.123" transform="translate(46.173)"/>
    </g>
    <path id="Path_199" data-name="Path 199" class="cls-14" d="M112.2,202.5a6.9,6.9,0,1,1-6.9-6.9A7.025,7.025,0,0,1,112.2,202.5Z" transform="translate(-33.12 -65.702)"/>
    <path id="Path_200" data-name="Path 200" class="cls-5" d="M108,195.6a6.9,6.9,0,1,1,0,13.8" transform="translate(-36.352 -65.702)"/>
    <g id="Group_76" data-name="Group 76" transform="translate(66.872 132.021)">
      <circle id="Ellipse_31" data-name="Ellipse 31" class="cls-11" cx="2.123" cy="2.123" r="2.123"/>
      <circle id="Ellipse_32" data-name="Ellipse 32" class="cls-11" cx="1.061" cy="1.061" r="1.061" transform="translate(6.899 6.899)"/>
    </g>
    <circle id="Ellipse_33" data-name="Ellipse 33" class="cls-8" cx="54.134" cy="54.134" r="54.134" transform="translate(199.554 82.663)"/>
    <circle id="Ellipse_34" data-name="Ellipse 34" class="cls-10" cx="54.134" cy="54.134" r="54.134" transform="translate(199.554 88.501)"/>
    <path id="Path_201" data-name="Path 201" class="cls-9" d="M382.4,124.4a54.134,54.134,0,1,1,0,108.269" transform="translate(-128.712 -41.737)"/>
    <g id="Group_77" data-name="Group 77" transform="translate(217.068 100.177)">
      <circle id="Ellipse_35" data-name="Ellipse 35" class="cls-11" cx="36.62" cy="36.62" r="36.62"/>
      <circle id="Ellipse_36" data-name="Ellipse 36" class="cls-11" cx="36.62" cy="36.62" r="36.62"/>
    </g>
    <path id="Path_202" data-name="Path 202" class="cls-12" d="M343.2,161.347a36.778,36.778,0,1,1,52.011,52.011" transform="translate(-115.518 -50.556)"/>
    <g id="Group_78" data-name="Group 78" transform="translate(217.068 89.032)">
      <path id="Path_203" data-name="Path 203" class="cls-13" d="M363.82,160.353c19.637,0,35.559,9.553,36.62,29.19V187.42a36.62,36.62,0,0,0-73.241,0v2.123C328.261,170.437,344.183,160.353,363.82,160.353Z" transform="translate(-327.2 -139.655)"/>
      <circle id="Ellipse_37" data-name="Ellipse 37" class="cls-13" cx="2.123" cy="2.123" r="2.123" transform="translate(23.352)"/>
      <circle id="Ellipse_38" data-name="Ellipse 38" class="cls-13" cx="2.123" cy="2.123" r="2.123" transform="translate(34.497)"/>
      <circle id="Ellipse_39" data-name="Ellipse 39" class="cls-13" cx="2.123" cy="2.123" r="2.123" transform="translate(45.643)"/>
    </g>
    <path id="Path_204" data-name="Path 204" class="cls-14" d="M385.8,202.5a6.9,6.9,0,1,1-6.9-6.9A7.025,7.025,0,0,1,385.8,202.5Z" transform="translate(-125.211 -65.702)"/>
    <path id="Path_205" data-name="Path 205" class="cls-5" d="M382.4,195.6a6.9,6.9,0,0,1,0,13.8" transform="translate(-128.712 -65.702)"/>
    <g id="Group_79" data-name="Group 79" transform="translate(248.912 132.021)">
      <circle id="Ellipse_40" data-name="Ellipse 40" class="cls-11" cx="2.123" cy="2.123" r="2.123"/>
      <circle id="Ellipse_41" data-name="Ellipse 41" class="cls-11" cx="1.061" cy="1.061" r="1.061" transform="translate(6.369 6.899)"/>
    </g>
    <path id="Path_206" data-name="Path 206" class="cls-6" d="M102.4,102.238h0c0-2.654,2.123-5.838,4.777-5.838H291.339c2.654,0,4.777,2.654,4.777,5.307h0" transform="translate(-34.467 -32.313)"/>
    <path id="Path_207" data-name="Path 207" class="cls-10" d="M263.151,275.015c0,6.369.531,10.615-5.838,10.615H205.833c-6.369,0-5.838-4.246-5.838-10.615h0c0-6.369,4.777-10.615,11.145-10.615h40.866c6.369,0,11.145,4.246,11.145,10.615Z" transform="translate(-67.312 -88.86)"/>
    <path id="Path_208" data-name="Path 208" class="cls-15" d="M263.151,267.015c0,6.369.531,10.615-5.838,10.615H205.833c-6.369,0-5.838-4.246-5.838-10.615h0c0-6.369,4.777-10.615,11.145-10.615h40.866c6.369,0,11.145,4.246,11.145,10.615Z" transform="translate(-67.312 -86.167)"/>
    <path id="Path_209" data-name="Path 209" class="cls-16" d="M263.151,272.4h0c0,6.369.531,10.615-5.838,10.615H205.833c-6.369,0-5.838-4.777-5.838-10.615h0" transform="translate(-67.312 -91.552)"/>
    <path id="Path_210" data-name="Path 210" class="cls-17" d="M192,89.969,229.151,83.6,266.3,89.969v18.575l-37.151,22.821L192,108.544Z" transform="translate(-64.625 -28.004)"/>
    <path id="Path_211" data-name="Path 211" class="cls-6" d="M192,93.2l37.151,10.084L266.3,93.2v18.575L229.151,134.6,192,111.775Z" transform="translate(-64.625 -31.236)"/>
    <path id="Path_212" data-name="Path 212" class="cls-3" d="M248,103.284,285.151,93.2v18.575L248,134.6" transform="translate(-83.474 -31.236)"/>
    <rect id="Rectangle_18" data-name="Rectangle 18" class="cls-6" width="5.307" height="5.307" transform="translate(69.525 44.45)"/>
    <g id="Group_80" data-name="Group 80" transform="translate(68.995 6.238)">
      <rect id="Rectangle_19" data-name="Rectangle 19" class="cls-17" width="5.307" height="1.592"/>
      <rect id="Rectangle_20" data-name="Rectangle 20" class="cls-17" width="5.307" height="1.592" transform="translate(0 6.899)"/>
      <rect id="Rectangle_21" data-name="Rectangle 21" class="cls-17" width="5.307" height="1.592" transform="translate(0 13.268)"/>
      <rect id="Rectangle_22" data-name="Rectangle 22" class="cls-17" width="5.307" height="1.592" transform="translate(0 20.168)"/>
      <rect id="Rectangle_23" data-name="Rectangle 23" class="cls-17" width="5.307" height="1.592" transform="translate(0 27.067)"/>
    </g>
    <g id="Group_81" data-name="Group 81" transform="translate(122.067 223.306)">
      <rect id="Rectangle_24" data-name="Rectangle 24" class="cls-18" width="84.917" height="5.307"/>
      <rect id="Rectangle_25" data-name="Rectangle 25" class="cls-18" width="84.917" height="5.307" transform="translate(0 10.615)"/>
    </g>
    <rect id="Rectangle_26" data-name="Rectangle 26" class="cls-19" width="21.229" height="21.229" transform="translate(53.073 276.379)"/>
    <path id="Path_213" data-name="Path 213" class="cls-20" d="M95.922,428.076,80,435.506V416.4H95.922Z" transform="translate(-26.927 -140.021)"/>
    <rect id="Rectangle_27" data-name="Rectangle 27" class="cls-21" width="21.229" height="21.229" transform="translate(79.609 276.379)"/>
    <path id="Path_214" data-name="Path 214" class="cls-22" d="M135.922,428.076,120,435.506V416.4h15.922Z" transform="translate(-40.391 -140.021)"/>
    <g id="Group_82" data-name="Group 82" transform="translate(226.621 276.379)">
      <path id="Path_215" data-name="Path 215" class="cls-6" d="M383,443.054a2.507,2.507,0,0,1-2.654,2.654h-36.09a2.507,2.507,0,0,1-2.654-2.654h0a2.507,2.507,0,0,1,2.654-2.654h36.09A2.507,2.507,0,0,1,383,443.054Z" transform="translate(-341.6 -424.478)"/>
      <path id="Path_216" data-name="Path 216" class="cls-6" d="M383,419.054a2.507,2.507,0,0,1-2.654,2.654h-36.09a2.507,2.507,0,0,1-2.654-2.654h0a2.507,2.507,0,0,1,2.654-2.654h36.09A2.507,2.507,0,0,1,383,419.054Z" transform="translate(-341.6 -416.4)"/>
      <path id="Path_217" data-name="Path 217" class="cls-6" d="M383,467.054a2.507,2.507,0,0,1-2.654,2.654h-36.09a2.507,2.507,0,0,1-2.654-2.654h0a2.507,2.507,0,0,1,2.654-2.654h36.09A2.507,2.507,0,0,1,383,467.054Z" transform="translate(-341.6 -432.556)"/>
    </g>
    <path id="Path_218" data-name="Path 218" class="cls-16" d="M247.184,204.048a1.7,1.7,0,0,1-1.592,1.592h0A1.7,1.7,0,0,1,244,204.048V133.992a1.7,1.7,0,0,1,1.592-1.592h0a1.7,1.7,0,0,1,1.592,1.592Z" transform="translate(-82.128 -44.43)"/>
  </g>
</svg>
