<?xml version="1.0" encoding="utf-8"?><svg width="49.67" height="266" viewBox="0 0 49.67 266" xmlns="http://www.w3.org/2000/svg" xmlns:xlink="http://www.w3.org/1999/xlink"><svg viewBox="1733 409 43.996 44" width="44" height="44" id="chrome" xmlns="http://www.w3.org/2000/svg"><defs><style>.acls-1{fill:#ffcc4d}</style></defs><g id="achrome" transform="translate(1732.998 408.988)"><path id="aXMLID_17_" class="acls-1" d="M95.506 103.741a8.222 8.222 0 1 0 8.223-8.223 8.222 8.222 0 0 0-8.223 8.223z" transform="translate(-81.727 -81.727)"/><path id="aXMLID_18_" class="acls-1" d="M68.95 11.16a.361.361 0 0 0 0-.363 22.007 22.007 0 0 0-36.134-2.5.36.36 0 0 0-.031.405l6.195 10.725a.361.361 0 0 0 .312.18.373.373 0 0 0 .049 0 .361.361 0 0 0 .3-.267 10.713 10.713 0 0 1 10.375-8.04c.3 0 .616.014.931.041h17.689a.36.36 0 0 0 .314-.181z" transform="translate(-28.015)"/><path id="aXMLID_19_" class="acls-1" d="M25.253 97.889a.36.36 0 0 0-.382-.126A10.714 10.714 0 0 1 12.3 91.979l-.014-.027L3.45 76.649a.36.36 0 0 0-.312-.18.361.361 0 0 0-.312.184 22.007 22.007 0 0 0 15.9 32.545.356.356 0 0 0 .054 0 .361.361 0 0 0 .312-.18l6.2-10.731a.361.361 0 0 0-.039-.4z" transform="translate(0 -65.426)"/><path id="aXMLID_20_" class="acls-1" d="M171.969 95.226h-12.4a.361.361 0 0 0-.252.618 10.691 10.691 0 0 1 1.3 13.749l-.016.026-8.851 15.329a.361.361 0 0 0 .312.541A22.012 22.012 0 0 0 172.3 95.455a.361.361 0 0 0-.331-.229z" transform="translate(-129.816 -81.477)"/></g></svg><svg viewBox="1733 409 43.996 44" width="44" height="44" id="chrome_hover" y="44" xmlns="http://www.w3.org/2000/svg"><defs><style>.bcls-1{fill:#cff23b}</style></defs><g id="bchrome" transform="translate(1732.998 408.988)"><path id="bXMLID_17_" class="bcls-1" d="M95.506 103.741a8.222 8.222 0 1 0 8.223-8.223 8.222 8.222 0 0 0-8.223 8.223z" transform="translate(-81.727 -81.727)"/><path id="bXMLID_18_" class="bcls-1" d="M68.95 11.16a.361.361 0 0 0 0-.363 22.007 22.007 0 0 0-36.134-2.5.36.36 0 0 0-.031.405l6.195 10.725a.361.361 0 0 0 .312.18.373.373 0 0 0 .049 0 .361.361 0 0 0 .3-.267 10.713 10.713 0 0 1 10.375-8.04c.3 0 .616.014.931.041h17.689a.36.36 0 0 0 .314-.181z" transform="translate(-28.015)"/><path id="bXMLID_19_" class="bcls-1" d="M25.253 97.889a.36.36 0 0 0-.382-.126A10.714 10.714 0 0 1 12.3 91.979l-.014-.027L3.45 76.649a.36.36 0 0 0-.312-.18.361.361 0 0 0-.312.184 22.007 22.007 0 0 0 15.9 32.545.356.356 0 0 0 .054 0 .361.361 0 0 0 .312-.18l6.2-10.731a.361.361 0 0 0-.039-.4z" transform="translate(0 -65.426)"/><path id="bXMLID_20_" class="bcls-1" d="M171.969 95.226h-12.4a.361.361 0 0 0-.252.618 10.691 10.691 0 0 1 1.3 13.749l-.016.026-8.851 15.329a.361.361 0 0 0 .312.541A22.012 22.012 0 0 0 172.3 95.455a.361.361 0 0 0-.331-.229z" transform="translate(-129.816 -81.477)"/></g></svg><svg viewBox="1807 409 49.667 44.415" width="49.67" height="44.42" id="firefox" y="88" xmlns="http://www.w3.org/2000/svg"><defs><style>.ccls-1{fill:#ffcc4d}</style></defs><g id="cfirefox" transform="translate(9796.9 962.339)"><path id="cPath_2218" class="ccls-1" d="M-7947.3-539.8l-.6 3.7s-.8-6.8-1.8-9.4c-1.5-3.9-2.2-3.9-2.2-3.9a7.986 7.986 0 0 1 .8 4s-1.8-5-6.7-6.6c-5.4-1.8-8.3-1.3-8.6-1.2s5.9 1 7 2.5a20.8 20.8 0 0 0-5 .7c-.1 0 9.2 1.2 11.1 10.4 0 0-1-2.1-2.3-2.5a18.777 18.777 0 0 1-.2 9.7c-.1.3-.2-1.3-1.8-2 .5 3.6 0 9.2-2.5 10.8-.2.1 1.5-5.6.4-3.4-6.9 10.6-15.1 4.9-18.7 2.4a11.282 11.282 0 0 0 7-1.2c1.7-1.2 2.7-2 3.6-1.8s1.5-.7.8-1.5a4.763 4.763 0 0 0-4.8-1.3c-1.6.4-3.7 2.3-6.8.4-2.4-1.4-2.6-2.6-2.6-3.4.1-.3.1-.5.2-.8.3-.8 1.1-1 1.6-1.2a8.088 8.088 0 0 1 2.2.7v-.9a1.727 1.727 0 0 0-.1-1l-.3-1.5c0-.2.6-.7 1.2-1.1s1.3-.9 1.8-1.2.9-.5.9-.6l.1-.1a1.911 1.911 0 0 0 .7-1.4v-.7c-.1-.2-.4-.3-1.7-.3h-2.2c-1.6 0-2.5-1.6-2.8-2.2a6.379 6.379 0 0 1 3.4-4.7c.4-.2-4.4 0-6.5 2.8a10.993 10.993 0 0 0-5.1-.1c-.3 0-.7-.1-1-.1a6.917 6.917 0 0 1-2.4-4.4v-.1s-2.9 2.3-2.5 8.4v.3a9.422 9.422 0 0 0-1.2 2.2 23.761 23.761 0 0 0-2 6.9 11.058 11.058 0 0 1 1.2-2.7 24.843 24.843 0 0 0-.8 9s.1-1 .3-2.3a24.26 24.26 0 0 0 3.3 9.8 22.31 22.31 0 0 0 18.2 11.7 25.385 25.385 0 0 0 3.9 0h.4a23.374 23.374 0 0 0 4.5-.7c20.8-5.3 18.6-30.1 18.6-30.1z" transform="translate(7)"/></g></svg><svg viewBox="1807 409 49.667 44.415" width="49.67" height="44.42" id="firefox_hover" y="133" xmlns="http://www.w3.org/2000/svg"><defs><style>.dcls-1{fill:#cff23b}</style></defs><g id="dfirefox" transform="translate(9796.9 962.339)"><path id="dPath_2218" class="dcls-1" d="M-7947.3-539.8l-.6 3.7s-.8-6.8-1.8-9.4c-1.5-3.9-2.2-3.9-2.2-3.9a7.986 7.986 0 0 1 .8 4s-1.8-5-6.7-6.6c-5.4-1.8-8.3-1.3-8.6-1.2s5.9 1 7 2.5a20.8 20.8 0 0 0-5 .7c-.1 0 9.2 1.2 11.1 10.4 0 0-1-2.1-2.3-2.5a18.777 18.777 0 0 1-.2 9.7c-.1.3-.2-1.3-1.8-2 .5 3.6 0 9.2-2.5 10.8-.2.1 1.5-5.6.4-3.4-6.9 10.6-15.1 4.9-18.7 2.4a11.282 11.282 0 0 0 7-1.2c1.7-1.2 2.7-2 3.6-1.8s1.5-.7.8-1.5a4.763 4.763 0 0 0-4.8-1.3c-1.6.4-3.7 2.3-6.8.4-2.4-1.4-2.6-2.6-2.6-3.4.1-.3.1-.5.2-.8.3-.8 1.1-1 1.6-1.2a8.088 8.088 0 0 1 2.2.7v-.9a1.727 1.727 0 0 0-.1-1l-.3-1.5c0-.2.6-.7 1.2-1.1s1.3-.9 1.8-1.2.9-.5.9-.6l.1-.1a1.911 1.911 0 0 0 .7-1.4v-.7c-.1-.2-.4-.3-1.7-.3h-2.2c-1.6 0-2.5-1.6-2.8-2.2a6.379 6.379 0 0 1 3.4-4.7c.4-.2-4.4 0-6.5 2.8a10.993 10.993 0 0 0-5.1-.1c-.3 0-.7-.1-1-.1a6.917 6.917 0 0 1-2.4-4.4v-.1s-2.9 2.3-2.5 8.4v.3a9.422 9.422 0 0 0-1.2 2.2 23.761 23.761 0 0 0-2 6.9 11.058 11.058 0 0 1 1.2-2.7 24.843 24.843 0 0 0-.8 9s.1-1 .3-2.3a24.26 24.26 0 0 0 3.3 9.8 22.31 22.31 0 0 0 18.2 11.7 25.385 25.385 0 0 0 3.9 0h.4a23.374 23.374 0 0 0 4.5-.7c20.8-5.3 18.6-30.1 18.6-30.1z" transform="translate(7)"/></g></svg><svg viewBox="1887 409 43.94 44" width="43.94" height="44" id="opera" y="178" xmlns="http://www.w3.org/2000/svg"><defs><style>.ecls-1{fill:#ffcc4d}</style></defs><path id="eopera" class="ecls-1" d="M22 44c-.349 0-.7-.014-1.048-.028A22 22 0 0 1 22 0h.084a21.887 21.887 0 0 1 14.583 5.6 15.843 15.843 0 0 0-8.814-2.7 16.547 16.547 0 0 0-13.089 6.7 19.2 19.2 0 0 0-4.121 11.873V22.5a19.09 19.09 0 0 0 4.121 11.873 16.547 16.547 0 0 0 13.088 6.691 15.775 15.775 0 0 0 8.814-2.7A21.851 21.851 0 0 1 22 44zm15.617-6.509a14.2 14.2 0 0 1-13.675.545c5.6-1.159 9.89-7.892 9.89-16.036s-4.289-14.89-9.89-16.036a14.193 14.193 0 0 1 6.327-1.494 14.374 14.374 0 0 1 7.347 2.053 21.971 21.971 0 0 1 0 30.968z" transform="translate(1886.94 409)"/></svg><svg viewBox="1887 409 43.94 44" width="43.94" height="44" id="opera_hover" y="222" xmlns="http://www.w3.org/2000/svg"><defs><style>.fcls-1{fill:#cff23b}</style></defs><path id="fopera" class="fcls-1" d="M22 44c-.349 0-.7-.014-1.048-.028A22 22 0 0 1 22 0h.084a21.887 21.887 0 0 1 14.583 5.6 15.843 15.843 0 0 0-8.814-2.7 16.547 16.547 0 0 0-13.089 6.7 19.2 19.2 0 0 0-4.121 11.873V22.5a19.09 19.09 0 0 0 4.121 11.873 16.547 16.547 0 0 0 13.088 6.691 15.775 15.775 0 0 0 8.814-2.7A21.851 21.851 0 0 1 22 44zm15.617-6.509a14.2 14.2 0 0 1-13.675.545c5.6-1.159 9.89-7.892 9.89-16.036s-4.289-14.89-9.89-16.036a14.193 14.193 0 0 1 6.327-1.494 14.374 14.374 0 0 1 7.347 2.053 21.971 21.971 0 0 1 0 30.968z" transform="translate(1886.94 409)"/></svg></svg>