<?xml version="1.0" encoding="utf-8"?><svg width="46" height="21.07" viewBox="0 0 46 21.07" xmlns="http://www.w3.org/2000/svg" xmlns:xlink="http://www.w3.org/1999/xlink"><svg viewBox="4907.917 161 28.361 16.311" width="28.36" height="16.31" id="check" xmlns="http://www.w3.org/2000/svg"><defs><style>.acls-1{fill:#30b900}</style></defs><g id="adouble-tick-indicator" transform="translate(4907.917 34.775)"><g id="adone-all" transform="translate(0 126.225)"><path id="aPath_450" data-name="Path 450" class="acls-1" d="M21.423 127.929l-1.7-1.7-7.668 7.668 1.7 1.7zm5.112-1.7l-12.781 12.9-5.112-5.112-1.7 1.7 6.816 6.816 14.606-14.606zM0 135.719l6.816 6.816 1.7-1.7-6.816-6.82z" transform="translate(0 -126.225)"/></g></g></svg><svg viewBox="4204 263 16.874 21.073" width="16.87" height="21.07" id="copy" x="29" xmlns="http://www.w3.org/2000/svg"><defs><style>.bcls-1{fill:#03a5ed}</style></defs><g id="bcopy" transform="translate(3472 -5.086)"><g id="bGroup_172" data-name="Group 172" transform="translate(732 268.086)"><path id="bPath_450" data-name="Path 450" class="bcls-1" d="M60.112 85.4h-9.8a1.667 1.667 0 0 0-1.666 1.666v14.056a1.667 1.667 0 0 0 1.666 1.666h9.8a1.667 1.667 0 0 0 1.666-1.666V87.066a1.672 1.672 0 0 0-1.666-1.666zm.5 15.717a.5.5 0 0 1-.5.5h-9.8a.5.5 0 0 1-.5-.5V87.066a.5.5 0 0 1 .5-.5h9.8a.5.5 0 0 1 .5.5z" transform="translate(-48.65 -81.715)"/><path id="bPath_451" data-name="Path 451" class="bcls-1" d="M146.912 0h-9.8a1.667 1.667 0 0 0-1.666 1.666.583.583 0 1 0 1.165 0 .5.5 0 0 1 .5-.5h9.8a.5.5 0 0 1 .5.5v14.056a.5.5 0 0 1-.5.5.583.583 0 0 0 0 1.165 1.667 1.667 0 0 0 1.666-1.666V1.666A1.667 1.667 0 0 0 146.912 0z" transform="translate(-131.704)"/></g></g></svg></svg>