<?xml version="1.0" encoding="utf-8"?><svg width="512" height="30" viewBox="0 0 512 30" xmlns="http://www.w3.org/2000/svg" xmlns:xlink="http://www.w3.org/1999/xlink"><svg viewBox="4204 263 16.874 21.073" width="16.87" height="21.07" id="copy" xmlns="http://www.w3.org/2000/svg"><defs><style>.acls-1{fill:#03a5ed}</style></defs><g id="acopy" transform="translate(3472 -5.086)"><g id="aGroup_172" data-name="Group 172" transform="translate(732 268.086)"><path id="aPath_450" data-name="Path 450" class="acls-1" d="M60.112 85.4h-9.8a1.667 1.667 0 0 0-1.666 1.666v14.056a1.667 1.667 0 0 0 1.666 1.666h9.8a1.667 1.667 0 0 0 1.666-1.666V87.066a1.672 1.672 0 0 0-1.666-1.666zm.5 15.717a.5.5 0 0 1-.5.5h-9.8a.5.5 0 0 1-.5-.5V87.066a.5.5 0 0 1 .5-.5h9.8a.5.5 0 0 1 .5.5z" transform="translate(-48.65 -81.715)"/><path id="aPath_451" data-name="Path 451" class="acls-1" d="M146.912 0h-9.8a1.667 1.667 0 0 0-1.666 1.666.583.583 0 1 0 1.165 0 .5.5 0 0 1 .5-.5h9.8a.5.5 0 0 1 .5.5v14.056a.5.5 0 0 1-.5.5.583.583 0 0 0 0 1.165 1.667 1.667 0 0 0 1.666-1.666V1.666A1.667 1.667 0 0 0 146.912 0z" transform="translate(-131.704)"/></g></g></svg><svg id="flag-de" viewBox="0 0 30 19.7" width="30" height="19.7" x="17" xmlns="http://www.w3.org/2000/svg"><style>.bst0{fill:#464655}.bst1{fill:#ffe15a}.bst2{fill:#ff4b55}</style><path class="bst0" d="M30 6.6H0v-6C0 .2.2 0 .5 0h29c.3 0 .5.2.5.5v6.1z"/><path class="bst1" d="M29.5 19.7H.5c-.3 0-.5-.2-.5-.5v-6h30v6c0 .2-.2.5-.5.5z"/><path class="bst2" d="M0 6.6h30v6.6H0z"/></svg><svg id="flag-en" viewBox="0 0 30 19.7" width="30" height="19.7" x="47" xmlns="http://www.w3.org/2000/svg"><style>.cst0{fill:#41479b}.cst1{fill:#f5f5f5}.cst2{fill:#ff4b55}</style><path class="cst0" d="M29.5 19.7H.5c-.3 0-.5-.2-.5-.5V.5C0 .2.2 0 .5 0h29c.3 0 .5.2.5.5v18.6c0 .3-.2.6-.5.6z"/><path class="cst1" d="M30 .5c0-.3-.2-.5-.5-.5h-2.3l-9.6 6.3V0h-5.2v6.3L2.8 0H.5C.2 0 0 .2 0 .5v1.3l8.2 5.4H0v5.2h8.2L0 17.8v1.3c0 .3.2.5.5.5h2.3l9.6-6.3v6.3h5.2v-6.3l9.6 6.3h2.3c.3 0 .5-.2.5-.5v-1.3l-8.2-5.4H30V7.2h-8.2L30 1.9V.5z"/><path class="cst2" d="M30 8.3H16.6V0h-3.2v8.3H0v3.1h13.4v8.3h3.2v-8.3H30z"/><path class="cst2" d="M10.5 12.4L0 19.2c0 .2.2.4.5.4h.7l11.2-7.2h-1.9zm9.8 0h-1.9l11.1 7.2c.3 0 .5-.2.5-.5v-.4l-9.7-6.3zM0 1.1l9.5 6.2h1.9L.3.1C.1.1 0 .3 0 .5v.6zm19.5 6.1L30 .4c0-.2-.2-.4-.5-.4h-.7L17.6 7.2h1.9z"/></svg><svg id="flag-jp" viewBox="0 0 30 20" width="30" height="20" x="77" xmlns="http://www.w3.org/2000/svg"><style>.dst0{fill:#f0f0f0}.dst1{fill:#d80027}</style><path class="dst0" d="M0 0h30v20H0z"/><circle class="dst1" cx="15" cy="10" r="5.6"/></svg><svg id="flag-ru" viewBox="0 0 30 19.7" width="30" height="19.7" x="107" xmlns="http://www.w3.org/2000/svg"><style>.est0{fill:#f5f5f5}.est1{fill:#ff4b55}.est2{fill:#41479b}</style><path class="est0" d="M30 6.6H0v-6C0 .2.2 0 .5 0h29c.3 0 .5.2.5.5v6.1z"/><path class="est1" d="M29.5 19.7H.5c-.3 0-.5-.2-.5-.5v-6h30v6c0 .2-.2.5-.5.5z"/><path class="est2" d="M0 6.6h30v6.6H0z"/></svg><svg id="flag-zh" viewBox="0 0 30 19.7" width="30" height="19.7" x="137" xmlns="http://www.w3.org/2000/svg"><style>.fst0{fill:#ff4b55}.fst1{fill:#ffe15a}</style><path class="fst0" d="M29.5 19.7H.5c-.3 0-.5-.2-.5-.5V.5C0 .2.2 0 .5 0h29c.3 0 .5.2.5.5v18.6c0 .3-.2.6-.5.6z"/><path class="fst1" d="M5 3.1l.5 1.5h1.6c.2 0 .3.3.1.4l-1.3.9.5 1.5c0 .1-.2.3-.4.2l-1.2-.9-1.3.9c-.2.1-.4 0-.3-.2l.5-1.5-1.3-1c-.2-.1-.1-.3.1-.3h1.6l.5-1.5c0-.2.3-.2.4 0zm5.6.3l.4.5.6-.2c.1 0 .1.1.1.1l-.3.5.3.5c0 .1 0 .1-.1.1l-.6-.1-.4.5c0 .1-.1 0-.1 0v-.6l-.6-.3c-.1 0-.1-.1 0-.2l.6-.2v-.6h.1zM8.5 2l.6.1.3-.5c0-.1.1-.1.2 0l.1.6.6.1c.1 0 .1.1 0 .1l-.6.2.1.6c0 .1-.1.1-.1.1l-.4-.4-.6.3c-.1 0-.1 0-.1-.1l.2-.5-.4-.5s0-.1.1-.1zm.9 5.8l-.3.5-.6-.2c-.1 0-.1.1-.1.1l.3.5-.3.5c0 .1 0 .1.1.1l.6-.2.4.5c0 .1.1 0 .1 0V9l.6-.2c.1 0 .1-.1 0-.2l-.6-.2v-.6s-.1-.1-.2 0zm2.2-1.4l-.6.1-.3-.5c0-.1-.1-.1-.2 0l-.1.6h-.5c-.1 0-.1.1 0 .1l.5.3-.1.6c0 .1.1.1.1.1l.4-.4.5.3c.1 0 .1 0 .1-.1l-.2-.5.4-.4c.1-.1.1-.2 0-.2z"/></svg><svg width="13.758" height="9.899" viewBox="0 0 13.758 9.899" id="i-check" x="167" xmlns="http://www.w3.org/2000/svg"><path d="M4.95 9.9a1.087 1.087 0 0 1-.772-.32L.32 5.721a1.091 1.091 0 1 1 1.543-1.543L4.95 7.269 11.9.32a1.091 1.091 0 1 1 1.543 1.543L5.722 9.58a1.088 1.088 0 0 1-.772.32z" fill="#54ce63"/></svg><svg width="22.45" height="22.451" viewBox="0 0 22.45 22.451" id="i-checked" x="181" xmlns="http://www.w3.org/2000/svg"><path data-name="Path 1166" d="M11.225 0A11.225 11.225 0 1 0 22.45 11.225 11.225 11.225 0 0 0 11.225 0zm0 20.346a9.121 9.121 0 1 1 9.12-9.121 9.12 9.12 0 0 1-9.12 9.121zm4.412-13.9a.977.977 0 0 0-1.361.379l-3.764 6.765-2.1-2.552a1.055 1.055 0 0 0-1.36-.379 1.038 1.038 0 0 0-.366 1.413l2.917 3.551a1.231 1.231 0 0 0 .728.5h.027a1.273 1.273 0 0 0 1.32-.507l4.32-7.76a1.057 1.057 0 0 0-.361-1.406z" fill="#54ce63"/></svg><svg width="22.446" height="22.446" viewBox="0 0 22.446 22.446" id="i-error" x="204" xmlns="http://www.w3.org/2000/svg"><path data-name="Path 1165" d="M11.223 0a11.223 11.223 0 1 0 11.223 11.223A11.223 11.223 0 0 0 11.223 0zm0 20.342a9.119 9.119 0 1 1 9.119-9.119 9.118 9.118 0 0 1-9.119 9.119zm0-15.42c-.8 0-1.412.419-1.412 1.1v6.215c0 .678.608 1.1 1.412 1.1.784 0 1.412-.436 1.412-1.1V6.019c.001-.661-.627-1.097-1.411-1.097zm0 9.808a1.4 1.4 0 1 0 1.4 1.4 1.4 1.4 0 0 0-1.399-1.4z" fill="#f15a24"/></svg><svg id="i-menu-dark" viewBox="0 0 30 30" width="30" height="30" x="227" xmlns="http://www.w3.org/2000/svg"><style>.jst0{fill:#fff}</style><path class="jst0" d="M15 0C6.7 0 0 6.7 0 15s6.7 15 15 15 15-6.7 15-15S23.3 0 15 0zm6.4 22H8.6c-.6 0-1.1-.5-1.1-1.1s.5-1.1 1.1-1.1h12.9c.6 0 1.1.5 1.1 1.1S22 22 21.4 22zm0-5.9H8.6c-.6 0-1.1-.5-1.1-1.1s.5-1.1 1.1-1.1h12.9c.6 0 1.1.5 1.1 1.1s-.6 1.1-1.2 1.1zm0-5.9H8.6c-.6 0-1.1-.5-1.1-1.1C7.5 8.5 8 8 8.6 8h12.9c.6 0 1.1.5 1.1 1.1-.1.6-.6 1.1-1.2 1.1z"/></svg><svg id="i-menu-light" viewBox="0 0 30 19.2" width="30" height="19.2" x="257" xmlns="http://www.w3.org/2000/svg"><style>.kst0{fill:#fff}</style><path class="kst0" d="M1.1 2.3h27.7c.6 0 1.1-.5 1.1-1.1s-.4-1.2-1-1.2H1.1C.5 0 0 .5 0 1.1s.5 1.2 1.1 1.2zm0 8.5h27.7c.6 0 1.1-.5 1.1-1.1s-.5-1.1-1.1-1.1H1.1C.5 8.5 0 9 0 9.6s.5 1.2 1.1 1.2zm0 8.4h27.7c.6 0 1.1-.5 1.1-1.1 0-.6-.5-1.1-1.1-1.1H1.1c-.6 0-1.1.5-1.1 1.1 0 .6.5 1.1 1.1 1.1z"/></svg><svg width="25.257" height="25.257" viewBox="0 0 25.257 25.257" id="logo-aira" x="287" xmlns="http://www.w3.org/2000/svg"><g data-name="Group 1349"><path data-name="Rectangle 764" fill="#fff" d="M12.268 12.749h.401v10.183h-.401z"/></g><g data-name="Group 1350"><path data-name="Rectangle 765" fill="#fff" d="M22.771 2.325h.401v20.687h-.401z"/></g><g data-name="Group 1351"><path data-name="Rectangle 766" fill="#fff" d="M2.14 22.833L22.778 2.195l.283.284L2.424 23.117z"/></g><g data-name="Group 1352"><path data-name="Rectangle 767" fill="#fff" d="M2.325 22.771h20.687v.401H2.325z"/></g><g data-name="Group 1353"><path data-name="Rectangle 768" fill="#fff" d="M12.332 22.792l10.46-10.176.28.288-10.46 10.175z"/></g><g data-name="Group 1358"><circle data-name="Ellipse 249" cx="2.325" cy="2.325" r="2.325" fill="#fff" transform="translate(20.606 20.606)"/></g><g data-name="Group 1359"><circle data-name="Ellipse 250" cx="2.325" cy="2.325" r="2.325" fill="#fff" transform="translate(20.606)"/></g><g data-name="Group 1360"><circle data-name="Ellipse 251" cx="2.325" cy="2.325" r="2.325" fill="#fff" transform="translate(20.606 10.263)"/></g><g data-name="Group 1361"><circle data-name="Ellipse 252" cx="2.325" cy="2.325" r="2.325" fill="#fff" transform="translate(0 20.606)"/></g><g data-name="Group 1362"><circle data-name="Ellipse 253" cx="2.325" cy="2.325" r="2.325" fill="#fff" transform="translate(10.263 20.606)"/></g><g data-name="Group 1363"><circle data-name="Ellipse 254" cx="2.325" cy="2.325" r="2.325" fill="#fff" transform="translate(10.263 10.423)"/></g></svg><svg id="logo-aira-pale" width="25.3" height="25.3" viewBox="0 0 25.3 25.3" x="313" xmlns="http://www.w3.org/2000/svg"><style>.mst0{fill:#7481b9}</style><g id="mGroup_1349" transform="translate(12.268 12.749)"><path id="mRectangle_764" class="mst0" d="M0 0h.4v10.2H0z"/></g><g id="mGroup_1350" transform="translate(22.771 2.325)"><path id="mRectangle_765" class="mst0" d="M0 0h.4v20.7H0z"/></g><g id="mGroup_1351" transform="translate(2.14 2.196)"><path id="mRectangle_766" transform="rotate(-45.001 10.46 10.46)" class="mst0" d="M-4.1 10.3h29.2v.4H-4.1z"/></g><g id="mGroup_1352" transform="translate(2.325 22.771)"><path id="mRectangle_767" class="mst0" d="M0 0h20.7v.4H0z"/></g><g id="mGroup_1353" transform="translate(12.332 12.616)"><path id="mRectangle_768" transform="rotate(-44.209 5.37 5.232)" class="mst0" d="M-1.9 5h14.6v.4H-1.9z"/></g><g id="mGroup_1358" transform="translate(20.606 20.606)"><circle id="mEllipse_249" class="mst0" cx="2.3" cy="2.3" r="2.3"/></g><g id="mGroup_1359" transform="translate(20.606)"><circle id="mEllipse_250" class="mst0" cx="2.3" cy="2.3" r="2.3"/></g><g id="mGroup_1360" transform="translate(20.606 10.263)"><circle id="mEllipse_251" class="mst0" cx="2.3" cy="2.3" r="2.3"/></g><g id="mGroup_1361" transform="translate(0 20.606)"><circle id="mEllipse_252" class="mst0" cx="2.3" cy="2.3" r="2.3"/></g><g id="mGroup_1362" transform="translate(10.263 20.606)"><circle id="mEllipse_253" class="mst0" cx="2.3" cy="2.3" r="2.3"/></g><g id="mGroup_1363" transform="translate(10.263 10.423)"><circle id="mEllipse_254" class="mst0" cx="2.3" cy="2.3" r="2.3"/></g></svg><svg width="33.481" height="29.491" viewBox="0 0 33.481 29.491" id="logo-robonomics" x="339" xmlns="http://www.w3.org/2000/svg"><g data-name="3_Robonomics_logo_white"><g data-name="Group 2881"><path data-name="Path 1161" d="M16.778 1.003l-15.7 27.2h31.411z" fill="none" stroke="#fff" stroke-miterlimit="10" stroke-width=".4"/><circle data-name="Ellipse 281" cx="1.107" cy="1.107" r="1.107" transform="rotate(-25.517 75.973 -53.666)" fill="#fff"/><circle data-name="Ellipse 282" cx="1.107" cy="1.107" r="1.107" transform="translate(15.694)" fill="#fff"/><circle data-name="Ellipse 283" cx="1.107" cy="1.107" r="1.107" transform="translate(0 26.922)" fill="#fff"/></g><g data-name="Group 2882" fill="#fff"><path data-name="Path 1162" d="M10.084 23.37h13.679l-6.839-3.609z"/><path data-name="Path 1163" d="M16.654 10.907L9.696 22.963l6.972-3.67z"/><path data-name="Path 1164" d="M24.145 22.949l-6.943-12.028.057 8.325z"/></g></g></svg><svg id="logo-robonomics-pale" width="33.5" height="29.5" viewBox="0 0 33.5 29.5" x="373" xmlns="http://www.w3.org/2000/svg"><style>.ost0{fill:#7481b9}</style><g id="o_3_Robonomics_logo_white" transform="translate(-150 -192)"><g id="oGroup_2881" transform="translate(150 192)"><path class="ost0" d="M32.8 28.4H.7L16.7.6l16.1 27.8zM1.4 28h30.7L16.8 1.4 1.4 28z" id="oPath_1161"/><circle class="ost0" cx="32" cy="28" r="1.1" id="oEllipse_281"/><circle class="ost0" cx="16.8" cy="1.1" r="1.1" id="oEllipse_282"/><circle class="ost0" cx="1.1" cy="28" r="1.1" id="oEllipse_283"/></g><g id="oGroup_2882" transform="translate(159.696 202.907)"><path class="ost0" d="M.4 12.5h13.7L7.2 8.9.4 12.5z" id="oPath_1162"/><path class="ost0" d="M7 0L0 12.1l7-3.7V0z" id="oPath_1163"/><path class="ost0" d="M14.4 12L7.5 0l.1 8.3 6.8 3.7z" id="oPath_1164"/></g></g></svg><svg id="sleep" width="39.8" height="28" viewBox="0 0 39.8 28" x="407" xmlns="http://www.w3.org/2000/svg"><style>.pst0{fill:#fff}</style><path class="pst0" d="M12.4 6.2c-.3 0-.6.2-.8.4-1.8 2-2.8 4.7-2.8 7.4s1 5.4 2.8 7.4c.2.2.5.4.8.4.3 0 .6-.1.9-.3l2.2-2.2c.4-.4.5-1.1.1-1.6-.9-1-1.3-2.3-1.3-3.6 0-1.3.5-2.6 1.3-3.6.2-.2.3-.5.3-.8 0-.3-.1-.6-.3-.8l-2.2-2.2c-.4-.4-.7-.5-1-.5zm2.3 3.4c-1 1.2-1.6 2.8-1.6 4.4 0 1.6.6 3.2 1.6 4.4l-2.2 2.3C10.9 18.9 10 16.5 10 14s.9-4.8 2.5-6.7l2.2 2.3zm3.4 2.6c-.5.5-.7 1.1-.7 1.8s.3 1.3.7 1.8c1 1 2.6 1 3.5 0 .5-.5.7-1.1.7-1.8 0-.6-.2-1.3-.7-1.8-.5-.5-1.1-.7-1.8-.7-.6 0-1.2.3-1.7.7zm2.7.9c.5.5.5 1.3 0 1.8s-1.3.5-1.8 0c-.2-.2-.4-.6-.4-.9 0-.3.1-.7.4-.9.2-.2.6-.4.9-.4.3 0 .7.1.9.4z"/><path class="pst0" d="M5.4.4C-1.8 8-1.8 20 5.4 27.6c.2.3.5.4.8.4.3 0 .6-.1.9-.3l2.2-2.2c.5-.5.5-1.2 0-1.6-2.5-2.7-3.8-6.1-3.8-9.8 0-3.6 1.4-7.1 3.8-9.8.3-.3.4-.6.4-.9 0-.3-.1-.6-.3-.8L7.1.3C6.9.1 6.6 0 6.2 0c-.3 0-.6.1-.8.4zm3.1 3C5.8 6.3 4.4 10.1 4.4 14c0 3.9 1.5 7.7 4.1 10.6l-2.2 2.2C-.4 19.6-.4 8.4 6.3 1.2l2.2 2.2zM26.6 6.5l-2.2 2.2c-.3.3-.4.6-.4.9 0 .3.1.5.3.8.9 1 1.3 2.3 1.3 3.6 0 1.3-.5 2.6-1.3 3.6-.4.5-.4 1.2.1 1.6l2.2 2.2c.2.2.5.4.9.3.3 0 .6-.2.8-.4 1.8-2 2.8-4.7 2.8-7.4s-1-5.4-2.8-7.4c-.2-.2-.5-.4-.8-.4-.4.1-.7.2-.9.4zm.8.8c1.6 1.8 2.5 4.2 2.5 6.7s-.9 4.8-2.5 6.7l-2.2-2.3c1-1.2 1.6-2.8 1.6-4.4 0-1.6-.6-3.2-1.6-4.4l2.2-2.3zm-7.5 4.2c-.7 0-1.3.3-1.8.7-.5.5-.7 1.1-.7 1.8 0 .6.2 1.3.7 1.8 1 1 2.5 1 3.5 0 .5-.5.7-1.1.7-1.8s-.3-1.3-.7-1.8c-.4-.4-1-.7-1.7-.7zm0 1.2c.3 0 .7.1.9.4.2.2.4.6.4.9 0 .3-.1.7-.4.9-.5.5-1.3.5-1.8 0s-.5-1.3 0-1.8c.2-.3.6-.4.9-.4z"/><path class="pst0" d="M33.6 0c-.3 0-.6.1-.9.3l-2.2 2.2c-.2.2-.3.5-.3.8 0 .3.1.6.3.8 2.5 2.7 3.8 6.1 3.8 9.8 0 3.6-1.4 7.1-3.8 9.8-.4.5-.4 1.2 0 1.6l2.2 2.2c.2.2.5.4.9.3.3 0 .6-.1.8-.4 7.2-7.6 7.2-19.6 0-27.3-.2 0-.5-.1-.8-.1zm0 1.2c6.8 7.2 6.8 18.4 0 25.6l-2.2-2.2c2.7-2.9 4.1-6.6 4.1-10.6 0-3.9-1.5-7.7-4.1-10.6l2.2-2.2z"/></svg><svg id="user-unknown" viewBox="0 0 25 23.4" width="25" height="23.4" x="447" xmlns="http://www.w3.org/2000/svg"><style>.qst0{fill:#999}</style><path class="qst0" d="M19.6 13.6c0-5.4-4.4-9.8-9.8-9.8S0 8.2 0 13.6c0 2.8 1.2 5.4 3.2 7.3l.3.2s.1 0 .1.1c.2.2.3.2.6.4l.2.2c.2.1.4.2.6.4.1 0 .1.1.2.1.2.2.5.2.7.3H6c.7.3 1.6.7 2.3.8h.1c.3.1.6.1.8.1h1.7c.2 0 .6-.1.7-.1h.1c.8-.2 1.6-.4 2.3-.7.2-.1.5-.2.7-.3.1 0 .1-.1.2-.1.2-.1.4-.2.6-.4.1-.1.2-.1.2-.2.2-.1.3-.2.5-.3l.1-.1.3-.2c1.7-2.1 3-4.7 3-7.5zm-18.9 0c0-5 4.1-9.1 9.1-9.1s9.1 4.1 9.1 9.1c0 2.7-1.2 5.1-3.1 6.8-.1-.1-.2-.2-.3-.2l-2.9-1.5c-.2-.2-.5-.4-.5-.7v-1c.1-.1.2-.2.2-.3.4-.6.7-1.2.9-1.8.5-.2.7-.7.7-1.2v-1.2c0-.3-.1-.7-.3-.8V10c0-.2.1-1.2-.7-2.1-.7-.7-1.8-1.1-3.2-1.1s-2.4.3-3 1c-.8.9-.7 2-.7 2.1v1.7c-.3.2-.3.6-.3.8v1.2c0 .4.2.8.5 1 .3 1.1.8 2 1.1 2.3v1c0 .3-.2.6-.4.7L4 20.2c-.1.1-.2.1-.3.2-1.8-1.8-3-4.2-3-6.8z"/><path class="qst0" d="M9.8 5.3c4.6 0 8.2 3.7 8.2 8.2s-3.7 8.2-8.2 8.2-8.2-3.8-8.2-8.2 3.6-8.2 8.2-8.2m0-1.5C4.4 3.8 0 8.1 0 13.6s4.4 9.8 9.8 9.8 9.8-4.4 9.8-9.8-4.4-9.8-9.8-9.8z"/><path class="qst0" d="M19.4 0c-3.1 0-5.6 2.5-5.6 5.6s2.5 5.6 5.6 5.6S25 8.7 25 5.6 22.5 0 19.4 0zm.4 8.8c0 .1-.2.2-.5.2-.2 0-.4-.1-.5-.2-.1-.1-.2-.2-.2-.4s.1-.3.2-.5c.1-.1.2-.2.5-.2.2 0 .3.1.5.2.2.2.2.3.2.6 0 .1-.1.2-.2.3zm.9-3.4l-.6.6c-.2.2-.3.6-.3 1h-1c0-.4 0-.7.2-.9.1-.2.3-.5.7-.8.3-.3.5-.5.6-.7.2-.2.2-.4.2-.7 0-.3-.1-.5-.2-.7-.2-.2-.3-.2-.7-.2-.2 0-.5.1-.7.2-.2.2-.2.3-.2.6h-1c0-.6.2-.9.6-1.2s.8-.5 1.4-.5c.7 0 1.1.2 1.4.5.2.4.4.8.4 1.4-.1.5-.3.9-.8 1.4z"/></svg><svg id="work" width="39.8" height="28" viewBox="0 0 39.8 28" x="472" xmlns="http://www.w3.org/2000/svg"><style>.rst0{fill:#fff}</style><path class="rst0" d="M12.4 6.2c-.3 0-.6.2-.8.4-1.8 2-2.8 4.7-2.8 7.4s1 5.4 2.8 7.4c.2.2.5.4.8.4.3 0 .6-.1.9-.3l2.2-2.2c.4-.4.5-1.1.1-1.6-.9-1-1.3-2.3-1.3-3.6 0-1.3.5-2.6 1.3-3.6.2-.2.3-.5.3-.8 0-.3-.1-.6-.3-.8l-2.2-2.2c-.4-.4-.7-.5-1-.5zm5.7 6c-.5.5-.7 1.1-.7 1.8s.3 1.3.7 1.8c1 1 2.6 1 3.5 0 .5-.5.7-1.1.7-1.8 0-.6-.2-1.3-.7-1.8-.5-.5-1.1-.7-1.8-.7-.6 0-1.2.3-1.7.7zm2.7.9c.5.5.5 1.3 0 1.8s-1.3.5-1.8 0c-.2-.2-.4-.6-.4-.9 0-.3.1-.7.4-.9.2-.2.6-.4.9-.4.3 0 .7.1.9.4z"/><path class="rst0" d="M5.4.4C-1.8 8-1.8 20 5.4 27.6c.2.3.5.4.8.4.3 0 .6-.1.9-.3l2.2-2.2c.5-.5.5-1.2 0-1.6-2.5-2.7-3.8-6.1-3.8-9.8 0-3.6 1.4-7.1 3.8-9.8.3-.3.4-.6.4-.9 0-.3-.1-.6-.3-.8L7.1.3C6.9.1 6.6 0 6.2 0c-.3 0-.6.1-.8.4zM26.6 6.5l-2.2 2.2c-.3.3-.4.6-.4.9 0 .3.1.5.3.8.9 1 1.3 2.3 1.3 3.6 0 1.3-.5 2.6-1.3 3.6-.4.5-.4 1.2.1 1.6l2.2 2.2c.2.2.5.4.9.3.3 0 .6-.2.8-.4 1.8-2 2.8-4.7 2.8-7.4s-1-5.4-2.8-7.4c-.2-.2-.5-.4-.8-.4-.4.1-.7.2-.9.4zm-6.7 5c-.7 0-1.3.3-1.8.7-.5.5-.7 1.1-.7 1.8 0 .6.2 1.3.7 1.8 1 1 2.5 1 3.5 0 .5-.5.7-1.1.7-1.8s-.3-1.3-.7-1.8c-.4-.4-1-.7-1.7-.7z"/><path class="rst0" d="M33.6 0c-.3 0-.6.1-.9.3l-2.2 2.2c-.2.2-.3.5-.3.8 0 .3.1.6.3.8 2.5 2.7 3.8 6.1 3.8 9.8 0 3.6-1.4 7.1-3.8 9.8-.4.5-.4 1.2 0 1.6l2.2 2.2c.2.2.5.4.9.3.3 0 .6-.1.8-.4 7.2-7.6 7.2-19.6 0-27.3-.2 0-.5-.1-.8-.1z"/></svg></svg>