<svg xmlns="http://www.w3.org/2000/svg" xmlns:xlink="http://www.w3.org/1999/xlink" viewBox="7676.477 2857.481 121.403 36.648">
  <defs>
    <style>
      .cls-1 {
        fill: #5277c3;
      }

      .cls-1, .cls-2, .cls-3 {
        fill-rule: evenodd;
      }

      .cls-2 {
        fill: #7ebae4;
      }

      .cls-3 {
        fill: url(#linear-gradient);
      }

      .cls-4 {
        fill: #fff;
      }
    </style>
    <linearGradient id="linear-gradient" x1="-0.411" y1="5.004" x2="0.135" y2="5.733" gradientUnits="objectBoundingBox">
      <stop offset="0" stop-color="#fff"/>
      <stop offset="0.243" stop-color="#7eb1dd"/>
      <stop offset="1" stop-color="#7ebae4"/>
    </linearGradient>
  </defs>
  <g id="NixOS-logo" transform="translate(7659.991 2845.217)">
    <g id="layer1" transform="translate(17.065 13.268)">
      <path id="path4861" class="cls-1" d="M271.09-710.252l9.745,16.88-4.478.042-2.6-4.535-2.62,4.511H268.91l-1.14-1.969,3.733-6.419-2.65-4.611Z" transform="translate(-258.884 728.031)"/>
      <path id="use4863" class="cls-2" d="M172.062-797.443l-9.746,16.879-2.276-3.857,2.627-4.521-5.217-.014-1.112-1.927,1.135-1.971,7.425.023,2.669-4.6Z" transform="translate(-156.339 808.269)"/>
      <path id="use4865" class="cls-2" d="M362.885-628.243h19.491l-2.2,3.9-5.228-.014,2.6,4.525-1.113,1.927-2.275,0-3.692-6.442-5.319-.011Z" transform="translate(-346.414 652.562)"/>
      <path id="use4867" class="cls-2" d="M392.691-916.268l-9.745-16.88,4.478-.042,2.6,4.535,2.62-4.511h2.225l1.14,1.969-3.733,6.419,2.65,4.611Z" transform="translate(-364.875 933.191)"/>
      <path id="path4873" class="cls-1" d="M271.09-710.252l9.745,16.88-4.478.042-2.6-4.535-2.62,4.511H268.91l-1.14-1.969,3.733-6.419-2.65-4.611Z" transform="translate(-258.884 728.031)"/>
      <path id="use4875" class="cls-1" d="M226.413-922.847H206.922l2.2-3.9,5.228.014-2.6-4.525,1.113-1.927,2.275,0,3.692,6.442,5.319.011Z" transform="translate(-202.888 933.187)"/>
      <path id="use4877" class="cls-1" d="M460.872-828.626l9.746-16.88,2.276,3.857-2.627,4.521,5.217.014,1.112,1.927-1.135,1.971-7.425-.023-2.669,4.6Z" transform="translate(-436.586 852.498)"/>
    </g>
    <g id="layer3" transform="translate(16.486 12.265)">
      <path id="path3336-6" class="cls-3" d="M271.236-710.388l9.745,16.88-4.478.042L273.9-698l-2.62,4.511h-2.225l-1.14-1.969,3.733-6.419L269-706.49Z" transform="translate(-258.438 729.16)"/>
      <path id="use3439-6" class="cls-3" d="M3.32,0l9.745,16.88-4.478.042-2.6-4.535L3.365,16.9H1.14L0,14.928,3.733,8.51,1.083,3.9Z" transform="translate(14.655 8.943) rotate(60)"/>
      <path id="use3445-0" class="cls-3" d="M3.32,0l9.745,16.88-4.478.042-2.6-4.535L3.365,16.9H1.14L0,14.928,3.733,8.51,1.083,3.9Z" transform="translate(15.403 28.187) rotate(-60)"/>
      <path id="use3449-5" class="cls-3" d="M3.32,0l9.745,16.88-4.478.042-2.6-4.535L3.365,16.9H1.14L0,14.928,3.733,8.51,1.083,3.9Z" transform="translate(31.728 17.915) rotate(180)"/>
      <path id="path4260-0" class="cls-3" d="M271.236-710.388l9.745,16.88-4.478.042L273.9-698l-2.62,4.511h-2.225l-1.14-1.969,3.733-6.419L269-706.49Z" transform="translate(-258.438 729.16)"/>
      <path id="use4354-5" class="cls-3" d="M3.32,0l9.745,16.88-4.478.042-2.6-4.535L3.365,16.9H1.14L0,14.928,3.733,8.51,1.083,3.9Z" transform="translate(25.763 8.461) rotate(120)"/>
      <path id="use4362-2" class="cls-3" d="M3.32,0l9.745,16.88-4.478.042-2.6-4.535L3.365,16.9H1.14L0,14.928,3.733,8.51,1.083,3.9Z" transform="translate(26.528 27.741) rotate(-120)"/>
    </g>
    <path id="path4683" class="cls-4" d="M772.088-847.118H769.63v11.154c0,1.575.063,4.065.158,6.837h-.094c-1.229-2.3-2.615-4.506-3.592-6.018l-7.719-11.973h-3.371v21.362h2.458V-836.91c0-1.575-.063-4.537-.158-7.278h.095c1.828,3.182,2.9,4.947,3.907,6.459l7.719,11.973h3.056Z" transform="translate(-690.203 867.251)"/>
    <path id="path4685" class="cls-4" d="M1024.189-818.848h2.646V-834.1h-2.646Zm1.323-17.487a1.627,1.627,0,0,0,1.638-1.638,1.627,1.627,0,0,0-1.638-1.638,1.627,1.627,0,0,0-1.638,1.638A1.627,1.627,0,0,0,1025.512-836.335Z" transform="translate(-937.625 860.342)"/>
    <path id="path4687" class="cls-4" d="M1107.436-770.47h-3.025l-3.718,5.608h-.095l-3.592-5.608h-3.277l5.451,7.436v.095l-5.64,7.719h3.025l3.97-6.049h.095l3.97,6.049h3.277l-5.766-7.845v-.095Z" transform="translate(-1001.736 796.714)"/>
    <path id="path4680" class="cls-4" d="M1290.694-842.351c-5.015,0-9.138,4.038-9.138,10.759s4.123,10.758,9.138,10.758,9.138-4.038,9.138-10.758S1295.709-842.351,1290.694-842.351Zm0,2.1c3.733,0,6.575,3.083,6.575,8.662s-2.842,8.662-6.575,8.662-6.575-3.083-6.575-8.662S1286.961-840.254,1290.694-840.254Z" transform="translate(-1174.758 862.863)"/>
    <path id="path4677" class="cls-4" d="M1516.291-838.273c0,2.959,1.541,4.562,5.117,6.011,2.744,1.11,3.854,2.1,3.854,4.131,0,2.466-2,3.7-4.655,3.7a14.513,14.513,0,0,1-4.686-.8l-.277,2.127a14.1,14.1,0,0,0,4.84.771c4.131,0,7.583-2.1,7.583-6.319,0-2.929-1.788-4.347-5.395-5.8-2.4-.956-3.576-1.973-3.576-4.1,0-2.065,1.788-3.206,4.038-3.206a11.061,11.061,0,0,1,3.792.74l.277-2.1a11,11,0,0,0-4.223-.74C1519.188-843.853,1516.291-841.664,1516.291-838.273Z" transform="translate(-1390.178 864.246)"/>
  </g>
</svg>
