<?xml version="1.0" encoding="utf-8"?>
<!-- Generator: Adobe Illustrator 23.0.1, SVG Export Plug-In . SVG Version: 6.00 Build 0)  -->
<svg version="1.1" id="exclamation-mark" xmlns="http://www.w3.org/2000/svg" xmlns:xlink="http://www.w3.org/1999/xlink" x="0px"
	 y="0px" viewBox="0 0 22.4 22.4" style="enable-background:new 0 0 22.4 22.4;" xml:space="preserve">
<style type="text/css">
	.st0{fill:#FFFFFF;}
	.st1{fill:#F15A24;}
</style>
<circle class="st0" cx="11.2" cy="11.2" r="9.7"/>
<path id="Path_1165" class="st1" d="M11.2,0C5,0,0,5,0,11.2s5,11.2,11.2,11.2s11.2-5,11.2-11.2S17.4,0,11.2,0C11.2,0,11.2,0,11.2,0z
	 M11.2,20.3c-5,0-9.1-4.1-9.1-9.1s4.1-9.1,9.1-9.1s9.1,4.1,9.1,9.1c0,0,0,0,0,0C20.3,16.3,16.3,20.3,11.2,20.3
	C11.2,20.3,11.2,20.3,11.2,20.3z M11.2,4.9c-0.8,0-1.4,0.4-1.4,1.1v6.2c0,0.7,0.6,1.1,1.4,1.1c0.8,0,1.4-0.4,1.4-1.1V6
	C12.6,5.4,12,4.9,11.2,4.9L11.2,4.9z M11.2,14.7c-0.8,0-1.4,0.6-1.4,1.4c0,0.8,0.6,1.4,1.4,1.4c0.8,0,1.4-0.6,1.4-1.4
	C12.6,15.4,12,14.7,11.2,14.7L11.2,14.7z"/>
</svg>
