<?xml version="1.0" encoding="utf-8"?>
<!-- Generator: Adobe Illustrator 23.0.1, SVG Export Plug-In . SVG Version: 6.00 Build 0)  -->
<svg version="1.1" id="Capa_1" xmlns="http://www.w3.org/2000/svg" xmlns:xlink="http://www.w3.org/1999/xlink" x="0px" y="0px"
	 viewBox="0 0 30 19.2" style="enable-background:new 0 0 30 19.2;" xml:space="preserve">
<style type="text/css">
	.st0{fill:#FFFFFF;}
</style>
<g>
	<g>
		<path class="st0" d="M1.1,2.3h27.7c0.6,0,1.1-0.5,1.1-1.1S29.5,0,28.9,0H1.1C0.5,0,0,0.5,0,1.1S0.5,2.3,1.1,2.3z"/>
		<path class="st0" d="M1.1,10.8h27.7c0.6,0,1.1-0.5,1.1-1.1s-0.5-1.1-1.1-1.1H1.1C0.5,8.5,0,9,0,9.6S0.5,10.8,1.1,10.8z"/>
		<path class="st0" d="M1.1,19.2h27.7c0.6,0,1.1-0.5,1.1-1.1c0-0.6-0.5-1.1-1.1-1.1H1.1C0.5,17,0,17.5,0,18.1
			C0,18.7,0.5,19.2,1.1,19.2z"/>
	</g>
</g>
</svg>
