<?xml version="1.0" encoding="utf-8"?>
<!-- Generator: Adobe Illustrator 23.0.1, SVG Export Plug-In . SVG Version: 6.00 Build 0)  -->
<svg version="1.1" id="Layer_1" xmlns="http://www.w3.org/2000/svg" xmlns:xlink="http://www.w3.org/1999/xlink" x="0px" y="0px"
	 width="100.98px" height="129.99px" viewBox="0 0 100.98 129.99" style="enable-background:new 0 0 100.98 129.99;"
	 xml:space="preserve">
<style type="text/css">
	.st0{clip-path:url(#SVGID_2_);}
	.st1{fill:#FFFFFF;}
	.st2{fill:#B5C4C6;}
	.st3{fill:#F7AB72;}
	.st4{fill:#663D29;}
	.st5{fill:#FCBA8D;}
	.st6{fill:#E18B4A;}
	.st7{fill:#7BEA68;}
	.st8{fill:#51AD49;}
	.st9{fill:#7A5433;}
	.st10{fill:#231F20;}
	.st11{font-family:'Noteworthy-Light';}
	.st12{font-size:20.4334px;}
</style>
<g>
	<defs>
		<rect id="SVGID_1_" x="-0.06" y="-24.72" width="106.34" height="154.72"/>
	</defs>
	<clipPath id="SVGID_2_">
		<use xlink:href="#SVGID_1_"  style="overflow:visible;"/>
	</clipPath>
	<g class="st0">
		<g>
			<path class="st1" d="M44.58,114.44l0.99-0.52c0.33-0.15,0.67-0.29,1.02-0.4c0.18-0.05,0.29,0.21,0.13,0.3
				c-0.1,0.05-0.19,0.11-0.29,0.16c0.36,0.03,0.71,0.06,1.07,0.09c-0.44-1.14-0.92-2.27-1.53-3.35c-0.67-1.21-1.47-2.32-2.3-3.39
				c-1.14,0.29-2.28,0.59-3.42,0.89c0.82,0.71,1.43,2.14,1.75,2.92c0.56,1.33,1.02,2.96,0.89,4.45
				C43.44,115.18,44,114.78,44.58,114.44z"/>
			<path class="st2" d="M46.88,112.68c-0.8-1.63-2.68-1.41-4.16-1.92c-0.51-0.17-0.9-0.49-1.26-0.83c0.23,0.45,0.41,0.88,0.55,1.2
				c0.56,1.33,1.02,2.96,0.89,4.45c0.55-0.41,1.1-0.8,1.68-1.15l0.99-0.52c0.33-0.15,0.67-0.29,1.02-0.4
				c0.18-0.05,0.29,0.21,0.13,0.3c-0.1,0.05-0.19,0.11-0.29,0.16c0.36,0.03,0.71,0.06,1.07,0.09c-0.16-0.42-0.34-0.84-0.51-1.26
				C46.95,112.79,46.91,112.74,46.88,112.68z"/>
			<path class="st3" d="M49.94,114.32c0.03-1.65-0.06-3.51-1.38-4.68c-0.77-0.68-1.64-0.78-2.62-0.89
				c-0.25-0.03-0.46-0.07-0.66-0.15c1.21,1.7,2.21,3.6,2.86,5.54C48.74,114.2,49.34,114.26,49.94,114.32z"/>
			<path class="st1" d="M24.2,122.1c3.56,1.21,8.22-0.64,11.38-2c1.06-0.46,2.08-0.97,3.07-1.55l0.58-0.36
				c0.74-0.45,1.46-0.93,2.16-1.46c0.36-0.27,0.72-0.54,1.08-0.82c-0.2-1.34-0.27-2.65-0.74-3.95c-0.44-1.22-1.09-2.62-2.02-3.6
				c-1.48,0.4-2.96,0.82-4.43,1.29c-0.4,0.13-0.79,0.26-1.18,0.39l-0.61,0.21c-3.73,1.28-7.36,2.81-11.08,4.15
				c-0.16,0.06-0.27-0.2-0.12-0.28c1.29-0.67,2.62-1.27,3.97-1.83c-1.1,0.01-2.24-0.18-2.51-0.87c-0.29,0.06-0.63,0.03-0.83-0.2
				c-0.19-0.21-0.12-0.54-0.08-0.8c0.09-0.69,0.3-1.53,0.77-2.09c-0.05-0.11-0.09-0.23-0.1-0.37c-0.04-0.7,0.57-1.39,1.09-1.76
				c0.16-0.11,0.32-0.2,0.5-0.28c0.21-0.51,0.6-0.98,0.94-1.38c0.23-0.26,0.52-0.61,0.85-0.77c-0.01,0-0.02-0.01-0.02-0.01
				c-0.78-0.39-1.55-0.98-1.76-1.87c-0.53-2.32,2.26-1.05,3.39-0.63c0.52-2.71,1.24-5.31,2.34-7.84c0.04-0.1,0.19-0.03,0.16,0.07
				c-0.79,2.62-1.51,5.27-2.02,7.96c1.99,0.75,4.31,1.8,5.34,3.72c0.45,0.84,0.6,1.76,0.4,2.69c-0.11,0.52-0.26,1.05-0.43,1.58
				c0.22-0.07,0.44-0.14,0.65-0.21c1.47-0.47,2.95-0.93,4.45-1.36c0.03-0.02,0.07-0.04,0.11-0.03c0,0,0,0,0,0
				c1.25-0.36,2.5-0.7,3.76-1l0.49-0.11l0.43,0.49c0.25,0.29,0.49,0.6,0.72,0.91c0,0,0,0,0.01,0c1.73,0.25,3.3,0.06,4.53,1.56
				c1.07,1.31,1.16,3.09,1.12,4.72c0.3,0.03,0.61,0.06,0.91,0.09c0.78,0.07,1.56,0.14,2.35,0.21c0.12-1.99,0.2-3.99,0.22-6.01
				c0.05-4.51-0.08-9.01-0.06-13.52c0-0.18,0.26-0.17,0.27,0c0.39,4.56,0.41,9.16,0.37,13.74c-0.02,1.92-0.01,3.89-0.1,5.85
				l-0.03,0.59l-0.7-0.08c-0.92-0.11-1.83-0.22-2.75-0.3c-0.91-0.09-1.82-0.16-2.73-0.22l-0.59-0.04c-0.73-0.05-1.46-0.1-2.19-0.16
				c-1.96,1.23-3.71,2.69-5.66,3.96c-0.03,0.02-0.05,0.03-0.08,0.05c0.75,0.43,1.53,0.82,2.34,1.19c2.3,1.03,4.64,1.99,6.99,2.9
				c1.94,0.75,4.07,1.58,6.19,1.16c0.55-0.11,1.02-0.29,1.43-0.53l0.49-0.33c1.08-0.86,1.64-2.2,2.02-3.69
				c1.07-4.2,0.79-8.64,0.25-12.9c-0.54-4.29-1.37-8.69-2.83-12.78c-1.14-3.2-3.29-6.32-6.53-7.31c0.56,1.08,1.06,2.21,1.44,3.37
				l0.17,0.56l-0.32,0.52c-0.28,0.39-0.62,0.76-1,1.1c-0.75,0.68-1.65,1.38-2.6,1.87c0.51,0.42,1,0.86,1.48,1.31
				c0.29,0.28,0.59,0.56,0.89,0.85l0.31,0.31l-0.32,0.47c-1.69,2.29-4.8,3.6-7.49,4.07l-0.02,0.03c0.24,0.94,0.23,1.94,0.22,2.9
				c-0.01,1.04-0.01,2.2-0.37,3.19c-0.03,0.08-0.17,0.1-0.18,0c-0.18-1.04-0.06-2.14-0.05-3.19c0.01-0.93-0.07-1.88,0.03-2.81
				l-0.03-0.06c-2.87,1-6.05-1.29-7.57-3.98l-0.37-0.75l0.25-0.55c0.57-1.12,1.4-2.15,2.22-3.12c-0.32-0.21-0.65-0.42-0.99-0.61
				c-0.55-0.3-1.12-0.57-1.68-0.87l-0.5-0.28l0.19-0.5c0.58-1.46,1.38-2.86,2.22-4.13c0.37-0.56,0.76-1.1,1.17-1.63
				c-5.18,0.93-8.42,5.89-10.87,10.14c-2.37,4.11-4.25,8.49-5.57,13.04c-1.25,4.29-2.5,10.05,1.38,13.43
				c0.46,0.4,0.96,0.71,1.48,0.95L24.2,122.1z"/>
			<path class="st2" d="M41.73,111.96c-0.12-0.34-0.26-0.68-0.41-1.03c-0.45,5.57-7.42,7.5-12.47,8.08
				c-2.32,0.26-5.51,0.64-7.18-1.4c-1.71-2.1,0.65-4.13,2.62-4.56c0.08-0.02,0.15-0.01,0.21,0.01c0.58-0.26,1.17-0.52,1.76-0.77
				c-1.1,0.01-2.24-0.18-2.51-0.87c-0.29,0.06-0.63,0.03-0.83-0.2c-0.19-0.21-0.12-0.54-0.08-0.8c0.01-0.04,0.01-0.08,0.02-0.12
				c-0.43,0.74-0.87,1.47-1.48,2.1c-0.12,0.12-0.35,0.17-0.49,0.06c-0.47-0.35-0.79-0.82-0.99-1.36c-0.66,3.54-0.6,7.34,2.27,9.84
				c0.46,0.4,0.96,0.71,1.48,0.95l0.55,0.21c3.56,1.21,8.22-0.64,11.38-2c1.06-0.46,2.08-0.97,3.07-1.55l0.58-0.36
				c0.74-0.45,1.46-0.93,2.16-1.46c0.36-0.27,0.72-0.54,1.08-0.82C42.27,114.58,42.2,113.26,41.73,111.96z"/>
			<path class="st2" d="M56.3,120.37c-1.84,1.54-4.48,1.36-6.54,0.39c-1.35-0.64-2.83-1.51-3.68-2.79
				c-0.85-1.27-0.79-2.15-0.34-3.44c-0.07-0.01-0.14-0.01-0.2-0.02c-1.96,1.23-3.71,2.69-5.66,3.96c-0.03,0.02-0.05,0.03-0.08,0.05
				c0.75,0.43,1.53,0.82,2.34,1.19c2.3,1.03,4.64,1.99,6.99,2.9c1.94,0.75,4.07,1.58,6.19,1.16c0.55-0.11,1.02-0.29,1.43-0.53
				l0.49-0.33c1.08-0.86,1.64-2.2,2.02-3.69c0.56-2.21,0.75-4.47,0.72-6.75C59.62,115.53,58.64,118.42,56.3,120.37z"/>
			<path class="st2" d="M28.98,101.44c0.77,0.29,1.59,0.63,2.37,1.04c-0.22-0.9-0.42-1.8-0.53-2.72c-0.23-1.8-0.1-3.59-0.07-5.4
				C30.06,96.7,29.44,99.06,28.98,101.44z"/>
			<path class="st2" d="M50.56,113.22c0.02,0.39,0.01,0.78,0,1.16c0.3,0.03,0.61,0.06,0.91,0.09c0.78,0.07,1.56,0.14,2.35,0.21
				c0.12-1.99,0.2-3.99,0.22-6.01c0.02-2.16,0.01-4.32-0.02-6.49c-0.16,1.73-0.41,3.45-0.81,5.12
				C52.72,109.39,52.04,111.64,50.56,113.22z"/>
			<path class="st4" d="M23.93,190.01c-0.93-0.31-2.1-0.81-2.84-1.46c-0.02-0.02-0.03-0.04-0.03-0.06c-0.61,0.18-1.24,0.31-1.82,0.5
				c-1.11,0.36-2.19,0.78-3.25,1.28c-1.02,0.48-2.02,1.02-2.98,1.63c-0.41,0.26-1.53,1.04-1.96,1.75c2.22-0.13,4.44-0.07,6.66-0.24
				c2.25-0.17,4.64-0.75,6.89-0.61c0.11,0.01,0.14,0.16,0.03,0.2c-2.15,0.68-4.68,0.71-6.91,0.88c-2.22,0.17-4.56,0.36-6.78,0
				c-0.13,0.37-0.02,0.71,0.55,0.91c1.38-0.07,2.79,0.09,4.16,0.09c1.54,0.01,3.08-0.04,4.61-0.16c1.89-0.14,3.75-0.44,5.6-0.76
				c0.24-0.62,0.45-1.25,0.59-1.91c0.13-0.63,0.17-1.25,0.18-1.86C25.79,190.46,24.75,190.28,23.93,190.01z"/>
			<path class="st1" d="M35.79,87.49c-0.53,0.92-0.97,1.87-1.39,2.84c0.65,0.3,1.29,0.65,1.89,0.99c0.32,0.18,0.63,0.36,0.93,0.55
				l0.34,0.24l-0.34,0.5c-0.41,0.56-0.88,1.09-1.26,1.68c-0.38,0.6-0.68,1.25-0.97,1.89c1.49,2.52,4.03,4.75,7.03,4.07
				c-1.17-2.24-1.94-4.62-2.26-7.28c-0.4-3.3-0.43-6.81-0.09-10.2c-0.58,0.13-1.13,0.69-1.6,1.29c-0.02,0.05-0.05,0.09-0.09,0.12
				c-0.32,0.42-0.6,0.85-0.81,1.15C36.68,86.02,36.22,86.75,35.79,87.49z"/>
			<path class="st3" d="M25.69,111.6c0.69,0.04,1.38,0.03,2.06,0.1c1.96-0.75,3.95-1.43,5.93-2.07c0.37-1.12,0.79-2.23,0.49-3.33
				c-0.53-1.94-2.56-2.98-4.23-3.76c-0.97-0.45-1.97-0.85-2.99-1.18c-0.23-0.08-0.93-0.42-1.11-0.33c-1,0.47,0.28,1.78,0.66,2.04
				c1.17,0.79,2.56,1.07,3.71,1.9c0.57-0.05,1.15-0.06,1.71,0c0.15,0.01,0.19,0.22,0.04,0.26c-1.53,0.47-3.21,0.53-4.78,0.8
				c-0.66,0.11-1.34,0.24-1.95,0.54c0,0-0.01,0-0.01,0c-0.06,0.03-0.13,0.06-0.19,0.09c-0.27,0.16-0.99,0.74-0.96,1.14
				c0.04,0.51,0.72,0.91,1.14,1.15c0.36-0.24,0.75-0.43,1.15-0.58c1.22-0.46,2.75-0.9,4.06-0.91c0.12,0,0.17,0.17,0.06,0.22
				c-1.52,0.8-3.38,0.78-4.85,1.72c-0.42,0.27-1.07,0.76-1.19,1.28C24.23,111.59,24.96,111.55,25.69,111.6z"/>
			<path class="st3" d="M24.81,109.23c-0.33-0.12-0.67-0.29-0.92-0.52c-0.13,0.34-0.29,0.67-0.39,1.02
				c-0.07,0.24-0.22,0.68-0.18,0.93c0.04,0.24,0.2,0.3,0.37,0.36c0.01-0.19,0.07-0.4,0.18-0.64
				C24.11,109.93,24.43,109.55,24.81,109.23z"/>
			<path class="st3" d="M29.43,105.03c-0.62-0.33-1.25-0.63-1.88-0.94c-0.03,0.02-0.06,0.04-0.11,0.04
				c-0.55,0.06-1.04,0.77-1.34,1.18c-0.07,0.1-0.14,0.2-0.21,0.31c0.63-0.18,1.29-0.26,1.92-0.35
				C28.34,105.19,28.88,105.11,29.43,105.03z"/>
			<path class="st1" d="M34.77,58.08c0.06-0.16,0.11-0.31,0.15-0.47c0.09-0.33,0.49-1.84-0.23-1.53c-0.14,0.18-0.25,0.42-0.35,0.65
				c-0.01,0.3-0.02,0.61,0.07,0.89C34.49,57.85,34.61,57.97,34.77,58.08z"/>
			<path class="st1" d="M50.96,58.08c0.06-0.16,0.11-0.31,0.15-0.47c0.09-0.33,0.49-1.84-0.23-1.53c-0.14,0.18-0.25,0.42-0.35,0.65
				c-0.01,0.3-0.02,0.61,0.07,0.89C50.68,57.85,50.8,57.97,50.96,58.08z"/>
			<path class="st3" d="M53.03,64.64c0.07,0.53,0.13,1.06,0.18,1.6c0.48-1.58,2.11-3.02,3.2-4.05c0.83-0.79,1.93-1.91,3.12-2.56
				c-0.16-0.55-0.29-1.11-0.38-1.68c-0.29,0.01-0.58,0.03-0.86,0.05c-0.89,0.07-1.82,0.21-2.72,0.17c-0.14,1.95-1.1,3.95-2.89,4.51
				c-2.24,0.7-5.49-0.4-6.39-2.67c-0.86-2.17-0.04-5.89,2.49-6.56c0.12-0.03,0.21,0.15,0.09,0.21c-2.07,0.98-3,3.8-2.25,5.92
				c0.74,2.06,3.56,3.15,5.61,2.66c1.75-0.41,2.68-2.36,2.79-4.21C55,57.99,55,57.93,55.03,57.89c0.02-0.68-0.06-1.34-0.26-1.9
				c-0.86-2.41-3.4-3.14-5.67-2.4c-0.13,0.04-0.21-0.16-0.09-0.21c2.37-1.05,5.27-0.27,6.24,2.3c0.23,0.6,0.33,1.3,0.33,2.03
				c0.81-0.18,1.67-0.21,2.49-0.26c0.33-0.02,0.66-0.04,0.99-0.06c-0.21-1.61-0.2-3.27-0.11-4.8c0.12-2.01,0.38-4.12,0.9-6.12
				c-1.74,0.23-3.56-0.01-5.22-0.65c0.06,0.24,0.08,0.49,0.04,0.75c-0.3,2.03-2.65,2.34-4.3,2.17c-2.96-0.31-5.95-1.42-8.39-3.22
				c0.16,1.75-1.32,2.2-2.84,2.16c-3.44-0.09-6.35-2.47-7.38-5.62c-1.45,1.83-2.41,4.12-3.28,6.22c-0.99,2.41-1.56,4.87-1.94,7.4
				c0.15,0.03,0.3,0.06,0.44,0.08c0.56,0.1,1.16,0.19,1.7,0.38c0.69-2.2,2.58-4.35,4.96-4.05c0.1,0.01,0.15,0.17,0.03,0.19
				c-2.59,0.44-4.51,2.39-4.78,5.06c-0.29,2.87,2.11,5.82,5.12,5.46c2.75-0.32,4.56-2.26,4.75-5.01c0.18-2.61-1.24-5.56-4.18-5.62
				c-0.09,0-0.09-0.13,0-0.14c3.12-0.35,4.71,2.75,4.64,5.47c1.58-1.57,5.29-2.34,6.13,0.23c0.04,0.13-0.14,0.19-0.22,0.09
				c-1.47-2.14-4.3-0.82-5.95,0.27c-0.31,2.83-2.25,4.83-5.13,5.17c-3.11,0.36-5.73-2.56-5.63-5.57c0.01-0.36,0.07-0.73,0.16-1.11
				c-0.53-0.06-1.06-0.2-1.58-0.32c-0.17-0.04-0.34-0.08-0.52-0.11c-0.07,0.47-0.13,0.94-0.19,1.41c0.01,0.02,0.02,0.04,0.03,0.06
				c0.02,0.01,0.03,0.02,0.04,0.04c0.72,1.36,1.29,2.8,1.86,4.23c0.53,1.34,1.22,2.72,1.6,4.12c0.06-0.18,0.11-0.36,0.17-0.53
				l0.14-0.39l0.35,0.14c2.31,0.87,4.85,1.09,7.37,1.11c-0.31-1.39,0.23-3.08,0.79-4.3c0.66-1.43,1.66-2.8,2.93-3.75
				c0.09-0.07,0.22,0.06,0.15,0.15c-0.87,1.16-1.82,2.23-2.46,3.54c-0.39,0.79-0.68,1.63-0.84,2.51c-0.11,0.62-0.1,1.24-0.16,1.85
				c1.14,0,2.27-0.04,3.36-0.08c3.79-0.14,7.43-0.77,11-1.92l0.34-0.11L53.03,64.64z M49.8,57.31c0.09-0.29,0.81-2.06,1.38-1.82
				c0.09-0.02,0.19-0.01,0.28,0.04c0.37,0.19,0.37,0.84,0.34,1.18c-0.07,0.8-0.41,2.72-1.37,2.96
				C49.16,59.99,49.63,57.88,49.8,57.31z M52.66,49.08c1.18-0.07,2.01,1.32,1.76,2.38c-0.05,0.21-0.33,0.22-0.44,0.06
				c-0.22-0.35-0.24-0.75-0.44-1.11c-0.33-0.58-0.88-0.64-1.44-0.36c-0.7,0.35-1.22,0.83-1.78,1.35c-0.11,0.12-0.39,0.07-0.36-0.13
				C50.08,50.2,51.66,49.14,52.66,49.08z M34.99,55.49c0.09-0.02,0.19-0.01,0.28,0.04c0.37,0.19,0.37,0.84,0.34,1.18
				c-0.07,0.8-0.41,2.72-1.37,2.96c-1.27,0.32-0.8-1.79-0.63-2.36C33.7,57.02,34.42,55.25,34.99,55.49z M37.53,50.6
				c-0.03,0.15-0.27,0.18-0.34,0.04c-0.48-0.97-0.98-1.85-2.24-1.77c-0.91,0.06-1.56,0.65-2.19,1.24c-0.09,0.09-0.3,0.03-0.28-0.12
				C32.76,47.24,38.1,47.68,37.53,50.6z"/>
			<path class="st5" d="M28.89,57.34c-0.29,2.87,2.11,5.82,5.12,5.46c2.75-0.32,4.56-2.26,4.75-5.01c0.18-2.55-1.18-5.41-3.98-5.6
				c-0.72,0.08-1.42,0.38-2.14,0.37C30.58,53.27,29.12,55.03,28.89,57.34z M33.62,57.31c0.09-0.29,0.81-2.06,1.38-1.82
				c0.09-0.02,0.19-0.01,0.28,0.04c0.37,0.19,0.37,0.84,0.34,1.18c-0.07,0.8-0.41,2.72-1.37,2.96
				C32.97,59.99,33.44,57.88,33.62,57.31z"/>
			<path class="st5" d="M54.78,55.99c-0.86-2.41-3.4-3.14-5.67-2.4c-0.04,0.01-0.07,0-0.1-0.02c-0.03,0.01-0.06,0.03-0.09,0.04
				c-0.01,0.03-0.02,0.05-0.05,0.07c-2.07,0.98-3,3.8-2.25,5.92c0.74,2.06,3.56,3.15,5.61,2.66c1.75-0.41,2.68-2.36,2.79-4.21
				C55,57.99,55,57.93,55.03,57.89C55.06,57.21,54.97,56.54,54.78,55.99z M51.8,56.71c-0.07,0.8-0.41,2.72-1.37,2.96
				c-1.27,0.32-0.8-1.79-0.63-2.36c0.09-0.29,0.81-2.06,1.38-1.82c0.09-0.02,0.19-0.01,0.28,0.04
				C51.84,55.71,51.83,56.36,51.8,56.71z"/>
			<path class="st6" d="M59.15,57.95c-0.29,0.01-0.58,0.03-0.86,0.05c-0.41,0.03-0.82,0.08-1.23,0.11c0.02,0.16,0.03,0.32,0.06,0.48
				c0.05,0.4,0.31,1.46,0.69,2.31c0.54-0.47,1.12-0.93,1.73-1.26C59.36,59.09,59.24,58.52,59.15,57.95z"/>
			<path class="st6" d="M31.06,47.23c0.12-0.09,0.29-0.06,0.41,0c0.77,0.38,1.55,0.78,2.33,1.14c1.35-0.53,3.3-0.05,3.7,1.29
				c1.72,0.32,3.47,0.15,5.23-1c0.15-0.1,0.37-0.06,0.49,0.06c1.73,1.79,4.24,2.6,6.74,2.55c0,0,0-0.01,0-0.01
				c0.12-1.06,1.7-2.12,2.7-2.18c0.74-0.05,1.35,0.49,1.63,1.16c0.3-0.15,0.6-0.3,0.88-0.48c0.18-0.11,0.46-0.05,0.55,0.14
				c1.21,2.4,1.05,5.01,1.26,7.61c0.36-0.03,0.73-0.05,1.08-0.07c0.33-0.02,0.66-0.04,0.99-0.06c-0.21-1.61-0.2-3.27-0.11-4.8
				c0.12-2.01,0.38-4.12,0.9-6.12c-1.74,0.23-3.56-0.01-5.22-0.65c0.06,0.24,0.08,0.49,0.04,0.75c-0.3,2.03-2.65,2.34-4.3,2.17
				c-2.96-0.31-5.95-1.42-8.39-3.22c0.16,1.75-1.32,2.2-2.84,2.16c-3.44-0.09-6.35-2.47-7.38-5.62c-1.45,1.83-2.41,4.12-3.28,6.22
				c-0.27,0.67-0.51,1.34-0.73,2.02C28.71,49.15,29.85,48.14,31.06,47.23z"/>
			<path class="st3" d="M52.1,50.04c-0.63,0.32-1.12,0.74-1.62,1.21c1.07-0.07,2.14-0.31,3.12-0.7c-0.02-0.05-0.04-0.1-0.06-0.14
				C53.22,49.82,52.66,49.76,52.1,50.04z"/>
			<path class="st3" d="M34.95,48.87c0.48,0.19,0.95,0.37,1.43,0.51C36.04,49.04,35.6,48.83,34.95,48.87L34.95,48.87z"/>
			<path class="st7" d="M38.19,66.81c-0.04,0.08-0.14,0.06-0.19,0c-1.22-0.02-2.45-0.09-3.66-0.21c-1.37-0.14-2.75-0.4-4-0.96
				c-1.02,3.22-1.59,6.83-1.03,10.12c1.56,1.06,3.47,1.36,5.39,1.68c2.54,0.43,5.1,0.7,7.67,0.55c3.53-0.21,6.82-1.17,9.96-2.59
				c0.4-1.62,0.58-3.21,0.57-4.96c-0.01-1.89-0.11-3.77-0.25-5.65c-3.54,1.4-7.46,1.87-11.23,1.99
				C40.35,66.81,39.27,66.82,38.19,66.81z M52.12,73.32c-3.44,1.34-7.29,1.92-10.96,2.13c-1.92,0.11-3.85,0.11-5.77-0.04
				c-1.54-0.12-3.05-0.35-4.4-1.14c-0.15-0.09-0.02-0.29,0.13-0.22c3.09,1.41,7.14,1.12,10.45,0.89c3.59-0.25,6.99-1.07,10.47-1.9
				C52.23,73,52.29,73.25,52.12,73.32z M52.31,70.39c-3.04,1.29-6.57,1.52-9.82,1.73c-3.47,0.23-7.05,0.57-10.42-0.46
				c-0.13-0.04-0.08-0.23,0.06-0.21c3.33,0.69,6.79,0.38,10.16,0.17c3.39-0.22,6.62-0.78,9.94-1.44
				C52.34,70.16,52.44,70.34,52.31,70.39z M49.15,68c-2.81,0.95-5.89,1.29-8.85,1.43c-2.65,0.12-5.66,0.3-8.12-0.84
				c-0.13-0.06-0.04-0.27,0.1-0.23c5.51,1.48,11.32,0.3,16.82-0.54C49.22,67.79,49.27,67.96,49.15,68z"/>
			<path class="st8" d="M52.21,73.21c-0.01,0.03-0.02,0.06-0.05,0.08c-0.73,1.11-1.81,2-3.29,2.53c-3.3,1.18-8.75,2.74-11.98,0.52
				c-0.26-0.18-0.28-0.67,0.1-0.74c0.18-0.03,0.37-0.06,0.56-0.08c-0.72-0.02-1.44-0.05-2.16-0.1c-1.54-0.12-3.05-0.35-4.4-1.14
				c-0.15-0.09-0.02-0.29,0.13-0.22c2.69,1.22,6.1,1.17,9.13,0.98c0.13-0.04,0.26-0.09,0.39-0.14c-1.75-0.03-3.46-0.35-5.19-0.76
				c-1.28-0.31-2.8-0.59-3.84-1.46c-1.74-1.46-1.97-3.31-1.76-5.25c-0.69,2.74-0.99,5.65-0.53,8.34c1.56,1.06,3.47,1.36,5.39,1.68
				c2.54,0.43,5.1,0.7,7.67,0.55c3.53-0.21,6.82-1.17,9.96-2.59c0.29-1.19,0.47-2.37,0.54-3.6C52.71,72.3,52.49,72.77,52.21,73.21z"
				/>
			<path class="st3" d="M28.68,72.47c0.05-0.74,0.14-1.47,0.23-2.16c0.15-1.23,0.38-2.44,0.71-3.63c-0.79-1.29-1.24-2.84-1.79-4.24
				c-0.39-1-0.78-1.99-1.13-3c-0.23-0.47-0.46-0.93-0.72-1.38c-0.07-0.02-0.13-0.08-0.13-0.19c0-0.01,0-0.01,0-0.02
				c-0.29-0.46-0.6-0.9-0.97-1.32c-0.32-0.36-0.38-0.54-0.91-0.45c-0.51,0.08-0.54,0.26-0.78,0.69c-0.31,0.56-0.56,1.14-0.75,1.75
				c-0.37,1.18-0.5,2.43-0.39,3.67c0.11,1.26,0.74,4.06,2.44,3.58c0.03-0.45,0.06-0.89,0.11-1.32c0.01-0.14,0.2-0.14,0.21,0
				c0.03,0.38,0.06,0.77,0.09,1.16l0.04,0.58c0.01,0.21,0.03,0.43,0.04,0.64c0.38,1.15,0.96,2.13,1.7,3.09
				C27.33,70.77,28.11,71.56,28.68,72.47z M24.8,63.4c-0.03,0.1-0.17,0.07-0.17-0.02c-0.07-1.11,0.02-2.23-0.1-3.34
				c-0.02-0.2-0.02-0.95-0.42-0.68c-0.16,0.11-0.26,0.67-0.32,0.84c-0.11,0.36-0.17,0.69-0.37,1.01c-0.08,0.13-0.28,0.11-0.32-0.04
				c-0.21-0.73,0.36-3.29,1.56-2.53c0.49,0.31,0.39,1.09,0.39,1.58C25.06,61.28,25.06,62.37,24.8,63.4z"/>
			<path class="st3" d="M40.38,80.75c0.4,0.02,0.8,0.05,1.2,0.09c0.14,0.01,0.2,0.23,0.04,0.27c-0.4,0.1-0.82,0.17-1.24,0.22
				c-0.04,2.14-0.19,4.27-0.24,6.4c0.87,0.79,1.74,1.46,3,1.38c1.26-0.08,2.06-0.87,2.75-1.82c0.03-2.05-0.08-4.11,0-6.15
				c-0.67,0.09-1.34,0.09-2-0.02c-0.16-0.03-0.1-0.25,0.04-0.27c0.66-0.08,1.32-0.19,1.99-0.32l0.38-0.08
				c3.06-0.67,6.1-1.97,8.46-3.93c1.48-1.23,2.62-2.76,3.44-4.5c0.32-0.68,0.56-1.39,0.78-2.1c-0.63,0.67-1.42,1.19-2.24,1.62
				c-0.98,0.51-2.17,1.11-3.3,0.91c-0.03,0.86-0.12,1.74-0.33,2.57l-0.22,0.7l-0.73,0.36c-3.23,1.52-6.84,2.33-10.34,2.46
				c-2.79,0.11-5.57-0.28-8.3-0.81c-1.38-0.27-2.88-0.6-4.07-1.37l-0.63-0.47l-0.1-0.63c-0.1-0.74-0.1-1.5-0.07-2.26
				c-1.06-0.86-1.95-2.09-2.74-3.21c-0.32-0.45-0.6-0.93-0.82-1.43c0.25,3.16,0.73,6.28,2.57,8.99c1.42,2.09,4.22,2.5,6.54,2.9
				c1.92,0.33,3.83,0.33,5.75,0.43L40.38,80.75z"/>
			<path class="st3" d="M40.33,82.72c-0.06,1.67-0.16,3.34-0.2,5.01c0.62,0.57,1.25,1.07,2.02,1.28
				C42.57,86.41,42.11,82.85,40.33,82.72z"/>
			<path class="st6" d="M45.89,81.14c-0.67,0.09-1.34,0.09-2-0.02c-0.16-0.03-0.1-0.25,0.04-0.27c0.33-0.04,0.66-0.09,1-0.14
				c-1.09,0.11-2.18,0.17-3.27,0.17c0.08,0.07,0.08,0.2-0.04,0.23c-0.4,0.1-0.82,0.17-1.24,0.22c0,0.18-0.01,0.36-0.02,0.54
				c2.4,0,3.09,4.15,2.6,7.24c0.06,0,0.12,0.01,0.18,0c1.26-0.08,2.06-0.87,2.75-1.82C45.92,85.24,45.81,83.18,45.89,81.14z"/>
			<path class="st3" d="M36.53,80.5c-2.21-0.33-5.25-0.82-7.77-1.97c1.51,1.12,3.61,1.44,5.43,1.76c1.05,0.18,2.1,0.26,3.14,0.32
				C37.07,80.57,36.8,80.54,36.53,80.5z"/>
			<path class="st9" d="M25.88,56.87c0.01-0.29,0.04-0.58,0.07-0.87c-0.23-0.07-0.46-0.14-0.67-0.26c-0.09-0.05-0.04-0.16,0.05-0.17
				c0.22-0.02,0.44-0.01,0.66,0.01c0.29-2.71,1.07-5.4,2.11-7.87c0.9-2.12,1.85-4.54,3.51-6.23l0.29-0.28l0.17,0.48
				c0.93,2.54,2.84,4.59,5.61,5.23c0.85,0.2,1.87,0.3,2.74,0.11c1.04-0.24,1.12-1.17,0.91-2.03L40.9,43.9l0.9,0.7
				c1.87,1.38,3.93,2.47,6.25,3.07c1.61,0.42,4.32,1.14,5.62-0.29c0.56-0.62,0.54-1.26,0.22-1.88l-1.09-1.32l1.42,0.76
				c0.78,0.39,1.59,0.72,2.5,0.9c1.12,0.21,2.22,0.19,3.3,0.02l0.57-0.11l-0.12,0.62c-0.38,1.99-0.8,3.97-0.93,6.02
				c-0.11,1.71,0.02,3.34,0.24,4.98c0.42,0,0.84,0.02,1.25,0.1c0.14,0.02,0.12,0.23,0,0.26c-0.38,0.1-0.78,0.15-1.17,0.18
				c0.07,0.49,0.15,0.98,0.23,1.47c0.25-0.1,0.51-0.18,0.77-0.23c0.57-0.8,1.32-1.48,2.19-1.82c-0.05-1.03,0.19-2.11,0.35-3.11
				c0.15-0.88,0.25-1.76,0.34-2.64l0.06-0.57l0.5,0.33c0.55,0.31,1.06,0.43,1.26-0.04c0.13-0.3-0.21-1.23-0.3-1.55
				c-0.1-0.39-0.23-0.78-0.37-1.15c-0.5-1.34-1.24-2.58-2.15-3.68l-1.24-0.77c0.23,0.06,0.47,0.11,0.71,0.16l0.66,0.12
				c0.05,0.01,0.1,0.02,0.15,0.03c0.45,0.07,1.3,0.33,1.75,0.18c0.39-0.13,0.81-0.79,0.88-1.15c0.05-0.29-0.06-0.73-0.11-1.02
				c-0.07-0.42-0.18-0.84-0.31-1.25c-0.33-1.03-0.84-2.01-1.46-2.89c-2.05-2.88-5.24-4.94-8.39-6.43c-3.2-1.51-6.69-2.43-10.21-2.71
				c-3.53-0.28-7.47-0.09-10.76,1.33c-1.61,0.69-3.08,1.79-3.94,3.35c-0.82,1.49-0.76,3.08-0.54,4.68l0.07,0.47l-0.39,0.27
				c-2.22,1.61-3.25,4.17-3.91,6.83c-0.39,1.59-0.63,3.22-0.79,4.85c-0.15,1.48-0.13,2.99-0.37,4.45
				C25.07,55.69,25.53,56.35,25.88,56.87z"/>
			<path class="st4" d="M62.88,44.4c0.05,0.01,0.1,0.02,0.15,0.03c0.45,0.07,1.3,0.33,1.75,0.18c0.39-0.13,0.81-0.79,0.88-1.15
				c0.05-0.29-0.06-0.73-0.11-1.02c-0.07-0.42-0.18-0.84-0.31-1.25c-0.12-0.36-0.26-0.72-0.42-1.07c-0.06,1.1-0.63,2.02-2.11,2.39
				c-4.68,1.15-9.71-1.36-13.91-3.3c0.16,4.35-6.63,1.21-9.28-0.83c-0.25,2.61-3.85,1.96-5.46,0.14c-1.73-1.95-2.23-4.55-1.61-6.89
				c-0.79,0.6-1.48,1.33-1.96,2.21c-0.82,1.49-0.76,3.08-0.54,4.68l0.07,0.47l-0.39,0.27c-2.22,1.61-3.25,4.17-3.91,6.83
				c-0.39,1.59-0.63,3.22-0.79,4.85c-0.15,1.48-0.13,2.99-0.37,4.45c0.52,0.32,0.98,0.98,1.33,1.5c0.01-0.29,0.04-0.58,0.07-0.87
				c-0.23-0.07-0.46-0.14-0.67-0.26c-0.09-0.05-0.04-0.16,0.05-0.17c0.22-0.02,0.44-0.01,0.66,0.01c0.29-2.71,1.07-5.4,2.11-7.87
				c0.9-2.12,1.85-4.54,3.51-6.23l0.29-0.28l0.17,0.48c0.93,2.54,2.84,4.59,5.61,5.23c0.85,0.2,1.87,0.3,2.74,0.11
				c1.04-0.24,1.12-1.17,0.91-2.03L40.9,43.9l0.9,0.7c1.87,1.38,3.93,2.47,6.25,3.07c1.61,0.42,4.32,1.14,5.62-0.29
				c0.56-0.62,0.54-1.26,0.22-1.88l-1.09-1.32l1.42,0.76c0.78,0.39,1.59,0.72,2.5,0.9c1.12,0.21,2.22,0.19,3.3,0.02l0.57-0.11
				l-0.12,0.62c-0.38,1.99-0.8,3.97-0.93,6.02c-0.11,1.71,0.02,3.34,0.24,4.98c0.42,0,0.84,0.02,1.25,0.1
				c0.14,0.02,0.12,0.23,0,0.26c-0.38,0.1-0.78,0.15-1.17,0.18c0.07,0.49,0.15,0.98,0.23,1.47c0.25-0.1,0.51-0.18,0.77-0.23
				c0.57-0.8,1.32-1.48,2.19-1.82c-0.05-1.03,0.19-2.11,0.35-3.11c0.15-0.88,0.25-1.76,0.34-2.64l0.06-0.57l0.5,0.33
				c0.55,0.31,1.06,0.43,1.26-0.04c0.13-0.3-0.21-1.23-0.3-1.55c-0.1-0.39-0.23-0.78-0.37-1.15c-0.5-1.34-1.24-2.58-2.15-3.68
				l-1.24-0.77c0.23,0.06,0.47,0.11,0.71,0.16L62.88,44.4z"/>
			<path class="st3" d="M23.96,188.69c-0.69-0.08-1.34-0.27-1.97-0.55c-0.17,0.08-0.34,0.15-0.52,0.21c0.72,0.12,1.35,0.51,2.02,0.8
				c1.07,0.48,2.08,0.39,3.16,0.53c0-0.44,0-0.88,0-1.33C25.79,188.66,24.88,188.8,23.96,188.69z"/>
			<path class="st3" d="M56.4,187.32c-0.16-0.04-0.33-0.09-0.49-0.13c-1.59,0.74-3.41,1.01-5.17,0.8c0.14,0.55,0.25,1.11,0.33,1.68
				c0.68-0.17,2.73-0.98,2.9-1.06C54.81,188.23,55.56,187.66,56.4,187.32z"/>
			<path class="st4" d="M65.49,189.99c-0.92-0.5-2.05-0.71-3.05-1c-1.92-0.56-3.84-1.07-5.77-1.59c0.02,0.04,0.02,0.09-0.01,0.13
				c-1.08,1.43-3.67,2.51-5.54,2.57c0.11,0.82,0.19,1.64,0.31,2.44c0.02,0.12,0.04,0.24,0.06,0.35c2.12,0.16,4.25,0.24,6.38,0.32
				c1.35,0.05,2.71,0.1,4.06,0.15c1.06,0.04,2.22-0.05,3.28,0.15c0.52-0.16,0.89-0.45,1.13-0.81c-2.29,0.11-4.63-0.01-6.92-0.13
				c-2.3-0.11-4.61-0.25-6.88-0.61c-0.11-0.02-0.08-0.19,0.03-0.19c2.36,0.05,4.71,0.25,7.07,0.34c2.31,0.08,4.62,0.04,6.93,0.13
				C66.8,191.45,66.47,190.52,65.49,189.99z"/>
			<path class="st7" d="M54.23,187.21c0.9-0.27,1.71-0.68,2.44-1.18c-0.2-1.92-0.34-3.86-0.51-5.76c-0.22-2.41-0.39-4.82-0.55-7.23
				c-2.35,0.81-4.73,1.54-7.15,2.11c0.45,2.15,0.77,4.33,1.07,6.51c0.26,1.93,0.58,3.88,0.83,5.84
				C51.66,187.66,52.97,187.59,54.23,187.21z"/>
			<path class="st1" d="M43.46,99.18c-0.14,0.29-0.29,0.58-0.44,0.88c1.34-0.41,2.66-0.81,3.91-1.5c1.14-0.63,2.04-1.44,2.9-2.35
				c-0.29-0.31-0.57-0.61-0.87-0.9c-0.51-0.5-1.04-0.97-1.56-1.45l-0.37-0.34l0.34-0.24c0.75-0.51,1.57-0.93,2.28-1.5
				c0.58-0.47,1.13-1,1.57-1.6c-0.59-1.39-1.14-2.79-1.83-4.14l-0.3-0.56c-0.36-0.65-0.75-1.28-1.22-1.84
				c-0.44-0.52-0.96-0.92-1.47-1.34c0.06,1.62,0.05,3.24,0.07,4.85c0.02,2.21-0.14,4.17-0.77,6.3
				C45.12,95.42,44.36,97.34,43.46,99.18z"/>
			<path class="st1" d="M56,172.12c0.59-0.21,1.18-0.42,1.76-0.63c1.14-0.42,2.28-0.85,3.41-1.3c-0.41-8-0.88-16-1.55-23.99
				c-0.36-4.36-0.79-8.71-1.28-13.05c-0.35-3.09-0.74-6.16-1.43-9.18c-2.7,1.34-6.52-0.17-9.14-1.22c-2.22-0.88-4.44-1.79-6.61-2.8
				c-0.68-0.32-1.35-0.67-1.99-1.05c-2.19,1.32-4.57,2.3-7,3.07c-2.59,0.83-5.53,1.4-8.03,0.66c-0.32,3.7-0.8,7.39-1.14,11.07
				c-0.8,8.48-1.42,16.98-1.9,25.48c-0.21,3.79-0.36,7.58-0.5,11.37c0.32,0.15,0.64,0.3,0.96,0.45l0.37,0.17
				c2.38,1.1,4.82,2.07,7.34,2.86l0.58,0.18c2.5,0.74,5.02,1.17,7.56,1.31c0.18-1.4,0.37-2.81,0.56-4.21
				c0.42-3.13,0.84-6.26,1.26-9.38c0.05-0.39,0.57-0.4,0.61,0c0.43,4.26,0.99,8.51,1.67,12.74c0.04,0.27,0.09,0.54,0.14,0.82
				c0.91-0.06,1.81-0.16,2.72-0.3c1.19-0.18,2.37-0.41,3.54-0.67l0.4-0.1c2.46-0.58,4.87-1.33,7.26-2.15L56,172.12z M31.31,154.6
				c-0.53,1.78-1.56,3.84-3.62,4.11c-1.17,0.15-2.27-0.39-3.24-0.96c-0.76-0.45-1.53-0.9-1.77-1.81c-0.3-1.14-0.18-2.51-0.14-3.69
				c0.04-1.37,0.08-2.82,0.43-4.14c0.05-0.18,0.33-0.14,0.32,0.04c-0.06,2.13-0.38,4.22-0.27,6.36c0.03,0.54,0,1.16,0.26,1.65
				c0.28,0.53,0.94,0.83,1.45,1.1c1.06,0.57,2.24,1.1,3.44,0.64c2.08-0.8,2.58-3.52,3.02-5.44c0.5-2.16,0.73-4.34,0.99-6.53
				c0.03-0.25,0.4-0.27,0.41,0C32.69,148.83,32.15,151.83,31.31,154.6z M32.58,145.25c-1.37,0.58-3.12,0.58-4.58,0.81
				c-0.42,0.07-4.54,0.94-4.62,0.73c0.03,0.08-0.05,0.15-0.12,0.16c-0.02,0-0.05,0-0.07,0.01c-0.07,0-0.15-0.06-0.17-0.13
				l-0.02-0.09c-0.02-0.1,0.02-0.17,0.09-0.23c0.57-0.41,1.58-0.49,2.26-0.62c0.82-0.17,1.65-0.32,2.48-0.46
				c1.47-0.25,3.22-0.76,4.71-0.53C32.69,144.92,32.72,145.18,32.58,145.25z M36.02,137.9c0.31-0.74,0.95-1.29,1.74-1.41
				c0.14-0.02,0.25,0.17,0.11,0.25c-0.64,0.36-1.63,1.23-1.38,2.09c0.23,0.82,1.06,0,1.29-0.35c0.28-0.45,0.4-1.02,0.17-1.52
				c-0.1-0.22,0.19-0.49,0.36-0.28c0.51,0.66,0.39,1.49-0.04,2.17c-0.37,0.57-1.06,1.15-1.78,0.84
				C35.78,139.4,35.77,138.51,36.02,137.9z M38.57,152.7c-0.28,0.63-0.89,1.31-1.66,1.2c-0.75-0.11-0.6-1.14-0.45-1.67
				c0.18-0.61,0.67-1.48,1.36-1.58c0.1-0.02,0.2,0.08,0.14,0.18c-0.19,0.34-0.51,0.59-0.71,0.94c-0.17,0.31-0.42,0.88-0.32,1.25
				c0.12,0.43,0.51,0.19,0.72-0.01c0.23-0.23,0.36-0.54,0.47-0.83c0.15-0.42,0.2-0.76,0.03-1.17c-0.07-0.18,0.16-0.29,0.29-0.23
				C39.15,151.12,38.8,152.17,38.57,152.7z M38.72,125.52c-0.36,0.56-1.14,0.88-1.72,0.45c-0.58-0.43-0.5-1.4-0.21-1.98
				c0.22-0.45,0.93-0.84,1.3-0.34c0.06,0.08-0.02,0.2-0.11,0.19c-0.46-0.04-0.71,0.19-0.8,0.65c-0.07,0.37-0.12,1,0.38,1.07
				c0.44,0.06,0.71-0.37,0.81-0.74c0.12-0.42,0.02-0.8-0.04-1.21c-0.02-0.17,0.17-0.33,0.31-0.18
				C39.16,123.97,39.11,124.92,38.72,125.52z M41.38,130.62c0.09,3.23,0.26,6.45,0.21,9.68c-0.05,3.22-0.31,6.42-0.66,9.62
				c-0.34,3.11-0.54,6.35-1.18,9.41c-0.03,0.16-0.28,0.12-0.27-0.04c0.11-3.26,0.71-6.54,0.97-9.8c0.25-3.2,0.43-6.41,0.47-9.62
				c0.04-3.23-0.15-6.46-0.16-9.69c-0.01-3.11,0.01-6.4,0.77-9.44c0.03-0.13,0.26-0.11,0.24,0.03
				C41.47,124.08,41.29,127.3,41.38,130.62z M46.1,145.77c1.7-0.35,3.53-0.25,5.26-0.16c1.73,0.09,3.58,0.17,5.27,0.59
				c0.29,0.07,0.23,0.54-0.07,0.53c-1.73-0.1-3.46-0.4-5.2-0.51c-1.73-0.1-3.5,0-5.23-0.2C46.01,146,45.95,145.8,46.1,145.77z
				 M46.62,147.13c0-0.26,0.38-0.25,0.4,0c0.26,3.79,0.08,11.11,5.57,10.81c2.4-0.13,3.63-1.73,3.68-4.04
				c0.05-2.28-0.16-4.57,0.04-6.84c0.02-0.2,0.28-0.19,0.3,0c0.2,1.59,0.18,3.22,0.23,4.82c0.03,1.26,0.19,2.61-0.17,3.84
				c-0.52,1.82-2.27,2.79-4.08,2.88C46.7,158.88,46.58,151.32,46.62,147.13z"/>
			<path class="st2" d="M37.56,125.55c0.44,0.06,0.71-0.37,0.81-0.74c0.09-0.33,0.05-0.63,0-0.94c-0.1-0.03-0.2-0.05-0.31-0.07
				c-0.02,0.02-0.05,0.04-0.09,0.04c-0.46-0.04-0.71,0.19-0.8,0.65C37.11,124.86,37.06,125.49,37.56,125.55z"/>
			<path class="st2" d="M59.62,146.2c-0.36-4.36-0.79-8.71-1.28-13.05c-0.35-3.09-0.74-6.16-1.43-9.18
				c-2.7,1.34-6.52-0.17-9.14-1.22c-2.22-0.88-4.44-1.79-6.61-2.8c-0.68-0.32-1.35-0.67-1.99-1.05c-2.19,1.32-4.57,2.3-7,3.07
				c-2.59,0.83-5.53,1.4-8.03,0.66c0,0.01,0,0.02,0,0.03c1.17,0.56,2.21,1.21,3.61,1.31c1.46,0.1,2.79,0.03,4.2-0.38
				c1.86-0.55,3.9-1.34,5.82-0.64c0,0,0.01,0,0.01,0.01c0.04-0.01,0.09-0.01,0.14-0.01c1.01,0.16,1.88,0.55,2.79,0.96
				c0.1-0.18,0.2-0.33,0.31-0.47c0.11-0.92,0.27-1.82,0.49-2.71c0.03-0.13,0.26-0.11,0.24,0.03c-0.06,0.73-0.12,1.46-0.18,2.18
				c0.95-0.54,2.17-0.03,3.4,0.66c3.57,2.01,6.79,3.62,11.01,2.86c0.23-0.04,0.41,0.06,0.5,0.28c1.23,3.27,0.94,7.39,0.96,10.83
				c0.02,2.86,0.7,6.49-0.56,9.16c-0.05,0.11-0.13,0.17-0.22,0.19c0.15,1.08,0.23,2.4,0.13,3.71c0.01,0.41,0.02,0.82,0.03,1.23
				c0.03,1.26,0.19,2.61-0.17,3.84c-0.22,0.75-0.64,1.35-1.19,1.81c0.67-0.21,1.32-0.36,2.01,0.19c0.9,0.71,0.75,2.88,0.7,3.85
				c-0.17,3.63-1.64,6.15-4.84,8.01c-2.67,1.55-7,3.2-9.9,1.2c-1.32-0.91-2.34-2.25-3.04-3.75c0.32,2.56,0.68,5.11,1.09,7.66
				c0.04,0.27,0.09,0.54,0.14,0.82c0.91-0.06,1.81-0.16,2.72-0.3c1.19-0.18,2.37-0.41,3.54-0.67l0.4-0.1
				c2.46-0.58,4.87-1.33,7.26-2.15l0.43-0.15c0.59-0.21,1.18-0.42,1.76-0.63c1.14-0.42,2.28-0.85,3.41-1.3
				C60.76,162.19,60.29,154.19,59.62,146.2z"/>
			<path class="st2" d="M35.44,169.23c-2.23,1.25-4.92,0.78-7.18-0.21c-3.68-1.63-6.03-5.6-7.16-9.65
				c-0.21,3.73-0.35,7.46-0.49,11.18c0.32,0.15,0.64,0.3,0.96,0.45l0.37,0.17c2.38,1.1,4.82,2.07,7.34,2.86l0.58,0.18
				c2.5,0.74,5.02,1.17,7.56,1.31c0.18-1.4,0.37-2.81,0.56-4.21c0.26-1.96,0.52-3.93,0.79-5.89C38,166.98,36.91,168.41,35.44,169.23
				z"/>
			<path class="st2" d="M26.65,154.36c-2.01,0.12-2.96-1.55-3.54-3.35c-0.08,1.16-0.15,2.32-0.1,3.5c0.03,0.54,0,1.16,0.26,1.65
				c0.28,0.53,0.94,0.83,1.45,1.1c1.06,0.57,2.24,1.1,3.44,0.64c2.08-0.8,2.58-3.52,3.02-5.44c0.19-0.81,0.33-1.64,0.46-2.46
				C30.53,152.24,28.79,154.24,26.65,154.36z"/>
			<path class="st2" d="M38.14,150.89c-0.03-0.01-0.07-0.02-0.1-0.04c-0.03-0.01-0.05-0.02-0.08-0.03c0,0,0,0.01,0,0.01
				c-0.19,0.34-0.51,0.59-0.71,0.94c-0.17,0.31-0.42,0.88-0.32,1.25c0.12,0.43,0.51,0.19,0.72-0.01c0.23-0.23,0.36-0.54,0.47-0.83
				c0.15-0.42,0.2-0.76,0.03-1.17C38.13,150.97,38.13,150.92,38.14,150.89z"/>
			<path class="st2" d="M37.93,136.8c-0.03-0.02-0.05-0.03-0.07-0.05c-0.64,0.36-1.61,1.23-1.37,2.08c0.23,0.82,1.06,0,1.29-0.35
				c0.28-0.45,0.4-1.02,0.17-1.52C37.92,136.91,37.92,136.85,37.93,136.8z"/>
			<path class="st2" d="M54.33,155.85c-1.9,1.03-4.51,0.94-6.02-0.54c0.77,1.63,2.06,2.76,4.29,2.64c2.4-0.13,3.63-1.73,3.68-4.04
				c0-0.19,0-0.37,0-0.56C55.89,154.42,55.27,155.33,54.33,155.85z"/>
			<path class="st7" d="M21.87,171.9c-0.26,2.6-0.52,5.19-0.77,7.79c-0.22,2.3-0.34,4.64-0.54,6.96c1.02,0.73,2.13,1.29,3.44,1.44
				c1.37,0.15,2.51-0.28,3.61-0.86c0-0.01,0-0.02,0-0.03c0.19-1.86,0.4-3.72,0.64-5.58c0.29-2.28,0.56-4.58,0.91-6.87
				c-0.45-0.14-0.89-0.28-1.34-0.44C25.82,173.61,23.82,172.8,21.87,171.9z"/>
			<path class="st8" d="M51.22,182.73c-0.31-1.9-0.49-4.39,0.66-6.07c0.97-1.41,2.32-2.3,3.77-3.09c-0.01-0.18-0.03-0.35-0.04-0.53
				c-2.35,0.81-4.73,1.54-7.15,2.11c0.45,2.15,0.77,4.33,1.07,6.51c0.26,1.93,0.58,3.88,0.83,5.84c1.29,0.17,2.6,0.09,3.86-0.28
				c0.25-0.07,0.48-0.16,0.71-0.25C53.08,186.64,51.64,185.28,51.22,182.73z"/>
			<path class="st8" d="M27.83,174.31c-2.01-0.7-4.01-1.5-5.96-2.4c-0.01,0.13-0.03,0.26-0.04,0.39c1.56,1.35,3.1,2.69,4.01,4.58
				c0.96,2.01,0.86,4.5,0.66,6.65c-0.19,2.03-1.6,3.75-3.34,4.4c0.27,0.07,0.55,0.13,0.84,0.16c1.37,0.15,2.51-0.28,3.61-0.86
				c0-0.01,0-0.02,0-0.03c0.19-1.86,0.4-3.72,0.64-5.58c0.29-2.28,0.56-4.58,0.91-6.87C28.72,174.6,28.28,174.46,27.83,174.31z"/>
			<path class="st3" d="M60.05,61.72c-0.07,0.19-0.34,0.12-0.3-0.08c0.05-0.26,0.13-0.53,0.23-0.81c-0.01-0.01-0.03-0.03-0.04-0.06
				c-0.07-0.17-0.13-0.36-0.2-0.54c-1.05,0.68-2,1.5-2.9,2.37c-1.42,1.36-2.66,2.77-3.47,4.58c-0.01,0.03-0.04,0.05-0.06,0.06
				c0.09,1.2,0.15,2.41,0.16,3.62c0,0.38,0,0.78-0.01,1.18c2.14-0.37,4.15-1.36,5.75-2.85c0.08-0.28,0.16-0.56,0.24-0.84l0.21-0.69
				c0.13-0.42,0.28-0.85,0.44-1.26c0.05-0.12,0.24-0.11,0.23,0.03c-0.01,0.57-0.07,1.14-0.17,1.72c0.64,0.32,1.54,0.02,2.1-0.44
				c0.58-0.48,1.07-1.14,1.52-1.74c0.86-1.15,1.62-2.43,1.89-3.85c0.29-1.52-0.07-5.2-2.66-4.02C61.6,58.75,60.57,60.32,60.05,61.72
				z M63.9,62.59c-0.07,0.08-0.18,0.02-0.21-0.06c-0.17-0.43-0.04-1.2-0.54-1.44c-0.53-0.26-0.81,0.42-1,0.79
				c-0.44,0.86-0.66,1.77-0.93,2.69c-0.04,0.12-0.22,0.1-0.22-0.03c0.01-0.94,0.27-1.86,0.63-2.73c0.21-0.5,0.43-1.17,0.98-1.41
				C63.86,59.86,64.63,61.72,63.9,62.59z"/>
			<path class="st8" d="M45.87,88.29c-1.32,1.71-4.43,1.93-5.74,0.19c-0.01,1.28,0.02,2.56,0.15,3.84c0.2,2,0.56,4.01,1.31,5.89
				c0.23,0.58,0.5,1.14,0.79,1.69c0.22-0.39,0.44-0.79,0.63-1.2c0.87-1.8,1.59-3.67,2.15-5.58C45.63,91.53,45.81,89.92,45.87,88.29z
				"/>
		</g>
		<g>
			<path class="st10" d="M24.66,58.64c-1.2-0.76-1.77,1.8-1.56,2.53c0.04,0.15,0.24,0.17,0.32,0.04c0.2-0.32,0.26-0.65,0.37-1.01
				c0.05-0.17,0.15-0.74,0.32-0.84c0.4-0.27,0.4,0.49,0.42,0.68c0.12,1.11,0.03,2.23,0.1,3.34c0.01,0.1,0.15,0.12,0.17,0.02
				c0.26-1.04,0.26-2.12,0.25-3.19C25.05,59.73,25.15,58.95,24.66,58.64"/>
			<path class="st10" d="M62.6,60.4c-0.55,0.23-0.78,0.9-0.98,1.41c-0.35,0.87-0.61,1.79-0.63,2.73c0,0.13,0.18,0.15,0.22,0.03
				c0.27-0.92,0.49-1.83,0.93-2.69c0.19-0.37,0.47-1.05,1-0.79c0.5,0.25,0.37,1.01,0.54,1.44c0.03,0.08,0.14,0.14,0.21,0.06
				C64.63,61.72,63.86,59.86,62.6,60.4"/>
			<path class="st10" d="M49.1,67.81c-5.5,0.84-11.31,2.03-16.82,0.54c-0.13-0.04-0.23,0.17-0.1,0.23c2.46,1.14,5.48,0.96,8.12,0.84
				c2.95-0.14,6.03-0.48,8.85-1.43C49.27,67.96,49.22,67.79,49.1,67.81"/>
			<path class="st10" d="M52.23,70.19c-3.32,0.66-6.55,1.23-9.94,1.44c-3.37,0.21-6.83,0.52-10.16-0.17
				c-0.14-0.03-0.19,0.17-0.06,0.21c3.37,1.03,6.95,0.69,10.42,0.46c3.25-0.21,6.79-0.44,9.82-1.73
				C52.44,70.34,52.34,70.16,52.23,70.19"/>
			<path class="st10" d="M52.04,73.04c-3.48,0.83-6.88,1.65-10.47,1.9c-3.31,0.23-7.36,0.52-10.45-0.89
				c-0.15-0.07-0.28,0.14-0.13,0.22c1.35,0.79,2.86,1.02,4.4,1.14c1.92,0.15,3.85,0.15,5.77,0.04c3.67-0.22,7.52-0.79,10.96-2.13
				C52.29,73.25,52.23,73,52.04,73.04"/>
			<path class="st10" d="M32.48,50c-0.01,0.15,0.19,0.21,0.28,0.12c0.63-0.59,1.28-1.18,2.19-1.24c1.26-0.08,1.76,0.8,2.24,1.77
				c0.07,0.14,0.31,0.11,0.34-0.04C38.1,47.68,32.76,47.24,32.48,50"/>
			<path class="st10" d="M52.66,49.08c-1,0.06-2.58,1.12-2.7,2.18c-0.02,0.2,0.25,0.25,0.36,0.13c0.56-0.53,1.08-1.01,1.78-1.35
				c0.56-0.28,1.11-0.21,1.44,0.36c0.2,0.36,0.21,0.76,0.44,1.11c0.11,0.16,0.39,0.15,0.44-0.06C54.67,50.39,53.84,49,52.66,49.08"
				/>
			<path class="st10" d="M35.27,55.52c-0.09-0.05-0.19-0.05-0.28-0.04c-0.57-0.24-1.29,1.53-1.38,1.82
				c-0.17,0.57-0.64,2.68,0.63,2.36c0.96-0.24,1.3-2.16,1.37-2.96C35.64,56.36,35.65,55.71,35.27,55.52 M34.92,57.6
				c-0.04,0.16-0.1,0.32-0.15,0.47c-0.15-0.1-0.28-0.23-0.35-0.45c-0.09-0.28-0.08-0.59-0.07-0.89c0.09-0.23,0.21-0.47,0.35-0.65
				C35.42,55.77,35.01,57.27,34.92,57.6"/>
			<path class="st10" d="M51.46,55.52c-0.09-0.05-0.19-0.05-0.28-0.04c-0.57-0.24-1.29,1.53-1.38,1.82
				c-0.17,0.57-0.64,2.68,0.63,2.36c0.96-0.24,1.3-2.16,1.37-2.96C51.83,56.36,51.84,55.71,51.46,55.52 M51.11,57.6
				c-0.04,0.16-0.1,0.32-0.15,0.47c-0.15-0.1-0.28-0.23-0.35-0.45c-0.09-0.28-0.08-0.59-0.07-0.89c0.09-0.23,0.21-0.47,0.35-0.65
				C51.61,55.77,51.2,57.27,51.11,57.6"/>
			<path class="st10" d="M65.66,189.39c-1.51-0.73-3.3-1.06-4.9-1.52c-1.28-0.37-2.78-0.99-4.19-1.02c0.06-0.04,0.12-0.06,0.19-0.1
				l0.69-0.47l-0.08-0.75c-0.21-1.83-0.45-3.65-0.63-5.47c-0.23-2.39-0.46-4.78-0.67-7.17c1.73-0.61,3.44-1.25,5.15-1.93
				c0.02,0.48,0.05,0.95,0.08,1.43l0.64-1.71l-0.04-0.77c-0.17-3.11-0.35-6.21-0.53-9.31c-0.53-8.8-1.22-17.59-2.22-26.35
				c-0.4-3.53-0.79-7.12-1.7-10.57c0.52-0.35,0.98-0.83,1.38-1.46c1.16-1.87,1.49-4.35,1.69-6.5c0.23-2.44,0.12-4.9-0.11-7.33
				c-0.48-4.98-1.37-10.09-3.03-14.83c-1.22-3.5-3.77-7.37-7.59-7.98c-0.06-0.11-0.12-0.23-0.18-0.34c-0.7-1.26-1.77-2.91-3.22-3.41
				c-0.01-0.25-0.02-0.5-0.04-0.75c1.21-0.21,2.41-0.65,3.5-1.07c1.82-0.7,3.57-1.59,5.09-2.81c2.5-1.98,4.4-5.16,5.1-8.4
				c0.91,0.33,2.22-0.17,2.92-0.84c1.65-1.57,3.16-3.9,3.42-6.19c0.17-1.51-0.35-4.94-2.53-4.66c-0.09,0.01-0.18,0.03-0.27,0.05
				c0.22-1.25,0.34-2.54,0.51-3.79c0.07-0.49,0.14-0.99,0.18-1.5c0.23,0.11,0.47,0.19,0.73,0.23c0.97,0.14,1.16-0.51,1.04-1.33
				c-0.33-2.14-1.28-4.12-2.64-5.77c0.37,0.05,0.73,0.09,1.1,0.11c1.61,0.09,1.82-1.09,1.65-2.47c-0.5-4.17-3.76-7.26-7.11-9.43
				c-3.55-2.3-7.61-3.8-11.78-4.42c-4.05-0.6-8.61-0.52-12.48,0.93c-1.9,0.71-3.66,1.9-4.7,3.69c-0.96,1.66-0.95,3.49-0.58,5.28
				c-2.24,1.05-3.41,3.84-4.08,6.07c-0.49,1.62-0.78,3.29-0.97,4.97c-0.19,1.79-0.41,3.68-0.31,5.48c-1.33-0.23-2.14,2.61-2.38,3.51
				c-0.49,1.88-0.48,4,0.23,5.82c0.4,1.02,1.38,2.05,2.46,1.84c-0.16,4.06,0.51,8.74,2.98,11.86c1.43,1.82,4.03,2.24,6.18,2.64
				c1.97,0.37,4.16,0.68,6.24,0.51c-0.04,0.33-0.08,0.66-0.12,0.99c-0.68-0.15-1.18,0.39-1.62,0.89c-0.14,0.16-0.28,0.32-0.42,0.49
				c-4.74,0.59-7.94,4.27-10.39,8.08c-2.84,4.41-5.09,9.2-6.68,14.2c-1.37,4.32-2.87,9.63-0.19,13.77c0.85,1.31,1.93,2.14,3.14,2.62
				c-0.42,3.09-0.67,6.22-0.98,9.32c-0.43,4.27-0.8,8.55-1.14,12.84c-0.67,8.49-1.18,17-1.48,25.51c0,0.05,0,0.09,0,0.13l-0.03,0.74
				l0.66,0.33c0.29,0.15,0.59,0.28,0.89,0.42c-0.33,2.51-0.62,5.02-0.88,7.53c-0.23,2.27-0.54,4.58-0.73,6.88l-0.05,0.63l0.67,0.52
				c0.25,0.18,0.51,0.34,0.78,0.5c-1.26,0.12-2.61,0.7-3.7,1.12c-1.64,0.63-3.22,1.4-4.7,2.35c-0.88,0.56-2.43,1.39-2.52,2.58
				c-0.05,0.67,0.46,1.47,1.17,1.32c1.35,0.28,2.78,0.26,4.14,0.28c1.61,0.02,3.22-0.04,4.82-0.16c1.68-0.13,3.4-0.3,5.09-0.59
				l0.73-0.13l0.31-0.72c0.7-1.82,0.98-3.96,0.52-5.65c0.14-0.06,0.27-0.12,0.4-0.18l0.6-0.32l0.09-0.79
				c0.18-1.62,0.36-3.24,0.55-4.86c0.29-2.38,0.66-4.75,1-7.12c2.48,0.72,5,1.2,7.56,1.35l0.53,0.03l0.1-0.74
				c0.08-0.59,0.17-1.18,0.25-1.76c0.44-3.11,0.86-6.23,1.29-9.34c0.35,3.26,0.78,6.52,1.28,9.76c0.07,0.44,0.14,0.88,0.2,1.32
				l0.11,0.75l0.68-0.05c0.01,0,0.02,0,0.04,0c2.1-0.17,4.18-0.52,6.23-0.99c0.39,2.22,0.68,4.46,0.97,6.7
				c0.23,1.79,0.42,3.62,0.65,5.43l0.06,0.46l0.69,0.13c-0.06,1.54,0.24,3.13,0.44,4.66c0.01,0.07,0.02,0.15,0.03,0.22l0.06,0.45
				l0.65,0.14c1.98,0.36,4.11,0.27,6.08,0.34c1.35,0.05,2.71,0.1,4.06,0.14c1.26,0.05,2.66,0.27,3.89,0.03
				c0.03-0.01,0.05-0.03,0.07-0.05c0.82-0.22,1.47-0.87,1.61-1.77C67.51,190.89,66.72,189.91,65.66,189.39 M46.47,87.16
				c-0.02-1.61-0.01-3.23-0.07-4.85c0.51,0.42,1.03,0.82,1.47,1.34c0.47,0.57,0.86,1.2,1.22,1.84l0.3,0.56
				c0.69,1.34,1.24,2.75,1.83,4.14c-0.44,0.6-0.99,1.13-1.57,1.6c-0.71,0.57-1.53,0.99-2.28,1.5l-0.34,0.24l0.37,0.34
				c0.53,0.48,1.05,0.96,1.56,1.45c0.3,0.29,0.58,0.59,0.87,0.9c-0.86,0.91-1.76,1.72-2.9,2.35c-1.24,0.68-2.57,1.09-3.91,1.5
				c0.15-0.29,0.3-0.59,0.44-0.88c0.9-1.84,1.66-3.75,2.24-5.72C46.33,91.33,46.49,89.37,46.47,87.16 M42.38,99.9
				c-0.29-0.55-0.56-1.11-0.79-1.69c-0.75-1.88-1.11-3.89-1.31-5.89c-0.13-1.28-0.16-2.56-0.15-3.84c1.32,1.74,4.42,1.52,5.74-0.19
				c-0.06,1.63-0.24,3.24-0.7,4.83c-0.56,1.92-1.28,3.79-2.15,5.58C42.82,99.11,42.6,99.51,42.38,99.9 M65.67,62.13
				c-0.27,1.42-1.03,2.7-1.89,3.85c-0.45,0.6-0.94,1.26-1.52,1.74c-0.56,0.46-1.46,0.75-2.1,0.44c0.1-0.58,0.16-1.15,0.17-1.72
				c0-0.14-0.19-0.15-0.23-0.03c-0.17,0.41-0.31,0.84-0.44,1.26l-0.21,0.69c-0.08,0.28-0.16,0.56-0.24,0.84
				c-1.59,1.49-3.61,2.48-5.75,2.85c0.01-0.4,0.01-0.8,0.01-1.18c-0.01-1.21-0.06-2.42-0.16-3.62c0.03-0.01,0.05-0.03,0.06-0.06
				c0.81-1.8,2.04-3.22,3.47-4.58c0.91-0.87,1.86-1.7,2.9-2.37c0.06,0.18,0.12,0.36,0.2,0.54c0.01,0.02,0.02,0.04,0.04,0.06
				c-0.1,0.27-0.17,0.54-0.23,0.81c-0.04,0.2,0.23,0.27,0.3,0.08c0.52-1.4,1.55-2.97,2.96-3.61C65.6,56.93,65.96,60.61,65.67,62.13
				 M52.62,64.33c-3.57,1.15-7.21,1.78-11,1.92c-1.09,0.04-2.22,0.08-3.36,0.08c0.06-0.61,0.05-1.23,0.16-1.85
				c0.16-0.87,0.45-1.71,0.84-2.51c0.64-1.31,1.59-2.39,2.46-3.54c0.06-0.09-0.06-0.22-0.15-0.15c-1.26,0.95-2.26,2.32-2.93,3.75
				c-0.57,1.22-1.1,2.91-0.79,4.3c-2.52-0.02-5.06-0.24-7.37-1.11l-0.35-0.14l-0.14,0.39c-0.06,0.18-0.11,0.36-0.17,0.53
				c-0.38-1.4-1.07-2.78-1.6-4.12c-0.57-1.43-1.13-2.87-1.86-4.23c-0.01-0.02-0.03-0.03-0.04-0.04c-0.01-0.02-0.02-0.04-0.03-0.06
				c0.06-0.47,0.12-0.94,0.19-1.41c0.17,0.04,0.35,0.07,0.52,0.11c0.52,0.12,1.04,0.27,1.58,0.32c-0.09,0.38-0.15,0.75-0.16,1.11
				c-0.1,3.02,2.52,5.93,5.63,5.57c2.89-0.33,4.82-2.33,5.13-5.17c1.65-1.1,4.48-2.42,5.95-0.27c0.07,0.1,0.26,0.04,0.22-0.09
				c-0.83-2.57-4.55-1.8-6.13-0.23c0.06-2.72-1.52-5.82-4.64-5.47c-0.09,0.01-0.09,0.14,0,0.14c2.94,0.06,4.36,3.01,4.18,5.62
				c-0.19,2.75-2,4.69-4.75,5.01c-3.01,0.36-5.41-2.59-5.12-5.46c0.27-2.67,2.19-4.62,4.78-5.06c0.12-0.02,0.07-0.18-0.03-0.19
				c-2.37-0.29-4.27,1.85-4.96,4.05c-0.54-0.19-1.14-0.28-1.7-0.38c-0.15-0.03-0.29-0.05-0.44-0.08c0.38-2.53,0.95-4.99,1.94-7.4
				c0.86-2.1,1.83-4.4,3.28-6.22c1.03,3.15,3.94,5.53,7.38,5.62c1.52,0.04,3-0.41,2.84-2.16c2.44,1.8,5.43,2.91,8.39,3.22
				c1.64,0.17,4-0.14,4.3-2.17c0.04-0.26,0.02-0.51-0.04-0.75c1.67,0.63,3.49,0.88,5.22,0.65c-0.51,2-0.78,4.11-0.9,6.12
				c-0.09,1.53-0.09,3.19,0.11,4.8c-0.33,0.02-0.67,0.04-0.99,0.06c-0.82,0.05-1.68,0.07-2.49,0.26c0-0.73-0.1-1.43-0.33-2.03
				c-0.97-2.56-3.87-3.35-6.24-2.3c-0.12,0.05-0.03,0.25,0.09,0.21c2.27-0.74,4.81-0.01,5.67,2.4c0.2,0.56,0.28,1.22,0.26,1.9
				c-0.03,0.05-0.03,0.1-0.01,0.15c-0.11,1.85-1.04,3.8-2.79,4.21c-2.05,0.48-4.88-0.6-5.61-2.66c-0.76-2.12,0.18-4.94,2.25-5.92
				c0.12-0.06,0.03-0.24-0.09-0.21c-2.53,0.66-3.35,4.39-2.49,6.56c0.9,2.27,4.14,3.37,6.39,2.67c1.8-0.56,2.75-2.57,2.89-4.51
				c0.9,0.04,1.83-0.11,2.72-0.17c0.29-0.02,0.57-0.04,0.86-0.05c0.09,0.57,0.22,1.14,0.38,1.68c-1.19,0.65-2.29,1.77-3.12,2.56
				c-1.09,1.03-2.71,2.46-3.2,4.05c-0.05-0.53-0.11-1.07-0.18-1.6l-0.06-0.42L52.62,64.33z M52.91,70.44
				c0.01,1.75-0.18,3.34-0.57,4.96c-3.14,1.42-6.44,2.39-9.96,2.59c-2.58,0.15-5.14-0.13-7.67-0.55c-1.91-0.32-3.83-0.62-5.39-1.68
				c-0.56-3.28,0.01-6.89,1.03-10.12c1.25,0.56,2.63,0.82,4,0.96c1.21,0.13,2.44,0.19,3.66,0.21c0.05,0.06,0.15,0.08,0.19,0
				c1.08,0.02,2.16,0,3.24-0.03c3.77-0.12,7.69-0.59,11.23-1.99C52.81,66.67,52.91,68.55,52.91,70.44 M24.92,50.93
				c0.16-1.63,0.4-3.26,0.79-4.85c0.66-2.66,1.7-5.22,3.91-6.83l0.39-0.27l-0.07-0.47c-0.22-1.6-0.28-3.19,0.54-4.68
				c0.86-1.56,2.33-2.66,3.94-3.35c3.29-1.42,7.23-1.61,10.76-1.33c3.52,0.28,7.01,1.2,10.21,2.71c3.15,1.49,6.34,3.55,8.39,6.43
				c0.63,0.88,1.13,1.86,1.46,2.89c0.13,0.41,0.24,0.82,0.31,1.25c0.05,0.29,0.16,0.73,0.11,1.02c-0.06,0.37-0.49,1.03-0.88,1.15
				c-0.46,0.15-1.3-0.11-1.75-0.18c-0.05-0.01-0.1-0.02-0.15-0.03l-0.66-0.12c-0.24-0.05-0.47-0.1-0.71-0.16l1.24,0.77
				c0.91,1.1,1.64,2.34,2.15,3.68c0.14,0.38,0.27,0.76,0.37,1.15c0.09,0.32,0.43,1.25,0.3,1.55c-0.2,0.47-0.71,0.36-1.26,0.04
				l-0.5-0.33l-0.06,0.57c-0.09,0.88-0.2,1.76-0.34,2.64c-0.17,1-0.41,2.08-0.35,3.11c-0.87,0.34-1.62,1.02-2.19,1.82
				c-0.26,0.04-0.52,0.12-0.77,0.23c-0.08-0.49-0.16-0.98-0.23-1.47c0.4-0.03,0.79-0.08,1.17-0.18c0.12-0.03,0.14-0.24,0-0.26
				c-0.41-0.08-0.83-0.1-1.25-0.1c-0.22-1.63-0.35-3.26-0.24-4.98c0.13-2.05,0.54-4.03,0.93-6.02l0.12-0.62l-0.57,0.11
				c-1.08,0.17-2.17,0.19-3.3-0.02c-0.91-0.17-1.72-0.51-2.5-0.9l-1.42-0.76l1.09,1.32c0.32,0.62,0.35,1.26-0.22,1.88
				c-1.3,1.43-4.01,0.71-5.62,0.29c-2.32-0.6-4.37-1.69-6.25-3.07l-0.9-0.7L41.32,45c0.21,0.86,0.14,1.8-0.91,2.03
				c-0.87,0.2-1.89,0.09-2.74-0.11c-2.78-0.64-4.68-2.69-5.61-5.23l-0.17-0.48l-0.29,0.28c-1.66,1.68-2.62,4.11-3.51,6.23
				c-1.05,2.48-1.82,5.16-2.11,7.87c-0.22-0.02-0.44-0.04-0.66-0.01c-0.08,0.01-0.13,0.12-0.05,0.17c0.21,0.11,0.44,0.19,0.67,0.26
				c-0.03,0.29-0.05,0.58-0.07,0.87c-0.35-0.52-0.81-1.18-1.33-1.5C24.79,53.91,24.77,52.4,24.92,50.93 M24.93,66.2l-0.04-0.58
				c-0.03-0.39-0.05-0.77-0.09-1.16c-0.01-0.14-0.2-0.14-0.21,0c-0.05,0.43-0.08,0.87-0.11,1.32c-1.7,0.48-2.32-2.33-2.44-3.58
				c-0.11-1.24,0.02-2.49,0.39-3.67c0.19-0.61,0.44-1.2,0.75-1.75c0.24-0.43,0.27-0.61,0.78-0.69c0.52-0.09,0.59,0.09,0.91,0.45
				c0.37,0.42,0.69,0.86,0.97,1.32c0,0.01,0,0.01,0,0.02c0,0.1,0.06,0.16,0.13,0.19c0.26,0.44,0.5,0.91,0.72,1.38
				c0.35,1.01,0.74,2.01,1.13,3c0.55,1.4,1,2.95,1.79,4.24c-0.33,1.19-0.56,2.4-0.71,3.63c-0.08,0.69-0.17,1.42-0.23,2.16
				c-0.56-0.91-1.34-1.7-2-2.54c-0.74-0.96-1.32-1.94-1.7-3.09C24.96,66.62,24.95,66.41,24.93,66.2 M34.2,80.29
				c-2.33-0.4-5.13-0.82-6.54-2.9c-1.84-2.71-2.32-5.83-2.57-8.99c0.21,0.5,0.5,0.97,0.82,1.43c0.79,1.11,1.68,2.35,2.74,3.21
				c-0.03,0.76-0.03,1.52,0.07,2.26l0.1,0.63l0.63,0.47c1.19,0.77,2.69,1.1,4.07,1.37c2.73,0.53,5.51,0.91,8.3,0.81
				c3.5-0.13,7.11-0.94,10.34-2.46l0.73-0.36l0.22-0.7c0.21-0.83,0.3-1.71,0.33-2.57c1.13,0.19,2.32-0.41,3.3-0.91
				c0.82-0.43,1.61-0.95,2.24-1.62c-0.22,0.71-0.46,1.41-0.78,2.1c-0.82,1.74-1.96,3.27-3.44,4.5c-2.36,1.96-5.41,3.26-8.46,3.93
				l-0.38,0.08c-0.67,0.14-1.33,0.24-1.99,0.32c-0.14,0.02-0.2,0.24-0.04,0.27c0.65,0.11,1.33,0.1,2,0.02
				c-0.08,2.05,0.03,4.11,0,6.15c-0.69,0.95-1.5,1.74-2.75,1.82c-1.27,0.08-2.14-0.59-3-1.38c0.05-2.13,0.2-4.26,0.24-6.4
				c0.42-0.05,0.84-0.12,1.24-0.22c0.16-0.04,0.11-0.25-0.04-0.27c-0.4-0.04-0.8-0.07-1.2-0.09l-0.43-0.03
				C38.03,80.62,36.12,80.62,34.2,80.29 M37.99,84.17c0.04-0.03,0.07-0.07,0.09-0.12c0.47-0.6,1.01-1.16,1.6-1.29
				c-0.34,3.39-0.31,6.89,0.09,10.2c0.32,2.66,1.09,5.04,2.26,7.28c-3,0.68-5.54-1.55-7.03-4.07c0.29-0.64,0.58-1.29,0.97-1.89
				c0.37-0.58,0.84-1.12,1.26-1.68l0.34-0.5l-0.34-0.24c-0.3-0.2-0.62-0.38-0.93-0.55c-0.61-0.34-1.24-0.69-1.89-0.99
				c0.42-0.96,0.86-1.92,1.39-2.84c0.43-0.74,0.89-1.46,1.4-2.16C37.4,85.03,37.67,84.6,37.99,84.17 M22.17,120.94
				c-3.88-3.39-2.64-9.14-1.38-13.43c1.33-4.55,3.2-8.93,5.57-13.04c2.46-4.25,5.7-9.21,10.87-10.14c-0.41,0.53-0.8,1.08-1.17,1.63
				c-0.84,1.27-1.64,2.67-2.22,4.13l-0.19,0.5l0.5,0.28c0.56,0.3,1.13,0.57,1.68,0.87c0.34,0.19,0.67,0.4,0.99,0.61
				c-0.81,0.97-1.64,1.99-2.22,3.12l-0.25,0.55l0.37,0.75c1.52,2.69,4.69,4.98,7.57,3.98l0.03,0.06c-0.1,0.93-0.02,1.88-0.03,2.81
				c-0.01,1.05-0.13,2.15,0.05,3.19c0.02,0.1,0.15,0.08,0.18,0c0.36-0.99,0.37-2.15,0.37-3.19c0-0.96,0.01-1.96-0.22-2.9l0.02-0.03
				c2.69-0.47,5.8-1.79,7.49-4.07l0.32-0.47l-0.31-0.31c-0.29-0.29-0.6-0.57-0.89-0.85c-0.48-0.45-0.97-0.89-1.48-1.31
				c0.95-0.49,1.86-1.19,2.6-1.87c0.38-0.34,0.71-0.71,1-1.1l0.32-0.52l-0.17-0.56c-0.38-1.16-0.89-2.29-1.44-3.37
				c3.24,0.99,5.39,4.11,6.53,7.31c1.46,4.09,2.29,8.48,2.83,12.78c0.54,4.26,0.82,8.69-0.25,12.9c-0.38,1.5-0.95,2.84-2.02,3.69
				l-0.49,0.33c-0.41,0.24-0.88,0.42-1.43,0.53c-2.12,0.42-4.24-0.41-6.19-1.16c-2.35-0.91-4.69-1.86-6.99-2.9
				c-0.81-0.36-1.59-0.75-2.34-1.19c0.03-0.02,0.05-0.03,0.08-0.05c1.95-1.26,3.7-2.73,5.66-3.96c0.73,0.06,1.46,0.11,2.19,0.16
				l0.59,0.04c0.91,0.07,1.83,0.13,2.73,0.22c0.91,0.09,1.83,0.19,2.75,0.3l0.7,0.08l0.03-0.59c0.09-1.96,0.09-3.93,0.1-5.85
				c0.04-4.58,0.02-9.17-0.37-13.74c-0.02-0.17-0.27-0.18-0.27,0c-0.02,4.51,0.11,9.01,0.06,13.52c-0.02,2.02-0.1,4.01-0.22,6.01
				c-0.78-0.07-1.57-0.13-2.35-0.21c-0.3-0.03-0.61-0.06-0.91-0.09c0.04-1.62-0.04-3.4-1.12-4.72c-1.23-1.5-2.8-1.31-4.53-1.56
				c0,0,0,0-0.01,0c-0.24-0.31-0.48-0.61-0.72-0.91l-0.43-0.49l-0.49,0.11c-1.26,0.3-2.52,0.64-3.76,1c0,0,0,0,0,0
				c-0.04-0.01-0.08,0.01-0.11,0.03c-1.5,0.43-2.98,0.89-4.45,1.36c-0.22,0.07-0.44,0.14-0.65,0.21c0.17-0.53,0.32-1.06,0.43-1.58
				c0.19-0.93,0.05-1.85-0.4-2.69c-1.03-1.91-3.35-2.96-5.34-3.72c0.51-2.69,1.23-5.34,2.02-7.96c0.03-0.1-0.12-0.16-0.16-0.07
				c-1.1,2.53-1.83,5.13-2.34,7.84c-1.13-0.43-3.92-1.69-3.39,0.63c0.2,0.89,0.98,1.49,1.76,1.87c0.01,0,0.02,0.01,0.02,0.01
				c-0.34,0.16-0.63,0.51-0.85,0.77c-0.34,0.39-0.73,0.87-0.94,1.38c-0.17,0.08-0.34,0.17-0.5,0.28c-0.52,0.37-1.13,1.06-1.09,1.76
				c0.01,0.14,0.05,0.26,0.1,0.37c-0.47,0.57-0.68,1.4-0.77,2.09c-0.03,0.26-0.11,0.59,0.08,0.8c0.2,0.23,0.55,0.26,0.83,0.2
				c0.27,0.69,1.4,0.88,2.51,0.87c-1.35,0.56-2.68,1.16-3.97,1.83c-0.15,0.08-0.05,0.34,0.12,0.28c3.71-1.34,7.34-2.87,11.08-4.15
				l0.61-0.21c0.39-0.13,0.79-0.27,1.18-0.39c1.47-0.47,2.95-0.89,4.43-1.29c0.93,0.98,1.59,2.38,2.02,3.6
				c0.46,1.3,0.53,2.61,0.74,3.95c-0.36,0.28-0.72,0.55-1.08,0.82c-0.7,0.52-1.42,1-2.16,1.46l-0.58,0.36
				c-0.99,0.58-2.01,1.09-3.07,1.55c-3.16,1.36-7.82,3.21-11.38,2l-0.55-0.21C23.13,121.65,22.63,121.34,22.17,120.94 M42,111.14
				c-0.33-0.77-0.93-2.2-1.75-2.92c1.14-0.3,2.28-0.6,3.42-0.89c0.84,1.08,1.63,2.19,2.3,3.39c0.61,1.09,1.09,2.21,1.53,3.35
				c-0.36-0.03-0.71-0.06-1.07-0.09c0.1-0.05,0.19-0.11,0.29-0.16c0.16-0.09,0.05-0.35-0.13-0.3c-0.35,0.11-0.69,0.24-1.02,0.4
				l-0.99,0.52c-0.58,0.35-1.14,0.74-1.68,1.15C43.03,114.1,42.57,112.47,42,111.14 M45.28,108.6c0.2,0.08,0.41,0.12,0.66,0.15
				c0.98,0.11,1.85,0.21,2.62,0.89c1.32,1.17,1.42,3.03,1.38,4.68c-0.6-0.06-1.2-0.12-1.81-0.18
				C47.49,112.2,46.49,110.3,45.28,108.6 M24.44,110.66c0.12-0.52,0.77-1.01,1.19-1.28c1.47-0.95,3.32-0.92,4.85-1.72
				c0.11-0.06,0.05-0.22-0.06-0.22c-1.31,0.01-2.84,0.45-4.06,0.91c-0.39,0.15-0.79,0.35-1.15,0.58c-0.42-0.24-1.1-0.64-1.14-1.15
				c-0.03-0.4,0.69-0.97,0.96-1.14c0.06-0.04,0.13-0.06,0.19-0.09c0,0,0.01,0,0.01,0c0.6-0.31,1.29-0.43,1.95-0.54
				c1.57-0.26,3.25-0.33,4.78-0.8c0.15-0.05,0.11-0.25-0.04-0.26c-0.56-0.06-1.13-0.04-1.71,0c-1.15-0.84-2.54-1.11-3.71-1.9
				c-0.38-0.26-1.66-1.57-0.66-2.04c0.18-0.09,0.88,0.26,1.11,0.33c1.02,0.33,2.02,0.73,2.99,1.18c1.67,0.79,3.7,1.82,4.23,3.76
				c0.3,1.11-0.11,2.22-0.49,3.33c-1.98,0.64-3.97,1.32-5.93,2.07c-0.68-0.07-1.37-0.05-2.06-0.1
				C24.96,111.55,24.23,111.59,24.44,110.66 M23.89,110.38c-0.12,0.24-0.17,0.45-0.18,0.64c-0.17-0.06-0.33-0.12-0.37-0.36
				c-0.04-0.25,0.11-0.68,0.18-0.93c0.1-0.35,0.25-0.68,0.39-1.02c0.25,0.23,0.59,0.4,0.92,0.52
				C24.43,109.55,24.11,109.93,23.89,110.38 M25.88,105.62c0.07-0.11,0.13-0.21,0.21-0.31c0.31-0.41,0.79-1.13,1.34-1.18
				c0.04,0,0.08-0.02,0.11-0.04c0.63,0.31,1.26,0.62,1.88,0.94c-0.55,0.07-1.09,0.16-1.62,0.24
				C27.18,105.37,26.51,105.45,25.88,105.62 M26.46,192.05c-0.14,0.67-0.35,1.3-0.59,1.91c-1.85,0.32-3.71,0.62-5.6,0.76
				c-1.53,0.11-3.08,0.16-4.61,0.16c-1.38-0.01-2.78-0.16-4.16-0.09c-0.58-0.2-0.69-0.54-0.55-0.91c2.21,0.36,4.55,0.17,6.78,0
				c2.24-0.17,4.76-0.2,6.91-0.88c0.11-0.04,0.09-0.19-0.03-0.2c-2.25-0.14-4.64,0.43-6.89,0.61c-2.22,0.17-4.44,0.11-6.66,0.24
				c0.43-0.72,1.55-1.5,1.96-1.75c0.96-0.6,1.96-1.14,2.98-1.63c1.05-0.5,2.14-0.92,3.25-1.28c0.58-0.19,1.21-0.32,1.82-0.5
				c0,0.02,0.01,0.04,0.03,0.06c0.74,0.65,1.91,1.16,2.84,1.46c0.81,0.27,1.86,0.45,2.71,0.18
				C26.63,190.8,26.59,191.42,26.46,192.05 M26.65,189.69c-1.08-0.14-2.09-0.06-3.16-0.53c-0.66-0.3-1.3-0.69-2.02-0.8
				c0.18-0.06,0.35-0.13,0.52-0.21c0.62,0.28,1.28,0.47,1.97,0.55c0.92,0.11,1.83-0.03,2.69-0.33
				C26.65,188.81,26.65,189.25,26.65,189.69 M28.25,181.61c-0.24,1.86-0.45,3.72-0.64,5.58c0,0.01,0,0.02,0,0.03
				c-1.1,0.58-2.24,1.01-3.61,0.86c-1.31-0.15-2.42-0.71-3.44-1.44c0.21-2.32,0.32-4.66,0.54-6.96c0.25-2.6,0.51-5.19,0.77-7.79
				c1.95,0.9,3.94,1.7,5.96,2.4c0.44,0.15,0.89,0.3,1.34,0.44C28.81,177.03,28.54,179.33,28.25,181.61 M47.91,174.52
				c-1.17,0.27-2.35,0.49-3.54,0.67c-0.91,0.13-1.82,0.23-2.72,0.3c-0.05-0.27-0.1-0.54-0.14-0.82c-0.68-4.23-1.24-8.48-1.67-12.74
				c-0.04-0.4-0.56-0.39-0.61,0c-0.42,3.13-0.84,6.25-1.26,9.38c-0.19,1.4-0.37,2.81-0.56,4.21c-2.54-0.14-5.06-0.57-7.56-1.31
				l-0.58-0.18c-2.52-0.78-4.95-1.76-7.34-2.86l-0.37-0.17c-0.32-0.15-0.64-0.3-0.96-0.45c0.13-3.79,0.28-7.58,0.5-11.37
				c0.48-8.5,1.1-17,1.9-25.48c0.34-3.69,0.83-7.38,1.14-11.07c2.5,0.74,5.44,0.17,8.03-0.66c2.43-0.78,4.81-1.76,7-3.07
				c0.64,0.39,1.31,0.74,1.99,1.05c2.16,1.02,4.39,1.92,6.61,2.8c2.62,1.04,6.43,2.56,9.14,1.22c0.69,3.02,1.08,6.09,1.43,9.18
				c0.49,4.34,0.91,8.69,1.28,13.05c0.67,7.98,1.14,15.99,1.55,23.99c-1.13,0.45-2.27,0.88-3.41,1.3c-0.59,0.22-1.17,0.42-1.76,0.63
				l-0.43,0.15c-2.38,0.83-4.8,1.57-7.26,2.15L47.91,174.52z M50.37,187.49c-0.25-1.95-0.57-3.9-0.83-5.84
				c-0.3-2.18-0.62-4.36-1.07-6.51c2.42-0.57,4.8-1.3,7.15-2.11c0.15,2.41,0.33,4.82,0.55,7.23c0.17,1.9,0.31,3.84,0.51,5.76
				c-0.74,0.5-1.54,0.91-2.44,1.18C52.97,187.59,51.66,187.66,50.37,187.49 M50.74,187.99c1.77,0.21,3.58-0.06,5.17-0.8
				c0.16,0.04,0.33,0.09,0.49,0.13c-0.85,0.34-1.59,0.91-2.43,1.29c-0.18,0.08-2.23,0.89-2.9,1.06
				C50.99,189.1,50.89,188.54,50.74,187.99 M65.21,193.5c-1.06-0.2-2.22-0.11-3.28-0.15c-1.35-0.05-2.71-0.1-4.06-0.15
				c-2.13-0.08-4.26-0.16-6.38-0.32c-0.02-0.12-0.04-0.24-0.06-0.35c-0.12-0.8-0.2-1.63-0.31-2.44c1.87-0.06,4.46-1.14,5.54-2.57
				c0.03-0.04,0.03-0.09,0.01-0.13c1.92,0.52,3.85,1.03,5.77,1.59c1,0.29,2.13,0.5,3.05,1c0.98,0.53,1.31,1.46,1.07,2.25
				c-2.31-0.09-4.62-0.04-6.93-0.13c-2.36-0.09-4.71-0.28-7.07-0.34c-0.1,0-0.13,0.17-0.03,0.19c2.27,0.37,4.58,0.5,6.88,0.61
				c2.29,0.11,4.63,0.23,6.92,0.13C66.1,193.05,65.73,193.35,65.21,193.5"/>
			<path class="st10" d="M41.77,120.78c0.01-0.14-0.21-0.17-0.24-0.03c-0.77,3.04-0.78,6.33-0.77,9.44c0.01,3.23,0.2,6.46,0.16,9.69
				c-0.04,3.21-0.21,6.42-0.47,9.62c-0.26,3.26-0.86,6.54-0.97,9.8c0,0.15,0.24,0.19,0.27,0.04c0.65-3.07,0.84-6.3,1.18-9.41
				c0.35-3.2,0.61-6.4,0.66-9.62c0.05-3.23-0.13-6.46-0.21-9.68C41.29,127.3,41.47,124.08,41.77,120.78"/>
			<path class="st10" d="M56.63,146.2c-1.69-0.42-3.54-0.5-5.27-0.59c-1.73-0.09-3.56-0.19-5.26,0.16
				c-0.15,0.03-0.09,0.23,0.03,0.24c1.72,0.21,3.49,0.1,5.23,0.2c1.74,0.1,3.46,0.41,5.2,0.51
				C56.86,146.74,56.92,146.27,56.63,146.2"/>
			<path class="st10" d="M56.84,151.88c-0.04-1.6-0.03-3.23-0.23-4.82c-0.02-0.19-0.28-0.2-0.3,0c-0.2,2.27,0.01,4.57-0.04,6.84
				c-0.05,2.32-1.29,3.92-3.68,4.04c-5.5,0.3-5.31-7.02-5.57-10.81c-0.02-0.25-0.4-0.26-0.4,0c-0.04,4.19,0.08,11.75,5.97,11.47
				c1.81-0.09,3.56-1.06,4.08-2.88C57.03,154.49,56.87,153.14,56.84,151.88"/>
			<path class="st10" d="M32.53,144.89c-1.49-0.22-3.24,0.28-4.71,0.53c-0.83,0.14-1.65,0.29-2.48,0.46
				c-0.68,0.14-1.69,0.21-2.26,0.62c-0.08,0.06-0.12,0.13-0.09,0.23l0.02,0.09c0.02,0.07,0.1,0.13,0.17,0.13
				c0.02,0,0.05,0,0.07-0.01c0.07,0,0.15-0.08,0.12-0.16c0.08,0.21,4.2-0.66,4.62-0.73c1.46-0.24,3.21-0.24,4.58-0.81
				C32.72,145.18,32.69,144.92,32.53,144.89"/>
			<path class="st10" d="M32.6,145.93c-0.01-0.27-0.38-0.25-0.41,0c-0.26,2.19-0.49,4.38-0.99,6.53c-0.44,1.92-0.95,4.64-3.02,5.44
				c-1.2,0.46-2.38-0.07-3.44-0.64c-0.51-0.27-1.16-0.57-1.45-1.1c-0.26-0.49-0.24-1.11-0.26-1.65c-0.1-2.15,0.21-4.23,0.27-6.36
				c0.01-0.19-0.28-0.22-0.32-0.04c-0.35,1.33-0.39,2.78-0.43,4.14c-0.03,1.17-0.15,2.54,0.14,3.69c0.23,0.91,1,1.36,1.77,1.81
				c0.98,0.57,2.08,1.12,3.24,0.96c2.06-0.27,3.08-2.33,3.62-4.11C32.15,151.83,32.69,148.83,32.6,145.93"/>
			<path class="st10" d="M38.64,123.43c-0.14-0.15-0.33,0.01-0.31,0.18c0.06,0.42,0.16,0.79,0.04,1.21
				c-0.1,0.36-0.38,0.79-0.81,0.74c-0.5-0.07-0.45-0.69-0.38-1.07c0.09-0.45,0.33-0.68,0.8-0.65c0.09,0.01,0.17-0.12,0.11-0.19
				c-0.37-0.51-1.08-0.11-1.3,0.34c-0.29,0.58-0.38,1.55,0.21,1.98c0.58,0.44,1.36,0.11,1.72-0.45
				C39.11,124.92,39.16,123.97,38.64,123.43"/>
			<path class="st10" d="M38.3,136.69c-0.17-0.22-0.46,0.06-0.36,0.28c0.23,0.5,0.11,1.07-0.17,1.52c-0.22,0.36-1.05,1.17-1.29,0.35
				c-0.25-0.86,0.75-1.73,1.38-2.09c0.14-0.08,0.04-0.27-0.11-0.25c-0.8,0.12-1.43,0.67-1.74,1.41c-0.26,0.61-0.24,1.49,0.45,1.8
				c0.72,0.31,1.41-0.27,1.78-0.84C38.7,138.17,38.81,137.35,38.3,136.69"/>
			<path class="st10" d="M38.44,150.79c-0.14-0.06-0.37,0.05-0.29,0.23c0.17,0.42,0.12,0.76-0.03,1.17
				c-0.11,0.3-0.23,0.61-0.47,0.83c-0.21,0.2-0.6,0.44-0.72,0.01c-0.1-0.37,0.15-0.94,0.32-1.25c0.19-0.35,0.52-0.6,0.71-0.94
				c0.06-0.1-0.04-0.2-0.14-0.18c-0.7,0.1-1.19,0.97-1.36,1.58c-0.15,0.53-0.3,1.55,0.45,1.67c0.77,0.12,1.38-0.57,1.66-1.2
				C38.8,152.17,39.15,151.12,38.44,150.79"/>
		</g>
	</g>
</g>
<g>
	<g>
		<g>
			<path d="M90.81,2.22c-2.73-1.44-5.76-2.2-8.85-2.21c-10.5,0-19.01,8.51-19.01,19c0,4.96,1.93,9.71,5.39,13.26l-0.79,5.65
				c-0.07,0.41,0.21,0.79,0.61,0.86c0.19,0.03,0.38-0.01,0.54-0.11l4.32-2.86c9.28,4.91,20.78,1.38,25.69-7.9
				S100.09,7.13,90.81,2.22z"/>
		</g>
	</g>
	<text transform="matrix(1 0 0 1 72.7651 27.7383)" class="st1 st11 st12">!!!</text>
	<g>
		<g>
			<g>
				<path class="st1" d="M90.81,2.22c-2.73-1.44-5.76-2.2-8.85-2.21c-10.5,0-19.01,8.51-19.01,19c0,4.96,1.93,9.71,5.39,13.26
					l-0.79,5.65c-0.07,0.41,0.21,0.79,0.61,0.86c0.19,0.03,0.38-0.01,0.54-0.11l4.32-2.86c9.28,4.91,20.78,1.38,25.69-7.9
					S100.09,7.13,90.81,2.22z M94.42,31.32c-3.29,3.33-7.78,5.21-12.46,5.22c-3.02,0-5.98-0.77-8.61-2.25
					c-0.23-0.13-0.52-0.13-0.75,0l-3.38,2.2l0.65-4.35c0.03-0.23-0.05-0.47-0.22-0.64c-6.89-6.79-6.96-17.88-0.17-24.76
					s17.88-6.96,24.76-0.17C101.14,13.35,101.21,24.43,94.42,31.32z"/>
			</g>
		</g>
	</g>
</g>
</svg>
