<?xml version="1.0" encoding="utf-8"?>
<!-- Generator: Adobe Illustrator 23.0.1, SVG Export Plug-In . SVG Version: 6.00 Build 0)  -->
<svg version="1.1" id="Layer_1" xmlns="http://www.w3.org/2000/svg" xmlns:xlink="http://www.w3.org/1999/xlink" x="0px" y="0px"
	 width="100.98px" height="129.99px" viewBox="0 0 100.98 129.99" style="enable-background:new 0 0 100.98 129.99;"
	 xml:space="preserve">
<style type="text/css">
	.st0{fill:#FFFFFF;}
	.st1{font-family:'Noteworthy-Light';}
	.st2{font-size:20.4334px;}
	.st3{clip-path:url(#SVGID_2_);}
	.st4{fill:#B5C4C6;}
	.st5{fill:#F7AB72;}
	.st6{fill:#663D29;}
	.st7{fill:#FCBA8D;}
	.st8{fill:#E18B4A;}
	.st9{fill:#7A5433;}
	.st10{fill:#7BEA68;}
	.st11{fill:#51AD49;}
	.st12{fill:#231F20;}
</style>
<g>
	<g>
		<g>
			<path d="M90.87,2.21c-2.73-1.44-5.76-2.2-8.85-2.21c-10.5,0-19.01,8.51-19.01,19c0,4.96,1.93,9.71,5.39,13.26l-0.79,5.65
				c-0.07,0.41,0.21,0.79,0.61,0.86c0.19,0.03,0.38-0.01,0.54-0.11l4.32-2.86c9.28,4.91,20.78,1.38,25.69-7.9
				S100.14,7.12,90.87,2.21z"/>
		</g>
	</g>
	<text transform="matrix(1 0 0 1 71.8217 26.7296)" class="st0 st1 st2">ok</text>
	<g>
		<g>
			<g>
				<path class="st0" d="M90.87,2.21c-2.73-1.44-5.76-2.2-8.85-2.21c-10.5,0-19.01,8.51-19.01,19c0,4.96,1.93,9.71,5.39,13.26
					l-0.79,5.65c-0.07,0.41,0.21,0.79,0.61,0.86c0.19,0.03,0.38-0.01,0.54-0.11l4.32-2.86c9.28,4.91,20.78,1.38,25.69-7.9
					S100.14,7.12,90.87,2.21z M94.48,31.31c-3.29,3.33-7.78,5.21-12.46,5.22c-3.02,0-5.98-0.77-8.61-2.25
					c-0.23-0.13-0.52-0.13-0.75,0l-3.38,2.2l0.65-4.35c0.03-0.23-0.05-0.47-0.22-0.64c-6.89-6.79-6.96-17.88-0.17-24.76
					s17.88-6.96,24.76-0.17C101.19,13.34,101.27,24.42,94.48,31.31z"/>
			</g>
		</g>
	</g>
</g>
<g>
	<defs>
		<rect id="SVGID_1_" y="8.13" width="95.63" height="121.86"/>
	</defs>
	<clipPath id="SVGID_2_">
		<use xlink:href="#SVGID_1_"  style="overflow:visible;"/>
	</clipPath>
	<g class="st3">
		<g>
			<path class="st0" d="M44.67,114.47l0.99-0.52c0.33-0.15,0.67-0.29,1.02-0.4c0.18-0.05,0.29,0.21,0.13,0.3
				c-0.1,0.05-0.19,0.11-0.29,0.16c0.36,0.03,0.71,0.06,1.07,0.09c-0.44-1.14-0.92-2.27-1.53-3.35c-0.67-1.21-1.46-2.31-2.3-3.39
				c-1.14,0.29-2.28,0.59-3.42,0.89c0.82,0.71,1.43,2.14,1.75,2.91c0.56,1.33,1.02,2.96,0.89,4.45
				C43.53,115.21,44.08,114.81,44.67,114.47z"/>
			<path class="st4" d="M46.97,112.71c-0.8-1.63-2.68-1.41-4.16-1.91c-0.51-0.17-0.9-0.49-1.26-0.83c0.23,0.45,0.41,0.88,0.55,1.2
				c0.56,1.33,1.02,2.96,0.89,4.45c0.54-0.41,1.1-0.8,1.68-1.15l0.99-0.52c0.33-0.15,0.67-0.29,1.02-0.4
				c0.18-0.05,0.29,0.21,0.13,0.3c-0.1,0.05-0.19,0.11-0.29,0.16c0.36,0.03,0.71,0.06,1.07,0.09c-0.16-0.42-0.34-0.84-0.51-1.26
				C47.03,112.82,46.99,112.77,46.97,112.71z"/>
			<path class="st5" d="M50.03,114.35c0.03-1.65-0.06-3.51-1.38-4.67c-0.77-0.68-1.64-0.78-2.62-0.89
				c-0.25-0.03-0.46-0.07-0.66-0.15c1.21,1.7,2.21,3.6,2.85,5.54C48.82,114.23,49.42,114.29,50.03,114.35z"/>
			<path class="st0" d="M24.31,122.12c3.56,1.21,8.22-0.64,11.37-2c1.06-0.46,2.08-0.97,3.07-1.55l0.58-0.36
				c0.74-0.45,1.46-0.93,2.16-1.46c0.36-0.27,0.71-0.54,1.07-0.82c-0.2-1.33-0.27-2.65-0.74-3.94c-0.44-1.22-1.09-2.62-2.02-3.6
				c-1.48,0.4-2.96,0.82-4.43,1.29c-0.4,0.13-0.79,0.26-1.18,0.39l-0.61,0.2c-3.73,1.28-7.36,2.8-11.07,4.15
				c-0.16,0.06-0.27-0.2-0.12-0.28c1.29-0.67,2.61-1.27,3.97-1.83c-1.1,0.01-2.24-0.18-2.5-0.87c-0.29,0.06-0.63,0.03-0.83-0.2
				c-0.19-0.21-0.12-0.54-0.08-0.8c0.09-0.69,0.3-1.52,0.77-2.09c-0.05-0.11-0.09-0.23-0.1-0.37c-0.04-0.7,0.57-1.39,1.09-1.76
				c0.16-0.11,0.32-0.2,0.5-0.28c0.21-0.51,0.6-0.98,0.94-1.38c0.23-0.26,0.51-0.61,0.85-0.77c-0.01,0-0.02-0.01-0.02-0.01
				c-0.77-0.39-1.55-0.98-1.75-1.87c-0.53-2.32,2.26-1.05,3.39-0.63c0.52-2.71,1.24-5.31,2.34-7.84c0.04-0.1,0.19-0.03,0.16,0.07
				c-0.79,2.61-1.51,5.27-2.02,7.95c1.99,0.75,4.31,1.8,5.33,3.71c0.45,0.84,0.59,1.76,0.4,2.69c-0.11,0.52-0.26,1.05-0.43,1.58
				c0.22-0.07,0.44-0.14,0.65-0.21c1.47-0.47,2.95-0.93,4.44-1.36c0.03-0.02,0.07-0.04,0.11-0.03c0,0,0,0,0,0
				c1.25-0.36,2.5-0.7,3.76-1l0.49-0.11l0.43,0.49c0.25,0.29,0.49,0.6,0.72,0.91c0,0,0,0,0.01,0c1.73,0.25,3.3,0.06,4.53,1.56
				c1.07,1.31,1.15,3.09,1.11,4.71c0.3,0.03,0.61,0.06,0.91,0.09c0.78,0.07,1.56,0.14,2.34,0.21c0.12-1.99,0.2-3.99,0.22-6
				c0.05-4.5-0.08-9.01-0.06-13.51c0-0.18,0.26-0.17,0.27,0c0.39,4.56,0.41,9.15,0.37,13.73c-0.02,1.92-0.01,3.89-0.1,5.85
				l-0.03,0.58l-0.7-0.08c-0.92-0.11-1.83-0.21-2.74-0.3c-0.91-0.09-1.82-0.16-2.73-0.22l-0.59-0.04c-0.73-0.05-1.46-0.1-2.19-0.16
				c-1.96,1.22-3.71,2.69-5.66,3.95c-0.03,0.02-0.05,0.03-0.08,0.05c0.75,0.43,1.53,0.82,2.34,1.19c2.3,1.03,4.63,1.99,6.98,2.89
				c1.94,0.75,4.06,1.58,6.18,1.16c0.55-0.11,1.02-0.29,1.43-0.53l0.49-0.33c1.08-0.86,1.64-2.19,2.02-3.69
				c1.07-4.2,0.79-8.63,0.25-12.89c-0.54-4.29-1.37-8.68-2.83-12.77c-1.14-3.19-3.29-6.32-6.52-7.3c0.56,1.08,1.06,2.21,1.44,3.37
				l0.17,0.56l-0.32,0.52c-0.28,0.39-0.62,0.76-1,1.1c-0.75,0.68-1.65,1.38-2.6,1.87c0.51,0.42,1,0.86,1.48,1.31
				c0.29,0.28,0.59,0.56,0.89,0.85l0.31,0.31l-0.32,0.47c-1.69,2.28-4.79,3.6-7.48,4.07l-0.02,0.03c0.24,0.93,0.23,1.94,0.22,2.89
				c-0.01,1.04-0.01,2.2-0.37,3.19c-0.03,0.08-0.17,0.1-0.18,0c-0.18-1.04-0.06-2.14-0.05-3.19c0.01-0.93-0.07-1.88,0.03-2.81
				l-0.03-0.06c-2.87,1-6.05-1.29-7.56-3.97l-0.37-0.75l0.25-0.55c0.57-1.12,1.4-2.15,2.22-3.11c-0.32-0.21-0.65-0.42-0.99-0.61
				c-0.55-0.3-1.12-0.57-1.68-0.87l-0.5-0.28l0.19-0.5c0.58-1.46,1.38-2.86,2.22-4.13c0.37-0.56,0.76-1.1,1.16-1.63
				c-5.17,0.93-8.41,5.89-10.87,10.14c-2.37,4.1-4.24,8.48-5.57,13.03c-1.25,4.29-2.49,10.04,1.38,13.42
				c0.46,0.4,0.95,0.71,1.48,0.95L24.31,122.12z"/>
			<path class="st4" d="M41.82,112c-0.12-0.33-0.26-0.68-0.41-1.03c-0.45,5.57-7.41,7.5-12.46,8.07c-2.32,0.26-5.51,0.64-7.18-1.4
				c-1.71-2.09,0.65-4.13,2.62-4.56c0.08-0.02,0.15-0.01,0.21,0.01c0.58-0.26,1.17-0.52,1.76-0.76c-1.1,0.01-2.24-0.18-2.5-0.87
				c-0.29,0.06-0.63,0.03-0.83-0.2c-0.19-0.21-0.12-0.54-0.08-0.8c0.01-0.04,0.01-0.08,0.02-0.12c-0.43,0.74-0.87,1.47-1.48,2.1
				c-0.12,0.12-0.35,0.17-0.49,0.06c-0.47-0.35-0.79-0.82-0.99-1.36c-0.66,3.54-0.6,7.33,2.27,9.83c0.46,0.4,0.95,0.71,1.48,0.95
				l0.55,0.21c3.56,1.21,8.22-0.64,11.37-2c1.06-0.46,2.08-0.97,3.07-1.55l0.58-0.36c0.74-0.45,1.46-0.93,2.16-1.46
				c0.36-0.27,0.71-0.54,1.07-0.82C42.36,114.61,42.29,113.29,41.82,112z"/>
			<path class="st4" d="M56.38,120.4c-1.84,1.53-4.48,1.36-6.53,0.39c-1.35-0.64-2.82-1.51-3.68-2.79
				c-0.85-1.27-0.79-2.15-0.34-3.43c-0.07-0.01-0.14-0.01-0.2-0.02c-1.96,1.22-3.71,2.69-5.66,3.95c-0.03,0.02-0.05,0.03-0.08,0.05
				c0.75,0.43,1.53,0.82,2.34,1.19c2.3,1.03,4.63,1.99,6.98,2.89c1.94,0.75,4.06,1.58,6.18,1.16c0.55-0.11,1.02-0.29,1.43-0.53
				l0.49-0.33c1.08-0.86,1.64-2.19,2.02-3.69c0.56-2.2,0.75-4.47,0.72-6.74C59.69,115.56,58.71,118.45,56.38,120.4z"/>
			<path class="st4" d="M29.08,101.48c0.77,0.29,1.59,0.63,2.36,1.04c-0.22-0.9-0.42-1.8-0.53-2.71c-0.23-1.8-0.1-3.59-0.07-5.39
				C30.16,96.74,29.54,99.1,29.08,101.48z"/>
			<path class="st4" d="M50.65,113.25c0.02,0.39,0.01,0.78,0,1.16c0.3,0.03,0.61,0.06,0.91,0.09c0.78,0.07,1.56,0.14,2.34,0.21
				c0.12-1.99,0.2-3.99,0.22-6c0.02-2.16,0.01-4.32-0.02-6.48c-0.16,1.73-0.41,3.45-0.81,5.12
				C52.8,109.42,52.12,111.67,50.65,113.25z"/>
			<path class="st6" d="M24.04,189.98c-0.93-0.31-2.1-0.81-2.84-1.46c-0.02-0.02-0.03-0.04-0.03-0.06c-0.61,0.18-1.24,0.31-1.82,0.5
				c-1.11,0.36-2.19,0.78-3.24,1.28c-1.02,0.48-2.02,1.02-2.98,1.63c-0.41,0.26-1.53,1.04-1.96,1.75c2.22-0.13,4.44-0.07,6.66-0.24
				c2.25-0.17,4.63-0.75,6.88-0.61c0.11,0.01,0.14,0.16,0.03,0.2c-2.15,0.68-4.67,0.71-6.91,0.88c-2.22,0.17-4.56,0.36-6.77,0
				c-0.13,0.37-0.02,0.7,0.55,0.91c1.38-0.07,2.78,0.09,4.16,0.09c1.54,0.01,3.08-0.04,4.61-0.16c1.89-0.14,3.75-0.44,5.6-0.76
				c0.24-0.62,0.45-1.25,0.59-1.91c0.13-0.63,0.17-1.24,0.18-1.86C25.9,190.43,24.85,190.25,24.04,189.98z"/>
			<path class="st0" d="M35.88,87.54c-0.53,0.92-0.97,1.87-1.39,2.83c0.65,0.3,1.28,0.65,1.89,0.99c0.32,0.18,0.63,0.36,0.93,0.55
				l0.34,0.24l-0.34,0.5c-0.41,0.56-0.88,1.09-1.25,1.68c-0.38,0.6-0.67,1.24-0.97,1.89c1.49,2.52,4.03,4.75,7.03,4.07
				c-1.17-2.24-1.93-4.62-2.25-7.28c-0.4-3.3-0.43-6.8-0.09-10.19c-0.58,0.13-1.13,0.69-1.6,1.29c-0.02,0.05-0.05,0.09-0.09,0.12
				c-0.32,0.42-0.6,0.85-0.81,1.15C36.77,86.08,36.31,86.8,35.88,87.54z"/>
			<path class="st5" d="M25.79,111.63c0.69,0.04,1.38,0.03,2.06,0.1c1.96-0.75,3.95-1.43,5.93-2.07c0.37-1.11,0.79-2.23,0.49-3.33
				c-0.53-1.94-2.55-2.97-4.23-3.76c-0.97-0.45-1.97-0.85-2.99-1.18c-0.23-0.08-0.93-0.42-1.11-0.33c-1,0.47,0.28,1.78,0.66,2.04
				c1.17,0.79,2.56,1.06,3.71,1.9c0.57-0.05,1.14-0.06,1.71,0c0.15,0.01,0.19,0.22,0.04,0.26c-1.52,0.47-3.2,0.53-4.78,0.8
				c-0.66,0.11-1.34,0.24-1.95,0.54c0,0-0.01,0-0.01,0c-0.06,0.03-0.13,0.06-0.19,0.09c-0.27,0.16-0.99,0.74-0.96,1.14
				c0.04,0.51,0.72,0.91,1.14,1.15c0.36-0.24,0.75-0.43,1.14-0.58c1.22-0.46,2.75-0.9,4.05-0.91c0.12,0,0.17,0.17,0.06,0.22
				c-1.52,0.8-3.37,0.77-4.84,1.72c-0.42,0.27-1.07,0.76-1.19,1.28C24.34,111.63,25.07,111.59,25.79,111.63z"/>
			<path class="st5" d="M24.92,109.27c-0.33-0.12-0.67-0.29-0.92-0.52c-0.13,0.34-0.29,0.67-0.39,1.02
				c-0.07,0.24-0.22,0.68-0.18,0.92c0.04,0.24,0.2,0.3,0.37,0.36c0.01-0.19,0.07-0.39,0.18-0.63
				C24.21,109.96,24.54,109.58,24.92,109.27z"/>
			<path class="st5" d="M29.53,105.07c-0.62-0.33-1.25-0.63-1.88-0.94c-0.03,0.02-0.06,0.04-0.11,0.04
				c-0.55,0.06-1.04,0.77-1.34,1.18c-0.07,0.1-0.14,0.2-0.21,0.31c0.63-0.18,1.29-0.26,1.92-0.35
				C28.44,105.23,28.98,105.14,29.53,105.07z"/>
			<path class="st0" d="M34.86,58.15c0.06-0.16,0.11-0.31,0.15-0.47c0.09-0.33,0.49-1.83-0.23-1.53c-0.14,0.18-0.25,0.42-0.34,0.65
				c-0.01,0.3-0.02,0.61,0.07,0.89C34.59,57.92,34.71,58.05,34.86,58.15z"/>
			<path class="st0" d="M51.04,58.15c0.06-0.16,0.11-0.31,0.15-0.47c0.09-0.33,0.49-1.83-0.23-1.53c-0.13,0.18-0.25,0.42-0.34,0.65
				c-0.01,0.3-0.02,0.61,0.07,0.89C50.76,57.92,50.89,58.05,51.04,58.15z"/>
			<path class="st5" d="M53.11,64.71c0.07,0.53,0.13,1.06,0.18,1.6c0.48-1.58,2.1-3.01,3.19-4.04c0.83-0.79,1.93-1.9,3.12-2.56
				c-0.16-0.55-0.29-1.11-0.38-1.68c-0.29,0.01-0.58,0.03-0.86,0.05c-0.89,0.07-1.82,0.21-2.71,0.17c-0.14,1.95-1.1,3.95-2.89,4.51
				c-2.24,0.7-5.48-0.4-6.38-2.67c-0.86-2.17-0.04-5.89,2.49-6.55c0.12-0.03,0.21,0.15,0.09,0.21c-2.07,0.98-3,3.8-2.25,5.92
				c0.74,2.06,3.56,3.15,5.61,2.66c1.75-0.41,2.68-2.36,2.79-4.21c-0.02-0.05-0.02-0.11,0.01-0.15c0.02-0.68-0.06-1.34-0.26-1.9
				c-0.86-2.41-3.39-3.13-5.67-2.4c-0.12,0.04-0.21-0.16-0.09-0.21c2.37-1.05,5.27-0.27,6.23,2.3c0.23,0.6,0.33,1.3,0.33,2.03
				c0.81-0.18,1.67-0.21,2.49-0.25c0.33-0.02,0.66-0.04,0.99-0.06c-0.21-1.61-0.2-3.27-0.11-4.8c0.12-2,0.38-4.11,0.9-6.12
				c-1.73,0.23-3.56-0.01-5.22-0.65c0.06,0.24,0.08,0.49,0.04,0.75c-0.3,2.03-2.65,2.34-4.29,2.17c-2.96-0.31-5.94-1.42-8.38-3.22
				c0.16,1.75-1.32,2.2-2.84,2.16c-3.43-0.09-6.34-2.47-7.37-5.62c-1.45,1.83-2.41,4.12-3.27,6.22c-0.99,2.4-1.56,4.86-1.94,7.39
				c0.15,0.03,0.29,0.06,0.44,0.08c0.56,0.1,1.16,0.19,1.7,0.38c0.69-2.2,2.58-4.34,4.95-4.05c0.1,0.01,0.15,0.17,0.03,0.19
				c-2.59,0.44-4.51,2.38-4.78,5.05c-0.29,2.87,2.11,5.81,5.11,5.46c2.74-0.32,4.55-2.26,4.74-5.01c0.18-2.61-1.24-5.55-4.18-5.62
				c-0.09,0-0.09-0.13,0-0.14c3.12-0.35,4.7,2.74,4.64,5.47c1.58-1.57,5.29-2.34,6.12,0.23c0.04,0.13-0.14,0.19-0.22,0.09
				c-1.47-2.14-4.3-0.82-5.95,0.27c-0.31,2.83-2.24,4.83-5.13,5.16c-3.11,0.36-5.73-2.56-5.62-5.57c0.01-0.36,0.07-0.73,0.16-1.1
				c-0.53-0.06-1.06-0.2-1.57-0.32c-0.17-0.04-0.34-0.08-0.51-0.11c-0.07,0.47-0.13,0.94-0.19,1.41c0.01,0.02,0.02,0.04,0.03,0.06
				c0.02,0.01,0.03,0.02,0.04,0.04c0.72,1.36,1.29,2.8,1.85,4.23c0.53,1.34,1.22,2.71,1.59,4.12c0.06-0.18,0.11-0.36,0.17-0.53
				l0.14-0.39l0.35,0.14c2.31,0.87,4.85,1.09,7.36,1.11c-0.31-1.39,0.23-3.07,0.79-4.29c0.66-1.43,1.66-2.8,2.93-3.75
				c0.09-0.07,0.22,0.06,0.15,0.15c-0.87,1.16-1.82,2.23-2.46,3.54c-0.39,0.79-0.68,1.63-0.84,2.5c-0.11,0.62-0.1,1.23-0.16,1.85
				c1.14,0,2.26-0.04,3.36-0.08c3.79-0.14,7.42-0.77,10.99-1.92l0.34-0.11L53.11,64.71z M49.89,57.39c0.09-0.29,0.81-2.05,1.38-1.82
				c0.09-0.02,0.19-0.01,0.28,0.04c0.37,0.19,0.37,0.84,0.34,1.18c-0.07,0.8-0.41,2.72-1.36,2.96
				C49.25,60.06,49.72,57.95,49.89,57.39z M52.74,49.16c1.18-0.07,2,1.32,1.76,2.37c-0.05,0.21-0.33,0.22-0.44,0.06
				c-0.22-0.35-0.24-0.75-0.44-1.11c-0.33-0.58-0.88-0.64-1.44-0.36c-0.7,0.35-1.22,0.83-1.78,1.35c-0.11,0.12-0.39,0.07-0.36-0.13
				C50.17,50.28,51.74,49.22,52.74,49.16z M35.09,55.57c0.09-0.02,0.19-0.01,0.28,0.04c0.37,0.19,0.37,0.84,0.34,1.18
				c-0.07,0.8-0.41,2.72-1.36,2.96c-1.27,0.32-0.8-1.79-0.63-2.36C33.8,57.1,34.52,55.33,35.09,55.57z M37.62,50.68
				c-0.03,0.15-0.27,0.18-0.34,0.04c-0.48-0.97-0.98-1.85-2.24-1.77c-0.91,0.06-1.56,0.65-2.19,1.24c-0.09,0.09-0.3,0.03-0.28-0.12
				C32.85,47.32,38.2,47.76,37.62,50.68z"/>
			<path class="st7" d="M28.99,57.41c-0.29,2.87,2.11,5.81,5.11,5.46c2.74-0.32,4.55-2.26,4.74-5.01c0.18-2.55-1.18-5.41-3.97-5.6
				c-0.72,0.08-1.42,0.38-2.14,0.37C30.68,53.35,29.22,55.11,28.99,57.41z M33.71,57.39c0.09-0.29,0.8-2.05,1.37-1.82
				c0.09-0.02,0.19-0.01,0.28,0.04c0.37,0.19,0.37,0.84,0.34,1.18c-0.07,0.8-0.41,2.72-1.36,2.96
				C33.07,60.06,33.54,57.95,33.71,57.39z"/>
			<path class="st7" d="M54.86,56.06c-0.86-2.41-3.39-3.13-5.67-2.4c-0.04,0.01-0.07,0-0.1-0.02c-0.03,0.01-0.06,0.03-0.09,0.04
				c-0.01,0.03-0.02,0.05-0.05,0.07c-2.07,0.98-3,3.8-2.25,5.92c0.74,2.06,3.56,3.15,5.61,2.66c1.75-0.41,2.68-2.36,2.79-4.21
				c-0.02-0.05-0.02-0.11,0.01-0.15C55.14,57.28,55.05,56.62,54.86,56.06z M51.88,56.79c-0.07,0.8-0.41,2.72-1.36,2.96
				c-1.27,0.32-0.8-1.79-0.63-2.36c0.09-0.29,0.81-2.05,1.38-1.82c0.09-0.02,0.19-0.01,0.28,0.04
				C51.92,55.79,51.91,56.44,51.88,56.79z"/>
			<path class="st8" d="M59.22,58.02c-0.29,0.01-0.58,0.03-0.86,0.05c-0.41,0.03-0.82,0.08-1.23,0.11c0.02,0.16,0.03,0.32,0.06,0.48
				c0.05,0.4,0.31,1.45,0.69,2.31c0.54-0.47,1.12-0.93,1.73-1.26C59.44,59.16,59.32,58.6,59.22,58.02z"/>
			<path class="st8" d="M31.15,47.31c0.12-0.09,0.29-0.06,0.41,0c0.77,0.38,1.55,0.77,2.33,1.14c1.35-0.53,3.3-0.05,3.7,1.29
				c1.72,0.32,3.47,0.15,5.23-1c0.15-0.1,0.37-0.06,0.49,0.06c1.73,1.78,4.24,2.6,6.74,2.54c0,0,0-0.01,0-0.01
				c0.12-1.06,1.7-2.12,2.7-2.18c0.74-0.05,1.35,0.49,1.63,1.16c0.3-0.15,0.6-0.3,0.88-0.48c0.18-0.11,0.46-0.05,0.55,0.14
				c1.21,2.39,1.05,5.01,1.26,7.6c0.36-0.03,0.73-0.04,1.08-0.07c0.33-0.02,0.66-0.04,0.99-0.06c-0.21-1.61-0.2-3.27-0.11-4.8
				c0.12-2,0.38-4.11,0.9-6.12c-1.73,0.23-3.56-0.01-5.22-0.65c0.06,0.24,0.08,0.49,0.04,0.75c-0.3,2.03-2.65,2.34-4.29,2.17
				c-2.96-0.31-5.94-1.42-8.38-3.22c0.16,1.75-1.32,2.2-2.84,2.16c-3.43-0.09-6.34-2.47-7.37-5.62c-1.45,1.83-2.41,4.12-3.27,6.22
				c-0.27,0.67-0.51,1.34-0.73,2.01C28.82,49.23,29.95,48.23,31.15,47.31z"/>
			<path class="st5" d="M52.19,50.12c-0.63,0.31-1.12,0.74-1.62,1.21c1.07-0.07,2.13-0.31,3.12-0.7c-0.02-0.05-0.04-0.1-0.06-0.14
				C53.3,49.9,52.74,49.84,52.19,50.12z"/>
			<path class="st5" d="M35.05,48.96c0.48,0.19,0.95,0.37,1.43,0.51C36.14,49.12,35.69,48.91,35.05,48.96L35.05,48.96z"/>
			<path class="st5" d="M28.78,72.53c0.05-0.74,0.14-1.47,0.23-2.16c0.15-1.22,0.38-2.44,0.71-3.63c-0.79-1.29-1.24-2.84-1.78-4.24
				c-0.39-0.99-0.78-1.99-1.13-3c-0.23-0.47-0.46-0.93-0.72-1.38c-0.07-0.02-0.13-0.08-0.13-0.19c0-0.01,0-0.01,0-0.02
				c-0.29-0.46-0.6-0.9-0.97-1.32c-0.32-0.36-0.38-0.54-0.91-0.45c-0.51,0.08-0.54,0.26-0.78,0.69c-0.31,0.55-0.56,1.14-0.75,1.75
				c-0.37,1.18-0.5,2.43-0.39,3.67c0.11,1.25,0.74,4.06,2.44,3.58c0.03-0.45,0.06-0.89,0.11-1.32c0.01-0.14,0.2-0.14,0.21,0
				c0.03,0.38,0.06,0.77,0.09,1.16l0.04,0.58c0.01,0.21,0.03,0.43,0.04,0.64c0.38,1.15,0.96,2.13,1.7,3.09
				C27.43,70.84,28.22,71.62,28.78,72.53z M24.9,63.47c-0.03,0.1-0.17,0.07-0.17-0.02c-0.07-1.11,0.02-2.23-0.1-3.34
				c-0.02-0.2-0.02-0.95-0.42-0.68c-0.16,0.11-0.26,0.67-0.32,0.84c-0.11,0.36-0.17,0.69-0.37,1.01c-0.08,0.13-0.28,0.11-0.32-0.04
				c-0.21-0.73,0.36-3.28,1.56-2.53c0.49,0.31,0.39,1.09,0.39,1.58C25.17,61.35,25.17,62.44,24.9,63.47z"/>
			<path class="st5" d="M40.47,80.81c0.4,0.02,0.8,0.05,1.2,0.09c0.14,0.01,0.2,0.23,0.04,0.27c-0.4,0.1-0.82,0.17-1.24,0.22
				c-0.04,2.14-0.19,4.27-0.24,6.4c0.87,0.79,1.73,1.46,3,1.38c1.26-0.08,2.06-0.87,2.75-1.82c0.03-2.04-0.08-4.1,0-6.15
				c-0.67,0.09-1.34,0.09-2-0.02c-0.16-0.03-0.1-0.25,0.04-0.26c0.66-0.08,1.32-0.19,1.99-0.32l0.38-0.08
				c3.05-0.67,6.09-1.97,8.45-3.93c1.48-1.23,2.62-2.76,3.44-4.49c0.32-0.68,0.56-1.38,0.78-2.09c-0.63,0.67-1.42,1.19-2.24,1.62
				c-0.98,0.51-2.16,1.11-3.3,0.91c-0.03,0.86-0.12,1.74-0.33,2.57l-0.22,0.7l-0.73,0.36c-3.22,1.52-6.83,2.32-10.33,2.46
				c-2.79,0.11-5.57-0.28-8.3-0.81c-1.37-0.27-2.88-0.6-4.07-1.37l-0.63-0.47l-0.1-0.63c-0.1-0.74-0.1-1.5-0.07-2.25
				c-1.06-0.86-1.95-2.09-2.74-3.2c-0.32-0.45-0.6-0.92-0.82-1.42c0.25,3.16,0.73,6.28,2.57,8.99c1.41,2.08,4.21,2.5,6.54,2.9
				c1.92,0.33,3.83,0.33,5.74,0.43L40.47,80.81z"/>
			<path class="st5" d="M40.42,82.78c-0.06,1.67-0.16,3.34-0.2,5c0.62,0.57,1.25,1.07,2.02,1.28C42.66,86.47,42.2,82.91,40.42,82.78
				z"/>
			<path class="st8" d="M45.98,81.19c-0.67,0.09-1.34,0.09-2-0.02c-0.16-0.03-0.1-0.25,0.04-0.26c0.33-0.04,0.66-0.09,1-0.14
				c-1.09,0.11-2.18,0.17-3.27,0.17c0.08,0.07,0.08,0.2-0.04,0.23c-0.4,0.1-0.82,0.17-1.24,0.22c0,0.18-0.01,0.36-0.02,0.54
				c2.4,0,3.09,4.15,2.6,7.24c0.06,0,0.12,0.01,0.18,0c1.26-0.08,2.06-0.87,2.75-1.82C46.01,85.3,45.9,83.24,45.98,81.19z"/>
			<path class="st5" d="M36.63,80.56c-2.21-0.33-5.25-0.82-7.76-1.97c1.51,1.12,3.61,1.44,5.43,1.76c1.05,0.18,2.1,0.26,3.14,0.32
				C37.17,80.63,36.9,80.6,36.63,80.56z"/>
			<path class="st9" d="M25.98,56.95c0.01-0.29,0.04-0.58,0.07-0.87c-0.23-0.07-0.46-0.14-0.67-0.26c-0.09-0.05-0.04-0.16,0.05-0.17
				c0.22-0.02,0.44-0.01,0.66,0.01c0.29-2.7,1.07-5.39,2.11-7.87c0.9-2.11,1.85-4.54,3.51-6.22L32,41.3l0.17,0.48
				c0.93,2.54,2.83,4.58,5.61,5.23c0.85,0.2,1.87,0.3,2.74,0.11c1.04-0.24,1.12-1.17,0.91-2.03l-0.42-1.09l0.9,0.7
				c1.87,1.38,3.92,2.46,6.24,3.07c1.61,0.42,4.31,1.14,5.62-0.29c0.56-0.62,0.54-1.26,0.22-1.88l-1.09-1.32l1.42,0.76
				c0.78,0.39,1.59,0.72,2.5,0.89c1.12,0.21,2.22,0.19,3.29,0.02l0.57-0.11l-0.12,0.62c-0.38,1.99-0.8,3.97-0.93,6.02
				c-0.11,1.71,0.02,3.34,0.24,4.97c0.42,0,0.84,0.02,1.25,0.1c0.14,0.02,0.12,0.23,0,0.26c-0.38,0.1-0.78,0.15-1.17,0.18
				c0.07,0.49,0.15,0.97,0.23,1.47c0.25-0.1,0.51-0.18,0.77-0.23c0.57-0.8,1.32-1.48,2.19-1.82c-0.05-1.03,0.19-2.11,0.35-3.11
				c0.15-0.88,0.25-1.76,0.34-2.64l0.06-0.57l0.5,0.33c0.55,0.31,1.06,0.43,1.26-0.04c0.13-0.3-0.21-1.23-0.3-1.55
				c-0.1-0.39-0.23-0.77-0.37-1.15c-0.5-1.34-1.24-2.58-2.15-3.68l-1.24-0.77c0.23,0.06,0.47,0.11,0.71,0.16l0.66,0.12
				c0.05,0.01,0.1,0.02,0.15,0.03c0.45,0.07,1.29,0.33,1.75,0.18c0.39-0.13,0.81-0.79,0.88-1.15c0.05-0.29-0.06-0.73-0.11-1.02
				c-0.07-0.42-0.18-0.84-0.31-1.25c-0.33-1.03-0.83-2-1.46-2.88c-2.05-2.88-5.23-4.94-8.38-6.43c-3.2-1.51-6.68-2.43-10.2-2.71
				c-3.53-0.28-7.46-0.09-10.75,1.33c-1.61,0.69-3.08,1.79-3.94,3.35c-0.82,1.49-0.76,3.08-0.54,4.68l0.07,0.47l-0.39,0.27
				c-2.21,1.61-3.25,4.16-3.91,6.83c-0.39,1.59-0.63,3.22-0.79,4.84c-0.15,1.47-0.13,2.98-0.37,4.45
				C25.17,55.77,25.63,56.43,25.98,56.95z"/>
			<path class="st6" d="M62.96,44.48c0.05,0.01,0.1,0.02,0.15,0.03c0.45,0.07,1.29,0.33,1.75,0.18c0.39-0.13,0.81-0.79,0.88-1.15
				c0.05-0.29-0.06-0.73-0.11-1.02c-0.07-0.42-0.18-0.84-0.31-1.25c-0.12-0.36-0.26-0.72-0.42-1.06c-0.06,1.1-0.63,2.02-2.11,2.39
				c-4.67,1.15-9.7-1.36-13.9-3.3c0.16,4.34-6.62,1.2-9.27-0.83c-0.24,2.6-3.85,1.96-5.46,0.14c-1.73-1.95-2.23-4.55-1.61-6.88
				c-0.79,0.6-1.48,1.32-1.96,2.21c-0.82,1.49-0.76,3.08-0.54,4.68l0.07,0.47l-0.39,0.27c-2.21,1.61-3.25,4.16-3.91,6.83
				c-0.39,1.59-0.63,3.22-0.79,4.84c-0.15,1.47-0.13,2.98-0.37,4.45c0.52,0.32,0.98,0.97,1.32,1.49c0.01-0.29,0.04-0.58,0.07-0.87
				c-0.23-0.07-0.46-0.14-0.67-0.26c-0.09-0.05-0.04-0.16,0.05-0.17c0.22-0.02,0.44-0.01,0.66,0.01c0.29-2.7,1.07-5.39,2.11-7.87
				c0.9-2.11,1.85-4.54,3.51-6.22L32,41.3l0.17,0.48c0.93,2.54,2.83,4.58,5.61,5.23c0.85,0.2,1.87,0.3,2.74,0.11
				c1.04-0.24,1.12-1.17,0.91-2.03l-0.42-1.09l0.9,0.7c1.87,1.38,3.92,2.46,6.24,3.07c1.61,0.42,4.31,1.14,5.62-0.29
				c0.56-0.62,0.54-1.26,0.22-1.88l-1.09-1.32l1.42,0.76c0.78,0.39,1.59,0.72,2.5,0.89c1.12,0.21,2.22,0.19,3.29,0.02l0.57-0.11
				l-0.12,0.62c-0.38,1.99-0.8,3.97-0.93,6.02c-0.11,1.71,0.02,3.34,0.24,4.97c0.42,0,0.84,0.02,1.25,0.1
				c0.14,0.02,0.12,0.23,0,0.26c-0.38,0.1-0.78,0.15-1.17,0.18c0.07,0.49,0.15,0.97,0.23,1.47c0.25-0.1,0.51-0.18,0.77-0.23
				c0.57-0.8,1.32-1.48,2.19-1.82c-0.05-1.03,0.19-2.11,0.35-3.11c0.15-0.88,0.25-1.76,0.34-2.64l0.06-0.57l0.5,0.33
				c0.55,0.31,1.06,0.43,1.26-0.04c0.13-0.3-0.21-1.23-0.3-1.55c-0.1-0.39-0.23-0.77-0.37-1.15c-0.5-1.34-1.24-2.58-2.15-3.68
				l-1.24-0.77c0.23,0.06,0.47,0.11,0.71,0.16L62.96,44.48z"/>
			<path class="st5" d="M24.07,188.66c-0.69-0.08-1.34-0.27-1.97-0.55c-0.17,0.08-0.34,0.15-0.52,0.21c0.72,0.12,1.35,0.51,2.01,0.8
				c1.07,0.48,2.08,0.39,3.16,0.53c0-0.44,0-0.88,0-1.32C25.89,188.63,24.98,188.77,24.07,188.66z"/>
			<path class="st5" d="M56.48,187.3c-0.16-0.04-0.33-0.09-0.49-0.13c-1.59,0.74-3.4,1.01-5.17,0.8c0.14,0.55,0.25,1.11,0.33,1.68
				c0.68-0.17,2.72-0.98,2.9-1.06C54.89,188.2,55.64,187.63,56.48,187.3z"/>
			<path class="st6" d="M65.56,189.96c-0.92-0.5-2.05-0.71-3.04-1c-1.92-0.56-3.84-1.07-5.76-1.59c0.02,0.04,0.02,0.09-0.01,0.13
				c-1.08,1.43-3.66,2.5-5.53,2.57c0.11,0.82,0.19,1.64,0.31,2.44c0.02,0.12,0.04,0.23,0.06,0.35c2.12,0.16,4.24,0.24,6.37,0.32
				c1.35,0.05,2.7,0.1,4.06,0.15c1.06,0.04,2.22-0.05,3.27,0.15c0.51-0.16,0.89-0.45,1.13-0.8c-2.29,0.11-4.63-0.01-6.92-0.13
				c-2.3-0.11-4.6-0.25-6.87-0.61c-0.11-0.02-0.08-0.19,0.03-0.19c2.36,0.05,4.71,0.25,7.06,0.34c2.31,0.08,4.62,0.04,6.92,0.13
				C66.87,191.42,66.54,190.49,65.56,189.96z"/>
			<path class="st10" d="M54.31,187.18c0.9-0.27,1.7-0.68,2.44-1.18c-0.2-1.92-0.34-3.86-0.51-5.76c-0.22-2.41-0.39-4.82-0.54-7.23
				c-2.34,0.81-4.73,1.54-7.14,2.11c0.45,2.15,0.77,4.32,1.07,6.51c0.26,1.93,0.58,3.88,0.83,5.83
				C51.74,187.63,53.06,187.56,54.31,187.18z"/>
			<path class="st0" d="M43.55,99.22c-0.14,0.29-0.29,0.58-0.44,0.88c1.34-0.41,2.66-0.81,3.9-1.49c1.14-0.63,2.04-1.44,2.9-2.34
				c-0.29-0.31-0.57-0.61-0.87-0.9c-0.51-0.5-1.03-0.97-1.56-1.45l-0.37-0.34l0.34-0.24c0.75-0.51,1.57-0.93,2.28-1.5
				c0.58-0.47,1.13-1,1.57-1.6c-0.59-1.39-1.14-2.79-1.83-4.13l-0.3-0.56c-0.36-0.65-0.75-1.28-1.22-1.84
				c-0.44-0.52-0.96-0.92-1.47-1.34c0.06,1.62,0.05,3.24,0.07,4.85c0.02,2.21-0.14,4.17-0.77,6.3
				C45.2,95.47,44.45,97.38,43.55,99.22z"/>
			<path class="st0" d="M56.08,172.11c0.59-0.21,1.18-0.42,1.76-0.63c1.14-0.42,2.28-0.85,3.41-1.3c-0.41-8-0.88-15.99-1.55-23.97
				c-0.36-4.35-0.79-8.7-1.27-13.04c-0.34-3.09-0.74-6.16-1.43-9.17c-2.7,1.34-6.51-0.17-9.13-1.22c-2.22-0.88-4.44-1.79-6.6-2.8
				c-0.68-0.32-1.35-0.66-1.99-1.05c-2.19,1.32-4.57,2.3-6.99,3.07c-2.59,0.82-5.53,1.4-8.02,0.66c-0.32,3.69-0.8,7.38-1.14,11.07
				c-0.8,8.47-1.42,16.96-1.9,25.46c-0.21,3.79-0.36,7.57-0.5,11.36c0.32,0.15,0.64,0.3,0.95,0.45l0.37,0.17
				c2.38,1.09,4.81,2.07,7.33,2.86l0.58,0.18c2.49,0.74,5.01,1.17,7.55,1.31c0.18-1.4,0.37-2.81,0.56-4.21
				c0.42-3.13,0.84-6.25,1.25-9.38c0.05-0.39,0.57-0.4,0.61,0c0.43,4.26,0.98,8.51,1.67,12.73c0.04,0.27,0.09,0.54,0.14,0.82
				c0.9-0.06,1.81-0.16,2.72-0.3c1.19-0.18,2.37-0.41,3.54-0.67l0.4-0.1c2.45-0.58,4.87-1.32,7.25-2.15L56.08,172.11z M31.41,154.6
				c-0.53,1.77-1.56,3.83-3.62,4.11c-1.17,0.15-2.26-0.39-3.24-0.96c-0.76-0.45-1.53-0.9-1.76-1.81c-0.3-1.14-0.18-2.51-0.14-3.68
				c0.04-1.36,0.08-2.81,0.43-4.14c0.05-0.18,0.33-0.14,0.32,0.04c-0.06,2.13-0.38,4.21-0.27,6.36c0.03,0.54,0,1.16,0.26,1.65
				c0.28,0.53,0.94,0.83,1.45,1.1c1.06,0.57,2.24,1.1,3.44,0.64c2.08-0.8,2.58-3.52,3.02-5.44c0.5-2.15,0.73-4.34,0.99-6.53
				c0.03-0.25,0.4-0.27,0.41,0C32.78,148.84,32.24,151.83,31.41,154.6z M32.67,145.25c-1.37,0.58-3.11,0.58-4.58,0.81
				c-0.42,0.07-4.54,0.94-4.61,0.73c0.03,0.08-0.05,0.15-0.12,0.16c-0.02,0-0.05,0-0.07,0.01c-0.07,0-0.15-0.06-0.17-0.13
				l-0.02-0.09c-0.02-0.1,0.02-0.17,0.09-0.23c0.57-0.41,1.58-0.48,2.26-0.62c0.82-0.17,1.65-0.32,2.47-0.46
				c1.47-0.25,3.22-0.75,4.71-0.53C32.79,144.92,32.82,145.19,32.67,145.25z M36.12,137.91c0.31-0.73,0.95-1.28,1.74-1.4
				c0.14-0.02,0.25,0.17,0.11,0.25c-0.64,0.36-1.63,1.23-1.38,2.09c0.23,0.82,1.06,0,1.29-0.35c0.28-0.45,0.4-1.02,0.17-1.52
				c-0.1-0.22,0.19-0.49,0.36-0.28c0.51,0.66,0.39,1.49-0.04,2.17c-0.37,0.57-1.06,1.15-1.78,0.84
				C35.88,139.41,35.86,138.52,36.12,137.91z M38.66,152.7c-0.28,0.63-0.89,1.31-1.66,1.2c-0.75-0.11-0.6-1.14-0.45-1.67
				c0.18-0.61,0.67-1.48,1.36-1.58c0.1-0.02,0.2,0.08,0.14,0.18c-0.19,0.34-0.51,0.59-0.71,0.94c-0.17,0.31-0.42,0.88-0.32,1.25
				c0.12,0.43,0.51,0.19,0.72-0.01c0.23-0.23,0.36-0.54,0.47-0.83c0.15-0.42,0.2-0.76,0.03-1.17c-0.07-0.18,0.16-0.29,0.29-0.23
				C39.24,151.12,38.89,152.17,38.66,152.7z M38.81,125.54c-0.36,0.56-1.14,0.88-1.72,0.45c-0.58-0.43-0.5-1.4-0.21-1.98
				c0.22-0.45,0.93-0.84,1.3-0.34c0.06,0.08-0.02,0.2-0.11,0.19c-0.46-0.04-0.71,0.19-0.8,0.65c-0.07,0.37-0.12,1,0.38,1.06
				c0.44,0.06,0.71-0.37,0.81-0.74c0.12-0.42,0.02-0.8-0.04-1.21c-0.02-0.17,0.17-0.32,0.31-0.18
				C39.25,123.99,39.2,124.94,38.81,125.54z M41.47,130.64c0.08,3.23,0.26,6.45,0.21,9.68c-0.05,3.21-0.31,6.42-0.66,9.61
				c-0.34,3.11-0.54,6.34-1.18,9.41c-0.03,0.16-0.28,0.12-0.27-0.04c0.11-3.26,0.71-6.54,0.97-9.8c0.25-3.2,0.43-6.41,0.46-9.62
				c0.04-3.23-0.15-6.45-0.16-9.68c-0.01-3.11,0.01-6.4,0.77-9.43c0.03-0.13,0.26-0.11,0.24,0.03
				C41.56,124.1,41.38,127.32,41.47,130.64z M46.19,145.78c1.7-0.35,3.53-0.25,5.26-0.16c1.73,0.09,3.58,0.17,5.26,0.59
				c0.29,0.07,0.23,0.54-0.07,0.53c-1.73-0.1-3.46-0.4-5.19-0.51c-1.73-0.1-3.5,0-5.22-0.2C46.09,146.01,46.04,145.81,46.19,145.78z
				 M46.71,147.14c0-0.26,0.38-0.25,0.4,0c0.26,3.79,0.08,11.1,5.57,10.8c2.39-0.13,3.63-1.73,3.68-4.04
				c0.05-2.27-0.16-4.57,0.04-6.84c0.02-0.2,0.28-0.19,0.3,0c0.2,1.59,0.18,3.22,0.23,4.82c0.03,1.26,0.19,2.61-0.17,3.83
				c-0.52,1.82-2.27,2.79-4.08,2.88C46.79,158.88,46.67,151.32,46.71,147.14z"/>
			<path class="st4" d="M37.65,125.58c0.44,0.06,0.71-0.37,0.81-0.74c0.09-0.33,0.05-0.63,0-0.94c-0.1-0.03-0.2-0.05-0.31-0.07
				c-0.02,0.02-0.05,0.04-0.09,0.04c-0.46-0.04-0.71,0.19-0.8,0.65C37.21,124.88,37.16,125.51,37.65,125.58z"/>
			<path class="st4" d="M59.7,146.21c-0.36-4.35-0.79-8.7-1.27-13.04c-0.34-3.09-0.74-6.16-1.43-9.17c-2.7,1.34-6.51-0.17-9.13-1.22
				c-2.22-0.88-4.44-1.79-6.6-2.8c-0.68-0.32-1.35-0.66-1.99-1.05c-2.19,1.32-4.57,2.3-6.99,3.07c-2.59,0.82-5.53,1.4-8.02,0.66
				c0,0.01,0,0.02,0,0.03c1.16,0.56,2.21,1.21,3.61,1.31c1.46,0.1,2.79,0.03,4.2-0.38c1.86-0.55,3.89-1.34,5.82-0.64
				c0,0,0.01,0,0.01,0.01c0.04-0.01,0.09-0.01,0.14-0.01c1.01,0.16,1.88,0.55,2.78,0.96c0.1-0.18,0.2-0.33,0.31-0.46
				c0.11-0.92,0.27-1.82,0.49-2.7c0.03-0.13,0.26-0.11,0.24,0.03c-0.06,0.73-0.12,1.45-0.18,2.18c0.95-0.54,2.17-0.03,3.4,0.66
				c3.57,2.01,6.79,3.62,11,2.86c0.23-0.04,0.41,0.06,0.5,0.28c1.23,3.27,0.94,7.39,0.96,10.82c0.02,2.86,0.7,6.49-0.56,9.15
				c-0.05,0.11-0.13,0.17-0.22,0.19c0.15,1.08,0.23,2.4,0.13,3.71c0.01,0.41,0.02,0.82,0.03,1.23c0.03,1.26,0.19,2.61-0.17,3.83
				c-0.22,0.75-0.64,1.35-1.19,1.81c0.67-0.21,1.32-0.36,2.01,0.19c0.9,0.7,0.75,2.88,0.7,3.84c-0.17,3.63-1.64,6.14-4.84,8
				c-2.67,1.55-7,3.2-9.89,1.2c-1.32-0.91-2.34-2.25-3.04-3.75c0.32,2.56,0.68,5.11,1.09,7.66c0.04,0.27,0.09,0.54,0.14,0.82
				c0.9-0.06,1.81-0.16,2.72-0.3c1.19-0.18,2.37-0.41,3.54-0.67l0.4-0.1c2.45-0.58,4.87-1.32,7.25-2.15l0.43-0.15
				c0.59-0.21,1.18-0.42,1.76-0.63c1.14-0.42,2.28-0.85,3.41-1.3C60.84,162.18,60.37,154.18,59.7,146.21z"/>
			<path class="st4" d="M35.54,169.22c-2.22,1.25-4.91,0.78-7.17-0.21c-3.67-1.62-6.02-5.59-7.16-9.64
				c-0.21,3.73-0.35,7.45-0.49,11.18c0.32,0.15,0.64,0.3,0.95,0.45l0.37,0.17c2.38,1.09,4.81,2.07,7.33,2.86l0.58,0.18
				c2.49,0.74,5.01,1.17,7.55,1.31c0.18-1.4,0.37-2.81,0.56-4.21c0.26-1.96,0.52-3.92,0.79-5.89C38.09,166.97,37,168.4,35.54,169.22
				z"/>
			<path class="st4" d="M26.75,154.36c-2.01,0.12-2.96-1.55-3.53-3.34c-0.08,1.16-0.15,2.32-0.1,3.5c0.03,0.54,0,1.16,0.26,1.65
				c0.28,0.53,0.94,0.83,1.45,1.1c1.06,0.57,2.24,1.1,3.44,0.64c2.08-0.8,2.58-3.52,3.02-5.44c0.19-0.81,0.33-1.63,0.46-2.46
				C30.63,152.24,28.89,154.24,26.75,154.36z"/>
			<path class="st4" d="M38.24,150.89c-0.03-0.01-0.07-0.02-0.1-0.04c-0.03-0.01-0.05-0.02-0.08-0.03c0,0,0,0.01,0,0.01
				c-0.19,0.34-0.51,0.59-0.71,0.94c-0.17,0.31-0.42,0.88-0.32,1.25c0.12,0.43,0.51,0.19,0.72-0.01c0.23-0.23,0.36-0.54,0.47-0.83
				c0.15-0.42,0.2-0.76,0.03-1.17C38.22,150.97,38.22,150.93,38.24,150.89z"/>
			<path class="st4" d="M38.03,136.82c-0.03-0.02-0.05-0.03-0.07-0.05c-0.64,0.36-1.61,1.22-1.37,2.08c0.23,0.82,1.06,0,1.29-0.35
				c0.28-0.45,0.4-1.02,0.17-1.52C38.01,136.92,38.01,136.87,38.03,136.82z"/>
			<path class="st4" d="M54.41,155.84c-1.9,1.03-4.5,0.94-6.02-0.54c0.77,1.63,2.06,2.76,4.28,2.64c2.39-0.13,3.63-1.73,3.68-4.04
				c0-0.19,0-0.37,0-0.56C55.97,154.42,55.35,155.33,54.41,155.84z"/>
			<path class="st10" d="M21.98,171.89c-0.26,2.59-0.52,5.19-0.77,7.78c-0.22,2.3-0.34,4.64-0.54,6.96
				c1.02,0.73,2.13,1.29,3.44,1.44c1.36,0.15,2.5-0.28,3.61-0.86c0-0.01,0-0.02,0-0.03c0.19-1.86,0.4-3.72,0.64-5.58
				c0.29-2.28,0.56-4.58,0.91-6.86c-0.45-0.14-0.89-0.28-1.34-0.44C25.92,173.59,23.93,172.79,21.98,171.89z"/>
			<path class="st11" d="M51.31,182.7c-0.31-1.9-0.49-4.39,0.66-6.07c0.96-1.41,2.32-2.3,3.77-3.09c-0.01-0.18-0.03-0.35-0.04-0.53
				c-2.34,0.81-4.73,1.54-7.14,2.11c0.45,2.15,0.77,4.32,1.07,6.51c0.26,1.93,0.58,3.88,0.83,5.83c1.29,0.17,2.6,0.09,3.86-0.28
				c0.25-0.07,0.48-0.16,0.71-0.25C53.16,186.61,51.72,185.26,51.31,182.7z"/>
			<path class="st11" d="M27.93,174.29c-2.01-0.7-4.01-1.5-5.95-2.4c-0.01,0.13-0.03,0.26-0.04,0.39c1.56,1.35,3.1,2.69,4.01,4.58
				c0.96,2.01,0.86,4.49,0.66,6.65c-0.19,2.03-1.6,3.74-3.33,4.39c0.27,0.07,0.55,0.12,0.84,0.16c1.36,0.15,2.5-0.28,3.61-0.86
				c0-0.01,0-0.02,0-0.03c0.19-1.86,0.4-3.72,0.64-5.58c0.29-2.28,0.56-4.58,0.91-6.86C28.82,174.59,28.38,174.44,27.93,174.29z"/>
			<path class="st5" d="M60.12,61.79c-0.07,0.19-0.34,0.12-0.3-0.08c0.05-0.26,0.13-0.53,0.23-0.81c-0.01-0.01-0.03-0.03-0.04-0.06
				c-0.07-0.17-0.13-0.36-0.2-0.54c-1.05,0.68-1.99,1.5-2.9,2.37c-1.42,1.36-2.66,2.77-3.46,4.57c-0.01,0.03-0.04,0.05-0.06,0.06
				c0.09,1.2,0.15,2.41,0.16,3.62c0,0.38,0,0.78-0.01,1.18c2.14-0.37,4.15-1.36,5.74-2.85c0.08-0.28,0.16-0.56,0.24-0.84l0.21-0.69
				c0.13-0.42,0.28-0.85,0.44-1.26c0.05-0.12,0.23-0.11,0.23,0.03c-0.01,0.57-0.07,1.14-0.17,1.72c0.64,0.32,1.54,0.02,2.1-0.44
				c0.58-0.48,1.07-1.14,1.52-1.74c0.86-1.15,1.62-2.42,1.89-3.85c0.29-1.52-0.07-5.19-2.66-4.02
				C61.67,58.83,60.65,60.4,60.12,61.79z M63.97,62.66c-0.07,0.08-0.18,0.02-0.21-0.06c-0.17-0.43-0.04-1.2-0.54-1.44
				c-0.53-0.26-0.81,0.42-1,0.79c-0.44,0.86-0.66,1.77-0.93,2.69c-0.04,0.12-0.22,0.1-0.22-0.03c0.01-0.94,0.27-1.86,0.63-2.73
				c0.2-0.5,0.43-1.17,0.98-1.41C63.94,59.94,64.71,61.8,63.97,62.66z"/>
			<path class="st11" d="M45.96,88.34c-1.32,1.71-4.42,1.93-5.74,0.19c-0.01,1.28,0.02,2.55,0.15,3.84c0.2,2,0.56,4.01,1.31,5.89
				c0.23,0.58,0.5,1.14,0.79,1.69c0.22-0.39,0.44-0.79,0.63-1.2c0.87-1.8,1.59-3.66,2.15-5.58C45.71,91.58,45.89,89.97,45.96,88.34z
				"/>
		</g>
		<g>
			<path class="st12" d="M24.77,58.71c-1.2-0.75-1.77,1.8-1.56,2.53c0.04,0.15,0.24,0.17,0.32,0.04c0.2-0.32,0.26-0.65,0.37-1.01
				c0.05-0.17,0.15-0.74,0.32-0.84c0.4-0.27,0.4,0.49,0.42,0.68c0.12,1.11,0.03,2.22,0.1,3.34c0.01,0.1,0.15,0.12,0.17,0.02
				c0.26-1.04,0.26-2.12,0.25-3.18C25.15,59.81,25.26,59.02,24.77,58.71"/>
			<path class="st12" d="M62.68,60.47c-0.55,0.23-0.78,0.9-0.98,1.41c-0.35,0.87-0.61,1.79-0.63,2.73c0,0.13,0.18,0.15,0.22,0.03
				c0.27-0.92,0.49-1.83,0.93-2.69c0.19-0.37,0.47-1.05,1-0.79c0.5,0.25,0.37,1.01,0.54,1.44c0.03,0.08,0.14,0.14,0.21,0.06
				C64.71,61.8,63.94,59.94,62.68,60.47"/>
			<path class="st12" d="M32.58,50.08c-0.01,0.15,0.19,0.21,0.28,0.12c0.63-0.59,1.28-1.18,2.19-1.24c1.26-0.08,1.76,0.8,2.24,1.77
				c0.07,0.14,0.31,0.11,0.34-0.04C38.2,47.76,32.85,47.32,32.58,50.08"/>
			<path class="st12" d="M52.74,49.16c-1,0.06-2.58,1.12-2.7,2.18c-0.02,0.2,0.25,0.25,0.36,0.13c0.55-0.53,1.08-1,1.78-1.35
				c0.56-0.28,1.11-0.21,1.44,0.36c0.2,0.35,0.21,0.76,0.44,1.11c0.11,0.16,0.39,0.15,0.44-0.06
				C54.75,50.48,53.92,49.09,52.74,49.16"/>
			<path class="st12" d="M35.37,55.6c-0.09-0.05-0.19-0.05-0.28-0.04c-0.57-0.24-1.29,1.53-1.37,1.82
				c-0.17,0.57-0.64,2.68,0.63,2.36c0.96-0.24,1.3-2.16,1.36-2.96C35.73,56.44,35.74,55.79,35.37,55.6 M35.02,57.68
				c-0.04,0.16-0.1,0.32-0.15,0.47c-0.15-0.1-0.28-0.23-0.35-0.45c-0.09-0.28-0.08-0.59-0.07-0.89c0.09-0.23,0.21-0.47,0.34-0.65
				C35.51,55.84,35.11,57.35,35.02,57.68"/>
			<path class="st12" d="M51.55,55.6c-0.09-0.05-0.19-0.05-0.28-0.04c-0.57-0.24-1.29,1.53-1.38,1.82
				c-0.17,0.57-0.64,2.68,0.63,2.36c0.96-0.24,1.3-2.16,1.36-2.96C51.91,56.44,51.92,55.79,51.55,55.6 M51.19,57.68
				c-0.04,0.16-0.1,0.32-0.15,0.47c-0.15-0.1-0.28-0.23-0.35-0.45c-0.09-0.28-0.08-0.59-0.07-0.89c0.09-0.23,0.21-0.47,0.34-0.65
				C51.69,55.84,51.28,57.35,51.19,57.68"/>
			<path class="st12" d="M65.73,189.36c-1.51-0.73-3.3-1.06-4.9-1.52c-1.28-0.37-2.78-0.99-4.18-1.02c0.06-0.04,0.12-0.06,0.18-0.1
				l0.69-0.47l-0.08-0.75c-0.21-1.82-0.45-3.65-0.63-5.46c-0.23-2.39-0.46-4.78-0.67-7.17c1.73-0.61,3.44-1.25,5.14-1.93
				c0.02,0.48,0.05,0.95,0.08,1.43l0.64-1.71l-0.04-0.77c-0.17-3.1-0.35-6.2-0.53-9.3c-0.53-8.79-1.22-17.58-2.22-26.33
				c-0.4-3.52-0.79-7.12-1.7-10.56c0.52-0.35,0.98-0.83,1.38-1.46c1.16-1.87,1.49-4.35,1.69-6.5c0.23-2.44,0.12-4.89-0.11-7.33
				c-0.48-4.98-1.37-10.08-3.03-14.82c-1.22-3.5-3.77-7.37-7.58-7.97c-0.06-0.11-0.12-0.23-0.18-0.34c-0.7-1.26-1.77-2.91-3.22-3.41
				c-0.01-0.25-0.02-0.5-0.04-0.75c1.21-0.21,2.41-0.65,3.5-1.07c1.82-0.7,3.56-1.59,5.09-2.8c2.49-1.98,4.4-5.15,5.1-8.4
				c0.9,0.33,2.22-0.17,2.91-0.84c1.65-1.57,3.16-3.89,3.42-6.18c0.17-1.51-0.35-4.94-2.53-4.65c-0.09,0.01-0.18,0.03-0.27,0.05
				c0.22-1.25,0.34-2.54,0.51-3.79c0.07-0.49,0.14-0.99,0.18-1.5c0.23,0.11,0.47,0.19,0.73,0.23c0.97,0.14,1.16-0.51,1.04-1.33
				c-0.33-2.13-1.28-4.12-2.64-5.77c0.37,0.05,0.73,0.09,1.1,0.11c1.61,0.09,1.82-1.09,1.65-2.47c-0.5-4.17-3.76-7.25-7.11-9.42
				c-3.54-2.3-7.6-3.8-11.78-4.41c-4.05-0.6-8.6-0.52-12.47,0.93c-1.9,0.71-3.66,1.9-4.7,3.68c-0.96,1.66-0.95,3.49-0.58,5.28
				c-2.24,1.05-3.41,3.84-4.08,6.06c-0.49,1.62-0.78,3.29-0.97,4.96c-0.19,1.79-0.41,3.68-0.31,5.47c-1.32-0.23-2.14,2.6-2.38,3.5
				c-0.49,1.87-0.48,3.99,0.23,5.81c0.4,1.02,1.38,2.05,2.46,1.84c-0.16,4.05,0.51,8.73,2.97,11.85c1.43,1.81,4.03,2.24,6.18,2.64
				c1.97,0.37,4.16,0.68,6.23,0.51c-0.04,0.33-0.08,0.66-0.12,0.99c-0.68-0.15-1.17,0.39-1.62,0.89c-0.14,0.16-0.28,0.32-0.42,0.49
				c-4.74,0.59-7.93,4.27-10.38,8.08c-2.84,4.4-5.09,9.2-6.67,14.19c-1.37,4.32-2.87,9.63-0.19,13.76c0.85,1.31,1.93,2.14,3.14,2.62
				c-0.42,3.09-0.67,6.22-0.98,9.31c-0.43,4.27-0.8,8.55-1.14,12.83c-0.67,8.49-1.17,16.98-1.48,25.49c0,0.05,0,0.09,0,0.13
				l-0.03,0.74l0.66,0.32c0.29,0.15,0.59,0.28,0.89,0.42c-0.33,2.5-0.62,5.01-0.88,7.53c-0.23,2.26-0.54,4.57-0.73,6.88l-0.05,0.63
				l0.67,0.52c0.25,0.18,0.51,0.34,0.78,0.5c-1.26,0.12-2.6,0.7-3.7,1.12c-1.63,0.63-3.22,1.4-4.69,2.35
				c-0.87,0.56-2.43,1.39-2.52,2.58c-0.05,0.67,0.46,1.47,1.16,1.32c1.35,0.28,2.78,0.26,4.14,0.28c1.61,0.02,3.22-0.04,4.82-0.16
				c1.68-0.13,3.4-0.3,5.09-0.59l0.73-0.13l0.3-0.72c0.7-1.82,0.97-3.95,0.52-5.64c0.14-0.06,0.27-0.12,0.4-0.18l0.6-0.32l0.09-0.79
				c0.18-1.62,0.36-3.24,0.55-4.85c0.29-2.37,0.66-4.74,1-7.11c2.48,0.72,5,1.2,7.55,1.35l0.53,0.03l0.1-0.74
				c0.08-0.59,0.17-1.18,0.25-1.76c0.44-3.11,0.86-6.22,1.29-9.33c0.35,3.26,0.77,6.51,1.28,9.75c0.07,0.44,0.14,0.88,0.2,1.32
				l0.11,0.75l0.68-0.05c0.01,0,0.02,0,0.04,0c2.1-0.17,4.18-0.52,6.23-0.99c0.39,2.22,0.68,4.46,0.97,6.69
				c0.23,1.79,0.42,3.61,0.65,5.43l0.06,0.46l0.69,0.13c-0.06,1.54,0.24,3.13,0.44,4.66c0.01,0.07,0.02,0.15,0.03,0.22l0.06,0.45
				l0.65,0.14c1.98,0.36,4.11,0.27,6.07,0.34c1.35,0.05,2.7,0.1,4.06,0.14c1.26,0.05,2.65,0.27,3.89,0.03
				c0.03-0.01,0.05-0.03,0.07-0.05c0.82-0.22,1.46-0.87,1.61-1.76C67.58,190.86,66.8,189.88,65.73,189.36 M46.56,87.21
				c-0.02-1.61-0.01-3.23-0.07-4.85c0.51,0.42,1.03,0.82,1.47,1.34c0.47,0.57,0.86,1.2,1.22,1.84l0.3,0.56
				c0.69,1.34,1.24,2.75,1.83,4.13c-0.44,0.6-0.99,1.13-1.57,1.6c-0.71,0.57-1.53,0.99-2.28,1.5l-0.34,0.24l0.37,0.34
				c0.53,0.48,1.05,0.96,1.56,1.45c0.29,0.29,0.58,0.59,0.87,0.9c-0.86,0.91-1.76,1.72-2.9,2.34c-1.24,0.68-2.56,1.09-3.9,1.49
				c0.15-0.29,0.3-0.59,0.44-0.88c0.9-1.84,1.66-3.75,2.24-5.71C46.42,91.38,46.58,89.42,46.56,87.21 M42.47,99.94
				c-0.29-0.55-0.56-1.11-0.79-1.69c-0.75-1.88-1.11-3.89-1.31-5.89c-0.13-1.28-0.16-2.56-0.15-3.84c1.32,1.74,4.42,1.52,5.74-0.19
				c-0.06,1.63-0.24,3.24-0.7,4.83c-0.56,1.92-1.28,3.78-2.15,5.58C42.91,99.15,42.69,99.55,42.47,99.94 M65.74,62.2
				c-0.27,1.42-1.03,2.7-1.89,3.85c-0.45,0.6-0.94,1.26-1.52,1.74c-0.56,0.46-1.46,0.75-2.1,0.44c0.1-0.58,0.16-1.15,0.17-1.72
				c0-0.14-0.19-0.15-0.23-0.03c-0.17,0.41-0.31,0.84-0.44,1.26l-0.21,0.69c-0.08,0.28-0.16,0.56-0.24,0.84
				c-1.59,1.48-3.6,2.48-5.74,2.85c0.01-0.4,0.01-0.8,0.01-1.18c-0.01-1.21-0.06-2.41-0.16-3.62c0.03-0.01,0.05-0.03,0.06-0.06
				c0.81-1.8,2.04-3.21,3.46-4.57c0.91-0.87,1.86-1.7,2.9-2.37c0.06,0.18,0.12,0.36,0.2,0.54c0.01,0.02,0.02,0.04,0.04,0.06
				c-0.1,0.27-0.17,0.54-0.23,0.81c-0.04,0.2,0.23,0.27,0.3,0.08c0.52-1.4,1.55-2.97,2.96-3.61C65.67,57.01,66.03,60.68,65.74,62.2
				 M41.71,66.32c-1.09,0.04-2.22,0.08-3.36,0.08c0.06-0.61,0.05-1.23,0.16-1.85c0.16-0.87,0.45-1.71,0.84-2.5
				c0.64-1.31,1.59-2.38,2.46-3.54c0.06-0.09-0.06-0.22-0.15-0.15c-1.26,0.95-2.26,2.32-2.93,3.75c-0.57,1.22-1.1,2.91-0.79,4.29
				c-2.51-0.02-5.06-0.24-7.36-1.11l-0.35-0.14l-0.14,0.39c-0.06,0.18-0.11,0.36-0.17,0.53c-0.38-1.4-1.07-2.78-1.59-4.12
				c-0.57-1.43-1.13-2.87-1.85-4.23c-0.01-0.02-0.03-0.03-0.04-0.04c-0.01-0.02-0.02-0.04-0.03-0.06c0.06-0.47,0.12-0.94,0.19-1.41
				c0.17,0.04,0.35,0.07,0.51,0.11c0.52,0.12,1.04,0.27,1.57,0.32c-0.09,0.38-0.15,0.75-0.16,1.1c-0.1,3.01,2.52,5.92,5.62,5.57
				c2.89-0.33,4.82-2.33,5.13-5.16c1.65-1.1,4.48-2.42,5.95-0.27c0.07,0.1,0.26,0.04,0.22-0.09c-0.83-2.57-4.54-1.79-6.12-0.23
				c0.06-2.72-1.52-5.82-4.64-5.47c-0.09,0.01-0.09,0.14,0,0.14c2.94,0.06,4.36,3.01,4.18,5.62c-0.19,2.75-2,4.69-4.74,5.01
				c-3.01,0.36-5.4-2.59-5.11-5.46c0.27-2.67,2.19-4.62,4.78-5.05c0.12-0.02,0.07-0.18-0.03-0.19c-2.37-0.29-4.26,1.85-4.95,4.05
				c-0.54-0.19-1.13-0.28-1.7-0.38c-0.15-0.03-0.29-0.05-0.44-0.08c0.38-2.53,0.95-4.99,1.94-7.39c0.86-2.1,1.82-4.39,3.27-6.22
				c1.03,3.15,3.94,5.53,7.37,5.62c1.52,0.04,3-0.41,2.84-2.16c2.44,1.79,5.42,2.91,8.38,3.22c1.64,0.17,3.99-0.14,4.29-2.17
				c0.04-0.26,0.02-0.51-0.04-0.75c1.66,0.63,3.49,0.88,5.22,0.65c-0.51,2-0.78,4.11-0.9,6.12c-0.09,1.53-0.09,3.19,0.11,4.8
				c-0.33,0.02-0.67,0.04-0.99,0.06c-0.82,0.05-1.68,0.07-2.49,0.25c0-0.73-0.1-1.43-0.33-2.03c-0.97-2.56-3.86-3.35-6.23-2.3
				c-0.12,0.05-0.03,0.25,0.09,0.21c2.27-0.73,4.81-0.01,5.67,2.4c0.2,0.56,0.28,1.22,0.26,1.9c-0.03,0.05-0.03,0.1-0.01,0.15
				c-0.11,1.85-1.04,3.8-2.79,4.21c-2.05,0.48-4.87-0.6-5.61-2.66c-0.76-2.12,0.18-4.94,2.25-5.92c0.12-0.06,0.03-0.24-0.09-0.21
				c-2.53,0.66-3.35,4.38-2.49,6.55c0.9,2.27,4.14,3.37,6.38,2.67c1.8-0.56,2.75-2.57,2.89-4.51c0.9,0.04,1.82-0.11,2.71-0.17
				c0.29-0.02,0.57-0.04,0.86-0.05c0.09,0.57,0.22,1.14,0.38,1.68c-1.19,0.65-2.28,1.77-3.12,2.56c-1.09,1.03-2.71,2.46-3.19,4.04
				c-0.05-0.53-0.11-1.06-0.18-1.6 M25.02,51.01c0.16-1.63,0.4-3.25,0.79-4.84c0.66-2.66,1.69-5.22,3.91-6.83l0.39-0.27l-0.07-0.47
				c-0.22-1.6-0.28-3.19,0.54-4.68c0.86-1.56,2.33-2.66,3.94-3.35c3.29-1.42,7.22-1.61,10.75-1.33c3.52,0.28,7.01,1.2,10.2,2.71
				c3.15,1.49,6.34,3.55,8.38,6.43c0.63,0.88,1.13,1.86,1.46,2.88c0.13,0.41,0.24,0.82,0.31,1.25c0.05,0.29,0.16,0.73,0.11,1.02
				c-0.06,0.37-0.49,1.02-0.88,1.15c-0.46,0.15-1.3-0.11-1.75-0.18c-0.05-0.01-0.1-0.02-0.15-0.03l-0.66-0.12
				c-0.24-0.05-0.47-0.1-0.71-0.16l1.24,0.77c0.91,1.1,1.64,2.34,2.15,3.68c0.14,0.38,0.27,0.76,0.37,1.15
				c0.09,0.32,0.42,1.25,0.3,1.55c-0.2,0.47-0.71,0.36-1.26,0.04l-0.5-0.33l-0.06,0.57c-0.09,0.88-0.2,1.76-0.34,2.64
				c-0.17,1-0.41,2.08-0.35,3.11c-0.87,0.34-1.62,1.02-2.19,1.82c-0.26,0.04-0.52,0.12-0.77,0.23c-0.08-0.49-0.16-0.98-0.23-1.47
				c0.4-0.03,0.79-0.08,1.17-0.18c0.12-0.03,0.14-0.24,0-0.26c-0.41-0.08-0.83-0.1-1.25-0.1c-0.22-1.63-0.35-3.26-0.24-4.97
				c0.13-2.05,0.54-4.03,0.93-6.02l0.12-0.62l-0.57,0.11c-1.08,0.17-2.17,0.19-3.29-0.02c-0.91-0.17-1.72-0.51-2.5-0.89l-1.42-0.76
				l1.09,1.32c0.32,0.62,0.35,1.26-0.22,1.88c-1.3,1.43-4.01,0.71-5.62,0.29c-2.32-0.6-4.37-1.69-6.24-3.07l-0.9-0.7l0.42,1.09
				c0.21,0.86,0.14,1.79-0.91,2.03c-0.87,0.2-1.89,0.09-2.74-0.11c-2.77-0.64-4.68-2.69-5.61-5.23L32,41.3l-0.29,0.28
				c-1.66,1.68-2.61,4.11-3.51,6.22c-1.05,2.47-1.82,5.16-2.11,7.87c-0.22-0.02-0.44-0.04-0.66-0.01c-0.08,0.01-0.13,0.12-0.05,0.17
				c0.21,0.11,0.44,0.19,0.67,0.26c-0.03,0.29-0.05,0.58-0.07,0.87c-0.34-0.52-0.81-1.18-1.32-1.49
				C24.89,53.99,24.87,52.48,25.02,51.01 M25.04,66.26L25,65.69c-0.03-0.39-0.05-0.77-0.09-1.16c-0.01-0.14-0.2-0.14-0.21,0
				c-0.05,0.43-0.08,0.87-0.11,1.32c-1.7,0.48-2.32-2.32-2.44-3.58c-0.11-1.23,0.02-2.48,0.39-3.67c0.19-0.61,0.44-1.2,0.75-1.75
				c0.24-0.43,0.27-0.61,0.78-0.69c0.52-0.09,0.58,0.09,0.91,0.45c0.37,0.42,0.69,0.86,0.97,1.32c0,0.01,0,0.01,0,0.02
				c0,0.1,0.06,0.16,0.13,0.19c0.26,0.44,0.49,0.9,0.72,1.38c0.35,1.01,0.74,2.01,1.13,3c0.55,1.4,1,2.95,1.78,4.24
				c-0.33,1.19-0.56,2.4-0.71,3.63c-0.08,0.69-0.17,1.41-0.23,2.16c-0.56-0.91-1.34-1.7-2-2.54c-0.74-0.96-1.32-1.94-1.7-3.09
				C25.06,66.69,25.05,66.48,25.04,66.26 M34.3,80.35c-2.33-0.4-5.12-0.82-6.54-2.9c-1.84-2.71-2.32-5.83-2.57-8.99
				c0.21,0.5,0.5,0.97,0.82,1.42c0.79,1.11,1.68,2.35,2.74,3.2c-0.03,0.76-0.03,1.52,0.07,2.25l0.1,0.63l0.63,0.47
				c1.19,0.77,2.69,1.1,4.07,1.37c2.73,0.53,5.51,0.91,8.3,0.81c3.5-0.13,7.11-0.94,10.33-2.46l0.73-0.36l0.22-0.7
				c0.21-0.83,0.3-1.71,0.33-2.57c1.13,0.19,2.31-0.41,3.3-0.91c0.82-0.43,1.61-0.95,2.24-1.62c-0.22,0.71-0.46,1.41-0.78,2.09
				c-0.82,1.74-1.96,3.27-3.44,4.49c-2.36,1.96-5.4,3.25-8.45,3.93L46,80.59c-0.66,0.14-1.33,0.24-1.99,0.32
				c-0.14,0.02-0.2,0.24-0.04,0.26c0.65,0.11,1.32,0.1,2,0.02c-0.08,2.04,0.03,4.1,0,6.15c-0.69,0.95-1.5,1.74-2.75,1.82
				c-1.27,0.08-2.13-0.59-3-1.38c0.05-2.13,0.2-4.26,0.24-6.4c0.42-0.05,0.84-0.12,1.24-0.22c0.16-0.04,0.11-0.25-0.04-0.27
				c-0.4-0.04-0.8-0.07-1.2-0.09l-0.43-0.03C38.12,80.68,36.21,80.68,34.3,80.35 M38.09,84.23c0.04-0.03,0.07-0.07,0.09-0.12
				c0.46-0.6,1.01-1.16,1.6-1.29c-0.34,3.38-0.31,6.89,0.09,10.19c0.32,2.66,1.08,5.03,2.25,7.28c-3,0.68-5.53-1.55-7.03-4.07
				c0.29-0.64,0.58-1.29,0.97-1.89c0.37-0.58,0.84-1.11,1.25-1.68l0.34-0.5l-0.34-0.24c-0.3-0.2-0.62-0.38-0.93-0.55
				c-0.61-0.34-1.24-0.69-1.89-0.99c0.42-0.96,0.86-1.92,1.39-2.83c0.43-0.74,0.89-1.46,1.39-2.16
				C37.49,85.08,37.77,84.65,38.09,84.23 M22.28,120.96c-3.88-3.38-2.64-9.13-1.38-13.42c1.33-4.55,3.2-8.93,5.57-13.03
				c2.45-4.25,5.69-9.21,10.87-10.14c-0.41,0.53-0.8,1.07-1.16,1.63c-0.84,1.27-1.64,2.67-2.22,4.13l-0.19,0.5l0.5,0.28
				c0.56,0.3,1.13,0.57,1.68,0.87c0.34,0.19,0.67,0.4,0.99,0.61c-0.81,0.97-1.64,1.99-2.22,3.11l-0.25,0.55l0.37,0.75
				c1.51,2.68,4.69,4.98,7.56,3.97l0.03,0.06c-0.1,0.93-0.02,1.88-0.03,2.81c-0.01,1.05-0.13,2.15,0.05,3.19
				c0.02,0.1,0.15,0.08,0.18,0c0.36-0.99,0.37-2.15,0.37-3.19c0-0.96,0.01-1.96-0.22-2.89l0.02-0.03c2.69-0.47,5.79-1.79,7.48-4.07
				l0.32-0.47l-0.31-0.31c-0.29-0.29-0.6-0.57-0.89-0.85c-0.48-0.45-0.97-0.89-1.48-1.31c0.95-0.49,1.85-1.19,2.6-1.87
				c0.38-0.34,0.71-0.71,1-1.1l0.32-0.52l-0.17-0.56c-0.38-1.16-0.88-2.29-1.44-3.37c3.24,0.98,5.38,4.11,6.52,7.3
				c1.46,4.08,2.29,8.47,2.83,12.77c0.54,4.26,0.82,8.69-0.25,12.89c-0.38,1.5-0.95,2.83-2.02,3.69l-0.49,0.33
				c-0.41,0.24-0.88,0.42-1.43,0.53c-2.12,0.42-4.24-0.41-6.18-1.16c-2.35-0.91-4.68-1.86-6.98-2.89c-0.81-0.36-1.59-0.75-2.34-1.19
				c0.03-0.02,0.05-0.03,0.08-0.05c1.95-1.26,3.7-2.73,5.66-3.95c0.73,0.06,1.46,0.11,2.19,0.16l0.59,0.04
				c0.91,0.07,1.83,0.13,2.73,0.22c0.91,0.09,1.83,0.19,2.74,0.3l0.7,0.08l0.03-0.58c0.09-1.96,0.09-3.93,0.1-5.85
				c0.04-4.57,0.02-9.17-0.37-13.73c-0.02-0.17-0.27-0.18-0.27,0c-0.02,4.5,0.11,9.01,0.06,13.51c-0.02,2.01-0.1,4.01-0.22,6
				c-0.78-0.07-1.57-0.13-2.34-0.21c-0.3-0.03-0.61-0.06-0.91-0.09c0.04-1.62-0.04-3.4-1.11-4.71c-1.23-1.5-2.8-1.31-4.53-1.56
				c0,0,0,0-0.01,0c-0.24-0.31-0.48-0.61-0.72-0.91l-0.43-0.49l-0.49,0.11c-1.26,0.3-2.51,0.64-3.76,1c0,0,0,0,0,0
				c-0.04-0.01-0.08,0.01-0.11,0.03c-1.5,0.43-2.98,0.89-4.44,1.36c-0.22,0.07-0.44,0.14-0.65,0.21c0.17-0.53,0.32-1.06,0.43-1.58
				c0.19-0.93,0.05-1.85-0.4-2.69c-1.03-1.91-3.35-2.96-5.33-3.71c0.51-2.68,1.23-5.34,2.02-7.95c0.03-0.1-0.12-0.16-0.16-0.07
				c-1.1,2.53-1.83,5.13-2.34,7.84c-1.13-0.43-3.91-1.69-3.39,0.63c0.2,0.89,0.98,1.49,1.75,1.87c0.01,0,0.02,0.01,0.02,0.01
				c-0.34,0.16-0.63,0.51-0.85,0.77c-0.34,0.39-0.73,0.87-0.94,1.38c-0.17,0.08-0.34,0.17-0.5,0.28c-0.52,0.37-1.13,1.06-1.09,1.76
				c0.01,0.14,0.05,0.26,0.1,0.37c-0.47,0.57-0.68,1.4-0.77,2.09c-0.03,0.26-0.11,0.59,0.08,0.8c0.2,0.23,0.55,0.26,0.83,0.2
				c0.27,0.69,1.4,0.88,2.5,0.87c-1.35,0.56-2.68,1.16-3.97,1.83c-0.15,0.08-0.05,0.34,0.12,0.28c3.71-1.34,7.34-2.86,11.07-4.15
				l0.61-0.2c0.39-0.13,0.79-0.26,1.18-0.39c1.47-0.47,2.95-0.89,4.43-1.29c0.93,0.98,1.58,2.38,2.02,3.6
				c0.46,1.3,0.53,2.61,0.74,3.94c-0.36,0.28-0.72,0.55-1.07,0.82c-0.7,0.52-1.42,1-2.16,1.46l-0.58,0.36
				c-0.99,0.58-2.01,1.09-3.07,1.55c-3.16,1.35-7.81,3.21-11.37,2l-0.55-0.21C23.23,121.67,22.74,121.36,22.28,120.96 M42.09,111.17
				c-0.33-0.77-0.93-2.2-1.75-2.91c1.14-0.3,2.28-0.6,3.42-0.89c0.84,1.08,1.63,2.19,2.3,3.39c0.61,1.09,1.08,2.21,1.53,3.35
				c-0.36-0.03-0.71-0.06-1.07-0.09c0.1-0.05,0.19-0.11,0.29-0.16c0.16-0.09,0.05-0.35-0.13-0.3c-0.35,0.11-0.69,0.24-1.02,0.4
				l-0.99,0.52c-0.58,0.35-1.14,0.74-1.68,1.15C43.12,114.13,42.66,112.5,42.09,111.17 M45.37,108.63c0.2,0.08,0.41,0.12,0.66,0.15
				c0.98,0.11,1.85,0.21,2.62,0.89c1.32,1.17,1.42,3.03,1.38,4.67c-0.6-0.06-1.2-0.12-1.81-0.18
				C47.58,112.24,46.58,110.33,45.37,108.63 M24.55,110.69c0.12-0.52,0.77-1.01,1.19-1.28c1.47-0.95,3.32-0.92,4.84-1.72
				c0.11-0.06,0.05-0.22-0.06-0.22c-1.31,0.01-2.84,0.45-4.05,0.91c-0.39,0.15-0.78,0.35-1.14,0.58c-0.42-0.24-1.1-0.64-1.14-1.15
				c-0.03-0.39,0.69-0.97,0.96-1.14c0.06-0.04,0.13-0.06,0.19-0.09c0,0,0.01,0,0.01,0c0.6-0.31,1.29-0.43,1.95-0.54
				c1.57-0.26,3.25-0.33,4.78-0.8c0.15-0.05,0.11-0.25-0.04-0.26c-0.56-0.06-1.13-0.04-1.71,0c-1.15-0.84-2.53-1.11-3.71-1.9
				c-0.38-0.26-1.66-1.57-0.66-2.04c0.18-0.09,0.88,0.26,1.11,0.33c1.02,0.33,2.02,0.73,2.99,1.18c1.67,0.79,3.7,1.82,4.23,3.76
				c0.3,1.1-0.11,2.22-0.49,3.33c-1.98,0.64-3.97,1.32-5.93,2.07c-0.68-0.07-1.37-0.05-2.06-0.1
				C25.07,111.59,24.34,111.63,24.55,110.69 M23.99,110.42c-0.12,0.24-0.17,0.45-0.18,0.63c-0.17-0.06-0.33-0.12-0.37-0.36
				c-0.04-0.25,0.11-0.68,0.18-0.92c0.1-0.35,0.25-0.68,0.39-1.02c0.25,0.23,0.59,0.4,0.92,0.52
				C24.54,109.58,24.21,109.96,23.99,110.42 M25.99,105.66c0.07-0.11,0.13-0.21,0.21-0.31c0.31-0.41,0.79-1.12,1.34-1.18
				c0.04,0,0.08-0.02,0.11-0.04c0.63,0.31,1.26,0.62,1.88,0.94c-0.54,0.07-1.09,0.16-1.62,0.24
				C27.28,105.41,26.62,105.49,25.99,105.66 M26.57,192.02c-0.14,0.66-0.35,1.29-0.59,1.91c-1.85,0.32-3.71,0.62-5.6,0.76
				c-1.53,0.11-3.07,0.16-4.61,0.16c-1.38-0.01-2.78-0.16-4.16-0.09c-0.58-0.2-0.69-0.54-0.55-0.91c2.21,0.36,4.55,0.17,6.77,0
				c2.23-0.17,4.76-0.2,6.91-0.88c0.11-0.04,0.09-0.19-0.03-0.2c-2.25-0.14-4.63,0.43-6.88,0.61c-2.22,0.17-4.44,0.11-6.66,0.24
				c0.43-0.71,1.55-1.5,1.96-1.75c0.96-0.6,1.96-1.14,2.98-1.63c1.05-0.5,2.14-0.92,3.24-1.28c0.58-0.19,1.21-0.32,1.82-0.5
				c0,0.02,0.01,0.04,0.03,0.06c0.74,0.65,1.91,1.16,2.84,1.46c0.81,0.27,1.86,0.45,2.71,0.18
				C26.74,190.77,26.69,191.39,26.57,192.02 M26.75,189.66c-1.08-0.14-2.09-0.06-3.16-0.53c-0.66-0.3-1.29-0.68-2.01-0.8
				c0.18-0.06,0.35-0.13,0.52-0.21c0.62,0.28,1.28,0.47,1.97,0.55c0.92,0.11,1.83-0.03,2.69-0.33
				C26.75,188.78,26.76,189.22,26.75,189.66 M28.35,181.59c-0.24,1.86-0.45,3.72-0.64,5.58c0,0.01,0,0.02,0,0.03
				c-1.1,0.58-2.24,1.01-3.61,0.86c-1.31-0.15-2.42-0.71-3.44-1.44c0.21-2.32,0.32-4.66,0.54-6.96c0.25-2.59,0.51-5.19,0.77-7.78
				c1.95,0.9,3.94,1.7,5.95,2.4c0.44,0.15,0.89,0.3,1.34,0.44C28.91,177.01,28.64,179.31,28.35,181.59 M48,174.51
				c-1.17,0.27-2.35,0.49-3.54,0.67c-0.91,0.13-1.82,0.23-2.72,0.3c-0.05-0.27-0.1-0.54-0.14-0.82c-0.68-4.23-1.24-8.47-1.67-12.73
				c-0.04-0.4-0.56-0.39-0.61,0c-0.42,3.12-0.84,6.25-1.25,9.38c-0.19,1.4-0.37,2.81-0.56,4.21c-2.54-0.14-5.06-0.57-7.55-1.31
				l-0.58-0.18c-2.52-0.78-4.95-1.76-7.33-2.86l-0.37-0.17c-0.32-0.15-0.64-0.3-0.95-0.45c0.13-3.79,0.28-7.57,0.5-11.36
				c0.48-8.5,1.1-16.99,1.9-25.46c0.34-3.68,0.83-7.37,1.14-11.07c2.49,0.74,5.44,0.17,8.02-0.66c2.43-0.77,4.81-1.75,6.99-3.07
				c0.64,0.39,1.31,0.73,1.99,1.05c2.16,1.02,4.38,1.92,6.6,2.8c2.62,1.04,6.43,2.55,9.13,1.22c0.69,3.02,1.08,6.08,1.43,9.17
				c0.49,4.34,0.91,8.69,1.27,13.04c0.67,7.98,1.14,15.97,1.55,23.97c-1.13,0.45-2.27,0.88-3.41,1.3c-0.58,0.21-1.17,0.42-1.76,0.63
				l-0.43,0.15c-2.38,0.83-4.8,1.57-7.25,2.15L48,174.51z M50.46,187.47c-0.25-1.95-0.57-3.9-0.83-5.83
				c-0.3-2.18-0.62-4.36-1.07-6.51c2.42-0.57,4.8-1.3,7.14-2.11c0.15,2.41,0.33,4.82,0.54,7.23c0.17,1.9,0.31,3.84,0.51,5.76
				c-0.74,0.5-1.54,0.91-2.44,1.18C53.06,187.56,51.74,187.63,50.46,187.47 M50.82,187.97c1.76,0.21,3.58-0.06,5.17-0.8
				c0.16,0.04,0.33,0.09,0.49,0.13c-0.85,0.34-1.59,0.91-2.43,1.29c-0.18,0.08-2.22,0.89-2.9,1.06
				C51.07,189.08,50.97,188.52,50.82,187.97 M65.28,193.47c-1.05-0.2-2.22-0.11-3.27-0.15c-1.35-0.05-2.7-0.1-4.06-0.15
				c-2.13-0.08-4.25-0.16-6.37-0.32c-0.02-0.12-0.04-0.24-0.06-0.35c-0.12-0.8-0.2-1.62-0.31-2.44c1.87-0.06,4.45-1.14,5.53-2.57
				c0.03-0.04,0.03-0.09,0.01-0.13c1.92,0.52,3.85,1.03,5.76,1.59c1,0.29,2.12,0.5,3.04,1c0.98,0.53,1.31,1.46,1.07,2.24
				c-2.3-0.09-4.62-0.04-6.92-0.13c-2.36-0.09-4.71-0.28-7.06-0.34c-0.1,0-0.13,0.17-0.03,0.19c2.27,0.37,4.58,0.5,6.87,0.61
				c2.29,0.11,4.62,0.23,6.92,0.13C66.18,193.02,65.8,193.31,65.28,193.47"/>
			<path class="st12" d="M41.86,120.81c0.01-0.14-0.21-0.17-0.24-0.03c-0.77,3.03-0.78,6.32-0.77,9.43c0.01,3.23,0.2,6.45,0.16,9.68
				c-0.04,3.21-0.21,6.42-0.46,9.62c-0.26,3.26-0.85,6.53-0.97,9.8c0,0.15,0.24,0.19,0.27,0.04c0.65-3.07,0.84-6.29,1.18-9.41
				c0.35-3.19,0.61-6.4,0.66-9.61c0.05-3.23-0.13-6.45-0.21-9.68C41.38,127.32,41.56,124.1,41.86,120.81"/>
			<path class="st12" d="M56.71,146.2c-1.69-0.42-3.53-0.5-5.26-0.59c-1.73-0.09-3.55-0.19-5.26,0.16
				c-0.15,0.03-0.09,0.23,0.03,0.24c1.72,0.21,3.49,0.1,5.22,0.2c1.74,0.1,3.46,0.41,5.19,0.51C56.94,146.75,57,146.28,56.71,146.2"
				/>
			<path class="st12" d="M56.92,151.88c-0.04-1.6-0.03-3.23-0.23-4.82c-0.02-0.19-0.28-0.2-0.3,0c-0.2,2.27,0.01,4.56-0.04,6.84
				c-0.05,2.32-1.29,3.91-3.68,4.04c-5.49,0.3-5.31-7.01-5.57-10.8c-0.02-0.25-0.4-0.26-0.4,0c-0.04,4.18,0.08,11.74,5.97,11.46
				c1.81-0.09,3.55-1.06,4.08-2.88C57.11,154.49,56.95,153.14,56.92,151.88"/>
			<path class="st12" d="M32.63,144.9c-1.49-0.22-3.24,0.28-4.71,0.53c-0.83,0.14-1.65,0.29-2.47,0.46
				c-0.68,0.14-1.69,0.21-2.26,0.62c-0.08,0.06-0.12,0.13-0.09,0.23l0.02,0.09c0.02,0.07,0.1,0.13,0.17,0.13
				c0.02,0,0.05,0,0.07-0.01c0.07,0,0.15-0.08,0.12-0.16c0.08,0.21,4.19-0.66,4.61-0.73c1.46-0.24,3.21-0.24,4.58-0.81
				C32.82,145.19,32.79,144.92,32.63,144.9"/>
			<path class="st12" d="M32.69,145.94c-0.01-0.27-0.38-0.25-0.41,0c-0.26,2.19-0.49,4.37-0.99,6.53c-0.44,1.92-0.95,4.64-3.02,5.44
				c-1.2,0.46-2.38-0.07-3.44-0.64c-0.51-0.27-1.16-0.57-1.45-1.1c-0.26-0.49-0.24-1.11-0.26-1.65c-0.1-2.15,0.21-4.23,0.27-6.36
				c0.01-0.19-0.28-0.22-0.32-0.04c-0.35,1.33-0.39,2.78-0.43,4.14c-0.03,1.17-0.15,2.54,0.14,3.68c0.23,0.91,1,1.36,1.76,1.81
				c0.98,0.57,2.07,1.12,3.24,0.96c2.06-0.27,3.08-2.33,3.62-4.11C32.24,151.83,32.78,148.84,32.69,145.94"/>
			<path class="st12" d="M38.73,123.45c-0.14-0.15-0.33,0.01-0.31,0.18c0.06,0.42,0.16,0.79,0.04,1.21
				c-0.1,0.36-0.37,0.79-0.81,0.74c-0.5-0.07-0.45-0.69-0.38-1.06c0.09-0.45,0.33-0.68,0.8-0.65c0.09,0.01,0.17-0.12,0.11-0.19
				c-0.37-0.51-1.08-0.11-1.3,0.34c-0.29,0.58-0.38,1.55,0.21,1.98c0.58,0.44,1.36,0.11,1.72-0.45
				C39.2,124.94,39.25,123.99,38.73,123.45"/>
			<path class="st12" d="M38.4,136.7c-0.17-0.22-0.46,0.06-0.36,0.28c0.23,0.5,0.11,1.07-0.17,1.52c-0.22,0.36-1.05,1.17-1.29,0.35
				c-0.25-0.86,0.75-1.73,1.38-2.09c0.14-0.08,0.04-0.27-0.11-0.25c-0.79,0.12-1.43,0.67-1.74,1.4c-0.26,0.61-0.24,1.49,0.45,1.79
				c0.72,0.31,1.41-0.27,1.78-0.84C38.79,138.19,38.91,137.36,38.4,136.7"/>
			<path class="st12" d="M38.53,150.79c-0.14-0.06-0.37,0.05-0.29,0.23c0.17,0.42,0.12,0.76-0.03,1.17
				c-0.11,0.3-0.23,0.61-0.47,0.83c-0.21,0.2-0.6,0.44-0.72,0.01c-0.1-0.37,0.15-0.94,0.32-1.25c0.19-0.35,0.51-0.6,0.71-0.94
				c0.06-0.1-0.04-0.2-0.14-0.18c-0.7,0.1-1.19,0.96-1.36,1.58c-0.15,0.53-0.3,1.55,0.45,1.67c0.77,0.12,1.38-0.57,1.66-1.2
				C38.89,152.17,39.24,151.12,38.53,150.79"/>
		</g>
		<g>
			<path class="st5" d="M26.4,57.63l-0.48,0.95L25,65.69l0.17,2.22l0.03,1.32l3.78,8.37l9.34,1.57l11.35-0.58l6.69-4.61l2.7-3.98
				l0.67-2.26l-0.92-5.3l1.21-1.59l-0.4-1.14c0,0-0.59,0.28-0.86,0.5c-0.5,0.39-1.04,0.88-1.04,0.88l-0.86-0.38l-1.73,1.57
				l-1.74,1.08l-1.99,0.59l-2.28-0.4l-4.21-1.41L42.5,59.5v-1.58h-1.61l-0.67,1.03l-0.71,0.83l-1.25,2.07l-1.05,1.69l-2.16,0.8
				h-3.57l-2.61-1.79l-1.4-3.6L26.4,57.63z"/>
			<path class="st8" d="M57.87,60.97c0,0,0.19,1.19,0.2,1.22c0.27,1.67-0.35,3.21-0.94,4.75c-0.42,1.08-0.88,2.15-1.36,3.21
				c-1.08,2.4-2.22,5.06-4.47,6.59c-1.19,0.81-2.51,1.31-3.8,1.92c-2.14,1.03-4.97,0.78-6.94,2.14c0.35,0.07,0.74,0.07,1.11,0.1
				l1.84,0.38l0.52,0.04l-0.17-0.21l-0.02-0.23l0.91-0.07l0.27-0.04l0.4-0.07l0.78-0.15l0.91-0.21l0.74-0.2l0.69-0.21l0.76-0.26
				l1.26-0.5l1.46-0.7l1.37-0.81l1.22-0.85l0.87-0.78l0.69-0.71l0.49-0.58l0.85-1.2l0.79-1.45l0.78-2.09l0.67-2.26
				c0,0,0.44-1.26,0.44-1.26c-0.07-1.02-0.24-2.03-0.31-3.05c-0.04-0.52-0.07-1.05-0.03-1.57c0.02-0.23,0.25-0.82,0.18-1.01
				c0,0-0.4-1.14-0.4-1.14h-1.24L57.87,60.97z"/>
			<g>
				<path class="st12" d="M50.37,70.88c-0.05-0.11-0.19-0.04-0.2,0.06c-0.03,0.32-0.03,0.64-0.07,0.96
					c-2.76,1.56-5.76,3.62-9.05,2.96c-0.14-0.03-0.21,0.15-0.1,0.23c1.45,1.02,3.15,0.38,4.64-0.23c1.53-0.63,3.08-1.43,4.39-2.47
					c-0.12,0.34-0.3,0.65-0.45,0.98c-0.08,0.17,0.11,0.33,0.26,0.2C50.47,72.99,50.76,71.69,50.37,70.88"/>
				<path class="st12" d="M43.6,70.56c-1.27,0.3-3.2,0.89-4.12-0.46c-0.73-1.08-0.08-2.84,0.2-3.99c0.59-2.42,1.5-4.7,2.32-7.05
					c0.04-0.11-0.13-0.17-0.18-0.08c-0.87,1.58-1.48,3.31-2.03,5.02c-0.48,1.49-1.05,3.1-1.19,4.67c-0.1,1.12,0.28,2.14,1.33,2.65
					c1.25,0.6,2.63,0.13,3.81-0.41C43.94,70.81,43.8,70.51,43.6,70.56"/>
			</g>
		</g>
	</g>
</g>
</svg>
