<?xml version="1.0" encoding="utf-8"?>
<!-- Generator: Adobe Illustrator 23.0.1, SVG Export Plug-In . SVG Version: 6.00 Build 0)  -->
<svg version="1.1" id="Layer_1" xmlns="http://www.w3.org/2000/svg" xmlns:xlink="http://www.w3.org/1999/xlink" x="0px" y="0px"
	 viewBox="0 0 116.48 116.48" style="enable-background:new 0 0 116.48 116.48;" xml:space="preserve">
<style type="text/css">
	.st0{fill:#FFFFFF;}
</style>
<g id="QRcode">
	<g id="Pattern">
		<rect class="st0" width="4.02" height="4.02"/>
		<rect x="4.02" class="st0" width="4.02" height="4.02"/>
		<rect x="8.03" class="st0" width="4.02" height="4.02"/>
		<rect x="12.05" class="st0" width="4.02" height="4.02"/>
		<rect x="16.07" class="st0" width="4.02" height="4.02"/>
		<rect x="20.08" class="st0" width="4.02" height="4.02"/>
		<rect x="24.1" class="st0" width="4.02" height="4.02"/>
		<rect x="40.16" class="st0" width="4.02" height="4.02"/>
		<rect x="48.2" class="st0" width="4.02" height="4.02"/>
		<rect x="52.21" class="st0" width="4.02" height="4.02"/>
		<rect x="60.25" class="st0" width="4.02" height="4.02"/>
		<rect x="76.31" class="st0" width="4.02" height="4.02"/>
		<rect x="80.33" class="st0" width="4.02" height="4.02"/>
		<rect x="88.36" class="st0" width="4.02" height="4.02"/>
		<rect x="92.38" class="st0" width="4.02" height="4.02"/>
		<rect x="96.39" class="st0" width="4.02" height="4.02"/>
		<rect x="100.41" class="st0" width="4.02" height="4.02"/>
		<rect x="104.43" class="st0" width="4.02" height="4.02"/>
		<rect x="108.44" class="st0" width="4.02" height="4.02"/>
		<rect x="112.46" class="st0" width="4.02" height="4.02"/>
		<rect y="4.02" class="st0" width="4.02" height="4.02"/>
		<rect x="24.1" y="4.02" class="st0" width="4.02" height="4.02"/>
		<rect x="32.13" y="4.02" class="st0" width="4.02" height="4.02"/>
		<rect x="40.16" y="4.02" class="st0" width="4.02" height="4.02"/>
		<rect x="52.21" y="4.02" class="st0" width="4.02" height="4.02"/>
		<rect x="56.23" y="4.02" class="st0" width="4.02" height="4.02"/>
		<rect x="60.25" y="4.02" class="st0" width="4.02" height="4.02"/>
		<rect x="64.26" y="4.02" class="st0" width="4.02" height="4.02"/>
		<rect x="68.28" y="4.02" class="st0" width="4.02" height="4.02"/>
		<rect x="72.3" y="4.02" class="st0" width="4.02" height="4.02"/>
		<rect x="80.33" y="4.02" class="st0" width="4.02" height="4.02"/>
		<rect x="88.36" y="4.02" class="st0" width="4.02" height="4.02"/>
		<rect x="112.46" y="4.02" class="st0" width="4.02" height="4.02"/>
		<rect y="8.03" class="st0" width="4.02" height="4.02"/>
		<rect x="8.03" y="8.03" class="st0" width="4.02" height="4.02"/>
		<rect x="12.05" y="8.03" class="st0" width="4.02" height="4.02"/>
		<rect x="16.07" y="8.03" class="st0" width="4.02" height="4.02"/>
		<rect x="24.1" y="8.03" class="st0" width="4.02" height="4.02"/>
		<rect x="48.2" y="8.03" class="st0" width="4.02" height="4.02"/>
		<rect x="52.21" y="8.03" class="st0" width="4.02" height="4.02"/>
		<rect x="64.26" y="8.03" class="st0" width="4.02" height="4.02"/>
		<rect x="76.31" y="8.03" class="st0" width="4.02" height="4.02"/>
		<rect x="80.33" y="8.03" class="st0" width="4.02" height="4.02"/>
		<rect x="88.36" y="8.03" class="st0" width="4.02" height="4.02"/>
		<rect x="96.39" y="8.03" class="st0" width="4.02" height="4.02"/>
		<rect x="100.41" y="8.03" class="st0" width="4.02" height="4.02"/>
		<rect x="104.43" y="8.03" class="st0" width="4.02" height="4.02"/>
		<rect x="112.46" y="8.03" class="st0" width="4.02" height="4.02"/>
		<rect y="12.05" class="st0" width="4.02" height="4.02"/>
		<rect x="8.03" y="12.05" class="st0" width="4.02" height="4.02"/>
		<rect x="12.05" y="12.05" class="st0" width="4.02" height="4.02"/>
		<rect x="16.07" y="12.05" class="st0" width="4.02" height="4.02"/>
		<rect x="24.1" y="12.05" class="st0" width="4.02" height="4.02"/>
		<rect x="32.13" y="12.05" class="st0" width="4.02" height="4.02"/>
		<rect x="36.15" y="12.05" class="st0" width="4.02" height="4.02"/>
		<rect x="40.16" y="12.05" class="st0" width="4.02" height="4.02"/>
		<rect x="48.2" y="12.05" class="st0" width="4.02" height="4.02"/>
		<rect x="56.23" y="12.05" class="st0" width="4.02" height="4.02"/>
		<rect x="68.28" y="12.05" class="st0" width="4.02" height="4.02"/>
		<rect x="76.31" y="12.05" class="st0" width="4.02" height="4.02"/>
		<rect x="88.36" y="12.05" class="st0" width="4.02" height="4.02"/>
		<rect x="96.39" y="12.05" class="st0" width="4.02" height="4.02"/>
		<rect x="100.41" y="12.05" class="st0" width="4.02" height="4.02"/>
		<rect x="104.43" y="12.05" class="st0" width="4.02" height="4.02"/>
		<rect x="112.46" y="12.05" class="st0" width="4.02" height="4.02"/>
		<rect y="16.07" class="st0" width="4.02" height="4.02"/>
		<rect x="8.03" y="16.07" class="st0" width="4.02" height="4.02"/>
		<rect x="12.05" y="16.07" class="st0" width="4.02" height="4.02"/>
		<rect x="16.07" y="16.07" class="st0" width="4.02" height="4.02"/>
		<rect x="24.1" y="16.07" class="st0" width="4.02" height="4.02"/>
		<rect x="36.15" y="16.07" class="st0" width="4.02" height="4.02"/>
		<rect x="72.3" y="16.07" class="st0" width="4.02" height="4.02"/>
		<rect x="76.31" y="16.07" class="st0" width="4.02" height="4.02"/>
		<rect x="88.36" y="16.07" class="st0" width="4.02" height="4.02"/>
		<rect x="96.39" y="16.07" class="st0" width="4.02" height="4.02"/>
		<rect x="100.41" y="16.07" class="st0" width="4.02" height="4.02"/>
		<rect x="104.43" y="16.07" class="st0" width="4.02" height="4.02"/>
		<rect x="112.46" y="16.07" class="st0" width="4.02" height="4.02"/>
		<rect y="20.08" class="st0" width="4.02" height="4.02"/>
		<rect x="24.1" y="20.08" class="st0" width="4.02" height="4.02"/>
		<rect x="32.13" y="20.08" class="st0" width="4.02" height="4.02"/>
		<rect x="36.15" y="20.08" class="st0" width="4.02" height="4.02"/>
		<rect x="44.18" y="20.08" class="st0" width="4.02" height="4.02"/>
		<rect x="48.2" y="20.08" class="st0" width="4.02" height="4.02"/>
		<rect x="60.25" y="20.08" class="st0" width="4.02" height="4.02"/>
		<rect x="64.26" y="20.08" class="st0" width="4.02" height="4.02"/>
		<rect x="80.33" y="20.08" class="st0" width="4.02" height="4.02"/>
		<rect x="88.36" y="20.08" class="st0" width="4.02" height="4.02"/>
		<rect x="112.46" y="20.08" class="st0" width="4.02" height="4.02"/>
		<rect y="24.1" class="st0" width="4.02" height="4.02"/>
		<rect x="4.02" y="24.1" class="st0" width="4.02" height="4.02"/>
		<rect x="8.03" y="24.1" class="st0" width="4.02" height="4.02"/>
		<rect x="12.05" y="24.1" class="st0" width="4.02" height="4.02"/>
		<rect x="16.07" y="24.1" class="st0" width="4.02" height="4.02"/>
		<rect x="20.08" y="24.1" class="st0" width="4.02" height="4.02"/>
		<rect x="24.1" y="24.1" class="st0" width="4.02" height="4.02"/>
		<rect x="32.13" y="24.1" class="st0" width="4.02" height="4.02"/>
		<rect x="40.16" y="24.1" class="st0" width="4.02" height="4.02"/>
		<rect x="48.2" y="24.1" class="st0" width="4.02" height="4.02"/>
		<rect x="56.23" y="24.1" class="st0" width="4.02" height="4.02"/>
		<rect x="64.26" y="24.1" class="st0" width="4.02" height="4.02"/>
		<rect x="72.3" y="24.1" class="st0" width="4.02" height="4.02"/>
		<rect x="80.33" y="24.1" class="st0" width="4.02" height="4.02"/>
		<rect x="88.36" y="24.1" class="st0" width="4.02" height="4.02"/>
		<rect x="92.38" y="24.1" class="st0" width="4.02" height="4.02"/>
		<rect x="96.39" y="24.1" class="st0" width="4.02" height="4.02"/>
		<rect x="100.41" y="24.1" class="st0" width="4.02" height="4.02"/>
		<rect x="104.43" y="24.1" class="st0" width="4.02" height="4.02"/>
		<rect x="108.44" y="24.1" class="st0" width="4.02" height="4.02"/>
		<rect x="112.46" y="24.1" class="st0" width="4.02" height="4.02"/>
		<rect x="36.15" y="28.12" class="st0" width="4.02" height="4.02"/>
		<rect x="40.16" y="28.12" class="st0" width="4.02" height="4.02"/>
		<rect x="44.18" y="28.12" class="st0" width="4.02" height="4.02"/>
		<rect x="56.23" y="28.12" class="st0" width="4.02" height="4.02"/>
		<rect x="60.25" y="28.12" class="st0" width="4.02" height="4.02"/>
		<rect x="64.26" y="28.12" class="st0" width="4.02" height="4.02"/>
		<rect x="80.33" y="28.12" class="st0" width="4.02" height="4.02"/>
		<rect y="32.13" class="st0" width="4.02" height="4.02"/>
		<rect x="4.02" y="32.13" class="st0" width="4.02" height="4.02"/>
		<rect x="8.03" y="32.13" class="st0" width="4.02" height="4.02"/>
		<rect x="12.05" y="32.13" class="st0" width="4.02" height="4.02"/>
		<rect x="16.07" y="32.13" class="st0" width="4.02" height="4.02"/>
		<rect x="24.1" y="32.13" class="st0" width="4.02" height="4.02"/>
		<rect x="28.12" y="32.13" class="st0" width="4.02" height="4.02"/>
		<rect x="32.13" y="32.13" class="st0" width="4.02" height="4.02"/>
		<rect x="36.15" y="32.13" class="st0" width="4.02" height="4.02"/>
		<rect x="44.18" y="32.13" class="st0" width="4.02" height="4.02"/>
		<rect x="60.25" y="32.13" class="st0" width="4.02" height="4.02"/>
		<rect x="68.28" y="32.13" class="st0" width="4.02" height="4.02"/>
		<rect x="84.35" y="32.13" class="st0" width="4.02" height="4.02"/>
		<rect x="92.38" y="32.13" class="st0" width="4.02" height="4.02"/>
		<rect x="100.41" y="32.13" class="st0" width="4.02" height="4.02"/>
		<rect x="108.44" y="32.13" class="st0" width="4.02" height="4.02"/>
		<rect y="36.15" class="st0" width="4.02" height="4.02"/>
		<rect x="8.03" y="36.15" class="st0" width="4.02" height="4.02"/>
		<rect x="12.05" y="36.15" class="st0" width="4.02" height="4.02"/>
		<rect x="28.12" y="36.15" class="st0" width="4.02" height="4.02"/>
		<rect x="40.16" y="36.15" class="st0" width="4.02" height="4.02"/>
		<rect x="48.2" y="36.15" class="st0" width="4.02" height="4.02"/>
		<rect x="52.21" y="36.15" class="st0" width="4.02" height="4.02"/>
		<rect x="56.23" y="36.15" class="st0" width="4.02" height="4.02"/>
		<rect x="64.26" y="36.15" class="st0" width="4.02" height="4.02"/>
		<rect x="68.28" y="36.15" class="st0" width="4.02" height="4.02"/>
		<rect x="72.3" y="36.15" class="st0" width="4.02" height="4.02"/>
		<rect x="76.31" y="36.15" class="st0" width="4.02" height="4.02"/>
		<rect x="80.33" y="36.15" class="st0" width="4.02" height="4.02"/>
		<rect x="84.35" y="36.15" class="st0" width="4.02" height="4.02"/>
		<rect x="88.36" y="36.15" class="st0" width="4.02" height="4.02"/>
		<rect x="92.38" y="36.15" class="st0" width="4.02" height="4.02"/>
		<rect x="96.39" y="36.15" class="st0" width="4.02" height="4.02"/>
		<rect x="112.46" y="36.15" class="st0" width="4.02" height="4.02"/>
		<rect x="16.07" y="40.16" class="st0" width="4.02" height="4.02"/>
		<rect x="24.1" y="40.16" class="st0" width="4.02" height="4.02"/>
		<rect x="40.16" y="40.16" class="st0" width="4.02" height="4.02"/>
		<rect x="52.21" y="40.16" class="st0" width="4.02" height="4.02"/>
		<rect x="56.23" y="40.16" class="st0" width="4.02" height="4.02"/>
		<rect x="60.25" y="40.16" class="st0" width="4.02" height="4.02"/>
		<rect x="64.26" y="40.16" class="st0" width="4.02" height="4.02"/>
		<rect x="68.28" y="40.16" class="st0" width="4.02" height="4.02"/>
		<rect x="84.35" y="40.16" class="st0" width="4.02" height="4.02"/>
		<rect x="8.03" y="44.18" class="st0" width="4.02" height="4.02"/>
		<rect x="16.07" y="44.18" class="st0" width="4.02" height="4.02"/>
		<rect x="28.12" y="44.18" class="st0" width="4.02" height="4.02"/>
		<rect x="32.13" y="44.18" class="st0" width="4.02" height="4.02"/>
		<rect x="48.2" y="44.18" class="st0" width="4.02" height="4.02"/>
		<rect x="52.21" y="44.18" class="st0" width="4.02" height="4.02"/>
		<rect x="72.3" y="44.18" class="st0" width="4.02" height="4.02"/>
		<rect x="76.31" y="44.18" class="st0" width="4.02" height="4.02"/>
		<rect x="80.33" y="44.18" class="st0" width="4.02" height="4.02"/>
		<rect x="92.38" y="44.18" class="st0" width="4.02" height="4.02"/>
		<rect x="100.41" y="44.18" class="st0" width="4.02" height="4.02"/>
		<rect x="108.44" y="44.18" class="st0" width="4.02" height="4.02"/>
		<rect x="4.02" y="48.2" class="st0" width="4.02" height="4.02"/>
		<rect x="16.07" y="48.2" class="st0" width="4.02" height="4.02"/>
		<rect x="20.08" y="48.2" class="st0" width="4.02" height="4.02"/>
		<rect x="24.1" y="48.2" class="st0" width="4.02" height="4.02"/>
		<rect x="28.12" y="48.2" class="st0" width="4.02" height="4.02"/>
		<rect x="32.13" y="48.2" class="st0" width="4.02" height="4.02"/>
		<rect x="36.15" y="48.2" class="st0" width="4.02" height="4.02"/>
		<rect x="40.16" y="48.2" class="st0" width="4.02" height="4.02"/>
		<rect x="48.2" y="48.2" class="st0" width="4.02" height="4.02"/>
		<rect x="56.23" y="48.2" class="st0" width="4.02" height="4.02"/>
		<rect x="60.25" y="48.2" class="st0" width="4.02" height="4.02"/>
		<rect x="64.26" y="48.2" class="st0" width="4.02" height="4.02"/>
		<rect x="68.28" y="48.2" class="st0" width="4.02" height="4.02"/>
		<rect x="100.41" y="48.2" class="st0" width="4.02" height="4.02"/>
		<rect x="104.43" y="48.2" class="st0" width="4.02" height="4.02"/>
		<rect y="52.21" class="st0" width="4.02" height="4.02"/>
		<rect x="12.05" y="52.21" class="st0" width="4.02" height="4.02"/>
		<rect x="28.12" y="52.21" class="st0" width="4.02" height="4.02"/>
		<rect x="64.26" y="52.21" class="st0" width="4.02" height="4.02"/>
		<rect x="76.31" y="52.21" class="st0" width="4.02" height="4.02"/>
		<rect x="80.33" y="52.21" class="st0" width="4.02" height="4.02"/>
		<rect x="84.35" y="52.21" class="st0" width="4.02" height="4.02"/>
		<rect x="88.36" y="52.21" class="st0" width="4.02" height="4.02"/>
		<rect x="96.39" y="52.21" class="st0" width="4.02" height="4.02"/>
		<rect x="112.46" y="52.21" class="st0" width="4.02" height="4.02"/>
		<rect y="56.23" class="st0" width="4.02" height="4.02"/>
		<rect x="4.02" y="56.23" class="st0" width="4.02" height="4.02"/>
		<rect x="16.07" y="56.23" class="st0" width="4.02" height="4.02"/>
		<rect x="24.1" y="56.23" class="st0" width="4.02" height="4.02"/>
		<rect x="44.18" y="56.23" class="st0" width="4.02" height="4.02"/>
		<rect x="48.2" y="56.23" class="st0" width="4.02" height="4.02"/>
		<rect x="60.25" y="56.23" class="st0" width="4.02" height="4.02"/>
		<rect x="64.26" y="56.23" class="st0" width="4.02" height="4.02"/>
		<rect x="68.28" y="56.23" class="st0" width="4.02" height="4.02"/>
		<rect x="72.3" y="56.23" class="st0" width="4.02" height="4.02"/>
		<rect x="80.33" y="56.23" class="st0" width="4.02" height="4.02"/>
		<rect x="84.35" y="56.23" class="st0" width="4.02" height="4.02"/>
		<rect x="88.36" y="56.23" class="st0" width="4.02" height="4.02"/>
		<rect x="100.41" y="56.23" class="st0" width="4.02" height="4.02"/>
		<rect x="104.43" y="56.23" class="st0" width="4.02" height="4.02"/>
		<rect x="12.05" y="60.25" class="st0" width="4.02" height="4.02"/>
		<rect x="20.08" y="60.25" class="st0" width="4.02" height="4.02"/>
		<rect x="28.12" y="60.25" class="st0" width="4.02" height="4.02"/>
		<rect x="36.15" y="60.25" class="st0" width="4.02" height="4.02"/>
		<rect x="40.16" y="60.25" class="st0" width="4.02" height="4.02"/>
		<rect x="44.18" y="60.25" class="st0" width="4.02" height="4.02"/>
		<rect x="56.23" y="60.25" class="st0" width="4.02" height="4.02"/>
		<rect x="60.25" y="60.25" class="st0" width="4.02" height="4.02"/>
		<rect x="64.26" y="60.25" class="st0" width="4.02" height="4.02"/>
		<rect x="92.38" y="60.25" class="st0" width="4.02" height="4.02"/>
		<rect x="96.39" y="60.25" class="st0" width="4.02" height="4.02"/>
		<rect x="108.44" y="60.25" class="st0" width="4.02" height="4.02"/>
		<rect y="64.26" class="st0" width="4.02" height="4.02"/>
		<rect x="8.03" y="64.26" class="st0" width="4.02" height="4.02"/>
		<rect x="12.05" y="64.26" class="st0" width="4.02" height="4.02"/>
		<rect x="16.07" y="64.26" class="st0" width="4.02" height="4.02"/>
		<rect x="20.08" y="64.26" class="st0" width="4.02" height="4.02"/>
		<rect x="24.1" y="64.26" class="st0" width="4.02" height="4.02"/>
		<rect x="28.12" y="64.26" class="st0" width="4.02" height="4.02"/>
		<rect x="32.13" y="64.26" class="st0" width="4.02" height="4.02"/>
		<rect x="44.18" y="64.26" class="st0" width="4.02" height="4.02"/>
		<rect x="60.25" y="64.26" class="st0" width="4.02" height="4.02"/>
		<rect x="64.26" y="64.26" class="st0" width="4.02" height="4.02"/>
		<rect x="68.28" y="64.26" class="st0" width="4.02" height="4.02"/>
		<rect x="76.31" y="64.26" class="st0" width="4.02" height="4.02"/>
		<rect x="92.38" y="64.26" class="st0" width="4.02" height="4.02"/>
		<rect x="100.41" y="64.26" class="st0" width="4.02" height="4.02"/>
		<rect x="104.43" y="64.26" class="st0" width="4.02" height="4.02"/>
		<rect y="68.28" class="st0" width="4.02" height="4.02"/>
		<rect x="12.05" y="68.28" class="st0" width="4.02" height="4.02"/>
		<rect x="32.13" y="68.28" class="st0" width="4.02" height="4.02"/>
		<rect x="36.15" y="68.28" class="st0" width="4.02" height="4.02"/>
		<rect x="48.2" y="68.28" class="st0" width="4.02" height="4.02"/>
		<rect x="52.21" y="68.28" class="st0" width="4.02" height="4.02"/>
		<rect x="56.23" y="68.28" class="st0" width="4.02" height="4.02"/>
		<rect x="64.26" y="68.28" class="st0" width="4.02" height="4.02"/>
		<rect x="68.28" y="68.28" class="st0" width="4.02" height="4.02"/>
		<rect x="72.3" y="68.28" class="st0" width="4.02" height="4.02"/>
		<rect x="76.31" y="68.28" class="st0" width="4.02" height="4.02"/>
		<rect x="80.33" y="68.28" class="st0" width="4.02" height="4.02"/>
		<rect x="88.36" y="68.28" class="st0" width="4.02" height="4.02"/>
		<rect x="92.38" y="68.28" class="st0" width="4.02" height="4.02"/>
		<rect x="96.39" y="68.28" class="st0" width="4.02" height="4.02"/>
		<rect x="104.43" y="68.28" class="st0" width="4.02" height="4.02"/>
		<rect x="112.46" y="68.28" class="st0" width="4.02" height="4.02"/>
		<rect y="72.3" class="st0" width="4.02" height="4.02"/>
		<rect x="12.05" y="72.3" class="st0" width="4.02" height="4.02"/>
		<rect x="24.1" y="72.3" class="st0" width="4.02" height="4.02"/>
		<rect x="28.12" y="72.3" class="st0" width="4.02" height="4.02"/>
		<rect x="40.16" y="72.3" class="st0" width="4.02" height="4.02"/>
		<rect x="52.21" y="72.3" class="st0" width="4.02" height="4.02"/>
		<rect x="56.23" y="72.3" class="st0" width="4.02" height="4.02"/>
		<rect x="60.25" y="72.3" class="st0" width="4.02" height="4.02"/>
		<rect x="64.26" y="72.3" class="st0" width="4.02" height="4.02"/>
		<rect x="68.28" y="72.3" class="st0" width="4.02" height="4.02"/>
		<rect x="84.35" y="72.3" class="st0" width="4.02" height="4.02"/>
		<rect x="92.38" y="72.3" class="st0" width="4.02" height="4.02"/>
		<rect x="96.39" y="72.3" class="st0" width="4.02" height="4.02"/>
		<rect x="104.43" y="72.3" class="st0" width="4.02" height="4.02"/>
		<rect y="76.31" class="st0" width="4.02" height="4.02"/>
		<rect x="8.03" y="76.31" class="st0" width="4.02" height="4.02"/>
		<rect x="12.05" y="76.31" class="st0" width="4.02" height="4.02"/>
		<rect x="20.08" y="76.31" class="st0" width="4.02" height="4.02"/>
		<rect x="28.12" y="76.31" class="st0" width="4.02" height="4.02"/>
		<rect x="32.13" y="76.31" class="st0" width="4.02" height="4.02"/>
		<rect x="36.15" y="76.31" class="st0" width="4.02" height="4.02"/>
		<rect x="40.16" y="76.31" class="st0" width="4.02" height="4.02"/>
		<rect x="48.2" y="76.31" class="st0" width="4.02" height="4.02"/>
		<rect x="52.21" y="76.31" class="st0" width="4.02" height="4.02"/>
		<rect x="64.26" y="76.31" class="st0" width="4.02" height="4.02"/>
		<rect x="80.33" y="76.31" class="st0" width="4.02" height="4.02"/>
		<rect x="84.35" y="76.31" class="st0" width="4.02" height="4.02"/>
		<rect x="88.36" y="76.31" class="st0" width="4.02" height="4.02"/>
		<rect x="92.38" y="76.31" class="st0" width="4.02" height="4.02"/>
		<rect x="96.39" y="76.31" class="st0" width="4.02" height="4.02"/>
		<rect x="108.44" y="76.31" class="st0" width="4.02" height="4.02"/>
		<rect y="80.33" class="st0" width="4.02" height="4.02"/>
		<rect x="24.1" y="80.33" class="st0" width="4.02" height="4.02"/>
		<rect x="32.13" y="80.33" class="st0" width="4.02" height="4.02"/>
		<rect x="48.2" y="80.33" class="st0" width="4.02" height="4.02"/>
		<rect x="56.23" y="80.33" class="st0" width="4.02" height="4.02"/>
		<rect x="68.28" y="80.33" class="st0" width="4.02" height="4.02"/>
		<rect x="76.31" y="80.33" class="st0" width="4.02" height="4.02"/>
		<rect x="80.33" y="80.33" class="st0" width="4.02" height="4.02"/>
		<rect x="84.35" y="80.33" class="st0" width="4.02" height="4.02"/>
		<rect x="88.36" y="80.33" class="st0" width="4.02" height="4.02"/>
		<rect x="92.38" y="80.33" class="st0" width="4.02" height="4.02"/>
		<rect x="96.39" y="80.33" class="st0" width="4.02" height="4.02"/>
		<rect x="104.43" y="80.33" class="st0" width="4.02" height="4.02"/>
		<rect x="108.44" y="80.33" class="st0" width="4.02" height="4.02"/>
		<rect x="112.46" y="80.33" class="st0" width="4.02" height="4.02"/>
		<rect x="32.13" y="84.35" class="st0" width="4.02" height="4.02"/>
		<rect x="36.15" y="84.35" class="st0" width="4.02" height="4.02"/>
		<rect x="64.26" y="84.35" class="st0" width="4.02" height="4.02"/>
		<rect x="80.33" y="84.35" class="st0" width="4.02" height="4.02"/>
		<rect x="96.39" y="84.35" class="st0" width="4.02" height="4.02"/>
		<rect x="100.41" y="84.35" class="st0" width="4.02" height="4.02"/>
		<rect x="104.43" y="84.35" class="st0" width="4.02" height="4.02"/>
		<rect x="108.44" y="84.35" class="st0" width="4.02" height="4.02"/>
		<rect x="112.46" y="84.35" class="st0" width="4.02" height="4.02"/>
		<rect y="88.36" class="st0" width="4.02" height="4.02"/>
		<rect x="4.02" y="88.36" class="st0" width="4.02" height="4.02"/>
		<rect x="8.03" y="88.36" class="st0" width="4.02" height="4.02"/>
		<rect x="12.05" y="88.36" class="st0" width="4.02" height="4.02"/>
		<rect x="16.07" y="88.36" class="st0" width="4.02" height="4.02"/>
		<rect x="20.08" y="88.36" class="st0" width="4.02" height="4.02"/>
		<rect x="24.1" y="88.36" class="st0" width="4.02" height="4.02"/>
		<rect x="32.13" y="88.36" class="st0" width="4.02" height="4.02"/>
		<rect x="36.15" y="88.36" class="st0" width="4.02" height="4.02"/>
		<rect x="44.18" y="88.36" class="st0" width="4.02" height="4.02"/>
		<rect x="48.2" y="88.36" class="st0" width="4.02" height="4.02"/>
		<rect x="60.25" y="88.36" class="st0" width="4.02" height="4.02"/>
		<rect x="68.28" y="88.36" class="st0" width="4.02" height="4.02"/>
		<rect x="72.3" y="88.36" class="st0" width="4.02" height="4.02"/>
		<rect x="76.31" y="88.36" class="st0" width="4.02" height="4.02"/>
		<rect x="80.33" y="88.36" class="st0" width="4.02" height="4.02"/>
		<rect x="88.36" y="88.36" class="st0" width="4.02" height="4.02"/>
		<rect x="96.39" y="88.36" class="st0" width="4.02" height="4.02"/>
		<rect x="100.41" y="88.36" class="st0" width="4.02" height="4.02"/>
		<rect x="104.43" y="88.36" class="st0" width="4.02" height="4.02"/>
		<rect y="92.38" class="st0" width="4.02" height="4.02"/>
		<rect x="24.1" y="92.38" class="st0" width="4.02" height="4.02"/>
		<rect x="40.16" y="92.38" class="st0" width="4.02" height="4.02"/>
		<rect x="44.18" y="92.38" class="st0" width="4.02" height="4.02"/>
		<rect x="56.23" y="92.38" class="st0" width="4.02" height="4.02"/>
		<rect x="60.25" y="92.38" class="st0" width="4.02" height="4.02"/>
		<rect x="72.3" y="92.38" class="st0" width="4.02" height="4.02"/>
		<rect x="76.31" y="92.38" class="st0" width="4.02" height="4.02"/>
		<rect x="80.33" y="92.38" class="st0" width="4.02" height="4.02"/>
		<rect x="96.39" y="92.38" class="st0" width="4.02" height="4.02"/>
		<rect x="108.44" y="92.38" class="st0" width="4.02" height="4.02"/>
		<rect y="96.39" class="st0" width="4.02" height="4.02"/>
		<rect x="8.03" y="96.39" class="st0" width="4.02" height="4.02"/>
		<rect x="12.05" y="96.39" class="st0" width="4.02" height="4.02"/>
		<rect x="16.07" y="96.39" class="st0" width="4.02" height="4.02"/>
		<rect x="24.1" y="96.39" class="st0" width="4.02" height="4.02"/>
		<rect x="32.13" y="96.39" class="st0" width="4.02" height="4.02"/>
		<rect x="36.15" y="96.39" class="st0" width="4.02" height="4.02"/>
		<rect x="44.18" y="96.39" class="st0" width="4.02" height="4.02"/>
		<rect x="68.28" y="96.39" class="st0" width="4.02" height="4.02"/>
		<rect x="80.33" y="96.39" class="st0" width="4.02" height="4.02"/>
		<rect x="84.35" y="96.39" class="st0" width="4.02" height="4.02"/>
		<rect x="88.36" y="96.39" class="st0" width="4.02" height="4.02"/>
		<rect x="92.38" y="96.39" class="st0" width="4.02" height="4.02"/>
		<rect x="96.39" y="96.39" class="st0" width="4.02" height="4.02"/>
		<rect x="104.43" y="96.39" class="st0" width="4.02" height="4.02"/>
		<rect y="100.41" class="st0" width="4.02" height="4.02"/>
		<rect x="8.03" y="100.41" class="st0" width="4.02" height="4.02"/>
		<rect x="12.05" y="100.41" class="st0" width="4.02" height="4.02"/>
		<rect x="16.07" y="100.41" class="st0" width="4.02" height="4.02"/>
		<rect x="24.1" y="100.41" class="st0" width="4.02" height="4.02"/>
		<rect x="32.13" y="100.41" class="st0" width="4.02" height="4.02"/>
		<rect x="48.2" y="100.41" class="st0" width="4.02" height="4.02"/>
		<rect x="52.21" y="100.41" class="st0" width="4.02" height="4.02"/>
		<rect x="56.23" y="100.41" class="st0" width="4.02" height="4.02"/>
		<rect x="64.26" y="100.41" class="st0" width="4.02" height="4.02"/>
		<rect x="80.33" y="100.41" class="st0" width="4.02" height="4.02"/>
		<rect x="100.41" y="100.41" class="st0" width="4.02" height="4.02"/>
		<rect x="104.43" y="100.41" class="st0" width="4.02" height="4.02"/>
		<rect x="108.44" y="100.41" class="st0" width="4.02" height="4.02"/>
		<rect x="112.46" y="100.41" class="st0" width="4.02" height="4.02"/>
		<rect y="104.43" class="st0" width="4.02" height="4.02"/>
		<rect x="8.03" y="104.43" class="st0" width="4.02" height="4.02"/>
		<rect x="12.05" y="104.43" class="st0" width="4.02" height="4.02"/>
		<rect x="16.07" y="104.43" class="st0" width="4.02" height="4.02"/>
		<rect x="24.1" y="104.43" class="st0" width="4.02" height="4.02"/>
		<rect x="32.13" y="104.43" class="st0" width="4.02" height="4.02"/>
		<rect x="36.15" y="104.43" class="st0" width="4.02" height="4.02"/>
		<rect x="40.16" y="104.43" class="st0" width="4.02" height="4.02"/>
		<rect x="52.21" y="104.43" class="st0" width="4.02" height="4.02"/>
		<rect x="56.23" y="104.43" class="st0" width="4.02" height="4.02"/>
		<rect x="60.25" y="104.43" class="st0" width="4.02" height="4.02"/>
		<rect x="64.26" y="104.43" class="st0" width="4.02" height="4.02"/>
		<rect x="68.28" y="104.43" class="st0" width="4.02" height="4.02"/>
		<rect x="72.3" y="104.43" class="st0" width="4.02" height="4.02"/>
		<rect x="76.31" y="104.43" class="st0" width="4.02" height="4.02"/>
		<rect x="80.33" y="104.43" class="st0" width="4.02" height="4.02"/>
		<rect x="84.35" y="104.43" class="st0" width="4.02" height="4.02"/>
		<rect x="88.36" y="104.43" class="st0" width="4.02" height="4.02"/>
		<rect x="92.38" y="104.43" class="st0" width="4.02" height="4.02"/>
		<rect x="96.39" y="104.43" class="st0" width="4.02" height="4.02"/>
		<rect x="100.41" y="104.43" class="st0" width="4.02" height="4.02"/>
		<rect x="104.43" y="104.43" class="st0" width="4.02" height="4.02"/>
		<rect x="108.44" y="104.43" class="st0" width="4.02" height="4.02"/>
		<rect y="108.44" class="st0" width="4.02" height="4.02"/>
		<rect x="24.1" y="108.44" class="st0" width="4.02" height="4.02"/>
		<rect x="32.13" y="108.44" class="st0" width="4.02" height="4.02"/>
		<rect x="36.15" y="108.44" class="st0" width="4.02" height="4.02"/>
		<rect x="48.2" y="108.44" class="st0" width="4.02" height="4.02"/>
		<rect x="52.21" y="108.44" class="st0" width="4.02" height="4.02"/>
		<rect x="60.25" y="108.44" class="st0" width="4.02" height="4.02"/>
		<rect x="64.26" y="108.44" class="st0" width="4.02" height="4.02"/>
		<rect x="80.33" y="108.44" class="st0" width="4.02" height="4.02"/>
		<rect x="84.35" y="108.44" class="st0" width="4.02" height="4.02"/>
		<rect x="96.39" y="108.44" class="st0" width="4.02" height="4.02"/>
		<rect x="100.41" y="108.44" class="st0" width="4.02" height="4.02"/>
		<rect x="108.44" y="108.44" class="st0" width="4.02" height="4.02"/>
		<rect y="112.46" class="st0" width="4.02" height="4.02"/>
		<rect x="4.02" y="112.46" class="st0" width="4.02" height="4.02"/>
		<rect x="8.03" y="112.46" class="st0" width="4.02" height="4.02"/>
		<rect x="12.05" y="112.46" class="st0" width="4.02" height="4.02"/>
		<rect x="16.07" y="112.46" class="st0" width="4.02" height="4.02"/>
		<rect x="20.08" y="112.46" class="st0" width="4.02" height="4.02"/>
		<rect x="24.1" y="112.46" class="st0" width="4.02" height="4.02"/>
		<rect x="32.13" y="112.46" class="st0" width="4.02" height="4.02"/>
		<rect x="40.16" y="112.46" class="st0" width="4.02" height="4.02"/>
		<rect x="48.2" y="112.46" class="st0" width="4.02" height="4.02"/>
		<rect x="56.23" y="112.46" class="st0" width="4.02" height="4.02"/>
		<rect x="68.28" y="112.46" class="st0" width="4.02" height="4.02"/>
		<rect x="72.3" y="112.46" class="st0" width="4.02" height="4.02"/>
		<rect x="92.38" y="112.46" class="st0" width="4.02" height="4.02"/>
		<rect x="96.39" y="112.46" class="st0" width="4.02" height="4.02"/>
		<rect x="104.43" y="112.46" class="st0" width="4.02" height="4.02"/>
	</g>
</g>
</svg>
