<?xml version="1.0" encoding="utf-8"?><svg width="634" height="129.99" viewBox="0 0 634 129.99" xmlns="http://www.w3.org/2000/svg" xmlns:xlink="http://www.w3.org/1999/xlink"><svg id="flag-de" viewBox="0 0 30 19.7" width="30" height="19.7" xmlns="http://www.w3.org/2000/svg"><style>.ast0{fill:#464655}.ast1{fill:#ffe15a}.ast2{fill:#ff4b55}</style><path class="ast0" d="M30 6.6H0v-6C0 .2.2 0 .5 0h29c.3 0 .5.2.5.5v6.1z"/><path class="ast1" d="M29.5 19.7H.5c-.3 0-.5-.2-.5-.5v-6h30v6c0 .2-.2.5-.5.5z"/><path class="ast2" d="M0 6.6h30v6.6H0z"/></svg><svg id="flag-en" viewBox="0 0 30 19.7" width="30" height="19.7" x="30" xmlns="http://www.w3.org/2000/svg"><style>.bst0{fill:#41479b}.bst1{fill:#f5f5f5}.bst2{fill:#ff4b55}</style><path class="bst0" d="M29.5 19.7H.5c-.3 0-.5-.2-.5-.5V.5C0 .2.2 0 .5 0h29c.3 0 .5.2.5.5v18.6c0 .3-.2.6-.5.6z"/><path class="bst1" d="M30 .5c0-.3-.2-.5-.5-.5h-2.3l-9.6 6.3V0h-5.2v6.3L2.8 0H.5C.2 0 0 .2 0 .5v1.3l8.2 5.4H0v5.2h8.2L0 17.8v1.3c0 .3.2.5.5.5h2.3l9.6-6.3v6.3h5.2v-6.3l9.6 6.3h2.3c.3 0 .5-.2.5-.5v-1.3l-8.2-5.4H30V7.2h-8.2L30 1.9V.5z"/><path class="bst2" d="M30 8.3H16.6V0h-3.2v8.3H0v3.1h13.4v8.3h3.2v-8.3H30z"/><path class="bst2" d="M10.5 12.4L0 19.2c0 .2.2.4.5.4h.7l11.2-7.2h-1.9zm9.8 0h-1.9l11.1 7.2c.3 0 .5-.2.5-.5v-.4l-9.7-6.3zM0 1.1l9.5 6.2h1.9L.3.1C.1.1 0 .3 0 .5v.6zm19.5 6.1L30 .4c0-.2-.2-.4-.5-.4h-.7L17.6 7.2h1.9z"/></svg><svg id="flag-jp" viewBox="0 0 30 20" width="30" height="20" x="60" xmlns="http://www.w3.org/2000/svg"><style>.cst0{fill:#f0f0f0}.cst1{fill:#d80027}</style><path class="cst0" d="M0 0h30v20H0z"/><circle class="cst1" cx="15" cy="10" r="5.6"/></svg><svg id="flag-ru" viewBox="0 0 30 19.7" width="30" height="19.7" x="90" xmlns="http://www.w3.org/2000/svg"><style>.dst0{fill:#f5f5f5}.dst1{fill:#ff4b55}.dst2{fill:#41479b}</style><path class="dst0" d="M30 6.6H0v-6C0 .2.2 0 .5 0h29c.3 0 .5.2.5.5v6.1z"/><path class="dst1" d="M29.5 19.7H.5c-.3 0-.5-.2-.5-.5v-6h30v6c0 .2-.2.5-.5.5z"/><path class="dst2" d="M0 6.6h30v6.6H0z"/></svg><svg id="flag-zh" viewBox="0 0 30 19.7" width="30" height="19.7" x="120" xmlns="http://www.w3.org/2000/svg"><style>.est0{fill:#ff4b55}.est1{fill:#ffe15a}</style><path class="est0" d="M29.5 19.7H.5c-.3 0-.5-.2-.5-.5V.5C0 .2.2 0 .5 0h29c.3 0 .5.2.5.5v18.6c0 .3-.2.6-.5.6z"/><path class="est1" d="M5 3.1l.5 1.5h1.6c.2 0 .3.3.1.4l-1.3.9.5 1.5c0 .1-.2.3-.4.2l-1.2-.9-1.3.9c-.2.1-.4 0-.3-.2l.5-1.5-1.3-1c-.2-.1-.1-.3.1-.3h1.6l.5-1.5c0-.2.3-.2.4 0zm5.6.3l.4.5.6-.2c.1 0 .1.1.1.1l-.3.5.3.5c0 .1 0 .1-.1.1l-.6-.1-.4.5c0 .1-.1 0-.1 0v-.6l-.6-.3c-.1 0-.1-.1 0-.2l.6-.2v-.6h.1zM8.5 2l.6.1.3-.5c0-.1.1-.1.2 0l.1.6.6.1c.1 0 .1.1 0 .1l-.6.2.1.6c0 .1-.1.1-.1.1l-.4-.4-.6.3c-.1 0-.1 0-.1-.1l.2-.5-.4-.5s0-.1.1-.1zm.9 5.8l-.3.5-.6-.2c-.1 0-.1.1-.1.1l.3.5-.3.5c0 .1 0 .1.1.1l.6-.2.4.5c0 .1.1 0 .1 0V9l.6-.2c.1 0 .1-.1 0-.2l-.6-.2v-.6s-.1-.1-.2 0zm2.2-1.4l-.6.1-.3-.5c0-.1-.1-.1-.2 0l-.1.6h-.5c-.1 0-.1.1 0 .1l.5.3-.1.6c0 .1.1.1.1.1l.4-.4.5.3c.1 0 .1 0 .1-.1l-.2-.5.4-.4c.1-.1.1-.2 0-.2z"/></svg><svg width="13.758" height="9.899" viewBox="0 0 13.758 9.899" id="i-check" x="150" xmlns="http://www.w3.org/2000/svg"><path d="M4.95 9.9a1.087 1.087 0 0 1-.772-.32L.32 5.721a1.091 1.091 0 1 1 1.543-1.543L4.95 7.269 11.9.32a1.091 1.091 0 1 1 1.543 1.543L5.722 9.58a1.088 1.088 0 0 1-.772.32z" fill="#54ce63"/></svg><svg id="i-checked" viewBox="0 0 22.5 22.5" width="22.5" height="22.5" x="164" xmlns="http://www.w3.org/2000/svg"><style>.gst0{fill:#fff}.gst1{fill:#54ce63}</style><circle class="gst0" cx="11.3" cy="11.2" r="9.5"/><g id="gchecked" transform="translate(-.004)"><path id="gPath_1166" class="gst1" d="M11.2 0C5 0 0 5 0 11.2s5 11.2 11.2 11.2 11.2-5 11.2-11.2S17.4 0 11.2 0zm0 20.3c-5 0-9.1-4.1-9.1-9.1s4.1-9.1 9.1-9.1 9.1 4.1 9.1 9.1c0 5.1-4 9.1-9.1 9.1zm4.4-13.9c-.5-.3-1.1-.1-1.3.3l-3.8 6.8L8.4 11c-.3-.5-.9-.6-1.4-.4-.5.3-.7.9-.4 1.4l2.9 3.6c.2.3.4.4.7.5.5.1 1-.1 1.3-.5L16 7.9c.3-.5.1-1.2-.4-1.5z"/></g></svg><svg id="i-error" viewBox="0 0 22.4 22.4" width="22.4" height="22.4" x="187" xmlns="http://www.w3.org/2000/svg"><style>.hst0{fill:#fff}.hst1{fill:#f15a24}</style><circle class="hst0" cx="11.2" cy="11.2" r="9.7"/><path id="hPath_1165" class="hst1" d="M11.2 0C5 0 0 5 0 11.2s5 11.2 11.2 11.2 11.2-5 11.2-11.2S17.4 0 11.2 0zm0 20.3c-5 0-9.1-4.1-9.1-9.1s4.1-9.1 9.1-9.1 9.1 4.1 9.1 9.1c0 5.1-4 9.1-9.1 9.1zm0-15.4c-.8 0-1.4.4-1.4 1.1v6.2c0 .7.6 1.1 1.4 1.1.8 0 1.4-.4 1.4-1.1V6c0-.6-.6-1.1-1.4-1.1zm0 9.8c-.8 0-1.4.6-1.4 1.4 0 .8.6 1.4 1.4 1.4.8 0 1.4-.6 1.4-1.4 0-.7-.6-1.4-1.4-1.4z"/></svg><svg id="i-humidity" width="35.92" height="35.92" viewBox="0 0 35.92 35.92" x="210" xmlns="http://www.w3.org/2000/svg"><style>.ist0{fill:#fff}</style><path class="ist0" d="M13.61 35.92c-3.64 0-7.05-1.4-9.62-3.95A13.406 13.406 0 0 1 0 22.38V22c0-4.71 3.99-9.28 7.5-13.32 2.56-2.94 4.98-5.72 4.98-7.56 0-.62.51-1.13 1.13-1.13s1.13.51 1.13 1.13c0 1.96 2.45 4.74 5.05 7.69l1.36 1.55c.2.23.29.52.27.82-.02.3-.16.57-.39.77-.21.18-.47.28-.74.28-.33 0-.64-.14-.86-.39l-1.22-1.4C16.4 8.39 14.88 6.67 13.84 5l-.25-.4-.25.4c-1.03 1.61-2.54 3.34-4.13 5.16C5.95 13.9 2.26 18.14 2.26 22v.38c0 6.22 5.09 11.28 11.35 11.28 3.04 0 5.86-1.13 7.95-3.17.21-.21.49-.32.79-.32.3 0 .59.12.8.34.21.22.33.5.32.8 0 .3-.12.59-.34.79-2.51 2.47-5.89 3.82-9.52 3.82zm21.19-8.34c-1.37 0-2.72-.78-4.01-2.33-.13-.15-.33-.23-.56-.23a.73.73 0 0 0-.56.24c-1.29 1.55-2.64 2.33-4.01 2.33s-2.72-.78-4.01-2.33c-.13-.15-.33-.23-.56-.23a.73.73 0 0 0-.56.24c-1.29 1.55-2.64 2.33-4.01 2.33s-2.72-.78-4.01-2.33c-.13-.15-.33-.23-.56-.23a.73.73 0 0 0-.56.24c-1.29 1.55-2.64 2.33-4.01 2.33-.62 0-1.13-.51-1.13-1.13s.51-1.13 1.13-1.13c.65 0 1.46-.54 2.28-1.52.55-.66 1.39-1.04 2.29-1.04.9 0 1.74.38 2.29 1.05.82.98 1.63 1.52 2.28 1.52.65 0 1.46-.54 2.28-1.52.55-.66 1.39-1.04 2.29-1.04s1.74.38 2.29 1.05c.82.98 1.63 1.52 2.28 1.52s1.46-.54 2.28-1.52c.55-.66 1.39-1.04 2.29-1.04s1.74.38 2.29 1.05c.82.98 1.63 1.52 2.28 1.52.62 0 1.13.51 1.13 1.13s-.51 1.07-1.13 1.07zm0-7.13c-1.37 0-2.72-.78-4.01-2.33-.13-.15-.33-.23-.56-.23a.73.73 0 0 0-.56.24c-1.29 1.55-2.64 2.33-4.01 2.33s-2.72-.78-4.01-2.33c-.13-.15-.33-.23-.56-.23a.73.73 0 0 0-.56.24c-1.29 1.55-2.64 2.33-4.01 2.33-.62 0-1.13-.51-1.13-1.13s.51-1.13 1.13-1.13c.65 0 1.46-.54 2.28-1.52.55-.66 1.39-1.04 2.29-1.04s1.74.38 2.29 1.05c.82.98 1.63 1.52 2.28 1.52s1.46-.54 2.28-1.52c.55-.66 1.39-1.04 2.29-1.04s1.74.38 2.29 1.05c.82.98 1.63 1.52 2.28 1.52.62 0 1.13.51 1.13 1.13s-.51 1.09-1.13 1.09z"/></svg><svg id="i-menu-dark" viewBox="0 0 30 30" width="30" height="30" x="246" xmlns="http://www.w3.org/2000/svg"><style>.jst0{fill:#fff}</style><path class="jst0" d="M15 0C6.7 0 0 6.7 0 15s6.7 15 15 15 15-6.7 15-15S23.3 0 15 0zm6.4 22H8.6c-.6 0-1.1-.5-1.1-1.1s.5-1.1 1.1-1.1h12.9c.6 0 1.1.5 1.1 1.1S22 22 21.4 22zm0-5.9H8.6c-.6 0-1.1-.5-1.1-1.1s.5-1.1 1.1-1.1h12.9c.6 0 1.1.5 1.1 1.1s-.6 1.1-1.2 1.1zm0-5.9H8.6c-.6 0-1.1-.5-1.1-1.1C7.5 8.5 8 8 8.6 8h12.9c.6 0 1.1.5 1.1 1.1-.1.6-.6 1.1-1.2 1.1z"/></svg><svg id="i-menu-light" viewBox="0 0 30 19.2" width="30" height="19.2" x="276" xmlns="http://www.w3.org/2000/svg"><style>.kst0{fill:#fff}</style><path class="kst0" d="M1.1 2.3h27.7c.6 0 1.1-.5 1.1-1.1s-.4-1.2-1-1.2H1.1C.5 0 0 .5 0 1.1s.5 1.2 1.1 1.2zm0 8.5h27.7c.6 0 1.1-.5 1.1-1.1s-.5-1.1-1.1-1.1H1.1C.5 8.5 0 9 0 9.6s.5 1.2 1.1 1.2zm0 8.4h27.7c.6 0 1.1-.5 1.1-1.1 0-.6-.5-1.1-1.1-1.1H1.1c-.6 0-1.1.5-1.1 1.1 0 .6.5 1.1 1.1 1.1z"/></svg><svg id="i-pressure" width="38.16" height="50.7" viewBox="0 0 38.16 50.7" x="306" xmlns="http://www.w3.org/2000/svg"><style>.lst0{fill:#fff}</style><path class="lst0" d="M19.08 4.18c-8.21 0-14.9 6.68-14.9 14.9s6.68 14.9 14.9 14.9 14.9-6.68 14.9-14.9-6.69-14.9-14.9-14.9zm2.32 19.33l-.81 2.63h-3.02l-.81-2.63 2.32-8.7 2.32 8.7zm-2.32 8.9c-7.09 0-12.9-5.56-13.3-12.54h3.37V18.3H5.77c.16-2.82 1.21-5.41 2.87-7.5l2.04 2.04 1.11-1.11-2.1-2.1c2.24-2.22 5.26-3.66 8.6-3.85v3.37h.67l-3.84 14.39 1.28 4.17h5.34l1.28-4.17-3.83-14.39h.67V5.77c3.35.2 6.37 1.63 8.6 3.85l-2.1 2.1 1.11 1.11 2.04-2.04a13.26 13.26 0 0 1 2.87 7.5h-3.37v1.57h3.37c-.4 6.99-6.22 12.55-13.3 12.55z"/><path class="lst0" d="M38.16 19.08C38.16 8.56 29.6 0 19.08 0S0 8.56 0 19.08c0 9.46 6.92 17.45 16.2 18.86v7.54h-3.92c-1.01 0-1.83.82-1.83 1.83v1.83H6.01v1.57h26.13v-1.57H27.7V47.3c0-1.01-.82-1.83-1.83-1.83h-3.92v-7.54c9.29-1.4 16.21-9.39 16.21-18.85zM25.87 47.04c.14 0 .26.12.26.26v1.83H12.02V47.3c0-.14.12-.26.26-.26h13.59zm-4.79-10.57l-.69.08v8.93h-2.61v-8.93l-.69-.08C8.24 35.45 1.57 27.98 1.57 19.08c0-9.66 7.86-17.51 17.51-17.51s17.51 7.86 17.51 17.51c0 8.9-6.67 16.37-15.51 17.39z"/></svg><svg id="i-temp" width="26.82" height="73.14" viewBox="0 0 26.82 73.14" x="345" xmlns="http://www.w3.org/2000/svg"><style>.mst0{fill:#fff}</style><path class="mst0" d="M13.41 0c-4.7.01-8.52 3.82-8.53 8.53v40.86C1.26 52.35-.54 56.99.14 61.61c1.03 7.33 7.82 12.43 15.15 11.4 6.62-.94 11.54-6.61 11.53-13.3.01-4-1.78-7.79-4.87-10.32V8.53C21.94 3.82 18.12.01 13.41 0zm10.97 59.71c.01 6.06-4.9 10.97-10.95 10.98-6.06.01-10.98-4.9-10.98-10.95 0-3.46 1.62-6.71 4.39-8.79.31-.23.49-.59.49-.97V46.3h2.44v-2.44H7.32V40.2h2.44v-2.44H7.32V34.1h2.44v-2.44H7.32V28h2.44v-2.44H7.32V21.9h2.44v-2.4H7.32v-3.66h2.44V13.4H7.32V8.53c0-3.37 2.73-6.09 6.09-6.09s6.09 2.73 6.09 6.09v41.45c0 .38.18.74.49.97a10.88 10.88 0 0 1 4.39 8.76z"/><path class="mst0" d="M14.63 53.74V10.97H12.2v42.77c-3.3.67-5.42 3.89-4.75 7.19s3.89 5.42 7.19 4.75c3.3-.67 5.42-3.89 4.75-7.19a6.114 6.114 0 0 0-4.76-4.75zm-1.22 9.62c-2.02 0-3.66-1.64-3.66-3.66 0-2.02 1.64-3.66 3.66-3.66s3.66 1.64 3.66 3.66c0 2.03-1.64 3.66-3.66 3.66z"/></svg><svg width="25.257" height="25.257" viewBox="0 0 25.257 25.257" id="logo-aira" x="372" xmlns="http://www.w3.org/2000/svg"><g data-name="Group 1349"><path data-name="Rectangle 764" fill="#fff" d="M12.268 12.749h.401v10.183h-.401z"/></g><g data-name="Group 1350"><path data-name="Rectangle 765" fill="#fff" d="M22.771 2.325h.401v20.687h-.401z"/></g><g data-name="Group 1351"><path data-name="Rectangle 766" fill="#fff" d="M2.14 22.833L22.778 2.195l.283.284L2.424 23.117z"/></g><g data-name="Group 1352"><path data-name="Rectangle 767" fill="#fff" d="M2.325 22.771h20.687v.401H2.325z"/></g><g data-name="Group 1353"><path data-name="Rectangle 768" fill="#fff" d="M12.332 22.792l10.46-10.176.28.288-10.46 10.175z"/></g><g data-name="Group 1358"><circle data-name="Ellipse 249" cx="2.325" cy="2.325" r="2.325" fill="#fff" transform="translate(20.606 20.606)"/></g><g data-name="Group 1359"><circle data-name="Ellipse 250" cx="2.325" cy="2.325" r="2.325" fill="#fff" transform="translate(20.606)"/></g><g data-name="Group 1360"><circle data-name="Ellipse 251" cx="2.325" cy="2.325" r="2.325" fill="#fff" transform="translate(20.606 10.263)"/></g><g data-name="Group 1361"><circle data-name="Ellipse 252" cx="2.325" cy="2.325" r="2.325" fill="#fff" transform="translate(0 20.606)"/></g><g data-name="Group 1362"><circle data-name="Ellipse 253" cx="2.325" cy="2.325" r="2.325" fill="#fff" transform="translate(10.263 20.606)"/></g><g data-name="Group 1363"><circle data-name="Ellipse 254" cx="2.325" cy="2.325" r="2.325" fill="#fff" transform="translate(10.263 10.423)"/></g></svg><svg width="33.481" height="29.491" viewBox="0 0 33.481 29.491" id="logo-robonomics" x="398" xmlns="http://www.w3.org/2000/svg"><g data-name="3_Robonomics_logo_white"><g data-name="Group 2881"><path data-name="Path 1161" d="M16.778 1.003l-15.7 27.2h31.411z" fill="none" stroke="#fff" stroke-miterlimit="10" stroke-width=".4"/><circle data-name="Ellipse 281" cx="1.107" cy="1.107" r="1.107" transform="rotate(-25.517 75.973 -53.666)" fill="#fff"/><circle data-name="Ellipse 282" cx="1.107" cy="1.107" r="1.107" transform="translate(15.694)" fill="#fff"/><circle data-name="Ellipse 283" cx="1.107" cy="1.107" r="1.107" transform="translate(0 26.922)" fill="#fff"/></g><g data-name="Group 2882" fill="#fff"><path data-name="Path 1162" d="M10.084 23.37h13.679l-6.839-3.609z"/><path data-name="Path 1163" d="M16.654 10.907L9.696 22.963l6.972-3.67z"/><path data-name="Path 1164" d="M24.145 22.949l-6.943-12.028.057 8.325z"/></g></g></svg><svg id="man-status-ok" width="100.98" height="129.99" viewBox="0 0 100.98 129.99" x="432" xmlns="http://www.w3.org/2000/svg"><style>.pst0{fill:#fff}.pst1{font-family:'Noteworthy-Light'}.pst2{font-size:20.4334px}.pst3{clip-path:url(#pSVGID_2_)}.pst4{fill:#b5c4c6}.pst5{fill:#f7ab72}.pst6{fill:#663d29}.pst7{fill:#fcba8d}.pst8{fill:#e18b4a}.pst9{fill:#7a5433}.pst10{fill:#7bea68}.pst11{fill:#51ad49}.pst12{fill:#231f20}</style><path d="M90.87 2.21C88.14.77 85.11.01 82.02 0c-10.5 0-19.01 8.51-19.01 19 0 4.96 1.93 9.71 5.39 13.26l-.79 5.65c-.07.41.21.79.61.86.19.03.38-.01.54-.11l4.32-2.86c9.28 4.91 20.78 1.38 25.69-7.9s1.37-20.78-7.9-25.69z"/><text transform="translate(71.822 26.73)" class="pst0 pst1 pst2">ok</text><path class="pst0" d="M90.87 2.21C88.14.77 85.11.01 82.02 0c-10.5 0-19.01 8.51-19.01 19 0 4.96 1.93 9.71 5.39 13.26l-.79 5.65c-.07.41.21.79.61.86.19.03.38-.01.54-.11l4.32-2.86c9.28 4.91 20.78 1.38 25.69-7.9s1.37-20.78-7.9-25.69zm3.61 29.1a17.577 17.577 0 0 1-12.46 5.22c-3.02 0-5.98-.77-8.61-2.25a.77.77 0 0 0-.75 0l-3.38 2.2.65-4.35a.77.77 0 0 0-.22-.64c-6.89-6.79-6.96-17.88-.17-24.76S87.42-.23 94.3 6.56c6.89 6.78 6.97 17.86.18 24.75z"/><defs><path id="pSVGID_1_" d="M0 8.13h95.63v121.86H0z"/></defs><clipPath id="pSVGID_2_"><use xlink:href="#pSVGID_1_" overflow="visible"/></clipPath><g class="pst3"><path class="pst0" d="M44.67 114.47l.99-.52c.33-.15.67-.29 1.02-.4.18-.05.29.21.13.3-.1.05-.19.11-.29.16l1.07.09c-.44-1.14-.92-2.27-1.53-3.35-.67-1.21-1.46-2.31-2.3-3.39-1.14.29-2.28.59-3.42.89.82.71 1.43 2.14 1.75 2.91.56 1.33 1.02 2.96.89 4.45.55-.4 1.1-.8 1.69-1.14z"/><path class="pst4" d="M46.97 112.71c-.8-1.63-2.68-1.41-4.16-1.91-.51-.17-.9-.49-1.26-.83.23.45.41.88.55 1.2.56 1.33 1.02 2.96.89 4.45.54-.41 1.1-.8 1.68-1.15l.99-.52c.33-.15.67-.29 1.02-.4.18-.05.29.21.13.3-.1.05-.19.11-.29.16l1.07.09c-.16-.42-.34-.84-.51-1.26a.207.207 0 0 1-.11-.13z"/><path class="pst5" d="M50.03 114.35c.03-1.65-.06-3.51-1.38-4.67-.77-.68-1.64-.78-2.62-.89-.25-.03-.46-.07-.66-.15 1.21 1.7 2.21 3.6 2.85 5.54.6.05 1.2.11 1.81.17z"/><path class="pst0" d="M24.31 122.12c3.56 1.21 8.22-.64 11.37-2 1.06-.46 2.08-.97 3.07-1.55l.58-.36c.74-.45 1.46-.93 2.16-1.46.36-.27.71-.54 1.07-.82-.2-1.33-.27-2.65-.74-3.94-.44-1.22-1.09-2.62-2.02-3.6-1.48.4-2.96.82-4.43 1.29-.4.13-.79.26-1.18.39l-.61.2c-3.73 1.28-7.36 2.8-11.07 4.15-.16.06-.27-.2-.12-.28 1.29-.67 2.61-1.27 3.97-1.83-1.1.01-2.24-.18-2.5-.87-.29.06-.63.03-.83-.2-.19-.21-.12-.54-.08-.8.09-.69.3-1.52.77-2.09-.05-.11-.09-.23-.1-.37-.04-.7.57-1.39 1.09-1.76.16-.11.32-.2.5-.28.21-.51.6-.98.94-1.38.23-.26.51-.61.85-.77-.01 0-.02-.01-.02-.01-.77-.39-1.55-.98-1.75-1.87-.53-2.32 2.26-1.05 3.39-.63.52-2.71 1.24-5.31 2.34-7.84.04-.1.19-.03.16.07-.79 2.61-1.51 5.27-2.02 7.95 1.99.75 4.31 1.8 5.33 3.71.45.84.59 1.76.4 2.69-.11.52-.26 1.05-.43 1.58.22-.07.44-.14.65-.21 1.47-.47 2.95-.93 4.44-1.36.03-.02.07-.04.11-.03 1.25-.36 2.5-.7 3.76-1l.49-.11.43.49c.25.29.49.6.72.91h.01c1.73.25 3.3.06 4.53 1.56 1.07 1.31 1.15 3.09 1.11 4.71l.91.09 2.34.21c.12-1.99.2-3.99.22-6 .05-4.5-.08-9.01-.06-13.51 0-.18.26-.17.27 0 .39 4.56.41 9.15.37 13.73-.02 1.92-.01 3.89-.1 5.85l-.03.58-.7-.08c-.92-.11-1.83-.21-2.74-.3-.91-.09-1.82-.16-2.73-.22l-.59-.04c-.73-.05-1.46-.1-2.19-.16-1.96 1.22-3.71 2.69-5.66 3.95-.03.02-.05.03-.08.05.75.43 1.53.82 2.34 1.19 2.3 1.03 4.63 1.99 6.98 2.89 1.94.75 4.06 1.58 6.18 1.16a4.57 4.57 0 0 0 1.43-.53l.49-.33c1.08-.86 1.64-2.19 2.02-3.69 1.07-4.2.79-8.63.25-12.89-.54-4.29-1.37-8.68-2.83-12.77-1.14-3.19-3.29-6.32-6.52-7.3.56 1.08 1.06 2.21 1.44 3.37l.17.56-.32.52c-.28.39-.62.76-1 1.1-.75.68-1.65 1.38-2.6 1.87.51.42 1 .86 1.48 1.31.29.28.59.56.89.85l.31.31-.32.47c-1.69 2.28-4.79 3.6-7.48 4.07l-.02.03c.24.93.23 1.94.22 2.89-.01 1.04-.01 2.2-.37 3.19-.03.08-.17.1-.18 0-.18-1.04-.06-2.14-.05-3.19.01-.93-.07-1.88.03-2.81l-.03-.06c-2.87 1-6.05-1.29-7.56-3.97l-.37-.75.25-.55c.57-1.12 1.4-2.15 2.22-3.11-.32-.21-.65-.42-.99-.61-.55-.3-1.12-.57-1.68-.87l-.5-.28.19-.5c.58-1.46 1.38-2.86 2.22-4.13.37-.56.76-1.1 1.16-1.63-5.17.93-8.41 5.89-10.87 10.14-2.37 4.1-4.24 8.48-5.57 13.03-1.25 4.29-2.49 10.04 1.38 13.42.46.4.95.71 1.48.95l.56.22z"/><path class="pst4" d="M41.82 112c-.12-.33-.26-.68-.41-1.03-.45 5.57-7.41 7.5-12.46 8.07-2.32.26-5.51.64-7.18-1.4-1.71-2.09.65-4.13 2.62-4.56.08-.02.15-.01.21.01.58-.26 1.17-.52 1.76-.76-1.1.01-2.24-.18-2.5-.87-.29.06-.63.03-.83-.2-.19-.21-.12-.54-.08-.8.01-.04.01-.08.02-.12-.43.74-.87 1.47-1.48 2.1-.12.12-.35.17-.49.06-.47-.35-.79-.82-.99-1.36-.66 3.54-.6 7.33 2.27 9.83.46.4.95.71 1.48.95l.55.21c3.56 1.21 8.22-.64 11.37-2 1.06-.46 2.08-.97 3.07-1.55l.58-.36c.74-.45 1.46-.93 2.16-1.46.36-.27.71-.54 1.07-.82-.2-1.33-.27-2.65-.74-3.94zm14.56 8.4c-1.84 1.53-4.48 1.36-6.53.39-1.35-.64-2.82-1.51-3.68-2.79-.85-1.27-.79-2.15-.34-3.43-.07-.01-.14-.01-.2-.02-1.96 1.22-3.71 2.69-5.66 3.95-.03.02-.05.03-.08.05.75.43 1.53.82 2.34 1.19 2.3 1.03 4.63 1.99 6.98 2.89 1.94.75 4.06 1.58 6.18 1.16a4.57 4.57 0 0 0 1.43-.53l.49-.33c1.08-.86 1.64-2.19 2.02-3.69.56-2.2.75-4.47.72-6.74-.36 3.06-1.34 5.95-3.67 7.9zm-27.3-18.92c.77.29 1.59.63 2.36 1.04-.22-.9-.42-1.8-.53-2.71-.23-1.8-.1-3.59-.07-5.39-.68 2.32-1.3 4.68-1.76 7.06z"/><path class="pst4" d="M50.65 113.25c.02.39.01.78 0 1.16l.91.09 2.34.21c.12-1.99.2-3.99.22-6 .02-2.16.01-4.32-.02-6.48-.16 1.73-.41 3.45-.81 5.12-.49 2.07-1.17 4.32-2.64 5.9z"/><path class="pst6" d="M24.04 189.98c-.93-.31-2.1-.81-2.84-1.46-.02-.02-.03-.04-.03-.06-.61.18-1.24.31-1.82.5-1.11.36-2.19.78-3.24 1.28a26.95 26.95 0 0 0-2.98 1.63c-.41.26-1.53 1.04-1.96 1.75 2.22-.13 4.44-.07 6.66-.24 2.25-.17 4.63-.75 6.88-.61.11.01.14.16.03.2-2.15.68-4.67.71-6.91.88-2.22.17-4.56.36-6.77 0-.13.37-.02.7.55.91 1.38-.07 2.78.09 4.16.09 1.54.01 3.08-.04 4.61-.16 1.89-.14 3.75-.44 5.6-.76.24-.62.45-1.25.59-1.91.13-.63.17-1.24.18-1.86-.85.27-1.9.09-2.71-.18z"/><path class="pst0" d="M35.88 87.54c-.53.92-.97 1.87-1.39 2.83.65.3 1.28.65 1.89.99.32.18.63.36.93.55l.34.24-.34.5c-.41.56-.88 1.09-1.25 1.68-.38.6-.67 1.24-.97 1.89 1.49 2.52 4.03 4.75 7.03 4.07a20.845 20.845 0 0 1-2.25-7.28c-.4-3.3-.43-6.8-.09-10.19-.58.13-1.13.69-1.6 1.29-.02.05-.05.09-.09.12-.32.42-.6.85-.81 1.15-.51.7-.97 1.42-1.4 2.16z"/><path class="pst5" d="M25.79 111.63c.69.04 1.38.03 2.06.1 1.96-.75 3.95-1.43 5.93-2.07.37-1.11.79-2.23.49-3.33-.53-1.94-2.55-2.97-4.23-3.76-.97-.45-1.97-.85-2.99-1.18-.23-.08-.93-.42-1.11-.33-1 .47.28 1.78.66 2.04 1.17.79 2.56 1.06 3.71 1.9.57-.05 1.14-.06 1.71 0 .15.01.19.22.04.26-1.52.47-3.2.53-4.78.8-.66.11-1.34.24-1.95.54h-.01c-.06.03-.13.06-.19.09-.27.16-.99.74-.96 1.14.04.51.72.91 1.14 1.15.36-.24.75-.43 1.14-.58 1.22-.46 2.75-.9 4.05-.91.12 0 .17.17.06.22-1.52.8-3.37.77-4.84 1.72-.42.27-1.07.76-1.19 1.28-.19.92.54.88 1.26.92z"/><path class="pst5" d="M24.92 109.27c-.33-.12-.67-.29-.92-.52-.13.34-.29.67-.39 1.02-.07.24-.22.68-.18.92.04.24.2.3.37.36.01-.19.07-.39.18-.63.23-.46.56-.84.94-1.15zm4.61-4.2c-.62-.33-1.25-.63-1.88-.94-.03.02-.06.04-.11.04-.55.06-1.04.77-1.34 1.18-.07.1-.14.2-.21.31.63-.18 1.29-.26 1.92-.35.53-.08 1.07-.17 1.62-.24z"/><path class="pst0" d="M34.86 58.15c.06-.16.11-.31.15-.47.09-.33.49-1.83-.23-1.53-.14.18-.25.42-.34.65-.01.3-.02.61.07.89.08.23.2.36.35.46zm16.18 0c.06-.16.11-.31.15-.47.09-.33.49-1.83-.23-1.53-.13.18-.25.42-.34.65-.01.3-.02.61.07.89.07.23.2.36.35.46z"/><path class="pst5" d="M53.11 64.71c.07.53.13 1.06.18 1.6.48-1.58 2.1-3.01 3.19-4.04.83-.79 1.93-1.9 3.12-2.56-.16-.55-.29-1.11-.38-1.68-.29.01-.58.03-.86.05-.89.07-1.82.21-2.71.17-.14 1.95-1.1 3.95-2.89 4.51-2.24.7-5.48-.4-6.38-2.67-.86-2.17-.04-5.89 2.49-6.55.12-.03.21.15.09.21-2.07.98-3 3.8-2.25 5.92.74 2.06 3.56 3.15 5.61 2.66 1.75-.41 2.68-2.36 2.79-4.21-.02-.05-.02-.11.01-.15.02-.68-.06-1.34-.26-1.9-.86-2.41-3.39-3.13-5.67-2.4-.12.04-.21-.16-.09-.21 2.37-1.05 5.27-.27 6.23 2.3.23.6.33 1.3.33 2.03.81-.18 1.67-.21 2.49-.25l.99-.06c-.21-1.61-.2-3.27-.11-4.8.12-2 .38-4.11.9-6.12-1.73.23-3.56-.01-5.22-.65.06.24.08.49.04.75-.3 2.03-2.65 2.34-4.29 2.17-2.96-.31-5.94-1.42-8.38-3.22.16 1.75-1.32 2.2-2.84 2.16-3.43-.09-6.34-2.47-7.37-5.62-1.45 1.83-2.41 4.12-3.27 6.22-.99 2.4-1.56 4.86-1.94 7.39.15.03.29.06.44.08.56.1 1.16.19 1.7.38.69-2.2 2.58-4.34 4.95-4.05.1.01.15.17.03.19-2.59.44-4.51 2.38-4.78 5.05-.29 2.87 2.11 5.81 5.11 5.46 2.74-.32 4.55-2.26 4.74-5.01.18-2.61-1.24-5.55-4.18-5.62-.09 0-.09-.13 0-.14 3.12-.35 4.7 2.74 4.64 5.47 1.58-1.57 5.29-2.34 6.12.23.04.13-.14.19-.22.09-1.47-2.14-4.3-.82-5.95.27-.31 2.83-2.24 4.83-5.13 5.16-3.11.36-5.73-2.56-5.62-5.57.01-.36.07-.73.16-1.1-.53-.06-1.06-.2-1.57-.32-.17-.04-.34-.08-.51-.11-.07.47-.13.94-.19 1.41l.03.06c.02.01.03.02.04.04.72 1.36 1.29 2.8 1.85 4.23.53 1.34 1.22 2.71 1.59 4.12.06-.18.11-.36.17-.53l.14-.39.35.14c2.31.87 4.85 1.09 7.36 1.11-.31-1.39.23-3.07.79-4.29.66-1.43 1.66-2.8 2.93-3.75.09-.07.22.06.15.15-.87 1.16-1.82 2.23-2.46 3.54-.39.79-.68 1.63-.84 2.5-.11.62-.1 1.23-.16 1.85 1.14 0 2.26-.04 3.36-.08 3.79-.14 7.42-.77 10.99-1.92l.34-.11.08.41zm-3.22-7.32c.09-.29.81-2.05 1.38-1.82.09-.02.19-.01.28.04.37.19.37.84.34 1.18-.07.8-.41 2.72-1.36 2.96-1.28.31-.81-1.8-.64-2.36zm2.85-8.23c1.18-.07 2 1.32 1.76 2.37-.05.21-.33.22-.44.06-.22-.35-.24-.75-.44-1.11-.33-.58-.88-.64-1.44-.36-.7.35-1.22.83-1.78 1.35-.11.12-.39.07-.36-.13.13-1.06 1.7-2.12 2.7-2.18zm-17.65 6.41c.09-.02.19-.01.28.04.37.19.37.84.34 1.18-.07.8-.41 2.72-1.36 2.96-1.27.32-.8-1.79-.63-2.36.08-.29.8-2.06 1.37-1.82zm2.53-4.89c-.03.15-.27.18-.34.04-.48-.97-.98-1.85-2.24-1.77-.91.06-1.56.65-2.19 1.24-.09.09-.3.03-.28-.12.28-2.75 5.63-2.31 5.05.61z"/><path class="pst7" d="M28.99 57.41c-.29 2.87 2.11 5.81 5.11 5.46 2.74-.32 4.55-2.26 4.74-5.01.18-2.55-1.18-5.41-3.97-5.6-.72.08-1.42.38-2.14.37-2.05.72-3.51 2.48-3.74 4.78zm4.72-.02c.09-.29.8-2.05 1.37-1.82.09-.02.19-.01.28.04.37.19.37.84.34 1.18-.07.8-.41 2.72-1.36 2.96-1.27.31-.8-1.8-.63-2.36zm21.15-1.33c-.86-2.41-3.39-3.13-5.67-2.4-.04.01-.07 0-.1-.02-.03.01-.06.03-.09.04-.01.03-.02.05-.05.07-2.07.98-3 3.8-2.25 5.92.74 2.06 3.56 3.15 5.61 2.66 1.75-.41 2.68-2.36 2.79-4.21-.02-.05-.02-.11.01-.15a5.3 5.3 0 0 0-.25-1.91zm-2.98.73c-.07.8-.41 2.72-1.36 2.96-1.27.32-.8-1.79-.63-2.36.09-.29.81-2.05 1.38-1.82.09-.02.19-.01.28.04.37.18.36.83.33 1.18z"/><path class="pst8" d="M59.22 58.02c-.29.01-.58.03-.86.05-.41.03-.82.08-1.23.11.02.16.03.32.06.48.05.4.31 1.45.69 2.31.54-.47 1.12-.93 1.73-1.26-.17-.55-.29-1.11-.39-1.69zM31.15 47.31c.12-.09.29-.06.41 0 .77.38 1.55.77 2.33 1.14 1.35-.53 3.3-.05 3.7 1.29 1.72.32 3.47.15 5.23-1 .15-.1.37-.06.49.06 1.73 1.78 4.24 2.6 6.74 2.54v-.01c.12-1.06 1.7-2.12 2.7-2.18.74-.05 1.35.49 1.63 1.16.3-.15.6-.3.88-.48.18-.11.46-.05.55.14 1.21 2.39 1.05 5.01 1.26 7.6.36-.03.73-.04 1.08-.07l.99-.06c-.21-1.61-.2-3.27-.11-4.8.12-2 .38-4.11.9-6.12-1.73.23-3.56-.01-5.22-.65.06.24.08.49.04.75-.3 2.03-2.65 2.34-4.29 2.17-2.96-.31-5.94-1.42-8.38-3.22.16 1.75-1.32 2.2-2.84 2.16-3.43-.09-6.34-2.47-7.37-5.62-1.45 1.83-2.41 4.12-3.27 6.22-.27.67-.51 1.34-.73 2.01.95-1.11 2.08-2.11 3.28-3.03z"/><path class="pst5" d="M52.19 50.12c-.63.31-1.12.74-1.62 1.21 1.07-.07 2.13-.31 3.12-.7-.02-.05-.04-.1-.06-.14-.33-.59-.89-.65-1.44-.37zm-17.14-1.16c.48.19.95.37 1.43.51-.34-.35-.79-.56-1.43-.51zm-6.27 23.57c.05-.74.14-1.47.23-2.16.15-1.22.38-2.44.71-3.63-.79-1.29-1.24-2.84-1.78-4.24-.39-.99-.78-1.99-1.13-3-.23-.47-.46-.93-.72-1.38-.07-.02-.13-.08-.13-.19v-.02c-.29-.46-.6-.9-.97-1.32-.32-.36-.38-.54-.91-.45-.51.08-.54.26-.78.69-.31.55-.56 1.14-.75 1.75-.37 1.18-.5 2.43-.39 3.67.11 1.25.74 4.06 2.44 3.58.03-.45.06-.89.11-1.32.01-.14.2-.14.21 0l.09 1.16.04.58c.01.21.03.43.04.64.38 1.15.96 2.13 1.7 3.09.64.86 1.43 1.64 1.99 2.55zm-3.88-9.06c-.03.1-.17.07-.17-.02-.07-1.11.02-2.23-.1-3.34-.02-.2-.02-.95-.42-.68-.16.11-.26.67-.32.84-.11.36-.17.69-.37 1.01-.08.13-.28.11-.32-.04-.21-.73.36-3.28 1.56-2.53.49.31.39 1.09.39 1.58.02 1.06.02 2.15-.25 3.18z"/><path class="pst5" d="M40.47 80.81c.4.02.8.05 1.2.09.14.01.2.23.04.27-.4.1-.82.17-1.24.22-.04 2.14-.19 4.27-.24 6.4.87.79 1.73 1.46 3 1.38 1.26-.08 2.06-.87 2.75-1.82.03-2.04-.08-4.1 0-6.15-.67.09-1.34.09-2-.02-.16-.03-.1-.25.04-.26.66-.08 1.32-.19 1.99-.32l.38-.08c3.05-.67 6.09-1.97 8.45-3.93 1.48-1.23 2.62-2.76 3.44-4.49.32-.68.56-1.38.78-2.09-.63.67-1.42 1.19-2.24 1.62-.98.51-2.16 1.11-3.3.91-.03.86-.12 1.74-.33 2.57l-.22.7-.73.36c-3.22 1.52-6.83 2.32-10.33 2.46-2.79.11-5.57-.28-8.3-.81-1.37-.27-2.88-.6-4.07-1.37l-.63-.47-.1-.63c-.1-.74-.1-1.5-.07-2.25-1.06-.86-1.95-2.09-2.74-3.2-.32-.45-.6-.92-.82-1.42.25 3.16.73 6.28 2.57 8.99 1.41 2.08 4.21 2.5 6.54 2.9 1.92.33 3.83.33 5.74.43l.44.01z"/><path class="pst5" d="M40.42 82.78c-.06 1.67-.16 3.34-.2 5 .62.57 1.25 1.07 2.02 1.28.42-2.59-.04-6.15-1.82-6.28z"/><path class="pst8" d="M45.98 81.19c-.67.09-1.34.09-2-.02-.16-.03-.1-.25.04-.26.33-.04.66-.09 1-.14-1.09.11-2.18.17-3.27.17.08.07.08.2-.04.23-.4.1-.82.17-1.24.22 0 .18-.01.36-.02.54 2.4 0 3.09 4.15 2.6 7.24.06 0 .12.01.18 0 1.26-.08 2.06-.87 2.75-1.82.03-2.05-.08-4.11 0-6.16z"/><path class="pst5" d="M36.63 80.56c-2.21-.33-5.25-.82-7.76-1.97 1.51 1.12 3.61 1.44 5.43 1.76 1.05.18 2.1.26 3.14.32-.27-.04-.54-.07-.81-.11z"/><path class="pst9" d="M25.98 56.95c.01-.29.04-.58.07-.87-.23-.07-.46-.14-.67-.26-.09-.05-.04-.16.05-.17.22-.02.44-.01.66.01.29-2.7 1.07-5.39 2.11-7.87.9-2.11 1.85-4.54 3.51-6.22l.29-.27.17.48c.93 2.54 2.83 4.58 5.61 5.23.85.2 1.87.3 2.74.11 1.04-.24 1.12-1.17.91-2.03L41.01 44l.9.7c1.87 1.38 3.92 2.46 6.24 3.07 1.61.42 4.31 1.14 5.62-.29.56-.62.54-1.26.22-1.88l-1.09-1.32 1.42.76c.78.39 1.59.72 2.5.89 1.12.21 2.22.19 3.29.02l.57-.11-.12.62c-.38 1.99-.8 3.97-.93 6.02-.11 1.71.02 3.34.24 4.97.42 0 .84.02 1.25.1.14.02.12.23 0 .26-.38.1-.78.15-1.17.18.07.49.15.97.23 1.47.25-.1.51-.18.77-.23.57-.8 1.32-1.48 2.19-1.82-.05-1.03.19-2.11.35-3.11.15-.88.25-1.76.34-2.64l.06-.57.5.33c.55.31 1.06.43 1.26-.04.13-.3-.21-1.23-.3-1.55-.1-.39-.23-.77-.37-1.15-.5-1.34-1.24-2.58-2.15-3.68l-1.24-.77c.23.06.47.11.71.16l.66.12.15.03c.45.07 1.29.33 1.75.18.39-.13.81-.79.88-1.15.05-.29-.06-.73-.11-1.02-.07-.42-.18-.84-.31-1.25-.33-1.03-.83-2-1.46-2.88-2.05-2.88-5.23-4.94-8.38-6.43-3.2-1.51-6.68-2.43-10.2-2.71-3.53-.28-7.46-.09-10.75 1.33-1.61.69-3.08 1.79-3.94 3.35-.82 1.49-.76 3.08-.54 4.68l.07.47-.39.27c-2.21 1.61-3.25 4.16-3.91 6.83-.39 1.59-.63 3.22-.79 4.84-.15 1.47-.13 2.98-.37 4.45.51.27.97.93 1.32 1.45z"/><path class="pst6" d="M62.96 44.48l.15.03c.45.07 1.29.33 1.75.18.39-.13.81-.79.88-1.15.05-.29-.06-.73-.11-1.02a9.128 9.128 0 0 0-.73-2.31c-.06 1.1-.63 2.02-2.11 2.39-4.67 1.15-9.7-1.36-13.9-3.3.16 4.34-6.62 1.2-9.27-.83-.24 2.6-3.85 1.96-5.46.14-1.73-1.95-2.23-4.55-1.61-6.88-.79.6-1.48 1.32-1.96 2.21-.82 1.49-.76 3.08-.54 4.68l.07.47-.39.27c-2.21 1.61-3.25 4.16-3.91 6.83-.39 1.59-.63 3.22-.79 4.84-.15 1.47-.13 2.98-.37 4.45.52.32.98.97 1.32 1.49.01-.29.04-.58.07-.87-.23-.07-.46-.14-.67-.26-.09-.05-.04-.16.05-.17.22-.02.44-.01.66.01.29-2.7 1.07-5.39 2.11-7.87.9-2.11 1.85-4.54 3.51-6.22l.29-.29.17.48c.93 2.54 2.83 4.58 5.61 5.23.85.2 1.87.3 2.74.11 1.04-.24 1.12-1.17.91-2.03L41.01 44l.9.7c1.87 1.38 3.92 2.46 6.24 3.07 1.61.42 4.31 1.14 5.62-.29.56-.62.54-1.26.22-1.88l-1.09-1.32 1.42.76c.78.39 1.59.72 2.5.89 1.12.21 2.22.19 3.29.02l.57-.11-.12.62c-.38 1.99-.8 3.97-.93 6.02-.11 1.71.02 3.34.24 4.97.42 0 .84.02 1.25.1.14.02.12.23 0 .26-.38.1-.78.15-1.17.18.07.49.15.97.23 1.47.25-.1.51-.18.77-.23.57-.8 1.32-1.48 2.19-1.82-.05-1.03.19-2.11.35-3.11.15-.88.25-1.76.34-2.64l.06-.57.5.33c.55.31 1.06.43 1.26-.04.13-.3-.21-1.23-.3-1.55-.1-.39-.23-.77-.37-1.15-.5-1.34-1.24-2.58-2.15-3.68l-1.24-.77c.23.06.47.11.71.16l.66.09z"/><path class="pst5" d="M24.07 188.66c-.69-.08-1.34-.27-1.97-.55-.17.08-.34.15-.52.21.72.12 1.35.51 2.01.8 1.07.48 2.08.39 3.16.53v-1.32c-.86.3-1.77.44-2.68.33zm32.41-1.36c-.16-.04-.33-.09-.49-.13-1.59.74-3.4 1.01-5.17.8.14.55.25 1.11.33 1.68.68-.17 2.72-.98 2.9-1.06.84-.39 1.59-.96 2.43-1.29z"/><path class="pst6" d="M65.56 189.96c-.92-.5-2.05-.71-3.04-1-1.92-.56-3.84-1.07-5.76-1.59.02.04.02.09-.01.13-1.08 1.43-3.66 2.5-5.53 2.57.11.82.19 1.64.31 2.44l.06.35c2.12.16 4.24.24 6.37.32l4.06.15c1.06.04 2.22-.05 3.27.15.51-.16.89-.45 1.13-.8-2.29.11-4.63-.01-6.92-.13-2.3-.11-4.6-.25-6.87-.61-.11-.02-.08-.19.03-.19 2.36.05 4.71.25 7.06.34 2.31.08 4.62.04 6.92.13.23-.8-.1-1.73-1.08-2.26z"/><path class="pst10" d="M54.31 187.18a8.9 8.9 0 0 0 2.44-1.18c-.2-1.92-.34-3.86-.51-5.76-.22-2.41-.39-4.82-.54-7.23-2.34.81-4.73 1.54-7.14 2.11.45 2.15.77 4.32 1.07 6.51.26 1.93.58 3.88.83 5.83 1.28.17 2.6.1 3.85-.28z"/><path class="pst0" d="M43.55 99.22c-.14.29-.29.58-.44.88 1.34-.41 2.66-.81 3.9-1.49 1.14-.63 2.04-1.44 2.9-2.34-.29-.31-.57-.61-.87-.9-.51-.5-1.03-.97-1.56-1.45l-.37-.34.34-.24c.75-.51 1.57-.93 2.28-1.5.58-.47 1.13-1 1.57-1.6-.59-1.39-1.14-2.79-1.83-4.13l-.3-.56c-.36-.65-.75-1.28-1.22-1.84-.44-.52-.96-.92-1.47-1.34.06 1.62.05 3.24.07 4.85.02 2.21-.14 4.17-.77 6.3a37 37 0 0 1-2.23 5.7zm12.53 72.89c.59-.21 1.18-.42 1.76-.63 1.14-.42 2.28-.85 3.41-1.3-.41-8-.88-15.99-1.55-23.97-.36-4.35-.79-8.7-1.27-13.04-.34-3.09-.74-6.16-1.43-9.17-2.7 1.34-6.51-.17-9.13-1.22-2.22-.88-4.44-1.79-6.6-2.8-.68-.32-1.35-.66-1.99-1.05-2.19 1.32-4.57 2.3-6.99 3.07-2.59.82-5.53 1.4-8.02.66-.32 3.69-.8 7.38-1.14 11.07-.8 8.47-1.42 16.96-1.9 25.46-.21 3.79-.36 7.57-.5 11.36.32.15.64.3.95.45l.37.17c2.38 1.09 4.81 2.07 7.33 2.86l.58.18c2.49.74 5.01 1.17 7.55 1.31.18-1.4.37-2.81.56-4.21.42-3.13.84-6.25 1.25-9.38.05-.39.57-.4.61 0 .43 4.26.98 8.51 1.67 12.73.04.27.09.54.14.82.9-.06 1.81-.16 2.72-.3 1.19-.18 2.37-.41 3.54-.67l.4-.1c2.45-.58 4.87-1.32 7.25-2.15l.43-.15zM31.41 154.6c-.53 1.77-1.56 3.83-3.62 4.11-1.17.15-2.26-.39-3.24-.96-.76-.45-1.53-.9-1.76-1.81-.3-1.14-.18-2.51-.14-3.68.04-1.36.08-2.81.43-4.14.05-.18.33-.14.32.04-.06 2.13-.38 4.21-.27 6.36.03.54 0 1.16.26 1.65.28.53.94.83 1.45 1.1 1.06.57 2.24 1.1 3.44.64 2.08-.8 2.58-3.52 3.02-5.44.5-2.15.73-4.34.99-6.53.03-.25.4-.27.41 0 .08 2.9-.46 5.89-1.29 8.66zm1.26-9.35c-1.37.58-3.11.58-4.58.81-.42.07-4.54.94-4.61.73.03.08-.05.15-.12.16-.02 0-.05 0-.07.01-.07 0-.15-.06-.17-.13l-.02-.09c-.02-.1.02-.17.09-.23.57-.41 1.58-.48 2.26-.62.82-.17 1.65-.32 2.47-.46 1.47-.25 3.22-.75 4.71-.53.16.02.19.29.04.35zm3.45-7.34c.31-.73.95-1.28 1.74-1.4.14-.02.25.17.11.25-.64.36-1.63 1.23-1.38 2.09.23.82 1.06 0 1.29-.35.28-.45.4-1.02.17-1.52-.1-.22.19-.49.36-.28.51.66.39 1.49-.04 2.17-.37.57-1.06 1.15-1.78.84-.71-.3-.73-1.19-.47-1.8zm2.54 14.79c-.28.63-.89 1.31-1.66 1.2-.75-.11-.6-1.14-.45-1.67.18-.61.67-1.48 1.36-1.58.1-.02.2.08.14.18-.19.34-.51.59-.71.94-.17.31-.42.88-.32 1.25.12.43.51.19.72-.01.23-.23.36-.54.47-.83.15-.42.2-.76.03-1.17-.07-.18.16-.29.29-.23.71.34.36 1.39.13 1.92zm.15-27.16c-.36.56-1.14.88-1.72.45-.58-.43-.5-1.4-.21-1.98.22-.45.93-.84 1.3-.34.06.08-.02.2-.11.19-.46-.04-.71.19-.8.65-.07.37-.12 1 .38 1.06.44.06.71-.37.81-.74.12-.42.02-.8-.04-1.21-.02-.17.17-.32.31-.18.52.55.47 1.5.08 2.1zm2.66 5.1c.08 3.23.26 6.45.21 9.68-.05 3.21-.31 6.42-.66 9.61-.34 3.11-.54 6.34-1.18 9.41-.03.16-.28.12-.27-.04.11-3.26.71-6.54.97-9.8.25-3.2.43-6.41.46-9.62.04-3.23-.15-6.45-.16-9.68-.01-3.11.01-6.4.77-9.43.03-.13.26-.11.24.03-.29 3.3-.47 6.52-.38 9.84zm4.72 15.14c1.7-.35 3.53-.25 5.26-.16s3.58.17 5.26.59c.29.07.23.54-.07.53-1.73-.1-3.46-.4-5.19-.51-1.73-.1-3.5 0-5.22-.2-.14-.02-.19-.22-.04-.25zm.52 1.36c0-.26.38-.25.4 0 .26 3.79.08 11.1 5.57 10.8 2.39-.13 3.63-1.73 3.68-4.04.05-2.27-.16-4.57.04-6.84.02-.2.28-.19.3 0 .2 1.59.18 3.22.23 4.82.03 1.26.19 2.61-.17 3.83-.52 1.82-2.27 2.79-4.08 2.88-5.89.29-6.01-7.27-5.97-11.45z"/><path class="pst4" d="M37.65 125.58c.44.06.71-.37.81-.74.09-.33.05-.63 0-.94-.1-.03-.2-.05-.31-.07-.02.02-.05.04-.09.04-.46-.04-.71.19-.8.65-.05.36-.1.99.39 1.06z"/><path class="pst4" d="M59.7 146.21c-.36-4.35-.79-8.7-1.27-13.04-.34-3.09-.74-6.16-1.43-9.17-2.7 1.34-6.51-.17-9.13-1.22-2.22-.88-4.44-1.79-6.6-2.8-.68-.32-1.35-.66-1.99-1.05-2.19 1.32-4.57 2.3-6.99 3.07-2.59.82-5.53 1.4-8.02.66v.03c1.16.56 2.21 1.21 3.61 1.31 1.46.1 2.79.03 4.2-.38 1.86-.55 3.89-1.34 5.82-.64 0 0 .01 0 .01.01.04-.01.09-.01.14-.01 1.01.16 1.88.55 2.78.96.1-.18.2-.33.31-.46.11-.92.27-1.82.49-2.7.03-.13.26-.11.24.03l-.18 2.18c.95-.54 2.17-.03 3.4.66 3.57 2.01 6.79 3.62 11 2.86.23-.04.41.06.5.28 1.23 3.27.94 7.39.96 10.82.02 2.86.7 6.49-.56 9.15-.05.11-.13.17-.22.19.15 1.08.23 2.4.13 3.71l.03 1.23c.03 1.26.19 2.61-.17 3.83-.22.75-.64 1.35-1.19 1.81.67-.21 1.32-.36 2.01.19.9.7.75 2.88.7 3.84-.17 3.63-1.64 6.14-4.84 8-2.67 1.55-7 3.2-9.89 1.2-1.32-.91-2.34-2.25-3.04-3.75.32 2.56.68 5.11 1.09 7.66.04.27.09.54.14.82.9-.06 1.81-.16 2.72-.3 1.19-.18 2.37-.41 3.54-.67l.4-.1c2.45-.58 4.87-1.32 7.25-2.15l.43-.15c.59-.21 1.18-.42 1.76-.63 1.14-.42 2.28-.85 3.41-1.3-.41-8.01-.88-16.01-1.55-23.98z"/><path class="pst4" d="M35.54 169.22c-2.22 1.25-4.91.78-7.17-.21-3.67-1.62-6.02-5.59-7.16-9.64-.21 3.73-.35 7.45-.49 11.18.32.15.64.3.95.45l.37.17c2.38 1.09 4.81 2.07 7.33 2.86l.58.18c2.49.74 5.01 1.17 7.55 1.31.18-1.4.37-2.81.56-4.21.26-1.96.52-3.92.79-5.89-.76 1.55-1.85 2.98-3.31 3.8zm-8.79-14.86c-2.01.12-2.96-1.55-3.53-3.34-.08 1.16-.15 2.32-.1 3.5.03.54 0 1.16.26 1.65.28.53.94.83 1.45 1.1 1.06.57 2.24 1.1 3.44.64 2.08-.8 2.58-3.52 3.02-5.44.19-.81.33-1.63.46-2.46-1.12 2.23-2.86 4.23-5 4.35zm11.49-3.47c-.03-.01-.07-.02-.1-.04-.03-.01-.05-.02-.08-.03v.01c-.19.34-.51.59-.71.94-.17.31-.42.88-.32 1.25.12.43.51.19.72-.01.23-.23.36-.54.47-.83.15-.42.2-.76.03-1.17a.106.106 0 0 1-.01-.12zm-.21-14.07c-.03-.02-.05-.03-.07-.05-.64.36-1.61 1.22-1.37 2.08.23.82 1.06 0 1.29-.35.28-.45.4-1.02.17-1.52-.04-.06-.04-.11-.02-.16zm16.38 19.02c-1.9 1.03-4.5.94-6.02-.54.77 1.63 2.06 2.76 4.28 2.64 2.39-.13 3.63-1.73 3.68-4.04v-.56c-.38 1.08-1 1.99-1.94 2.5z"/><path class="pst10" d="M21.98 171.89c-.26 2.59-.52 5.19-.77 7.78-.22 2.3-.34 4.64-.54 6.96 1.02.73 2.13 1.29 3.44 1.44 1.36.15 2.5-.28 3.61-.86v-.03c.19-1.86.4-3.72.64-5.58.29-2.28.56-4.58.91-6.86-.45-.14-.89-.28-1.34-.44-2.01-.71-4-1.51-5.95-2.41z"/><path class="pst11" d="M51.31 182.7c-.31-1.9-.49-4.39.66-6.07.96-1.41 2.32-2.3 3.77-3.09-.01-.18-.03-.35-.04-.53-2.34.81-4.73 1.54-7.14 2.11.45 2.15.77 4.32 1.07 6.51.26 1.93.58 3.88.83 5.83 1.29.17 2.6.09 3.86-.28.25-.07.48-.16.71-.25-1.87-.32-3.31-1.67-3.72-4.23zm-23.38-8.41c-2.01-.7-4.01-1.5-5.95-2.4-.01.13-.03.26-.04.39 1.56 1.35 3.1 2.69 4.01 4.58.96 2.01.86 4.49.66 6.65-.19 2.03-1.6 3.74-3.33 4.39.27.07.55.12.84.16 1.36.15 2.5-.28 3.61-.86v-.03c.19-1.86.4-3.72.64-5.58.29-2.28.56-4.58.91-6.86-.46-.14-.9-.29-1.35-.44z"/><path class="pst5" d="M60.12 61.79c-.07.19-.34.12-.3-.08.05-.26.13-.53.23-.81-.01-.01-.03-.03-.04-.06-.07-.17-.13-.36-.2-.54-1.05.68-1.99 1.5-2.9 2.37-1.42 1.36-2.66 2.77-3.46 4.57-.01.03-.04.05-.06.06.09 1.2.15 2.41.16 3.62 0 .38 0 .78-.01 1.18 2.14-.37 4.15-1.36 5.74-2.85l.24-.84.21-.69c.13-.42.28-.85.44-1.26.05-.12.23-.11.23.03-.01.57-.07 1.14-.17 1.72.64.32 1.54.02 2.1-.44.58-.48 1.07-1.14 1.52-1.74.86-1.15 1.62-2.42 1.89-3.85.29-1.52-.07-5.19-2.66-4.02-1.41.67-2.43 2.24-2.96 3.63zm3.85.87c-.07.08-.18.02-.21-.06-.17-.43-.04-1.2-.54-1.44-.53-.26-.81.42-1 .79-.44.86-.66 1.77-.93 2.69-.04.12-.22.1-.22-.03.01-.94.27-1.86.63-2.73.2-.5.43-1.17.98-1.41 1.26-.53 2.03 1.33 1.29 2.19z"/><path class="pst11" d="M45.96 88.34c-1.32 1.71-4.42 1.93-5.74.19-.01 1.28.02 2.55.15 3.84.2 2 .56 4.01 1.31 5.89.23.58.5 1.14.79 1.69.22-.39.44-.79.63-1.2.87-1.8 1.59-3.66 2.15-5.58.46-1.59.64-3.2.71-4.83z"/><path class="pst12" d="M24.77 58.71c-1.2-.75-1.77 1.8-1.56 2.53.04.15.24.17.32.04.2-.32.26-.65.37-1.01.05-.17.15-.74.32-.84.4-.27.4.49.42.68.12 1.11.03 2.22.1 3.34.01.1.15.12.17.02.26-1.04.26-2.12.25-3.18-.01-.48.1-1.27-.39-1.58m37.91 1.76c-.55.23-.78.9-.98 1.41-.35.87-.61 1.79-.63 2.73 0 .13.18.15.22.03.27-.92.49-1.83.93-2.69.19-.37.47-1.05 1-.79.5.25.37 1.01.54 1.44.03.08.14.14.21.06.74-.86-.03-2.72-1.29-2.19m-30.1-10.39c-.01.15.19.21.28.12.63-.59 1.28-1.18 2.19-1.24 1.26-.08 1.76.8 2.24 1.77.07.14.31.11.34-.04.57-2.93-4.78-3.37-5.05-.61m20.16-.92c-1 .06-2.58 1.12-2.7 2.18-.02.2.25.25.36.13.55-.53 1.08-1 1.78-1.35.56-.28 1.11-.21 1.44.36.2.35.21.76.44 1.11.11.16.39.15.44-.06.25-1.05-.58-2.44-1.76-2.37M35.37 55.6a.46.46 0 0 0-.28-.04c-.57-.24-1.29 1.53-1.37 1.82-.17.57-.64 2.68.63 2.36.96-.24 1.3-2.16 1.36-2.96.02-.34.03-.99-.34-1.18m-.35 2.08c-.04.16-.1.32-.15.47a.815.815 0 0 1-.35-.45c-.09-.28-.08-.59-.07-.89.09-.23.21-.47.34-.65.72-.32.32 1.19.23 1.52m16.53-2.08a.46.46 0 0 0-.28-.04c-.57-.24-1.29 1.53-1.38 1.82-.17.57-.64 2.68.63 2.36.96-.24 1.3-2.16 1.36-2.96.03-.34.04-.99-.33-1.18m-.36 2.08c-.04.16-.1.32-.15.47a.815.815 0 0 1-.35-.45c-.09-.28-.08-.59-.07-.89.09-.23.21-.47.34-.65.73-.32.32 1.19.23 1.52"/><path class="pst12" d="M65.73 189.36c-1.51-.73-3.3-1.06-4.9-1.52-1.28-.37-2.78-.99-4.18-1.02.06-.04.12-.06.18-.1l.69-.47-.08-.75c-.21-1.82-.45-3.65-.63-5.46-.23-2.39-.46-4.78-.67-7.17 1.73-.61 3.44-1.25 5.14-1.93.02.48.05.95.08 1.43l.64-1.71-.04-.77c-.17-3.1-.35-6.2-.53-9.3-.53-8.79-1.22-17.58-2.22-26.33-.4-3.52-.79-7.12-1.7-10.56.52-.35.98-.83 1.38-1.46 1.16-1.87 1.49-4.35 1.69-6.5.23-2.44.12-4.89-.11-7.33-.48-4.98-1.37-10.08-3.03-14.82-1.22-3.5-3.77-7.37-7.58-7.97-.06-.11-.12-.23-.18-.34-.7-1.26-1.77-2.91-3.22-3.41-.01-.25-.02-.5-.04-.75 1.21-.21 2.41-.65 3.5-1.07 1.82-.7 3.56-1.59 5.09-2.8 2.49-1.98 4.4-5.15 5.1-8.4.9.33 2.22-.17 2.91-.84 1.65-1.57 3.16-3.89 3.42-6.18.17-1.51-.35-4.94-2.53-4.65-.09.01-.18.03-.27.05.22-1.25.34-2.54.51-3.79.07-.49.14-.99.18-1.5.23.11.47.19.73.23.97.14 1.16-.51 1.04-1.33-.33-2.13-1.28-4.12-2.64-5.77.37.05.73.09 1.1.11 1.61.09 1.82-1.09 1.65-2.47-.5-4.17-3.76-7.25-7.11-9.42-3.54-2.3-7.6-3.8-11.78-4.41-4.05-.6-8.6-.52-12.47.93-1.9.71-3.66 1.9-4.7 3.68-.96 1.66-.95 3.49-.58 5.28-2.24 1.05-3.41 3.84-4.08 6.06-.49 1.62-.78 3.29-.97 4.96-.19 1.79-.41 3.68-.31 5.47-1.32-.23-2.14 2.6-2.38 3.5-.49 1.87-.48 3.99.23 5.81.4 1.02 1.38 2.05 2.46 1.84-.16 4.05.51 8.73 2.97 11.85 1.43 1.81 4.03 2.24 6.18 2.64 1.97.37 4.16.68 6.23.51l-.12.99c-.68-.15-1.17.39-1.62.89-.14.16-.28.32-.42.49-4.74.59-7.93 4.27-10.38 8.08-2.84 4.4-5.09 9.2-6.67 14.19-1.37 4.32-2.87 9.63-.19 13.76.85 1.31 1.93 2.14 3.14 2.62-.42 3.09-.67 6.22-.98 9.31-.43 4.27-.8 8.55-1.14 12.83a602.78 602.78 0 0 0-1.48 25.49v.13l-.03.74.66.32c.29.15.59.28.89.42-.33 2.5-.62 5.01-.88 7.53-.23 2.26-.54 4.57-.73 6.88l-.05.63.67.52c.25.18.51.34.78.5-1.26.12-2.6.7-3.7 1.12-1.63.63-3.22 1.4-4.69 2.35-.87.56-2.43 1.39-2.52 2.58-.05.67.46 1.47 1.16 1.32 1.35.28 2.78.26 4.14.28 1.61.02 3.22-.04 4.82-.16 1.68-.13 3.4-.3 5.09-.59l.73-.13.3-.72c.7-1.82.97-3.95.52-5.64.14-.06.27-.12.4-.18l.6-.32.09-.79c.18-1.62.36-3.24.55-4.85.29-2.37.66-4.74 1-7.11 2.48.72 5 1.2 7.55 1.35l.53.03.1-.74c.08-.59.17-1.18.25-1.76.44-3.11.86-6.22 1.29-9.33.35 3.26.77 6.51 1.28 9.75.07.44.14.88.2 1.32l.11.75.68-.05h.04c2.1-.17 4.18-.52 6.23-.99.39 2.22.68 4.46.97 6.69.23 1.79.42 3.61.65 5.43l.06.46.69.13c-.06 1.54.24 3.13.44 4.66l.03.22.06.45.65.14c1.98.36 4.11.27 6.07.34 1.35.05 2.7.1 4.06.14 1.26.05 2.65.27 3.89.03.03-.01.05-.03.07-.05a2.18 2.18 0 0 0 1.61-1.76c.23-1.24-.55-2.22-1.62-2.74M46.56 87.21c-.02-1.61-.01-3.23-.07-4.85.51.42 1.03.82 1.47 1.34.47.57.86 1.2 1.22 1.84l.3.56c.69 1.34 1.24 2.75 1.83 4.13-.44.6-.99 1.13-1.57 1.6-.71.57-1.53.99-2.28 1.5l-.34.24.37.34c.53.48 1.05.96 1.56 1.45.29.29.58.59.87.9-.86.91-1.76 1.72-2.9 2.34-1.24.68-2.56 1.09-3.9 1.49.15-.29.3-.59.44-.88.9-1.84 1.66-3.75 2.24-5.71.62-2.12.78-4.08.76-6.29m-4.09 12.73c-.29-.55-.56-1.11-.79-1.69-.75-1.88-1.11-3.89-1.31-5.89-.13-1.28-.16-2.56-.15-3.84 1.32 1.74 4.42 1.52 5.74-.19-.06 1.63-.24 3.24-.7 4.83a35.92 35.92 0 0 1-2.15 5.58c-.2.41-.42.81-.64 1.2M65.74 62.2c-.27 1.42-1.03 2.7-1.89 3.85-.45.6-.94 1.26-1.52 1.74-.56.46-1.46.75-2.1.44.1-.58.16-1.15.17-1.72 0-.14-.19-.15-.23-.03-.17.41-.31.84-.44 1.26l-.21.69-.24.84c-1.59 1.48-3.6 2.48-5.74 2.85.01-.4.01-.8.01-1.18-.01-1.21-.06-2.41-.16-3.62a.09.09 0 0 0 .06-.06c.81-1.8 2.04-3.21 3.46-4.57.91-.87 1.86-1.7 2.9-2.37.06.18.12.36.2.54.01.02.02.04.04.06-.1.27-.17.54-.23.81-.04.2.23.27.3.08.52-1.4 1.55-2.97 2.96-3.61 2.59-1.19 2.95 2.48 2.66 4m-24.03 4.12c-1.09.04-2.22.08-3.36.08.06-.61.05-1.23.16-1.85.16-.87.45-1.71.84-2.5.64-1.31 1.59-2.38 2.46-3.54.06-.09-.06-.22-.15-.15-1.26.95-2.26 2.32-2.93 3.75-.57 1.22-1.1 2.91-.79 4.29-2.51-.02-5.06-.24-7.36-1.11l-.35-.14-.14.39c-.06.18-.11.36-.17.53-.38-1.4-1.07-2.78-1.59-4.12-.57-1.43-1.13-2.87-1.85-4.23-.01-.02-.03-.03-.04-.04l-.03-.06c.06-.47.12-.94.19-1.41.17.04.35.07.51.11.52.12 1.04.27 1.57.32-.09.38-.15.75-.16 1.1-.1 3.01 2.52 5.92 5.62 5.57 2.89-.33 4.82-2.33 5.13-5.16 1.65-1.1 4.48-2.42 5.95-.27.07.1.26.04.22-.09-.83-2.57-4.54-1.79-6.12-.23.06-2.72-1.52-5.82-4.64-5.47-.09.01-.09.14 0 .14 2.94.06 4.36 3.01 4.18 5.62-.19 2.75-2 4.69-4.74 5.01-3.01.36-5.4-2.59-5.11-5.46.27-2.67 2.19-4.62 4.78-5.05.12-.02.07-.18-.03-.19-2.37-.29-4.26 1.85-4.95 4.05-.54-.19-1.13-.28-1.7-.38-.15-.03-.29-.05-.44-.08.38-2.53.95-4.99 1.94-7.39.86-2.1 1.82-4.39 3.27-6.22 1.03 3.15 3.94 5.53 7.37 5.62 1.52.04 3-.41 2.84-2.16 2.44 1.79 5.42 2.91 8.38 3.22 1.64.17 3.99-.14 4.29-2.17.04-.26.02-.51-.04-.75 1.66.63 3.49.88 5.22.65-.51 2-.78 4.11-.9 6.12-.09 1.53-.09 3.19.11 4.8l-.99.06c-.82.05-1.68.07-2.49.25 0-.73-.1-1.43-.33-2.03-.97-2.56-3.86-3.35-6.23-2.3-.12.05-.03.25.09.21 2.27-.73 4.81-.01 5.67 2.4.2.56.28 1.22.26 1.9a.16.16 0 0 0-.01.15c-.11 1.85-1.04 3.8-2.79 4.21-2.05.48-4.87-.6-5.61-2.66-.76-2.12.18-4.94 2.25-5.92.12-.06.03-.24-.09-.21-2.53.66-3.35 4.38-2.49 6.55.9 2.27 4.14 3.37 6.38 2.67 1.8-.56 2.75-2.57 2.89-4.51.9.04 1.82-.11 2.71-.17.29-.02.57-.04.86-.05.09.57.22 1.14.38 1.68-1.19.65-2.28 1.77-3.12 2.56-1.09 1.03-2.71 2.46-3.19 4.04-.05-.53-.11-1.06-.18-1.6m-28.1-13.69c.16-1.63.4-3.25.79-4.84.66-2.66 1.69-5.22 3.91-6.83l.39-.27-.07-.47c-.22-1.6-.28-3.19.54-4.68.86-1.56 2.33-2.66 3.94-3.35 3.29-1.42 7.22-1.61 10.75-1.33 3.52.28 7.01 1.2 10.2 2.71 3.15 1.49 6.34 3.55 8.38 6.43.63.88 1.13 1.86 1.46 2.88.13.41.24.82.31 1.25.05.29.16.73.11 1.02-.06.37-.49 1.02-.88 1.15-.46.15-1.3-.11-1.75-.18l-.15-.03-.66-.12c-.24-.05-.47-.1-.71-.16l1.24.77c.91 1.1 1.64 2.34 2.15 3.68.14.38.27.76.37 1.15.09.32.42 1.25.3 1.55-.2.47-.71.36-1.26.04l-.5-.33-.06.57c-.09.88-.2 1.76-.34 2.64-.17 1-.41 2.08-.35 3.11-.87.34-1.62 1.02-2.19 1.82-.26.04-.52.12-.77.23-.08-.49-.16-.98-.23-1.47.4-.03.79-.08 1.17-.18.12-.03.14-.24 0-.26-.41-.08-.83-.1-1.25-.1-.22-1.63-.35-3.26-.24-4.97.13-2.05.54-4.03.93-6.02l.12-.62-.57.11c-1.08.17-2.17.19-3.29-.02-.91-.17-1.72-.51-2.5-.89l-1.42-.76 1.09 1.32c.32.62.35 1.26-.22 1.88-1.3 1.43-4.01.71-5.62.29-2.32-.6-4.37-1.69-6.24-3.07l-.9-.7.42 1.09c.21.86.14 1.79-.91 2.03-.87.2-1.89.09-2.74-.11-2.77-.64-4.68-2.69-5.61-5.23L32 41.3l-.29.28c-1.66 1.68-2.61 4.11-3.51 6.22-1.05 2.47-1.82 5.16-2.11 7.87-.22-.02-.44-.04-.66-.01-.08.01-.13.12-.05.17.21.11.44.19.67.26-.03.29-.05.58-.07.87-.34-.52-.81-1.18-1.32-1.49.23-1.48.21-2.99.36-4.46m.02 15.25l-.04-.57c-.03-.39-.05-.77-.09-1.16a.105.105 0 0 0-.21 0c-.05.43-.08.87-.11 1.32-1.7.48-2.32-2.32-2.44-3.58-.11-1.23.02-2.48.39-3.67.19-.61.44-1.2.75-1.75.24-.43.27-.61.78-.69.52-.09.58.09.91.45.37.42.69.86.97 1.32v.02c0 .1.06.16.13.19.26.44.49.9.72 1.38.35 1.01.74 2.01 1.13 3 .55 1.4 1 2.95 1.78 4.24-.33 1.19-.56 2.4-.71 3.63-.08.69-.17 1.41-.23 2.16-.56-.91-1.34-1.7-2-2.54-.74-.96-1.32-1.94-1.7-3.09l-.03-.66m9.26 14.09c-2.33-.4-5.12-.82-6.54-2.9-1.84-2.71-2.32-5.83-2.57-8.99.21.5.5.97.82 1.42.79 1.11 1.68 2.35 2.74 3.2-.03.76-.03 1.52.07 2.25l.1.63.63.47c1.19.77 2.69 1.1 4.07 1.37 2.73.53 5.51.91 8.3.81 3.5-.13 7.11-.94 10.33-2.46l.73-.36.22-.7c.21-.83.3-1.71.33-2.57 1.13.19 2.31-.41 3.3-.91.82-.43 1.61-.95 2.24-1.62-.22.71-.46 1.41-.78 2.09-.82 1.74-1.96 3.27-3.44 4.49-2.36 1.96-5.4 3.25-8.45 3.93l-.4.09c-.66.14-1.33.24-1.99.32-.14.02-.2.24-.04.26.65.11 1.32.1 2 .02-.08 2.04.03 4.1 0 6.15-.69.95-1.5 1.74-2.75 1.82-1.27.08-2.13-.59-3-1.38.05-2.13.2-4.26.24-6.4.42-.05.84-.12 1.24-.22.16-.04.11-.25-.04-.27-.4-.04-.8-.07-1.2-.09l-.43-.03c-1.91-.09-3.82-.09-5.73-.42m3.79 3.88c.04-.03.07-.07.09-.12.46-.6 1.01-1.16 1.6-1.29-.34 3.38-.31 6.89.09 10.19a20.91 20.91 0 0 0 2.25 7.28c-3 .68-5.53-1.55-7.03-4.07.29-.64.58-1.29.97-1.89.37-.58.84-1.11 1.25-1.68l.34-.5-.34-.24c-.3-.2-.62-.38-.93-.55-.61-.34-1.24-.69-1.89-.99.42-.96.86-1.92 1.39-2.83.43-.74.89-1.46 1.39-2.16.22-.3.5-.73.82-1.15m-15.81 36.73c-3.88-3.38-2.64-9.13-1.38-13.42 1.33-4.55 3.2-8.93 5.57-13.03 2.45-4.25 5.69-9.21 10.87-10.14-.41.53-.8 1.07-1.16 1.63-.84 1.27-1.64 2.67-2.22 4.13l-.19.5.5.28c.56.3 1.13.57 1.68.87.34.19.67.4.99.61-.81.97-1.64 1.99-2.22 3.11l-.25.55.37.75c1.51 2.68 4.69 4.98 7.56 3.97l.03.06c-.1.93-.02 1.88-.03 2.81-.01 1.05-.13 2.15.05 3.19.02.1.15.08.18 0 .36-.99.37-2.15.37-3.19 0-.96.01-1.96-.22-2.89l.02-.03c2.69-.47 5.79-1.79 7.48-4.07l.32-.47-.31-.31c-.29-.29-.6-.57-.89-.85-.48-.45-.97-.89-1.48-1.31.95-.49 1.85-1.19 2.6-1.87.38-.34.71-.71 1-1.1l.32-.52-.17-.56c-.38-1.16-.88-2.29-1.44-3.37 3.24.98 5.38 4.11 6.52 7.3 1.46 4.08 2.29 8.47 2.83 12.77.54 4.26.82 8.69-.25 12.89-.38 1.5-.95 2.83-2.02 3.69l-.49.33c-.41.24-.88.42-1.43.53-2.12.42-4.24-.41-6.18-1.16-2.35-.91-4.68-1.86-6.98-2.89-.81-.36-1.59-.75-2.34-1.19.03-.02.05-.03.08-.05 1.95-1.26 3.7-2.73 5.66-3.95.73.06 1.46.11 2.19.16l.59.04c.91.07 1.83.13 2.73.22.91.09 1.83.19 2.74.3l.7.08.03-.58c.09-1.96.09-3.93.1-5.85.04-4.57.02-9.17-.37-13.73-.02-.17-.27-.18-.27 0-.02 4.5.11 9.01.06 13.51-.02 2.01-.1 4.01-.22 6-.78-.07-1.57-.13-2.34-.21l-.91-.09c.04-1.62-.04-3.4-1.11-4.71-1.23-1.5-2.8-1.31-4.53-1.56h-.01c-.24-.31-.48-.61-.72-.91l-.43-.49-.49.11c-1.26.3-2.51.64-3.76 1-.04-.01-.08.01-.11.03-1.5.43-2.98.89-4.44 1.36-.22.07-.44.14-.65.21.17-.53.32-1.06.43-1.58.19-.93.05-1.85-.4-2.69-1.03-1.91-3.35-2.96-5.33-3.71.51-2.68 1.23-5.34 2.02-7.95.03-.1-.12-.16-.16-.07-1.1 2.53-1.83 5.13-2.34 7.84-1.13-.43-3.91-1.69-3.39.63.2.89.98 1.49 1.75 1.87.01 0 .02.01.02.01-.34.16-.63.51-.85.77-.34.39-.73.87-.94 1.38-.17.08-.34.17-.5.28-.52.37-1.13 1.06-1.09 1.76.01.14.05.26.1.37-.47.57-.68 1.4-.77 2.09-.03.26-.11.59.08.8.2.23.55.26.83.2.27.69 1.4.88 2.5.87-1.35.56-2.68 1.16-3.97 1.83-.15.08-.05.34.12.28 3.71-1.34 7.34-2.86 11.07-4.15l.61-.2c.39-.13.79-.26 1.18-.39 1.47-.47 2.95-.89 4.43-1.29.93.98 1.58 2.38 2.02 3.6.46 1.3.53 2.61.74 3.94-.36.28-.72.55-1.07.82-.7.52-1.42 1-2.16 1.46l-.58.36c-.99.58-2.01 1.09-3.07 1.55-3.16 1.35-7.81 3.21-11.37 2l-.55-.21c-.54-.25-1.03-.56-1.49-.96m19.81-9.79c-.33-.77-.93-2.2-1.75-2.91 1.14-.3 2.28-.6 3.42-.89.84 1.08 1.63 2.19 2.3 3.39.61 1.09 1.08 2.21 1.53 3.35l-1.07-.09c.1-.05.19-.11.29-.16.16-.09.05-.35-.13-.3-.35.11-.69.24-1.02.4l-.99.52c-.58.35-1.14.74-1.68 1.15.13-1.5-.33-3.13-.9-4.46m3.28-2.54c.2.08.41.12.66.15.98.11 1.85.21 2.62.89 1.32 1.17 1.42 3.03 1.38 4.67l-1.81-.18c-.64-1.92-1.64-3.83-2.85-5.53m-20.82 2.06c.12-.52.77-1.01 1.19-1.28 1.47-.95 3.32-.92 4.84-1.72.11-.06.05-.22-.06-.22-1.31.01-2.84.45-4.05.91-.39.15-.78.35-1.14.58-.42-.24-1.1-.64-1.14-1.15-.03-.39.69-.97.96-1.14.06-.04.13-.06.19-.09h.01c.6-.31 1.29-.43 1.95-.54 1.57-.26 3.25-.33 4.78-.8.15-.05.11-.25-.04-.26-.56-.06-1.13-.04-1.71 0-1.15-.84-2.53-1.11-3.71-1.9-.38-.26-1.66-1.57-.66-2.04.18-.09.88.26 1.11.33 1.02.33 2.02.73 2.99 1.18 1.67.79 3.7 1.82 4.23 3.76.3 1.1-.11 2.22-.49 3.33-1.98.64-3.97 1.32-5.93 2.07-.68-.07-1.37-.05-2.06-.1-.74-.02-1.47.02-1.26-.92m-.56-.27c-.12.24-.17.45-.18.63-.17-.06-.33-.12-.37-.36-.04-.25.11-.68.18-.92.1-.35.25-.68.39-1.02.25.23.59.4.92.52-.39.31-.72.69-.94 1.15m2-4.76c.07-.11.13-.21.21-.31.31-.41.79-1.12 1.34-1.18.04 0 .08-.02.11-.04.63.31 1.26.62 1.88.94-.54.07-1.09.16-1.62.24-.63.1-1.29.18-1.92.35m.58 86.36c-.14.66-.35 1.29-.59 1.91-1.85.32-3.71.62-5.6.76-1.53.11-3.07.16-4.61.16-1.38-.01-2.78-.16-4.16-.09-.58-.2-.69-.54-.55-.91 2.21.36 4.55.17 6.77 0 2.23-.17 4.76-.2 6.91-.88.11-.04.09-.19-.03-.2-2.25-.14-4.63.43-6.88.61-2.22.17-4.44.11-6.66.24.43-.71 1.55-1.5 1.96-1.75.96-.6 1.96-1.14 2.98-1.63 1.05-.5 2.14-.92 3.24-1.28.58-.19 1.21-.32 1.82-.5 0 .02.01.04.03.06.74.65 1.91 1.16 2.84 1.46.81.27 1.86.45 2.71.18-.01.61-.06 1.23-.18 1.86m.18-2.36c-1.08-.14-2.09-.06-3.16-.53-.66-.3-1.29-.68-2.01-.8.18-.06.35-.13.52-.21.62.28 1.28.47 1.97.55.92.11 1.83-.03 2.69-.33-.01.44 0 .88-.01 1.32m1.6-8.07c-.24 1.86-.45 3.72-.64 5.58v.03c-1.1.58-2.24 1.01-3.61.86-1.31-.15-2.42-.71-3.44-1.44.21-2.32.32-4.66.54-6.96.25-2.59.51-5.19.77-7.78 1.95.9 3.94 1.7 5.95 2.4.44.15.89.3 1.34.44-.35 2.29-.62 4.59-.91 6.87M48 174.51c-1.17.27-2.35.49-3.54.67-.91.13-1.82.23-2.72.3-.05-.27-.1-.54-.14-.82-.68-4.23-1.24-8.47-1.67-12.73-.04-.4-.56-.39-.61 0-.42 3.12-.84 6.25-1.25 9.38-.19 1.4-.37 2.81-.56 4.21-2.54-.14-5.06-.57-7.55-1.31l-.58-.18c-2.52-.78-4.95-1.76-7.33-2.86l-.37-.17c-.32-.15-.64-.3-.95-.45.13-3.79.28-7.57.5-11.36.48-8.5 1.1-16.99 1.9-25.46.34-3.68.83-7.37 1.14-11.07 2.49.74 5.44.17 8.02-.66 2.43-.77 4.81-1.75 6.99-3.07.64.39 1.31.73 1.99 1.05 2.16 1.02 4.38 1.92 6.6 2.8 2.62 1.04 6.43 2.55 9.13 1.22.69 3.02 1.08 6.08 1.43 9.17.49 4.34.91 8.69 1.27 13.04.67 7.98 1.14 15.97 1.55 23.97-1.13.45-2.27.88-3.41 1.3-.58.21-1.17.42-1.76.63l-.43.15c-2.38.83-4.8 1.57-7.25 2.15l-.4.1zm2.46 12.96c-.25-1.95-.57-3.9-.83-5.83-.3-2.18-.62-4.36-1.07-6.51 2.42-.57 4.8-1.3 7.14-2.11.15 2.41.33 4.82.54 7.23.17 1.9.31 3.84.51 5.76a8.9 8.9 0 0 1-2.44 1.18c-1.25.37-2.57.44-3.85.28m.36.5c1.76.21 3.58-.06 5.17-.8.16.04.33.09.49.13-.85.34-1.59.91-2.43 1.29-.18.08-2.22.89-2.9 1.06-.08-.57-.18-1.13-.33-1.68m14.46 5.5c-1.05-.2-2.22-.11-3.27-.15l-4.06-.15c-2.13-.08-4.25-.16-6.37-.32-.02-.12-.04-.24-.06-.35-.12-.8-.2-1.62-.31-2.44 1.87-.06 4.45-1.14 5.53-2.57.03-.04.03-.09.01-.13 1.92.52 3.85 1.03 5.76 1.59 1 .29 2.12.5 3.04 1 .98.53 1.31 1.46 1.07 2.24-2.3-.09-4.62-.04-6.92-.13-2.36-.09-4.71-.28-7.06-.34-.1 0-.13.17-.03.19 2.27.37 4.58.5 6.87.61 2.29.11 4.62.23 6.92.13-.22.37-.6.66-1.12.82"/><path class="pst12" d="M41.86 120.81c.01-.14-.21-.17-.24-.03-.77 3.03-.78 6.32-.77 9.43.01 3.23.2 6.45.16 9.68-.04 3.21-.21 6.42-.46 9.62-.26 3.26-.85 6.53-.97 9.8 0 .15.24.19.27.04.65-3.07.84-6.29 1.18-9.41.35-3.19.61-6.4.66-9.61.05-3.23-.13-6.45-.21-9.68-.1-3.33.08-6.55.38-9.84m14.85 25.39c-1.69-.42-3.53-.5-5.26-.59-1.73-.09-3.55-.19-5.26.16-.15.03-.09.23.03.24 1.72.21 3.49.1 5.22.2 1.74.1 3.46.41 5.19.51.31.03.37-.44.08-.52m.21 5.68c-.04-1.6-.03-3.23-.23-4.82-.02-.19-.28-.2-.3 0-.2 2.27.01 4.56-.04 6.84-.05 2.32-1.29 3.91-3.68 4.04-5.49.3-5.31-7.01-5.57-10.8-.02-.25-.4-.26-.4 0-.04 4.18.08 11.74 5.97 11.46 1.81-.09 3.55-1.06 4.08-2.88.36-1.23.2-2.58.17-3.84m-24.29-6.98c-1.49-.22-3.24.28-4.71.53-.83.14-1.65.29-2.47.46-.68.14-1.69.21-2.26.62-.08.06-.12.13-.09.23l.02.09c.02.07.1.13.17.13.02 0 .05 0 .07-.01.07 0 .15-.08.12-.16.08.21 4.19-.66 4.61-.73 1.46-.24 3.21-.24 4.58-.81.15-.06.12-.33-.04-.35m.06 1.04c-.01-.27-.38-.25-.41 0-.26 2.19-.49 4.37-.99 6.53-.44 1.92-.95 4.64-3.02 5.44-1.2.46-2.38-.07-3.44-.64-.51-.27-1.16-.57-1.45-1.1-.26-.49-.24-1.11-.26-1.65-.1-2.15.21-4.23.27-6.36.01-.19-.28-.22-.32-.04-.35 1.33-.39 2.78-.43 4.14-.03 1.17-.15 2.54.14 3.68.23.91 1 1.36 1.76 1.81.98.57 2.07 1.12 3.24.96 2.06-.27 3.08-2.33 3.62-4.11.84-2.77 1.38-5.76 1.29-8.66m6.04-22.49c-.14-.15-.33.01-.31.18.06.42.16.79.04 1.21-.1.36-.37.79-.81.74-.5-.07-.45-.69-.38-1.06.09-.45.33-.68.8-.65.09.01.17-.12.11-.19-.37-.51-1.08-.11-1.3.34-.29.58-.38 1.55.21 1.98.58.44 1.36.11 1.72-.45.39-.61.44-1.56-.08-2.1m-.33 13.25c-.17-.22-.46.06-.36.28.23.5.11 1.07-.17 1.52-.22.36-1.05 1.17-1.29.35-.25-.86.75-1.73 1.38-2.09.14-.08.04-.27-.11-.25-.79.12-1.43.67-1.74 1.4-.26.61-.24 1.49.45 1.79.72.31 1.41-.27 1.78-.84.45-.67.57-1.5.06-2.16m.13 14.09c-.14-.06-.37.05-.29.23.17.42.12.76-.03 1.17-.11.3-.23.61-.47.83-.21.2-.6.44-.72.01-.1-.37.15-.94.32-1.25.19-.35.51-.6.71-.94.06-.1-.04-.2-.14-.18-.7.1-1.19.96-1.36 1.58-.15.53-.3 1.55.45 1.67.77.12 1.38-.57 1.66-1.2.23-.54.58-1.59-.13-1.92"/><g><path class="pst5" d="M26.4 57.63l-.48.95-.92 7.11.17 2.22.03 1.32 3.78 8.37 9.34 1.57 11.35-.58 6.69-4.61 2.7-3.98.67-2.26-.92-5.3 1.21-1.59-.4-1.14s-.59.28-.86.5c-.5.39-1.04.88-1.04.88l-.86-.38-1.73 1.57-1.74 1.08-1.99.59-2.28-.4-4.21-1.41-2.41-2.64v-1.58h-1.61l-.67 1.03-.71.83-1.25 2.07-1.05 1.69-2.16.8h-3.57l-2.61-1.79-1.4-3.6-1.07-1.32z"/><path class="pst8" d="M57.87 60.97s.19 1.19.2 1.22c.27 1.67-.35 3.21-.94 4.75-.42 1.08-.88 2.15-1.36 3.21-1.08 2.4-2.22 5.06-4.47 6.59-1.19.81-2.51 1.31-3.8 1.92-2.14 1.03-4.97.78-6.94 2.14.35.07.74.07 1.11.1l1.84.38.52.04-.17-.21-.02-.23.91-.07.27-.04.4-.07.78-.15.91-.21.74-.2.69-.21.76-.26 1.26-.5 1.46-.7 1.37-.81 1.22-.85.87-.78.69-.71.49-.58.85-1.2.79-1.45.78-2.09.67-2.26.44-1.26c-.07-1.02-.24-2.03-.31-3.05-.04-.52-.07-1.05-.03-1.57.02-.23.25-.82.18-1.01l-.4-1.14h-1.24l-.52 1.26z"/><path class="pst12" d="M50.37 70.88c-.05-.11-.19-.04-.2.06-.03.32-.03.64-.07.96-2.76 1.56-5.76 3.62-9.05 2.96-.14-.03-.21.15-.1.23 1.45 1.02 3.15.38 4.64-.23 1.53-.63 3.08-1.43 4.39-2.47-.12.34-.3.65-.45.98-.08.17.11.33.26.2.68-.58.97-1.88.58-2.69m-6.77-.32c-1.27.3-3.2.89-4.12-.46-.73-1.08-.08-2.84.2-3.99.59-2.42 1.5-4.7 2.32-7.05.04-.11-.13-.17-.18-.08-.87 1.58-1.48 3.31-2.03 5.02-.48 1.49-1.05 3.1-1.19 4.67-.1 1.12.28 2.14 1.33 2.65 1.25.6 2.63.13 3.81-.41.2-.1.06-.4-.14-.35"/></g></g></svg><svg id="man-status-warning" width="100.98" height="129.99" viewBox="0 0 100.98 129.99" x="533" xmlns="http://www.w3.org/2000/svg"><style>.qst0{clip-path:url(#qSVGID_2_)}.qst1{fill:#fff}.qst2{fill:#b5c4c6}.qst3{fill:#f7ab72}.qst4{fill:#663d29}.qst5{fill:#fcba8d}.qst6{fill:#e18b4a}.qst7{fill:#7bea68}.qst8{fill:#51ad49}.qst9{fill:#7a5433}.qst10{fill:#231f20}.qst11{font-family:'Noteworthy-Light'}.qst12{font-size:20.4334px}</style><defs><path id="qSVGID_1_" d="M-.06-24.72h106.34V130H-.06z"/></defs><clipPath id="qSVGID_2_"><use xlink:href="#qSVGID_1_" overflow="visible"/></clipPath><g class="qst0"><path class="qst1" d="M44.58 114.44l.99-.52c.33-.15.67-.29 1.02-.4.18-.05.29.21.13.3-.1.05-.19.11-.29.16l1.07.09c-.44-1.14-.92-2.27-1.53-3.35-.67-1.21-1.47-2.32-2.3-3.39-1.14.29-2.28.59-3.42.89.82.71 1.43 2.14 1.75 2.92.56 1.33 1.02 2.96.89 4.45.55-.41 1.11-.81 1.69-1.15z"/><path class="qst2" d="M46.88 112.68c-.8-1.63-2.68-1.41-4.16-1.92-.51-.17-.9-.49-1.26-.83.23.45.41.88.55 1.2.56 1.33 1.02 2.96.89 4.45.55-.41 1.1-.8 1.68-1.15l.99-.52c.33-.15.67-.29 1.02-.4.18-.05.29.21.13.3-.1.05-.19.11-.29.16l1.07.09c-.16-.42-.34-.84-.51-1.26-.04-.01-.08-.06-.11-.12z"/><path class="qst3" d="M49.94 114.32c.03-1.65-.06-3.51-1.38-4.68-.77-.68-1.64-.78-2.62-.89-.25-.03-.46-.07-.66-.15 1.21 1.7 2.21 3.6 2.86 5.54l1.8.18z"/><path class="qst1" d="M24.2 122.1c3.56 1.21 8.22-.64 11.38-2 1.06-.46 2.08-.97 3.07-1.55l.58-.36c.74-.45 1.46-.93 2.16-1.46.36-.27.72-.54 1.08-.82-.2-1.34-.27-2.65-.74-3.95-.44-1.22-1.09-2.62-2.02-3.6-1.48.4-2.96.82-4.43 1.29-.4.13-.79.26-1.18.39l-.61.21c-3.73 1.28-7.36 2.81-11.08 4.15-.16.06-.27-.2-.12-.28 1.29-.67 2.62-1.27 3.97-1.83-1.1.01-2.24-.18-2.51-.87-.29.06-.63.03-.83-.2-.19-.21-.12-.54-.08-.8.09-.69.3-1.53.77-2.09-.05-.11-.09-.23-.1-.37-.04-.7.57-1.39 1.09-1.76.16-.11.32-.2.5-.28.21-.51.6-.98.94-1.38.23-.26.52-.61.85-.77-.01 0-.02-.01-.02-.01-.78-.39-1.55-.98-1.76-1.87-.53-2.32 2.26-1.05 3.39-.63.52-2.71 1.24-5.31 2.34-7.84.04-.1.19-.03.16.07-.79 2.62-1.51 5.27-2.02 7.96 1.99.75 4.31 1.8 5.34 3.72.45.84.6 1.76.4 2.69-.11.52-.26 1.05-.43 1.58.22-.07.44-.14.65-.21 1.47-.47 2.95-.93 4.45-1.36.03-.02.07-.04.11-.03 1.25-.36 2.5-.7 3.76-1l.49-.11.43.49c.25.29.49.6.72.91h.01c1.73.25 3.3.06 4.53 1.56 1.07 1.31 1.16 3.09 1.12 4.72l.91.09 2.35.21c.12-1.99.2-3.99.22-6.01.05-4.51-.08-9.01-.06-13.52 0-.18.26-.17.27 0 .39 4.56.41 9.16.37 13.74-.02 1.92-.01 3.89-.1 5.85l-.03.59-.7-.08c-.92-.11-1.83-.22-2.75-.3-.91-.09-1.82-.16-2.73-.22l-.59-.04c-.73-.05-1.46-.1-2.19-.16-1.96 1.23-3.71 2.69-5.66 3.96-.03.02-.05.03-.08.05.75.43 1.53.82 2.34 1.19 2.3 1.03 4.64 1.99 6.99 2.9 1.94.75 4.07 1.58 6.19 1.16a4.57 4.57 0 0 0 1.43-.53l.49-.33c1.08-.86 1.64-2.2 2.02-3.69 1.07-4.2.79-8.64.25-12.9-.54-4.29-1.37-8.69-2.83-12.78-1.14-3.2-3.29-6.32-6.53-7.31.56 1.08 1.06 2.21 1.44 3.37l.17.56-.32.52c-.28.39-.62.76-1 1.1-.75.68-1.65 1.38-2.6 1.87.51.42 1 .86 1.48 1.31.29.28.59.56.89.85l.31.31-.32.47c-1.69 2.29-4.8 3.6-7.49 4.07l-.02.03c.24.94.23 1.94.22 2.9-.01 1.04-.01 2.2-.37 3.19-.03.08-.17.1-.18 0-.18-1.04-.06-2.14-.05-3.19.01-.93-.07-1.88.03-2.81l-.03-.06c-2.87 1-6.05-1.29-7.57-3.98l-.37-.75.25-.55c.57-1.12 1.4-2.15 2.22-3.12-.32-.21-.65-.42-.99-.61-.55-.3-1.12-.57-1.68-.87l-.5-.28.19-.5c.58-1.46 1.38-2.86 2.22-4.13.37-.56.76-1.1 1.17-1.63-5.18.93-8.42 5.89-10.87 10.14a59.086 59.086 0 0 0-5.57 13.04c-1.25 4.29-2.5 10.05 1.38 13.43.46.4.96.71 1.48.95l.54.19z"/><path class="qst2" d="M41.73 111.96c-.12-.34-.26-.68-.41-1.03-.45 5.57-7.42 7.5-12.47 8.08-2.32.26-5.51.64-7.18-1.4-1.71-2.1.65-4.13 2.62-4.56.08-.02.15-.01.21.01.58-.26 1.17-.52 1.76-.77-1.1.01-2.24-.18-2.51-.87-.29.06-.63.03-.83-.2-.19-.21-.12-.54-.08-.8.01-.04.01-.08.02-.12-.43.74-.87 1.47-1.48 2.1-.12.12-.35.17-.49.06-.47-.35-.79-.82-.99-1.36-.66 3.54-.6 7.34 2.27 9.84.46.4.96.71 1.48.95l.55.21c3.56 1.21 8.22-.64 11.38-2 1.06-.46 2.08-.97 3.07-1.55l.58-.36c.74-.45 1.46-.93 2.16-1.46.36-.27.72-.54 1.08-.82-.2-1.33-.27-2.65-.74-3.95zm14.57 8.41c-1.84 1.54-4.48 1.36-6.54.39-1.35-.64-2.83-1.51-3.68-2.79-.85-1.27-.79-2.15-.34-3.44-.07-.01-.14-.01-.2-.02-1.96 1.23-3.71 2.69-5.66 3.96-.03.02-.05.03-.08.05.75.43 1.53.82 2.34 1.19 2.3 1.03 4.64 1.99 6.99 2.9 1.94.75 4.07 1.58 6.19 1.16a4.57 4.57 0 0 0 1.43-.53l.49-.33c1.08-.86 1.64-2.2 2.02-3.69.56-2.21.75-4.47.72-6.75-.36 3.06-1.34 5.95-3.68 7.9zm-27.32-18.93c.77.29 1.59.63 2.37 1.04-.22-.9-.42-1.8-.53-2.72-.23-1.8-.1-3.59-.07-5.4-.69 2.34-1.31 4.7-1.77 7.08z"/><path class="qst2" d="M50.56 113.22c.02.39.01.78 0 1.16l.91.09 2.35.21c.12-1.99.2-3.99.22-6.01.02-2.16.01-4.32-.02-6.49-.16 1.73-.41 3.45-.81 5.12-.49 2.09-1.17 4.34-2.65 5.92z"/><path class="qst4" d="M23.93 190.01c-.93-.31-2.1-.81-2.84-1.46-.02-.02-.03-.04-.03-.06-.61.18-1.24.31-1.82.5a27.4 27.4 0 0 0-3.25 1.28 26.95 26.95 0 0 0-2.98 1.63c-.41.26-1.53 1.04-1.96 1.75 2.22-.13 4.44-.07 6.66-.24 2.25-.17 4.64-.75 6.89-.61.11.01.14.16.03.2-2.15.68-4.68.71-6.91.88-2.22.17-4.56.36-6.78 0-.13.37-.02.71.55.91 1.38-.07 2.79.09 4.16.09 1.54.01 3.08-.04 4.61-.16 1.89-.14 3.75-.44 5.6-.76.24-.62.45-1.25.59-1.91.13-.63.17-1.25.18-1.86-.84.27-1.88.09-2.7-.18z"/><path class="qst1" d="M35.79 87.49c-.53.92-.97 1.87-1.39 2.84.65.3 1.29.65 1.89.99.32.18.63.36.93.55l.34.24-.34.5c-.41.56-.88 1.09-1.26 1.68-.38.6-.68 1.25-.97 1.89 1.49 2.52 4.03 4.75 7.03 4.07a20.857 20.857 0 0 1-2.26-7.28c-.4-3.3-.43-6.81-.09-10.2-.58.13-1.13.69-1.6 1.29-.02.05-.05.09-.09.12-.32.42-.6.85-.81 1.15-.49.69-.95 1.42-1.38 2.16z"/><path class="qst3" d="M25.69 111.6c.69.04 1.38.03 2.06.1 1.96-.75 3.95-1.43 5.93-2.07.37-1.12.79-2.23.49-3.33-.53-1.94-2.56-2.98-4.23-3.76-.97-.45-1.97-.85-2.99-1.18-.23-.08-.93-.42-1.11-.33-1 .47.28 1.78.66 2.04 1.17.79 2.56 1.07 3.71 1.9.57-.05 1.15-.06 1.71 0 .15.01.19.22.04.26-1.53.47-3.21.53-4.78.8-.66.11-1.34.24-1.95.54h-.01c-.06.03-.13.06-.19.09-.27.16-.99.74-.96 1.14.04.51.72.91 1.14 1.15.36-.24.75-.43 1.15-.58 1.22-.46 2.75-.9 4.06-.91.12 0 .17.17.06.22-1.52.8-3.38.78-4.85 1.72-.42.27-1.07.76-1.19 1.28-.21.91.52.87 1.25.92z"/><path class="qst3" d="M24.81 109.23c-.33-.12-.67-.29-.92-.52-.13.34-.29.67-.39 1.02-.07.24-.22.68-.18.93.04.24.2.3.37.36.01-.19.07-.4.18-.64.24-.45.56-.83.94-1.15zm4.62-4.2c-.62-.33-1.25-.63-1.88-.94-.03.02-.06.04-.11.04-.55.06-1.04.77-1.34 1.18-.07.1-.14.2-.21.31.63-.18 1.29-.26 1.92-.35.53-.08 1.07-.16 1.62-.24z"/><path class="qst1" d="M34.77 58.08c.06-.16.11-.31.15-.47.09-.33.49-1.84-.23-1.53-.14.18-.25.42-.35.65-.01.3-.02.61.07.89.08.23.2.35.36.46zm16.19 0c.06-.16.11-.31.15-.47.09-.33.49-1.84-.23-1.53-.14.18-.25.42-.35.65-.01.3-.02.61.07.89.08.23.2.35.36.46z"/><path class="qst3" d="M53.03 64.64c.07.53.13 1.06.18 1.6.48-1.58 2.11-3.02 3.2-4.05.83-.79 1.93-1.91 3.12-2.56-.16-.55-.29-1.11-.38-1.68-.29.01-.58.03-.86.05-.89.07-1.82.21-2.72.17-.14 1.95-1.1 3.95-2.89 4.51-2.24.7-5.49-.4-6.39-2.67-.86-2.17-.04-5.89 2.49-6.56.12-.03.21.15.09.21-2.07.98-3 3.8-2.25 5.92.74 2.06 3.56 3.15 5.61 2.66 1.75-.41 2.68-2.36 2.79-4.21-.02-.04-.02-.1.01-.14.02-.68-.06-1.34-.26-1.9-.86-2.41-3.4-3.14-5.67-2.4-.13.04-.21-.16-.09-.21 2.37-1.05 5.27-.27 6.24 2.3.23.6.33 1.3.33 2.03.81-.18 1.67-.21 2.49-.26l.99-.06c-.21-1.61-.2-3.27-.11-4.8.12-2.01.38-4.12.9-6.12-1.74.23-3.56-.01-5.22-.65.06.24.08.49.04.75-.3 2.03-2.65 2.34-4.3 2.17-2.96-.31-5.95-1.42-8.39-3.22.16 1.75-1.32 2.2-2.84 2.16-3.44-.09-6.35-2.47-7.38-5.62-1.45 1.83-2.41 4.12-3.28 6.22-.99 2.41-1.56 4.87-1.94 7.4.15.03.3.06.44.08.56.1 1.16.19 1.7.38.69-2.2 2.58-4.35 4.96-4.05.1.01.15.17.03.19-2.59.44-4.51 2.39-4.78 5.06-.29 2.87 2.11 5.82 5.12 5.46 2.75-.32 4.56-2.26 4.75-5.01.18-2.61-1.24-5.56-4.18-5.62-.09 0-.09-.13 0-.14 3.12-.35 4.71 2.75 4.64 5.47 1.58-1.57 5.29-2.34 6.13.23.04.13-.14.19-.22.09-1.47-2.14-4.3-.82-5.95.27-.31 2.83-2.25 4.83-5.13 5.17-3.11.36-5.73-2.56-5.63-5.57.01-.36.07-.73.16-1.11-.53-.06-1.06-.2-1.58-.32-.17-.04-.34-.08-.52-.11-.07.47-.13.94-.19 1.41l.03.06c.02.01.03.02.04.04.72 1.36 1.29 2.8 1.86 4.23.53 1.34 1.22 2.72 1.6 4.12.06-.18.11-.36.17-.53l.14-.39.35.14c2.31.87 4.85 1.09 7.37 1.11-.31-1.39.23-3.08.79-4.3.66-1.43 1.66-2.8 2.93-3.75.09-.07.22.06.15.15-.87 1.16-1.82 2.23-2.46 3.54-.39.79-.68 1.63-.84 2.51-.11.62-.1 1.24-.16 1.85 1.14 0 2.27-.04 3.36-.08 3.79-.14 7.43-.77 11-1.92l.34-.11.07.41zm-3.23-7.33c.09-.29.81-2.06 1.38-1.82.09-.02.19-.01.28.04.37.19.37.84.34 1.18-.07.8-.41 2.72-1.37 2.96-1.27.32-.8-1.79-.63-2.36zm2.86-8.23c1.18-.07 2.01 1.32 1.76 2.38-.05.21-.33.22-.44.06-.22-.35-.24-.75-.44-1.11-.33-.58-.88-.64-1.44-.36-.7.35-1.22.83-1.78 1.35-.11.12-.39.07-.36-.13.12-1.07 1.7-2.13 2.7-2.19zm-17.67 6.41c.09-.02.19-.01.28.04.37.19.37.84.34 1.18-.07.8-.41 2.72-1.37 2.96-1.27.32-.8-1.79-.63-2.36.09-.29.81-2.06 1.38-1.82zm2.54-4.89c-.03.15-.27.18-.34.04-.48-.97-.98-1.85-2.24-1.77-.91.06-1.56.65-2.19 1.24-.09.09-.3.03-.28-.12.28-2.75 5.62-2.31 5.05.61z"/><path class="qst5" d="M28.89 57.34c-.29 2.87 2.11 5.82 5.12 5.46 2.75-.32 4.56-2.26 4.75-5.01.18-2.55-1.18-5.41-3.98-5.6-.72.08-1.42.38-2.14.37-2.06.71-3.52 2.47-3.75 4.78zm4.73-.03c.09-.29.81-2.06 1.38-1.82.09-.02.19-.01.28.04.37.19.37.84.34 1.18-.07.8-.41 2.72-1.37 2.96-1.28.32-.81-1.79-.63-2.36zm21.16-1.32c-.86-2.41-3.4-3.14-5.67-2.4-.04.01-.07 0-.1-.02-.03.01-.06.03-.09.04-.01.03-.02.05-.05.07-2.07.98-3 3.8-2.25 5.92.74 2.06 3.56 3.15 5.61 2.66 1.75-.41 2.68-2.36 2.79-4.21-.02-.06-.02-.12.01-.16.03-.68-.06-1.35-.25-1.9zm-2.98.72c-.07.8-.41 2.72-1.37 2.96-1.27.32-.8-1.79-.63-2.36.09-.29.81-2.06 1.38-1.82.09-.02.19-.01.28.04.38.18.37.83.34 1.18z"/><path class="qst6" d="M59.15 57.95c-.29.01-.58.03-.86.05-.41.03-.82.08-1.23.11.02.16.03.32.06.48.05.4.31 1.46.69 2.31.54-.47 1.12-.93 1.73-1.26-.18-.55-.3-1.12-.39-1.69zM31.06 47.23c.12-.09.29-.06.41 0 .77.38 1.55.78 2.33 1.14 1.35-.53 3.3-.05 3.7 1.29 1.72.32 3.47.15 5.23-1 .15-.1.37-.06.49.06 1.73 1.79 4.24 2.6 6.74 2.55v-.01c.12-1.06 1.7-2.12 2.7-2.18.74-.05 1.35.49 1.63 1.16.3-.15.6-.3.88-.48.18-.11.46-.05.55.14 1.21 2.4 1.05 5.01 1.26 7.61.36-.03.73-.05 1.08-.07l.99-.06c-.21-1.61-.2-3.27-.11-4.8.12-2.01.38-4.12.9-6.12-1.74.23-3.56-.01-5.22-.65.06.24.08.49.04.75-.3 2.03-2.65 2.34-4.3 2.17-2.96-.31-5.95-1.42-8.39-3.22.16 1.75-1.32 2.2-2.84 2.16-3.44-.09-6.35-2.47-7.38-5.62-1.45 1.83-2.41 4.12-3.28 6.22-.27.67-.51 1.34-.73 2.02.97-1.14 2.11-2.15 3.32-3.06z"/><path class="qst3" d="M52.1 50.04c-.63.32-1.12.74-1.62 1.21 1.07-.07 2.14-.31 3.12-.7-.02-.05-.04-.1-.06-.14-.32-.59-.88-.65-1.44-.37zm-17.15-1.17c.48.19.95.37 1.43.51-.34-.34-.78-.55-1.43-.51z"/><path class="qst7" d="M38.19 66.81c-.04.08-.14.06-.19 0-1.22-.02-2.45-.09-3.66-.21-1.37-.14-2.75-.4-4-.96-1.02 3.22-1.59 6.83-1.03 10.12 1.56 1.06 3.47 1.36 5.39 1.68 2.54.43 5.1.7 7.67.55 3.53-.21 6.82-1.17 9.96-2.59.4-1.62.58-3.21.57-4.96-.01-1.89-.11-3.77-.25-5.65-3.54 1.4-7.46 1.87-11.23 1.99-1.07.03-2.15.04-3.23.03zm13.93 6.51c-3.44 1.34-7.29 1.92-10.96 2.13-1.92.11-3.85.11-5.77-.04-1.54-.12-3.05-.35-4.4-1.14-.15-.09-.02-.29.13-.22 3.09 1.41 7.14 1.12 10.45.89 3.59-.25 6.99-1.07 10.47-1.9.19-.04.25.21.08.28zm.19-2.93c-3.04 1.29-6.57 1.52-9.82 1.73-3.47.23-7.05.57-10.42-.46-.13-.04-.08-.23.06-.21 3.33.69 6.79.38 10.16.17 3.39-.22 6.62-.78 9.94-1.44.11-.02.21.16.08.21zM49.15 68c-2.81.95-5.89 1.29-8.85 1.43-2.65.12-5.66.3-8.12-.84-.13-.06-.04-.27.1-.23 5.51 1.48 11.32.3 16.82-.54.12-.03.17.14.05.18z"/><path class="qst8" d="M52.21 73.21c-.01.03-.02.06-.05.08-.73 1.11-1.81 2-3.29 2.53-3.3 1.18-8.75 2.74-11.98.52-.26-.18-.28-.67.1-.74.18-.03.37-.06.56-.08-.72-.02-1.44-.05-2.16-.1-1.54-.12-3.05-.35-4.4-1.14-.15-.09-.02-.29.13-.22 2.69 1.22 6.1 1.17 9.13.98.13-.04.26-.09.39-.14-1.75-.03-3.46-.35-5.19-.76-1.28-.31-2.8-.59-3.84-1.46-1.74-1.46-1.97-3.31-1.76-5.25-.69 2.74-.99 5.65-.53 8.34 1.56 1.06 3.47 1.36 5.39 1.68 2.54.43 5.1.7 7.67.55 3.53-.21 6.82-1.17 9.96-2.59.29-1.19.47-2.37.54-3.6-.17.49-.39.96-.67 1.4z"/><path class="qst3" d="M28.68 72.47c.05-.74.14-1.47.23-2.16.15-1.23.38-2.44.71-3.63-.79-1.29-1.24-2.84-1.79-4.24-.39-1-.78-1.99-1.13-3-.23-.47-.46-.93-.72-1.38-.07-.02-.13-.08-.13-.19v-.02c-.29-.46-.6-.9-.97-1.32-.32-.36-.38-.54-.91-.45-.51.08-.54.26-.78.69a9.32 9.32 0 0 0-.75 1.75c-.37 1.18-.5 2.43-.39 3.67.11 1.26.74 4.06 2.44 3.58.03-.45.06-.89.11-1.32.01-.14.2-.14.21 0l.09 1.16.04.58c.01.21.03.43.04.64.38 1.15.96 2.13 1.7 3.09.65.85 1.43 1.64 2 2.55zM24.8 63.4c-.03.1-.17.07-.17-.02-.07-1.11.02-2.23-.1-3.34-.02-.2-.02-.95-.42-.68-.16.11-.26.67-.32.84-.11.36-.17.69-.37 1.01-.08.13-.28.11-.32-.04-.21-.73.36-3.29 1.56-2.53.49.31.39 1.09.39 1.58.01 1.06.01 2.15-.25 3.18z"/><path class="qst3" d="M40.38 80.75c.4.02.8.05 1.2.09.14.01.2.23.04.27-.4.1-.82.17-1.24.22-.04 2.14-.19 4.27-.24 6.4.87.79 1.74 1.46 3 1.38 1.26-.08 2.06-.87 2.75-1.82.03-2.05-.08-4.11 0-6.15-.67.09-1.34.09-2-.02-.16-.03-.1-.25.04-.27.66-.08 1.32-.19 1.99-.32l.38-.08c3.06-.67 6.1-1.97 8.46-3.93 1.48-1.23 2.62-2.76 3.44-4.5.32-.68.56-1.39.78-2.1-.63.67-1.42 1.19-2.24 1.62-.98.51-2.17 1.11-3.3.91-.03.86-.12 1.74-.33 2.57l-.22.7-.73.36c-3.23 1.52-6.84 2.33-10.34 2.46-2.79.11-5.57-.28-8.3-.81-1.38-.27-2.88-.6-4.07-1.37l-.63-.47-.1-.63c-.1-.74-.1-1.5-.07-2.26-1.06-.86-1.95-2.09-2.74-3.21-.32-.45-.6-.93-.82-1.43.25 3.16.73 6.28 2.57 8.99 1.42 2.09 4.22 2.5 6.54 2.9 1.92.33 3.83.33 5.75.43l.43.07z"/><path class="qst3" d="M40.33 82.72c-.06 1.67-.16 3.34-.2 5.01.62.57 1.25 1.07 2.02 1.28.42-2.6-.04-6.16-1.82-6.29z"/><path class="qst6" d="M45.89 81.14c-.67.09-1.34.09-2-.02-.16-.03-.1-.25.04-.27.33-.04.66-.09 1-.14-1.09.11-2.18.17-3.27.17.08.07.08.2-.04.23-.4.1-.82.17-1.24.22 0 .18-.01.36-.02.54 2.4 0 3.09 4.15 2.6 7.24.06 0 .12.01.18 0 1.26-.08 2.06-.87 2.75-1.82.03-2.05-.08-4.11 0-6.15z"/><path class="qst3" d="M36.53 80.5c-2.21-.33-5.25-.82-7.77-1.97 1.51 1.12 3.61 1.44 5.43 1.76 1.05.18 2.1.26 3.14.32-.26-.04-.53-.07-.8-.11z"/><path class="qst9" d="M25.88 56.87c.01-.29.04-.58.07-.87-.23-.07-.46-.14-.67-.26-.09-.05-.04-.16.05-.17.22-.02.44-.01.66.01.29-2.71 1.07-5.4 2.11-7.87.9-2.12 1.85-4.54 3.51-6.23l.29-.28.17.48c.93 2.54 2.84 4.59 5.61 5.23.85.2 1.87.3 2.74.11 1.04-.24 1.12-1.17.91-2.03l-.43-1.09.9.7c1.87 1.38 3.93 2.47 6.25 3.07 1.61.42 4.32 1.14 5.62-.29.56-.62.54-1.26.22-1.88l-1.09-1.32 1.42.76c.78.39 1.59.72 2.5.9 1.12.21 2.22.19 3.3.02l.57-.11-.12.62c-.38 1.99-.8 3.97-.93 6.02-.11 1.71.02 3.34.24 4.98.42 0 .84.02 1.25.1.14.02.12.23 0 .26-.38.1-.78.15-1.17.18.07.49.15.98.23 1.47.25-.1.51-.18.77-.23.57-.8 1.32-1.48 2.19-1.82-.05-1.03.19-2.11.35-3.11.15-.88.25-1.76.34-2.64l.06-.57.5.33c.55.31 1.06.43 1.26-.04.13-.3-.21-1.23-.3-1.55-.1-.39-.23-.78-.37-1.15-.5-1.34-1.24-2.58-2.15-3.68l-1.24-.77c.23.06.47.11.71.16l.66.12.15.03c.45.07 1.3.33 1.75.18.39-.13.81-.79.88-1.15.05-.29-.06-.73-.11-1.02-.07-.42-.18-.84-.31-1.25-.33-1.03-.84-2.01-1.46-2.89-2.05-2.88-5.24-4.94-8.39-6.43-3.2-1.51-6.69-2.43-10.21-2.71-3.53-.28-7.47-.09-10.76 1.33-1.61.69-3.08 1.79-3.94 3.35-.82 1.49-.76 3.08-.54 4.68l.07.47-.39.27c-2.22 1.61-3.25 4.17-3.91 6.83-.39 1.59-.63 3.22-.79 4.85-.15 1.48-.13 2.99-.37 4.45.53.27.99.93 1.34 1.45z"/><path class="qst4" d="M62.88 44.4l.15.03c.45.07 1.3.33 1.75.18.39-.13.81-.79.88-1.15.05-.29-.06-.73-.11-1.02-.07-.42-.18-.84-.31-1.25-.12-.36-.26-.72-.42-1.07-.06 1.1-.63 2.02-2.11 2.39-4.68 1.15-9.71-1.36-13.91-3.3.16 4.35-6.63 1.21-9.28-.83-.25 2.61-3.85 1.96-5.46.14-1.73-1.95-2.23-4.55-1.61-6.89-.79.6-1.48 1.33-1.96 2.21-.82 1.49-.76 3.08-.54 4.68l.07.47-.39.27c-2.22 1.61-3.25 4.17-3.91 6.83-.39 1.59-.63 3.22-.79 4.85-.15 1.48-.13 2.99-.37 4.45.52.32.98.98 1.33 1.5.01-.29.04-.58.07-.87-.23-.07-.46-.14-.67-.26-.09-.05-.04-.16.05-.17.22-.02.44-.01.66.01.29-2.71 1.07-5.4 2.11-7.87.9-2.12 1.85-4.54 3.51-6.23l.29-.28.17.48c.93 2.54 2.84 4.59 5.61 5.23.85.2 1.87.3 2.74.11 1.04-.24 1.12-1.17.91-2.03l-.44-1.11.9.7c1.87 1.38 3.93 2.47 6.25 3.07 1.61.42 4.32 1.14 5.62-.29.56-.62.54-1.26.22-1.88l-1.09-1.32 1.42.76c.78.39 1.59.72 2.5.9 1.12.21 2.22.19 3.3.02l.57-.11-.12.62c-.38 1.99-.8 3.97-.93 6.02-.11 1.71.02 3.34.24 4.98.42 0 .84.02 1.25.1.14.02.12.23 0 .26-.38.1-.78.15-1.17.18.07.49.15.98.23 1.47.25-.1.51-.18.77-.23.57-.8 1.32-1.48 2.19-1.82-.05-1.03.19-2.11.35-3.11.15-.88.25-1.76.34-2.64l.06-.57.5.33c.55.31 1.06.43 1.26-.04.13-.3-.21-1.23-.3-1.55-.1-.39-.23-.78-.37-1.15-.5-1.34-1.24-2.58-2.15-3.68l-1.24-.77c.23.06.47.11.71.16l.67.09z"/><path class="qst3" d="M23.96 188.69c-.69-.08-1.34-.27-1.97-.55-.17.08-.34.15-.52.21.72.12 1.35.51 2.02.8 1.07.48 2.08.39 3.16.53v-1.33c-.86.31-1.77.45-2.69.34zm32.44-1.37c-.16-.04-.33-.09-.49-.13-1.59.74-3.41 1.01-5.17.8.14.55.25 1.11.33 1.68.68-.17 2.73-.98 2.9-1.06.84-.38 1.59-.95 2.43-1.29z"/><path class="qst4" d="M65.49 189.99c-.92-.5-2.05-.71-3.05-1-1.92-.56-3.84-1.07-5.77-1.59.02.04.02.09-.01.13-1.08 1.43-3.67 2.51-5.54 2.57.11.82.19 1.64.31 2.44.02.12.04.24.06.35 2.12.16 4.25.24 6.38.32l4.06.15c1.06.04 2.22-.05 3.28.15.52-.16.89-.45 1.13-.81-2.29.11-4.63-.01-6.92-.13-2.3-.11-4.61-.25-6.88-.61-.11-.02-.08-.19.03-.19 2.36.05 4.71.25 7.07.34 2.31.08 4.62.04 6.93.13.23-.79-.1-1.72-1.08-2.25z"/><path class="qst7" d="M54.23 187.21c.9-.27 1.71-.68 2.44-1.18-.2-1.92-.34-3.86-.51-5.76-.22-2.41-.39-4.82-.55-7.23-2.35.81-4.73 1.54-7.15 2.11.45 2.15.77 4.33 1.07 6.51.26 1.93.58 3.88.83 5.84 1.3.16 2.61.09 3.87-.29z"/><path class="qst1" d="M43.46 99.18c-.14.29-.29.58-.44.88 1.34-.41 2.66-.81 3.91-1.5 1.14-.63 2.04-1.44 2.9-2.35-.29-.31-.57-.61-.87-.9-.51-.5-1.04-.97-1.56-1.45l-.37-.34.34-.24c.75-.51 1.57-.93 2.28-1.5.58-.47 1.13-1 1.57-1.6-.59-1.39-1.14-2.79-1.83-4.14l-.3-.56c-.36-.65-.75-1.28-1.22-1.84-.44-.52-.96-.92-1.47-1.34.06 1.62.05 3.24.07 4.85.02 2.21-.14 4.17-.77 6.3-.58 1.97-1.34 3.89-2.24 5.73zM56 172.12c.59-.21 1.18-.42 1.76-.63 1.14-.42 2.28-.85 3.41-1.3-.41-8-.88-16-1.55-23.99-.36-4.36-.79-8.71-1.28-13.05-.35-3.09-.74-6.16-1.43-9.18-2.7 1.34-6.52-.17-9.14-1.22-2.22-.88-4.44-1.79-6.61-2.8-.68-.32-1.35-.67-1.99-1.05-2.19 1.32-4.57 2.3-7 3.07-2.59.83-5.53 1.4-8.03.66-.32 3.7-.8 7.39-1.14 11.07-.8 8.48-1.42 16.98-1.9 25.48-.21 3.79-.36 7.58-.5 11.37l.96.45.37.17a60.96 60.96 0 0 0 7.34 2.86l.58.18c2.5.74 5.02 1.17 7.56 1.31.18-1.4.37-2.81.56-4.21l1.26-9.38c.05-.39.57-.4.61 0 .43 4.26.99 8.51 1.67 12.74.04.27.09.54.14.82.91-.06 1.81-.16 2.72-.3 1.19-.18 2.37-.41 3.54-.67l.4-.1c2.46-.58 4.87-1.33 7.26-2.15l.43-.15zM31.31 154.6c-.53 1.78-1.56 3.84-3.62 4.11-1.17.15-2.27-.39-3.24-.96-.76-.45-1.53-.9-1.77-1.81-.3-1.14-.18-2.51-.14-3.69.04-1.37.08-2.82.43-4.14.05-.18.33-.14.32.04-.06 2.13-.38 4.22-.27 6.36.03.54 0 1.16.26 1.65.28.53.94.83 1.45 1.1 1.06.57 2.24 1.1 3.44.64 2.08-.8 2.58-3.52 3.02-5.44.5-2.16.73-4.34.99-6.53.03-.25.4-.27.41 0 .1 2.9-.44 5.9-1.28 8.67zm1.27-9.35c-1.37.58-3.12.58-4.58.81-.42.07-4.54.94-4.62.73.03.08-.05.15-.12.16-.02 0-.05 0-.07.01-.07 0-.15-.06-.17-.13l-.02-.09c-.02-.1.02-.17.09-.23.57-.41 1.58-.49 2.26-.62.82-.17 1.65-.32 2.48-.46 1.47-.25 3.22-.76 4.71-.53.15.02.18.28.04.35zm3.44-7.35c.31-.74.95-1.29 1.74-1.41.14-.02.25.17.11.25-.64.36-1.63 1.23-1.38 2.09.23.82 1.06 0 1.29-.35.28-.45.4-1.02.17-1.52-.1-.22.19-.49.36-.28.51.66.39 1.49-.04 2.17-.37.57-1.06 1.15-1.78.84-.71-.29-.72-1.18-.47-1.79zm2.55 14.8c-.28.63-.89 1.31-1.66 1.2-.75-.11-.6-1.14-.45-1.67.18-.61.67-1.48 1.36-1.58.1-.02.2.08.14.18-.19.34-.51.59-.71.94-.17.31-.42.88-.32 1.25.12.43.51.19.72-.01.23-.23.36-.54.47-.83.15-.42.2-.76.03-1.17-.07-.18.16-.29.29-.23.71.34.36 1.39.13 1.92zm.15-27.18c-.36.56-1.14.88-1.72.45-.58-.43-.5-1.4-.21-1.98.22-.45.93-.84 1.3-.34.06.08-.02.2-.11.19-.46-.04-.71.19-.8.65-.07.37-.12 1 .38 1.07.44.06.71-.37.81-.74.12-.42.02-.8-.04-1.21-.02-.17.17-.33.31-.18.52.54.47 1.49.08 2.09zm2.66 5.1c.09 3.23.26 6.45.21 9.68-.05 3.22-.31 6.42-.66 9.62-.34 3.11-.54 6.35-1.18 9.41-.03.16-.28.12-.27-.04.11-3.26.71-6.54.97-9.8.25-3.2.43-6.41.47-9.62.04-3.23-.15-6.46-.16-9.69-.01-3.11.01-6.4.77-9.44.03-.13.26-.11.24.03-.3 3.31-.48 6.53-.39 9.85zm4.72 15.15c1.7-.35 3.53-.25 5.26-.16s3.58.17 5.27.59c.29.07.23.54-.07.53-1.73-.1-3.46-.4-5.2-.51-1.73-.1-3.5 0-5.23-.2-.12-.02-.18-.22-.03-.25zm.52 1.36c0-.26.38-.25.4 0 .26 3.79.08 11.11 5.57 10.81 2.4-.13 3.63-1.73 3.68-4.04.05-2.28-.16-4.57.04-6.84.02-.2.28-.19.3 0 .2 1.59.18 3.22.23 4.82.03 1.26.19 2.61-.17 3.84-.52 1.82-2.27 2.79-4.08 2.88-5.89.28-6.01-7.28-5.97-11.47z"/><path class="qst2" d="M37.56 125.55c.44.06.71-.37.81-.74.09-.33.05-.63 0-.94-.1-.03-.2-.05-.31-.07-.02.02-.05.04-.09.04-.46-.04-.71.19-.8.65-.06.37-.11 1 .39 1.06z"/><path class="qst2" d="M59.62 146.2c-.36-4.36-.79-8.71-1.28-13.05-.35-3.09-.74-6.16-1.43-9.18-2.7 1.34-6.52-.17-9.14-1.22-2.22-.88-4.44-1.79-6.61-2.8-.68-.32-1.35-.67-1.99-1.05-2.19 1.32-4.57 2.3-7 3.07-2.59.83-5.53 1.4-8.03.66v.03c1.17.56 2.21 1.21 3.61 1.31 1.46.1 2.79.03 4.2-.38 1.86-.55 3.9-1.34 5.82-.64 0 0 .01 0 .01.01.04-.01.09-.01.14-.01 1.01.16 1.88.55 2.79.96.1-.18.2-.33.31-.47.11-.92.27-1.82.49-2.71.03-.13.26-.11.24.03l-.18 2.18c.95-.54 2.17-.03 3.4.66 3.57 2.01 6.79 3.62 11.01 2.86.23-.04.41.06.5.28 1.23 3.27.94 7.39.96 10.83.02 2.86.7 6.49-.56 9.16-.05.11-.13.17-.22.19.15 1.08.23 2.4.13 3.71l.03 1.23c.03 1.26.19 2.61-.17 3.84-.22.75-.64 1.35-1.19 1.81.67-.21 1.32-.36 2.01.19.9.71.75 2.88.7 3.85-.17 3.63-1.64 6.15-4.84 8.01-2.67 1.55-7 3.2-9.9 1.2-1.32-.91-2.34-2.25-3.04-3.75.32 2.56.68 5.11 1.09 7.66.04.27.09.54.14.82.91-.06 1.81-.16 2.72-.3 1.19-.18 2.37-.41 3.54-.67l.4-.1c2.46-.58 4.87-1.33 7.26-2.15l.43-.15c.59-.21 1.18-.42 1.76-.63 1.14-.42 2.28-.85 3.41-1.3-.38-8-.85-16-1.52-23.99z"/><path class="qst2" d="M35.44 169.23c-2.23 1.25-4.92.78-7.18-.21-3.68-1.63-6.03-5.6-7.16-9.65-.21 3.73-.35 7.46-.49 11.18l.96.45.37.17a60.96 60.96 0 0 0 7.34 2.86l.58.18c2.5.74 5.02 1.17 7.56 1.31.18-1.4.37-2.81.56-4.21.26-1.96.52-3.93.79-5.89-.77 1.56-1.86 2.99-3.33 3.81zm-8.79-14.87c-2.01.12-2.96-1.55-3.54-3.35-.08 1.16-.15 2.32-.1 3.5.03.54 0 1.16.26 1.65.28.53.94.83 1.45 1.1 1.06.57 2.24 1.1 3.44.64 2.08-.8 2.58-3.52 3.02-5.44.19-.81.33-1.64.46-2.46-1.11 2.24-2.85 4.24-4.99 4.36zm11.49-3.47c-.03-.01-.07-.02-.1-.04-.03-.01-.05-.02-.08-.03v.01c-.19.34-.51.59-.71.94-.17.31-.42.88-.32 1.25.12.43.51.19.72-.01.23-.23.36-.54.47-.83.15-.42.2-.76.03-1.17a.17.17 0 0 1-.01-.12zm-.21-14.09c-.03-.02-.05-.03-.07-.05-.64.36-1.61 1.23-1.37 2.08.23.82 1.06 0 1.29-.35.28-.45.4-1.02.17-1.52a.226.226 0 0 1-.02-.16zm16.4 19.05c-1.9 1.03-4.51.94-6.02-.54.77 1.63 2.06 2.76 4.29 2.64 2.4-.13 3.63-1.73 3.68-4.04v-.56c-.39 1.07-1.01 1.98-1.95 2.5z"/><path class="qst7" d="M21.87 171.9c-.26 2.6-.52 5.19-.77 7.79-.22 2.3-.34 4.64-.54 6.96 1.02.73 2.13 1.29 3.44 1.44 1.37.15 2.51-.28 3.61-.86v-.03c.19-1.86.4-3.72.64-5.58.29-2.28.56-4.58.91-6.87-.45-.14-.89-.28-1.34-.44-2-.7-4-1.51-5.95-2.41z"/><path class="qst8" d="M51.22 182.73c-.31-1.9-.49-4.39.66-6.07.97-1.41 2.32-2.3 3.77-3.09-.01-.18-.03-.35-.04-.53-2.35.81-4.73 1.54-7.15 2.11.45 2.15.77 4.33 1.07 6.51.26 1.93.58 3.88.83 5.84 1.29.17 2.6.09 3.86-.28.25-.07.48-.16.71-.25-1.85-.33-3.29-1.69-3.71-4.24zm-23.39-8.42c-2.01-.7-4.01-1.5-5.96-2.4-.01.13-.03.26-.04.39 1.56 1.35 3.1 2.69 4.01 4.58.96 2.01.86 4.5.66 6.65-.19 2.03-1.6 3.75-3.34 4.4.27.07.55.13.84.16 1.37.15 2.51-.28 3.61-.86v-.03c.19-1.86.4-3.72.64-5.58.29-2.28.56-4.58.91-6.87-.44-.15-.88-.29-1.33-.44z"/><path class="qst3" d="M60.05 61.72c-.07.19-.34.12-.3-.08.05-.26.13-.53.23-.81-.01-.01-.03-.03-.04-.06-.07-.17-.13-.36-.2-.54-1.05.68-2 1.5-2.9 2.37-1.42 1.36-2.66 2.77-3.47 4.58-.01.03-.04.05-.06.06.09 1.2.15 2.41.16 3.62 0 .38 0 .78-.01 1.18 2.14-.37 4.15-1.36 5.75-2.85l.24-.84.21-.69c.13-.42.28-.85.44-1.26.05-.12.24-.11.23.03-.01.57-.07 1.14-.17 1.72.64.32 1.54.02 2.1-.44.58-.48 1.07-1.14 1.52-1.74.86-1.15 1.62-2.43 1.89-3.85.29-1.52-.07-5.2-2.66-4.02-1.41.65-2.44 2.22-2.96 3.62zm3.85.87c-.07.08-.18.02-.21-.06-.17-.43-.04-1.2-.54-1.44-.53-.26-.81.42-1 .79-.44.86-.66 1.77-.93 2.69-.04.12-.22.1-.22-.03.01-.94.27-1.86.63-2.73.21-.5.43-1.17.98-1.41 1.25-.54 2.02 1.32 1.29 2.19z"/><path class="qst8" d="M45.87 88.29c-1.32 1.71-4.43 1.93-5.74.19-.01 1.28.02 2.56.15 3.84.2 2 .56 4.01 1.31 5.89.23.58.5 1.14.79 1.69.22-.39.44-.79.63-1.2.87-1.8 1.59-3.67 2.15-5.58.47-1.59.65-3.2.71-4.83z"/><path class="qst10" d="M24.66 58.64c-1.2-.76-1.77 1.8-1.56 2.53.04.15.24.17.32.04.2-.32.26-.65.37-1.01.05-.17.15-.74.32-.84.4-.27.4.49.42.68.12 1.11.03 2.23.1 3.34.01.1.15.12.17.02.26-1.04.26-2.12.25-3.19 0-.48.1-1.26-.39-1.57M62.6 60.4c-.55.23-.78.9-.98 1.41-.35.87-.61 1.79-.63 2.73 0 .13.18.15.22.03.27-.92.49-1.83.93-2.69.19-.37.47-1.05 1-.79.5.25.37 1.01.54 1.44.03.08.14.14.21.06.74-.87-.03-2.73-1.29-2.19m-13.5 7.41c-5.5.84-11.31 2.03-16.82.54-.13-.04-.23.17-.1.23 2.46 1.14 5.48.96 8.12.84 2.95-.14 6.03-.48 8.85-1.43.12-.03.07-.2-.05-.18m3.13 2.38c-3.32.66-6.55 1.23-9.94 1.44-3.37.21-6.83.52-10.16-.17-.14-.03-.19.17-.06.21 3.37 1.03 6.95.69 10.42.46 3.25-.21 6.79-.44 9.82-1.73.13-.06.03-.24-.08-.21m-.19 2.85c-3.48.83-6.88 1.65-10.47 1.9-3.31.23-7.36.52-10.45-.89-.15-.07-.28.14-.13.22 1.35.79 2.86 1.02 4.4 1.14 1.92.15 3.85.15 5.77.04 3.67-.22 7.52-.79 10.96-2.13.17-.07.11-.32-.08-.28M32.48 50c-.01.15.19.21.28.12.63-.59 1.28-1.18 2.19-1.24 1.26-.08 1.76.8 2.24 1.77.07.14.31.11.34-.04.57-2.93-4.77-3.37-5.05-.61m20.18-.92c-1 .06-2.58 1.12-2.7 2.18-.02.2.25.25.36.13.56-.53 1.08-1.01 1.78-1.35.56-.28 1.11-.21 1.44.36.2.36.21.76.44 1.11.11.16.39.15.44-.06.25-1.06-.58-2.45-1.76-2.37m-17.39 6.44a.46.46 0 0 0-.28-.04c-.57-.24-1.29 1.53-1.38 1.82-.17.57-.64 2.68.63 2.36.96-.24 1.3-2.16 1.37-2.96.03-.34.04-.99-.34-1.18m-.35 2.08c-.04.16-.1.32-.15.47a.815.815 0 0 1-.35-.45c-.09-.28-.08-.59-.07-.89.09-.23.21-.47.35-.65.72-.31.31 1.19.22 1.52m16.54-2.08a.46.46 0 0 0-.28-.04c-.57-.24-1.29 1.53-1.38 1.82-.17.57-.64 2.68.63 2.36.96-.24 1.3-2.16 1.37-2.96.03-.34.04-.99-.34-1.18m-.35 2.08c-.04.16-.1.32-.15.47a.815.815 0 0 1-.35-.45c-.09-.28-.08-.59-.07-.89.09-.23.21-.47.35-.65.72-.31.31 1.19.22 1.52"/><path class="qst10" d="M65.66 189.39c-1.51-.73-3.3-1.06-4.9-1.52-1.28-.37-2.78-.99-4.19-1.02.06-.04.12-.06.19-.1l.69-.47-.08-.75c-.21-1.83-.45-3.65-.63-5.47-.23-2.39-.46-4.78-.67-7.17 1.73-.61 3.44-1.25 5.15-1.93.02.48.05.95.08 1.43l.64-1.71-.04-.77c-.17-3.11-.35-6.21-.53-9.31-.53-8.8-1.22-17.59-2.22-26.35-.4-3.53-.79-7.12-1.7-10.57.52-.35.98-.83 1.38-1.46 1.16-1.87 1.49-4.35 1.69-6.5.23-2.44.12-4.9-.11-7.33-.48-4.98-1.37-10.09-3.03-14.83-1.22-3.5-3.77-7.37-7.59-7.98-.06-.11-.12-.23-.18-.34-.7-1.26-1.77-2.91-3.22-3.41-.01-.25-.02-.5-.04-.75 1.21-.21 2.41-.65 3.5-1.07 1.82-.7 3.57-1.59 5.09-2.81 2.5-1.98 4.4-5.16 5.1-8.4.91.33 2.22-.17 2.92-.84 1.65-1.57 3.16-3.9 3.42-6.19.17-1.51-.35-4.94-2.53-4.66-.09.01-.18.03-.27.05.22-1.25.34-2.54.51-3.79.07-.49.14-.99.18-1.5.23.11.47.19.73.23.97.14 1.16-.51 1.04-1.33-.33-2.14-1.28-4.12-2.64-5.77.37.05.73.09 1.1.11 1.61.09 1.82-1.09 1.65-2.47-.5-4.17-3.76-7.26-7.11-9.43-3.55-2.3-7.61-3.8-11.78-4.42-4.05-.6-8.61-.52-12.48.93-1.9.71-3.66 1.9-4.7 3.69-.96 1.66-.95 3.49-.58 5.28-2.24 1.05-3.41 3.84-4.08 6.07-.49 1.62-.78 3.29-.97 4.97-.19 1.79-.41 3.68-.31 5.48-1.33-.23-2.14 2.61-2.38 3.51-.49 1.88-.48 4 .23 5.82.4 1.02 1.38 2.05 2.46 1.84-.16 4.06.51 8.74 2.98 11.86 1.43 1.82 4.03 2.24 6.18 2.64 1.97.37 4.16.68 6.24.51l-.12.99c-.68-.15-1.18.39-1.62.89-.14.16-.28.32-.42.49-4.74.59-7.94 4.27-10.39 8.08-2.84 4.41-5.09 9.2-6.68 14.2-1.37 4.32-2.87 9.63-.19 13.77.85 1.31 1.93 2.14 3.14 2.62-.42 3.09-.67 6.22-.98 9.32-.43 4.27-.8 8.55-1.14 12.84-.67 8.49-1.18 17-1.48 25.51v.13l-.03.74.66.33c.29.15.59.28.89.42-.33 2.51-.62 5.02-.88 7.53-.23 2.27-.54 4.58-.73 6.88l-.05.63.67.52c.25.18.51.34.78.5-1.26.12-2.61.7-3.7 1.12-1.64.63-3.22 1.4-4.7 2.35-.88.56-2.43 1.39-2.52 2.58-.05.67.46 1.47 1.17 1.32 1.35.28 2.78.26 4.14.28 1.61.02 3.22-.04 4.82-.16 1.68-.13 3.4-.3 5.09-.59l.73-.13.31-.72c.7-1.82.98-3.96.52-5.65.14-.06.27-.12.4-.18l.6-.32.09-.79c.18-1.62.36-3.24.55-4.86.29-2.38.66-4.75 1-7.12 2.48.72 5 1.2 7.56 1.35l.53.03.1-.74c.08-.59.17-1.18.25-1.76.44-3.11.86-6.23 1.29-9.34.35 3.26.78 6.52 1.28 9.76.07.44.14.88.2 1.32l.11.75.68-.05h.04c2.1-.17 4.18-.52 6.23-.99.39 2.22.68 4.46.97 6.7.23 1.79.42 3.62.65 5.43l.06.46.69.13c-.06 1.54.24 3.13.44 4.66l.03.22.06.45.65.14c1.98.36 4.11.27 6.08.34 1.35.05 2.71.1 4.06.14 1.26.05 2.66.27 3.89.03.03-.01.05-.03.07-.05.82-.22 1.47-.87 1.61-1.77.2-1.23-.59-2.21-1.65-2.73M46.47 87.16c-.02-1.61-.01-3.23-.07-4.85.51.42 1.03.82 1.47 1.34.47.57.86 1.2 1.22 1.84l.3.56c.69 1.34 1.24 2.75 1.83 4.14-.44.6-.99 1.13-1.57 1.6-.71.57-1.53.99-2.28 1.5l-.34.24.37.34c.53.48 1.05.96 1.56 1.45.3.29.58.59.87.9-.86.91-1.76 1.72-2.9 2.35-1.24.68-2.57 1.09-3.91 1.5.15-.29.3-.59.44-.88.9-1.84 1.66-3.75 2.24-5.72.63-2.14.79-4.1.77-6.31M42.38 99.9c-.29-.55-.56-1.11-.79-1.69-.75-1.88-1.11-3.89-1.31-5.89-.13-1.28-.16-2.56-.15-3.84 1.32 1.74 4.42 1.52 5.74-.19-.06 1.63-.24 3.24-.7 4.83-.56 1.92-1.28 3.79-2.15 5.58-.2.41-.42.81-.64 1.2m23.29-37.77c-.27 1.42-1.03 2.7-1.89 3.85-.45.6-.94 1.26-1.52 1.74-.56.46-1.46.75-2.1.44.1-.58.16-1.15.17-1.72 0-.14-.19-.15-.23-.03-.17.41-.31.84-.44 1.26l-.21.69-.24.84a11.236 11.236 0 0 1-5.75 2.85c.01-.4.01-.8.01-1.18-.01-1.21-.06-2.42-.16-3.62a.09.09 0 0 0 .06-.06c.81-1.8 2.04-3.22 3.47-4.58.91-.87 1.86-1.7 2.9-2.37.06.18.12.36.2.54.01.02.02.04.04.06-.1.27-.17.54-.23.81-.04.2.23.27.3.08.52-1.4 1.55-2.97 2.96-3.61 2.59-1.19 2.95 2.49 2.66 4.01m-13.05 2.2a40.436 40.436 0 0 1-11 1.92c-1.09.04-2.22.08-3.36.08.06-.61.05-1.23.16-1.85.16-.87.45-1.71.84-2.51.64-1.31 1.59-2.39 2.46-3.54.06-.09-.06-.22-.15-.15-1.26.95-2.26 2.32-2.93 3.75-.57 1.22-1.1 2.91-.79 4.3-2.52-.02-5.06-.24-7.37-1.11l-.35-.14-.14.39c-.06.18-.11.36-.17.53-.38-1.4-1.07-2.78-1.6-4.12-.57-1.43-1.13-2.87-1.86-4.23-.01-.02-.03-.03-.04-.04l-.03-.06c.06-.47.12-.94.19-1.41.17.04.35.07.52.11.52.12 1.04.27 1.58.32-.09.38-.15.75-.16 1.11-.1 3.02 2.52 5.93 5.63 5.57 2.89-.33 4.82-2.33 5.13-5.17 1.65-1.1 4.48-2.42 5.95-.27.07.1.26.04.22-.09-.83-2.57-4.55-1.8-6.13-.23.06-2.72-1.52-5.82-4.64-5.47-.09.01-.09.14 0 .14 2.94.06 4.36 3.01 4.18 5.62-.19 2.75-2 4.69-4.75 5.01-3.01.36-5.41-2.59-5.12-5.46.27-2.67 2.19-4.62 4.78-5.06.12-.02.07-.18-.03-.19-2.37-.29-4.27 1.85-4.96 4.05-.54-.19-1.14-.28-1.7-.38-.15-.03-.29-.05-.44-.08.38-2.53.95-4.99 1.94-7.4.86-2.1 1.83-4.4 3.28-6.22 1.03 3.15 3.94 5.53 7.38 5.62 1.52.04 3-.41 2.84-2.16 2.44 1.8 5.43 2.91 8.39 3.22 1.64.17 4-.14 4.3-2.17.04-.26.02-.51-.04-.75 1.67.63 3.49.88 5.22.65-.51 2-.78 4.11-.9 6.12-.09 1.53-.09 3.19.11 4.8l-.99.06c-.82.05-1.68.07-2.49.26 0-.73-.1-1.43-.33-2.03-.97-2.56-3.87-3.35-6.24-2.3-.12.05-.03.25.09.21 2.27-.74 4.81-.01 5.67 2.4.2.56.28 1.22.26 1.9a.16.16 0 0 0-.01.15c-.11 1.85-1.04 3.8-2.79 4.21-2.05.48-4.88-.6-5.61-2.66-.76-2.12.18-4.94 2.25-5.92.12-.06.03-.24-.09-.21-2.53.66-3.35 4.39-2.49 6.56.9 2.27 4.14 3.37 6.39 2.67 1.8-.56 2.75-2.57 2.89-4.51.9.04 1.83-.11 2.72-.17.29-.02.57-.04.86-.05.09.57.22 1.14.38 1.68-1.19.65-2.29 1.77-3.12 2.56-1.09 1.03-2.71 2.46-3.2 4.05-.05-.53-.11-1.07-.18-1.6l-.06-.42-.35.11zm.29 6.11c.01 1.75-.18 3.34-.57 4.96-3.14 1.42-6.44 2.39-9.96 2.59-2.58.15-5.14-.13-7.67-.55-1.91-.32-3.83-.62-5.39-1.68-.56-3.28.01-6.89 1.03-10.12 1.25.56 2.63.82 4 .96 1.21.13 2.44.19 3.66.21.05.06.15.08.19 0 1.08.02 2.16 0 3.24-.03 3.77-.12 7.69-.59 11.23-1.99.14 1.88.24 3.76.24 5.65M24.92 50.93c.16-1.63.4-3.26.79-4.85.66-2.66 1.7-5.22 3.91-6.83l.39-.27-.07-.47c-.22-1.6-.28-3.19.54-4.68.86-1.56 2.33-2.66 3.94-3.35 3.29-1.42 7.23-1.61 10.76-1.33 3.52.28 7.01 1.2 10.21 2.71 3.15 1.49 6.34 3.55 8.39 6.43.63.88 1.13 1.86 1.46 2.89.13.41.24.82.31 1.25.05.29.16.73.11 1.02-.06.37-.49 1.03-.88 1.15-.46.15-1.3-.11-1.75-.18l-.15-.03-.66-.12c-.24-.05-.47-.1-.71-.16l1.24.77c.91 1.1 1.64 2.34 2.15 3.68.14.38.27.76.37 1.15.09.32.43 1.25.3 1.55-.2.47-.71.36-1.26.04l-.5-.33-.06.57c-.09.88-.2 1.76-.34 2.64-.17 1-.41 2.08-.35 3.11-.87.34-1.62 1.02-2.19 1.82-.26.04-.52.12-.77.23-.08-.49-.16-.98-.23-1.47.4-.03.79-.08 1.17-.18.12-.03.14-.24 0-.26-.41-.08-.83-.1-1.25-.1-.22-1.63-.35-3.26-.24-4.98.13-2.05.54-4.03.93-6.02l.12-.62-.57.11c-1.08.17-2.17.19-3.3-.02-.91-.17-1.72-.51-2.5-.9l-1.42-.76 1.09 1.32c.32.62.35 1.26-.22 1.88-1.3 1.43-4.01.71-5.62.29-2.32-.6-4.37-1.69-6.25-3.07l-.9-.7.41 1.14c.21.86.14 1.8-.91 2.03-.87.2-1.89.09-2.74-.11-2.78-.64-4.68-2.69-5.61-5.23l-.17-.48-.29.28c-1.66 1.68-2.62 4.11-3.51 6.23-1.05 2.48-1.82 5.16-2.11 7.87-.22-.02-.44-.04-.66-.01-.08.01-.13.12-.05.17.21.11.44.19.67.26-.03.29-.05.58-.07.87-.35-.52-.81-1.18-1.33-1.5.25-1.47.23-2.98.38-4.45m.01 15.27l-.04-.58c-.03-.39-.05-.77-.09-1.16a.105.105 0 0 0-.21 0c-.05.43-.08.87-.11 1.32-1.7.48-2.32-2.33-2.44-3.58-.11-1.24.02-2.49.39-3.67.19-.61.44-1.2.75-1.75.24-.43.27-.61.78-.69.52-.09.59.09.91.45.37.42.69.86.97 1.32v.02c0 .1.06.16.13.19.26.44.5.91.72 1.38.35 1.01.74 2.01 1.13 3 .55 1.4 1 2.95 1.79 4.24-.33 1.19-.56 2.4-.71 3.63-.08.69-.17 1.42-.23 2.16-.56-.91-1.34-1.7-2-2.54-.74-.96-1.32-1.94-1.7-3.09-.01-.23-.02-.44-.04-.65m9.27 14.09c-2.33-.4-5.13-.82-6.54-2.9-1.84-2.71-2.32-5.83-2.57-8.99.21.5.5.97.82 1.43.79 1.11 1.68 2.35 2.74 3.21-.03.76-.03 1.52.07 2.26l.1.63.63.47c1.19.77 2.69 1.1 4.07 1.37 2.73.53 5.51.91 8.3.81 3.5-.13 7.11-.94 10.34-2.46l.73-.36.22-.7c.21-.83.3-1.71.33-2.57 1.13.19 2.32-.41 3.3-.91.82-.43 1.61-.95 2.24-1.62-.22.71-.46 1.41-.78 2.1-.82 1.74-1.96 3.27-3.44 4.5-2.36 1.96-5.41 3.26-8.46 3.93l-.38.08c-.67.14-1.33.24-1.99.32-.14.02-.2.24-.04.27.65.11 1.33.1 2 .02-.08 2.05.03 4.11 0 6.15-.69.95-1.5 1.74-2.75 1.82-1.27.08-2.14-.59-3-1.38.05-2.13.2-4.26.24-6.4.42-.05.84-.12 1.24-.22.16-.04.11-.25-.04-.27-.4-.04-.8-.07-1.2-.09l-.43-.03c-1.92-.14-3.83-.14-5.75-.47m3.79 3.88c.04-.03.07-.07.09-.12.47-.6 1.01-1.16 1.6-1.29-.34 3.39-.31 6.89.09 10.2.32 2.66 1.09 5.04 2.26 7.28-3 .68-5.54-1.55-7.03-4.07.29-.64.58-1.29.97-1.89.37-.58.84-1.12 1.26-1.68l.34-.5-.34-.24c-.3-.2-.62-.38-.93-.55-.61-.34-1.24-.69-1.89-.99.42-.96.86-1.92 1.39-2.84.43-.74.89-1.46 1.4-2.16.2-.29.47-.72.79-1.15m-15.82 36.77c-3.88-3.39-2.64-9.14-1.38-13.43 1.33-4.55 3.2-8.93 5.57-13.04 2.46-4.25 5.7-9.21 10.87-10.14-.41.53-.8 1.08-1.17 1.63-.84 1.27-1.64 2.67-2.22 4.13l-.19.5.5.28c.56.3 1.13.57 1.68.87.34.19.67.4.99.61-.81.97-1.64 1.99-2.22 3.12l-.25.55.37.75c1.52 2.69 4.69 4.98 7.57 3.98l.03.06c-.1.93-.02 1.88-.03 2.81-.01 1.05-.13 2.15.05 3.19.02.1.15.08.18 0 .36-.99.37-2.15.37-3.19 0-.96.01-1.96-.22-2.9l.02-.03c2.69-.47 5.8-1.79 7.49-4.07l.32-.47-.31-.31c-.29-.29-.6-.57-.89-.85-.48-.45-.97-.89-1.48-1.31.95-.49 1.86-1.19 2.6-1.87.38-.34.71-.71 1-1.1l.32-.52-.17-.56c-.38-1.16-.89-2.29-1.44-3.37 3.24.99 5.39 4.11 6.53 7.31 1.46 4.09 2.29 8.48 2.83 12.78.54 4.26.82 8.69-.25 12.9-.38 1.5-.95 2.84-2.02 3.69l-.49.33c-.41.24-.88.42-1.43.53-2.12.42-4.24-.41-6.19-1.16-2.35-.91-4.69-1.86-6.99-2.9-.81-.36-1.59-.75-2.34-1.19.03-.02.05-.03.08-.05 1.95-1.26 3.7-2.73 5.66-3.96.73.06 1.46.11 2.19.16l.59.04c.91.07 1.83.13 2.73.22.91.09 1.83.19 2.75.3l.7.08.03-.59c.09-1.96.09-3.93.1-5.85.04-4.58.02-9.17-.37-13.74-.02-.17-.27-.18-.27 0-.02 4.51.11 9.01.06 13.52-.02 2.02-.1 4.01-.22 6.01-.78-.07-1.57-.13-2.35-.21l-.91-.09c.04-1.62-.04-3.4-1.12-4.72-1.23-1.5-2.8-1.31-4.53-1.56h-.01c-.24-.31-.48-.61-.72-.91l-.43-.49-.49.11c-1.26.3-2.52.64-3.76 1-.04-.01-.08.01-.11.03-1.5.43-2.98.89-4.45 1.36-.22.07-.44.14-.65.21.17-.53.32-1.06.43-1.58.19-.93.05-1.85-.4-2.69-1.03-1.91-3.35-2.96-5.34-3.72.51-2.69 1.23-5.34 2.02-7.96.03-.1-.12-.16-.16-.07-1.1 2.53-1.83 5.13-2.34 7.84-1.13-.43-3.92-1.69-3.39.63.2.89.98 1.49 1.76 1.87.01 0 .02.01.02.01-.34.16-.63.51-.85.77-.34.39-.73.87-.94 1.38-.17.08-.34.17-.5.28-.52.37-1.13 1.06-1.09 1.76.01.14.05.26.1.37-.47.57-.68 1.4-.77 2.09-.03.26-.11.59.08.8.2.23.55.26.83.2.27.69 1.4.88 2.51.87-1.35.56-2.68 1.16-3.97 1.83-.15.08-.05.34.12.28 3.71-1.34 7.34-2.87 11.08-4.15l.61-.21c.39-.13.79-.27 1.18-.39 1.47-.47 2.95-.89 4.43-1.29.93.98 1.59 2.38 2.02 3.6.46 1.3.53 2.61.74 3.95-.36.28-.72.55-1.08.82-.7.52-1.42 1-2.16 1.46l-.58.36c-.99.58-2.01 1.09-3.07 1.55-3.16 1.36-7.82 3.21-11.38 2l-.55-.21a5.67 5.67 0 0 1-1.47-.93m19.83-9.8c-.33-.77-.93-2.2-1.75-2.92 1.14-.3 2.28-.6 3.42-.89.84 1.08 1.63 2.19 2.3 3.39.61 1.09 1.09 2.21 1.53 3.35l-1.07-.09c.1-.05.19-.11.29-.16.16-.09.05-.35-.13-.3-.35.11-.69.24-1.02.4l-.99.52c-.58.35-1.14.74-1.68 1.15.13-1.49-.33-3.12-.9-4.45m3.28-2.54c.2.08.41.12.66.15.98.11 1.85.21 2.62.89 1.32 1.17 1.42 3.03 1.38 4.68l-1.81-.18c-.64-1.94-1.64-3.84-2.85-5.54m-20.84 2.06c.12-.52.77-1.01 1.19-1.28 1.47-.95 3.32-.92 4.85-1.72.11-.06.05-.22-.06-.22-1.31.01-2.84.45-4.06.91-.39.15-.79.35-1.15.58-.42-.24-1.1-.64-1.14-1.15-.03-.4.69-.97.96-1.14.06-.04.13-.06.19-.09h.01c.6-.31 1.29-.43 1.95-.54 1.57-.26 3.25-.33 4.78-.8.15-.05.11-.25-.04-.26-.56-.06-1.13-.04-1.71 0-1.15-.84-2.54-1.11-3.71-1.9-.38-.26-1.66-1.57-.66-2.04.18-.09.88.26 1.11.33 1.02.33 2.02.73 2.99 1.18 1.67.79 3.7 1.82 4.23 3.76.3 1.11-.11 2.22-.49 3.33-1.98.64-3.97 1.32-5.93 2.07-.68-.07-1.37-.05-2.06-.1-.73-.03-1.46.01-1.25-.92m-.55-.28a1.6 1.6 0 0 0-.18.64c-.17-.06-.33-.12-.37-.36-.04-.25.11-.68.18-.93.1-.35.25-.68.39-1.02.25.23.59.4.92.52-.4.32-.72.7-.94 1.15m1.99-4.76c.07-.11.13-.21.21-.31.31-.41.79-1.13 1.34-1.18.04 0 .08-.02.11-.04.63.31 1.26.62 1.88.94-.55.07-1.09.16-1.62.24-.62.1-1.29.18-1.92.35m.58 86.43c-.14.67-.35 1.3-.59 1.91-1.85.32-3.71.62-5.6.76-1.53.11-3.08.16-4.61.16-1.38-.01-2.78-.16-4.16-.09-.58-.2-.69-.54-.55-.91 2.21.36 4.55.17 6.78 0 2.24-.17 4.76-.2 6.91-.88.11-.04.09-.19-.03-.2-2.25-.14-4.64.43-6.89.61-2.22.17-4.44.11-6.66.24.43-.72 1.55-1.5 1.96-1.75.96-.6 1.96-1.14 2.98-1.63 1.05-.5 2.14-.92 3.25-1.28.58-.19 1.21-.32 1.82-.5 0 .02.01.04.03.06.74.65 1.91 1.16 2.84 1.46.81.27 1.86.45 2.71.18-.02.61-.06 1.23-.19 1.86m.19-2.36c-1.08-.14-2.09-.06-3.16-.53-.66-.3-1.3-.69-2.02-.8.18-.06.35-.13.52-.21.62.28 1.28.47 1.97.55.92.11 1.83-.03 2.69-.33v1.32m1.6-8.08c-.24 1.86-.45 3.72-.64 5.58v.03c-1.1.58-2.24 1.01-3.61.86-1.31-.15-2.42-.71-3.44-1.44.21-2.32.32-4.66.54-6.96.25-2.6.51-5.19.77-7.79 1.95.9 3.94 1.7 5.96 2.4.44.15.89.3 1.34.44-.36 2.3-.63 4.6-.92 6.88m19.66-7.09c-1.17.27-2.35.49-3.54.67-.91.13-1.82.23-2.72.3-.05-.27-.1-.54-.14-.82-.68-4.23-1.24-8.48-1.67-12.74-.04-.4-.56-.39-.61 0l-1.26 9.38c-.19 1.4-.37 2.81-.56 4.21-2.54-.14-5.06-.57-7.56-1.31l-.58-.18c-2.52-.78-4.95-1.76-7.34-2.86l-.37-.17-.96-.45c.13-3.79.28-7.58.5-11.37.48-8.5 1.1-17 1.9-25.48.34-3.69.83-7.38 1.14-11.07 2.5.74 5.44.17 8.03-.66 2.43-.78 4.81-1.76 7-3.07.64.39 1.31.74 1.99 1.05 2.16 1.02 4.39 1.92 6.61 2.8 2.62 1.04 6.43 2.56 9.14 1.22.69 3.02 1.08 6.09 1.43 9.18.49 4.34.91 8.69 1.28 13.05.67 7.98 1.14 15.99 1.55 23.99-1.13.45-2.27.88-3.41 1.3-.59.22-1.17.42-1.76.63l-.43.15c-2.38.83-4.8 1.57-7.26 2.15l-.4.1zm2.46 12.97c-.25-1.95-.57-3.9-.83-5.84-.3-2.18-.62-4.36-1.07-6.51 2.42-.57 4.8-1.3 7.15-2.11.15 2.41.33 4.82.55 7.23.17 1.9.31 3.84.51 5.76a8.9 8.9 0 0 1-2.44 1.18c-1.27.39-2.58.46-3.87.29m.37.5c1.77.21 3.58-.06 5.17-.8.16.04.33.09.49.13-.85.34-1.59.91-2.43 1.29-.18.08-2.23.89-2.9 1.06-.08-.57-.18-1.13-.33-1.68m14.47 5.51c-1.06-.2-2.22-.11-3.28-.15l-4.06-.15c-2.13-.08-4.26-.16-6.38-.32-.02-.12-.04-.24-.06-.35-.12-.8-.2-1.63-.31-2.44 1.87-.06 4.46-1.14 5.54-2.57.03-.04.03-.09.01-.13 1.92.52 3.85 1.03 5.77 1.59 1 .29 2.13.5 3.05 1 .98.53 1.31 1.46 1.07 2.25-2.31-.09-4.62-.04-6.93-.13-2.36-.09-4.71-.28-7.07-.34-.1 0-.13.17-.03.19 2.27.37 4.58.5 6.88.61 2.29.11 4.63.23 6.92.13-.23.36-.6.66-1.12.81"/><path class="qst10" d="M41.77 120.78c.01-.14-.21-.17-.24-.03-.77 3.04-.78 6.33-.77 9.44.01 3.23.2 6.46.16 9.69-.04 3.21-.21 6.42-.47 9.62-.26 3.26-.86 6.54-.97 9.8 0 .15.24.19.27.04.65-3.07.84-6.3 1.18-9.41.35-3.2.61-6.4.66-9.62.05-3.23-.13-6.46-.21-9.68-.09-3.33.09-6.55.39-9.85m14.86 25.42c-1.69-.42-3.54-.5-5.27-.59-1.73-.09-3.56-.19-5.26.16-.15.03-.09.23.03.24 1.72.21 3.49.1 5.23.2 1.74.1 3.46.41 5.2.51.3.02.36-.45.07-.52m.21 5.68c-.04-1.6-.03-3.23-.23-4.82-.02-.19-.28-.2-.3 0-.2 2.27.01 4.57-.04 6.84-.05 2.32-1.29 3.92-3.68 4.04-5.5.3-5.31-7.02-5.57-10.81-.02-.25-.4-.26-.4 0-.04 4.19.08 11.75 5.97 11.47 1.81-.09 3.56-1.06 4.08-2.88.36-1.23.2-2.58.17-3.84m-24.31-6.99c-1.49-.22-3.24.28-4.71.53-.83.14-1.65.29-2.48.46-.68.14-1.69.21-2.26.62-.08.06-.12.13-.09.23l.02.09c.02.07.1.13.17.13.02 0 .05 0 .07-.01.07 0 .15-.08.12-.16.08.21 4.2-.66 4.62-.73 1.46-.24 3.21-.24 4.58-.81.15-.06.12-.32-.04-.35m.07 1.04c-.01-.27-.38-.25-.41 0-.26 2.19-.49 4.38-.99 6.53-.44 1.92-.95 4.64-3.02 5.44-1.2.46-2.38-.07-3.44-.64-.51-.27-1.16-.57-1.45-1.1-.26-.49-.24-1.11-.26-1.65-.1-2.15.21-4.23.27-6.36.01-.19-.28-.22-.32-.04-.35 1.33-.39 2.78-.43 4.14-.03 1.17-.15 2.54.14 3.69.23.91 1 1.36 1.77 1.81.98.57 2.08 1.12 3.24.96 2.06-.27 3.08-2.33 3.62-4.11.83-2.77 1.37-5.77 1.28-8.67m6.04-22.5c-.14-.15-.33.01-.31.18.06.42.16.79.04 1.21-.1.36-.38.79-.81.74-.5-.07-.45-.69-.38-1.07.09-.45.33-.68.8-.65.09.01.17-.12.11-.19-.37-.51-1.08-.11-1.3.34-.29.58-.38 1.55.21 1.98.58.44 1.36.11 1.72-.45.39-.6.44-1.55-.08-2.09m-.34 13.26c-.17-.22-.46.06-.36.28.23.5.11 1.07-.17 1.52-.22.36-1.05 1.17-1.29.35-.25-.86.75-1.73 1.38-2.09.14-.08.04-.27-.11-.25-.8.12-1.43.67-1.74 1.41-.26.61-.24 1.49.45 1.8.72.31 1.41-.27 1.78-.84.46-.7.57-1.52.06-2.18m.14 14.1c-.14-.06-.37.05-.29.23.17.42.12.76-.03 1.17-.11.3-.23.61-.47.83-.21.2-.6.44-.72.01-.1-.37.15-.94.32-1.25.19-.35.52-.6.71-.94.06-.1-.04-.2-.14-.18-.7.1-1.19.97-1.36 1.58-.15.53-.3 1.55.45 1.67.77.12 1.38-.57 1.66-1.2.23-.54.58-1.59-.13-1.92"/></g><path d="M90.81 2.22C88.08.78 85.05.02 81.96.01c-10.5 0-19.01 8.51-19.01 19 0 4.96 1.93 9.71 5.39 13.26l-.79 5.65c-.07.41.21.79.61.86.19.03.38-.01.54-.11l4.32-2.86c9.28 4.91 20.78 1.38 25.69-7.9s1.38-20.78-7.9-25.69z"/><text transform="translate(72.765 27.738)" class="qst1 qst11 qst12">!!!</text><path class="qst1" d="M90.81 2.22C88.08.78 85.05.02 81.96.01c-10.5 0-19.01 8.51-19.01 19 0 4.96 1.93 9.71 5.39 13.26l-.79 5.65c-.07.41.21.79.61.86.19.03.38-.01.54-.11l4.32-2.86c9.28 4.91 20.78 1.38 25.69-7.9s1.38-20.78-7.9-25.69zm3.61 29.1a17.577 17.577 0 0 1-12.46 5.22c-3.02 0-5.98-.77-8.61-2.25a.77.77 0 0 0-.75 0l-3.38 2.2.65-4.35a.77.77 0 0 0-.22-.64c-6.89-6.79-6.96-17.88-.17-24.76s17.88-6.96 24.76-.17c6.9 6.78 6.97 17.86.18 24.75z"/></svg></svg>