<?xml version="1.0" encoding="utf-8"?><svg width="432" height="73.14" viewBox="0 0 432 73.14" xmlns="http://www.w3.org/2000/svg" xmlns:xlink="http://www.w3.org/1999/xlink"><svg id="flag-de" viewBox="0 0 30 19.7" width="30" height="19.7" xmlns="http://www.w3.org/2000/svg"><style>.ast0{fill:#464655}.ast1{fill:#ffe15a}.ast2{fill:#ff4b55}</style><path class="ast0" d="M30 6.6H0v-6C0 .2.2 0 .5 0h29c.3 0 .5.2.5.5v6.1z"/><path class="ast1" d="M29.5 19.7H.5c-.3 0-.5-.2-.5-.5v-6h30v6c0 .2-.2.5-.5.5z"/><path class="ast2" d="M0 6.6h30v6.6H0z"/></svg><svg id="flag-en" viewBox="0 0 30 19.7" width="30" height="19.7" x="30" xmlns="http://www.w3.org/2000/svg"><style>.bst0{fill:#41479b}.bst1{fill:#f5f5f5}.bst2{fill:#ff4b55}</style><path class="bst0" d="M29.5 19.7H.5c-.3 0-.5-.2-.5-.5V.5C0 .2.2 0 .5 0h29c.3 0 .5.2.5.5v18.6c0 .3-.2.6-.5.6z"/><path class="bst1" d="M30 .5c0-.3-.2-.5-.5-.5h-2.3l-9.6 6.3V0h-5.2v6.3L2.8 0H.5C.2 0 0 .2 0 .5v1.3l8.2 5.4H0v5.2h8.2L0 17.8v1.3c0 .3.2.5.5.5h2.3l9.6-6.3v6.3h5.2v-6.3l9.6 6.3h2.3c.3 0 .5-.2.5-.5v-1.3l-8.2-5.4H30V7.2h-8.2L30 1.9V.5z"/><path class="bst2" d="M30 8.3H16.6V0h-3.2v8.3H0v3.1h13.4v8.3h3.2v-8.3H30z"/><path class="bst2" d="M10.5 12.4L0 19.2c0 .2.2.4.5.4h.7l11.2-7.2h-1.9zm9.8 0h-1.9l11.1 7.2c.3 0 .5-.2.5-.5v-.4l-9.7-6.3zM0 1.1l9.5 6.2h1.9L.3.1C.1.1 0 .3 0 .5v.6zm19.5 6.1L30 .4c0-.2-.2-.4-.5-.4h-.7L17.6 7.2h1.9z"/></svg><svg id="flag-jp" viewBox="0 0 30 20" width="30" height="20" x="60" xmlns="http://www.w3.org/2000/svg"><style>.cst0{fill:#f0f0f0}.cst1{fill:#d80027}</style><path class="cst0" d="M0 0h30v20H0z"/><circle class="cst1" cx="15" cy="10" r="5.6"/></svg><svg id="flag-ru" viewBox="0 0 30 19.7" width="30" height="19.7" x="90" xmlns="http://www.w3.org/2000/svg"><style>.dst0{fill:#f5f5f5}.dst1{fill:#ff4b55}.dst2{fill:#41479b}</style><path class="dst0" d="M30 6.6H0v-6C0 .2.2 0 .5 0h29c.3 0 .5.2.5.5v6.1z"/><path class="dst1" d="M29.5 19.7H.5c-.3 0-.5-.2-.5-.5v-6h30v6c0 .2-.2.5-.5.5z"/><path class="dst2" d="M0 6.6h30v6.6H0z"/></svg><svg id="flag-zh" viewBox="0 0 30 19.7" width="30" height="19.7" x="120" xmlns="http://www.w3.org/2000/svg"><style>.est0{fill:#ff4b55}.est1{fill:#ffe15a}</style><path class="est0" d="M29.5 19.7H.5c-.3 0-.5-.2-.5-.5V.5C0 .2.2 0 .5 0h29c.3 0 .5.2.5.5v18.6c0 .3-.2.6-.5.6z"/><path class="est1" d="M5 3.1l.5 1.5h1.6c.2 0 .3.3.1.4l-1.3.9.5 1.5c0 .1-.2.3-.4.2l-1.2-.9-1.3.9c-.2.1-.4 0-.3-.2l.5-1.5-1.3-1c-.2-.1-.1-.3.1-.3h1.6l.5-1.5c0-.2.3-.2.4 0zm5.6.3l.4.5.6-.2c.1 0 .1.1.1.1l-.3.5.3.5c0 .1 0 .1-.1.1l-.6-.1-.4.5c0 .1-.1 0-.1 0v-.6l-.6-.3c-.1 0-.1-.1 0-.2l.6-.2v-.6h.1zM8.5 2l.6.1.3-.5c0-.1.1-.1.2 0l.1.6.6.1c.1 0 .1.1 0 .1l-.6.2.1.6c0 .1-.1.1-.1.1l-.4-.4-.6.3c-.1 0-.1 0-.1-.1l.2-.5-.4-.5s0-.1.1-.1zm.9 5.8l-.3.5-.6-.2c-.1 0-.1.1-.1.1l.3.5-.3.5c0 .1 0 .1.1.1l.6-.2.4.5c0 .1.1 0 .1 0V9l.6-.2c.1 0 .1-.1 0-.2l-.6-.2v-.6s-.1-.1-.2 0zm2.2-1.4l-.6.1-.3-.5c0-.1-.1-.1-.2 0l-.1.6h-.5c-.1 0-.1.1 0 .1l.5.3-.1.6c0 .1.1.1.1.1l.4-.4.5.3c.1 0 .1 0 .1-.1l-.2-.5.4-.4c.1-.1.1-.2 0-.2z"/></svg><svg width="13.758" height="9.899" viewBox="0 0 13.758 9.899" id="i-check" x="150" xmlns="http://www.w3.org/2000/svg"><path d="M4.95 9.9a1.087 1.087 0 0 1-.772-.32L.32 5.721a1.091 1.091 0 1 1 1.543-1.543L4.95 7.269 11.9.32a1.091 1.091 0 1 1 1.543 1.543L5.722 9.58a1.088 1.088 0 0 1-.772.32z" fill="#54ce63"/></svg><svg id="i-checked" viewBox="0 0 22.5 22.5" width="22.5" height="22.5" x="164" xmlns="http://www.w3.org/2000/svg"><style>.gst0{fill:#fff}.gst1{fill:#54ce63}</style><circle class="gst0" cx="11.3" cy="11.2" r="9.5"/><g id="gchecked" transform="translate(-.004)"><path id="gPath_1166" class="gst1" d="M11.2 0C5 0 0 5 0 11.2s5 11.2 11.2 11.2 11.2-5 11.2-11.2S17.4 0 11.2 0zm0 20.3c-5 0-9.1-4.1-9.1-9.1s4.1-9.1 9.1-9.1 9.1 4.1 9.1 9.1c0 5.1-4 9.1-9.1 9.1zm4.4-13.9c-.5-.3-1.1-.1-1.3.3l-3.8 6.8L8.4 11c-.3-.5-.9-.6-1.4-.4-.5.3-.7.9-.4 1.4l2.9 3.6c.2.3.4.4.7.5.5.1 1-.1 1.3-.5L16 7.9c.3-.5.1-1.2-.4-1.5z"/></g></svg><svg id="i-error" viewBox="0 0 22.4 22.4" width="22.4" height="22.4" x="187" xmlns="http://www.w3.org/2000/svg"><style>.hst0{fill:#fff}.hst1{fill:#f15a24}</style><circle class="hst0" cx="11.2" cy="11.2" r="9.7"/><path id="hPath_1165" class="hst1" d="M11.2 0C5 0 0 5 0 11.2s5 11.2 11.2 11.2 11.2-5 11.2-11.2S17.4 0 11.2 0zm0 20.3c-5 0-9.1-4.1-9.1-9.1s4.1-9.1 9.1-9.1 9.1 4.1 9.1 9.1c0 5.1-4 9.1-9.1 9.1zm0-15.4c-.8 0-1.4.4-1.4 1.1v6.2c0 .7.6 1.1 1.4 1.1.8 0 1.4-.4 1.4-1.1V6c0-.6-.6-1.1-1.4-1.1zm0 9.8c-.8 0-1.4.6-1.4 1.4 0 .8.6 1.4 1.4 1.4.8 0 1.4-.6 1.4-1.4 0-.7-.6-1.4-1.4-1.4z"/></svg><svg id="i-humidity" width="35.92" height="35.92" viewBox="0 0 35.92 35.92" x="210" xmlns="http://www.w3.org/2000/svg"><style>.ist0{fill:#fff}</style><path class="ist0" d="M13.61 35.92c-3.64 0-7.05-1.4-9.62-3.95A13.406 13.406 0 0 1 0 22.38V22c0-4.71 3.99-9.28 7.5-13.32 2.56-2.94 4.98-5.72 4.98-7.56 0-.62.51-1.13 1.13-1.13s1.13.51 1.13 1.13c0 1.96 2.45 4.74 5.05 7.69l1.36 1.55c.2.23.29.52.27.82-.02.3-.16.57-.39.77-.21.18-.47.28-.74.28-.33 0-.64-.14-.86-.39l-1.22-1.4C16.4 8.39 14.88 6.67 13.84 5l-.25-.4-.25.4c-1.03 1.61-2.54 3.34-4.13 5.16C5.95 13.9 2.26 18.14 2.26 22v.38c0 6.22 5.09 11.28 11.35 11.28 3.04 0 5.86-1.13 7.95-3.17.21-.21.49-.32.79-.32.3 0 .59.12.8.34.21.22.33.5.32.8 0 .3-.12.59-.34.79-2.51 2.47-5.89 3.82-9.52 3.82zm21.19-8.34c-1.37 0-2.72-.78-4.01-2.33-.13-.15-.33-.23-.56-.23a.73.73 0 0 0-.56.24c-1.29 1.55-2.64 2.33-4.01 2.33s-2.72-.78-4.01-2.33c-.13-.15-.33-.23-.56-.23a.73.73 0 0 0-.56.24c-1.29 1.55-2.64 2.33-4.01 2.33s-2.72-.78-4.01-2.33c-.13-.15-.33-.23-.56-.23a.73.73 0 0 0-.56.24c-1.29 1.55-2.64 2.33-4.01 2.33-.62 0-1.13-.51-1.13-1.13s.51-1.13 1.13-1.13c.65 0 1.46-.54 2.28-1.52.55-.66 1.39-1.04 2.29-1.04.9 0 1.74.38 2.29 1.05.82.98 1.63 1.52 2.28 1.52.65 0 1.46-.54 2.28-1.52.55-.66 1.39-1.04 2.29-1.04s1.74.38 2.29 1.05c.82.98 1.63 1.52 2.28 1.52s1.46-.54 2.28-1.52c.55-.66 1.39-1.04 2.29-1.04s1.74.38 2.29 1.05c.82.98 1.63 1.52 2.28 1.52.62 0 1.13.51 1.13 1.13s-.51 1.07-1.13 1.07zm0-7.13c-1.37 0-2.72-.78-4.01-2.33-.13-.15-.33-.23-.56-.23a.73.73 0 0 0-.56.24c-1.29 1.55-2.64 2.33-4.01 2.33s-2.72-.78-4.01-2.33c-.13-.15-.33-.23-.56-.23a.73.73 0 0 0-.56.24c-1.29 1.55-2.64 2.33-4.01 2.33-.62 0-1.13-.51-1.13-1.13s.51-1.13 1.13-1.13c.65 0 1.46-.54 2.28-1.52.55-.66 1.39-1.04 2.29-1.04s1.74.38 2.29 1.05c.82.98 1.63 1.52 2.28 1.52s1.46-.54 2.28-1.52c.55-.66 1.39-1.04 2.29-1.04s1.74.38 2.29 1.05c.82.98 1.63 1.52 2.28 1.52.62 0 1.13.51 1.13 1.13s-.51 1.09-1.13 1.09z"/></svg><svg id="i-menu-dark" viewBox="0 0 30 30" width="30" height="30" x="246" xmlns="http://www.w3.org/2000/svg"><style>.jst0{fill:#fff}</style><path class="jst0" d="M15 0C6.7 0 0 6.7 0 15s6.7 15 15 15 15-6.7 15-15S23.3 0 15 0zm6.4 22H8.6c-.6 0-1.1-.5-1.1-1.1s.5-1.1 1.1-1.1h12.9c.6 0 1.1.5 1.1 1.1S22 22 21.4 22zm0-5.9H8.6c-.6 0-1.1-.5-1.1-1.1s.5-1.1 1.1-1.1h12.9c.6 0 1.1.5 1.1 1.1s-.6 1.1-1.2 1.1zm0-5.9H8.6c-.6 0-1.1-.5-1.1-1.1C7.5 8.5 8 8 8.6 8h12.9c.6 0 1.1.5 1.1 1.1-.1.6-.6 1.1-1.2 1.1z"/></svg><svg id="i-menu-light" viewBox="0 0 30 19.2" width="30" height="19.2" x="276" xmlns="http://www.w3.org/2000/svg"><style>.kst0{fill:#fff}</style><path class="kst0" d="M1.1 2.3h27.7c.6 0 1.1-.5 1.1-1.1s-.4-1.2-1-1.2H1.1C.5 0 0 .5 0 1.1s.5 1.2 1.1 1.2zm0 8.5h27.7c.6 0 1.1-.5 1.1-1.1s-.5-1.1-1.1-1.1H1.1C.5 8.5 0 9 0 9.6s.5 1.2 1.1 1.2zm0 8.4h27.7c.6 0 1.1-.5 1.1-1.1 0-.6-.5-1.1-1.1-1.1H1.1c-.6 0-1.1.5-1.1 1.1 0 .6.5 1.1 1.1 1.1z"/></svg><svg id="i-pressure" width="38.16" height="50.7" viewBox="0 0 38.16 50.7" x="306" xmlns="http://www.w3.org/2000/svg"><style>.lst0{fill:#fff}</style><path class="lst0" d="M19.08 4.18c-8.21 0-14.9 6.68-14.9 14.9s6.68 14.9 14.9 14.9 14.9-6.68 14.9-14.9-6.69-14.9-14.9-14.9zm2.32 19.33l-.81 2.63h-3.02l-.81-2.63 2.32-8.7 2.32 8.7zm-2.32 8.9c-7.09 0-12.9-5.56-13.3-12.54h3.37V18.3H5.77c.16-2.82 1.21-5.41 2.87-7.5l2.04 2.04 1.11-1.11-2.1-2.1c2.24-2.22 5.26-3.66 8.6-3.85v3.37h.67l-3.84 14.39 1.28 4.17h5.34l1.28-4.17-3.83-14.39h.67V5.77c3.35.2 6.37 1.63 8.6 3.85l-2.1 2.1 1.11 1.11 2.04-2.04a13.26 13.26 0 0 1 2.87 7.5h-3.37v1.57h3.37c-.4 6.99-6.22 12.55-13.3 12.55z"/><path class="lst0" d="M38.16 19.08C38.16 8.56 29.6 0 19.08 0S0 8.56 0 19.08c0 9.46 6.92 17.45 16.2 18.86v7.54h-3.92c-1.01 0-1.83.82-1.83 1.83v1.83H6.01v1.57h26.13v-1.57H27.7V47.3c0-1.01-.82-1.83-1.83-1.83h-3.92v-7.54c9.29-1.4 16.21-9.39 16.21-18.85zM25.87 47.04c.14 0 .26.12.26.26v1.83H12.02V47.3c0-.14.12-.26.26-.26h13.59zm-4.79-10.57l-.69.08v8.93h-2.61v-8.93l-.69-.08C8.24 35.45 1.57 27.98 1.57 19.08c0-9.66 7.86-17.51 17.51-17.51s17.51 7.86 17.51 17.51c0 8.9-6.67 16.37-15.51 17.39z"/></svg><svg id="i-temp" width="26.82" height="73.14" viewBox="0 0 26.82 73.14" x="345" xmlns="http://www.w3.org/2000/svg"><style>.mst0{fill:#fff}</style><path class="mst0" d="M13.41 0c-4.7.01-8.52 3.82-8.53 8.53v40.86C1.26 52.35-.54 56.99.14 61.61c1.03 7.33 7.82 12.43 15.15 11.4 6.62-.94 11.54-6.61 11.53-13.3.01-4-1.78-7.79-4.87-10.32V8.53C21.94 3.82 18.12.01 13.41 0zm10.97 59.71c.01 6.06-4.9 10.97-10.95 10.98-6.06.01-10.98-4.9-10.98-10.95 0-3.46 1.62-6.71 4.39-8.79.31-.23.49-.59.49-.97V46.3h2.44v-2.44H7.32V40.2h2.44v-2.44H7.32V34.1h2.44v-2.44H7.32V28h2.44v-2.44H7.32V21.9h2.44v-2.4H7.32v-3.66h2.44V13.4H7.32V8.53c0-3.37 2.73-6.09 6.09-6.09s6.09 2.73 6.09 6.09v41.45c0 .38.18.74.49.97a10.88 10.88 0 0 1 4.39 8.76z"/><path class="mst0" d="M14.63 53.74V10.97H12.2v42.77c-3.3.67-5.42 3.89-4.75 7.19s3.89 5.42 7.19 4.75c3.3-.67 5.42-3.89 4.75-7.19a6.114 6.114 0 0 0-4.76-4.75zm-1.22 9.62c-2.02 0-3.66-1.64-3.66-3.66 0-2.02 1.64-3.66 3.66-3.66s3.66 1.64 3.66 3.66c0 2.03-1.64 3.66-3.66 3.66z"/></svg><svg width="25.257" height="25.257" viewBox="0 0 25.257 25.257" id="logo-aira" x="372" xmlns="http://www.w3.org/2000/svg"><g data-name="Group 1349"><path data-name="Rectangle 764" fill="#fff" d="M12.268 12.749h.401v10.183h-.401z"/></g><g data-name="Group 1350"><path data-name="Rectangle 765" fill="#fff" d="M22.771 2.325h.401v20.687h-.401z"/></g><g data-name="Group 1351"><path data-name="Rectangle 766" fill="#fff" d="M2.14 22.833L22.778 2.195l.283.284L2.424 23.117z"/></g><g data-name="Group 1352"><path data-name="Rectangle 767" fill="#fff" d="M2.325 22.771h20.687v.401H2.325z"/></g><g data-name="Group 1353"><path data-name="Rectangle 768" fill="#fff" d="M12.332 22.792l10.46-10.176.28.288-10.46 10.175z"/></g><g data-name="Group 1358"><circle data-name="Ellipse 249" cx="2.325" cy="2.325" r="2.325" fill="#fff" transform="translate(20.606 20.606)"/></g><g data-name="Group 1359"><circle data-name="Ellipse 250" cx="2.325" cy="2.325" r="2.325" fill="#fff" transform="translate(20.606)"/></g><g data-name="Group 1360"><circle data-name="Ellipse 251" cx="2.325" cy="2.325" r="2.325" fill="#fff" transform="translate(20.606 10.263)"/></g><g data-name="Group 1361"><circle data-name="Ellipse 252" cx="2.325" cy="2.325" r="2.325" fill="#fff" transform="translate(0 20.606)"/></g><g data-name="Group 1362"><circle data-name="Ellipse 253" cx="2.325" cy="2.325" r="2.325" fill="#fff" transform="translate(10.263 20.606)"/></g><g data-name="Group 1363"><circle data-name="Ellipse 254" cx="2.325" cy="2.325" r="2.325" fill="#fff" transform="translate(10.263 10.423)"/></g></svg><svg width="33.481" height="29.491" viewBox="0 0 33.481 29.491" id="logo-robonomics" x="398" xmlns="http://www.w3.org/2000/svg"><g data-name="3_Robonomics_logo_white"><g data-name="Group 2881"><path data-name="Path 1161" d="M16.778 1.003l-15.7 27.2h31.411z" fill="none" stroke="#fff" stroke-miterlimit="10" stroke-width=".4"/><circle data-name="Ellipse 281" cx="1.107" cy="1.107" r="1.107" transform="rotate(-25.517 75.973 -53.666)" fill="#fff"/><circle data-name="Ellipse 282" cx="1.107" cy="1.107" r="1.107" transform="translate(15.694)" fill="#fff"/><circle data-name="Ellipse 283" cx="1.107" cy="1.107" r="1.107" transform="translate(0 26.922)" fill="#fff"/></g><g data-name="Group 2882" fill="#fff"><path data-name="Path 1162" d="M10.084 23.37h13.679l-6.839-3.609z"/><path data-name="Path 1163" d="M16.654 10.907L9.696 22.963l6.972-3.67z"/><path data-name="Path 1164" d="M24.145 22.949l-6.943-12.028.057 8.325z"/></g></g></svg></svg>