<?xml version="1.0" encoding="utf-8"?>
<!-- Generator: Adobe Illustrator 23.0.1, SVG Export Plug-In . SVG Version: 6.00 Build 0)  -->
<svg version="1.1" id="github-2" xmlns="http://www.w3.org/2000/svg" xmlns:xlink="http://www.w3.org/1999/xlink" x="0px" y="0px"
	 width="866.1px" height="1000px" viewBox="0 0 866.1 1000" style="enable-background:new 0 0 866.1 1000;" xml:space="preserve">
<g id="Group_431" transform="translate(0 0)">
	<path id="Path_582" d="M459.7,1000c-81.3,0-150.9-34.8-150.9-52.2s0-52.2,0-110.3C134.7,878.1,94,750.4,94,750.4
		c-11.6-40.6-34.8-69.7-69.7-92.9c-58-40.6,5.8-40.6,5.8-40.6c40.6,5.8,75.5,29,98.7,63.9c34.8,63.9,116.1,87.1,180,52.2l0,0
		c0-34.8,17.4-63.9,40.6-87.1C210.1,628.5,59.2,576.2,59.2,332.4c0-63.9,23.2-121.9,63.9-168.3c-17.4-46.4-17.4-110.3,5.8-162.5
		c0,0,52.2-17.4,174.1,63.9c104.5-29,214.8-29,319.3,0C744.2-15.8,796.4,1.6,796.4,1.6c23.2,52.2,23.2,116.1,5.8,168.3
		c40.6,46.4,63.9,110.3,63.9,174.1c0,243.8-150.9,296-290.2,313.5c29,29,46.4,75.5,40.6,116.1c0,87.1,0,150.9,0,174.1
		C616.5,965.2,552.6,1000,459.7,1000z"/>
</g>
</svg>
