<?xml version="1.0"?>
<svg xmlns="http://www.w3.org/2000/svg" id="Layer_1" data-name="Layer 1" viewBox="0 0 512 512" width="512" height="512"><title>Lighthouse</title><path d="M473.457,132H423.11a7,7,0,0,0,0,14h50.347a7,7,0,0,0,0-14Z"/><path d="M454.637,44.14,404.29,70.151a7,7,0,1,0,6.426,12.438l50.347-26.011a7,7,0,1,0-6.426-12.438Z"/><path d="M461.063,221.018l-50.347-26.011a7,7,0,0,0-6.426,12.438l50.347,26.011a7,7,0,1,0,6.426-12.438Z"/><path d="M95.89,139a7,7,0,0,0-7-7H38.543a7,7,0,0,0,0,14H88.89A7,7,0,0,0,95.89,139Z"/><path d="M107.71,70.151,57.363,44.14a7,7,0,0,0-6.426,12.438l50.347,26.011a7,7,0,1,0,6.426-12.438Z"/><path d="M101.284,195.007,50.937,221.018a7,7,0,1,0,6.426,12.438l50.347-26.011a7,7,0,1,0-6.426-12.438Z"/><rect x="216" y="112" width="32" height="35"/><rect x="262" y="112" width="32" height="35"/><path d="M332,89.386A7.689,7.689,0,0,0,324.61,82H186.9c-3.86,0-6.9,3.526-6.9,7.386V98H332Z"/><path d="M255.73,27.005a48.016,48.016,0,0,0-47.118,41H302.9A48.031,48.031,0,0,0,255.73,27.005Z"/><rect x="308" y="112" width="24" height="35"/><rect x="145" y="449" width="222" height="36"/><rect x="180" y="112" width="22" height="35"/><polygon points="198.74 191 181.582 435 329.925 435 312.768 191 198.74 191"/><path d="M332,170.459V161H180v9.459c0,3.86,3.04,6.541,6.9,6.541H324.61C328.47,177,332,174.319,332,170.459Z"/></svg>
