<?xml version="1.0" encoding="utf-8"?>
<!-- Generator: Adobe Illustrator 23.0.1, SVG Export Plug-In . SVG Version: 6.00 Build 0)  -->
<svg version="1.1" id="Layer_1" xmlns="http://www.w3.org/2000/svg" xmlns:xlink="http://www.w3.org/1999/xlink" x="0px" y="0px"
	 width="731.7px" height="1000px" viewBox="0 0 731.7 1000" style="enable-background:new 0 0 731.7 1000;" xml:space="preserve">
<g>
	<g>
		<g>
			<path d="M282.9,643.9c0,14.6-4.9,29.3-4.9,48.8c0,87.8,29.3,170.7,63.4,195.1h39c39-24.4,63.4-107.3,63.4-195.1
				c0-14.6,0-29.3-4.9-48.8C395.1,658.5,336.6,658.5,282.9,643.9z"/>
			<path d="M731.7,297.6c0-53.7-43.9-97.6-97.6-97.6c-19.5,0-39,4.9-53.7,14.6c-58.5-34.1-131.7-58.5-200-63.4l34.1-117.1l97.6,29.3
				c0,4.9-4.9,14.6-4.9,19.5c0,43.9,39,82.9,82.9,82.9s82.9-39,82.9-82.9S634.1,0,590.2,0c-24.4,0-48.8,14.6-63.4,29.3L424.4,4.9
				c-14.6-4.9-29.3,4.9-34.1,19.5l-39,131.7c-68.3,4.9-141.5,24.4-200,63.4c-19.5-9.8-34.1-19.5-53.7-19.5C43.9,200,0,243.9,0,297.6
				c0,29.3,14.6,58.5,39,78c0,4.9,0,9.8,0,14.6c0,63.4,34.1,122,102.4,161c9.8,9.8,24.4,14.6,39,19.5c-34.1,29.3-58.5,78-58.5,131.7
				c0,73.2,39,131.7,97.6,151.2c0,4.9,0,4.9,4.9,9.8c-48.8,4.9-87.8,43.9-87.8,87.8c0,9.8,0,19.5,4.9,29.3
				c4.9,14.6,14.6,19.5,29.3,19.5h404.9c14.6,0,24.4-9.8,29.3-19.5c4.9-9.8,0-14.6,0-24.4v-4.9c0-43.9-34.1-82.9-82.9-87.8
				c0-4.9,0-4.9,4.9-9.8c58.5-19.5,97.6-82.9,97.6-151.2c0-53.7-19.5-102.4-58.5-131.7c14.6-4.9,24.4-14.6,39-19.5
				c63.4-43.9,102.4-102.4,102.4-161c0-4.9,0-9.8,0-14.6C717.1,356.1,731.7,326.8,731.7,297.6z M195.1,356.1
				c0-39,29.3-68.3,68.3-68.3s68.3,29.3,68.3,68.3s-34.1,63.4-68.3,63.4S195.1,390.2,195.1,356.1z M248.8,458.5
				c4.9-4.9,14.6-4.9,24.4,0c14.6,14.6,43.9,29.3,87.8,29.3s78-14.6,87.8-29.3c4.9-4.9,14.6-4.9,24.4,0c4.9,4.9,4.9,14.6,0,24.4
				c-24.4,24.4-68.3,39-112.2,39s-87.8-14.6-112.2-39C243.9,478,243.9,463.4,248.8,458.5z M400,917.1c-4.9,0-4.9,0-9.8,0h-48.8
				c-4.9,0-4.9,0-9.8,0c-53.7-29.3-87.8-122-87.8-224.4c0-24.4,0-48.8,4.9-68.3c0-4.9,4.9-9.8,9.8-9.8c4.9-4.9,9.8-4.9,14.6,0
				c58.5,19.5,126.8,19.5,185.4,0c4.9,0,9.8,0,14.6,0c4.9,4.9,4.9,4.9,9.8,9.8c4.9,24.4,4.9,48.8,4.9,68.3
				C482.9,800,448.8,887.8,400,917.1z M463.4,419.5c-39,0-68.3-29.3-68.3-68.3s29.3-68.3,68.3-68.3c39,0,68.3,29.3,68.3,68.3
				S497.6,419.5,463.4,419.5z"/>
			<path d="M297.6,356.1c0-19.5-14.6-34.1-34.1-34.1s-34.1,14.6-34.1,34.1s14.6,34.1,34.1,34.1S297.6,370.7,297.6,356.1z"/>
			<path d="M463.4,322c-19.5,0-34.1,14.6-34.1,34.1s14.6,34.1,34.1,34.1s34.1-14.6,34.1-34.1S478,322,463.4,322z"/>
		</g>
	</g>
</g>
</svg>
