<?xml version="1.0" encoding="utf-8"?>
<!-- Generator: Adobe Illustrator 23.0.1, SVG Export Plug-In . SVG Version: 6.00 Build 0)  -->
<svg version="1.1" id="Capa_1" xmlns="http://www.w3.org/2000/svg" xmlns:xlink="http://www.w3.org/1999/xlink" x="0px" y="0px"
	 width="530px" height="288.6px" viewBox="0 0 530 288.6" style="enable-background:new 0 0 530 288.6;" xml:space="preserve">
<style type="text/css">
	.st0{fill:#1E201D;}
</style>
<path class="st0" d="M225.8,67.4c3.2-3.2,8.2-3.2,11.4,0c3.1,3.1,3.1,8.2,0,11.3l-57.7,57.7h190.2c4.4,0,8.1,3.5,8.1,8
	c0,4.4-3.6,8.1-8.1,8.1H179.5l57.7,57.5c3.1,3.2,3.1,8.3,0,11.4c-3.2,3.2-8.2,3.2-11.4,0L154.5,150c-3.1-3.1-3.1-8.2,0-11.3
	L225.8,67.4z"/>
<g>
	<path class="st0" d="M385.7,288.6H144.3C64.7,288.6,0,223.9,0,144.3C0,64.7,64.7,0,144.3,0h241.3C465.2,0,530,64.7,530,144.3
		S465.2,288.6,385.7,288.6z M144.3,16C73.6,16,16,73.6,16,144.3c0,70.8,57.6,128.3,128.3,128.3h241.3c70.8,0,128.3-57.6,128.3-128.3
		C514,73.6,456.4,16,385.7,16H144.3z"/>
</g>
</svg>
