<?xml version="1.0" encoding="utf-8"?>
<!-- Generator: Adobe Illustrator 23.0.1, SVG Export Plug-In . SVG Version: 6.00 Build 0)  -->
<svg version="1.1" id="Layer_1" xmlns="http://www.w3.org/2000/svg" xmlns:xlink="http://www.w3.org/1999/xlink" x="0px" y="0px"
	 width="829.2px" height="1028.4px" viewBox="0 0 829.2 1028.4" style="enable-background:new 0 0 829.2 1028.4;"
	 xml:space="preserve">
<style type="text/css">
	.st0{fill:#03A5ED;}
</style>
<g id="copy" transform="translate(3472 -5.086)">
	<g id="Group_172" transform="translate(732 268.086)">
		<path class="st0" d="M-4110.7,765.4c-51.4-0.1-93.3-42-93.3-93.3V5.2c0.1-51.4,42-93.3,93.3-93.3h465c24.9,0.1,48.3,9.8,65.8,27.4
			c17.6,17.6,27.3,41,27.4,65.9v667.1c-0.1,51.4-42,93.3-93.3,93.3H-4110.7z M-4110.7-4.5c-5.3,0-9.5,4.3-9.5,9.5v666.8
			c0,5.3,4.3,9.5,9.5,9.5h465c5.3,0,9.5-4.3,9.5-9.5V5.1c0-5.3-4.3-9.5-9.5-9.5H-4110.7z"/>
		<path class="st0" d="M-3468.3,590.4l-0.3,0c-21.9-0.9-39.2-18.1-40.1-40.1c-0.4-11.2,3.5-21.9,11-30.1c7.6-8.2,17.9-13,29.1-13.5
			l0.3,0h0.3c5.3,0,9.5-4.3,9.5-9.5v-667c0-5.3-4.3-9.5-9.5-9.5h-465.1c-5.3,0-9.5,4.3-9.5,9.5v2.6l0,0.3
			c-0.9,22.5-19.3,40.1-41.8,40.1c-0.6,0-1.1,0-1.7,0c-11.2-0.4-21.5-5.2-29.1-13.5c-7.5-8.1-11.4-18.7-11-29.8
			c0.2-51.3,42-93,93.3-93h465.1c51.4,0.1,93.2,41.9,93.2,93.2v667c-0.1,51.4-42,93.3-93.3,93.3H-3468.3z"/>
	</g>
</g>
</svg>
