<?xml version="1.0" encoding="utf-8"?>
<!-- Generator: Adobe Illustrator 23.0.1, SVG Export Plug-In . SVG Version: 6.00 Build 0)  -->
<svg version="1.1" id="Capa_1" xmlns="http://www.w3.org/2000/svg" xmlns:xlink="http://www.w3.org/1999/xlink" x="0px" y="0px"
	 width="1836.1px" height="1000px" viewBox="0 0 1836.1 1000" style="enable-background:new 0 0 1836.1 1000;" xml:space="preserve"
	>
<style type="text/css">
	.st0{fill:#1E201D;}
</style>
<g>
	<path class="st0" d="M782.2,233.5c11-11,28.4-11,39.4,0c10.6,10.6,10.6,28.4,0,39L621.9,472.2h659.1c15.4,0,28,12.2,28,27.6
		s-12.6,28-28,28H621.9l199.7,199.4c10.6,11,10.6,28.8,0,39.4c-11,11-28.4,11-39.4,0l-247-247c-10.6-10.6-10.6-28.4,0-39
		L782.2,233.5z"/>
	<g>
		<path class="st0" d="M1336.1,1000H500C224.3,1000,0,775.7,0,500C0,224.3,224.3,0,500,0h836.1c275.7,0,500,224.3,500,500
			S1611.8,1000,1336.1,1000z M500,55.4C254.9,55.4,55.4,254.9,55.4,500c0,245.1,199.4,444.6,444.6,444.6h836.1
			c245.1,0,444.6-199.4,444.6-444.6c0-245.1-199.4-444.6-444.6-444.6H500z"/>
	</g>
</g>
</svg>
