<svg xmlns="http://www.w3.org/2000/svg" width="42.821" height="43.48" viewBox="0 0 42.821 43.48">
  <g id="Group_2676" data-name="Group 2676" transform="translate(-596 -557)">
    <g id="civic_logo-horz" data-name="civic logo-horz" transform="translate(596 557)">
      <path id="ICON" d="M5.418,21.74A16.3,16.3,0,0,0,21.671,38.045,16.418,16.418,0,0,0,37.219,26.352h5.6a21.74,21.74,0,1,1,0-9.223h-5.6A16.418,16.418,0,0,0,21.671,5.435,16.3,16.3,0,0,0,5.418,21.74ZM21.74,13.835a5.162,5.162,0,0,1,5.27,5.046,5.367,5.367,0,0,1-3.294,4.534v6.23H19.764v-6.23a5.367,5.367,0,0,1-3.294-4.534A5.162,5.162,0,0,1,21.74,13.835Z" fill="#fff" fill-rule="evenodd"/>
    </g>
  </g>
</svg>
