<svg xmlns="http://www.w3.org/2000/svg" width="110.48" height="39.415" viewBox="0 0 110.48 39.415">
  <g id="Group_2676" data-name="Group 2676" transform="translate(-596 -557)">
    <g id="civic_logo-horz" data-name="civic logo-horz" transform="translate(596 557)">
      <path id="CIVIC" d="M139.388,25.676l2.511,2.543-.231.229a9.283,9.283,0,0,1-2.85,1.926,9.012,9.012,0,0,1-6.98.009A8.9,8.9,0,0,1,129,28.46a9.313,9.313,0,0,1-1.919-2.843,8.611,8.611,0,0,1-.711-3.475,8.752,8.752,0,0,1,.71-3.493A9.067,9.067,0,0,1,129,15.8a9.339,9.339,0,0,1,2.831-1.92,8.86,8.86,0,0,1,6.966-.009,9.359,9.359,0,0,1,2.831,1.925l.234.231-2.511,2.5-.225-.228a5.912,5.912,0,0,0-1.723-1.206,4.938,4.938,0,0,0-2.079-.443,5.133,5.133,0,0,0-3.762,1.6,5.833,5.833,0,0,0-1.141,1.763A5.437,5.437,0,0,0,130,22.143a5.313,5.313,0,0,0,.423,2.11A5.885,5.885,0,0,0,131.566,26a5.133,5.133,0,0,0,3.762,1.6,5.047,5.047,0,0,0,2.1-.444,5.493,5.493,0,0,0,1.734-1.236ZM120.4,30.485V13.763h3.583V30.485ZM122.192,6a2.363,2.363,0,0,1,2.389,2.389,2.389,2.389,0,1,1-4.777,0A2.362,2.362,0,0,1,122.192,6ZM109.668,23.748l4.708-9.985h3.636l-8.1,16.721h-.49L101.29,13.763h3.636ZM95.916,30.485V13.763H99.5V30.485ZM97.707,6A2.363,2.363,0,0,1,100.1,8.389a2.389,2.389,0,1,1-4.778,0A2.362,2.362,0,0,1,97.707,6ZM91.016,25.676l2.511,2.543-.231.229a9.284,9.284,0,0,1-2.85,1.926,9.012,9.012,0,0,1-6.98.009A8.9,8.9,0,0,1,80.63,28.46a9.313,9.313,0,0,1-1.919-2.843A8.611,8.611,0,0,1,78,22.143a8.752,8.752,0,0,1,.71-3.493A9.067,9.067,0,0,1,80.632,15.8a9.339,9.339,0,0,1,2.831-1.92,8.86,8.86,0,0,1,6.966-.009A9.36,9.36,0,0,1,93.26,15.8l.234.231-2.511,2.5-.225-.228a5.912,5.912,0,0,0-1.723-1.206,4.938,4.938,0,0,0-2.079-.443,5.133,5.133,0,0,0-3.762,1.6,5.833,5.833,0,0,0-1.141,1.763,5.448,5.448,0,0,0-.424,2.131,5.314,5.314,0,0,0,.423,2.11A5.886,5.886,0,0,0,83.194,26a5.133,5.133,0,0,0,3.762,1.6,5.047,5.047,0,0,0,2.1-.444,5.493,5.493,0,0,0,1.734-1.236Z" transform="translate(-31.419 -2.417)" fill="#fff" fill-rule="evenodd"/>
      <path id="ICON" d="M4.911,19.707a14.774,14.774,0,0,0,14.734,14.78,14.882,14.882,0,0,0,14.094-10.6h5.078a19.707,19.707,0,1,1,0-8.361H33.739a14.882,14.882,0,0,0-14.094-10.6A14.774,14.774,0,0,0,4.911,19.707Zm14.8-7.166a4.679,4.679,0,0,1,4.778,4.574,4.865,4.865,0,0,1-2.986,4.11v5.648H17.916V21.226a4.865,4.865,0,0,1-2.986-4.11A4.679,4.679,0,0,1,19.707,12.541Z" fill="#fff" fill-rule="evenodd"/>
    </g>
  </g>
</svg>
