<?xml version="1.0" encoding="utf-8"?>
<!-- Generator: Adobe Illustrator 22.1.0, SVG Export Plug-In . SVG Version: 6.00 Build 0)  -->
<svg version="1.1" id="Layer_1" xmlns="http://www.w3.org/2000/svg" xmlns:xlink="http://www.w3.org/1999/xlink" x="0px" y="0px"
	 viewBox="0 0 30 19.7" style="enable-background:new 0 0 30 19.7;" xml:space="preserve">
<style type="text/css">
	.st0{fill:#FF4B55;}
	.st1{fill:#FFE15A;}
</style>
<g>
	<path class="st0" d="M29.5,19.7h-29c-0.3,0-0.5-0.2-0.5-0.5V0.5C0,0.2,0.2,0,0.5,0h29C29.8,0,30,0.2,30,0.5v18.6
		C30,19.4,29.8,19.7,29.5,19.7z"/>
	<g>
		<path class="st1" d="M5,3.1l0.5,1.5l1.6,0c0.2,0,0.3,0.3,0.1,0.4L5.9,5.9l0.5,1.5C6.4,7.5,6.2,7.7,6,7.6L4.8,6.7L3.5,7.6
			c-0.2,0.1-0.4,0-0.3-0.2l0.5-1.5L2.4,4.9C2.2,4.8,2.3,4.6,2.5,4.6l1.6,0l0.5-1.5C4.6,2.9,4.9,2.9,5,3.1z"/>
		<path class="st1" d="M10.6,3.4L11,3.9l0.6-0.2c0.1,0,0.1,0.1,0.1,0.1l-0.3,0.5l0.3,0.5c0,0.1,0,0.1-0.1,0.1L11,4.8l-0.4,0.5
			c0,0.1-0.1,0-0.1,0l0-0.6L9.9,4.4c-0.1,0-0.1-0.1,0-0.2l0.6-0.2l0-0.6C10.5,3.4,10.6,3.4,10.6,3.4z"/>
		<path class="st1" d="M8.5,2l0.6,0.1l0.3-0.5c0-0.1,0.1-0.1,0.2,0l0.1,0.6l0.6,0.1c0.1,0,0.1,0.1,0,0.1L9.7,2.6l0.1,0.6
			c0,0.1-0.1,0.1-0.1,0.1L9.3,2.9L8.7,3.2c-0.1,0-0.1,0-0.1-0.1l0.2-0.5L8.4,2.1C8.4,2.1,8.4,2,8.5,2z"/>
		<path class="st1" d="M9.4,7.8L9.1,8.3L8.5,8.1c-0.1,0-0.1,0.1-0.1,0.1l0.3,0.5L8.4,9.2c0,0.1,0,0.1,0.1,0.1l0.6-0.2l0.4,0.5
			c0,0.1,0.1,0,0.1,0l0-0.6l0.6-0.2c0.1,0,0.1-0.1,0-0.2L9.6,8.4l0-0.6C9.6,7.8,9.5,7.7,9.4,7.8z"/>
		<path class="st1" d="M11.6,6.4L11,6.5L10.7,6c0-0.1-0.1-0.1-0.2,0l-0.1,0.6L9.9,6.6c-0.1,0-0.1,0.1,0,0.1l0.5,0.3l-0.1,0.6
			c0,0.1,0.1,0.1,0.1,0.1l0.4-0.4l0.5,0.3c0.1,0,0.1,0,0.1-0.1L11.2,7l0.4-0.4C11.7,6.5,11.7,6.4,11.6,6.4z"/>
	</g>
</g>
</svg>
