<svg id="github-2" xmlns="http://www.w3.org/2000/svg" viewBox="0 0 20.327 23.339">
  <defs>
    <style>
      .cls-1 {
        fill: #03a5ed;
      }
    </style>
  </defs>
  <g id="Group_431" data-name="Group 431" transform="translate(0 0)">
    <path id="Path_582" data-name="Path 582" class="cls-1" d="M78.448,134.661c-1.962.052-3.569-.833-3.569-1.227,0-.353-.013-1.287-.02-2.527-4.115.9-4.985-1.992-4.985-1.992a3.923,3.923,0,0,0-1.642-2.173c-1.345-.921.1-.9.1-.9a3.108,3.108,0,0,1,2.266,1.531,3.145,3.145,0,0,0,4.308,1.234,3.171,3.171,0,0,1,.94-1.987c-3.285-.375-6.74-1.65-6.74-7.341a5.758,5.758,0,0,1,1.524-3.988,5.353,5.353,0,0,1,.144-3.93s1.243-.4,4.069,1.522a13.967,13.967,0,0,1,7.41,0c2.824-1.922,4.065-1.522,4.065-1.522a5.361,5.361,0,0,1,.148,3.93,5.747,5.747,0,0,1,1.52,3.988c0,5.706-3.459,6.962-6.755,7.33a3.554,3.554,0,0,1,1,2.75c0,1.987-.018,3.588-.018,4.075C82.183,133.776,80.669,134.617,78.448,134.661Z" transform="translate(-67.658 -111.325)"/>
  </g>
</svg>
