<?xml version="1.0" encoding="utf-8"?>
<!-- Generator: Adobe Illustrator 23.0.1, SVG Export Plug-In . SVG Version: 6.00 Build 0)  -->
<svg version="1.1" id="Слой_1" xmlns="http://www.w3.org/2000/svg" xmlns:xlink="http://www.w3.org/1999/xlink" x="0px" y="0px"
	 viewBox="0 0 83.5 19.5" style="enable-background:new 0 0 83.5 19.5;" xml:space="preserve">
<style type="text/css">
	.st0{fill:#00A5ED;}
</style>
<g id="Group_770_3_" transform="translate(7739.251 2796.09)">
	<rect id="Rectangle_378_3_" x="-7729.8" y="-2786.2" class="st0" width="0.3" height="7.9"/>
	<rect id="Rectangle_379_3_" x="-7721.6" y="-2794.3" class="st0" width="0.3" height="16"/>
	
		<rect id="Rectangle_380_3_" x="-7740.8" y="-2786.5" transform="matrix(0.7071 -0.7071 0.7071 0.7071 -293.7066 -6281.6753)" class="st0" width="22.6" height="0.3"/>
	<rect id="Rectangle_381_3_" x="-7737.5" y="-2778.5" class="st0" width="16" height="0.3"/>
	
		<rect id="Rectangle_382_3_" x="-7731.2" y="-2782.4" transform="matrix(0.7168 -0.6973 0.6973 0.7168 -247.9027 -6174.9321)" class="st0" width="11.3" height="0.3"/>
	<path id="Path_821_3_" class="st0" d="M-7696-2777.1c-0.7-1.9-1.4-3.7-2-5.3c-0.6-1.6-1.2-3.2-1.8-4.7c-0.6-1.5-1.2-2.9-1.7-4.2
		c-0.6-1.3-1.2-2.7-1.8-4l-0.1-0.1h-2.7l-0.1,0.2c-0.6,1.3-1.2,2.7-1.8,4c-0.6,1.4-1.2,2.8-1.7,4.2c-0.6,1.5-1.2,3-1.8,4.7
		s-1.2,3.4-2,5.3l-0.1,0.3h3.2l1.7-4.5h7.9c0.2,0.5,0.5,1.4,0.7,2.1c0.2,0.8,0.6,1.5,0.9,2.3l0.1,0.1h3.3L-7696-2777.1z
		 M-7701.8-2783.9h-6.1c0.5-1.5,1-2.9,1.5-4.2c0.5-1.2,1-2.5,1.5-3.6c0.5,1.2,1,2.4,1.5,3.7
		C-7702.9-2786.7-7702.3-2785.4-7701.8-2783.9L-7701.8-2783.9z"/>
	<rect id="Rectangle_383_3_" x="-7694.1" y="-2795.5" class="st0" width="3" height="18.7"/>
	<path id="Path_822_3_" class="st0" d="M-7674.7-2777.1c-0.3-0.8-0.7-1.5-1.2-2.2c-0.4-0.7-0.9-1.5-1.4-2.2
		c-0.4-0.7-0.9-1.3-1.4-1.9c-0.3-0.4-0.6-0.8-0.9-1.1c1-0.4,1.9-1,2.6-1.9c0.7-0.9,1-2.1,1-3.2c0.1-1.8-0.7-3.5-2.1-4.5
		c-1.4-1-3.4-1.5-6-1.5c-0.7,0-1.6,0.1-2.4,0.1c-0.8,0.1-1.5,0.2-2.2,0.4v18.4h3v-7.1h2.9c0.3,0.4,0.7,0.8,1.1,1.3
		c0.4,0.6,0.8,1.1,1.2,1.7c0.4,0.6,0.8,1.3,1.2,1.9c0.4,0.6,0.8,1.3,1.1,2l0.1,0.1h3.3L-7674.7-2777.1z M-7679.3-2788
		c-0.2,0.4-0.6,0.7-1,0.9c-0.5,0.3-1.1,0.5-1.7,0.5c-0.7,0.1-1.5,0.2-2.4,0.2h-1.1v-6.5c0.7-0.1,1.4-0.1,2-0.1c0.6,0,1.2,0,1.8,0.1
		c0.5,0.1,1,0.3,1.4,0.5c0.4,0.2,0.7,0.6,0.9,1c0.3,0.5,0.4,1,0.4,1.6C-7678.9-2789.1-7679.1-2788.5-7679.3-2788z"/>
	<path id="Path_823_3_" class="st0" d="M-7655.8-2777.1c-0.7-1.9-1.4-3.7-2-5.3c-0.6-1.6-1.2-3.2-1.8-4.7c-0.6-1.5-1.2-2.9-1.7-4.2
		c-0.6-1.3-1.2-2.7-1.8-4l-0.1-0.1h-2.7l-0.1,0.2c-0.6,1.3-1.2,2.7-1.8,4c-0.6,1.4-1.2,2.8-1.7,4.2c-0.6,1.4-1.2,3-1.8,4.7
		c-0.6,1.6-1.2,3.4-2,5.3l-0.1,0.3h3.2l1.7-4.5h7.9c0.2,0.5,0.5,1.4,0.7,2.1c0.2,0.8,0.6,1.5,0.9,2.3l0.1,0.1h3.3L-7655.8-2777.1z
		 M-7661.6-2783.9h-6.1c0.5-1.5,1-2.9,1.5-4.2c0.5-1.2,1-2.5,1.5-3.6c0.5,1.2,1,2.4,1.5,3.7
		C-7662.6-2786.7-7662.1-2785.4-7661.6-2783.9z"/>
	<circle id="Ellipse_212_3_" class="st0" cx="-7721.5" cy="-2778.4" r="1.8"/>
	<circle id="Ellipse_213_3_" class="st0" cx="-7721.5" cy="-2794.3" r="1.8"/>
	<circle id="Ellipse_214_3_" class="st0" cx="-7721.5" cy="-2786.4" r="1.8"/>
	<circle id="Ellipse_215_3_" class="st0" cx="-7737.5" cy="-2778.4" r="1.8"/>
	<circle id="Ellipse_216_3_" class="st0" cx="-7729.5" cy="-2778.4" r="1.8"/>
	<circle id="Ellipse_217_3_" class="st0" cx="-7729.5" cy="-2786.2" r="1.8"/>
</g>
</svg>
