<svg xmlns="http://www.w3.org/2000/svg" viewBox="0 0 18.917 15.003">
  <defs>
    <style>
      .cls-1 {
        fill: #03a5ed;
      }
    </style>
  </defs>
  <g id="Page-1_1_" transform="translate(0)">
    <g id="Monogram_1_">
      <path id="Shape_1_" class="cls-1" d="M2.238,3.061a.733.733,0,0,0-.245-.621L.245.318V0H5.733L9.964,9.3,13.689,0h5.227V.318L17.4,1.762a.469.469,0,0,0-.173.419V12.823a.437.437,0,0,0,.173.419l1.473,1.444V15H11.465v-.318L13,13.213c.144-.144.144-.188.144-.419V4.188L8.9,14.974H8.317L3.379,4.188v7.234a.967.967,0,0,0,.274.823l1.978,2.426v.318H0v-.318L1.993,12.26a.972.972,0,0,0,.26-.823l-.014-7.8Z"/>
    </g>
  </g>
</svg>
