<svg xmlns="http://www.w3.org/2000/svg" viewBox="0 0 56.376 64.43">
  <defs>
    <style>
      .cls-1 {
        fill: #e2574c;
      }

      .cls-2 {
        fill: #b53629;
      }

      .cls-3 {
        fill: #fff;
      }
    </style>
  </defs>
  <g id="pdf" transform="translate(-19.329)">
    <path id="Path_1800" data-name="Path 1800" class="cls-1" d="M23.356,0H57.57L75.705,18.065V60.4a4.027,4.027,0,0,1-4.027,4.027H23.356A4.027,4.027,0,0,1,19.329,60.4V4.027A4.027,4.027,0,0,1,23.356,0Z"/>
    <path id="Path_1801" data-name="Path 1801" class="cls-2" d="M221.02,18.274H206.984a4.028,4.028,0,0,1-4.027-4.027V.193Z" transform="translate(-145.373 -0.153)"/>
    <path id="Path_1802" data-name="Path 1802" class="cls-3" d="M114.235,137.737a1.171,1.171,0,0,0,0-2.317h-3.842a1.2,1.2,0,0,0-1.17,1.309v9.441c0,.842.479,1.309,1.127,1.309s1.126-.467,1.126-1.309v-2.591H113.8a1.091,1.091,0,0,0,1.081-1.176,1.071,1.071,0,0,0-1.081-1.144h-2.324v-3.521Zm-12.985-2.317H98.44a1.243,1.243,0,0,0-1.3,1.3v9.457a1.239,1.239,0,0,0,1.337,1.266h2.95a5.471,5.471,0,0,0,5.8-5.843C107.216,137.852,105.046,135.42,101.251,135.42Zm.135,9.693H99.672v-7.361h1.544c2.338,0,3.354,1.569,3.354,3.733C104.571,143.51,103.572,145.113,101.386,145.113Zm-10.3-9.693H88.3a1.171,1.171,0,0,0-1.226,1.309v9.441a1.186,1.186,0,1,0,2.36,0v-2.756h1.746a3.812,3.812,0,0,0,3.932-3.981A3.857,3.857,0,0,0,91.089,135.42Zm-.046,5.779h-1.6v-3.562h1.6a1.789,1.789,0,0,1,0,3.562Z" transform="translate(-53.635 -107.208)"/>
  </g>
</svg>
