<svg xmlns="http://www.w3.org/2000/svg" width="117.675" height="30.336" viewBox="0 0 117.675 30.336">
  <g id="polkadot" transform="translate(-73.036 -173.234)">
    <g id="Layer_1" data-name="Layer 1" transform="translate(73.036 173.234)">
      <path id="Path_1971" data-name="Path 1971" d="M90.931,185.826a9,9,0,0,0,1.9-2.866,8.271,8.271,0,0,0,.658-3.181,6.773,6.773,0,0,0-.456-2.458,5.627,5.627,0,0,0-1.421-2.087,7.088,7.088,0,0,0-2.442-1.453,10.212,10.212,0,0,0-3.52-.545,12.109,12.109,0,0,0-2.8.331,15.255,15.255,0,0,0-7.669,4.1,8.521,8.521,0,0,0-1.57,2.018,4.569,4.569,0,0,0-.573,2.176,3.665,3.665,0,0,0,.283,1.526,2.385,2.385,0,0,0,.807.989,3.6,3.6,0,0,0,1.328.545,8.745,8.745,0,0,0,1.82.17.428.428,0,0,0-.089-.226A2.134,2.134,0,0,1,77,184.5a3.9,3.9,0,0,1-.186-.634,4.965,4.965,0,0,1-.089-1.029,7.972,7.972,0,0,1,.735-3.387,8.428,8.428,0,0,1,1.9-2.539,7.407,7.407,0,0,1,2.7-1.59,11.084,11.084,0,0,1,3.633-.553,4.513,4.513,0,0,1,1.873.355,3.4,3.4,0,0,1,1.284.981,4.141,4.141,0,0,1,.731,1.445,6.3,6.3,0,0,1,.234,1.744,8.928,8.928,0,0,1-.194,1.824,10.236,10.236,0,0,1-1.445,3.5,7.669,7.669,0,0,1-1.167,1.4,6.233,6.233,0,0,1-1.4,1,4.145,4.145,0,0,1-1.615.456s1.1-6.507,2.277-10.822c-1.59-1.316-4.412-.807-4.844.371-1.732,4.686-3.1,13.4-3.879,16.977-.533,2.422-2.4,9.574-2.4,9.574,3,0,5.094-1.211,5.909-3.911.852-2.825,2.66-10.971,2.66-10.971h.178a9.627,9.627,0,0,0,7.035-2.866Z" transform="translate(-73.036 -173.234)" fill="#fff"/>
      <path id="Path_1972" data-name="Path 1972" d="M200.124,202.584l2-9.36h3.483l.242-1.251h-3.483q.214-1.053.4-1.958t.359-1.562q.077-.4.153-.755c.052-.238.727-2.781.88-3.338-1.211,1.526-5.348,3.3-5.348,3.3l-.945,4.315h-1.021l-.258,1.251h1.037L197.037,196c-.646.69-2.45,1.841-3.35.723v-.032q0-4.985-4.008-4.985a6.785,6.785,0,0,0-2.85.573,7.726,7.726,0,0,0-2.2,1.5,9.284,9.284,0,0,0-1.615,2.111,14.369,14.369,0,0,0-1.082,2.422,15,15,0,0,0-.609,2.4,13.217,13.217,0,0,0-.19,2.018c-.052.129-.1.262-.166.4a3.989,3.989,0,0,1-.557.876,2.422,2.422,0,0,1-.7.573,1.78,1.78,0,0,1-.848.206,1.53,1.53,0,0,1-.969-.25,1.11,1.11,0,0,1-.311-.908,4.061,4.061,0,0,1,.032-.5,3.13,3.13,0,0,1,.1-.513s1.647-11.233,3.847-17.486c-2.422.375-4.763.666-4.763.666l-1.647,7.762v-.121a1.372,1.372,0,0,0-.6-1.126,3.229,3.229,0,0,0-1.929-.456,5.954,5.954,0,0,0-2.491.468,7.108,7.108,0,0,0-2.018,1.372,9.373,9.373,0,0,0-1.554,1.982,13.865,13.865,0,0,0-1.106,2.341,14.488,14.488,0,0,0-.654,2.422,14.23,14.23,0,0,0-.194,1.615,8.185,8.185,0,0,1-.379,1.033,4.287,4.287,0,0,1-.565.936,2.745,2.745,0,0,1-.71.634,1.615,1.615,0,0,1-.848.238c-.856,0-1.372-.452-1.28-1.34a68.575,68.575,0,0,1,2.422-12.109c-1.615.27-4.549.5-4.549.5l-.335,1.663v-.23a1.372,1.372,0,0,0-.6-1.126,3.229,3.229,0,0,0-1.929-.456,5.953,5.953,0,0,0-2.486.513,7.108,7.108,0,0,0-2.018,1.372,9.372,9.372,0,0,0-1.554,1.982,13.866,13.866,0,0,0-1.106,2.341,14.483,14.483,0,0,0-.654,2.422,14.261,14.261,0,0,0-.19,1.615,9.042,9.042,0,0,1-.464,1.045c-.6,1.066-1.372,2.228-2.293,2.422-2.131.48-1.1-1.8-.9-2.963.069-.4.351-1.554.351-1.554a3.632,3.632,0,0,0,.1-.6q.024-.3.024-.585a4.739,4.739,0,0,0-.206-1.409,3.3,3.3,0,0,0-.634-1.167,2.983,2.983,0,0,0-1.074-.807,3.693,3.693,0,0,0-1.518-.291,4.035,4.035,0,0,0-1.037.137l6.918-4.844-3.762.5-6.022,4.787,2.494-11.98-4.622.638S134.113,190.58,133,196.61c-.331,1.8-.739,3.689-1.134,5.389a5.992,5.992,0,0,1-.472,1.15c-.242.432-1.1,1.615-2.184,1.615-.989,0-1.251-.492-1.267-1.158-.048-2.377,3.314-17.869,3.314-17.869s-2.737.4-4.622.626c0,0-1.1,4.585-2.018,9.413v-.081a2.567,2.567,0,0,1-3.431,1.033V196.7q0-4.985-4.012-4.985a6.785,6.785,0,0,0-2.85.573,7.726,7.726,0,0,0-2.2,1.5,9.284,9.284,0,0,0-1.615,2.111,14.382,14.382,0,0,0-1.082,2.422,15.018,15.018,0,0,0-.61,2.4,13.063,13.063,0,0,0-.19,2.083,6.172,6.172,0,0,0,.375,2.281,3.939,3.939,0,0,0,1.037,1.526,4.036,4.036,0,0,0,1.586.856,7.193,7.193,0,0,0,2.018.266,5.873,5.873,0,0,0,2.712-.654,7.072,7.072,0,0,0,2.272-1.877,10.426,10.426,0,0,0,1.639-2.959,14.7,14.7,0,0,0,.831-3.9,2.825,2.825,0,0,0,3.253-1.09v-.081a61.106,61.106,0,0,0-.928,6.89,4.2,4.2,0,0,0,.258,1.691,3.229,3.229,0,0,0,.71,1.158,2.729,2.729,0,0,0,1.062.67,3.94,3.94,0,0,0,1.312.214,6.6,6.6,0,0,0,.936-.077,5.49,5.49,0,0,0,1.106-.291,6.2,6.2,0,0,0,1.211-.609,5.714,5.714,0,0,0,.836-.666c-.23.908-.379,1.457-.379,1.457h4.5l1.615-7.714a8.771,8.771,0,0,1,1.211-.848,2.22,2.22,0,0,1,1.09-.311.941.941,0,0,1,.884.4,2.143,2.143,0,0,1,.242,1.1q0,.258-.024.549a3.632,3.632,0,0,1-.1.593l-.258,1.211a8.245,8.245,0,0,0-.182,1.615,3.415,3.415,0,0,0,.993,2.632,4.167,4.167,0,0,0,2.943.924,5.65,5.65,0,0,0,1.243-.17,4.036,4.036,0,0,0,1.5-.755,7.334,7.334,0,0,0,1.562-1.74c.1-.145.194-.3.287-.46.04.157.085.311.137.456a4.307,4.307,0,0,0,.928,1.554,3.387,3.387,0,0,0,1.328.856,4.71,4.71,0,0,0,1.554.258,4.476,4.476,0,0,0,1.534-.25,5.187,5.187,0,0,0,1.259-.654,6.248,6.248,0,0,0,1.021-.916,12.088,12.088,0,0,0,.84-1.045,3.33,3.33,0,0,0,.953,2.143,2.991,2.991,0,0,0,2.111.723,6.139,6.139,0,0,0,.916-.077,4.964,4.964,0,0,0,1.054-.291,5.615,5.615,0,0,0,1.13-.609,6.055,6.055,0,0,0,1.134-1.037,8.67,8.67,0,0,0,.86-1.211,4.964,4.964,0,0,0,.161.545,4.307,4.307,0,0,0,.928,1.554,3.386,3.386,0,0,0,1.328.856,4.711,4.711,0,0,0,1.554.258,4.493,4.493,0,0,0,1.526-.25,5.292,5.292,0,0,0,1.271-.654,5.853,5.853,0,0,0,1.021-.916,9.34,9.34,0,0,0,.807-1.045,2.825,2.825,0,0,0,3.064,2.684,7.636,7.636,0,0,0,.916-.061,4.8,4.8,0,0,0,1.053-.258,5.606,5.606,0,0,0,1.13-.573,5.728,5.728,0,0,0,1.134-.993,7.786,7.786,0,0,0,.727-.965,2.755,2.755,0,0,0,.109.323,3.939,3.939,0,0,0,1.037,1.526,4.037,4.037,0,0,0,1.586.856,7.189,7.189,0,0,0,2.018.266,5.873,5.873,0,0,0,2.712-.654,7.072,7.072,0,0,0,2.272-1.877,10.426,10.426,0,0,0,1.639-2.939,14.7,14.7,0,0,0,.831-3.9,3.37,3.37,0,0,0,3.165-.953l-1.114,5.223a7.93,7.93,0,0,0-.182,1.663,5.336,5.336,0,0,0,.174,1.4,3.076,3.076,0,0,0,.549,1.122,2.527,2.527,0,0,0,.969.739,3.491,3.491,0,0,0,1.433.266,7.039,7.039,0,0,0,5.09-2.119,5.651,5.651,0,0,0,1.461-3.169s-2.159,2.317-4.057,2.317a.981.981,0,0,1-.86-.319,1.388,1.388,0,0,1-.222-.807,3.836,3.836,0,0,1,.028-.488A5.329,5.329,0,0,1,200.124,202.584Zm-82.177-6.567a1.97,1.97,0,0,0-.266,1.074,1.869,1.869,0,0,0,.174.832.936.936,0,0,0,.662.48,15.306,15.306,0,0,1-.557,2.563,10.874,10.874,0,0,1-.86,2.059,5.2,5.2,0,0,1-1.058,1.372,1.736,1.736,0,0,1-1.134.5,2.268,2.268,0,0,1-.747-.1.973.973,0,0,1-.5-.4,1.966,1.966,0,0,1-.274-.771,7.724,7.724,0,0,1-.085-1.267,11.014,11.014,0,0,1,.153-1.732,17.055,17.055,0,0,1,.428-1.929,16.079,16.079,0,0,1,.662-1.9,10.494,10.494,0,0,1,.856-1.639,5.13,5.13,0,0,1,.985-1.15,1.667,1.667,0,0,1,1.082-.436,1.3,1.3,0,0,1,.525.093.779.779,0,0,1,.343.311,1.824,1.824,0,0,1,.214.565,5.542,5.542,0,0,1,.1.848A1.615,1.615,0,0,0,117.947,196.017Zm38.637,5.958a4.272,4.272,0,0,1-.448,1.211,3.811,3.811,0,0,1-.654.86,2.68,2.68,0,0,1-.747.517,1.8,1.8,0,0,1-.739.174,2.983,2.983,0,0,1-.488-.044.936.936,0,0,1-.513-.283,1.873,1.873,0,0,1-.4-.723,4.441,4.441,0,0,1-.17-1.389,11.345,11.345,0,0,1,.137-1.655,15.625,15.625,0,0,1,1.053-3.73,9.062,9.062,0,0,1,.868-1.615,4.622,4.622,0,0,1,1.074-1.134,2.079,2.079,0,0,1,1.243-.428,1.332,1.332,0,0,1,.626.129,1.166,1.166,0,0,1,.4.319,1.231,1.231,0,0,1,.206.4,1.259,1.259,0,0,1,.061.343Zm16.747,0v.17a3.867,3.867,0,0,1-.448,1.142,3.548,3.548,0,0,1-.654.807,2.628,2.628,0,0,1-.747.48,1.881,1.881,0,0,1-.71.161,2.985,2.985,0,0,1-.488-.044.937.937,0,0,1-.513-.283,1.873,1.873,0,0,1-.4-.723,4.441,4.441,0,0,1-.17-1.389,11.349,11.349,0,0,1,.137-1.655,15.629,15.629,0,0,1,1.053-3.73,9.058,9.058,0,0,1,.868-1.615,4.622,4.622,0,0,1,1.074-1.134,2.079,2.079,0,0,1,1.243-.428,1.381,1.381,0,0,1,.6.113,1.038,1.038,0,0,1,.375.291,1.36,1.36,0,0,1,.206.359,2.449,2.449,0,0,1,.1.319Zm17.082-5.97a1.97,1.97,0,0,0-.266,1.074,1.868,1.868,0,0,0,.165.86.936.936,0,0,0,.662.48,15.289,15.289,0,0,1-.557,2.563,10.874,10.874,0,0,1-.86,2.059,5.2,5.2,0,0,1-1.062,1.372,1.736,1.736,0,0,1-1.134.5,2.269,2.269,0,0,1-.747-.1.973.973,0,0,1-.5-.4,1.966,1.966,0,0,1-.274-.771,7.709,7.709,0,0,1-.085-1.267,11.038,11.038,0,0,1,.153-1.732,17.107,17.107,0,0,1,.428-1.929,16.148,16.148,0,0,1,.662-1.9,10.5,10.5,0,0,1,.856-1.639,5.134,5.134,0,0,1,.985-1.15,1.667,1.667,0,0,1,1.082-.436,1.3,1.3,0,0,1,.525.093.775.775,0,0,1,.343.311,1.829,1.829,0,0,1,.214.565,5.56,5.56,0,0,1,.1.848,1.615,1.615,0,0,0-.7.614Z" transform="translate(-94.26 -179.869)" fill="#fff"/>
      <circle id="Ellipse_509" data-name="Ellipse 509" cx="2.587" cy="2.587" r="2.587" transform="translate(112.5 22.723)" fill="#fff"/>
    </g>
  </g>
</svg>
