<svg xmlns="http://www.w3.org/2000/svg" viewBox="0 0 21.51 21.51">
  <defs>
    <style>
      .cls-1 {
        fill: #b5c0f1;
      }
    </style>
  </defs>
  <g id="icon-gear" transform="translate(0 -0.001)">
    <g id="Group_2169" data-name="Group 2169" transform="translate(0 0.001)">
      <path id="Path_1784" data-name="Path 1784" class="cls-1" d="M20.409,8.5,18.9,8.242a8.525,8.525,0,0,0-.607-1.465l.89-1.245a1.325,1.325,0,0,0-.144-1.712L17.7,2.481a1.319,1.319,0,0,0-.939-.391,1.306,1.306,0,0,0-.768.247l-1.249.89A8.436,8.436,0,0,0,13.224,2.6l-.252-1.492A1.327,1.327,0,0,0,11.66,0H9.769a1.327,1.327,0,0,0-1.312,1.11L8.2,2.639a8.315,8.315,0,0,0-1.46.616L5.5,2.365a1.327,1.327,0,0,0-1.712.144L2.444,3.847A1.33,1.33,0,0,0,2.3,5.559l.9,1.263a8.327,8.327,0,0,0-.6,1.469L1.11,8.543A1.327,1.327,0,0,0,0,9.855v1.892a1.327,1.327,0,0,0,1.11,1.312l1.528.261a8.315,8.315,0,0,0,.616,1.46l-.885,1.231a1.325,1.325,0,0,0,.144,1.712l1.339,1.339a1.319,1.319,0,0,0,.939.391,1.306,1.306,0,0,0,.768-.247l1.263-.9a8.5,8.5,0,0,0,1.42.584l.252,1.51A1.327,1.327,0,0,0,9.8,21.511h1.9a1.327,1.327,0,0,0,1.312-1.11l.256-1.51a8.525,8.525,0,0,0,1.465-.607l1.245.89a1.319,1.319,0,0,0,.773.247h0a1.319,1.319,0,0,0,.939-.391l1.339-1.339a1.33,1.33,0,0,0,.144-1.712l-.89-1.249a8.464,8.464,0,0,0,.607-1.465l1.51-.252A1.327,1.327,0,0,0,21.51,11.7V9.81A1.311,1.311,0,0,0,20.409,8.5Zm-.1,3.2a.116.116,0,0,1-.1.117l-1.887.315a.6.6,0,0,0-.485.445,7.193,7.193,0,0,1-.782,1.883.608.608,0,0,0,.027.661l1.11,1.564a.122.122,0,0,1-.013.153l-1.339,1.339a.114.114,0,0,1-.085.036.11.11,0,0,1-.067-.022l-1.559-1.11a.607.607,0,0,0-.661-.027,7.193,7.193,0,0,1-1.883.782.6.6,0,0,0-.445.485l-.319,1.887a.116.116,0,0,1-.117.1H9.809a.116.116,0,0,1-.117-.1l-.315-1.887a.6.6,0,0,0-.445-.485,7.469,7.469,0,0,1-1.842-.755A.622.622,0,0,0,6.785,17a.592.592,0,0,0-.35.112L4.862,18.231a.134.134,0,0,1-.067.022.12.12,0,0,1-.085-.036L3.37,16.878a.122.122,0,0,1-.013-.153l1.105-1.55a.615.615,0,0,0,.027-.665A7.125,7.125,0,0,1,3.7,12.632a.615.615,0,0,0-.485-.445l-1.9-.324a.116.116,0,0,1-.1-.117V9.855a.116.116,0,0,1,.1-.117l1.874-.315a.608.608,0,0,0,.49-.449,7.186,7.186,0,0,1,.768-1.887.6.6,0,0,0-.031-.656L3.294,4.858a.122.122,0,0,1,.013-.153L4.646,3.367a.114.114,0,0,1,.085-.036.11.11,0,0,1,.067.022l1.55,1.105a.615.615,0,0,0,.665.027,7.126,7.126,0,0,1,1.878-.791.615.615,0,0,0,.445-.485l.324-1.9a.116.116,0,0,1,.117-.1h1.892a.116.116,0,0,1,.117.1L12.1,3.182a.608.608,0,0,0,.449.49,7.293,7.293,0,0,1,1.928.791.608.608,0,0,0,.661-.027l1.55-1.114a.134.134,0,0,1,.067-.022.12.12,0,0,1,.085.036L18.18,4.674a.122.122,0,0,1,.013.153l-1.11,1.559a.607.607,0,0,0-.027.661,7.193,7.193,0,0,1,.782,1.883.6.6,0,0,0,.485.445l1.887.319a.116.116,0,0,1,.1.117V11.7Z" transform="translate(0 -0.001)"/>
      <path id="Path_1785" data-name="Path 1785" class="cls-1" d="M140.742,136a4.642,4.642,0,1,0,4.642,4.642A4.645,4.645,0,0,0,140.742,136Zm0,8.07a3.428,3.428,0,1,1,3.428-3.428A3.431,3.431,0,0,1,140.742,144.071Z" transform="translate(-129.984 -129.89)"/>
    </g>
  </g>
</svg>
