<svg xmlns="http://www.w3.org/2000/svg" viewBox="0 0 27.825 25.435">
  <defs>
    <style>
      .cls-1 {
        fill: #f15a24;
      }
    </style>
  </defs>
  <g id="icon-pipe" transform="translate(0 -43.895)">
    <path id="Path_1794" data-name="Path 1794" class="cls-1" d="M26.089,219.934a.5.5,0,0,0-.468-.484H18.444a.5.5,0,0,0-.468.484l-.414,4.77H4.237a.507.507,0,0,0-.471.537v.322H.471A.507.507,0,0,0,0,226.1v1.5a.507.507,0,0,0,.471.537h3.3v.322a.507.507,0,0,0,.471.537H17.718a5.454,5.454,0,0,0,.868,1.585,4.424,4.424,0,0,0,3.446,1.742h0a4.424,4.424,0,0,0,3.446-1.742A5.8,5.8,0,0,0,26.66,226.5ZM.942,227.065v-.429H3.766v.429Zm3.766-1.288h.709v2.146H4.708Zm1.65,2.146v-2.146h11.11l-.063.724a6.018,6.018,0,0,0,.046,1.422Zm18.836-7.4.056.649H18.814l.056-.649Zm-.413,9.338a3.414,3.414,0,0,1-5.5,0,4.624,4.624,0,0,1-.942-3.254l.379-4.362h6.623l.379,4.362A4.624,4.624,0,0,1,24.781,229.861Z" transform="translate(0 -162.994)"/>
    <path id="Path_1795" data-name="Path 1795" class="cls-1" d="M294.158,43.9h-1.789a.541.541,0,0,0,0,1.073h1.789a.649.649,0,0,1,0,1.288h-7.909a.541.541,0,0,0,0,1.073h7.909a1.732,1.732,0,0,0,0-3.434Z" transform="translate(-267.839)"/>
    <path id="Path_1796" data-name="Path 1796" class="cls-1" d="M184.166,81.186h6.5a1.015,1.015,0,0,1,.942,1.073v1.61a.475.475,0,1,0,.942,0v-1.61a2.03,2.03,0,0,0-1.883-2.146h-6.5a1.082,1.082,0,0,1,0-2.146h3.484a.541.541,0,0,0,0-1.073h-3.484a2.165,2.165,0,0,0,0,4.293Z" transform="translate(-170.841 -30.637)"/>
    <path id="Path_1797" data-name="Path 1797" class="cls-1" d="M293.749,44.968h4.237a.541.541,0,0,0,0-1.073h-4.237a.541.541,0,0,0,0,1.073Z" transform="translate(-274.868)"/>
  </g>
</svg>
