<svg xmlns="http://www.w3.org/2000/svg" viewBox="0 0 18.875 18.772">
  <defs>
    <style>
      .cls-1 {
        fill: #fff;
      }
    </style>
  </defs>
  <g id="icon-time_1_" transform="translate(0.011 -1.715)">
    <g id="Layer_2_1_" transform="translate(-0.011 1.715)">
      <g id="Group_2170_1_" transform="translate(0 0)">
        <path id="Path_1786_1_" class="cls-1" d="M12.936,19.792a3.748,3.748,0,0,0-.433.087.747.747,0,1,0,.26,1.471c.173,0,.346-.087.519-.087a.693.693,0,0,0,.519-.952.617.617,0,0,0-.865-.519Z" transform="translate(-1.59 -2.68)"/>
        <path id="Path_1787_1_" class="cls-1" d="M19.578,7.776a.767.767,0,1,0,1.471-.433c-.087-.173-.087-.346-.173-.519a.739.739,0,0,0-1.385.519C19.4,7.516,19.491,7.6,19.578,7.776Z" transform="translate(-2.607 -0.876)"/>
        <path id="Path_1788_1_" class="cls-1" d="M15.779,18.481c-.173.087-.26.173-.433.26a.8.8,0,0,0-.26,1.038.725.725,0,0,0,1.038.26h0l.519-.26a.719.719,0,0,0,.173-1.038.741.741,0,0,0-1.038-.26Z" transform="translate(-2.01 -2.494)"/>
        <path id="Path_1789_1_" class="cls-1" d="M21.558,10.39a.662.662,0,0,0-.779-.692c-.433.087-.779.346-.779.692v.519a.779.779,0,0,0,1.558,0Z" transform="translate(-2.683 -1.327)"/>
        <path id="Path_1790_1_" class="cls-1" d="M19.169,16.177a.719.719,0,0,0-1.038.173h0c-.087.087-.173.26-.26.346a.707.707,0,0,0,.087,1.038h.087a.788.788,0,0,0,1.038-.087c.087-.173.26-.26.346-.433a.826.826,0,0,0-.26-1.038Z" transform="translate(-2.372 -2.181)"/>
        <path id="Path_1791_1_" class="cls-1" d="M20.516,13a.746.746,0,0,0-.952.519h0c-.087.173-.087.346-.173.433a.705.705,0,0,0,.433.952c.346.087.865-.087.952-.433a1.23,1.23,0,0,0,.173-.519A.7.7,0,0,0,20.516,13Z" transform="translate(-2.594 -1.77)"/>
        <path id="Path_1792_1_" class="cls-1" d="M8.047,17.225a7,7,0,0,1-1.9-.606h0c-.173-.087-.26-.173-.433-.26h0c-.26-.173-.519-.26-.779-.433A7.93,7.93,0,0,1,2.941,4.85a8.358,8.358,0,0,1,1.99-1.9h0a7.967,7.967,0,0,1,8.913-.087l-.606.865c-.173.26-.087.433.26.346l2.6-.26a.409.409,0,0,0,.433-.433V3.292L15.835.782C15.749.523,15.575.436,15.4.7l-.606.865A10.061,10.061,0,0,0,7.787.177,1.63,1.63,0,0,0,7.095.35h0A9.284,9.284,0,0,0,1.9,3.811h0c-.087.087-.173.087-.173.173a.45.45,0,0,0-.173.346h0A8.993,8.993,0,0,0,0,9.869H0a1.689,1.689,0,0,0,.087.606h0c0,.173.087.346.087.606a9.637,9.637,0,0,0,2.6,5.106h0a15.067,15.067,0,0,0,1.212,1.038A10.041,10.041,0,0,0,7.7,18.783a.8.8,0,0,0,.346-1.558Z" transform="translate(0.011 -0.027)"/>
        <path id="Path_1793_1_" class="cls-1" d="M10.306,3.8a.592.592,0,0,0-.606.606V10.55l5.625,2.856a.639.639,0,1,0,.606-1.125h0L11,9.771V4.406A.82.82,0,0,0,10.306,3.8Z" transform="translate(-1.296 -0.535)"/>
      </g>
    </g>
  </g>
</svg>
