<svg xmlns="http://www.w3.org/2000/svg" viewBox="0 0 24.298 21.155">
  <defs>
    <style>
      .cls-1 {
        fill: #03a5ed;
      }
    </style>
  </defs>
  <g id="telegram" transform="translate(0)">
    <path id="XMLID_497_" class="cls-1" d="M.429,29.544l5.6,2.09L8.2,38.6a.659.659,0,0,0,1.047.315l3.121-2.544a.931.931,0,0,1,1.135-.032l5.629,4.087a.66.66,0,0,0,1.034-.4L24.284,20.2a.66.66,0,0,0-.884-.75L.423,28.31A.66.66,0,0,0,.429,29.544Zm7.417.977,10.942-6.739a.191.191,0,0,1,.23.3l-9.03,8.394a1.872,1.872,0,0,0-.58,1.12L9.1,35.878a.283.283,0,0,1-.552.04L7.364,31.761A1.1,1.1,0,0,1,7.846,30.522Z" transform="translate(0 -19.401)"/>
  </g>
</svg>
