<svg xmlns="http://www.w3.org/2000/svg" viewBox="0 0 22.298 18.096">
  <defs>
    <style>
      .cls-1 {
        fill: #03a5ed;
      }
    </style>
  </defs>
  <g id="twitter" transform="translate(-5.8 -8)">
    <g id="Group_178" data-name="Group 178" transform="translate(5.8 8)">
      <path id="Path_458" data-name="Path 458" class="cls-1" d="M25.814,12.569v.548A12.874,12.874,0,0,1,12.837,26.095,13.422,13.422,0,0,1,5.8,24.084c.366,0,.731.091,1.1.091a9.409,9.409,0,0,0,5.666-1.919,4.613,4.613,0,0,1-4.3-3.2,2.53,2.53,0,0,0,.822.091,4.63,4.63,0,0,0,1.188-.183A4.6,4.6,0,0,1,6.62,14.486V14.4a4.006,4.006,0,0,0,2.1.548A4.629,4.629,0,0,1,6.709,11.11a3.926,3.926,0,0,1,.64-2.285,12.975,12.975,0,0,0,9.413,4.752,3.749,3.749,0,0,1-.091-1A4.525,4.525,0,0,1,21.245,8a4.424,4.424,0,0,1,3.29,1.462,8.755,8.755,0,0,0,2.924-1.1,5.081,5.081,0,0,1-2.011,2.559,8.784,8.784,0,0,0,2.65-.731,8.113,8.113,0,0,1-2.284,2.379Z" transform="translate(-5.8 -8)"/>
    </g>
  </g>
</svg>
