<svg xmlns="http://www.w3.org/2000/svg" xmlns:xlink="http://www.w3.org/1999/xlink" viewBox="0 0 551 7.021">
  <defs>
    <style>
      .cls-1, .cls-3 {
        fill: none;
      }

      .cls-2 {
        clip-path: url(#clip-path);
      }

      .cls-3 {
        stroke: #707070;
        stroke-width: 2px;
      }
    </style>
    <clipPath id="clip-path">
      <rect class="cls-1" width="551" height="7.021"/>
    </clipPath>
  </defs>
  <g id="Repeat_Grid_35" data-name="Repeat Grid 35" class="cls-2">
    <g transform="translate(4296.324 -18476)">
      <path id="Path_1764" data-name="Path 1764" class="cls-3" d="M-4368.324,18476v7.021" transform="translate(72)"/>
    </g>
    <g transform="translate(4316.324 -18476)">
      <path id="Path_1764-2" data-name="Path 1764" class="cls-3" d="M-4368.324,18476v7.021" transform="translate(72)"/>
    </g>
    <g transform="translate(4336.324 -18476)">
      <path id="Path_1764-3" data-name="Path 1764" class="cls-3" d="M-4368.324,18476v7.021" transform="translate(72)"/>
    </g>
    <g transform="translate(4356.324 -18476)">
      <path id="Path_1764-4" data-name="Path 1764" class="cls-3" d="M-4368.324,18476v7.021" transform="translate(72)"/>
    </g>
    <g transform="translate(4376.324 -18476)">
      <path id="Path_1764-5" data-name="Path 1764" class="cls-3" d="M-4368.324,18476v7.021" transform="translate(72)"/>
    </g>
    <g transform="translate(4396.324 -18476)">
      <path id="Path_1764-6" data-name="Path 1764" class="cls-3" d="M-4368.324,18476v7.021" transform="translate(72)"/>
    </g>
    <g transform="translate(4416.324 -18476)">
      <path id="Path_1764-7" data-name="Path 1764" class="cls-3" d="M-4368.324,18476v7.021" transform="translate(72)"/>
    </g>
    <g transform="translate(4436.324 -18476)">
      <path id="Path_1764-8" data-name="Path 1764" class="cls-3" d="M-4368.324,18476v7.021" transform="translate(72)"/>
    </g>
    <g transform="translate(4456.324 -18476)">
      <path id="Path_1764-9" data-name="Path 1764" class="cls-3" d="M-4368.324,18476v7.021" transform="translate(72)"/>
    </g>
    <g transform="translate(4476.324 -18476)">
      <path id="Path_1764-10" data-name="Path 1764" class="cls-3" d="M-4368.324,18476v7.021" transform="translate(72)"/>
    </g>
    <g transform="translate(4496.324 -18476)">
      <path id="Path_1764-11" data-name="Path 1764" class="cls-3" d="M-4368.324,18476v7.021" transform="translate(72)"/>
    </g>
    <g transform="translate(4516.324 -18476)">
      <path id="Path_1764-12" data-name="Path 1764" class="cls-3" d="M-4368.324,18476v7.021" transform="translate(72)"/>
    </g>
    <g transform="translate(4536.324 -18476)">
      <path id="Path_1764-13" data-name="Path 1764" class="cls-3" d="M-4368.324,18476v7.021" transform="translate(72)"/>
    </g>
    <g transform="translate(4556.324 -18476)">
      <path id="Path_1764-14" data-name="Path 1764" class="cls-3" d="M-4368.324,18476v7.021" transform="translate(72)"/>
    </g>
    <g transform="translate(4576.324 -18476)">
      <path id="Path_1764-15" data-name="Path 1764" class="cls-3" d="M-4368.324,18476v7.021" transform="translate(72)"/>
    </g>
    <g transform="translate(4596.324 -18476)">
      <path id="Path_1764-16" data-name="Path 1764" class="cls-3" d="M-4368.324,18476v7.021" transform="translate(72)"/>
    </g>
    <g transform="translate(4616.324 -18476)">
      <path id="Path_1764-17" data-name="Path 1764" class="cls-3" d="M-4368.324,18476v7.021" transform="translate(72)"/>
    </g>
    <g transform="translate(4636.324 -18476)">
      <path id="Path_1764-18" data-name="Path 1764" class="cls-3" d="M-4368.324,18476v7.021" transform="translate(72)"/>
    </g>
    <g transform="translate(4656.324 -18476)">
      <path id="Path_1764-19" data-name="Path 1764" class="cls-3" d="M-4368.324,18476v7.021" transform="translate(72)"/>
    </g>
    <g transform="translate(4676.324 -18476)">
      <path id="Path_1764-20" data-name="Path 1764" class="cls-3" d="M-4368.324,18476v7.021" transform="translate(72)"/>
    </g>
    <g transform="translate(4696.324 -18476)">
      <path id="Path_1764-21" data-name="Path 1764" class="cls-3" d="M-4368.324,18476v7.021" transform="translate(72)"/>
    </g>
    <g transform="translate(4716.324 -18476)">
      <path id="Path_1764-22" data-name="Path 1764" class="cls-3" d="M-4368.324,18476v7.021" transform="translate(72)"/>
    </g>
    <g transform="translate(4736.324 -18476)">
      <path id="Path_1764-23" data-name="Path 1764" class="cls-3" d="M-4368.324,18476v7.021" transform="translate(72)"/>
    </g>
    <g transform="translate(4756.324 -18476)">
      <path id="Path_1764-24" data-name="Path 1764" class="cls-3" d="M-4368.324,18476v7.021" transform="translate(72)"/>
    </g>
    <g transform="translate(4776.324 -18476)">
      <path id="Path_1764-25" data-name="Path 1764" class="cls-3" d="M-4368.324,18476v7.021" transform="translate(72)"/>
    </g>
    <g transform="translate(4796.324 -18476)">
      <path id="Path_1764-26" data-name="Path 1764" class="cls-3" d="M-4368.324,18476v7.021" transform="translate(72)"/>
    </g>
    <g transform="translate(4816.324 -18476)">
      <path id="Path_1764-27" data-name="Path 1764" class="cls-3" d="M-4368.324,18476v7.021" transform="translate(72)"/>
    </g>
    <g transform="translate(4836.324 -18476)">
      <path id="Path_1764-28" data-name="Path 1764" class="cls-3" d="M-4368.324,18476v7.021" transform="translate(72)"/>
    </g>
  </g>
</svg>
