<?xml version="1.0" encoding="utf-8"?>
<!-- Generator: Adobe Illustrator 22.1.0, SVG Export Plug-In . SVG Version: 6.00 Build 0)  -->
<svg version="1.1" id="Layer_1" xmlns="http://www.w3.org/2000/svg" xmlns:xlink="http://www.w3.org/1999/xlink" x="0px" y="0px"
	 viewBox="0 0 460.1 126.1" style="enable-background:new 0 0 460.1 126.1;" xml:space="preserve">
<style type="text/css">
	.st0{fill:none;}
	.st1{fill:#FFFFFF;}
	.st2{fill:none;stroke:#969696;stroke-linecap:round;stroke-miterlimit:10;}
	.st3{fill:#25262B;}
	.st4{fill:#666666;}
	.st5{fill:#F9CE1C;}
	.st6{fill:#B3B3B3;}
	.st7{fill:#FF8000;}
	.st8{fill:#3F3F40;}
	.st9{fill:#1A1A1A;}
	.st10{fill:#49494B;}
	.st11{fill:#999999;}
	.st12{fill:#808080;}
	.st13{fill:none;stroke:#CCCCCC;stroke-width:2.5;stroke-linecap:round;stroke-linejoin:round;stroke-miterlimit:10;}
	.st14{fill:none;stroke:#969696;stroke-width:1.5;stroke-linecap:round;stroke-linejoin:round;stroke-miterlimit:10;}
</style>
<g id="Group_2104" transform="translate(0 0.064)">
	<path id="Path_1732_1_" class="st0" d="M417.2,108V87.3c0,0,5.2-7.1,2.6-12.2s-5.8-6.4-5.8-6.4V56.4c-14.8-6.3-30.4-10.7-46.4-12.9
		c-27.1-3.9-46.4-6.4-46.4-6.4S280,6.8,238.1,2.9s-62.5,1.3-103.7,14.2c-34.8,11-31.6,20-31.6,20l-57.4-4.5v33.5L39,69.3v15.5
		l7.1,12.9L82.2,108H417.2z"/>
	<path id="Path_1733_1_" class="st1" d="M417.2,97V86.7c0,0,5.2-7.1,2.6-12.2S414,68,414,68V55.8c-14.8-6.3-30.4-10.7-46.4-12.9
		c-27.1-3.9-46.4-6.4-46.4-6.4S280,6.2,238.1,2.3s-67.7-4.5-107.6,10.3c-11.3,4.1-22.1,9.5-32.2,16.1l-52.9,3.9v33.5L39,69.3v15.5
		l7.1,12.9L417.2,97z"/>
	<line class="st2" x1="385.5" y1="56.7" x2="320.9" y2="47"/>
	<path id="Path_1734_1_" class="st3" d="M421.1,106h-32.9V95.7h32.3L421.1,106z"/>
	<path id="Path_1735_1_" class="st4" d="M299.3,41.6c0,0-36.7-23.8-64.4-28.4c-29.6-4.5-47.7-2.6-47.7-2.6l9,30.3L299.3,41.6z"/>
	<path id="Path_1736_1_" class="st4" d="M186.6,40.9h-67l-11-5.8c0,0,34.2-18,69.6-22.6L186.6,40.9z"/>
	<path id="Path_1737_1_" class="st4" d="M294.2,30.6c16.8,10.3,12.9,9,16.8,9.7s9.7-2.6,9.7-2.6s-24.5-18-54.8-28.4
		c-4.5-1.3-3.9,3.9,3.9,7.7C278.7,21.6,284.5,24.8,294.2,30.6z"/>
	<path id="Path_1738_1_" class="st5" d="M414,57.1c0,0-17.4-1.9-19.3,1.9c-1.3,3.2-9,9,19.3,10.3V57.1z"/>
	<path id="Path_1739_1_" class="st6" d="M45.4,44.2c5.2,0.7,9.8,3.5,12.9,7.7c3.9,5.8,2.6,11,2.6,11l-15.5,3.2V44.2z"/>
	<path id="Path_1740_1_" class="st7" d="M59.6,53.8c1.5,2.7,2,6,1.3,9l-15.5,3.3V55.8L59.6,53.8z"/>
	<rect id="Rectangle_620_1_" x="136.3" y="93.8" class="st3" width="211.3" height="12"/>
	<rect id="Rectangle_626_1_" x="46.3" y="97.8" class="st3" width="44.3" height="8"/>
	<rect id="Rectangle_621_1_" x="45.7" y="101.5" class="st8" width="374.9" height="2.8"/>
	<g id="Group_2098_1_" transform="translate(288.019 63.499)">
		<path id="Path_1742_1_" class="st9" d="M107.3,34.2C107.4,15.3,92.2,0.1,73.4,0c-8.3,0-16.3,3-22.5,8.4C43.3,14.8,39,24.2,39,34.2
			H107.3z"/>
		<g id="Group_2097_1_">
			<circle id="Ellipse_436_1_" class="st10" cx="73.2" cy="34.2" r="28.4"/>
			<circle id="Ellipse_437_1_" class="st11" cx="73.2" cy="34.2" r="18.7"/>
			<g id="Group_2096_1_" transform="translate(19.33 18.686)">
				<path id="Path_1743_1_" class="st12" d="M51.2,14.8l-9-9c-2,2.6-3.1,5.7-3.2,9H51.2z"/>
				<path id="Path_1744_1_" class="st12" d="M51.2,17.4H39c0.6,3.1,1.9,5.9,3.9,8.4L51.2,17.4z"/>
				<path id="Path_1745_1_" class="st12" d="M55.1,0v12.9l9-9C61.4,1.9,58.4,0.6,55.1,0z"/>
				<path id="Path_1746_1_" class="st12" d="M52.5,0c-3.2,0-6.4,1.9-9,3.9l9,9V0z"/>
				<path id="Path_1747_1_" class="st12" d="M56.4,17.4l8.4,8.4c1.9-1.9,3.2-5.2,3.9-8.4H56.4z"/>
				<path id="Path_1748_1_" class="st12" d="M52.5,18.7l-8.4,8.4c2.6,1.9,5.2,3.2,8.4,3.2V18.7z"/>
				<path id="Path_1749_1_" class="st12" d="M56.4,14.8h12.2c-0.1-3.3-1.2-6.4-3.2-9L56.4,14.8z"/>
				<path id="Path_1750_1_" class="st12" d="M55.1,18.7v11.6c3.2,0,5.8-1.3,8.4-3.2L55.1,18.7z"/>
			</g>
			<path id="Path_1751_1_" class="st13" d="M39,34.2C39,15.3,54.3,0,73.1,0s34.2,15.3,34.2,34.1l0,0"/>
		</g>
	</g>
	<g id="Group_2101_1_" transform="translate(39.305 63.499)">
		<path id="Path_1752_1_" class="st9" d="M107.3,34.2C107.2,15.3,92,0.1,73.2,0C54.3,0.1,39.1,15.3,39,34.2H107.3z"/>
		<g id="Group_2100_1_">
			<circle id="Ellipse_438_1_" class="st10" cx="73.2" cy="34.2" r="28.4"/>
			<circle id="Ellipse_439_1_" class="st11" cx="73.2" cy="34.2" r="18.7"/>
			<g id="Group_2099_1_" transform="translate(18.686 18.686)">
				<path id="Path_1753_1_" class="st12" d="M51.9,14.8l-9-9c-2.6,2.6-3.2,5.8-3.9,9H51.9z"/>
				<path id="Path_1754_1_" class="st12" d="M51.9,17.4H39.6c0.6,3.1,1.9,5.9,3.9,8.4L51.9,17.4z"/>
				<path id="Path_1755_1_" class="st12" d="M55.1,0v12.9l9-9C62.2,1.9,59,0.6,55.1,0z"/>
				<path id="Path_1756_1_" class="st12" d="M53.2,0c-3.2,0-6.4,1.9-9,3.9l9,9V0z"/>
				<path id="Path_1757_1_" class="st12" d="M57,17.4l8.4,8.4c1.9-1.9,3.2-5.2,3.9-8.4H57z"/>
				<path id="Path_1758_1_" class="st12" d="M53.2,18.7l-8.4,8.4c2.6,1.9,5.2,3.2,8.4,3.2V18.7z"/>
				<path id="Path_1759_1_" class="st12" d="M57,14.8h12.2c-0.1-3.3-1.2-6.4-3.2-9L57,14.8z"/>
				<path id="Path_1760_1_" class="st12" d="M55.1,18.7v11.6c3.2,0,5.8-1.3,8.4-3.2L55.1,18.7z"/>
			</g>
			<path id="Path_1761_1_" class="st13" d="M39,34.2C39.1,15.3,54.3,0.1,73.2,0c18.8,0.1,34,15.3,34.2,34.2"/>
		</g>
	</g>
	<path id="Path_1762_1_" class="st14" d="M189.8,47.4c0,0-9,19.3,7.1,44.5"/>
	<path id="Path_1763_1_" class="st14" d="M299.3,47.4c0,0,17.4,22.6,1.9,45.1"/>
	<path id="Rectangle_622_1_" class="st4" d="M195.9,53.8h13.5c1.2,0,2.3,1,2.3,2.3l0,0c0,1.2-1,2.3-2.3,2.3h-13.5
		c-1.2,0-2.3-1-2.3-2.3l0,0C193.6,54.8,194.7,53.8,195.9,53.8z"/>
</g>
</svg>
