<svg xmlns="http://www.w3.org/2000/svg" viewBox="1733 409 43.996 44">
  <defs>
    <style>
      .cls-1 {
        fill: #cff23b;
      }
    </style>
  </defs>
  <g id="chrome" transform="translate(1732.998 408.988)">
    <path id="XMLID_17_" class="cls-1" d="M95.506,103.741a8.222,8.222,0,1,0,8.223-8.223A8.222,8.222,0,0,0,95.506,103.741Z" transform="translate(-81.727 -81.727)"/>
    <path id="XMLID_18_" class="cls-1" d="M68.95,11.16a.361.361,0,0,0,0-.363,22.007,22.007,0,0,0-36.134-2.5.36.36,0,0,0-.031.405L38.98,19.427a.361.361,0,0,0,.312.18.373.373,0,0,0,.049,0,.361.361,0,0,0,.3-.267A10.713,10.713,0,0,1,50.016,11.3c.3,0,.616.014.931.041H68.636a.36.36,0,0,0,.314-.181Z" transform="translate(-28.015)"/>
    <path id="XMLID_19_" class="cls-1" d="M25.253,97.889a.36.36,0,0,0-.382-.126A10.714,10.714,0,0,1,12.3,91.979l-.014-.027L3.45,76.649a.36.36,0,0,0-.312-.18h0a.361.361,0,0,0-.312.184,22.007,22.007,0,0,0,15.9,32.545.356.356,0,0,0,.054,0,.361.361,0,0,0,.312-.18l6.2-10.731a.361.361,0,0,0-.039-.4Z" transform="translate(0 -65.426)"/>
    <path id="XMLID_20_" class="cls-1" d="M171.969,95.226h-12.4a.361.361,0,0,0-.252.618,10.691,10.691,0,0,1,1.3,13.749l-.016.026-8.851,15.329a.361.361,0,0,0,.312.541h0A22.012,22.012,0,0,0,172.3,95.455a.361.361,0,0,0-.331-.229Z" transform="translate(-129.816 -81.477)"/>
  </g>
</svg>
