<svg xmlns="http://www.w3.org/2000/svg" viewBox="1887 409 43.94 44">
  <defs>
    <style>
      .cls-1 {
        fill: #cff23b;
      }
    </style>
  </defs>
  <path id="opera" class="cls-1" d="M22,44c-.349,0-.7-.014-1.048-.028A22,22,0,0,1,22,0h.084A21.887,21.887,0,0,1,36.667,5.6a15.843,15.843,0,0,0-8.814-2.7A16.547,16.547,0,0,0,14.764,9.6a19.2,19.2,0,0,0-4.121,11.873V22.5a19.09,19.09,0,0,0,4.121,11.873,16.547,16.547,0,0,0,13.088,6.691,15.775,15.775,0,0,0,8.814-2.7A21.851,21.851,0,0,1,22,44Zm15.617-6.509a14.2,14.2,0,0,1-13.675.545c5.6-1.159,9.89-7.892,9.89-16.036S29.543,7.11,23.942,5.964A14.193,14.193,0,0,1,30.269,4.47a14.374,14.374,0,0,1,7.347,2.053,21.971,21.971,0,0,1,0,30.968Z" transform="translate(1886.94 409)"/>
</svg>
