<?xml version="1.0" encoding="utf-8"?>
<!-- Generator: Adobe Illustrator 22.0.1, SVG Export Plug-In . SVG Version: 6.00 Build 0)  -->
<svg version="1.1" id="Layer_1" xmlns="http://www.w3.org/2000/svg" xmlns:xlink="http://www.w3.org/1999/xlink" x="0px" y="0px"
	 width="43.9px" height="44px" viewBox="0 0 43.9 44" style="enable-background:new 0 0 43.9 44;" xml:space="preserve">
<style type="text/css">
	.st0{fill:#FFFFFF;}
</style>
<path id="opera" class="st0" d="M21.9,44c-0.3,0-0.7,0-1,0C8.8,43.4-0.6,33,0,20.9C0.6,9.2,10.2,0,21.9,0H22c5.4,0,10.6,2,14.6,5.6
	c-2.6-1.8-5.7-2.7-8.8-2.7c-5.2,0.1-10,2.5-13.1,6.7c-2.7,3.4-4.1,7.6-4.1,11.9v1c0,4.3,1.4,8.5,4.1,11.9c3.1,4.2,7.9,6.6,13.1,6.7
	c3.1,0,6.2-0.9,8.8-2.7C32.6,42,27.4,44,21.9,44z M37.6,37.5c-4.2,2.5-9.3,2.7-13.7,0.5c5.6-1.2,9.9-7.9,9.9-16S29.5,7.1,23.9,6
	c2-1,4.1-1.5,6.3-1.5c2.6,0,5.1,0.7,7.3,2.1C46.1,15.1,46.1,28.9,37.6,37.5L37.6,37.5z"/>
</svg>
