<?xml version="1.0" encoding="utf-8"?>
<!-- Generator: Adobe Illustrator 23.0.1, SVG Export Plug-In . SVG Version: 6.00 Build 0)  -->
<svg version="1.1" id="Layer_1" xmlns="http://www.w3.org/2000/svg" xmlns:xlink="http://www.w3.org/1999/xlink" x="0px" y="0px"
	 viewBox="0 0 22 14.4" style="enable-background:new 0 0 22 14.4;" xml:space="preserve">
<style type="text/css">
	.st0{fill:#FF4B55;}
	.st1{fill:#FFE15A;}
</style>
<g>
	<path class="st0" d="M21.6,14.4H0.4c-0.2,0-0.4-0.1-0.4-0.4V0.4C0,0.1,0.1,0,0.4,0h21.3C21.9,0,22,0.1,22,0.4V14
		C22,14.2,21.9,14.4,21.6,14.4z"/>
	<g>
		<path class="st1" d="M3.7,2.3L4,3.4h1.2c0.1,0,0.2,0.2,0.1,0.3l-1,0.7l0.4,1.1c0,0.1-0.1,0.2-0.3,0.1L3.5,4.9l-1,0.7
			c-0.1,0.1-0.3,0-0.2-0.1l0.4-1.1l-1-0.7C1.6,3.5,1.7,3.4,1.8,3.4H3l0.4-1.1C3.4,2.1,3.6,2.1,3.7,2.3z"/>
		<path class="st1" d="M7.8,2.5l0.3,0.4l0.4-0.1c0.1,0,0.1,0.1,0.1,0.1L8.4,3.2l0.2,0.4c0,0.1,0,0.1-0.1,0.1L8.1,3.5L7.8,3.9
			c0,0.1-0.1,0-0.1,0V3.4L7.3,3.2c-0.1,0-0.1-0.1,0-0.1l0.4-0.1L7.8,2.5C7.7,2.5,7.8,2.5,7.8,2.5z"/>
		<path class="st1" d="M6.2,1.5l0.4,0.1l0.2-0.4c0-0.1,0.1-0.1,0.1,0l0.1,0.4l0.4,0.1c0.1,0,0.1,0.1,0,0.1L7.1,1.9l0.1,0.4
			c0,0.1-0.1,0.1-0.1,0.1L6.8,2.1L6.4,2.3c-0.1,0-0.1,0-0.1-0.1l0.1-0.4L6.2,1.5C6.2,1.5,6.2,1.5,6.2,1.5z"/>
		<path class="st1" d="M6.9,5.7L6.7,6.1L6.2,5.9C6.2,5.9,6.2,6,6.2,6l0.2,0.4L6.2,6.7c0,0.1,0,0.1,0.1,0.1l0.4-0.1L7,7
			C7,7.1,7,7,7,7V6.6l0.4-0.1c0.1,0,0.1-0.1,0-0.1L7,6.2V5.7C7,5.7,7,5.6,6.9,5.7z"/>
		<path class="st1" d="M8.5,4.7L8.1,4.8L7.8,4.4c0-0.1-0.1-0.1-0.1,0L7.6,4.8H7.3c-0.1,0-0.1,0.1,0,0.1l0.4,0.2L7.6,5.6
			c0,0.1,0.1,0.1,0.1,0.1l0.3-0.3l0.4,0.2c0.1,0,0.1,0,0.1-0.1L8.2,5.1l0.3-0.3C8.6,4.8,8.6,4.7,8.5,4.7z"/>
	</g>
</g>
</svg>
