<?xml version="1.0" encoding="utf-8"?>
<!-- Generator: Adobe Illustrator 23.0.1, SVG Export Plug-In . SVG Version: 6.00 Build 0)  -->
<svg version="1.1" id="github-2" xmlns="http://www.w3.org/2000/svg" xmlns:xlink="http://www.w3.org/1999/xlink" x="0px" y="0px"
	 viewBox="0 0 15 17.2" style="enable-background:new 0 0 15 17.2;" xml:space="preserve">
<style type="text/css">
	.st0{fill:#FFFFFF;}
</style>
<g id="Group_431" transform="translate(0 0)">
	<path id="Path_582" class="st0" d="M8,17.2c-1.4,0-2.6-0.6-2.6-0.9c0-0.3,0-0.9,0-1.9c-3,0.7-3.7-1.5-3.7-1.5
		c-0.2-0.7-0.6-1.2-1.2-1.6c-1-0.7,0.1-0.7,0.1-0.7c0.7,0.1,1.3,0.5,1.7,1.1c0.6,1.1,2,1.5,3.1,0.9c0,0,0,0,0,0
		c0-0.6,0.3-1.1,0.7-1.5c-2.4-0.3-5-1.2-5-5.4c0-1.1,0.4-2.1,1.1-2.9C1.9,2,1.9,0.9,2.3,0c0,0,0.9-0.3,3,1.1c1.8-0.5,3.7-0.5,5.5,0
		c2.1-1.4,3-1.1,3-1.1c0.4,0.9,0.4,2,0.1,2.9C14.6,3.7,15,4.8,15,5.9c0,4.2-2.6,5.1-5,5.4c0.5,0.5,0.8,1.3,0.7,2c0,1.5,0,2.6,0,3
		C10.7,16.6,9.6,17.2,8,17.2z"/>
</g>
</svg>
