<?xml version="1.0" encoding="utf-8"?>
<!-- Generator: Adobe Illustrator 23.0.1, SVG Export Plug-In . SVG Version: 6.00 Build 0)  -->
<svg version="1.1" id="Capa_1" xmlns="http://www.w3.org/2000/svg" xmlns:xlink="http://www.w3.org/1999/xlink" x="0px" y="0px"
	 viewBox="0 0 16.2 16.2" style="enable-background:new 0 0 16.2 16.2;" xml:space="preserve">
<style type="text/css">
	.st0{fill:#03A5ED;}
</style>
<path class="st0" d="M13.4,15.6L0.5,2.7c-0.6-0.6-0.6-1.6,0-2.2s1.6-0.6,2.2,0l13,13c0.6,0.6,0.6,1.6,0,2.2
	C15.1,16.3,14,16.2,13.4,15.6z M15.6,2.8L2.7,15.7c-0.6,0.6-1.6,0.6-2.2,0c-0.6-0.6-0.6-1.6,0-2.2l13-13c0.6-0.6,1.6-0.6,2.2,0
	C16.2,1.2,16.2,2.2,15.6,2.8z"/>
</svg>
