<?xml version="1.0" encoding="utf-8"?>
<!-- Generator: Adobe Illustrator 23.0.1, SVG Export Plug-In . SVG Version: 6.00 Build 0)  -->
<svg version="1.1" id="Capa_1" xmlns="http://www.w3.org/2000/svg" xmlns:xlink="http://www.w3.org/1999/xlink" x="0px" y="0px"
	 viewBox="0 0 16 21" style="enable-background:new 0 0 16 21;" xml:space="preserve">
<style type="text/css">
	.st0{fill:#03A5ED;}
</style>
<g>
	<path class="st0" d="M8,10.3c2.3,0,4.2-2.3,4.2-5.1C12.2,2.3,11.6,0,8,0S3.8,2.3,3.8,5.1C3.8,8,5.7,10.3,8,10.3z"/>
	<path class="st0" d="M0,18.1C0,18,0,18.1,0,18.1L0,18.1z"/>
	<path class="st0" d="M16,18.3C16,18.2,16,17.9,16,18.3L16,18.3z"/>
	<path class="st0" d="M16,17.9c-0.1-4.9-0.7-6.4-5.7-7.3c0,0-0.7,0.9-2.3,0.9s-2.3-0.9-2.3-0.9C0.8,11.6,0.1,13,0,17.8
		c0,0.4,0,0.4,0,0.4c0,0.1,0,0.2,0,0.5c0,0,1.2,2.4,8,2.4c6.8,0,8-2.4,8-2.4c0-0.2,0-0.3,0-0.4C16,18.3,16,18.3,16,17.9z"/>
</g>
</svg>
