<?xml version="1.0" encoding="utf-8"?>
<!-- Generator: Adobe Illustrator 23.0.1, SVG Export Plug-In . SVG Version: 6.00 Build 0)  -->
<svg version="1.1" id="Layer_1" xmlns="http://www.w3.org/2000/svg" xmlns:xlink="http://www.w3.org/1999/xlink" x="0px" y="0px"
	 viewBox="0 0 15 20.5" style="enable-background:new 0 0 15 20.5;" xml:space="preserve">
<style type="text/css">
	.st0{fill:#FFFFFF;}
</style>
<g>
	<g>
		<g>
			<path class="st0" d="M5.8,13.1c0,0.3-0.1,0.6-0.1,1c0,1.8,0.6,3.5,1.3,4h0.8c0.8-0.5,1.3-2.2,1.3-4c0-0.3,0-0.6-0.1-1
				C8.1,13.4,6.9,13.4,5.8,13.1z"/>
			<path class="st0" d="M15,6c0-1.1-0.9-2-2-2c-0.4,0-0.8,0.1-1.1,0.3c-1.2-0.7-2.7-1.2-4.1-1.3l0.7-2.4l2,0.6
				c0,0.1-0.1,0.3-0.1,0.4c0,0.9,0.8,1.7,1.7,1.7c0.9,0,1.7-0.8,1.7-1.7c0-0.9-0.8-1.7-1.7-1.7c-0.5,0-1,0.3-1.3,0.6L8.7,0
				C8.4-0.1,8.1,0.1,8,0.4L7.2,3.1C5.8,3.2,4.3,3.6,3.1,4.4C2.7,4.2,2.4,4,2,4C0.9,4,0,4.9,0,6c0,0.6,0.3,1.2,0.8,1.6
				c0,0.1,0,0.2,0,0.3c0,1.3,0.7,2.5,2.1,3.3c0.2,0.2,0.5,0.3,0.8,0.4c-0.7,0.6-1.2,1.6-1.2,2.7c0,1.5,0.8,2.7,2,3.1
				c0,0.1,0,0.1,0.1,0.2c-1,0.1-1.8,0.9-1.8,1.8c0,0.2,0,0.4,0.1,0.6c0.1,0.3,0.3,0.4,0.6,0.4h8.3c0.3,0,0.5-0.2,0.6-0.4
				c0.1-0.2,0-0.3,0-0.5c0,0,0-0.1,0-0.1c0-0.9-0.7-1.7-1.7-1.8c0-0.1,0-0.1,0.1-0.2c1.2-0.4,2-1.7,2-3.1c0-1.1-0.4-2.1-1.2-2.7
				c0.3-0.1,0.5-0.3,0.8-0.4c1.3-0.9,2.1-2.1,2.1-3.3c0-0.1,0-0.2,0-0.3C14.7,7.2,15,6.6,15,6z M4,7.2c0-0.8,0.6-1.4,1.4-1.4
				s1.4,0.6,1.4,1.4S6.1,8.5,5.4,8.5S4,7.9,4,7.2z M5.1,9.3c0.1-0.1,0.3-0.1,0.5,0c0.3,0.3,0.9,0.6,1.8,0.6S9,9.6,9.2,9.3
				c0.1-0.1,0.3-0.1,0.5,0c0.1,0.1,0.1,0.3,0,0.5c-0.5,0.5-1.4,0.8-2.3,0.8s-1.8-0.3-2.3-0.8C5,9.7,5,9.4,5.1,9.3z M8.2,18.7
				c-0.1,0-0.1,0-0.2,0H7c-0.1,0-0.1,0-0.2,0c-1.1-0.6-1.8-2.5-1.8-4.6c0-0.5,0-1,0.1-1.4c0-0.1,0.1-0.2,0.2-0.2
				c0.1-0.1,0.2-0.1,0.3,0c1.2,0.4,2.6,0.4,3.8,0c0.1,0,0.2,0,0.3,0c0.1,0.1,0.1,0.1,0.2,0.2c0.1,0.5,0.1,1,0.1,1.4
				C9.9,16.3,9.2,18.1,8.2,18.7z M9.5,8.5c-0.8,0-1.4-0.6-1.4-1.4s0.6-1.4,1.4-1.4c0.8,0,1.4,0.6,1.4,1.4S10.2,8.5,9.5,8.5z"/>
			<path class="st0" d="M6.1,7.2c0-0.4-0.3-0.7-0.7-0.7S4.7,6.8,4.7,7.2c0,0.4,0.3,0.7,0.7,0.7S6.1,7.5,6.1,7.2z"/>
			<path class="st0" d="M9.5,6.5c-0.4,0-0.7,0.3-0.7,0.7c0,0.4,0.3,0.7,0.7,0.7c0.4,0,0.7-0.3,0.7-0.7C10.2,6.8,9.8,6.5,9.5,6.5z"/>
		</g>
	</g>
</g>
</svg>
