<?xml version="1.0" encoding="utf-8"?>
<!-- Generator: Adobe Illustrator 23.0.1, SVG Export Plug-In . SVG Version: 6.00 Build 0)  -->
<svg version="1.1" id="Layer_1" xmlns="http://www.w3.org/2000/svg" xmlns:xlink="http://www.w3.org/1999/xlink" x="0px" y="0px"
	 viewBox="0 0 25 25" style="enable-background:new 0 0 25 25;" xml:space="preserve">
<style type="text/css">
	.st0{fill-rule:evenodd;clip-rule:evenodd;fill:#03A5ED;}
	.st1{fill-rule:evenodd;clip-rule:evenodd;fill:#FFFFFF;}
	
		.st2{fill-rule:evenodd;clip-rule:evenodd;fill:none;stroke:#FFFFFF;stroke-width:0.3914;stroke-linecap:round;stroke-linejoin:round;stroke-miterlimit:10;}
	.st3{fill:#FFFFFF;}
	
		.st4{fill-rule:evenodd;clip-rule:evenodd;fill:none;stroke:#606060;stroke-width:0.7827;stroke-linecap:round;stroke-linejoin:round;stroke-miterlimit:10;}
</style>
<g>
	<circle class="st0" cx="12.5" cy="12.5" r="12.5"/>
	<path class="st1" d="M21.3,12c-0.1,0-0.1,0-0.2,0c-0.2-0.6-0.7-1-1.2-1c0,0,0,0,0,0V8.9c0-0.8-0.7-1.5-1.5-1.5h-4.2v-1h-1.4V4.1
		c0.4-0.1,0.7-0.5,0.7-1c0-0.6-0.5-1.1-1.1-1.1c-0.6,0-1.1,0.5-1.1,1.1c0,0.5,0.3,0.9,0.7,1v2.3h-1.4v1H6.5c-0.8,0-1.5,0.7-1.5,1.5
		V11c0,0,0,0,0,0c-0.5,0-0.9,0.4-1.2,1c-0.1,0-0.1,0-0.2,0c-0.6,0-1.1,0.5-1.1,1.1c0,0.6,0.5,1.1,1.1,1.1c0.1,0,0.1,0,0.2,0
		c0.2,0.6,0.7,1,1.2,1c0,0,0,0,0,0v2.1c0,0.8,0.7,1.5,1.5,1.5h11.9c0.8,0,1.5-0.7,1.5-1.5v-2.1c0,0,0,0,0,0c0.5,0,0.9-0.4,1.2-1
		c0.1,0,0.1,0,0.2,0c0.6,0,1.1-0.5,1.1-1.1C22.4,12.5,21.9,12,21.3,12z"/>
	<path class="st2" d="M23.9,12.5c0,6.3-5.1,11.4-11.4,11.4S1.1,18.8,1.1,12.5S6.2,1.1,12.5,1.1S23.9,6.2,23.9,12.5"/>
	<g>
		<polygon class="st3" points="12.5,20.4 12.8,21.2 13.6,21.2 12.9,21.7 13.2,22.5 12.5,22 11.8,22.5 12.1,21.7 11.4,21.2 
			12.2,21.2 		"/>
		<polygon class="st3" points="16.6,19.6 16.9,20.4 17.7,20.4 17.1,20.8 17.3,21.6 16.6,21.1 16,21.6 16.2,20.8 15.6,20.4 
			16.4,20.4 		"/>
		<polygon class="st3" points="8.4,19.6 8.6,20.4 9.4,20.4 8.8,20.8 9,21.6 8.4,21.1 7.7,21.6 7.9,20.8 7.3,20.4 8.1,20.4 		"/>
	</g>
	<path class="st4" d="M7.2,14.6c0,0,1.5,2.3,5.1,2.3s5.5-2.3,5.5-2.3"/>
	<g>
		<circle class="st4" cx="15.4" cy="11.8" r="1.9"/>
		<circle class="st4" cx="9.6" cy="11.8" r="1.9"/>
	</g>
</g>
</svg>
