<?xml version="1.0" encoding="utf-8"?><svg width="142" height="28" viewBox="0 0 142 28" xmlns="http://www.w3.org/2000/svg" xmlns:xlink="http://www.w3.org/1999/xlink"><svg width="13.758" height="9.899" viewBox="0 0 13.758 9.899" id="i-check" xmlns="http://www.w3.org/2000/svg"><path d="M4.95 9.9a1.087 1.087 0 0 1-.772-.32L.32 5.721a1.091 1.091 0 1 1 1.543-1.543L4.95 7.269 11.9.32a1.091 1.091 0 1 1 1.543 1.543L5.722 9.58a1.088 1.088 0 0 1-.772.32z" fill="#54ce63"/></svg><svg width="22.45" height="22.451" viewBox="0 0 22.45 22.451" id="i-checked" x="14" xmlns="http://www.w3.org/2000/svg"><path data-name="Path 1166" d="M11.225 0A11.225 11.225 0 1 0 22.45 11.225 11.225 11.225 0 0 0 11.225 0zm0 20.346a9.121 9.121 0 1 1 9.12-9.121 9.12 9.12 0 0 1-9.12 9.121zm4.412-13.9a.977.977 0 0 0-1.361.379l-3.764 6.765-2.1-2.552a1.055 1.055 0 0 0-1.36-.379 1.038 1.038 0 0 0-.366 1.413l2.917 3.551a1.231 1.231 0 0 0 .728.5h.027a1.273 1.273 0 0 0 1.32-.507l4.32-7.76a1.057 1.057 0 0 0-.361-1.406z" fill="#54ce63"/></svg><svg id="i-close" viewBox="0 0 16.2 16.2" width="16.2" height="16.2" x="37" xmlns="http://www.w3.org/2000/svg"><style>.cst0{fill:#03a5ed}</style><path class="cst0" d="M13.4 15.6L.5 2.7C-.1 2.1-.1 1.1.5.5s1.6-.6 2.2 0l13 13c.6.6.6 1.6 0 2.2-.6.6-1.7.5-2.3-.1zm2.2-12.8L2.7 15.7c-.6.6-1.6.6-2.2 0-.6-.6-.6-1.6 0-2.2l13-13c.6-.6 1.6-.6 2.2 0 .5.7.5 1.7-.1 2.3z"/></svg><svg width="22.446" height="22.446" viewBox="0 0 22.446 22.446" id="i-error" x="54" xmlns="http://www.w3.org/2000/svg"><path data-name="Path 1165" d="M11.223 0a11.223 11.223 0 1 0 11.223 11.223A11.223 11.223 0 0 0 11.223 0zm0 20.342a9.119 9.119 0 1 1 9.119-9.119 9.118 9.118 0 0 1-9.119 9.119zm0-15.42c-.8 0-1.412.419-1.412 1.1v6.215c0 .678.608 1.1 1.412 1.1.784 0 1.412-.436 1.412-1.1V6.019c.001-.661-.627-1.097-1.411-1.097zm0 9.808a1.4 1.4 0 1 0 1.4 1.4 1.4 1.4 0 0 0-1.399-1.4z" fill="#f15a24"/></svg><svg id="user-unknown" viewBox="0 0 25 23.4" width="25" height="23.4" x="77" xmlns="http://www.w3.org/2000/svg"><style>.est0{fill:#fff}</style><path class="est0" d="M19.6 13.6c0-5.4-4.4-9.8-9.8-9.8S0 8.2 0 13.6c0 2.8 1.2 5.4 3.2 7.3l.3.2s.1 0 .1.1c.2.2.3.2.6.4l.2.2c.2.1.4.2.6.4.1 0 .1.1.2.1.2.2.5.2.7.3H6c.7.3 1.6.7 2.3.8h.1c.3.1.6.1.8.1h1.7c.2 0 .6-.1.7-.1h.1c.8-.2 1.6-.4 2.3-.7.2-.1.5-.2.7-.3.1 0 .1-.1.2-.1.2-.1.4-.2.6-.4.1-.1.2-.1.2-.2.2-.1.3-.2.5-.3l.1-.1.3-.2c1.7-2.1 3-4.7 3-7.5zm-18.9 0c0-5 4.1-9.1 9.1-9.1s9.1 4.1 9.1 9.1c0 2.7-1.2 5.1-3.1 6.8-.1-.1-.2-.2-.3-.2l-2.9-1.5c-.2-.2-.5-.4-.5-.7v-1c.1-.1.2-.2.2-.3.4-.6.7-1.2.9-1.8.5-.2.7-.7.7-1.2v-1.2c0-.3-.1-.7-.3-.8V10c0-.2.1-1.2-.7-2.1-.7-.7-1.8-1.1-3.2-1.1s-2.4.3-3 1c-.8.9-.7 2-.7 2.1v1.7c-.3.2-.3.6-.3.8v1.2c0 .4.2.8.5 1 .3 1.1.8 2 1.1 2.3v1c0 .3-.2.6-.4.7L4 20.2c-.1.1-.2.1-.3.2-1.8-1.8-3-4.2-3-6.8z"/><path class="est0" d="M9.8 5.3c4.6 0 8.2 3.7 8.2 8.2s-3.7 8.2-8.2 8.2-8.2-3.8-8.2-8.2 3.6-8.2 8.2-8.2m0-1.5C4.4 3.8 0 8.1 0 13.6s4.4 9.8 9.8 9.8 9.8-4.4 9.8-9.8-4.4-9.8-9.8-9.8z"/><path class="est0" d="M19.4 0c-3.1 0-5.6 2.5-5.6 5.6s2.5 5.6 5.6 5.6S25 8.7 25 5.6 22.5 0 19.4 0zm.4 8.8c0 .1-.2.2-.5.2-.2 0-.4-.1-.5-.2-.1-.1-.2-.2-.2-.4s.1-.3.2-.5c.1-.1.2-.2.5-.2.2 0 .3.1.5.2.2.2.2.3.2.6 0 .1-.1.2-.2.3zm.9-3.4l-.6.6c-.2.2-.3.6-.3 1h-1c0-.4 0-.7.2-.9.1-.2.3-.5.7-.8.3-.3.5-.5.6-.7.2-.2.2-.4.2-.7s-.1-.5-.2-.7c-.2-.2-.3-.2-.7-.2-.2 0-.5.1-.7.2-.2.2-.2.3-.2.6h-1c0-.6.2-.9.6-1.2s.8-.5 1.4-.5c.7 0 1.1.2 1.4.5.2.4.4.8.4 1.4-.1.5-.3.9-.8 1.4z"/></svg><svg id="work" width="39.8" height="28" viewBox="0 0 39.8 28" x="102" xmlns="http://www.w3.org/2000/svg"><style>.fst0{fill:#fff}</style><path class="fst0" d="M12.4 6.2c-.3 0-.6.2-.8.4-1.8 2-2.8 4.7-2.8 7.4s1 5.4 2.8 7.4c.2.2.5.4.8.4.3 0 .6-.1.9-.3l2.2-2.2c.4-.4.5-1.1.1-1.6-.9-1-1.3-2.3-1.3-3.6 0-1.3.5-2.6 1.3-3.6.2-.2.3-.5.3-.8 0-.3-.1-.6-.3-.8l-2.2-2.2c-.4-.4-.7-.5-1-.5zm5.7 6c-.5.5-.7 1.1-.7 1.8s.3 1.3.7 1.8c1 1 2.6 1 3.5 0 .5-.5.7-1.1.7-1.8 0-.6-.2-1.3-.7-1.8-.5-.5-1.1-.7-1.8-.7-.6 0-1.2.3-1.7.7zm2.7.9c.5.5.5 1.3 0 1.8s-1.3.5-1.8 0c-.2-.2-.4-.6-.4-.9 0-.3.1-.7.4-.9.2-.2.6-.4.9-.4.3 0 .7.1.9.4z"/><path class="fst0" d="M5.4.4C-1.8 8-1.8 20 5.4 27.6c.2.3.5.4.8.4.3 0 .6-.1.9-.3l2.2-2.2c.5-.5.5-1.2 0-1.6-2.5-2.7-3.8-6.1-3.8-9.8 0-3.6 1.4-7.1 3.8-9.8.3-.3.4-.6.4-.9 0-.3-.1-.6-.3-.8L7.1.3C6.9.1 6.6 0 6.2 0c-.3 0-.6.1-.8.4zM26.6 6.5l-2.2 2.2c-.3.3-.4.6-.4.9 0 .3.1.5.3.8.9 1 1.3 2.3 1.3 3.6 0 1.3-.5 2.6-1.3 3.6-.4.5-.4 1.2.1 1.6l2.2 2.2c.2.2.5.4.9.3.3 0 .6-.2.8-.4 1.8-2 2.8-4.7 2.8-7.4s-1-5.4-2.8-7.4c-.2-.2-.5-.4-.8-.4-.4.1-.7.2-.9.4zm-6.7 5c-.7 0-1.3.3-1.8.7-.5.5-.7 1.1-.7 1.8 0 .6.2 1.3.7 1.8 1 1 2.5 1 3.5 0 .5-.5.7-1.1.7-1.8s-.3-1.3-.7-1.8c-.4-.4-1-.7-1.7-.7z"/><path class="fst0" d="M33.6 0c-.3 0-.6.1-.9.3l-2.2 2.2c-.2.2-.3.5-.3.8 0 .3.1.6.3.8 2.5 2.7 3.8 6.1 3.8 9.8 0 3.6-1.4 7.1-3.8 9.8-.4.5-.4 1.2 0 1.6l2.2 2.2c.2.2.5.4.9.3.3 0 .6-.1.8-.4 7.2-7.6 7.2-19.6 0-27.3-.2 0-.5-.1-.8-.1z"/></svg></svg>